<svg id="copy2.svg" xmlns="http://www.w3.org/2000/svg" width="365.906" height="364.5" viewBox="0 0 365.906 364.5">
  <defs>
    <style>
      .cls-1 {
        fill: none;
        stroke: #fff;
        stroke-width: 3px;
      }

      .cls-1, .cls-2 {
        fill-rule: evenodd;
      }

      .cls-2 {
        fill: #fff;
      }
    </style>
  </defs>
  <path id="Ellipse_3_copy_6" data-name="Ellipse 3 copy 6" class="cls-1" d="M896.531,271.114A176.4,176.4,0,0,1,545,250q0-8.253.745-16.32" transform="translate(-539.594 -63.375)"/>
  <path id="BUT_WHAT_YOU_GAIN_FOR_LIFE." data-name="BUT WHAT YOU GAIN FOR LIFE." class="cls-2" d="M561.377,219.778l2.2-8.807c1.117-4.484-.926-7.748-4.481-8.634-3.042-.758-5.035.548-6.314,2.95a4.585,4.585,0,0,0-3.621-4.44c-3.3-.822-6.387.79-7.489,5.209l-2.067,8.295Zm-2.822-5.465-5.412-1.349,0.966-3.875c0.463-1.858,1.839-2.739,3.44-2.34a2.676,2.676,0,0,1,2.036,3.432Zm-9.223-2.3-4.676-1.165,0.87-3.491c0.439-1.761,1.5-2.346,2.977-1.979s2.1,1.543,1.643,3.368Zm20.9-20.305c1.908-4.746.833-9.412-4.434-11.53l-13.288-5.345-1.724,4.286,13.043,5.247c3.032,1.219,3.678,2.973,2.545,5.79-1.146,2.847-2.839,3.7-5.87,2.477l-13.043-5.247-1.724,4.287,13.288,5.345C564.292,199.137,568.3,196.516,570.233,191.709Zm8.013-17.626,2.287-4.014-15.972-9.1,3.168-5.563L564.2,153.4l-8.622,15.14,3.527,2.009,3.168-5.563Zm16.717-24.476,0.31-.343-4.518-11.145c-0.53-1.235-1.536-3.076-1.587-3.166,0.191,0.083,2.032.9,3.289,1.28l11.416,3.5,0.309-.343-11.34-21.215-3.006,3.33,4.519,8.436c0.751,1.433,2.141,3.488,2.216,3.6a29.158,29.158,0,0,0-3.94-1.691l-9.774-2.911-0.309.343,3.936,9.377a26.149,26.149,0,0,0,2.084,3.748c-0.215-.106-2.352-1.235-3.808-1.838l-8.875-3.611-3.272,3.625Zm17.579-18.634,3.5-3.022-5.764-6.666L617.538,115l5.763,6.665,3.5-3.022-14.678-16.974-3.5,3.022,6.216,7.189-7.264,6.281-6.216-7.189-3.5,3.022Zm17.193-14.591,3.762-2.388-0.568-3.236,7.356-4.67,2.686,1.892,4.1-2.6-20.8-13.614-0.335.212Zm2.434-9.715-0.624-3.631c-0.3-1.646-1-3.978-1.026-4.079,0.18,0.16,1.957,1.729,3.283,2.646l3.02,2.11ZM652.26,103l4.157-2.015L648.4,84.447l5.76-2.793L652.388,78l-15.679,7.6,1.771,3.652,5.761-2.793Zm27.1-10.646,4.485-1.244-2.286-8.238,3.283-15.332-4.581,1.271-1.293,6.7c-0.354,1.811-.556,4.539-0.556,4.539s-1.661-2.28-2.879-3.586l-4.686-5.037-4.994,1.385,11.31,11.626Zm23.765-4.69a11.517,11.517,0,1,0-13.027-9.892A11.364,11.364,0,0,0,703.121,87.666Zm-0.541-4.089c-4.057.537-7.225-2.272-7.775-6.426s1.777-7.692,5.834-8.229,7.224,2.272,7.774,6.426S706.636,83.04,702.58,83.577Zm25.653,2.776c5.112,0.138,9.111-2.493,9.264-8.166l0.387-14.313-4.617-.125-0.38,14.05c-0.088,3.265-1.507,4.481-4.541,4.4-3.068-.083-4.452-1.375-4.364-4.64l0.38-14.05-4.617-.125L719.358,77.7C719.205,83.369,723.055,86.213,728.233,86.353Zm33.238,4.464a14.592,14.592,0,0,0,8.981-.57l2.293-9.767-9.382-2.2-0.927,3.952,5.269,1.237L766.875,87a11.068,11.068,0,0,1-4.461-.2,6.988,6.988,0,0,1-5.54-8.893c0.958-4.08,4.245-6.529,8.2-5.6a6.214,6.214,0,0,1,4.416,3.138l3.761-2.3c-1.317-2.478-3.661-4.045-7.227-4.882-6.586-1.546-12.256,2.106-13.772,8.564S754.339,89.143,761.471,90.817Zm11.078,2.494,4.144,1.638,2.282-2.363,8.1,3.2,0.05,3.285,4.512,1.784-1.223-24.828-0.368-.146Zm9.288-3.746,2.57-2.64c1.153-1.212,2.628-3.148,2.695-3.228-0.023.239-.247,2.6-0.209,4.211l0.07,3.683Zm13.1,13.227,4.1,2.135,10.371-19.9-4.1-2.135Zm23.873,14.631,0.385,0.254,12.469-18.9L828.057,96.4l-5.18,7.851c-0.854,1.294-2.006,3.579-2.006,3.579a32,32,0,0,0-.513-4.016l-3.6-15.1-0.386-.254-12.469,18.9,3.609,2.381,5.18-7.851a39.5,39.5,0,0,0,1.979-3.6,33.247,33.247,0,0,0,.54,4.034Zm10.733,8.582,3.321,3.212,5.85-6.048,6.427,6.217,2.868-2.964-6.427-6.218,4.061-4.2,7.067,6.837,2.822-2.917-10.388-10.049Zm19.821,21.843a11.515,11.515,0,1,0,2-16.23A11.362,11.362,0,0,0,849.366,147.848Zm3.262-2.523c-2.5-3.236-1.667-7.386,1.647-9.95s7.541-2.329,10.044.906,1.667,7.386-1.647,9.95S855.131,148.561,852.628,145.325Zm6.387,15.535,2.24,4.041,6.813-3.775,1.424,2.569-4.605,7.759,2.56,4.619,4.939-8.586a6.605,6.605,0,0,0,7.872.656c4.59-2.544,4.642-6.875,2.419-10.887l-4.032-7.275Zm12.459-1.622,5.86-3.248,1.728,3.118c1.072,1.934,1.086,3.662-1.108,4.878-2.165,1.2-3.648.361-4.752-1.63Zm0.636,27.889,4.784,13.989,3.841-1.313-3.289-9.617,17.392-5.948-1.5-4.371ZM877.9,205.5l1.088,4.491L900.8,204.7l-1.088-4.491Zm2.325,9.773,0.675,4.571,8.326-1.229,1.307,8.848,4.081-.6-1.306-8.849,5.779-.853,1.437,9.73,4.016-.593-2.112-14.3Zm2.488,18.858,0.355,15.309,4.058-.093-0.247-10.691,5.213-.12,0.208,9.007,3.96-.091-0.209-9.008,5.147-.119,0.237,10.228,4.059-.094-0.344-14.847Zm-0.395,22.507a2.789,2.789,0,1,0,3-2.6A2.755,2.755,0,0,0,882.318,256.634Z" transform="translate(-539.594 -63.375)"/>
</svg>
