<svg id="CIRCLE_copy_3" data-name="CIRCLE copy 3" xmlns="http://www.w3.org/2000/svg" width="358.342" height="366.875" viewBox="0 0 358.342 366.875">
  <defs>
    <style>
      .cls-1 {
        fill: none;
        stroke: #fff;
        stroke-width: 3px;
      }

      .cls-1, .cls-2 {
        fill-rule: evenodd;
      }

      .cls-2 {
        fill: #fff;
      }
    </style>
  </defs>
  <path id="Ellipse_3_copy_2" data-name="Ellipse 3 copy 2" class="cls-1" d="M923.29,260.2Q923,255.138,923,250a176.39,176.39,0,1,1,342.19,60.351" transform="translate(-918.938 -72.094)"/>
  <path id="SURGERY_PROGRAM." data-name="SURGERY PROGRAM." class="cls-2" d="M919.061,283.6c0.716,5.563,4.134,9.333,9.4,8.655,4.894-.629,6.709-3.711,8.2-8.963l0.439-1.544c0.765-2.65,1.336-3.829,3.093-4.055a2.57,2.57,0,0,1,2.87,2.48c0.215,1.673-.356,2.852-2.026,4.087l3.514,4.183c3.141-2.36,4.093-5.2,3.615-8.926-0.673-5.228-4.449-8.144-8.841-7.58-4.768.613-6.666,3.706-7.922,8.162l-0.439,1.545c-0.827,2.827-1.334,4.508-3.341,4.766-1.673.215-3.085-1.176-3.4-3.6-0.371-2.886.925-4.711,2.813-6.229l-3.374-4.414C920.5,274.312,918.362,278.159,919.061,283.6Zm6.58,30.26c1.934,6.243,6.762,10,13.69,7.853l17.479-5.416-1.747-5.639-17.157,5.317c-3.988,1.235-6.042.018-7.191-3.687-1.16-3.746-.166-5.952,3.821-7.188l17.158-5.316-1.748-5.639-17.479,5.416C925.539,301.7,923.681,307.533,925.641,313.856Zm8.091,21.016,2.749,5.223,8.806-4.634,1.748,3.321-6.1,9.784,3.142,5.97,6.546-10.831a8.438,8.438,0,0,0,10.037,1.055c5.933-3.122,6.12-8.652,3.39-13.839l-4.949-9.4Zm15.958-1.728,7.575-3.987,2.121,4.03c1.316,2.5,1.286,4.708-1.55,6.2-2.8,1.473-4.67.361-6.025-2.213Zm8.2,40.763a18.638,18.638,0,0,0,9.476,6.512l10.01-8.008-7.693-9.614-4.05,3.24,4.321,5.4-3.622,2.9a14.145,14.145,0,0,1-4.327-3.721c-3.767-4.708-2.733-9.963,1.448-13.309s9.417-3.214,12.657.835a7.941,7.941,0,0,1,1.963,6.638l5.6,0.652c0.632-3.53-.488-6.954-3.412-10.609-5.4-6.75-13.982-7.552-20.6-2.257S952.041,366.6,957.89,373.907Zm14.82,15.8,14.862,12.725,3.373-3.939-10.378-8.886,4.333-5.061,8.745,7.487,3.291-3.843-8.745-7.487,4.279-5,9.93,8.5,3.37-3.94-14.411-12.341Zm23.481,18.906,5.079,3.008,5.07-8.564,3.23,1.912-0.06,11.53,5.81,3.437-0.11-12.657a8.45,8.45,0,0,0,9.11-4.364c3.41-5.77.67-10.578-4.37-13.565l-9.15-5.414Zm12.689-9.838,4.36-7.367,3.92,2.32c2.43,1.44,3.56,3.335,1.93,6.093-1.61,2.722-3.79,2.757-6.29,1.274Zm21.09,27.366,5.56,2.12,3.89-10.205,15-13.278-5.67-2.166-6.41,5.906c-1.73,1.594-4.01,4.246-4.01,4.246s0.02-3.6-.24-5.871l-1-8.732-6.19-2.361,2.82,20.53Zm37,10.52,5.87,0.629,1-9.348,4.15,0.444c5.78,0.62,10.92-1.8,11.63-8.464s-3.75-10.07-9.58-10.7l-10.02-1.073Zm7.42-13.876,0.95-8.846,3.98,0.427c2.81,0.3,4.61,1.723,4.27,4.909-0.34,3.145-2.32,4.247-5.22,3.937Zm22.9,16.2,5.89-.4-0.68-9.929,3.75-.257,6.48,9.53,6.73-.462-7.26-10.365a8.442,8.442,0,0,0,5.02-8.757c-0.46-6.689-5.44-9.094-11.29-8.693l-10.6.729Zm4.87-15.3-0.59-8.541,4.55-.312c2.82-.194,4.82.725,5.04,3.923,0.22,3.155-1.55,4.418-4.46,4.617Zm39.93,9.166a14.718,14.718,0,1,0-18.18-10.321A14.515,14.515,0,0,0,1142.09,432.849Zm-1.38-5.088c-5.05,1.368-9.54-1.653-10.94-6.822s0.95-10.043,6-11.411,9.53,1.653,10.93,6.822S1145.76,426.393,1140.71,427.761Zm38.14-9.388a18.6,18.6,0,0,0,8.26-8l-5.86-11.4-10.95,5.632,2.37,4.613,6.15-3.164,2.12,4.125a14.071,14.071,0,0,1-4.5,3.5c-5.36,2.758-10.31.7-12.76-4.06s-1.28-9.868,3.33-12.24a7.948,7.948,0,0,1,6.9-.607l1.75-5.357c-3.34-1.32-6.92-.9-11.08,1.239-7.69,3.954-10.18,12.2-6.3,19.743S1170.52,422.655,1178.85,418.373Zm18.89-10.632,4.84-3.38-5.69-8.162,3.07-2.148,10.47,4.829,5.54-3.863-11.57-5.145a8.441,8.441,0,0,0-.2-10.093c-3.84-5.5-9.35-4.994-14.16-1.638l-8.71,6.084Zm-3.7-15.622-4.9-7.02,3.73-2.608c2.32-1.617,4.51-1.863,6.35.765,1.81,2.593.94,4.589-1.45,6.255Zm27.43-1.59,4-4.046-1.63-3.867,7.84-7.911,3.88,1.59,4.36-4.405-29.78-11.031-0.36.36Zm0.26-12.793-1.81-4.344c-0.84-1.963-2.38-4.669-2.44-4.788,0.27,0.148,2.93,1.6,4.85,2.361l4.36,1.767Zm23.95-12.772,3.07-4.742-9.02-5.853c-1.63-1.055-4.33-2.554-4.33-2.554a50.8,50.8,0,0,0,5.08-.38l8.44-1.311,0.3-.46-2.25-8.242c-0.54-1.959-1.72-4.787-1.72-4.787s2.47,1.852,4.1,2.908l9.02,5.853,3.1-4.777-24.31-15.768-0.28.425,5.45,20.123-20.71,3.408-0.25.389Zm21.41-36.484a3.563,3.563,0,1,0-4.74,1.8A3.519,3.519,0,0,0,1267.09,328.48Z" transform="translate(-918.938 -72.094)"/>
</svg>
