<svg xmlns="http://www.w3.org/2000/svg" width="366.469" height="364.281" viewBox="0 0 366.469 364.281">
  <defs>
    <style>
      .cls-1 {
        fill: none;
        stroke: #fff;
        stroke-width: 3px;
      }

      .cls-1, .cls-2 {
        fill-rule: evenodd;
      }

      .cls-2 {
        fill: #fff;
      }
    </style>
  </defs>
  <path id="Ellipse_3_copy_3" data-name="Ellipse 3 copy 3" class="cls-1" d="M817.924,99.865A176.391,176.391,0,1,1,590.321,363.4" transform="translate(-537.125 -63.844)"/>
  <path id="WHEN_IT_S_GO-TIME." data-name="WHEN IT’S GO-TIME." class="cls-2" d="M583.925,331.725l-0.235-.542-15.359-.651c-1.717-.038-4.391.156-4.524,0.168a45.107,45.107,0,0,0,3.232-3.148l10.127-11.422-0.235-.542-30.689,1.949,2.281,5.262,12.208-.787c2.065-.113,5.192-0.641,5.363-0.67a37.356,37.356,0,0,0-4.055,3.689l-8.565,9.826,0.235,0.542,12.993,0.389a33.439,33.439,0,0,0,5.464-.437c-0.237.194-2.682,2.082-4.155,3.456l-8.9,8.41,2.482,5.727Zm-12.09-30.892-1.039-5.811-11.083,1.983-2.161-12.079,11.083-1.983-1.039-5.811-28.226,5.049,1.039,5.811,11.955-2.138,2.16,12.079-11.954,2.138,1.039,5.811Zm-5.121-30.939-0.986-19.54-5.18.261,0.689,13.645-6.654.336L554,253.1l-5.053.255,0.58,11.5-6.569.332L542.3,252.128l-5.18.261,0.956,18.951Zm2.342-49.088,0.076-.585-28.692-3.729-0.712,5.479,11.92,1.549c1.966,0.256,5.236.3,5.236,0.3a40.853,40.853,0,0,0-4.325,2.84l-15.332,12.6-0.076.586,28.692,3.728,0.712-5.479-11.92-1.549a50.5,50.5,0,0,0-5.241-.255,42.666,42.666,0,0,0,4.33-2.883Zm4.831-17.9,1.934-5.578-27.092-9.393-1.934,5.578Zm7.284-18.392,2.608-5.3-21.073-10.376,3.614-7.34-4.654-2.292-9.836,19.977,4.654,2.291,3.614-7.34Zm-5.7-26.451,1.5-2.3-2.218-4.471a6.988,6.988,0,0,0-2.345-3.043,3.417,3.417,0,1,0-.086,5.839Zm27.266-6.871c3.572-4.325,3.987-9.4-.11-12.782-3.8-3.142-7.3-2.36-12.15.141l-1.428.735c-2.457,1.253-3.708,1.642-5.074.514a2.569,2.569,0,0,1-.152-3.79c1.075-1.3,2.326-1.69,4.369-1.316l0.65-5.424c-3.869-.68-6.6.569-8.986,3.463-3.357,4.065-2.9,8.815.511,11.635,3.707,3.062,7.262,2.333,11.373.2l1.428-.736c2.629-1.329,4.2-2.108,5.764-.819,1.3,1.074,1.25,3.056-.308,4.942-1.853,2.244-4.071,2.546-6.47,2.2l-0.915,5.48C594.973,156.481,599.245,155.414,602.736,151.187Zm29.66-27.75a18.636,18.636,0,0,0,6.88-9.215l-7.61-10.317-9.909,7.31,3.079,4.174,5.565-4.1,2.754,3.733a14.155,14.155,0,0,1-3.888,4.178c-4.853,3.58-10.064,2.34-13.243-1.97s-2.842-9.536,1.332-12.615a7.938,7.938,0,0,1,6.71-1.7l0.871-5.569c-3.5-.77-6.968.214-10.735,2.993-6.957,5.132-8.1,13.676-3.065,20.5S624.862,128.994,632.4,123.437Zm27.359-15.788a14.718,14.718,0,1,0-19.6-7.276A14.522,14.522,0,0,0,659.755,107.649Zm-2.177-4.8c-4.762,2.159-9.678-.1-11.889-4.982s-0.673-10.066,4.089-12.225,9.678,0.1,11.889,4.982S662.341,100.689,657.578,102.848Zm17.979-11.243,10.163-2.8-1.343-4.878-10.163,2.8Zm22.125,3.888,5.833-.912-3.628-23.209,8.084-1.263-0.8-5.125-22,3.439,0.8,5.125,8.084-1.264Zm19.695-2.19,5.9-.175-0.851-28.662-5.9.175Zm13.3-.715,5.605,0.712,1.355-10.666c0.244-1.924.423-5,.423-5a50.63,50.63,0,0,0,2.543,4.4l4.845,7.033,0.544,0.069,6.449-5.6A50.621,50.621,0,0,0,756,79.909s-0.6,3.027-.842,4.951L753.8,95.527l5.647,0.717,3.65-28.737-0.5-.064-15.758,13.64L734.783,63.911l-0.46-.058ZM766.5,98.353l18.562,6.193,1.642-4.92L773.738,95.3l2.109-6.321,10.922,3.644,1.6-4.8-10.922-3.644,2.082-6.241,12.4,4.138,1.642-4.921-18-6.007Zm27.176,10.612a3.564,3.564,0,1,0-1.691-4.779A3.519,3.519,0,0,0,793.672,108.965Z" transform="translate(-537.125 -63.844)"/>
</svg>
