<svg id="CIRCLE_copy" data-name="CIRCLE copy" xmlns="http://www.w3.org/2000/svg" width="370" height="365.656" viewBox="0 0 370 365.656">
  <defs>
    <style>
      .cls-1 {
        fill: none;
        stroke: #fff;
        stroke-width: 3px;
      }

      .cls-1, .cls-2 {
        fill-rule: evenodd;
      }

      .cls-2 {
        fill: #fff;
      }
    </style>
  </defs>
  <path class="cls-1" d="M431.7,192.261A176.406,176.406,0,1,1,95.606,299.343" transform="translate(-72.719 -61.656)"/>
  <path id="KNOW_YOUR_WAIT-TIME" data-name="KNOW YOUR WAIT-TIME" class="cls-2" d="M103.882,284.313l-0.6-5.874-8.308.845-3.6-2.432,10.85-8.777-0.722-7.091L86.573,273.356l-13.495-8.462,0.679,6.672,10.554,6.641a22.154,22.154,0,0,0,4.7,2.065,47.511,47.511,0,0,0-4.822.109l-9.441.961,0.6,5.875Zm-0.267-50.442,0.046-.589-28.843-2.269-0.433,5.508,11.983,0.943c1.976,0.155,5.243.032,5.243,0.032a40.759,40.759,0,0,0-4.175,3.056L72.764,253.908l-0.046.589,28.843,2.268,0.433-5.508-11.983-.942a50.542,50.542,0,0,0-5.247.01,42.56,42.56,0,0,0,4.178-3.1Zm4.966-20.26a14.719,14.719,0,1,0-18.266,10.166A14.524,14.524,0,0,0,108.581,213.611Zm-5.064-1.466c-1.454,5.023-6.368,7.288-11.513,5.8s-8.089-6.03-6.635-11.053,6.369-7.288,11.513-5.8S104.971,207.122,103.517,212.145Zm14.031-23.86,0.257-.531-9.518-12.066c-1.091-1.326-2.98-3.226-3.076-3.319,0.265,0.034,2.814.38,4.493,0.4L124.962,173l0.258-.531-21.481-21.991-2.5,5.159,8.554,8.74c1.432,1.491,3.87,3.517,4,3.629a37.26,37.26,0,0,0-5.439-.67l-13.031-.087-0.258.531,8.174,10.1a33.563,33.563,0,0,0,3.894,3.856c-0.3-.053-3.327-0.676-5.329-0.9l-12.178-1.267-2.723,5.615Zm26.079-42.242,3.952-4.444-8.164-7.258-7.1-18.732-4.035,4.539,3.253,8.084c0.875,2.189,2.549,5.258,2.549,5.258s-3.363-1.3-5.576-1.854l-8.521-2.158-4.4,4.948,20.2,4.64Zm22.3-20.844a14.717,14.717,0,1,0-20.771-2.333A14.522,14.522,0,0,0,165.923,125.2Zm-3.271-4.134c-4.1,3.244-9.416,2.234-12.738-1.966s-3.083-9.605,1.018-12.849,9.416-2.234,12.738,1.966S166.753,117.821,162.652,121.065Zm29.95-12.948c5.829-2.959,8.719-8.352,5.435-14.82l-8.286-16.32-5.264,2.673,8.133,16.019c1.89,3.723,1.036,5.954-2.423,7.71-3.5,1.776-5.84,1.168-7.73-2.555L174.334,84.8l-5.264,2.673,8.285,16.32C180.639,110.265,186.7,111.115,192.6,108.117Zm16.045-7.819,5.653-1.7-2.864-9.53,3.594-1.08,8.437,7.855,6.461-1.942-9.379-8.5a8.439,8.439,0,0,0,2.955-9.65c-1.93-6.421-7.323-7.662-12.936-5.974l-10.176,3.059ZM210,84.3l-2.464-8.2L211.9,74.8c2.706-.813,4.867-0.362,5.789,2.707,0.911,3.029-.538,4.653-3.325,5.491Zm42.772,6.759,0.59-.01,6.466-13.945c0.69-1.572,1.531-4.117,1.571-4.244,0.089,0.251.932,2.683,1.675,4.188l6.689,13.718,0.591-.01,9.915-29.1-5.734.1-3.933,11.581c-0.684,1.952-1.39,5.043-1.429,5.212a37.228,37.228,0,0,0-1.86-5.155l-5.81-11.666-0.591.01L255.6,73.6a33.358,33.358,0,0,0-1.681,5.216c-0.09-.294-0.9-3.274-1.608-5.16l-4.372-11.438-6.24.108Zm25.832-.324,5.61,0.967,2.238-3.551,10.97,1.891,0.92,4.1,6.109,1.053-8.011-30.733-0.5-.086Zm10.639-7.109,2.524-3.972c1.126-1.817,2.466-4.624,2.529-4.742,0.033,0.305.37,3.316,0.837,5.322l1.049,4.588Zm19.381,13.239,5.64,1.745,8.475-27.4-5.64-1.745Zm17.812,6.326,5.392,2.406L341.4,84.151l7.471,3.334,2.114-4.736-20.332-9.074-2.114,4.736,7.47,3.334Zm17.919-1.337,9.1,5.316,2.552-4.37-9.1-5.315Zm12.013,18.069,4.75,3.51,13.961-18.9,6.581,4.863,3.084-4.172L366.835,92l-3.083,4.173,6.581,4.863ZM371.136,131.8l4.3,4.045,19.647-20.887-4.3-4.045Zm9.342,8.277,3.491,4.443,8.455-6.644c1.525-1.2,3.815-3.266,3.815-3.266a50.671,50.671,0,0,0-1.281,4.922l-1.49,8.41,0.339,0.431,8.524,0.542a50.609,50.609,0,0,0,5.085-.081s-2.551,1.736-4.076,2.935l-8.455,6.643,3.517,4.477,22.779-17.9-0.313-.4-20.8-1.354,3.474-20.695-0.287-.365ZM401.514,168.6l8.952,17.4,4.612-2.373-6.25-12.151,5.925-3.048,5.267,10.238,4.5-2.315-5.267-10.238,5.85-3.01,5.981,11.626,4.613-2.373-8.681-16.876Z" transform="translate(-72.719 -61.656)"/>
</svg>
