<?xml version="1.0" encoding="utf-8"?>
<!-- Generator: Adobe Illustrator 22.1.0, SVG Export Plug-In . SVG Version: 6.00 Build 0)  -->
<svg version="1.1" id="Layer_1" xmlns="http://www.w3.org/2000/svg" xmlns:xlink="http://www.w3.org/1999/xlink" x="0px" y="0px"
	 viewBox="0 0 312.7 312.7" style="enable-background:new 0 0 312.7 312.7;" xml:space="preserve">
<style type="text/css">
	.st0{enable-background:new    ;}
	.st1{fill:#FFE99B;}
</style>
<g class="st0">
	<path class="st1" d="M10.8,11.9H9v3.3H7.4v-3.3H1.1v-1.3l5.7-9.8H9v9.7h1.8V11.9z M7.4,10.5v-8l-4.6,8H7.4z"/>
	<path class="st1" d="M35.7,15.3h-1.6c-0.1-0.4-0.2-1-0.2-1.7c-0.9,1.3-2.1,2-3.7,2c-0.8,0-1.5-0.3-2.1-0.8
		c-0.6-0.6-0.9-1.3-0.9-2.2c0-0.5,0.1-1,0.3-1.4s0.5-0.7,0.9-1s0.9-0.5,1.5-0.7s1.3-0.3,2.1-0.3L33.9,9V8.5c0-1.8-0.9-2.7-2.6-2.7
		c-0.4,0-0.9,0.1-1.5,0.3c-0.6,0.2-1.1,0.4-1.6,0.6l-0.4-1.1c1.5-0.7,2.8-1.1,4.1-1.1c2.4,0,3.7,1.3,3.7,3.9V13
		C35.5,13.7,35.6,14.5,35.7,15.3z M33.9,12.1v-1.9c-1.4,0.1-2.4,0.3-3,0.4c-0.5,0.1-1,0.3-1.4,0.6s-0.6,0.7-0.6,1.2s0.2,0.9,0.5,1.2
		s0.8,0.4,1.3,0.4c0.6,0,1.1-0.2,1.7-0.5C33,13.2,33.4,12.7,33.9,12.1z"/>
	<path class="st1" d="M48.2,4.9l-0.6,1.5c-0.7-0.3-1.3-0.5-1.8-0.5S44.9,6,44.4,6.3S43.5,7,43.2,7.5c-0.4,0.5-0.6,0.8-0.6,0.8v6.9
		H41V4.6h1.6v2.2c0.9-1.6,2-2.4,3.3-2.4C46.7,4.3,47.5,4.5,48.2,4.9z"/>
	<path class="st1" d="M61,10h-7.3c0,1.2,0.4,2.2,1.1,3s1.6,1.2,2.6,1.2s2-0.2,3-0.5l0.3,1.3c-0.9,0.4-2,0.6-3.3,0.6
		c-1.6,0-2.9-0.5-3.8-1.5S52,11.6,52,9.9s0.4-3,1.3-4.1c0.9-1,2-1.5,3.4-1.5c1.2,0,2.3,0.5,3.1,1.4S61,7.9,61,9.5V10z M59.2,8.7
		c0-0.8-0.3-1.5-0.8-2.1c-0.4-0.6-1-0.9-1.7-0.9c-0.8,0-1.5,0.3-2.1,0.8c-0.5,0.5-0.8,1.3-0.9,2.1L59.2,8.7L59.2,8.7z"/>
	<path class="st1" d="M87.1,4.6l-1.5,10.7h-1.2l-2.5-6l-2.5,6h-1.2L76.6,4.6h1.6c0.6,5,0.9,7.6,0.9,7.9l2-4.6h1.6l1.9,4.6l0.9-7.8
		L87.1,4.6L87.1,4.6z"/>
	<path class="st1" d="M98.7,15.3h-1.6c-0.1-0.4-0.2-1-0.2-1.7c-0.9,1.3-2.1,2-3.7,2c-0.8,0-1.5-0.3-2.1-0.8
		c-0.6-0.6-0.9-1.3-0.9-2.2c0-0.5,0.1-1,0.3-1.4s0.5-0.7,0.9-1s0.9-0.5,1.5-0.7s1.3-0.3,2.1-0.3L96.9,9V8.5c0-1.8-0.9-2.7-2.6-2.7
		c-0.4,0-0.9,0.1-1.5,0.3c-0.6,0.2-1.1,0.4-1.6,0.6l-0.4-1.1c1.5-0.7,2.8-1.1,4.1-1.1c2.4,0,3.7,1.3,3.7,3.9V13
		C98.5,13.7,98.6,14.5,98.7,15.3z M96.9,12.1v-1.9c-1.4,0.1-2.4,0.3-3,0.4c-0.5,0.1-1,0.3-1.4,0.6s-0.6,0.7-0.6,1.2s0.2,0.9,0.5,1.2
		s0.8,0.4,1.3,0.4c0.6,0,1.1-0.2,1.7-0.5S96.5,12.7,96.9,12.1z"/>
	<path class="st1" d="M108.4,15.3h-1.6V6h-3.1V4.6h4.7V15.3z M107.6,0.5c0.3,0,0.6,0.1,0.8,0.3c0.2,0.2,0.3,0.5,0.3,0.8
		s-0.1,0.6-0.3,0.8c-0.2,0.2-0.5,0.3-0.8,0.3s-0.5-0.1-0.7-0.3s-0.3-0.5-0.3-0.8s0.1-0.6,0.3-0.8C107.1,0.6,107.4,0.5,107.6,0.5z"/>
	<path class="st1" d="M123.8,14.8c-1.1,0.5-2.1,0.7-3.2,0.7c-1.9,0-2.9-1-2.9-3V6h-2.1V4.6h2.1V1.7h1.6v2.9h3.6V6h-3.6v6.1
		c0,0.7,0.1,1.2,0.4,1.5c0.3,0.4,0.7,0.5,1.2,0.5c0.9,0,1.7-0.2,2.6-0.6L123.8,14.8z"/>
	<path class="st1" d="M133.6,15.3H132V6h-3.1V4.6h4.7L133.6,15.3L133.6,15.3z M132.8,0.5c0.3,0,0.6,0.1,0.8,0.3s0.3,0.5,0.3,0.8
		s-0.1,0.6-0.3,0.8s-0.5,0.3-0.8,0.3s-0.5-0.1-0.7-0.3s-0.3-0.5-0.3-0.8s0.1-0.6,0.3-0.8S132.6,0.5,132.8,0.5z"/>
	<path class="st1" d="M148.9,15.3h-1.6V8.4c0-1-0.2-1.6-0.5-2.1c-0.3-0.4-0.8-0.6-1.4-0.6c-1,0-2,0.6-3.1,1.8v7.7h-1.6V4.6h1.6v1.6
		c1.1-1.2,2.4-1.8,3.6-1.8c2,0,3,1.2,3,3.6V15.3z"/>
	<path class="st1" d="M156.2,11.2c-1,0.5-1.5,0.9-1.5,1.3c0,0.2,0.1,0.4,0.3,0.5s0.5,0.2,0.9,0.2l3.6-0.1c0.9,0,1.5,0.2,2,0.6
		c0.5,0.4,0.7,1,0.7,1.8c0,1.2-0.5,2.2-1.6,2.9c-1.1,0.7-2.3,1.1-3.8,1.1c-1.2,0-2.1-0.2-2.9-0.7c-0.8-0.5-1.1-1.1-1.1-1.9
		c0-0.9,0.6-1.6,1.7-2.2c-1-0.5-1.4-1-1.4-1.7c0-0.8,0.6-1.5,1.9-2.1c-0.6-0.3-1-0.8-1.3-1.4s-0.5-1.1-0.5-1.8c0-1,0.3-1.8,1-2.5
		c0.7-0.6,1.5-1,2.6-1c0.7,0,1.4,0.2,2,0.5l3.2-0.5v1.6h-2c0.3,0.5,0.5,1.2,0.5,1.9c0,1-0.3,1.8-1,2.5s-1.5,1-2.6,1
		C156.6,11.3,156.4,11.2,156.2,11.2z M156.9,18.2c1.1,0,2-0.2,2.7-0.7s1.1-1,1.1-1.7s-0.5-1.1-1.6-1.1c-0.3,0-1,0-1.8,0.1
		c-0.5,0-1,0-1.3,0c-0.2,0-0.4,0.1-0.7,0.4c-0.3,0.2-0.6,0.5-0.7,0.7c-0.2,0.2-0.3,0.5-0.3,0.8c0,0.4,0.2,0.8,0.7,1.1
		C155.5,18.1,156.1,18.2,156.9,18.2z M156.8,10c0.6,0,1.1-0.2,1.4-0.6c0.4-0.4,0.6-0.9,0.6-1.6s-0.2-1.2-0.5-1.6
		c-0.4-0.4-0.8-0.6-1.5-0.6c-0.6,0-1,0.2-1.4,0.6s-0.6,0.9-0.6,1.6c0,0.6,0.2,1.2,0.6,1.6C155.8,9.8,156.3,10,156.8,10z"/>
	<path class="st1" d="M182.6,4.3c1.5,0,2.6,0.5,3.5,1.5s1.3,2.4,1.3,4c0,1.7-0.4,3-1.3,4.1s-2,1.5-3.5,1.5s-2.6-0.5-3.5-1.5
		s-1.3-2.4-1.3-4.1s0.4-3,1.3-4.1C179.9,4.8,181.1,4.3,182.6,4.3z M182.6,14.1c1,0,1.7-0.4,2.3-1.2s0.8-1.8,0.8-3s-0.3-2.2-0.8-3
		s-1.3-1.2-2.3-1.2s-1.8,0.4-2.3,1.2s-0.8,1.8-0.8,3.1c0,1.2,0.3,2.2,0.8,3C180.8,13.7,181.6,14.1,182.6,14.1z"/>
	<path class="st1" d="M199.3,15.3h-1.6V8.4c0-1-0.2-1.6-0.5-2.1c-0.3-0.4-0.8-0.6-1.4-0.6c-1,0-2,0.6-3.1,1.8v7.7h-1.6V4.6h1.6v1.6
		c1.1-1.2,2.4-1.8,3.6-1.8c2,0,3,1.2,3,3.6V15.3z"/>
	<path class="st1" d="M224.5,15.3h-1.6v-1.5c-0.3,0.5-0.8,1-1.4,1.3c-0.6,0.3-1.3,0.5-1.9,0.5c-1.2,0-2.2-0.5-2.9-1.6
		s-1.1-2.5-1.1-4.1S216,7,216.7,6c0.7-1,1.7-1.5,2.9-1.5c1.3,0,2.4,0.5,3.2,1.6V0.8h1.6L224.5,15.3L224.5,15.3z M222.9,12V7.5
		c-0.8-1.2-1.7-1.8-2.8-1.8c-0.9,0-1.6,0.4-2.1,1.2s-0.8,1.8-0.8,3s0.2,2.2,0.7,3.1c0.5,0.8,1.1,1.2,2,1.2c0.4,0,0.8-0.1,1.2-0.3
		s0.8-0.5,1.2-1S222.9,12.1,222.9,12z"/>
	<path class="st1" d="M234.4,15.3h-1.6V6h-3.1V4.6h4.7L234.4,15.3L234.4,15.3z M233.7,0.5c0.3,0,0.6,0.1,0.8,0.3s0.3,0.5,0.3,0.8
		s-0.1,0.6-0.3,0.8s-0.5,0.3-0.8,0.3s-0.5-0.1-0.7-0.3s-0.3-0.5-0.3-0.8s0.1-0.6,0.3-0.8C233.1,0.6,233.4,0.5,233.7,0.5z"/>
	<path class="st1" d="M250,15.3h-1.6c-0.1-0.4-0.2-1-0.2-1.7c-0.9,1.3-2.1,2-3.7,2c-0.8,0-1.5-0.3-2.1-0.8c-0.6-0.6-0.9-1.3-0.9-2.2
		c0-0.5,0.1-1,0.3-1.4s0.5-0.7,0.9-1s0.9-0.5,1.5-0.7s1.3-0.3,2.1-0.3l1.8-0.1V8.5c0-1.8-0.9-2.7-2.6-2.7c-0.4,0-0.9,0.1-1.5,0.3
		c-0.6,0.2-1.1,0.4-1.6,0.6L242,5.4c1.5-0.7,2.8-1.1,4.1-1.1c2.4,0,3.7,1.3,3.7,3.9v4.6C249.7,13.7,249.8,14.5,250,15.3z
		 M248.1,12.1v-1.9c-1.4,0.1-2.4,0.3-3,0.4c-0.5,0.1-1,0.3-1.4,0.6s-0.6,0.7-0.6,1.2s0.2,0.9,0.5,1.2s0.8,0.4,1.3,0.4
		c0.6,0,1.1-0.2,1.7-0.5S247.7,12.7,248.1,12.1z"/>
	<path class="st1" d="M261.5,15.3h-4.4V2.2h-2.8V0.8h4.4v13.1h2.8V15.3z"/>
	<path class="st1" d="M273.7,10.3h-6.1V8.7h6.1V10.3z"/>
	<path class="st1" d="M287.5,15.3h-1.6v-1.6c-1.1,1.2-2.4,1.8-3.6,1.8c-2,0-3-1.2-3-3.6V4.6h1.6v6.8c0,0.9,0.1,1.6,0.4,2
		s0.8,0.7,1.5,0.7c1,0,2-0.6,3.1-1.8V4.6h1.6V15.3z"/>
	<path class="st1" d="M293.5,6c0.4-0.5,0.8-0.9,1.4-1.2c0.6-0.3,1.2-0.5,1.9-0.5c1.2,0,2.2,0.5,2.9,1.5c0.7,1,1.1,2.3,1.1,4
		c0,1.6-0.4,3-1.1,4.1s-1.7,1.6-3,1.6c-0.7,0-1.3-0.2-1.9-0.5s-1-0.8-1.4-1.3v5.8h-1.6V4.6h1.6V6H293.5z M293.5,7.5V12
		c0.3,0.6,0.7,1.1,1.2,1.5s1,0.6,1.6,0.6c0.9,0,1.5-0.4,2.1-1.2c0.5-0.8,0.8-1.8,0.8-3s-0.2-2.2-0.7-3s-1.2-1.2-2-1.2
		C295.2,5.7,294.3,6.3,293.5,7.5z"/>
	<path class="st1" d="M308.5,12.9c0.4,0,0.7,0.1,0.9,0.4s0.4,0.5,0.4,0.9s-0.1,0.7-0.4,0.9c-0.2,0.3-0.6,0.4-0.9,0.4
		s-0.6-0.1-0.9-0.4c-0.2-0.3-0.4-0.6-0.4-0.9s0.1-0.7,0.4-0.9C307.9,13,308.2,12.9,308.5,12.9z"/>
</g>
</svg>
