<?xml version="1.0" encoding="utf-8"?>
<!-- Generator: Adobe Illustrator 22.1.0, SVG Export Plug-In . SVG Version: 6.00 Build 0)  -->
<svg version="1.1" id="Layer_1" xmlns="http://www.w3.org/2000/svg" xmlns:xlink="http://www.w3.org/1999/xlink" x="0px" y="0px"
	 viewBox="0 0 833.9 833.9" style="enable-background:new 0 0 833.9 833.9;" xml:space="preserve">
<style type="text/css">
	.st0{fill:#FFFFFF;}
</style>
<g id="Fixed">
	<g>
		<path class="st0" d="M481.3,715.7c-26-7.7-37.2-12.6-37.2-25.3v-0.5c0-9.4,9.2-16.8,21.7-16.8c14.9,0,30.5,7.2,46.1,19l20.3-32
			c-17.9-15.7-40-24.5-65.8-24.5c-36.3,0-62.1,23.2-62.1,58.1v0.5c0,25.6,23.5,47.5,58.7,59c27.4,8.9,35.9,13.9,35.9,24.7v0.6
			c0,11.3-12.7,18-25.7,18c-20.2,0-36.9-9.1-52.9-23.4l-20.5,32.3c20.9,19,46.8,28.5,72.6,28.5c38.2,0,65.1-28.9,65.1-59.8v-0.6
			C537.5,745.4,517.1,726.4,481.3,715.7z"/>
		<polygon class="st0" points="611.9,797.6 611.9,751.9 687.1,751.9 687.1,717.7 611.9,717.7 611.9,672 699.3,672 699.3,637.9 
			573,637.9 573,831.7 699.3,831.7 699.3,797.6 		"/>
		<polygon class="st0" points="145.4,637.9 145.4,760 68,637.9 28.9,637.9 28.9,831.7 67.5,831.7 67.5,703.9 148.5,831.7 
			184.1,831.7 184.1,637.9 		"/>
		<polygon class="st0" points="344.7,637.9 301.7,708.1 258.6,637.9 212.1,637.9 282.4,747.8 282.4,831.7 321.6,831.7 321.6,747 
			391.6,637.9 		"/>
	</g>
	<g>
		<path class="st0" d="M28.7,359.3h14.2v112.4h70.6v13.1H28.7V359.3z"/>
		<path class="st0" d="M150.6,359.3h14.1v125.5h-14.1V359.3z"/>
		<path class="st0" d="M203,466.5l8.8-10.4c13.1,11.8,25.6,17.7,43,17.7c16.9,0,28-8.9,28-21.4v-0.3c0-11.7-6.3-18.3-32.6-23.8
			c-28.9-6.3-42.1-15.6-42.1-36.3v-0.3c0-19.7,17.3-34.2,41.2-34.2c18.3,0,31.4,5.2,44.1,15.4l-8.2,10.9
			c-11.6-9.5-23.3-13.6-36.2-13.6c-16.4,0-26.7,9-26.7,20.3v0.4c0,11.8,6.4,18.4,34,24.3c28,6.1,40.9,16.3,40.9,35.5v0.4
			c0,21.5-18,35.5-42.8,35.5C234.3,486.6,218.1,480,203,466.5z"/>
		<path class="st0" d="M366.2,372.4H324v-13.1h98.6v13.1h-42.2v112.4h-14.2L366.2,372.4L366.2,372.4z"/>
		<path class="st0" d="M458.8,359.3h90.7v12.9H473V415h68.5v13H473v43.9h77.5v13h-91.6L458.8,359.3L458.8,359.3z"/>
		<path class="st0" d="M588.7,359.3h43.6c39.4,0,66.7,27.1,66.7,62.4v0.4c0,35.3-27.3,62.8-66.7,62.8h-43.6V359.3z M602.9,372.4
			v99.3h29.4c31.7,0,52-21.5,52-49.3V422c0-27.8-20.3-49.7-52-49.7h-29.4V372.4z"/>
	</g>
	<g>
		<rect x="28.9" y="279.5" class="st0" width="670.4" height="6.3"/>
	</g>
	<g>
		<rect x="28.9" y="558" class="st0" width="670.4" height="6.4"/>
	</g>
</g>
<g id="Variable">
	<g>
		<g>
			<path class="st0" d="M0,170.6l24.1-30.4c16.7,14.5,34.2,23.7,55.4,23.7c16.7,0,26.8-7,26.8-18.4V145c0-10.9-6.4-16.5-37.4-24.8
				c-37.4-10-61.5-20.9-61.5-59.7v-0.6C7.4,24.5,34.4,1,72.3,1c27,0,50.1,8.9,68.9,24.8L120,58.2c-16.4-12-32.6-19.3-48.2-19.3
				s-23.9,7.5-23.9,17v0.6c0,12.8,8,17,40,25.7c37.6,10.3,58.8,24.6,58.8,58.6v0.6c0,38.8-28.1,60.5-68.1,60.5
				C50.6,201.9,22.2,191.6,0,170.6z"/>
			<path class="st0" d="M161.1,3.8h44l48.8,82.6l48.8-82.6h44v195.3h-40.6V71.6L253.9,155h-1.1l-51.7-82.6v126.7h-40L161.1,3.8
				L161.1,3.8z"/>
			<path class="st0" d="M438.6,2.4h37.6l79.5,196.7H513l-17-43.8h-78.5l-17,43.8h-41.6L438.6,2.4z M481.5,117.4l-24.6-63.3
				l-24.6,63.3H481.5z"/>
			<path class="st0" d="M568.2,3.8H653c23.6,0,41.9,7,54.1,19.8C717.4,34.5,723,49.8,723,68.2v0.6c0,31.5-16.2,51.3-39.8,60.5
				l45.3,69.8h-47.7L641,136.6h-32v62.5h-40.8V3.8z M650.4,98.7c19.9,0,31.3-11.2,31.3-27.6v-0.6c0-18.4-12.2-27.9-32.1-27.9H609
				v56.1H650.4L650.4,98.7z"/>
		</g>
	</g>
</g>
<g id="GUIDES">
</g>
</svg>
