<?xml version="1.0" encoding="utf-8"?>
<!-- Generator: Adobe Illustrator 22.1.0, SVG Export Plug-In . SVG Version: 6.00 Build 0)  -->
<svg version="1.1" xmlns="http://www.w3.org/2000/svg" xmlns:xlink="http://www.w3.org/1999/xlink" x="0px" y="0px"
	 viewBox="0 0 276.3 141.8" style="enable-background:new 0 0 276.3 141.8;" xml:space="preserve">
<style type="text/css">
	.st0{clip-path:url(#SVGID_2_);fill:#FFFFFF;}
	.st1{clip-path:url(#SVGID_2_);fill:#00AF9A;}
	.st2{clip-path:url(#SVGID_2_);fill-rule:evenodd;clip-rule:evenodd;fill:#FFFFFF;}
	.st3{clip-path:url(#SVGID_2_);}
	.st4{clip-path:url(#SVGID_4_);}
	.st5{fill:#FFFFFF;}
</style>
<g id="Background_Guide">
</g>
<g id="Layer_1">
	<g>
		<g>
			<defs>
				<rect id="SVGID_1_" x="-1.9" y="6.2" width="270.4" height="88.4"/>
			</defs>
			<clipPath id="SVGID_2_">
				<use xlink:href="#SVGID_1_"  style="overflow:visible;"/>
			</clipPath>
			<polygon class="st0" points="13.7,6.4 267.8,6.4 267.8,94 13.7,94 13.7,6.4 			"/>
			<polygon class="st1" points="16.5,9.1 265.2,9.1 265.2,77.9 16.5,77.9 16.5,9.1 			"/>
			<path class="st0" d="M98,32.1c-4.6,0.6-6.3,0.7-15.7,0.7v2.6h5.4v29.1h-5.4v2.6h20.7v-2.6H98V47.7c0.2-3.9,0.4-6.6,2.4-9
				c1.4-1.6,3.5-3,6-3c4.4,0,4.9,3.9,4.9,8.5v20.4h-4.4v2.6h19.3v-2.6h-4.9V49.1c0-4.4,0.2-8.1,3.2-11c1.6-1.6,3.6-2.5,5.4-2.5
				c4.7,0,4.7,4,4.7,8.2v20.8H130v2.6h19.8v-2.6h-5.1V43.6c-0.2-4.4-0.3-11.7-11.2-11.7c-8,0-11.1,5-12.3,7.1
				c-1.9-3.5-3.9-7.2-11.3-7.2c-6.4,0-9.5,3.5-11.8,6.3V32.1L98,32.1z"/>
			<path class="st2" d="M153.4,35.5h5.6v29.1h-5.6v2.6h21.1v-2.6h-5.3V32.1c-3.9,0.2-6,0.4-8.1,0.6c-2.1,0.1-4.1,0.2-7.8,0.2V35.5
				L153.4,35.5z M157.1,21.2c0,3.3,2.6,5.9,5.9,5.9s5.9-2.6,5.9-5.9c0-3.3-2.6-5.9-5.9-5.9S157.1,17.9,157.1,21.2L157.1,21.2z"/>
			<path class="st0" d="M210,56.8c-1.9,3.2-5.1,8.2-11.6,8.5c-1.3,0.1-2.6,0-3.8-0.7c-3.6-2-3.9-5.8-4.1-8.2c-0.2-2-0.3-4.2-0.3-6.3
				c0,0-0.1-9,1.4-11.9c2-3.7,4.9-4.2,6.8-4.2c2.3,0,3.2,0.4,5.1,1.7c-1.5,1.3-3,2.8-3,5.6c0,2.2,1.6,5.2,5.4,5.2
				c2.7,0,5.6-1.7,5.6-5.3c0-5.7-6.1-9.5-13.6-9.5c-9.4,0-19.3,6.2-19.3,19.1c0,10.1,7.2,17.5,18.6,17.5c10.1,0,13.7-6.5,15.6-10
				L210,56.8L210,56.8z"/>
			<path class="st2" d="M247.4,42.6c0-2.9,0.1-7-5.6-9.4c-2.4-1-5.3-1.5-8.3-1.5c-8.1,0-14.5,3.7-14.5,9c0,2.7,1.9,4.6,4.6,4.6
				c2.8,0,4.7-2.2,4.7-4.6c0-0.6-0.2-1.2-0.4-1.7c-0.2-0.7-0.7-1.2-1-1.8c-0.2-0.3-0.2-0.4-0.2-0.8c0-0.7,1.2-2.4,4.9-2.4
				c5.6,0,5.8,2.7,5.8,6.2l0,6.2c-5.1,0.5-11.9,1.2-16.6,4.6c-3.7,2.7-4.8,6.2-4.8,8.9c0,2.6,1.2,8.4,9.8,8.4
				c6.5,0,10.1-3.5,11.8-5.4c1.1,2.2,2.7,5.4,7.5,5.4c4.1,0,6.6-2.6,8.1-4.2l-1.5-2c-0.7,0.5-1.5,1.2-2.5,1.2c-2,0-1.9-2.2-1.9-4.1
				V42.6L247.4,42.6z M237.5,55.5c0,2.2,0.1,4.7-2.3,6.7c-1,0.7-2.2,1.3-3.7,1.3c-2.9,0-5.6-2.2-5.6-6.4c0-7.4,7.2-7.8,11.6-8.1
				V55.5L237.5,55.5z"/>
			<polygon class="st3" points="16.5,77.8 265.2,77.8 265.2,91.2 16.5,91.2 16.5,77.8 			"/>
			<path class="st0" d="M44.4,64.6l0,2.6H25v-2.6h3.6c3.6-0.2,4.7-2.2,5.8-5.3c6-16.7,11.9-33.4,17.9-50.1l3.9,0
				c0,0,13.6,37,20.4,55.5h6.4v2.6l-26.3,0l0-2.6h7.6c-4.7-12.8-9.3-25.5-14-38.4l-5.4,15.4c-0.6,1.7-4.5,13.7-6.3,18.8
				c-0.5,1.8-0.4,1.6-0.3,2.5C38.2,64.4,40.1,64.7,44.4,64.6L44.4,64.6z"/>
			<g class="st3">
				<defs>
					<polygon id="SVGID_3_" points="-1.5,43.9 52.6,43.9 56.4,53.8 1.7,53.8 -1.5,43.9 					"/>
				</defs>
				<use xlink:href="#SVGID_3_"  style="overflow:visible;fill:#FFFFFF;"/>
				<clipPath id="SVGID_4_">
					<use xlink:href="#SVGID_3_"  style="overflow:visible;"/>
				</clipPath>
				<polygon class="st4" points="-3.7,43 53.7,43 56.5,50.4 -0.8,50.4 -3.7,43 				"/>
			</g>
		</g>
		<path class="st5" d="M36.5,111.8h-4c0.4-1.1,2-6.9,2-6.9h0C34.7,105.6,36.4,111.5,36.5,111.8z M41.4,118.4l-5.2-16.2h-3.1
			l-5.3,16.2h2.8l1.3-4.3h5.2l1.3,4.3H41.4z"/>
		<path class="st5" d="M51,118.6c-3.2,0-4.2-1.6-4.2-3.6v-8.8h2v8.2c0,1.9,0.7,2.5,2.2,2.5c1.5,0,2.2-0.9,2.2-2.5v-8.2h2v8.7
			C55.2,117.2,53.7,118.6,51,118.6z"/>
		<path class="st5" d="M68.7,107.9h-3.1v10.5h-2v-10.5h-3.1v-1.7H69L68.7,107.9z"/>
		<path class="st5" d="M78.7,117c-2.1,0-2.9-1.7-2.9-4.9c0-2.9,0.8-4.6,2.8-4.6c2.2,0,2.8,1.9,2.8,4.8C81.4,115.7,80.5,117,78.7,117
			z M78.7,118.5c3.2,0,5-2.5,5-6.2c0-3.5-1.6-6.3-5.1-6.3c-3,0-5.1,2.2-5.1,6.2C73.6,115.9,75.3,118.5,78.7,118.5z"/>
		<path class="st5" d="M124.5,118.4v-7.5H119v7.5h-2.7v-16.2h2.7v6.5h5.5v-6.5h2.7v16.2H124.5z"/>
		<path class="st5" d="M139.2,117c-2.1,0-2.9-1.7-2.9-4.9c0-2.9,0.8-4.6,2.8-4.6c2.2,0,2.8,1.9,2.8,4.8
			C141.9,115.7,141,117,139.2,117z M139.2,118.5c3.2,0,5-2.5,5-6.2c0-3.5-1.6-6.3-5.1-6.3c-3,0-5.1,2.2-5.1,6.2
			C134.1,115.9,135.8,118.5,139.2,118.5z"/>
		<path class="st5" d="M160.3,118.4l-0.6-7.5c-0.1-0.8-0.1-1.7-0.1-2.1c-0.1,0.4-0.2,1.1-0.5,1.9l-2.2,7.7h-1.7l-2-7.4
			c-0.2-0.8-0.5-1.8-0.5-2.2c0,0.4-0.1,1.5-0.1,2.3l-0.5,7.3h-2l1.1-12.2h2.7l1.9,6.9c0.3,1,0.4,1.7,0.5,2c0.1-0.4,0.2-1.1,0.4-2
			l1.9-6.9h2.7l1.1,12.2H160.3z"/>
		<path class="st5" d="M168.9,118.4v-12.2h6.7l-0.3,1.6h-4.5v3.3h3.7v1.7h-3.7v3.8h4.9v1.7H168.9z"/>
		<path class="st5" d="M218,118.3h-8.3v-16.2h2.7v13.9h6L218,118.3z"/>
		<path class="st5" d="M224.2,118.4v-12.2h2.1v12.2H224.2z"/>
		<path class="st5" d="M239.4,107.8h-4.2v3.3h3.4v1.6h-3.4v5.6h-2v-12.2h6.4L239.4,107.8z"/>
		<path class="st5" d="M245.4,118.4v-12.2h6.7l-0.3,1.6h-4.5v3.3h3.7v1.7h-3.7v3.8h4.9v1.7H245.4z"/>
	</g>
</g>
</svg>
