<?xml version="1.0" encoding="utf-8"?>
<!-- Generator: Adobe Illustrator 22.1.0, SVG Export Plug-In . SVG Version: 6.00 Build 0)  -->
<svg version="1.1" id="Layer_1" xmlns="http://www.w3.org/2000/svg" xmlns:xlink="http://www.w3.org/1999/xlink" x="0px" y="0px"
	 viewBox="0 0 97.8 136" style="enable-background:new 0 0 97.8 136;" xml:space="preserve">
<style type="text/css">
	.st0{fill:#FFFFFF;}
	.st1{opacity:0.5;}
	.st2{fill:#F43779;}
</style>
<title>orangepin</title>
<g id="Layer_2_1_">
	<g id="Layer_1-2">
		<path class="st0" d="M48.9,0C21.9,0,0,21.5,0,47.8C0,56.7,2.5,65.5,7.3,73l38.8,61.2c1.2,1.9,3.8,2.5,5.7,1.3
			c0.5-0.3,1-0.8,1.3-1.3l37.8-61.8c4.5-7.4,6.9-15.9,6.9-24.5C97.8,21.5,75.8,0,48.9,0z M48.9,64.8c-9.4,0-17.1-7.7-17-17.1
			c0-9.4,7.7-17.1,17.1-17c9.4,0,17,7.7,17,17.1C66,57.1,58.4,64.8,48.9,64.8C48.9,64.8,48.9,64.8,48.9,64.8z"/>
		<g class="st1">
			<path class="st2" d="M48.9,0C21.9,0,0,21.5,0,47.8C0,56.7,2.5,65.5,7.3,73l38.8,61.2c1.2,1.9,3.8,2.5,5.7,1.3
				c0.5-0.3,1-0.8,1.3-1.3l37.8-61.8c4.5-7.4,6.9-15.9,6.9-24.5C97.8,21.5,75.8,0,48.9,0z M48.9,64.8c-9.4,0-17.1-7.7-17-17.1
				c0-9.4,7.7-17.1,17.1-17c9.4,0,17,7.7,17,17.1C66,57.1,58.4,64.8,48.9,64.8C48.9,64.8,48.9,64.8,48.9,64.8z"/>
		</g>
	</g>
</g>
</svg>
