<?xml version="1.0" encoding="utf-8"?>
<!-- Generator: Adobe Illustrator 22.1.0, SVG Export Plug-In . SVG Version: 6.00 Build 0)  -->
<svg version="1.1" id="Layer_1" xmlns="http://www.w3.org/2000/svg" xmlns:xlink="http://www.w3.org/1999/xlink" x="0px" y="0px"
	 viewBox="0 0 308.6 24.5" style="enable-background:new 0 0 308.6 24.5;" xml:space="preserve">
<style type="text/css">
	.st0{fill:#FFFFFF;}
</style>
<title>tagline</title>
<g>
	<path class="st0" d="M2.2,3.1v5.5h4.6v1.9H2.2v7.7H0v-17h7.2v2L2.2,3.1z"/>
	<path class="st0" d="M17.8,12.1c0,0.9-0.1,1.8-0.3,2.6c-0.2,0.7-0.5,1.4-0.9,2c-0.3,0.5-0.8,1-1.4,1.3c-0.6,0.3-1.2,0.5-1.9,0.5
		c-0.6,0-1.3-0.2-1.8-0.5c-0.6-0.3-1-0.8-1.4-1.3c-0.4-0.6-0.7-1.3-0.9-2c-0.2-0.9-0.3-1.7-0.3-2.6c0-0.9,0.1-1.8,0.3-2.6
		c0.2-0.7,0.5-1.4,0.9-2c0.3-0.5,0.8-1,1.4-1.3c0.6-0.3,1.2-0.5,1.8-0.5c0.6,0,1.3,0.1,1.9,0.5c0.6,0.3,1,0.8,1.4,1.3
		c0.4,0.6,0.7,1.3,0.9,2C17.7,10.4,17.8,11.3,17.8,12.1z M15.7,12.1c0-0.6,0-1.2-0.1-1.8c-0.1-0.5-0.2-1-0.4-1.5
		c-0.2-0.4-0.4-0.7-0.7-1c-0.3-0.2-0.6-0.4-1-0.4c-0.4,0-0.7,0.1-1,0.4c-0.3,0.3-0.6,0.6-0.7,1c-0.2,0.5-0.3,1-0.4,1.5
		c-0.1,0.6-0.1,1.2-0.1,1.8c0,0.6,0,1.2,0.1,1.9c0.1,0.5,0.2,1,0.4,1.5c0.2,0.4,0.4,0.7,0.7,1c0.3,0.2,0.6,0.4,1,0.4
		c0.4,0,0.7-0.1,1-0.4c0.3-0.3,0.5-0.6,0.7-1c0.2-0.5,0.4-1,0.5-1.5C15.7,13.4,15.7,12.8,15.7,12.1L15.7,12.1z"/>
	<path class="st0" d="M23.8,6.4c0.4-0.4,1-0.7,1.6-0.7h0.3l-0.1,2.1h-0.2h-0.2c-0.4,0-0.7,0.1-1,0.4c-0.3,0.3-0.6,0.6-0.8,1
		c-0.2,0.4-0.4,0.9-0.5,1.4c-0.1,0.5-0.2,1-0.2,1.6v6.1h-2.1v-9c0-0.5,0-1,0-1.5s0-1.1-0.1-1.5h1.9c0,0.4,0.1,0.8,0.1,1.2
		s0,0.9,0,1.2h0C22.8,7.8,23.2,7,23.8,6.4z"/>
	<path class="st0" d="M32.1,18.4c-0.3,0.1-0.6,0.1-0.9,0.1c-0.8,0.1-1.5-0.3-2-0.9c-0.4-0.8-0.6-1.6-0.6-2.5V7.8h-1.5V6.1h1.5V2.9h2
		v3.2h2.1v1.7h-2.1v6.9c0,0.5,0.1,1.1,0.4,1.5c0.2,0.3,0.6,0.5,0.9,0.5c0.2,0,0.3,0,0.5-0.1c0.1,0,0.3-0.1,0.4-0.1v1.6
		C32.6,18.2,32.3,18.3,32.1,18.4z"/>
	<path class="st0" d="M39.5,20.3c-0.1,0.5-0.3,1-0.5,1.5c-0.2,0.4-0.4,0.8-0.7,1.1c-0.3,0.3-0.6,0.6-1,0.7c-0.4,0.2-0.9,0.3-1.3,0.3
		c-0.3,0-0.5,0-0.8-0.1c-0.2,0-0.4-0.1-0.6-0.1l0.3-1.9c0.3,0.1,0.7,0.2,1,0.2c0.4,0,0.7-0.1,1-0.4c0.3-0.4,0.4-0.8,0.5-1.2l0.5-1.9
		L34.3,6.1h2.2l2.4,9.6h0l2.2-9.6h2.1L39.5,20.3z"/>
	<path class="st0" d="M56.4,18.1v-7.7c0-0.3,0-0.7,0-1c0-0.3-0.1-0.7-0.2-1c-0.1-0.3-0.3-0.5-0.5-0.7c-0.3-0.2-0.6-0.3-0.9-0.3
		c-0.3,0-0.7,0.1-0.9,0.3c-0.3,0.2-0.5,0.5-0.7,0.8c-0.2,0.4-0.4,0.8-0.5,1.2c-0.1,0.5-0.2,1-0.2,1.5v6.9h-2v-9c0-0.5,0-1,0-1.5
		s0-1.1-0.1-1.5h1.9c0,0.4,0.1,0.8,0.1,1.2s0,0.7,0,0.9h0c0.2-0.7,0.6-1.3,1-1.8c0.5-0.5,1.2-0.7,1.9-0.7c0.6,0,1.1,0.1,1.6,0.4
		c0.4,0.3,0.7,0.6,0.9,1.1c0.2,0.5,0.4,1,0.5,1.5c0.1,0.6,0.1,1.2,0.1,1.8v7.7H56.4z"/>
	<path class="st0" d="M63.3,12.6c0,0.5,0,1.1,0.2,1.6c0.1,0.5,0.2,0.9,0.5,1.3c0.2,0.3,0.4,0.6,0.8,0.9c0.3,0.2,0.6,0.3,1,0.3
		c0.5,0,1-0.2,1.3-0.5c0.3-0.4,0.6-0.8,0.8-1.2l1.5,0.9c-0.3,0.7-0.7,1.4-1.3,1.9c-0.7,0.5-1.5,0.8-2.3,0.7c-1.3,0-2.5-0.6-3.2-1.7
		c-0.9-1.4-1.3-3.1-1.2-4.7c0-0.9,0.1-1.8,0.3-2.6c0.2-0.7,0.5-1.4,0.9-2c0.4-0.5,0.8-1,1.4-1.3c1.1-0.6,2.5-0.6,3.7,0
		c0.5,0.3,0.9,0.8,1.3,1.3c0.3,0.6,0.6,1.2,0.7,1.9c0.1,0.8,0.2,1.6,0.2,2.3v1L63.3,12.6z M67.7,11c0-0.9-0.1-1.7-0.5-2.5
		c-0.3-0.6-0.9-1-1.6-1c-0.4,0-0.7,0.1-1,0.4c-0.3,0.3-0.5,0.6-0.7,0.9c-0.2,0.4-0.3,0.8-0.4,1.1c-0.1,0.4-0.2,0.7-0.2,1.1H67.7z"/>
	<path class="st0" d="M74.8,2.5c0,0.4-0.1,0.7-0.4,1c-0.5,0.5-1.3,0.5-1.8,0c0,0,0,0,0,0c-0.3-0.3-0.4-0.6-0.4-1
		c0-0.4,0.1-0.7,0.4-1C73.1,1,73.8,1,74.3,1.5c0,0,0,0,0.1,0.1C74.7,1.8,74.8,2.2,74.8,2.5z M72.5,18.1v-12h2v12L72.5,18.1z"/>
	<path class="st0" d="M84.1,6.1h2v12c0,0.8-0.1,1.5-0.2,2.3c-0.1,0.7-0.4,1.3-0.8,1.8c-0.4,0.5-0.8,0.9-1.4,1.2
		c-0.7,0.3-1.4,0.5-2.2,0.4c-0.8,0-1.6-0.2-2.3-0.5c-0.7-0.3-1.3-0.8-1.8-1.4l1.3-1.4c0.4,0.4,0.8,0.8,1.3,1.1
		c0.5,0.3,1.1,0.4,1.6,0.4c0.4,0,0.9-0.1,1.2-0.3c0.3-0.2,0.6-0.5,0.8-0.8c0.2-0.4,0.3-0.8,0.4-1.2c0.1-0.5,0.1-1,0.1-1.5v-1.9l0,0
		c-0.2,0.6-0.5,1.2-0.9,1.6c-0.5,0.5-1.2,0.7-1.9,0.7c-0.6,0-1.2-0.2-1.6-0.5c-0.5-0.4-0.9-0.8-1.2-1.4c-0.3-0.6-0.6-1.3-0.8-2
		c-0.2-0.9-0.3-1.7-0.2-2.6c0-0.9,0.1-1.7,0.2-2.6c0.1-0.7,0.4-1.4,0.7-2c0.3-0.5,0.7-1,1.2-1.3c0.5-0.3,1.1-0.5,1.7-0.5
		c0.6,0,1.3,0.2,1.8,0.6c0.5,0.4,0.8,0.9,1,1.5h0.1L84.1,6.1z M84.1,12.1c0-0.6,0-1.2-0.2-1.8c-0.1-0.5-0.2-1-0.4-1.5
		c-0.2-0.4-0.4-0.7-0.7-1c-0.3-0.2-0.6-0.4-1-0.4c-0.4,0-0.7,0.1-1,0.4c-0.3,0.3-0.5,0.6-0.7,1c-0.2,0.5-0.3,1-0.4,1.5
		c-0.1,0.6-0.1,1.2-0.1,1.8c0,0.6,0,1.2,0.1,1.8c0.1,0.5,0.2,1,0.4,1.5c0.2,0.4,0.4,0.7,0.7,1c0.3,0.2,0.6,0.4,1,0.4
		c0.4,0,0.7-0.1,1-0.4c0.3-0.3,0.6-0.6,0.7-1c0.2-0.5,0.4-1,0.4-1.5C84,13.3,84.1,12.7,84.1,12.1L84.1,12.1z"/>
	<path class="st0" d="M91.5,18.1h-2.1V0h2.1v8.1l0,0c0.2-0.7,0.6-1.3,1.1-1.7c0.5-0.5,1.2-0.7,1.9-0.7c0.6,0,1.1,0.1,1.6,0.4
		c0.4,0.3,0.7,0.6,0.9,1.1c0.2,0.5,0.4,1,0.4,1.5c0.1,0.6,0.1,1.2,0.1,1.8v7.7h-2v-7.7c0-0.3,0-0.7,0-1c0-0.3-0.1-0.7-0.2-1
		c-0.1-0.3-0.3-0.5-0.5-0.7c-0.3-0.2-0.6-0.3-0.9-0.3c-0.3,0-0.7,0.1-0.9,0.3c-0.3,0.2-0.6,0.5-0.8,0.8c-0.2,0.4-0.4,0.8-0.5,1.2
		c-0.1,0.5-0.2,1-0.2,1.5L91.5,18.1z"/>
	<path class="st0" d="M101,0h2v7.8l0,0c0.2-0.6,0.5-1.1,1-1.5c0.5-0.4,1.1-0.6,1.8-0.6c0.6,0,1.2,0.2,1.7,0.5
		c0.5,0.3,0.9,0.8,1.2,1.3c0.4,0.6,0.6,1.3,0.7,2c0.2,0.8,0.2,1.7,0.2,2.6c0,0.9-0.1,1.7-0.2,2.6c-0.1,0.7-0.4,1.4-0.8,2
		c-0.3,0.5-0.7,1-1.2,1.4c-0.5,0.3-1,0.5-1.6,0.5c-0.7,0.1-1.4-0.2-1.9-0.7c-0.4-0.5-0.8-1-0.9-1.6l0,0v1.9h-2L101,0z M103,12.1
		c0,0.6,0,1.2,0.1,1.8c0.1,0.5,0.2,1,0.4,1.5c0.2,0.4,0.4,0.7,0.7,1c0.3,0.2,0.6,0.4,1,0.4c0.4,0,0.7-0.1,1-0.4
		c0.3-0.3,0.5-0.6,0.7-1c0.2-0.5,0.3-0.9,0.4-1.4c0.1-0.6,0.1-1.2,0.1-1.8c0-0.6,0-1.2-0.1-1.8c-0.1-0.5-0.2-1-0.4-1.5
		c-0.1-0.4-0.4-0.7-0.7-1c-0.3-0.2-0.6-0.4-1-0.4c-0.4,0-0.7,0.1-1,0.4c-0.3,0.3-0.6,0.6-0.7,1c-0.2,0.5-0.4,1-0.4,1.5
		C103,10.9,103,11.5,103,12.1z"/>
	<path class="st0" d="M120.8,12.1c0,0.9-0.1,1.8-0.3,2.6c-0.2,0.7-0.5,1.4-0.9,2c-0.3,0.5-0.8,1-1.4,1.3c-0.6,0.3-1.2,0.5-1.8,0.5
		c-0.6,0-1.3-0.2-1.8-0.5c-0.6-0.3-1-0.8-1.4-1.3c-0.4-0.6-0.7-1.3-0.9-2c-0.2-0.9-0.3-1.7-0.3-2.6c0-0.9,0.1-1.8,0.3-2.6
		c0.2-0.7,0.5-1.4,0.8-2c0.3-0.5,0.8-1,1.4-1.3c1.2-0.6,2.5-0.6,3.7,0c0.6,0.3,1,0.8,1.4,1.3c0.4,0.6,0.7,1.3,0.9,2
		C120.7,10.4,120.8,11.3,120.8,12.1z M118.6,12.1c0-0.6,0-1.2-0.1-1.8c-0.1-0.5-0.2-1-0.4-1.5c-0.2-0.4-0.4-0.7-0.7-1
		c-0.3-0.2-0.6-0.4-1-0.4c-0.4,0-0.7,0.1-1,0.4c-0.3,0.3-0.6,0.6-0.7,1c-0.2,0.5-0.3,1-0.4,1.5c-0.1,0.6-0.1,1.2-0.1,1.8
		c0,0.6,0,1.2,0.1,1.8c0.1,0.5,0.2,1,0.4,1.5c0.2,0.4,0.4,0.7,0.7,1c0.3,0.2,0.6,0.4,1,0.4c0.4,0,0.7-0.1,1-0.4
		c0.3-0.3,0.5-0.6,0.7-1c0.2-0.5,0.3-1,0.4-1.5C118.6,13.4,118.6,12.7,118.6,12.1L118.6,12.1z"/>
	<path class="st0" d="M126.7,6.4c0.4-0.4,1-0.7,1.6-0.7h0.3l-0.1,2.1h-0.2h-0.2c-0.4,0-0.7,0.1-1,0.4c-0.3,0.3-0.6,0.6-0.8,1
		c-0.2,0.4-0.4,0.9-0.4,1.4c-0.1,0.5-0.2,1-0.2,1.6v6.1h-2.1v-9c0-0.5,0-1,0-1.5s0-1.1-0.1-1.5h2c0,0.4,0.1,0.8,0.1,1.2s0,0.9,0,1.2
		l0,0C125.8,7.8,126.1,7,126.7,6.4z"/>
	<path class="st0" d="M132.8,18.1h-2.1V0h2.1v8.1h0.1c0.2-0.7,0.6-1.3,1.1-1.7c0.5-0.5,1.2-0.7,1.9-0.7c0.6,0,1.1,0.1,1.6,0.4
		c0.4,0.3,0.7,0.6,0.9,1.1c0.2,0.5,0.4,1,0.4,1.5c0.1,0.6,0.1,1.2,0.1,1.8v7.7h-2.1v-7.7c0-0.3,0-0.7,0-1c0-0.3-0.1-0.7-0.2-1
		c-0.1-0.3-0.3-0.5-0.5-0.7c-0.3-0.2-0.6-0.3-0.9-0.3c-0.3,0-0.7,0.1-0.9,0.3c-0.3,0.2-0.6,0.5-0.8,0.8c-0.2,0.4-0.4,0.8-0.5,1.2
		c-0.1,0.5-0.2,1-0.2,1.5L132.8,18.1z"/>
	<path class="st0" d="M150.4,12.1c0,0.9-0.1,1.8-0.3,2.6c-0.2,0.7-0.5,1.4-0.9,2c-0.3,0.5-0.8,1-1.4,1.3c-0.6,0.3-1.2,0.5-1.9,0.5
		c-0.6,0-1.3-0.2-1.8-0.5c-0.6-0.3-1-0.8-1.4-1.3c-0.4-0.6-0.7-1.3-0.9-2c-0.2-0.9-0.3-1.7-0.3-2.6c0-0.9,0.1-1.8,0.3-2.6
		c0.2-0.7,0.5-1.4,0.9-2c0.3-0.5,0.8-1,1.4-1.3c1.2-0.6,2.5-0.6,3.7,0c0.6,0.3,1,0.8,1.4,1.3c0.4,0.6,0.7,1.3,0.9,2
		C150.4,10.4,150.4,11.3,150.4,12.1z M148.3,12.1c0-0.6,0-1.2-0.1-1.8c-0.1-0.5-0.2-1-0.4-1.5c-0.2-0.4-0.4-0.7-0.7-1
		c-0.3-0.2-0.6-0.4-1-0.4c-0.4,0-0.7,0.1-1,0.4c-0.3,0.3-0.6,0.6-0.7,1c-0.2,0.5-0.3,1-0.4,1.5c-0.1,0.6-0.1,1.2-0.1,1.8
		c0,0.6,0,1.2,0.1,1.8c0.1,0.5,0.2,1,0.4,1.5c0.2,0.4,0.4,0.7,0.7,1c0.3,0.2,0.6,0.4,1,0.4c0.4,0,0.7-0.1,1-0.4
		c0.3-0.3,0.5-0.6,0.7-1c0.2-0.5,0.3-1,0.4-1.5C148.3,13.4,148.3,12.7,148.3,12.1L148.3,12.1z"/>
	<path class="st0" d="M161.5,12.1c0,0.9-0.1,1.8-0.3,2.6c-0.2,0.7-0.5,1.4-0.9,2c-0.4,0.5-0.8,1-1.4,1.3c-1.1,0.6-2.5,0.6-3.7,0
		c-0.6-0.3-1-0.8-1.4-1.3c-0.4-0.6-0.7-1.3-0.9-2c-0.2-0.9-0.3-1.7-0.3-2.6c0-0.9,0.1-1.8,0.3-2.6c0.2-0.7,0.5-1.4,0.9-2
		c0.3-0.5,0.8-1,1.4-1.3c1.2-0.6,2.5-0.6,3.7,0c0.6,0.3,1,0.8,1.4,1.3c0.4,0.6,0.7,1.3,0.9,2C161.4,10.4,161.5,11.2,161.5,12.1z
		 M159.4,12.1c0-0.6,0-1.2-0.1-1.8c-0.1-0.5-0.2-1-0.4-1.5c-0.2-0.4-0.4-0.7-0.7-1c-0.3-0.2-0.6-0.4-1-0.4c-0.4,0-0.7,0.1-1,0.4
		c-0.3,0.3-0.6,0.6-0.7,1c-0.2,0.5-0.3,1-0.4,1.5c-0.1,0.6-0.1,1.2-0.1,1.8c0,0.6,0,1.3,0.1,1.9c0.1,0.5,0.2,1,0.4,1.5
		c0.2,0.4,0.4,0.7,0.7,1c0.3,0.2,0.6,0.4,1,0.4c0.4,0,0.7-0.1,1-0.4c0.3-0.3,0.6-0.6,0.7-1c0.2-0.5,0.3-1,0.4-1.5
		C159.3,13.4,159.4,12.8,159.4,12.1L159.4,12.1z"/>
	<path class="st0" d="M170.5,18.1v-1.9l0,0c-0.2,0.6-0.5,1.2-0.9,1.6c-0.5,0.5-1.2,0.7-1.9,0.7c-0.6,0-1.2-0.2-1.6-0.5
		c-0.5-0.4-0.9-0.8-1.2-1.4c-0.3-0.6-0.6-1.3-0.8-2c-0.2-0.9-0.3-1.7-0.2-2.6c0-0.9,0.1-1.7,0.2-2.6c0.1-0.7,0.4-1.4,0.7-2
		c0.3-0.5,0.7-1,1.1-1.4c0.5-0.3,1.1-0.5,1.7-0.5c0.6,0,1.3,0.2,1.8,0.6c0.5,0.4,0.8,0.9,1,1.5h0.1V0h2v18.1H170.5z M170.5,12.1
		c0-0.6,0-1.2-0.1-1.8c-0.1-0.5-0.2-1-0.4-1.5c-0.2-0.4-0.4-0.7-0.7-1c-0.3-0.2-0.6-0.4-1-0.4c-0.4,0-0.7,0.1-1,0.4
		c-0.3,0.3-0.5,0.6-0.7,1c-0.2,0.5-0.3,1-0.4,1.5c-0.1,0.6-0.1,1.2-0.1,1.8c0,0.6,0,1.2,0.1,1.8c0.1,0.5,0.2,1,0.4,1.5
		c0.2,0.4,0.4,0.7,0.7,1c0.3,0.2,0.6,0.4,1,0.4c0.4,0,0.7-0.1,1-0.4c0.3-0.3,0.6-0.6,0.7-1c0.2-0.5,0.4-1,0.4-1.5
		C170.5,13.3,170.6,12.7,170.5,12.1L170.5,12.1z"/>
	<path class="st0" d="M180.9,8.4c-0.2-0.3-0.5-0.6-0.8-0.8c-0.4-0.2-0.8-0.3-1.2-0.3c-0.4,0-0.9,0.2-1.1,0.5
		c-0.3,0.4-0.5,0.8-0.4,1.3c0,0.5,0.1,0.9,0.5,1.2c0.4,0.3,0.9,0.6,1.4,0.7c0.3,0.1,0.7,0.3,1,0.5c0.7,0.4,1.2,1,1.5,1.7
		c0.2,0.4,0.3,0.9,0.2,1.4c0,0.6-0.1,1.1-0.3,1.7c-0.3,0.9-1,1.6-1.9,1.9c-0.5,0.2-1,0.3-1.5,0.2c-1.3,0-2.6-0.6-3.5-1.6l1.2-1.3
		c0.3,0.3,0.6,0.6,1,0.9c0.4,0.3,0.9,0.4,1.4,0.4c0.5,0,0.9-0.2,1.2-0.5c0.3-0.4,0.5-0.9,0.4-1.4c0-0.3-0.1-0.6-0.2-0.9
		c-0.1-0.2-0.3-0.4-0.5-0.6c-0.2-0.2-0.4-0.3-0.7-0.4c-0.3-0.1-0.6-0.2-0.9-0.4c-0.3-0.1-0.6-0.2-0.9-0.4c-0.6-0.3-1.1-0.9-1.4-1.6
		c-0.2-0.4-0.2-0.9-0.2-1.4c0-0.5,0.1-1,0.3-1.4c0.2-0.4,0.4-0.8,0.8-1.1c0.3-0.3,0.7-0.6,1.1-0.7c0.4-0.2,0.9-0.3,1.4-0.2
		c0.6,0,1.3,0.1,1.9,0.4c0.5,0.2,0.9,0.6,1.3,1L180.9,8.4z"/>
	<path class="st0" d="M187.1,16.9c0,0.4-0.1,0.7-0.4,1c-0.3,0.3-0.6,0.4-1,0.4c-0.4,0-0.7-0.1-1-0.4c-0.2-0.3-0.4-0.6-0.4-1
		c0-0.4,0.1-0.7,0.4-1c0.2-0.3,0.6-0.4,1-0.4c0.4,0,0.7,0.1,1,0.4C187,16.1,187.1,16.5,187.1,16.9z"/>
</g>
<g>
	<path class="st0" d="M197.8,2.9v5.5h4.6v1.9h-4.6v7.7h-2.2v-17h7.1v2L197.8,2.9z"/>
	<path class="st0" d="M207.7,2.3c0,0.4-0.1,0.7-0.4,1c-0.2,0.3-0.6,0.4-0.9,0.4c-0.3,0-0.7-0.1-0.9-0.4c-0.3-0.3-0.4-0.6-0.4-1
		c0-0.4,0.1-0.7,0.4-1c0.5-0.5,1.2-0.5,1.8-0.1c0,0,0,0,0.1,0.1C207.6,1.6,207.7,1.9,207.7,2.3z M205.4,17.9v-12h2v12H205.4z"/>
	<path class="st0" d="M217,17.9v-7.7c0-0.3,0-0.7,0-1c0-0.3-0.1-0.7-0.2-1c-0.1-0.3-0.3-0.5-0.5-0.7c-0.3-0.2-0.6-0.3-0.9-0.3
		c-0.3,0-0.7,0.1-0.9,0.3c-0.3,0.2-0.6,0.5-0.8,0.8c-0.2,0.4-0.4,0.8-0.5,1.2c-0.1,0.5-0.2,1-0.2,1.5v6.9h-2v-9c0-0.5,0-1,0-1.5
		s0-1.1-0.1-1.5h1.9c0,0.4,0.1,0.8,0.1,1.2c0,0.4,0,0.7,0,0.9l0,0c0.2-0.7,0.6-1.3,1.1-1.8c1-0.8,2.4-1,3.5-0.3
		c0.4,0.3,0.7,0.6,0.9,1.1c0.2,0.5,0.4,1,0.4,1.5c0.1,0.6,0.1,1.2,0.1,1.8v7.7H217z"/>
	<path class="st0" d="M228.6,17.9V16l0,0c-0.2,0.6-0.5,1.2-0.9,1.6c-0.5,0.5-1.2,0.7-1.9,0.7c-0.6,0-1.2-0.2-1.6-0.5
		c-0.5-0.4-0.9-0.8-1.2-1.4c-0.4-0.6-0.6-1.3-0.8-2c-0.2-0.9-0.3-1.7-0.2-2.6c0-0.9,0.1-1.7,0.2-2.6c0.1-0.7,0.4-1.4,0.7-2
		c0.3-0.5,0.7-1,1.2-1.3c0.5-0.3,1.1-0.5,1.7-0.5c0.6,0,1.3,0.2,1.8,0.6c0.5,0.4,0.8,0.9,1,1.5l0,0v-7.8h2v18.1H228.6z M228.6,11.9
		c0-0.6,0-1.2-0.1-1.8c-0.1-0.5-0.2-1-0.4-1.5c-0.2-0.4-0.4-0.7-0.7-1c-0.3-0.2-0.6-0.4-1-0.4c-0.4,0-0.7,0.1-1,0.4
		c-0.3,0.3-0.5,0.6-0.7,1c-0.2,0.5-0.3,1-0.4,1.5c-0.1,0.6-0.1,1.2-0.1,1.8c0,0.6,0,1.2,0.1,1.9c0.1,0.5,0.2,1,0.4,1.5
		c0.2,0.4,0.4,0.7,0.7,1c0.3,0.2,0.6,0.4,1,0.4c0.4,0,0.7-0.1,1-0.4c0.3-0.3,0.6-0.6,0.7-1c0.2-0.5,0.4-1,0.5-1.5
		C228.5,13.2,228.6,12.5,228.6,11.9L228.6,11.9z"/>
	<path class="st0" d="M242.7,18.2c-0.3,0.1-0.6,0.1-0.9,0.1c-0.8,0.1-1.5-0.3-2-0.9c-0.4-0.7-0.6-1.6-0.6-2.5V7.5h-1.5V5.9h1.5V2.7
		h2v3.2h2.1v1.7h-2.1v6.9c0,0.5,0.1,1.1,0.3,1.5c0.2,0.3,0.6,0.5,0.9,0.5c0.2,0,0.3,0,0.4-0.1c0.1,0,0.3-0.1,0.4-0.1v1.6
		C243.1,18,242.9,18.1,242.7,18.2z"/>
	<path class="st0" d="M247.7,17.9h-2.1V-0.2h2.1v8.1l0,0c0.2-0.7,0.6-1.3,1.1-1.7c0.5-0.5,1.2-0.7,1.9-0.7c0.6,0,1.2,0.1,1.7,0.4
		c0.4,0.3,0.7,0.6,0.9,1.1c0.2,0.5,0.4,1,0.4,1.5c0.1,0.6,0.1,1.2,0.1,1.8v7.7h-2.1v-7.7c0-0.3,0-0.7,0-1c0-0.3-0.1-0.7-0.2-1
		c-0.1-0.3-0.3-0.5-0.5-0.7c-0.3-0.2-0.6-0.3-0.9-0.3c-0.3,0-0.7,0.1-0.9,0.3c-0.3,0.2-0.6,0.5-0.8,0.8c-0.2,0.4-0.4,0.8-0.5,1.2
		c-0.1,0.5-0.2,1-0.2,1.5L247.7,17.9z"/>
	<path class="st0" d="M258.6,12.4c0,0.5,0,1.1,0.2,1.6c0.1,0.5,0.2,0.9,0.4,1.3c0.2,0.3,0.4,0.6,0.8,0.9c0.3,0.2,0.6,0.3,1,0.3
		c0.5,0,1-0.2,1.3-0.5c0.3-0.3,0.6-0.8,0.8-1.2l1.5,0.9c-0.3,0.7-0.7,1.4-1.3,1.9c-0.7,0.5-1.5,0.8-2.3,0.7c-1.3,0-2.5-0.6-3.2-1.7
		c-0.9-1.4-1.3-3.1-1.2-4.7c0-0.9,0.1-1.8,0.3-2.6c0.2-0.7,0.5-1.4,0.9-2c0.4-0.5,0.8-1,1.4-1.3c1.1-0.6,2.5-0.6,3.7,0
		c0.5,0.3,0.9,0.8,1.3,1.3c0.3,0.6,0.6,1.2,0.7,1.9c0.1,0.8,0.2,1.6,0.2,2.3v1L258.6,12.4z M263,10.8c0-0.9-0.1-1.7-0.5-2.5
		c-0.3-0.6-0.9-1-1.6-1c-0.4,0-0.7,0.1-1,0.4c-0.3,0.3-0.5,0.6-0.7,0.9c-0.2,0.4-0.3,0.8-0.4,1.2c-0.1,0.4-0.1,0.7-0.1,1.1L263,10.8
		z"/>
	<path class="st0" d="M280.9,11.9c0,0.9-0.1,1.8-0.3,2.6c-0.2,0.7-0.5,1.4-0.9,2c-0.4,0.5-0.8,1-1.4,1.3c-0.6,0.3-1.2,0.5-1.9,0.5
		c-0.6,0-1.3-0.2-1.8-0.5c-0.6-0.3-1-0.8-1.4-1.3c-0.4-0.6-0.7-1.3-0.9-2c-0.2-0.9-0.3-1.7-0.3-2.6c0-0.9,0.1-1.8,0.3-2.6
		c0.2-0.7,0.5-1.4,0.9-2c0.3-0.5,0.8-1,1.4-1.3c1.2-0.6,2.5-0.6,3.7,0c0.6,0.3,1,0.8,1.4,1.3c0.4,0.6,0.7,1.3,0.9,2
		C280.8,10.2,280.9,11,280.9,11.9z M278.8,11.9c0-0.6,0-1.2-0.1-1.8c-0.1-0.5-0.2-1-0.4-1.5c-0.2-0.4-0.4-0.7-0.7-1
		c-0.6-0.5-1.4-0.5-2,0c-0.3,0.3-0.6,0.6-0.7,1c-0.2,0.5-0.3,1-0.4,1.5c-0.1,0.6-0.1,1.2-0.1,1.8c0,0.6,0,1.2,0.1,1.8
		c0.1,0.5,0.2,1,0.4,1.5c0.2,0.4,0.4,0.7,0.7,1c0.6,0.5,1.4,0.5,2,0c0.3-0.3,0.6-0.6,0.7-1c0.2-0.5,0.3-1,0.4-1.5
		C278.7,13.1,278.8,12.5,278.8,11.9L278.8,11.9z"/>
	<path class="st0" d="M289.8,17.9v-7.7c0-0.3,0-0.7,0-1c0-0.3-0.1-0.7-0.2-1c-0.1-0.3-0.3-0.5-0.5-0.7c-0.3-0.2-0.6-0.3-0.9-0.3
		c-0.3,0-0.7,0.1-0.9,0.3c-0.3,0.2-0.5,0.5-0.7,0.8c-0.2,0.4-0.4,0.8-0.5,1.2c-0.1,0.5-0.2,1-0.2,1.5v6.9h-2v-9c0-0.5,0-1,0-1.5
		s0-1.1-0.1-1.5h1.9c0,0.4,0.1,0.8,0.1,1.2c0,0.4,0,0.7,0,0.9l0,0c0.2-0.7,0.6-1.3,1.1-1.8c1-0.8,2.4-1,3.5-0.3
		c0.4,0.3,0.7,0.6,0.9,1.1c0.2,0.5,0.4,1,0.5,1.5c0.1,0.6,0.1,1.2,0.1,1.8v7.7H289.8z"/>
	<path class="st0" d="M296.8,12.4c0,0.5,0,1.1,0.1,1.6c0.1,0.5,0.2,0.9,0.5,1.3c0.2,0.3,0.4,0.6,0.8,0.9c0.3,0.2,0.7,0.3,1,0.3
		c0.5,0,1-0.2,1.3-0.5c0.3-0.4,0.6-0.8,0.8-1.2l1.5,0.9c-0.3,0.7-0.8,1.4-1.4,1.9c-0.7,0.5-1.5,0.8-2.3,0.7c-1.3,0-2.5-0.6-3.2-1.7
		c-0.9-1.4-1.3-3.1-1.2-4.7c0-0.9,0.1-1.8,0.3-2.6c0.2-0.7,0.5-1.4,0.9-2c0.4-0.5,0.8-1,1.4-1.3c1.1-0.6,2.5-0.6,3.7,0
		c0.5,0.3,0.9,0.8,1.3,1.3c0.3,0.6,0.6,1.2,0.7,1.9c0.2,0.8,0.2,1.6,0.2,2.3v1L296.8,12.4z M301.1,10.8c0-0.9-0.1-1.7-0.5-2.5
		c-0.3-0.6-0.9-1-1.6-1c-0.4,0-0.8,0.1-1,0.4c-0.3,0.3-0.5,0.6-0.7,0.9c-0.2,0.4-0.3,0.8-0.4,1.2c-0.1,0.4-0.1,0.7-0.1,1.1
		L301.1,10.8z"/>
	<path class="st0" d="M308.1,16.7c0,0.4-0.1,0.7-0.4,1c-0.3,0.3-0.6,0.4-1,0.4c-0.4,0-0.7-0.1-1-0.4c-0.3-0.3-0.4-0.6-0.4-1
		c0-0.4,0.1-0.7,0.4-1c0.2-0.3,0.6-0.5,1-0.4c0.4,0,0.7,0.1,1,0.4C307.9,15.9,308.1,16.3,308.1,16.7z"/>
</g>
</svg>
