<?xml version="1.0" encoding="utf-8"?>
<!-- Generator: Adobe Illustrator 22.1.0, SVG Export Plug-In . SVG Version: 6.00 Build 0)  -->
<svg version="1.1" id="Layer_1" xmlns="http://www.w3.org/2000/svg" xmlns:xlink="http://www.w3.org/1999/xlink" x="0px" y="0px"
	 viewBox="0 0 753 99.2" style="enable-background:new 0 0 753 99.2;" xml:space="preserve">
<style type="text/css">
	.st0{fill:#00534C;}
</style>
<title>musthave</title>
<g id="Layer_2_1_">
	<g id="Layer_1-2">
		<path class="st0" d="M0,2.4h26.3l24.5,67.1h0.4L75.5,2.4h26.4v94.4H85.2V20.9h-0.3L56.3,96.8H44.5L16.3,20.9H16v75.9H0V2.4z"/>
		<path class="st0" d="M195,62.1c0.1,5.3-0.9,10.5-2.9,15.4c-1.8,4.4-4.6,8.4-8,11.7c-3.5,3.3-7.5,5.8-12,7.4
			c-9.7,3.5-20.4,3.5-30.1,0c-4.5-1.6-8.6-4.2-12.1-7.4c-3.5-3.3-6.2-7.3-8-11.7c-2-4.9-2.9-10.1-2.9-15.4V2.4h16.8v59.1
			c0,2.8,0.4,5.5,1.1,8.2c0.7,2.6,1.9,5.1,3.5,7.3c1.7,2.2,4,4,6.5,5.2c6.4,2.7,13.7,2.7,20.1,0c2.6-1.2,4.8-3,6.5-5.2
			c1.7-2.2,2.9-4.6,3.5-7.3c0.7-2.7,1.1-5.4,1.1-8.2V2.4H195V62.1z"/>
		<path class="st0" d="M258.6,22.1c-2-2.5-4.6-4.5-7.5-5.8c-3-1.5-6.4-2.3-9.8-2.3c-2,0-3.9,0.3-5.9,0.7c-1.9,0.5-3.7,1.2-5.4,2.3
			c-1.6,1-2.9,2.4-3.9,4c-1.1,1.8-1.6,3.8-1.5,5.9c-0.1,1.9,0.4,3.8,1.3,5.5c0.9,1.5,2.2,2.9,3.7,3.9c1.8,1.2,3.7,2.1,5.7,2.8
			c2.2,0.8,4.7,1.6,7.3,2.4c3,1,6.2,2.1,9.4,3.3c3.2,1.2,6.2,2.9,8.9,4.9c2.7,2.1,5,4.7,6.7,7.7c1.8,3.6,2.7,7.6,2.6,11.6
			c0.1,4.6-0.9,9.1-2.8,13.3c-1.8,3.6-4.3,6.9-7.5,9.4c-3.2,2.6-6.9,4.5-10.9,5.6c-4.3,1.3-8.7,1.9-13.2,1.9c-6.2,0-12.3-1.2-18-3.4
			c-5.6-2.1-10.5-5.5-14.4-10.1l12-11.2c2.4,3.3,5.6,5.9,9.3,7.6c3.5,1.8,7.4,2.7,11.4,2.8c2,0,4-0.3,6-0.7c2-0.5,3.9-1.3,5.5-2.5
			c1.6-1.1,3-2.6,4-4.3c1.1-2,1.6-4.2,1.5-6.5c0.1-2.2-0.5-4.4-1.7-6.2c-1.2-1.7-2.8-3.2-4.7-4.3c-2.2-1.3-4.5-2.4-6.9-3.1l-8.4-2.8
			c-2.9-0.9-5.7-2-8.5-3.2c-2.8-1.2-5.4-2.9-7.7-4.9c-2.3-2.1-4.2-4.7-5.5-7.5c-1.5-3.5-2.3-7.3-2.1-11.1c-0.1-4.3,0.9-8.6,3-12.4
			c2-3.4,4.6-6.3,7.9-8.6c3.4-2.3,7.1-4,11.1-5.1C233.6,0.6,237.8,0,242,0c5,0,9.9,0.9,14.6,2.5c4.8,1.6,9.2,4.2,12.9,7.6
			L258.6,22.1z"/>
		<path class="st0" d="M304.4,17.1h-28.9V2.4h74.7v14.7h-28.9v79.7h-16.8V17.1z"/>
		<path class="st0" d="M391.8,2.4h16.8v38.1h44.1V2.4h16.8v94.4h-16.8V54.9h-44.1v41.9h-16.8V2.4z"/>
		<path class="st0" d="M517.3,2.4h14.5l40.7,94.4h-19.2l-8.8-21.6h-40.9L495,96.8h-18.8L517.3,2.4z M538.7,60.8l-14.5-38.4
			l-14.8,38.4H538.7z"/>
		<path class="st0" d="M559.3,2.4h18.8l26,72.7h0.5l26.3-72.7H649l-37.8,94.4h-14.5L559.3,2.4z"/>
		<path class="st0" d="M655.7,2.4h62.5v14.7h-45.7v24h43.3v14.1h-43.3v26.7h48.1v14.9h-64.9V2.4z"/>
		<path class="st0" d="M731.7,42.4c0-2.8,1.1-5.4,3.1-7.3c2-2,4.7-3.1,7.5-3.1c2.8,0,5.4,1,7.5,2.9c2.1,1.8,3.2,4.4,3.2,7.2
			c0,2.8-1.1,5.4-3.1,7.3c-3.1,3-7.6,3.9-11.6,2.3c-1.2-0.5-2.4-1.2-3.4-2.1c-1-0.9-1.8-2-2.3-3.2C731.9,45.1,731.7,43.8,731.7,42.4
			z M731.7,87.5c0-2.8,1.1-5.4,3.1-7.3c2-2,4.7-3.1,7.5-3.1c2.8,0,5.4,1,7.5,2.9c2.1,1.8,3.2,4.4,3.2,7.2c0,2.8-1.1,5.4-3.1,7.3
			c-2,2-4.7,3.1-7.5,3.1c-1.4,0-2.8-0.3-4.1-0.8c-1.2-0.5-2.4-1.2-3.4-2.1c-1-0.9-1.8-2-2.3-3.2C731.9,90.2,731.7,88.9,731.7,87.5z"
			/>
	</g>
</g>
</svg>
