<svg xmlns="http://www.w3.org/2000/svg" viewBox="0 0 1086.75 112.2"><defs><style>.cls-1{fill:#00534c;}</style></defs><title>runningtrails</title><g id="Layer_2" data-name="Layer 2"><g id="Layer_1-2" data-name="Layer 1"><path class="cls-1" d="M33.91,71.1H31.2v38.1H0V3H39.53a48.42,48.42,0,0,1,16,2.4,28.34,28.34,0,0,1,11.19,6.9,28.72,28.72,0,0,1,6.54,10.87A44.27,44.27,0,0,1,75.45,37.5a36.66,36.66,0,0,1-1.2,9.75,38.32,38.32,0,0,1-3,7.73,23.58,23.58,0,0,1-4.07,5.62,16.18,16.18,0,0,1-4.51,3.3l17,45.3H45.2ZM31.2,30.15v18.6h2.7a13.62,13.62,0,0,0,3-.37,7.57,7.57,0,0,0,3-1.43,8.15,8.15,0,0,0,2.25-2.85,10.41,10.41,0,0,0,.9-4.65,11.84,11.84,0,0,0-.82-4.8,8,8,0,0,0-2.11-2.85,6.28,6.28,0,0,0-2.69-1.35,12.93,12.93,0,0,0-2.63-.3Z"/><path class="cls-1" d="M126.1,112.2q-10.5,0-17.85-3.37a32.17,32.17,0,0,1-12.07-9.38,38.72,38.72,0,0,1-6.9-14.1A67.49,67.49,0,0,1,87.1,67.8V3H120V65q0,7.65,1.28,11.63a5.25,5.25,0,0,0,5.47,4,5.37,5.37,0,0,0,5.55-4q1.35-4,1.35-11.63V3H166V67.8a63.39,63.39,0,0,1-2.32,17.55,39.23,39.23,0,0,1-7.2,14.1,33.25,33.25,0,0,1-12.38,9.38Q136.6,112.21,126.1,112.2Z"/><path class="cls-1" d="M210.1,59.1h-.45l1.2,50.1H181.9V3h34.65L233.2,54.75h.6L232.9,3h27.9V109.2H227.05Z"/><path class="cls-1" d="M306.21,59.1h-.46L307,109.2H278V3h34.66l16.65,51.75h.6L329,3h27.91V109.2H323.16Z"/><path class="cls-1" d="M374.06,3h33V109.2h-33Z"/><path class="cls-1" d="M452.42,59.1H452l1.2,50.1H424.22V3h34.65l16.65,51.75h.6L475.22,3h27.9V109.2H469.37Z"/><path class="cls-1" d="M561.65,111.75a43.76,43.76,0,0,1-19.12-4A40.2,40.2,0,0,1,528.2,96.3a52.93,52.93,0,0,1-9-17.55,76.55,76.55,0,0,1-3.15-22.65A77.13,77.13,0,0,1,519.28,33a53.59,53.59,0,0,1,9.07-17.7A40.46,40.46,0,0,1,542.3,4,39.63,39.63,0,0,1,560,0a53.72,53.72,0,0,1,11.4,1.12,48.68,48.68,0,0,1,9.15,2.93,32.55,32.55,0,0,1,7,4.12,39,39,0,0,1,5,4.73L575.6,37.35a17,17,0,0,0-5.25-4.27,16,16,0,0,0-7.5-1.58,11.54,11.54,0,0,0-6.9,2,16.77,16.77,0,0,0-4.8,5.39,25.8,25.8,0,0,0-2.85,7.81,46.92,46.92,0,0,0-.9,9.37,55.56,55.56,0,0,0,.75,9.15,30.86,30.86,0,0,0,2.4,8A15.74,15.74,0,0,0,554.9,79a10.18,10.18,0,0,0,6.6,2.17,9.68,9.68,0,0,0,4.65-1.05V71h-9.3V42.6h36.6v60.6a43.25,43.25,0,0,1-13.35,6.22A65.94,65.94,0,0,1,561.65,111.75Z"/><path class="cls-1" d="M687.35,109.2h-32.1V30.6H636.5V3h69.6V30.6H687.35Z"/><path class="cls-1" d="M749,71.1h-2.71v38.1h-31.2V3h39.53a48.32,48.32,0,0,1,16,2.4,28.38,28.38,0,0,1,11.2,6.9,28.72,28.72,0,0,1,6.54,10.87,44.27,44.27,0,0,1,2.18,14.33,36.65,36.65,0,0,1-1.21,9.75,37.17,37.17,0,0,1-3,7.73,23.56,23.56,0,0,1-4.06,5.62,16.22,16.22,0,0,1-4.52,3.3l17,45.3H760.33Zm-2.71-40.95v18.6H749a13.62,13.62,0,0,0,3-.37A7.57,7.57,0,0,0,755,47a8.15,8.15,0,0,0,2.25-2.85,10.41,10.41,0,0,0,.9-4.65,11.66,11.66,0,0,0-.83-4.8,7.85,7.85,0,0,0-2.1-2.85,6.26,6.26,0,0,0-2.7-1.35,12.77,12.77,0,0,0-2.62-.3Z"/><path class="cls-1" d="M853.58,94.5h-18.3l-2.85,14.7H799.88L824.93,3h40.35l25.2,106.2H856.43Zm-14.7-25.2h10.8l-4.95-34.5h-.6Z"/><path class="cls-1" d="M899.14,3h33V109.2h-33Z"/><path class="cls-1" d="M949.3,3h32.85V79.2h27.3v30H949.3Z"/><path class="cls-1" d="M1048.2,111.9a52.36,52.36,0,0,1-10.28-1,50.51,50.51,0,0,1-16.57-6.37,42.27,42.27,0,0,1-5.85-4.2l15.6-24.75a31.78,31.78,0,0,0,7.57,4.65,20.34,20.34,0,0,0,8.18,1.8,7,7,0,0,0,4.27-1.27,4.3,4.3,0,0,0,1.73-3.68,5.91,5.91,0,0,0-2.48-4.8,44.49,44.49,0,0,0-7.72-4.5,70.51,70.51,0,0,1-8.55-4.72,32.34,32.34,0,0,1-7.2-6.38,29.5,29.5,0,0,1-5-8.78A33.57,33.57,0,0,1,1020,36.15q0-9.75,3.45-16.57a33.14,33.14,0,0,1,8.77-11.1,34.41,34.41,0,0,1,11.85-6.23A44.68,44.68,0,0,1,1056.9.3a46.31,46.31,0,0,1,17.17,3,39.45,39.45,0,0,1,12.68,7.8l-16,24.45a22.85,22.85,0,0,0-6-4.27,14.77,14.77,0,0,0-6.6-1.73,8.13,8.13,0,0,0-4.35,1.2q-1.95,1.2-2,4.2a4.64,4.64,0,0,0,2,3.9,57.85,57.85,0,0,0,7.88,4.35c2.2,1.1,4.65,2.47,7.35,4.13a37.38,37.38,0,0,1,7.65,6.29,34,34,0,0,1,6.07,9.23,30.37,30.37,0,0,1,2.48,12.75,39.49,39.49,0,0,1-3.15,16.5,31.1,31.1,0,0,1-8.4,11.25,34.94,34.94,0,0,1-11.93,6.45A45,45,0,0,1,1048.2,111.9Z"/></g></g></svg>