<svg xmlns="http://www.w3.org/2000/svg" viewBox="0 0 166 44"><defs><style>.cls-1{fill:#ef944a;}.cls-2{fill:#fff;}</style></defs><title>cta</title><g id="Layer_2" data-name="Layer 2"><g id="Layer_1-2" data-name="Layer 1"><rect class="cls-1" width="166" height="44" rx="5.97" ry="5.97"/><path class="cls-2" d="M46.23,27.67V16.34h7.62v2.3h-5v2.14h4.71V23H48.87v2.35h5.27v2.34Z"/><path class="cls-2" d="M63.18,27.67l-2.48-4-2.39,4H55.05l4-6-3.65-5.34h3.29l2.12,3.52,2.08-3.52H66l-3.58,5.34,4.09,6Z"/><path class="cls-2" d="M76.58,19.83a3.55,3.55,0,0,1-.36,1.67,3,3,0,0,1-1,1.09,4.26,4.26,0,0,1-1.44.61,7.24,7.24,0,0,1-1.69.19H70.73v4.28H68V16.34h4.16a8,8,0,0,1,1.74.18,4.08,4.08,0,0,1,1.41.59,2.86,2.86,0,0,1,.94,1.07A3.57,3.57,0,0,1,76.58,19.83Zm-2.73,0a1.29,1.29,0,0,0-.16-.66,1.18,1.18,0,0,0-.43-.4,2,2,0,0,0-.62-.19,5.52,5.52,0,0,0-.71-.05h-1.2v2.68h1.15a4.42,4.42,0,0,0,.74-.07,1.89,1.89,0,0,0,.63-.22,1.17,1.17,0,0,0,.6-1.09Z"/><path class="cls-2" d="M78.63,27.67V16.34h2.75v8.94h4.39v2.39Z"/><path class="cls-2" d="M98.78,22a6.31,6.31,0,0,1-.47,2.46A5.61,5.61,0,0,1,97,26.31a5.73,5.73,0,0,1-2,1.23,7.25,7.25,0,0,1-4.92,0,5.78,5.78,0,0,1-2-1.23,5.61,5.61,0,0,1-1.29-1.9A6.31,6.31,0,0,1,86.44,22a6.22,6.22,0,0,1,.46-2.45,5.49,5.49,0,0,1,1.29-1.87,5.82,5.82,0,0,1,2-1.18,7.41,7.41,0,0,1,4.92,0,5.77,5.77,0,0,1,2,1.18,5.49,5.49,0,0,1,1.29,1.87A6.22,6.22,0,0,1,98.78,22Zm-2.93,0a3.83,3.83,0,0,0-.24-1.37,3.12,3.12,0,0,0-1.69-1.82,3.18,3.18,0,0,0-1.32-.26,3.1,3.1,0,0,0-1.31.26,3.29,3.29,0,0,0-1,.72,3.11,3.11,0,0,0-.66,1.1A3.83,3.83,0,0,0,89.37,22a4.07,4.07,0,0,0,.24,1.42,3.41,3.41,0,0,0,.66,1.11,3,3,0,0,0,1,.73,3.43,3.43,0,0,0,2.62,0,3.16,3.16,0,0,0,1-.73,3.43,3.43,0,0,0,.67-1.11A4.07,4.07,0,0,0,95.85,22Z"/><path class="cls-2" d="M107.05,27.67l-2.46-4.5h-.93v4.5H101V16.34h4.32a7.69,7.69,0,0,1,1.6.16,4.52,4.52,0,0,1,1.39.57,2.94,2.94,0,0,1,1,1.06,3.25,3.25,0,0,1,.37,1.63A3.07,3.07,0,0,1,109,21.7a3.51,3.51,0,0,1-1.73,1.12l3,4.85Zm-.11-7.86a1.16,1.16,0,0,0-.17-.65,1.24,1.24,0,0,0-.44-.38,1.78,1.78,0,0,0-.59-.19,4.72,4.72,0,0,0-.64-.05h-1.46v2.64h1.3a4,4,0,0,0,.69-.05,2.6,2.6,0,0,0,.65-.2,1.27,1.27,0,0,0,.47-.42A1.23,1.23,0,0,0,106.94,19.81Z"/><path class="cls-2" d="M112,27.67V16.34h7.62v2.3h-5v2.14h4.71V23h-4.71v2.35h5.27v2.34Z"/></g></g></svg>