<?xml version="1.0" encoding="utf-8"?>
<!-- Generator: Adobe Illustrator 22.1.0, SVG Export Plug-In . SVG Version: 6.00 Build 0)  -->
<svg version="1.1" id="Layer_1" xmlns="http://www.w3.org/2000/svg" xmlns:xlink="http://www.w3.org/1999/xlink" x="0px" y="0px"
	 viewBox="0 0 37.7 52.4" style="enable-background:new 0 0 37.7 52.4;" xml:space="preserve">
<style type="text/css">
	.st0{fill:#00534C;}
	.st1{fill:#EC9249;}
</style>
<title>fmslogo</title>
<g>
	<circle class="st0" cx="18.8" cy="17.8" r="7.8"/>
	<g id="Layer_2_1_">
		<g id="Layer_2-2">
			<path class="st1" d="M18.8,0C8.6-0.1,0.1,8.1,0,18.4c0,3.4,1,6.8,2.8,9.7l15,23.6c0.5,0.7,1.5,1,2.2,0.5c0.2-0.1,0.4-0.3,0.5-0.5
				L35,27.9c1.7-2.8,2.7-6.1,2.7-9.4C37.5,8.2,29.1-0.1,18.8,0z M18.8,24.3c-3.6,0-6.5-2.9-6.5-6.5s2.9-6.5,6.5-6.5s6.5,2.9,6.5,6.5
				S22.4,24.3,18.8,24.3z"/>
		</g>
	</g>
</g>
</svg>
