<svg id="Group_1_copy_4" data-name="Group 1 copy 4" xmlns="http://www.w3.org/2000/svg" width="360.812" height="361.344" viewBox="0 0 360.812 361.344">
  <defs>
    <style>
      .cls-1 {
        fill: #fff;
      }

      .cls-1, .cls-2 {
        fill-rule: evenodd;
      }

      .cls-2 {
        fill: none;
        stroke: #fff;
        stroke-width: 3px;
      }
    </style>
  </defs>
  <path id="_5-STAR_RATED_WEIGHT_LOSS_SURGERY" data-name="5-STAR RATED WEIGHT LOSS SURGERY" class="cls-1" d="M548.489,268.267c0.336,4.4,3,7.239,7.207,6.918,3.671-.281,5.918-3.327,5.6-7.474a5.8,5.8,0,0,0-.707-2.623l3.586-.274,0.631,8.266,3.447-.264-0.893-11.683-11.4.871-0.142.349a7.285,7.285,0,0,1,2.129,4.628c0.182,2.382-.655,3.968-2.616,4.117-1.793.137-3.123-1.029-3.281-3.1a4.3,4.3,0,0,1,2.121-4.333l-1.994-3.229A8.068,8.068,0,0,0,548.489,268.267Zm7.07,8.515,1.031,6.952,3.336-.5-1.03-6.951Zm-3.46,16.237c0.8,3.654,3.286,5.96,6.748,5.2,3.214-.7,4.241-2.854,4.928-6.429l0.2-1.051c0.354-1.8.665-2.62,1.819-2.872a1.712,1.712,0,0,1,2.05,1.481,2.679,2.679,0,0,1-1.109,2.832l2.577,2.575a5.815,5.815,0,0,0,1.883-6.139c-0.749-3.433-3.426-5.152-6.31-4.522-3.132.683-4.214,2.847-4.79,5.88l-0.2,1.051c-0.386,1.926-.625,3.072-1.943,3.36-1.1.239-2.118-.6-2.465-2.2a4.283,4.283,0,0,1,1.507-4.3l-2.5-2.736C552.52,286.769,551.32,289.448,552.1,293.019Zm3.571,12.9,1.163,3.761,14.962-4.631,1.612,5.211,3.3-1.023-4.389-14.182-3.3,1.023,1.613,5.211ZM558,313.791l1.421,3.518,2.8,0.022,2.778,6.879-2,1.958,1.547,3.83,14.6-15.322-0.127-.312Zm7.761,3.533,3.136,0.037c1.425,0,3.485-.225,3.574-0.231-0.161.126-1.749,1.373-2.721,2.342l-2.232,2.2Zm-0.032,15,1.837,3.481,5.867-3.1,1.168,2.213-4.058,6.526,2.1,3.978L577,338.2a5.625,5.625,0,0,0,6.692.7c3.953-2.086,4.074-5.773,2.251-9.229l-3.306-6.265Zm10.638-1.163,5.047-2.663,1.416,2.685c0.879,1.666.861,3.138-1.028,4.135-1.865.983-3.113,0.244-4.018-1.472Zm1.106,21.965,2.286,3.2,5.4-3.853,1.453,2.038-3.149,7.011,2.612,3.662,3.352-7.743a5.626,5.626,0,0,0,6.726-.2c3.639-2.6,3.266-6.266,1-9.447l-4.114-5.768Zm10.389-2.575,4.646-3.314,1.763,2.472c1.094,1.534,1.273,3-.467,4.235-1.717,1.225-3.053.658-4.179-.921Zm-0.981,15.714,2.506,2.849,2.647-.906,4.9,5.571-1.236,2.51,2.729,3.1,8.7-19.3-0.223-.253Zm8.494,0.763,2.972-1c1.344-.472,3.214-1.368,3.295-1.4-0.11.172-1.2,1.875-1.792,3.111l-1.375,2.819Zm6.2,15.24L604.411,385,615.254,373.7l3.933,3.776,2.395-2.494-10.706-10.278-2.395,2.494,3.934,3.777Zm9.01,8.383,10.217,8.1,2.148-2.708-7.134-5.659,2.759-3.479,6.011,4.768,2.1-2.642-6.011-4.768,2.725-3.435,6.825,5.414,2.148-2.708-9.908-7.859Zm13.172,10.27,4.948,3.168c4.971,3.184,10.581,2.137,13.629-2.621s1.627-10.307-3.32-13.475l-4.948-3.169Zm5.179-.789,6.58-10.274,1.467,0.94c3.575,2.289,3.844,5.466,1.918,8.472s-4.923,4.091-8.5,1.8Zm21.71,16.512,0.361,0.156,7.757-6.694c0.851-.766,2.061-2.08,2.12-2.146-0.015.177-.171,1.885-0.133,3l0.295,10.168,0.362,0.156,14.014-14.953-3.51-1.514-5.569,5.954c-0.951,1-2.229,2.681-2.3,2.773a24.869,24.869,0,0,0,.286-3.642L664,401.226l-0.362-.156-6.488,5.742a22.2,22.2,0,0,0-2.453,2.706c0.026-.2.352-2.235,0.44-3.575l0.486-8.148-3.82-1.648Zm19.781,7.756,12.519,3.667,0.972-3.318-8.741-2.561,1.249-4.263,7.365,2.158,0.949-3.238-7.366-2.157,1.233-4.209,8.364,2.45,0.972-3.318L675.8,406.056Zm16.184,4.434,3.846,0.84L694.534,411l-3.846-.84Zm17.4,3.349a12.432,12.432,0,0,0,7.567-1.222l1.139-8.468-8.134-1.1-0.461,3.427,4.569,0.614-0.413,3.065a9.431,9.431,0,0,1-3.8.2,5.95,5.95,0,0,1-5.428-7.083c0.476-3.538,3.061-5.884,6.487-5.423a5.293,5.293,0,0,1,4,2.3l3-2.262c-1.32-1.993-3.436-3.129-6.528-3.545a9.4,9.4,0,0,0-10.971,8.393C694.282,426.679,697.822,431.353,704.006,432.185Zm11.016,0.968,3.934,0.073,0.138-7.5,8.177,0.15-0.138,7.5,3.934,0.073,0.35-19.108-3.934-.072-0.148,8.093-8.177-.15,0.148-8.093-3.933-.072Zm24.385-.289,3.922-.332-1.319-15.6,5.435-.46-0.292-3.445-14.79,1.25,0.291,3.445,5.435-.459Zm18.374-2.229,12.316-2.627-0.721-3.381-8.467,1.806-3.266-15.313-3.849.821Zm23.235-5.614A9.812,9.812,0,1,0,768.6,418.7,9.681,9.681,0,0,0,781.016,425.021Zm-1.073-3.346c-3.32,1.064-6.4-.812-7.491-4.212s0.327-6.717,3.646-7.782,6.4,0.812,7.491,4.212S783.262,420.611,779.943,421.675Zm18.47-3.244c3.422-1.5,5.189-4.4,3.764-7.64-1.323-3.011-3.635-3.591-7.273-3.557l-1.07.009c-1.837.01-2.7-.133-3.173-1.214a1.711,1.711,0,0,1,1.045-2.3,2.68,2.68,0,0,1,2.994.526l2.012-3.033a5.811,5.811,0,0,0-6.386-.632c-3.216,1.414-4.369,4.376-3.182,7.078,1.289,2.933,3.623,3.564,6.708,3.528l1.07-.009c1.963,0,3.133,0,3.676,1.239,0.452,1.029-.172,2.193-1.664,2.849a4.284,4.284,0,0,1-4.512-.626l-2.186,2.987C792.207,419.255,795.069,419.9,798.413,418.431Zm13.564-6.66c3.283-1.788,4.8-4.823,3.1-7.933-1.573-2.888-3.926-3.27-7.549-2.929l-1.066.1c-1.83.165-2.7,0.1-3.265-.942a1.711,1.711,0,0,1,.846-2.382,2.68,2.68,0,0,1,3.029.271l1.749-3.194a5.813,5.813,0,0,0-6.418-.088c-3.086,1.681-3.984,4.731-2.572,7.323,1.533,2.814,3.913,3.246,6.984,2.949l1.065-.1c1.957-.169,3.123-0.26,3.769.924,0.538,0.988.014,2.2-1.417,2.981a4.283,4.283,0,0,1-4.55-.242l-1.926,3.162C805.861,413.119,808.768,413.519,811.977,411.771Zm18.569-10.484c3.164-1.993,4.484-5.117,2.6-8.114-1.753-2.782-4.125-3.015-7.719-2.445l-1.057.168c-1.817.28-2.69,0.265-3.319-.734a1.711,1.711,0,0,1,.694-2.43,2.679,2.679,0,0,1,3.04.078l1.543-3.3a5.814,5.814,0,0,0-6.411.318c-2.972,1.873-3.676,4.974-2.1,7.471,1.708,2.712,4.11,2.992,7.156,2.5l1.058-.167c1.941-.293,3.1-0.458,3.819.683,0.6,0.952.154,2.2-1.226,3.065a4.281,4.281,0,0,1-4.555.046l-1.723,3.277C824.528,403.019,827.455,403.235,830.546,401.287Zm14.162-9.892c3.446-2.664,4.666-6.555,1.71-10.379l-7.458-9.651-3.113,2.406,7.321,9.473c1.7,2.2,1.42,3.768-.626,5.349-2.068,1.6-3.677,1.492-5.378-.709l-7.321-9.473-3.113,2.406,7.458,9.651C837.144,394.292,841.217,394.093,844.708,391.4Zm8.877-7.5,2.848-2.717-4.581-4.8,1.81-1.727,7.387,2.121,3.255-3.105-8.141-2.219a5.627,5.627,0,0,0-1.157-6.629c-3.086-3.234-6.667-2.343-9.494.355l-5.125,4.891Zm-4.023-9.917-3.94-4.129,2.2-2.1c1.363-1.3,2.784-1.685,4.259-.139,1.456,1.525,1.085,2.929-.319,4.268Zm23.116-9.556a12.435,12.435,0,0,0,3.041-7.037l-6.526-5.519-5.3,6.269,2.64,2.233,2.977-3.521,2.362,2a9.44,9.44,0,0,1-1.878,3.309,5.952,5.952,0,0,1-8.893.764c-2.726-2.305-3.314-5.747-1.081-8.388a5.3,5.3,0,0,1,4.09-2.138l-0.293-3.745c-2.391.04-4.487,1.213-6.5,3.6a9.4,9.4,0,0,0,1.172,13.766C862.8,369.659,868.648,369.19,872.678,364.424Zm6.688-8.8L886.7,344.84l-2.859-1.944-5.121,7.531-3.673-2.5,4.315-6.345-2.789-1.9-4.315,6.346-3.627-2.466,4.9-7.206-2.86-1.944-7.113,10.46ZM888.6,341.7l1.909-3.441-5.8-3.217,1.213-2.188,7.681-.173,2.182-3.932-8.429.305a5.624,5.624,0,0,0-3.077-5.981c-3.907-2.168-7.059-.253-8.954,3.163l-3.436,6.193Zm-6.791-8.267-4.988-2.768,1.472-2.654c0.914-1.646,2.155-2.436,4.023-1.4,1.843,1.023,1.906,2.472.966,4.168Zm16.867-11.31,1.576-3.636-6.678-2.9-8.4-10.379-1.61,3.713,3.742,4.441c1.01,1.2,2.708,2.8,2.708,2.8s-2.4-.12-3.915-0.012l-5.844.407L878.5,320.6l13.752-1.268Z" transform="translate(-548.469 -72.094)"/>
  <path id="Ellipse_3_copy_3" data-name="Ellipse 3 copy 3" class="cls-2" d="M555,250q0-8.28.75-16.37a176.4,176.4,0,1,1,344.037,69.029" transform="translate(-548.469 -72.094)"/>
</svg>
