<svg id="CIRCLE1" xmlns="http://www.w3.org/2000/svg" width="369.937" height="366.063" viewBox="0 0 369.937 366.063">
  <defs>
    <style>
      .cls-1 {
        fill: none;
        stroke: #fff;
        stroke-width: 3px;
      }

      .cls-1, .cls-2 {
        fill-rule: evenodd;
      }

      .cls-2 {
        fill: #fff;
      }
    </style>
  </defs>
  <path id="Ellipse_3_copy_13" data-name="Ellipse 3 copy 13" class="cls-1" d="M430.229,277.425A176.4,176.4,0,1,1,148.284,110.38" transform="translate(-77.969 -62.031)"/>
  <path id="THE_ONLY_REPEAT" data-name="THE ONLY REPEAT" class="cls-2" d="M173.34,114.111l5.191-2.812L167.343,90.647l7.193-3.9-2.47-4.561L152.489,92.8l2.47,4.561,7.193-3.9Zm17.191-8.868,5.612-1.834-3.5-10.7,11.665-3.813,3.5,10.7,5.611-1.835L204.509,70.5,198.9,72.338l3.774,11.544L191.006,87.7l-3.773-11.544-5.612,1.835Zm29.362-9.712L239.1,91.79,238.107,86.7,224.7,89.311l-1.274-6.54,11.3-2.2L233.754,75.6l-11.3,2.2L221.2,71.347l12.832-2.5-0.992-5.091L214.41,67.385Zm49.518-4.087a14.719,14.719,0,1,0-13.927-15.591A14.523,14.523,0,0,0,269.411,91.444Zm0.319-5.262c-5.22-.317-8.508-4.615-8.184-9.961s4.109-9.215,9.329-8.9,8.508,4.615,8.184,9.961S274.95,86.5,269.73,86.182ZM312.2,99.48l0.57,0.154,7.551-27.923-5.333-1.442-3.137,11.6c-0.517,1.913-1,5.147-1,5.147a40.789,40.789,0,0,0-2.233-4.666L298.2,65.468l-0.57-.154-7.551,27.923,5.332,1.442,3.137-11.6a50.3,50.3,0,0,0,.958-5.157,42.6,42.6,0,0,0,2.274,4.677Zm7.019,2.508,17.116,7.991,2.194-4.7-11.767-5.494,9.935-21.281-5.349-2.5Zm24.558,12.676,5,3.222,5.918-9.179L372.1,98.813l-5.1-3.29-7.488,4.454c-2.028,1.2-4.8,3.325-4.8,3.325s0.765-3.521.976-5.793l0.825-8.75-5.564-3.587-1.484,20.667Zm24.115,17.988,4.069,4.28,7.214-6.86,2.586,2.72-3.2,11.078,4.65,4.89,3.351-12.207a8.441,8.441,0,0,0,9.948-1.719c4.86-4.621,3.533-10-.507-14.244l-7.325-7.7Zm14.889-6.01,6.205-5.9,3.139,3.3c1.947,2.048,2.52,4.181.2,6.39-2.292,2.18-4.4,1.62-6.4-.49Zm3.523,26.276,10.973,16.2,4.295-2.908L393.906,154.9l5.517-3.737,6.456,9.533,4.19-2.838-6.456-9.532,5.447-3.69,7.332,10.825,4.294-2.909-10.642-15.713Zm14.065,21.746,2.469,5.364,8.544-3.931,1.745,3.793c2.433,5.288,7.143,8.46,13.235,5.656s6.726-8.387,4.275-13.713l-4.214-9.157Zm15.726-.736,8.084-3.72,1.675,3.64c1.181,2.567.881,4.841-2.031,6.181-2.874,1.322-4.837.183-6.053-2.461Zm-5.3,24.788,5.146,18.879,5-1.364-3.593-13.183,6.428-1.752,3.028,11.107,4.882-1.33-3.027-11.108,6.347-1.73,3.438,12.613,5-1.364-4.99-18.309Zm6.168,23.016,0.533,5.668,4.012,1.233,1.043,11.084-3.713,1.958,0.58,6.172,27.574-15.766-0.047-.5Zm9.643,8.412,4.494,1.4c2.049,0.612,5.109,1.171,5.238,1.2-0.286.112-3.1,1.224-4.918,2.2l-4.155,2.212Zm-7.772,25-0.307,5.9,23.457,1.22-0.425,8.169,5.18,0.27,1.156-22.236-5.18-.269-0.424,8.17Z" transform="translate(-77.969 -62.031)"/>
</svg>
