<svg id="_728x90_copy1.svg" data-name="728x90/copy1.svg" xmlns="http://www.w3.org/2000/svg" width="359.75" height="368.094" viewBox="0 0 359.75 368.094">
  <defs>
    <style>
      .cls-1 {
        fill: #fff;
      }

      .cls-1, .cls-2 {
        fill-rule: evenodd;
      }

      .cls-2 {
        fill: none;
        stroke: #fff;
        stroke-width: 3px;
      }
    </style>
  </defs>
  <path id="Around_the_corner" data-name="Around the corner" class="cls-1" d="M91.24,273.932l0.8,5.636,4.066,1.042,1.563,11.021-3.616,2.131,0.871,6.137,26.8-17.046-0.072-.5Zm10.028,7.947,4.555,1.185c2.075,0.515,5.157.93,5.288,0.954-0.28.124-3.042,1.368-4.808,2.428l-4.046,2.4ZM97.012,307.79l1.831,5.613,9.463-3.086,1.164,3.569-7.658,8.619,2.092,6.416,8.278-9.576a8.442,8.442,0,0,0,9.719,2.731c6.376-2.08,7.491-7.5,5.673-13.074l-3.3-10.105Zm16.026,0.984,8.14-2.655,1.412,4.331c0.876,2.686.475,4.858-2.572,5.852-3.007.98-4.666-.431-5.568-3.2ZM113.43,349a14.719,14.719,0,1,0,5.723-20.107A14.523,14.523,0,0,0,113.43,349Zm4.617-2.545c-2.525-4.58-.653-9.658,4.038-12.244s9.983-1.458,12.508,3.122,0.652,9.657-4.038,12.243S120.571,351.033,118.047,346.454Zm15.571,31.887c4.219,4.991,10.13,6.565,15.669,1.883l13.977-11.812-3.811-4.508L145.735,375.5c-3.189,2.695-5.555,2.376-8.059-.586-2.531-3-2.478-5.414.71-8.109L152.1,355.209l-3.811-4.508-13.976,11.812C128.779,367.194,129.345,373.285,133.618,378.341ZM166.249,408.7l0.458,0.372,18.235-22.457-4.289-3.482-7.575,9.33c-1.249,1.539-3,4.3-3,4.3a40.742,40.742,0,0,0-.146-5.17l-2.67-19.659-0.458-.372-18.235,22.457,4.289,3.482,7.575-9.33a50.37,50.37,0,0,0,2.969-4.325,42.66,42.66,0,0,0,.179,5.2Zm9.168,5.847,7.751,4.2c7.787,4.217,16.067,2.034,20.1-5.42s1.3-15.6-6.449-19.8l-7.75-4.2Zm7.662-1.75,8.714-16.094,2.3,1.245c5.6,3.032,6.351,7.755,3.8,12.464s-6.916,6.662-12.516,3.63Zm41.059,22.742,5.721,1.458,5.8-22.761,7.928,2.022,1.282-5.027-21.577-5.5-1.281,5.026,7.927,2.022Zm22.12,4.943,5.888,0.427,0.814-11.229,12.238,0.887-0.814,11.229,5.887,0.427,2.073-28.6-5.887-.426-0.878,12.111-12.238-.887,0.878-12.111-5.888-.427Zm34.25,1.348,19.461-2.051-0.544-5.158-13.588,1.431-0.7-6.626,11.45-1.207-0.53-5.033-11.45,1.207-0.689-6.543,13-1.37-0.544-5.159L277.5,413.307Zm55.265-11.576a13.494,13.494,0,0,0,9.02-10.1l-5.409-1.363c-0.65,2.85-1.97,5.23-5.448,6.523-4.861,1.806-9.566-.808-11.431-5.827s0.019-9.993,4.88-11.8a7.817,7.817,0,0,1,7.828,1.094l3.112-4.575c-3.806-2.859-7.93-3.3-12.791-1.5A14.694,14.694,0,1,0,335.773,430.251Zm30.515-15.1a14.718,14.718,0,1,0-20.363-4.72A14.521,14.521,0,0,0,366.288,415.149Zm-2.77-4.484c-4.449,2.748-9.612,1.129-12.427-3.427s-1.95-9.9,2.5-12.646,9.612-1.13,12.426,3.427S367.967,407.917,363.518,410.665Zm22.345-9.617,4.34-4-6.748-7.317,2.76-2.544,11.026,3.37,4.96-4.575-12.154-3.535a8.44,8.44,0,0,0-1.566-9.972c-4.547-4.93-9.939-3.685-14.249.289l-7.812,7.206Zm-5.781-14.978-5.805-6.293,3.348-3.088c2.077-1.916,4.218-2.456,6.391-.1,2.145,2.325,1.553,4.42-.586,6.393Zm43.235-23.476,0.381-.451-22.112-18.65-3.562,4.223,9.187,7.748c1.515,1.277,4.241,3.081,4.241,3.081a40.712,40.712,0,0,0-5.172.05l-19.7,2.3-0.381.451L408.307,380l3.561-4.222-9.186-7.749a50.338,50.338,0,0,0-4.269-3.048,42.639,42.639,0,0,0,5.2-.083Zm5.9-9.1,9.793-16.942-4.491-2.595-6.838,11.829-5.769-3.334,5.761-9.968-4.381-2.532-5.762,9.967-5.7-3.292,6.543-11.319-4.491-2.6-9.5,16.431Zm13.974-25.751,2.072-5.528-9.319-3.493,1.317-3.514,11.361-1.957,2.368-6.317-12.442,2.317a8.44,8.44,0,0,0-5.889-8.2c-6.279-2.353-10.532,1.187-12.589,6.676l-3.729,9.95Zm-11.906-10.767-8.016-3,1.6-4.264c0.992-2.646,2.66-4.092,5.661-2.968,2.961,1.11,3.376,3.247,2.355,5.972Z" transform="translate(-91.25 -74.125)"/>
  <path id="Ellipse_3_copy_3" data-name="Ellipse 3 copy 3" class="cls-2" d="M96.432,264.446Q96,258.279,96,252a176.391,176.391,0,1,1,348.628,38.227" transform="translate(-91.25 -74.125)"/>
</svg>
