<svg id="_728x90_copy2.svg" data-name="728x90/copy2.svg" xmlns="http://www.w3.org/2000/svg" width="365.126" height="368.25" viewBox="0 0 365.126 368.25">
  <defs>
    <style>
      .cls-1 {
        fill: none;
        stroke: #fff;
        stroke-width: 3px;
      }

      .cls-1, .cls-2 {
        fill-rule: evenodd;
      }

      .cls-2 {
        fill: #fff;
      }
    </style>
  </defs>
  <path id="Ellipse_3_copy_2" data-name="Ellipse 3 copy 2" class="cls-1" d="M883.828,293.858A176.393,176.393,0,1,1,550.684,179.776" transform="translate(-535.812 -56.781)"/>
  <path id="and_through_your_screen." data-name="and through your screen." class="cls-2" d="M894.086,285.672l0.962-4.348-2.693-1.88,1.881-8.5,3.235-.568,1.047-4.735-24.313,5.129-0.086.386Zm-5.165-8.576-3.011-2.119c-1.379-.947-3.523-2.1-3.613-2.15,0.24-.015,2.605-0.167,4.19-0.459l3.624-.651Zm11.973-35.7,0.034-.461-22.58-1.674-0.32,4.312,9.381,0.695c1.547,0.115,4.1.007,4.1,0.007a31.969,31.969,0,0,0-3.257,2.406l-11.435,10.505-0.035.46,22.58,1.674,0.32-4.312-9.381-.695a39.447,39.447,0,0,0-4.106.026,33.3,33.3,0,0,0,3.259-2.439Zm-0.169-8.488-0.486-6.881c-0.488-6.914-5.409-11.464-12.026-11s-10.848,5.7-10.362,12.577l0.486,6.881Zm-4.375-4.324-14.289,1.009-0.144-2.041c-0.351-4.971,2.452-7.452,6.633-7.747s7.305,1.767,7.656,6.738ZM894.89,191.8l-1.2-4.46-17.745,4.79-1.668-6.181-3.919,1.058,4.54,16.821,3.919-1.058-1.668-6.18Zm-5.034-17.038-1.806-4.253-8.11,3.446-3.755-8.838,8.109-3.446-1.806-4.252-20.654,8.776,1.807,4.252,8.747-3.717,3.756,8.838-8.747,3.717,1.806,4.252Zm-11.1-24.412-2.391-3.954-6.665,4.03-1.52-2.514,4.309-7.928-2.733-4.519-4.611,8.767a6.606,6.606,0,0,0-7.892-.358c-4.491,2.715-4.38,7.045-2.006,10.97l4.3,7.118Zm-12.389,2.091-5.734,3.466-1.844-3.05c-1.144-1.892-1.223-3.618.923-4.916,2.118-1.281,3.632-.5,4.811,1.449Zm-7.025-30.9a11.517,11.517,0,1,0-1.429,16.295A11.363,11.363,0,0,0,859.345,121.543Zm-3.171,2.637c2.616,3.147,1.927,7.325-1.3,10s-7.456,2.595-10.073-.551-1.927-7.325,1.3-10.005S853.557,121.034,856.174,124.18Zm-16.238-22.625c-3.834-3.387-8.592-3.933-12.35.322L818.1,112.614l3.464,3.059,9.307-10.539c2.163-2.449,4.032-2.472,6.308-.462,2.3,2.032,2.535,3.912.372,6.361l-9.308,10.539,3.464,3.058,9.482-10.736C844.951,109.638,843.82,104.985,839.936,101.555ZM817.281,84.487a14.593,14.593,0,0,0-8.643-2.506l-5.464,8.412,8.08,5.249,2.211-3.4-4.538-2.948,1.977-3.044a11.072,11.072,0,0,1,4.13,1.7,6.986,6.986,0,0,1,2.2,10.243c-2.283,3.514-6.2,4.705-9.608,2.494a6.211,6.211,0,0,1-3.091-4.448l-4.319.893c0.4,2.778,2.074,5.046,5.145,7.042,5.673,3.685,12.245,2.169,15.858-3.392S823.424,88.478,817.281,84.487ZM803.133,76.41l-4.211-1.9L795.3,82.541l-8.753-3.95,3.624-8.031-4.211-1.9-9.23,20.454,4.211,1.9,3.909-8.663L793.6,86.3l-3.909,8.663,4.211,1.9ZM762.3,61.522L757.759,60.5l-1.882,8.338-10.14,11.955,4.635,1.046,4.306-5.288c1.168-1.428,2.636-3.736,2.636-3.736s0.385,2.793.841,4.52l1.747,6.653,5.054,1.14-4.467-15.59ZM735.75,57A11.521,11.521,0,1,0,746.37,69.45,11.368,11.368,0,0,0,735.75,57Zm-0.344,4.112c4.08,0.341,6.576,3.763,6.227,7.94s-3.379,7.138-7.458,6.8-6.576-3.763-6.227-7.94S731.327,60.773,735.406,61.113Zm-27.518-4.289c-5.1.36-8.828,3.37-8.428,9.032l1.009,14.289,4.609-.326-0.99-14.025c-0.231-3.259,1.064-4.608,4.093-4.822,3.062-.216,4.566.935,4.8,4.194l0.99,14.025,4.61-.326-1.01-14.289C717.167,58.915,713.057,56.459,707.888,56.825Zm-16.832,2.1-4.52.956,1.613,7.618-2.873.608-6.067-6.675-5.165,1.093,6.759,7.237a6.605,6.605,0,0,0-2.934,7.332c1.086,5.133,5.21,6.452,9.7,5.5l8.135-1.721Zm-2.1,12.383,1.386,6.553-3.486.738c-2.163.458-3.818-.035-4.338-2.488-0.512-2.421.724-3.593,2.951-4.064Zm-37.421-1.23c-4.056,1.678-6.2,5.031-4.615,8.874,1.476,3.568,4.176,4.309,8.448,4.363l1.257,0.016c2.158,0.036,3.165.226,3.695,1.507a2.01,2.01,0,0,1-1.286,2.675,3.146,3.146,0,0,1-3.5-.694l-2.441,3.51a6.825,6.825,0,0,0,7.482.905c3.812-1.577,5.242-5.026,3.918-8.228-1.439-3.477-4.163-4.278-7.786-4.315l-1.256-.016c-2.3-.046-3.679-0.086-4.284-1.549-0.5-1.22.257-2.571,2.026-3.3a5.028,5.028,0,0,1,5.281.851l2.644-3.451C658.843,69.272,655.5,68.441,651.534,70.081ZM628.828,81.406a10.56,10.56,0,0,0-5.616,8.987l4.353,0.333a6.4,6.4,0,0,1,3.335-5.754c3.51-2.039,7.486-.647,9.591,2.976s1.312,7.71-2.2,9.749a6.117,6.117,0,0,1-6.183.2l-1.793,3.942c3.315,1.7,6.555,1.5,10.064-.543A11.5,11.5,0,1,0,628.828,81.406Zm-13.746,8.378L611.3,92.442l4.481,6.368-2.4,1.69-8.205-3.747-4.317,3.038,9.062,3.991a6.6,6.6,0,0,0,.19,7.9c3.019,4.29,7.33,3.879,11.08,1.24l6.8-4.785Zm2.945,12.21,3.854,5.477-2.914,2.051c-1.807,1.272-3.523,1.471-4.966-.579-1.425-2.024-.75-3.588,1.112-4.9Zm-22.293,2.095-11.256,10.385,2.753,2.984,7.86-7.252,3.536,3.833L592,120.15l2.686,2.911,6.623-6.11,3.491,3.784-7.52,6.938,2.753,2.984,10.917-10.071Zm-16.483,15.9L569.4,131.72l3.11,2.61,6.876-8.19,3.994,3.353-5.794,6.9,3.034,2.547,5.794-6.9,3.944,3.311-6.58,7.837,3.109,2.61,9.551-11.375Zm-24.169,32.932-0.247.391,19.157,12.064,2.3-3.658-7.959-5.012c-1.312-.827-3.621-1.929-3.621-1.929a31.812,31.812,0,0,0,4-.6l15.024-3.915,0.246-.391-19.156-12.064-2.3,3.658,7.959,5.012a39.354,39.354,0,0,0,3.638,1.9,33.31,33.31,0,0,0-4.021.627Zm-4.6,9.185a2.788,2.788,0,1,0,3.753-1.284A2.753,2.753,0,0,0,550.487,162.107Z" transform="translate(-535.812 -56.781)"/>
</svg>
