<svg id="copy1alt.svg" xmlns="http://www.w3.org/2000/svg" width="355.781" height="371.094" viewBox="0 0 355.781 371.094">
  <defs>
    <style>
      .cls-1 {
        fill: none;
        stroke: #fff;
        stroke-width: 3px;
      }

      .cls-1, .cls-2 {
        fill-rule: evenodd;
      }

      .cls-2 {
        fill: #fff;
      }
    </style>
  </defs>
  <path id="Ellipse_3_copy_3" data-name="Ellipse 3 copy 3" class="cls-1" d="M427.973,194.8a176.412,176.412,0,1,1-311.251-47.165" transform="translate(-82.5 -56.781)"/>
  <path id="A_US_TOP_5_" data-name="A US TOP 5%" class="cls-2" d="M140.6,145.847l4.892-4.677-1.81-4.649,9.566-9.145,4.564,2.018,5.326-5.092-35.03-14.085-0.435.416Zm0.732-15.194-2.009-5.222c-0.94-2.361-2.674-5.626-2.742-5.769,0.315,0.184,3.43,1.991,5.677,2.964l5.126,2.243ZM190.317,108.5c6.936-3.5,10.388-9.9,6.506-17.595l-9.8-19.421-6.264,3.16,9.614,19.063c2.234,4.43,1.212,7.078-2.9,9.155-4.162,2.1-6.944,1.369-9.178-3.062l-9.614-19.063-6.265,3.16,9.795,19.421C176.093,111.013,183.292,112.041,190.317,108.5Zm29.051-11.232c6.425-1.783,10.282-6.443,8.592-12.529-1.568-5.652-5.5-7.265-11.933-8.133l-1.892-.255c-3.247-.452-4.731-0.924-5.294-2.953a3.054,3.054,0,0,1,2.432-3.8c1.932-.536,3.416-0.064,5.152,1.692l4.326-4.843c-3.307-3.3-6.814-3.935-11.113-2.742-6.038,1.676-8.83,6.613-7.422,11.685,1.528,5.507,5.488,7.217,10.943,7.94l1.892,0.255c3.467,0.495,5.53.806,6.174,3.125,0.536,1.932-.862,3.829-3.664,4.606-3.333.925-5.7-.291-7.805-2.256l-4.622,4.716C208.2,97.141,213.089,99.009,219.368,97.266Zm37.268-6.22,7.017-.079L263.336,63.05l9.723-.11-0.07-6.165-26.463.3,0.07,6.165,9.723-.11Zm37.111,3.642A17.495,17.495,0,1,0,280,73.994,17.262,17.262,0,0,0,293.747,94.689Zm1.265-6.137c-6.088-1.254-9.231-6.867-7.946-13.1s6.39-10.147,12.478-8.893,9.23,6.867,7.945,13.1S301.1,89.806,295.012,88.552Zm22.6,12.134,6.378,2.926,4.662-10.159,4.51,2.069c6.287,2.885,12.989,2.1,16.313-5.145s-0.428-12.77-6.761-15.676l-10.888-5Zm13.611-12.837,4.41-9.613,4.328,1.986c3.052,1.4,4.542,3.683,2.953,7.146-1.567,3.417-4.22,3.909-7.363,2.467Zm32.184,40.391c6.034,5.052,12.985,5.184,17.812-.581,4.216-5.035,3.127-11.7-2.561-16.462a10.318,10.318,0,0,0-4.23-2.366l4.119-4.919,11.338,9.493,3.958-4.727L377.818,95.259l-13.1,15.642,0.268,0.617a12.992,12.992,0,0,1,8.561,3.049c3.267,2.735,4.248,5.78,2,8.47-2.059,2.46-5.205,2.7-8.049.322a7.667,7.667,0,0,1-2.888-8.107L358,113.773C356.847,118.43,358.375,124.024,363.409,128.24Zm32.9,8.766A9.176,9.176,0,1,0,398.238,124,9.338,9.338,0,0,0,396.312,137.006Zm-13.733,8.548L386.508,151l40.1-2.663-3.929-5.447Zm15.351,22.051a9.175,9.175,0,1,0,1.925-13.008A9.336,9.336,0,0,0,397.93,167.605Zm2.691-33.707a3.571,3.571,0,0,1,1.107-5.063c1.87-1.348,3.98-1.079,5.153.547a3.553,3.553,0,0,1-1.077,5.1A3.61,3.61,0,0,1,400.621,133.9Zm1.617,30.6a3.571,3.571,0,0,1,1.107-5.063c1.87-1.349,3.98-1.079,5.153.547a3.552,3.552,0,0,1-1.077,5.1A3.609,3.609,0,0,1,402.238,164.5Z" transform="translate(-82.5 -56.781)"/>
</svg>
