<svg id="copy2alt.svg" xmlns="http://www.w3.org/2000/svg" width="360.281" height="364.906" viewBox="0 0 360.281 364.906">
  <defs>
    <style>
      .cls-1 {
        fill: none;
        stroke: #fff;
        stroke-width: 3px;
      }

      .cls-1, .cls-2 {
        fill-rule: evenodd;
      }

      .cls-2 {
        fill: #fff;
      }
    </style>
  </defs>
  <path id="Ellipse_3_copy_2" data-name="Ellipse 3 copy 2" class="cls-1" d="M517,250a176.391,176.391,0,1,1,348.427,39.123" transform="translate(-511 -72.125)"/>
  <path id="bariatric_program" data-name="bariatric program" class="cls-2" d="M511.006,270.252l1.366,11.517c0.7,5.864,4.615,8.839,9.264,8.287,3.979-.471,5.768-2.935,6.208-6.384a5.86,5.86,0,0,0,6.338,3.665c4.314-.512,7.275-3.836,6.59-9.615l-1.287-10.848Zm5.847,5.252,7.078-.839,0.6,5.067c0.288,2.43-.958,4.106-3.052,4.355a3.421,3.421,0,0,1-3.987-3.18Zm12.061-1.43,6.115-.725,0.542,4.565c0.273,2.3-.734,3.484-2.66,3.713s-3.207-.894-3.49-3.281Zm-14.187,23.812,1.645,5.45,4.176,0.413,3.216,10.657-3.25,2.655L522.3,323l23.9-20.911-0.146-.485Zm11.117,6.335,4.682,0.481c2.129,0.194,5.238.137,5.372,0.141-0.258.166-2.8,1.814-4.385,3.129l-3.634,2.99Zm0.064,27.03L528.6,336.5l8.856-4.543,1.713,3.339-6.2,9.722,3.08,6,6.659-10.764a8.442,8.442,0,0,0,10.028,1.159c5.966-3.061,6.21-8.59,3.534-13.806l-4.851-9.456Zm15.978-1.562,7.618-3.908,2.079,4.052c1.29,2.514,1.237,4.721-1.614,6.185-2.815,1.444-4.675.312-6-2.277Zm-0.409,29.133,3.387,4.836,23.485-16.452-3.387-4.835Zm8.544,12.326,3.9,4.151,3.926-1.486,7.62,8.118-1.732,3.824,4.242,4.52,12.12-29.363-0.347-.369Zm12.777,0.733,4.408-1.65c1.994-.773,4.755-2.207,4.876-2.263-0.158.264-1.7,2.87-2.538,4.753l-1.926,4.3Zm14.2,25.55,4.66,3.625,14.42-18.54,6.458,5.023,3.184-4.095-17.575-13.669-3.184,4.094,6.457,5.022Zm19.086,13.707,5.213,2.769,4.669-8.788,3.314,1.76,0.47,11.518,5.959,3.165-0.689-12.636a8.439,8.439,0,0,0,8.889-4.779c3.146-5.921.186-10.6-4.99-13.346l-9.384-4.985ZM608.3,400.725l4.015-7.56,4.022,2.137c2.5,1.325,3.714,3.166,2.21,6-1.483,2.793-3.656,2.928-6.225,1.563Zm16.325,24.16,5.541,2.039,9.9-26.914-5.541-2.039Zm29.518,8.93a13.492,13.492,0,0,0,13.01-3.765l-3.859-4.029c-2.066,2.07-4.448,3.385-8.082,2.633-5.079-1.053-7.676-5.768-6.59-11.012s5.326-8.457,10.4-7.4a7.818,7.818,0,0,1,6.052,5.086l5.068-2.223c-1.706-4.444-4.963-7.014-10.042-8.066A14.7,14.7,0,1,0,654.14,433.815Zm35.674,3.213,5.892-.369-0.589-9.387,4.167-.261c5.809-.365,10.464-3.615,10.044-10.307s-5.4-9.3-11.251-8.929l-10.06.632Zm4.978-14.933-0.557-8.881,4-.251c2.82-.177,4.833.922,5.034,4.121,0.2,3.157-1.572,4.578-4.476,4.76Zm25.3,12.111,5.738-1.386-2.337-9.674,3.648-.881,7.994,8.306,6.558-1.584-8.9-9a8.44,8.44,0,0,0,3.481-9.474c-1.575-6.517-6.891-8.052-12.589-6.675l-10.328,2.5Zm2.232-15.9-2.01-8.321,4.427-1.069c2.746-.664,4.879-0.1,5.632,3.02,0.742,3.074-.794,4.617-3.622,5.3Zm40.885,2.359a14.719,14.719,0,1,0-19.648-7.136A14.523,14.523,0,0,0,763.209,420.669ZM761,415.883c-4.747,2.193-9.678-.035-11.924-4.9s-0.746-10.061,4-12.254,9.679,0.035,11.925,4.9S765.746,413.69,761,415.883Zm36.567-14.81a18.643,18.643,0,0,0,7.315-8.874l-7.105-10.672-10.251,6.825,2.875,4.318,5.757-3.833,2.571,3.861a14.155,14.155,0,0,1-4.084,3.987c-5.02,3.342-10.166,1.854-13.135-2.6s-2.38-9.664,1.938-12.539a7.943,7.943,0,0,1,6.785-1.376l1.138-5.52c-3.462-.938-6.972-0.121-10.869,2.473-7.2,4.792-8.745,13.272-4.047,20.328S789.771,406.262,797.565,401.073Zm17.065-13.345,4.2-4.145-6.986-7.087,2.672-2.634,11.13,3,4.805-4.736L818.193,369a8.439,8.439,0,0,0-1.9-9.913c-4.706-4.774-10.054-3.352-14.228.763l-7.567,7.459Zm-6.275-14.775-6.009-6.1,3.243-3.2c2.012-1.983,4.133-2.594,6.383-.312,2.22,2.252,1.7,4.365-.374,6.408Zm26.776-6.188,3.27-4.661-2.257-3.541,6.394-9.115,4.1,0.916,3.56-5.076-31.219-5.876-0.291.414Zm-1.888-12.658-2.516-3.979c-1.162-1.795-3.13-4.2-3.209-4.312,0.29,0.1,3.157,1.081,5.171,1.515l4.6,1.009Zm21.468-16.614,2.25-5.184-9.866-4.281c-1.779-.772-4.687-1.8-4.687-1.8a50.571,50.571,0,0,0,4.939-1.213l8.108-2.688,0.218-.5-3.575-7.758a50.772,50.772,0,0,0-2.489-4.436s2.741,1.419,4.52,2.192L864,316.1l2.266-5.223-26.579-11.533-0.2.465,8.7,18.945-19.861,6.782-0.184.426Z" transform="translate(-511 -72.125)"/>
</svg>
