<svg id="CIRCLE_copy_2" data-name="CIRCLE copy 2" xmlns="http://www.w3.org/2000/svg" width="355.781" height="364.687" viewBox="0 0 355.781 364.687">
  <defs>
    <style>
      .cls-1 {
        fill: none;
        stroke: #fff;
        stroke-width: 3px;
      }

      .cls-1, .cls-2 {
        fill-rule: evenodd;
      }

      .cls-2 {
        fill: #fff;
      }
    </style>
  </defs>
  <path id="Ellipse_3_copy_2" data-name="Ellipse 3 copy 2" class="cls-1" d="M541.35,341.157a176.406,176.406,0,1,1,277.935,31.364" transform="translate(-514.5 -72.094)"/>
  <path id="WEIGHT_LOSS" data-name="WEIGHT LOSS" class="cls-2" d="M543.58,362.623l0.365,0.464,15.011-3.306c1.668-.4,4.2-1.276,4.328-1.322-0.146.223-1.569,2.367-2.317,3.871l-6.86,13.632,0.366,0.464,29.159-9.746-3.553-4.5-11.6,3.888c-1.967.639-4.853,1.95-5.012,2.022a37.184,37.184,0,0,0,2.974-4.6l5.761-11.691-0.366-.463-12.657,2.953a33.358,33.358,0,0,0-5.169,1.823c0.18-.249,2.06-2.7,3.131-4.405l6.45-10.409-3.866-4.9Zm24.609,27.545L583.3,402.6l3.3-4.006-10.551-8.68,4.233-5.145,8.89,7.313,3.215-3.908-8.89-7.313,4.179-5.081,10.095,8.305,3.3-4-14.654-12.056Zm24.057,18.256,5.017,3.111,15.113-24.37-5.018-3.112Zm27.848,15.037a18.643,18.643,0,0,0,11.428,1.3l5.074-11.774-11.31-4.874-2.053,4.764,6.352,2.737-1.836,4.261a14.155,14.155,0,0,1-5.568-1.251c-5.539-2.387-7.1-7.513-4.977-12.432s6.8-7.263,11.568-5.211a7.946,7.946,0,0,1,4.853,4.939l5.248-2.056c-1.1-3.413-3.7-5.91-8-7.763-7.94-3.421-15.894-.1-19.248,7.688S611.5,419.756,620.094,423.461Zm20.466,7.14,5.78,1.207,2.3-11.022,12.013,2.507-2.3,11.022,5.78,1.206,5.858-28.071-5.779-1.206-2.481,11.889-12.013-2.507,2.481-11.889-5.779-1.206Zm41.154,6.07,5.9,0.123,0.49-23.478,8.178,0.171,0.108-5.185-22.256-.465-0.108,5.184,8.177,0.171Zm37.751-2.43,18.415-4.223-1.159-5.056-12.661,2.9-5.251-22.895-5.755,1.32Zm39.224-11.562a14.718,14.718,0,1,0-19.444-7.674A14.523,14.523,0,0,0,758.689,422.679Zm-2.078-4.844c-4.806,2.061-9.674-.3-11.785-5.224s-0.468-10.078,4.338-12.139,9.673,0.3,11.785,5.224S761.417,415.773,756.611,417.835Zm31.233-10.592c4.827-2.858,6.937-7.49,4.229-12.063-2.514-4.247-6.064-4.694-11.479-3.988L779,391.4c-2.737.346-4.046,0.288-4.948-1.237a2.568,2.568,0,0,1,1.142-3.617c1.452-.86,2.761-0.8,4.556.243l2.452-4.883c-3.411-1.951-6.4-1.7-9.63.212-4.537,2.686-5.721,7.309-3.465,11.12,2.45,4.137,6.043,4.657,10.633,4.048l1.592-.208c2.925-.359,4.669-0.559,5.7,1.183,0.86,1.452.14,3.3-1.965,4.546-2.5,1.483-4.694,1.014-6.836-.119l-2.719,4.845C778.744,409.592,783.125,410.037,787.844,407.243Zm22.7-15.933c4.326-3.571,5.693-8.473,2.31-12.571-3.141-3.8-6.716-3.7-11.955-2.161l-1.541.452c-2.649.765-3.951,0.91-5.079-.456a2.569,2.569,0,0,1,.569-3.75c1.3-1.073,2.6-1.219,4.537-.465l1.666-5.2c-3.671-1.4-6.584-.69-9.479,1.7-4.065,3.356-4.519,8.1-1.7,11.52,3.06,3.707,6.689,3.665,11.128,2.352l1.541-.452c2.833-.808,4.525-1.275,5.814.286,1.074,1.3.649,3.237-1.237,4.794-2.244,1.853-4.479,1.729-6.77.941l-1.936,5.207C801.922,395.038,806.319,394.8,810.546,391.31Z" transform="translate(-514.5 -72.094)"/>
</svg>
