<svg xmlns="http://www.w3.org/2000/svg" width="363.906" height="367.937" viewBox="0 0 363.906 367.937">
  <defs>
    <style>
      .cls-1 {
        fill: none;
        stroke: #fff;
        stroke-width: 3px;
      }

      .cls-1, .cls-2 {
        fill-rule: evenodd;
      }

      .cls-2 {
        fill: #fff;
      }
    </style>
  </defs>
  <path id="Ellipse_3_copy_15" data-name="Ellipse 3 copy 15" class="cls-1" d="M436.425,240.691q0.354,5.609.356,11.309a176.391,176.391,0,1,1-346.6-46.448" transform="translate(-82.5 -61.969)"/>
  <path id="A_NATIONAL_TOP_5_" data-name="A NATIONAL TOP 5%" class="cls-2" d="M109.678,191.157l2.727-5-2.637-3.266,5.334-9.772,4.173,0.452,2.97-5.442-31.677-2.348-0.243.445Zm-3.292-12.367-2.944-3.672c-1.356-1.653-3.58-3.828-3.671-3.926,0.3,0.068,3.258.721,5.308,0.927l4.681,0.49Zm40.631-39.349,0.4-.431-21.14-19.75-3.772,4.037,8.783,8.205c1.448,1.353,4.08,3.293,4.08,3.293a40.671,40.671,0,0,0-5.169-.212l-19.8,1.3-0.4.431,21.14,19.749,3.772-4.037-8.783-8.205a50.575,50.575,0,0,0-4.109-3.261,42.528,42.528,0,0,0,5.2.181Zm3.618-3.926,4.4-3.612-1.223-4.015,8.6-7.064,3.7,1.982,4.791-3.933-28.491-14.038-0.391.321Zm1.579-12.7-1.355-4.508c-0.638-2.04-1.886-4.889-1.934-5.014,0.253,0.175,2.751,1.889,4.574,2.847l4.158,2.206Zm25.077-7.529,5.063-3.037L170.271,92.107l7.016-4.208-2.668-4.448L155.524,94.9l2.668,4.448,7.016-4.208Zm17.041-9.27,5.394-2.4-11.664-26.2-5.393,2.4Zm25.111-8.848A14.718,14.718,0,1,0,201.2,86.957,14.522,14.522,0,0,0,219.443,97.17Zm-1.41-5.079c-5.038,1.4-9.545-1.6-10.977-6.757s0.887-10.049,5.926-11.447,9.546,1.6,10.978,6.757S223.072,90.693,218.033,92.091Zm44.47-1.234,0.589-.039-1.935-28.858-5.51.369,0.8,11.989c0.133,1.977.728,5.191,0.728,5.191a40.813,40.813,0,0,0-3.627-3.687L238.214,63.243l-0.589.04,1.934,28.858,5.511-.369-0.8-11.989a50.457,50.457,0,0,0-.77-5.188,42.549,42.549,0,0,0,3.67,3.684Zm5.355-.293,5.653,0.683,2.056-3.66,11.054,1.335,1.126,4.044,6.155,0.743-9.553-30.3-0.5-.061Zm10.269-7.639,2.321-4.1c1.033-1.872,2.23-4.744,2.287-4.864,0.048,0.3.537,3.294,1.1,5.274l1.279,4.53ZM298.505,95.03l18.109,5.384,1.478-4.972-12.45-3.7,6.694-22.515-5.659-1.682Zm38.367,14.789,5.156,2.877,11.446-20.512,7.144,3.987,2.528-4.53L343.7,80.791l-2.527,4.53,7.144,3.987Zm25.856,17.767a14.716,14.716,0,1,0-2.117-20.793A14.52,14.52,0,0,0,362.728,127.586Zm3.348-4.071c-4.039-3.321-4.177-8.729-.775-12.866s8.735-5.045,12.773-1.724,4.176,8.73.775,12.866S370.114,126.836,366.076,123.515Zm12.215,17.753,3.759,4.552,7.251-5.986,2.658,3.219c3.7,4.488,9.068,6.348,14.238,2.08s4.354-9.828.623-14.348l-6.416-7.772Zm15.01-4.736,6.861-5.664,2.551,3.089c1.8,2.179,2.09,4.453-.381,6.493-2.439,2.014-4.628,1.415-6.481-.829Zm10.183,42.04c2.964,5.92,8.284,8.35,13.941,5.518,4.94-2.474,6.332-7.982,3.538-13.563a8.676,8.676,0,0,0-2.473-3.242l4.827-2.417,5.57,11.124,4.639-2.322-7.874-15.725L410.3,165.63V166.2a10.929,10.929,0,0,1,5.586,5.221c1.605,3.205,1.342,5.883-1.3,7.205-2.414,1.209-4.923.342-6.32-2.448a6.45,6.45,0,0,1,.486-7.224l-4.6-3.354C401.705,168.8,401.01,173.632,403.484,178.572ZM426.031,195.7a7.72,7.72,0,1,0,5.442-9.633A7.856,7.856,0,0,0,426.031,195.7Zm-13.367,2.562,1.44,5.465,32.3,10.023-1.44-5.464Zm5.392,21.954a7.72,7.72,0,1,0,5.442-9.633A7.856,7.856,0,0,0,418.056,220.213Zm12.3-25.656a3,3,0,0,1,2.4-3.641,2.946,2.946,0,1,1,1.494,5.668A3.036,3.036,0,0,1,430.353,194.557Zm-7.974,24.517a3,3,0,0,1,2.4-3.641,2.958,2.958,0,0,1,3.882,1.986,2.99,2.99,0,0,1-2.388,3.682A3.037,3.037,0,0,1,422.379,219.074Z" transform="translate(-82.5 -61.969)"/>
</svg>
