<svg id="copy2.svg" xmlns="http://www.w3.org/2000/svg" width="372.281" height="365.906" viewBox="0 0 372.281 365.906">
  <defs>
    <style>
      .cls-1 {
        fill: none;
        stroke: #fff;
        stroke-width: 3px;
      }

      .cls-1, .cls-2 {
        fill-rule: evenodd;
      }

      .cls-2 {
        fill: #fff;
      }
    </style>
  </defs>
  <path id="Ellipse_3_copy_16" data-name="Ellipse 3 copy 16" class="cls-1" d="M895.505,259.956a176.4,176.4,0,1,1-350.476-36.8" transform="translate(-534.469 -62)"/>
  <path id="WITH_FAMILIAR_FACES." data-name="WITH FAMILIAR FACES." class="cls-2" d="M565.207,199.915l0.238-.541-9.956-11.708c-1.139-1.285-3.1-3.115-3.2-3.2a44.921,44.921,0,0,0,4.5.233l15.257-.331,0.237-.54-22.275-21.187-2.311,5.248,8.87,8.42c1.486,1.438,4,3.373,4.135,3.479a37.188,37.188,0,0,0-5.46-.469l-13.026.392-0.238.54,8.54,9.8a33.445,33.445,0,0,0,4.033,3.71c-0.3-.041-3.35-0.553-5.358-0.7l-12.217-.819-2.515,5.711Zm14.619-29.392,3.256-4.926L559.157,149.78l-3.257,4.926Zm11.336-15.652L595,150.382l-17.86-15.258,5.314-6.221-3.944-3.369-14.463,16.93,3.944,3.369,5.314-6.22Zm13.076-14.181,4.362-3.979-7.588-8.318,9.066-8.27,7.588,8.318,4.362-3.978L602.7,103.277l-4.362,3.978,8.184,8.973-9.066,8.27-8.185-8.973-4.362,3.979Zm31.895-25.808,5.178-2.838-5.168-9.432,10.023-5.492L643.633,92.5l-10.024,5.492-3.587-6.547,11.022-6.04-2.493-4.55-16.2,8.877Zm17.012-9.524,5.343-1.963,0.166-4.194,10.449-3.84,2.842,3.088,5.818-2.138L655.476,73.684,655,73.859Zm5.667-11.471,0.2-4.7c0.068-2.136-.173-5.237-0.177-5.371,0.181,0.248,1.976,2.688,3.383,4.193l3.2,3.451Zm23.571,1.088,5.587-.845L686.361,83.5c-0.29-1.918-.959-4.93-0.959-4.93a50.656,50.656,0,0,0,3.649,3.542l6.581,5.444,0.542-.082,4.676-7.147a50.651,50.651,0,0,0,2.438-4.463s0.252,3.075.542,4.993l1.609,10.631,5.628-.852-4.334-28.642-0.5.076L694.8,79.493,678.508,66.264l-0.459.069ZM718.1,91.009l5.9,0.02,0.1-28.678-5.905-.02Zm12.842,0.105,18.753,2.3,0.63-5.148-12.892-1.578,2.854-23.315-5.86-.718Zm24.338,3.746,5.735,1.406,6.83-27.852-5.734-1.406ZM765.8,97.082l5.3,2.068,2.9-3.032,10.372,4.045,0.083,4.2,5.775,2.252L788.526,74.9l-0.472-.184Zm11.844-4.84,3.267-3.388c1.467-1.555,3.34-4.038,3.426-4.141-0.029.306-.3,3.323-0.244,5.381L784.2,94.8Zm16.766,16.717,5.045,3.069,5.174-8.505,3.207,1.952L807.634,117l5.765,3.507,0.049-12.658A8.443,8.443,0,0,0,822.6,103.6c3.486-5.729.8-10.57-4.206-13.617l-9.081-5.524Zm12.805-9.688,4.451-7.315,3.891,2.367c2.415,1.469,3.524,3.378,1.858,6.117-1.644,2.7-3.821,2.711-6.308,1.2Zm18.122,30.949,4.225,4.125,7.513-7.7,8.179,7.985,3.683-3.773-8.179-7.985,5.215-5.341,8.994,8.78,3.624-3.712-13.219-12.9ZM839.4,143.707l3.431,4.544,4.063-1.058,6.708,8.886L851.47,159.7l3.735,4.949,15.189-27.9-0.3-.4Zm12.626,2.095,4.56-1.17c2.065-.555,4.963-1.686,5.089-1.728-0.184.245-2,2.671-3.031,4.454l-2.374,4.065Zm10.26,33.239a13.5,13.5,0,0,0,11.1,7.765l0.714-5.535c-2.908-.308-5.428-1.337-7.123-4.638-2.37-4.615-.33-9.6,4.435-12.045s9.928-1.163,12.3,3.451a7.822,7.822,0,0,1-.16,7.906l4.913,2.55c2.388-4.119,2.344-8.269-.026-12.883A14.7,14.7,0,1,0,862.285,179.041Zm7.447,15.509,5.717,18.716,4.962-1.515-3.992-13.07,6.373-1.947,3.364,11.013,4.84-1.479-3.363-11.012,6.292-1.922,3.82,12.5,4.962-1.515-5.545-18.152Zm7.8,33.381c0.787,5.553,4.254,9.278,9.515,8.532,4.885-.693,6.659-3.8,8.084-9.069l0.419-1.55c0.73-2.659,1.285-3.845,3.039-4.094a2.569,2.569,0,0,1,2.9,2.442c0.237,1.67-.319,2.856-1.972,4.113l3.568,4.136c3.109-2.4,4.024-5.255,3.5-8.971-0.74-5.219-4.554-8.085-8.937-7.463-4.76.675-6.618,3.792-7.815,8.263l-0.419,1.55c-0.79,2.838-1.275,4.525-3.279,4.81-1.67.236-3.1-1.137-3.443-3.558-0.409-2.881.863-4.722,2.731-6.265l-3.43-4.369C878.851,218.63,876.76,222.5,877.53,227.931Zm1.636,17.621a3.564,3.564,0,1,0,3.476-3.69A3.519,3.519,0,0,0,879.166,245.552Z" transform="translate(-534.469 -62)"/>
</svg>
