<svg id="copy1.svg" xmlns="http://www.w3.org/2000/svg" width="355.781" height="365.562" viewBox="0 0 355.781 365.562">
  <defs>
    <style>
      .cls-1 {
        fill: none;
        stroke: #fff;
        stroke-width: 3px;
      }

      .cls-1, .cls-2 {
        fill-rule: evenodd;
      }

      .cls-2 {
        fill: #fff;
      }
    </style>
  </defs>
  <path id="Ellipse_3_copy_17" data-name="Ellipse 3 copy 17" class="cls-1" d="M423.836,178.835a176.414,176.414,0,1,1-297.16-41.515" transform="translate(-84.5 -62.344)"/>
  <path id="VIRTUAL_CARE" data-name="VIRTUAL CARE" class="cls-2" d="M158.058,129.524l0.449-.383-9.236-30.153-4.36,3.725,3.522,11.521a51.418,51.418,0,0,0,2.55,6.361c-0.342-.206-3.641-2.379-5.916-3.485l-10.927-5.194-4.808,4.108Zm14.129-11.1,4.953-3.212-15.6-24.057-4.953,3.212Zm10.78-7.012,5.32-2.559-4.314-8.969,3.382-1.627,9.559,6.446L203,101.777l-10.589-6.933a8.441,8.441,0,0,0,1.416-9.994c-2.906-6.043-8.427-6.429-13.709-3.888l-9.577,4.607ZM181.816,95.4l-3.711-7.715,4.1-1.974c2.546-1.225,4.752-1.116,6.141,1.773,1.371,2.85.192,4.681-2.43,5.942Zm31.767,3.082,5.664-1.667-6.632-22.534,7.849-2.31L219,66.993,197.638,73.28l1.464,4.976,7.849-2.31Zm30.135-5.959c6.5-.732,11.092-4.773,10.279-11.982l-2.05-18.19-5.868.661,2.013,17.855c0.467,4.149-1.113,5.94-4.969,6.375-3.9.439-5.88-.95-6.348-5.1l-2.012-17.855-5.868.661,2.05,18.19C231.758,90.347,237.138,93.264,243.718,92.522Zm14.4-1.883,5.683,0.35,1.838-3.774L276.748,87.9l1.362,3.971,6.188,0.381L272.983,62.567l-0.506-.031Zm9.8-8.228,2.077-4.225c0.922-1.929,1.948-4.866,2-4.99,0.066,0.3.729,3.256,1.412,5.2l1.543,4.447ZM288.961,93.3l18.4,4.317,1.185-5.051L295.9,89.6l5.367-22.872-5.749-1.349Zm45.483,16.1a13.5,13.5,0,0,0,13.541-.235l-2.672-4.9c-2.535,1.458-5.178,2.1-8.489.43-4.628-2.343-5.9-7.573-3.484-12.352s7.35-6.772,11.978-4.429a7.817,7.817,0,0,1,4.513,6.491l5.473-.822c-0.486-4.736-2.959-8.067-7.586-10.41A14.7,14.7,0,1,0,334.444,109.4Zm12.475,6.123,4.543,3.432,3.618-2.13,8.883,6.711L362.9,127.6l4.947,3.736,6.972-30.989-0.4-.3Zm12.716-1.44,4.065-2.373c1.834-1.1,4.312-2.979,4.422-3.055-0.111.287-1.192,3.117-1.7,5.114l-1.171,4.559Zm11.586,20.646,4.007,4.337,7.309-6.754,2.547,2.757-3.36,11.028,4.578,4.956,3.525-12.156a8.441,8.441,0,0,0,9.97-1.575c4.925-4.55,3.676-9.942-.3-14.247l-7.212-7.8Zm14.971-5.794,6.288-5.809,3.091,3.345c1.917,2.075,2.459,4.216.1,6.39-2.323,2.147-4.418,1.557-6.393-.581Zm3.122,26.315L400,171.641l4.345-2.834-7.464-11.446,5.582-3.64,6.289,9.644,4.239-2.764-6.289-9.644,5.511-3.594,7.142,10.951,4.345-2.834-10.367-15.9Z" transform="translate(-84.5 -62.344)"/>
</svg>
