<?xml version="1.0" encoding="utf-8"?>
<!-- Generator: Adobe Illustrator 22.1.0, SVG Export Plug-In . SVG Version: 6.00 Build 0)  -->
<svg version="1.1" id="Layer_1" xmlns="http://www.w3.org/2000/svg" xmlns:xlink="http://www.w3.org/1999/xlink" x="0px" y="0px"
	 viewBox="0 0 150.5 150.5" style="enable-background:new 0 0 150.5 150.5;" xml:space="preserve">
<style type="text/css">
	.st0{fill:#3EAD48;}
	.st1{fill:#7BD93A;}
	.st2{fill:#FFFFFF;}
</style>
<title>cta</title>
<g id="Layer_2_1_">
	<g id="Layer_1-2">
		<path class="st0" d="M18.2,0.8h114c9.7,0,17.5,7.8,17.5,17.5l0,0c0,9.7-7.8,17.5-17.5,17.5h-114c-9.7,0-17.5-7.8-17.5-17.5l0,0
			C0.8,8.6,8.6,0.8,18.2,0.8z"/>
		<path class="st1" d="M18.2,36.5C8.2,36.5,0,28.3,0,18.2S8.2,0,18.2,0h114c10.1,0,18.2,8.2,18.2,18.2s-8.2,18.2-18.2,18.2H18.2z
			 M18.2,1.5C9,1.5,1.5,9,1.5,18.2S9,35,18.2,35h114c9.3,0,16.8-7.5,16.8-16.8s-7.5-16.8-16.8-16.8H18.2z"/>
		<path class="st2" d="M32.9,21.4h5.6v2.1h-8.2V10.7h2.6V21.4z"/>
		<path class="st2" d="M44.2,23.7c-1.3,0.1-2.5-0.4-3.4-1.3c-0.9-0.9-1.4-2.1-1.3-3.4v-0.2c0-0.9,0.2-1.8,0.5-2.6
			c0.3-0.7,0.9-1.3,1.6-1.7c0.7-0.4,1.5-0.6,2.3-0.6c1.2-0.1,2.3,0.4,3.1,1.2c0.8,1,1.2,2.2,1.1,3.5v1H42c0.1,0.6,0.3,1.1,0.8,1.5
			c0.4,0.4,1,0.6,1.6,0.6c0.9,0,1.8-0.4,2.3-1.1l1.3,1.4c-0.4,0.6-0.9,1-1.5,1.3C45.7,23.6,44.9,23.7,44.2,23.7z M43.9,15.9
			c-0.5,0-0.9,0.2-1.2,0.5c-0.3,0.4-0.6,0.9-0.6,1.5h3.5v-0.2c0-0.5-0.1-0.9-0.5-1.3C44.8,16,44.4,15.8,43.9,15.9z"/>
		<path class="st2" d="M55,23.5c-0.1-0.3-0.2-0.6-0.2-0.9c-0.6,0.7-1.5,1-2.4,1c-0.8,0-1.7-0.3-2.3-0.8c-0.6-0.5-0.9-1.2-0.9-2
			c0-0.9,0.4-1.8,1.1-2.3c1-0.6,2.1-0.9,3.2-0.8h1.2v-0.5c0-0.4-0.1-0.8-0.3-1.1c-0.3-0.3-0.7-0.4-1.1-0.4c-0.4,0-0.7,0.1-1,0.3
			c-0.3,0.2-0.4,0.5-0.4,0.8h-2.5c0-0.6,0.2-1.1,0.5-1.5c0.4-0.5,0.9-0.9,1.4-1.1c0.7-0.3,1.4-0.4,2.1-0.4c1-0.1,2,0.3,2.8,0.9
			c0.7,0.6,1.1,1.5,1,2.5v4.1c0,0.7,0.1,1.4,0.4,2v0.1L55,23.5z M53,21.8c0.3,0,0.7-0.1,1-0.2c0.3-0.2,0.5-0.4,0.7-0.7v-1.6h-1
			c-1.3,0-2,0.4-2,1.3v0.1c0,0.3,0.1,0.6,0.3,0.8C52.3,21.7,52.7,21.8,53,21.8z"/>
		<path class="st2" d="M64.5,16.4c-0.3,0-0.6-0.1-0.9-0.1c-0.8-0.1-1.5,0.3-1.9,1v6.2h-2.5V14h2.4l0.1,1.1c0.4-0.8,1.2-1.3,2.1-1.3
			c0.3,0,0.5,0,0.8,0.1L64.5,16.4z"/>
		<path class="st2" d="M68.1,14l0.1,1.1c0.7-0.8,1.7-1.3,2.7-1.3c0.8-0.1,1.7,0.3,2.2,0.9c0.5,0.8,0.8,1.7,0.8,2.7v6.1h-2.5v-6.1
			c0-0.4-0.1-0.8-0.4-1.2c-0.3-0.3-0.7-0.4-1.2-0.4c-0.7,0-1.3,0.3-1.6,0.9v6.7h-2.5V14H68.1z"/>
		<path class="st2" d="M83.9,10.7l3.3,9.3l3.3-9.3H94v12.8h-2.7V20l0.3-6l-3.4,9.5h-1.8L82.9,14l0.3,6v3.5h-2.6V10.7H83.9z"/>
		<path class="st2" d="M95.7,18.7c0-0.9,0.2-1.7,0.6-2.5c0.3-0.7,0.9-1.3,1.6-1.7c0.7-0.4,1.5-0.6,2.4-0.6c1.2,0,2.3,0.4,3.1,1.2
			c0.8,0.9,1.3,2,1.4,3.2v0.6c0.1,1.3-0.4,2.5-1.2,3.5c-1.8,1.8-4.7,1.8-6.6,0c-0.9-1-1.3-2.3-1.2-3.6L95.7,18.7z M98.2,18.9
			c0,0.7,0.1,1.4,0.5,2.1c0.6,0.8,1.8,1,2.6,0.3c0.1-0.1,0.2-0.2,0.3-0.3c0.4-0.7,0.6-1.5,0.5-2.3c0-0.7-0.1-1.5-0.5-2.1
			c-0.3-0.5-0.9-0.8-1.5-0.7c-0.6,0-1.1,0.3-1.4,0.7C98.4,17.3,98.2,18.1,98.2,18.9z"/>
		<path class="st2" d="M111.6,16.4c-0.3,0-0.6-0.1-0.9-0.1c-0.8-0.1-1.5,0.3-1.9,1v6.2h-2.5V14h2.4l0.1,1.1c0.4-0.8,1.2-1.3,2.1-1.3
			c0.3,0,0.5,0,0.8,0.1L111.6,16.4z"/>
		<path class="st2" d="M117,23.7c-1.3,0-2.5-0.4-3.4-1.3c-0.9-0.9-1.3-2.1-1.3-3.4v-0.2c0-0.9,0.2-1.8,0.6-2.6
			c0.3-0.7,0.9-1.3,1.6-1.7c0.7-0.4,1.5-0.6,2.3-0.6c1.2-0.1,2.3,0.4,3.1,1.2c0.8,1,1.2,2.2,1.2,3.5v1h-6c0.1,0.6,0.3,1.1,0.7,1.5
			c0.4,0.4,1,0.6,1.6,0.6c0.9,0,1.7-0.4,2.3-1.1l1.2,1.5c-0.4,0.6-0.9,1-1.6,1.3C118.5,23.6,117.8,23.7,117,23.7z M116.7,15.9
			c-0.5,0-0.9,0.2-1.2,0.5c-0.3,0.4-0.6,0.9-0.6,1.5h3.5v-0.2c0-0.5-0.2-0.9-0.5-1.3C117.6,16,117.2,15.9,116.7,15.9L116.7,15.9z"/>
	</g>
</g>
</svg>
