<svg xmlns="http://www.w3.org/2000/svg" viewBox="0 0 386.26 61.74"><defs><style>.cls-1{fill:#fff;}</style></defs><title>smartlogo</title><g id="Layer_2" data-name="Layer 2"><g id="Layer_1-2" data-name="Layer 1"><path class="cls-1" d="M84.7,27.67a9.45,9.45,0,0,0-2.76-2.31,8.09,8.09,0,0,0-4-.93,7.74,7.74,0,0,0-3.88.93,3,3,0,0,0-1.65,2.73,3.07,3.07,0,0,0,1,2.34,7.21,7.21,0,0,0,2.24,1.45,12.83,12.83,0,0,0,2.76.83l2.52.48a30.57,30.57,0,0,1,3.82,1.18,10.66,10.66,0,0,1,3.08,1.79,7.94,7.94,0,0,1,2,2.69,9.18,9.18,0,0,1,.74,3.87,9,9,0,0,1-1.19,4.73,10,10,0,0,1-3.09,3.2,13,13,0,0,1-4.3,1.8,21.65,21.65,0,0,1-4.87.55,19.4,19.4,0,0,1-7.24-1.24,13,13,0,0,1-5.57-4.56L69,43.34A19.67,19.67,0,0,0,72.45,46a8.62,8.62,0,0,0,4.62,1.17A12.56,12.56,0,0,0,79.49,47a7.41,7.41,0,0,0,2.17-.76,4.69,4.69,0,0,0,1.54-1.31,3,3,0,0,0,.59-1.83,3.11,3.11,0,0,0-.87-2.27,6.55,6.55,0,0,0-2.1-1.42,16.33,16.33,0,0,0-2.59-.83c-.91-.2-1.72-.38-2.42-.51-1.35-.33-2.63-.69-3.85-1.11a11.64,11.64,0,0,1-3.22-1.65,7.72,7.72,0,0,1-2.24-2.63,8.34,8.34,0,0,1-.84-3.93,8.74,8.74,0,0,1,1.09-4.45,9.49,9.49,0,0,1,2.87-3.14,13.14,13.14,0,0,1,4.06-1.87,17.43,17.43,0,0,1,4.58-.62,17,17,0,0,1,6.44,1.25A10.1,10.1,0,0,1,89.61,24Z"/><path class="cls-1" d="M93.42,19.46H99.3v5.11h.14a5.31,5.31,0,0,1,1.09-1.73,11,11,0,0,1,2.24-2A13.62,13.62,0,0,1,106,19.29a12.16,12.16,0,0,1,4.1-.66,11.91,11.91,0,0,1,6.23,1.52,11.36,11.36,0,0,1,4.13,4.56A10.49,10.49,0,0,1,125,20.15,12.86,12.86,0,0,1,131,18.63a13.87,13.87,0,0,1,6.3,1.25,10,10,0,0,1,3.85,3.27A12.33,12.33,0,0,1,143,27.78a26.82,26.82,0,0,1,.52,5.35v19h-6.3V34a25.93,25.93,0,0,0-.24-3.58,8.4,8.4,0,0,0-1-3,5.79,5.79,0,0,0-2.17-2.11,7.6,7.6,0,0,0-3.71-.79q-4.55,0-6.51,2.76a12,12,0,0,0-2,7.11V52.17h-6.3V35.06a32.9,32.9,0,0,0-.25-4.28,9.91,9.91,0,0,0-1-3.35,5.39,5.39,0,0,0-2.1-2.21,7.38,7.38,0,0,0-3.67-.79,8.37,8.37,0,0,0-3.26.66,7.72,7.72,0,0,0-2.77,2,9.66,9.66,0,0,0-1.89,3.35,15,15,0,0,0-.7,4.8v17h-6.3Z"/><path class="cls-1" d="M148.25,23.46a17.66,17.66,0,0,1,6.16-3.62,21.48,21.48,0,0,1,7-1.21,19.41,19.41,0,0,1,6.27.9A12.12,12.12,0,0,1,172,22a9.56,9.56,0,0,1,2.49,3.48,10.68,10.68,0,0,1,.81,4.11v16.7c0,1.15,0,2.21.07,3.17s.11,1.89.21,2.76H170c-.14-1.65-.21-3.31-.21-5h-.14a11.93,11.93,0,0,1-5,4.49A15.91,15.91,0,0,1,158,53a15.61,15.61,0,0,1-4.41-.62,10.86,10.86,0,0,1-3.67-1.86,9,9,0,0,1-2.49-3.07,9.4,9.4,0,0,1-.91-4.25,9.37,9.37,0,0,1,1.43-5.31,10.85,10.85,0,0,1,3.93-3.49,18.91,18.91,0,0,1,5.81-1.93,40.88,40.88,0,0,1,7.1-.59h4.62V30.5A6.64,6.64,0,0,0,168.9,28a6.41,6.41,0,0,0-1.47-2.24A6.93,6.93,0,0,0,165,24.19a9.42,9.42,0,0,0-3.5-.59,13,13,0,0,0-3.18.35,14,14,0,0,0-2.49.86,11.23,11.23,0,0,0-2,1.21L152,27.33Zm17.78,13a44.93,44.93,0,0,0-4.58.24,18,18,0,0,0-4.27.93A8.25,8.25,0,0,0,154,39.54a4.33,4.33,0,0,0-1.23,3.18,4.47,4.47,0,0,0,1.93,4.07A9.5,9.5,0,0,0,159.94,48a10.29,10.29,0,0,0,4.41-.86,8.21,8.21,0,0,0,2.94-2.24,8.54,8.54,0,0,0,1.61-3.07,11.92,11.92,0,0,0,.49-3.35V36.44Z"/><path class="cls-1" d="M250.2,27.67a9.62,9.62,0,0,0-2.77-2.31,8.09,8.09,0,0,0-4-.93,7.76,7.76,0,0,0-3.88.93,3,3,0,0,0-1.65,2.73,3.07,3.07,0,0,0,.95,2.34,7.33,7.33,0,0,0,2.24,1.45,12.83,12.83,0,0,0,2.76.83l2.52.48a30.57,30.57,0,0,1,3.82,1.18,10.66,10.66,0,0,1,3.08,1.79,7.94,7.94,0,0,1,2,2.69,9.18,9.18,0,0,1,.74,3.87,9,9,0,0,1-1.19,4.73,9.92,9.92,0,0,1-3.08,3.2,13.1,13.1,0,0,1-4.31,1.8,21.65,21.65,0,0,1-4.87.55,19.4,19.4,0,0,1-7.24-1.24,13,13,0,0,1-5.57-4.56l4.76-3.86A19.67,19.67,0,0,0,237.94,46a8.62,8.62,0,0,0,4.62,1.17A12.56,12.56,0,0,0,245,47a7.31,7.31,0,0,0,2.17-.76,4.69,4.69,0,0,0,1.54-1.31,3,3,0,0,0,.6-1.83,3.11,3.11,0,0,0-.88-2.27,6.33,6.33,0,0,0-2.1-1.42,16.33,16.33,0,0,0-2.59-.83c-.91-.2-1.72-.38-2.42-.51-1.35-.33-2.63-.69-3.85-1.11a11.78,11.78,0,0,1-3.22-1.65A7.72,7.72,0,0,1,232,32.64a8.34,8.34,0,0,1-.84-3.93,8.74,8.74,0,0,1,1.09-4.45,9.49,9.49,0,0,1,2.87-3.14,13.14,13.14,0,0,1,4.06-1.87,17.43,17.43,0,0,1,4.58-.62,17.07,17.07,0,0,1,6.45,1.25A10.12,10.12,0,0,1,255.1,24Z"/><path class="cls-1" d="M259.16,0h6.3V24.5h.14a9.29,9.29,0,0,1,4.13-4.25,13.87,13.87,0,0,1,6.8-1.62,14.4,14.4,0,0,1,4.58.73A10.39,10.39,0,0,1,285,21.6a10.82,10.82,0,0,1,2.63,3.9,14.78,14.78,0,0,1,1,5.62V52.17h-6.3V32.85a10.77,10.77,0,0,0-.63-3.9A7.14,7.14,0,0,0,280,26.33a6.32,6.32,0,0,0-2.42-1.45,9,9,0,0,0-2.83-.45,10.55,10.55,0,0,0-3.65.62,7.52,7.52,0,0,0-2.94,2,9.3,9.3,0,0,0-2,3.41,15.56,15.56,0,0,0-.7,4.9V52.17h-6.3Z"/><path class="cls-1" d="M298.51,38.09a8.09,8.09,0,0,0,.94,3.9,9.52,9.52,0,0,0,2.49,3,11.6,11.6,0,0,0,3.57,1.94,12.93,12.93,0,0,0,4.2.69,9.48,9.48,0,0,0,5.11-1.35,16.13,16.13,0,0,0,4-3.55l4.76,3.59Q318.32,53,308.87,53a18.64,18.64,0,0,1-7.11-1.31,15.46,15.46,0,0,1-5.39-3.62A15.93,15.93,0,0,1,293,42.61a18.82,18.82,0,0,1-1.19-6.79,17.71,17.71,0,0,1,1.29-6.8,17.06,17.06,0,0,1,3.57-5.45,16.49,16.49,0,0,1,5.43-3.63,17.76,17.76,0,0,1,6.86-1.31,16.64,16.64,0,0,1,7.46,1.52,14.63,14.63,0,0,1,5,4,15.59,15.59,0,0,1,2.84,5.52,22.83,22.83,0,0,1,.87,6.25v2.2Zm19.88-5a13,13,0,0,0-.66-3.8,8.27,8.27,0,0,0-1.79-3,8.15,8.15,0,0,0-3-2,10.9,10.9,0,0,0-4.17-.73,10.28,10.28,0,0,0-7.49,3.11,10.26,10.26,0,0,0-2.07,3.07,8.34,8.34,0,0,0-.73,3.35Z"/><path class="cls-1" d="M335.37,38.09a8.09,8.09,0,0,0,.94,3.9,9.52,9.52,0,0,0,2.49,3,11.6,11.6,0,0,0,3.57,1.94,12.93,12.93,0,0,0,4.2.69,9.48,9.48,0,0,0,5.11-1.35,16.13,16.13,0,0,0,4-3.55l4.76,3.59Q355.18,53,345.73,53a18.64,18.64,0,0,1-7.11-1.31,15.46,15.46,0,0,1-5.39-3.62,15.93,15.93,0,0,1-3.39-5.46,18.82,18.82,0,0,1-1.19-6.79,17.71,17.71,0,0,1,1.29-6.8,17.06,17.06,0,0,1,3.57-5.45,16.49,16.49,0,0,1,5.43-3.63,17.76,17.76,0,0,1,6.86-1.31,16.64,16.64,0,0,1,7.46,1.52,14.63,14.63,0,0,1,5,4,15.43,15.43,0,0,1,2.84,5.52,22.83,22.83,0,0,1,.87,6.25v2.2Zm19.88-5a13,13,0,0,0-.66-3.8,8.27,8.27,0,0,0-1.79-3,8.15,8.15,0,0,0-3-2,10.9,10.9,0,0,0-4.17-.73,10.28,10.28,0,0,0-4.23.86,10.4,10.4,0,0,0-3.26,2.25,10.26,10.26,0,0,0-2.07,3.07,8.34,8.34,0,0,0-.73,3.35Z"/><path class="cls-1" d="M199.87,19.55a40.2,40.2,0,0,0-5.75-.36,9.26,9.26,0,0,0-4.53,1.22,10,10,0,0,0-2.35,1.83,8.87,8.87,0,0,0-1.68,2.38h-.14v-5h-6.3V52.29h6.3s-.17-13.5,0-16.73.77-6.72,2.5-8.32A7.1,7.1,0,0,1,192.74,25a24.47,24.47,0,0,1,4.72,0Z"/><path class="cls-1" d="M223.07,47a14.33,14.33,0,0,1-2.31.2,4.85,4.85,0,0,1-2.77-.65,4,4,0,0,1-1.4-1.73,7,7,0,0,1-.52-2.41c0-.9-.07-1.81-.07-2.73V24.84h9V19.46h-9V10.28h-6.3v9.18h-6.34L201,24.84h8.75V41.89c0,1.33.05,2.66.17,4A8.33,8.33,0,0,0,211,49.41,6.9,6.9,0,0,0,213.93,52a12.8,12.8,0,0,0,5.64,1,22.23,22.23,0,0,0,2.76-.24,8.43,8.43,0,0,0,2.91-.86V46.24A6.74,6.74,0,0,1,223.07,47Z"/><path class="cls-1" d="M384.09,47a14.23,14.23,0,0,1-2.31.2,4.85,4.85,0,0,1-2.77-.65,4,4,0,0,1-1.4-1.73,7,7,0,0,1-.52-2.41c0-.9-.07-1.81-.07-2.73V24.84h9V19.46h-9V10.28h-6.3v9.18h-6.34L362,24.84h8.75V41.89c0,1.33,0,2.66.17,4A8.33,8.33,0,0,0,372,49.41,6.9,6.9,0,0,0,375,52a12.8,12.8,0,0,0,5.64,1,22.23,22.23,0,0,0,2.76-.24,8.43,8.43,0,0,0,2.91-.86V46.24A6.74,6.74,0,0,1,384.09,47Z"/><path class="cls-1" d="M7.7,30.93s2.14-3.16,5-3.22c4.42-.1,8,8.14,8.58,9.34,4.89-11.32,13-20.9,19.57-27.31H.48c0,3.93,0,43.54,0,46.79A23.65,23.65,0,0,1,0,61.74a87.94,87.94,0,0,0,15.49-4.05c12.27-4.56,17.08-9.42,17.12-9.47l.31-.32.18.42a28.88,28.88,0,0,0,3.07,5.37c1.69,2.06,2.64,2.31,3.14,2.14.69-.22,1.15-1.37,1.34-3.33S41,46.36,41,41.19V13.35C29.09,28.45,20.33,51.07,20.33,51.07S14.57,30.78,7.7,30.93Z"/></g></g></svg>