<svg id="Layer_1" data-name="Layer 1" xmlns="http://www.w3.org/2000/svg" viewBox="0 0 411 63"><defs><style>.cls-1{fill:#fbf8ec;}</style></defs><title>cinemasL_1</title><path class="cls-1" d="M29.76,51.81a12.64,12.64,0,0,1-6.41,1.65,12.37,12.37,0,0,1-6.79-1.89,16,16,0,0,1-5-5.14A26.15,26.15,0,0,1,8.4,38.67,41.34,41.34,0,0,1,7.31,29,41.7,41.7,0,0,1,8.4,19.2a25.74,25.74,0,0,1,3.17-7.75,16,16,0,0,1,5.05-5.12,12.51,12.51,0,0,1,6.73-1.85,13.91,13.91,0,0,1,6.17,1.39,11.73,11.73,0,0,1,4.79,4.36l-3,3a10.26,10.26,0,0,0-3.53-3.43,8.59,8.59,0,0,0-4.26-1.12,8.23,8.23,0,0,0-5.05,1.58,12.16,12.16,0,0,0-3.56,4.36,23.53,23.53,0,0,0-2.11,6.47,41.84,41.84,0,0,0-.7,7.85,39.72,39.72,0,0,0,.73,7.82A24.72,24.72,0,0,0,15,43.23a12.54,12.54,0,0,0,3.57,4.38,8.14,8.14,0,0,0,5.05,1.62,7.77,7.77,0,0,0,4.55-1.42,11.25,11.25,0,0,0,3.37-3.73l2.9,3A13.12,13.12,0,0,1,29.76,51.81Z"/><path class="cls-1" d="M41,52.33V5.6h4.62V52.33Z"/><path class="cls-1" d="M77.09,52.33,60.84,13.46h-.2V52.33H56.29V5.6H62L78.2,44.48h.2V5.6h4.22V52.33Z"/><path class="cls-1" d="M93.31,52.33V5.6h18.81V9.7H97.8V26.06h13.4v4H97.8V48.17h15v4.16Z"/><path class="cls-1" d="M152.78,52.33V11.74h-.2L141.12,52.33h-4.28L125.45,11.74h-.19V52.33H120.9V5.6h6.86l11.16,39.47h.26l11-39.47h7.13V52.33Z"/><path class="cls-1" d="M188,52.33l-2.84-11.68H170.79l-3,11.68h-4.69L175,5.6h6.27l11.55,46.73ZM178.19,9.76h-.27L171.46,37h13.06Z"/><path class="cls-1" d="M218.91,40.39A15.23,15.23,0,0,1,218,45.9,12,12,0,0,1,215.44,50a10.94,10.94,0,0,1-3.79,2.57,12,12,0,0,1-4.62.9,14.37,14.37,0,0,1-6.57-1.52,13.44,13.44,0,0,1-4.85-4l2.84-3.23A10.39,10.39,0,0,0,202.28,48,10.16,10.16,0,0,0,207,49.23,7.07,7.07,0,0,0,212.27,47a8.92,8.92,0,0,0,2.15-6.41,8.69,8.69,0,0,0-.66-3.49A9.3,9.3,0,0,0,212,34.38a14.46,14.46,0,0,0-2.54-2.11,30.21,30.21,0,0,0-3-1.72,29.43,29.43,0,0,1-3.63-2.08,14.78,14.78,0,0,1-3-2.67,12.19,12.19,0,0,1-2.08-3.6,13.51,13.51,0,0,1-.79-4.85,14.8,14.8,0,0,1,1-5.64,11.64,11.64,0,0,1,2.67-4,11.15,11.15,0,0,1,3.8-2.41,12.67,12.67,0,0,1,4.42-.79,14.5,14.5,0,0,1,5.71,1.09A10.39,10.39,0,0,1,218.78,9l-2.84,3.24a7.78,7.78,0,0,0-3.1-2.74,9.18,9.18,0,0,0-3.9-.83,7.94,7.94,0,0,0-2.74.5,6.56,6.56,0,0,0-2.41,1.55,7.92,7.92,0,0,0-1.71,2.7,10.47,10.47,0,0,0-.66,3.9,9.15,9.15,0,0,0,.59,3.43,8.62,8.62,0,0,0,1.62,2.57,11.44,11.44,0,0,0,2.37,2,32.23,32.23,0,0,0,2.81,1.59A35.88,35.88,0,0,1,212.47,29a17.38,17.38,0,0,1,3.27,2.77,12.18,12.18,0,0,1,2.31,3.7A13.15,13.15,0,0,1,218.91,40.39Z"/></svg>