<svg id="Layer_1" data-name="Layer 1" xmlns="http://www.w3.org/2000/svg" viewBox="0 0 411 63"><defs><style>.cls-1{fill:#fbf8ec;}</style></defs><title>cinemasL</title><path class="cls-1" d="M30.17,52.33,13.92,13.46h-.2V52.33H9.36V5.6H15.1L31.27,44.48h.2V5.6H35.7V52.33Z"/><path class="cls-1" d="M46.39,52.33V5.6H51V52.33Z"/><path class="cls-1" d="M82.65,52.17a18.38,18.38,0,0,1-6.43,1,14.26,14.26,0,0,1-7-1.71A15,15,0,0,1,64,46.59a24.31,24.31,0,0,1-3.24-7.65,41.91,41.91,0,0,1-1.12-10,41.4,41.4,0,0,1,1.09-9.7,26,26,0,0,1,3.14-7.75,15.64,15.64,0,0,1,5-5.12,12.51,12.51,0,0,1,6.73-1.85,14,14,0,0,1,6.27,1.39,11.79,11.79,0,0,1,4.76,4.36l-3,3A10.65,10.65,0,0,0,80.15,9.8a8.6,8.6,0,0,0-4.33-1.16,8,8,0,0,0-5,1.62,12.6,12.6,0,0,0-3.53,4.39,23.92,23.92,0,0,0-2.12,6.43,42.22,42.22,0,0,0-.69,7.82A41.42,41.42,0,0,0,65.2,37a21.51,21.51,0,0,0,2.21,6.36,12.14,12.14,0,0,0,3.69,4.2A8.85,8.85,0,0,0,76.22,49,12.35,12.35,0,0,0,80,48.5,7.56,7.56,0,0,0,82.82,47V31.15H76.15v-4H87.31V49.44A14.52,14.52,0,0,1,82.65,52.17Z"/><path class="cls-1" d="M119.51,52.33V30.16H101.63V52.33H97V5.6h4.62V26.06h17.88V5.6h4.62V52.33Z"/><path class="cls-1" d="M143,9.56V52.33h-4.55V9.56h-9v-4h22.57v4Z"/><path class="cls-1" d="M188.42,51.81a12.6,12.6,0,0,1-6.4,1.65,12.38,12.38,0,0,1-6.8-1.89,16.14,16.14,0,0,1-5-5.14,26.15,26.15,0,0,1-3.13-7.76A40.82,40.82,0,0,1,166,29a41.17,41.17,0,0,1,1.09-9.77,25.48,25.48,0,0,1,3.16-7.75,16,16,0,0,1,5.05-5.12A12.52,12.52,0,0,1,182,4.48a13.94,13.94,0,0,1,6.17,1.39A11.71,11.71,0,0,1,193,10.23l-3,3a10.26,10.26,0,0,0-3.53-3.43,8.59,8.59,0,0,0-4.26-1.12,8.2,8.2,0,0,0-5,1.58,12.18,12.18,0,0,0-3.57,4.36,23.53,23.53,0,0,0-2.11,6.47A42.71,42.71,0,0,0,170.8,29a40.51,40.51,0,0,0,.72,7.82,24.72,24.72,0,0,0,2.15,6.44,12.41,12.41,0,0,0,3.56,4.38,8.14,8.14,0,0,0,5.05,1.62,7.77,7.77,0,0,0,4.55-1.42,11.14,11.14,0,0,0,3.37-3.73l2.9,3A13.12,13.12,0,0,1,188.42,51.81Z"/><path class="cls-1" d="M199.64,52.33V5.6h4.62V48h13.33v4.29Z"/><path class="cls-1" d="M247.06,42.8a16.29,16.29,0,0,1-2.25,5.57,10.75,10.75,0,0,1-4.12,3.73,13.54,13.54,0,0,1-6.34,1.36,13.31,13.31,0,0,1-6.3-1.36A10.88,10.88,0,0,1,224,48.37a15.86,15.86,0,0,1-2.21-5.57,33.85,33.85,0,0,1-.66-6.84V5.6h4.62V35.37a35.63,35.63,0,0,0,.36,5.08,14.74,14.74,0,0,0,1.32,4.46A8.16,8.16,0,0,0,230,48a8.64,8.64,0,0,0,8.75,0,8.06,8.06,0,0,0,2.67-3.13,14.74,14.74,0,0,0,1.32-4.42,35.57,35.57,0,0,0,.36-5.12V5.6h4.62V36A32.43,32.43,0,0,1,247.06,42.8Z"/><path class="cls-1" d="M282,39.6a14.17,14.17,0,0,1-1.15,6.07,11.23,11.23,0,0,1-2.94,3.92A10.87,10.87,0,0,1,274,51.71a15.06,15.06,0,0,1-4.13.62H257.91V5.6H268.5a17,17,0,0,1,4.11.53A11.1,11.1,0,0,1,276.48,8a9.66,9.66,0,0,1,2.88,3.5A12.21,12.21,0,0,1,280.49,17a13.38,13.38,0,0,1-.57,4.13,10.86,10.86,0,0,1-1.5,3,8.74,8.74,0,0,1-2.13,2.12,10.77,10.77,0,0,1-2.47,1.28v.13a10.14,10.14,0,0,1,2.71,1.06A10,10,0,0,1,279.2,31a11.73,11.73,0,0,1,2,3.57A14.51,14.51,0,0,1,282,39.6Zm-5.87-21.88a9.66,9.66,0,0,0-.69-3.88,6.66,6.66,0,0,0-1.85-2.53A6.78,6.78,0,0,0,271,10a11.43,11.43,0,0,0-3-.4h-5.74v16.5h5.87A9.23,9.23,0,0,0,271,25.6a6.85,6.85,0,0,0,2.54-1.47,8,8,0,0,0,1.84-2.6A9,9,0,0,0,276.13,17.72Zm1.32,21.58a11,11,0,0,0-.79-4.44,8.32,8.32,0,0,0-2.05-2.93,8.1,8.1,0,0,0-2.8-1.64,9.42,9.42,0,0,0-3-.53h-6.53V48.37h6.53a10.66,10.66,0,0,0,3.37-.52,7.28,7.28,0,0,0,2.77-1.65,7.45,7.45,0,0,0,1.85-2.83A11.27,11.27,0,0,0,277.45,39.3Z"/><path class="cls-1" d="M310.25,40.39a15.45,15.45,0,0,1-.92,5.51A12.27,12.27,0,0,1,306.79,50a11,11,0,0,1-3.8,2.57,12,12,0,0,1-4.62.9,14.43,14.43,0,0,1-6.57-1.52,13.44,13.44,0,0,1-4.85-4l2.84-3.23A10.39,10.39,0,0,0,293.62,48a10.17,10.17,0,0,0,4.69,1.19A7.07,7.07,0,0,0,303.62,47a8.91,8.91,0,0,0,2.14-6.41,8.69,8.69,0,0,0-.66-3.49,9.3,9.3,0,0,0-1.78-2.71,14.1,14.1,0,0,0-2.54-2.11,31.21,31.21,0,0,0-3-1.72,28,28,0,0,1-3.63-2.08,14.57,14.57,0,0,1-3-2.67,12.17,12.17,0,0,1-2.07-3.6,13.51,13.51,0,0,1-.8-4.85,14.8,14.8,0,0,1,1-5.64,11.52,11.52,0,0,1,2.68-4,11.11,11.11,0,0,1,3.79-2.41,12.67,12.67,0,0,1,4.42-.79,14.43,14.43,0,0,1,5.71,1.09A10.33,10.33,0,0,1,310.12,9l-2.84,3.24a7.71,7.71,0,0,0-3.1-2.74,9.17,9.17,0,0,0-3.89-.83,7.9,7.9,0,0,0-2.74.5,6.4,6.4,0,0,0-2.41,1.55,7.79,7.79,0,0,0-1.72,2.7,10.47,10.47,0,0,0-.66,3.9,9,9,0,0,0,.6,3.43A8.4,8.4,0,0,0,295,23.29a11.5,11.5,0,0,0,2.38,2,32.05,32.05,0,0,0,2.8,1.59A36,36,0,0,1,303.82,29a17,17,0,0,1,3.26,2.77,12.18,12.18,0,0,1,2.31,3.7A13.15,13.15,0,0,1,310.25,40.39Z"/></svg>