<svg id="Layer_1" data-name="Layer 1" xmlns="http://www.w3.org/2000/svg" viewBox="0 0 411 63"><defs><style>.cls-1{fill:#fbf8ec;}</style></defs><title>coffeeL</title><path class="cls-1" d="M29.76,51.81a12.64,12.64,0,0,1-6.41,1.65,12.37,12.37,0,0,1-6.79-1.89,16,16,0,0,1-5-5.14A26.15,26.15,0,0,1,8.4,38.67,41.34,41.34,0,0,1,7.31,29,41.7,41.7,0,0,1,8.4,19.2a25.74,25.74,0,0,1,3.17-7.75,16,16,0,0,1,5.05-5.12,12.51,12.51,0,0,1,6.73-1.85,14.05,14.05,0,0,1,6.17,1.39,11.73,11.73,0,0,1,4.79,4.36l-3,3a10.26,10.26,0,0,0-3.53-3.43,8.59,8.59,0,0,0-4.26-1.12,8.3,8.3,0,0,0-5.05,1.58,12.16,12.16,0,0,0-3.56,4.36,23.53,23.53,0,0,0-2.11,6.47,41.84,41.84,0,0,0-.7,7.85,39.72,39.72,0,0,0,.73,7.82A24.72,24.72,0,0,0,15,43.23a12.54,12.54,0,0,0,3.57,4.38,8.14,8.14,0,0,0,5.05,1.62,7.77,7.77,0,0,0,4.55-1.42,11.25,11.25,0,0,0,3.37-3.73l2.9,3A13.12,13.12,0,0,1,29.76,51.81Z"/><path class="cls-1" d="M69.09,28.9a44.17,44.17,0,0,1-1,10,26.36,26.36,0,0,1-3,7.76,15.06,15.06,0,0,1-4.82,5,11.9,11.9,0,0,1-6.47,1.79,12.07,12.07,0,0,1-6.5-1.79,15.21,15.21,0,0,1-4.88-5,25.57,25.57,0,0,1-3.07-7.76,43.59,43.59,0,0,1-1.06-10,44.54,44.54,0,0,1,1-9.93,25.08,25.08,0,0,1,3-7.72,14.94,14.94,0,0,1,4.85-5,12.3,12.3,0,0,1,6.63-1.79,11.9,11.9,0,0,1,6.47,1.79,15.05,15.05,0,0,1,4.82,5A25.88,25.88,0,0,1,68,19,43.91,43.91,0,0,1,69.09,28.9Zm-4.82,0A45.16,45.16,0,0,0,63.61,21a23.72,23.72,0,0,0-2-6.4,12.64,12.64,0,0,0-3.33-4.29,7.12,7.12,0,0,0-4.56-1.58A7.47,7.47,0,0,0,49,10.29a12.16,12.16,0,0,0-3.33,4.29,24.47,24.47,0,0,0-2,6.4A45.16,45.16,0,0,0,43,28.9a45,45,0,0,0,.66,7.92,25.39,25.39,0,0,0,2,6.47A12,12,0,0,0,49,47.65a7.47,7.47,0,0,0,4.72,1.58,7.21,7.21,0,0,0,4.62-1.58,12.17,12.17,0,0,0,3.3-4.36,25.39,25.39,0,0,0,2-6.47A45,45,0,0,0,64.27,28.9Z"/><path class="cls-1" d="M82.36,9.76V26.53H95.49v4H82.36V52.33H77.8V5.61H96.48V9.76Z"/><path class="cls-1" d="M108.49,9.76V26.53h13.14v4H108.49V52.33h-4.55V5.61h18.68V9.76Z"/><path class="cls-1" d="M130.07,52.33V5.61h18.81V9.7H134.56V26.07H148v4h-13.4V48.17h15v4.16Z"/><path class="cls-1" d="M157.66,52.33V5.61h18.81V9.7H162.15V26.07h13.4v4h-13.4V48.17h15v4.16Z"/><path class="cls-1" d="M217.72,40.39a15.45,15.45,0,0,1-.92,5.51A12.27,12.27,0,0,1,214.26,50a11,11,0,0,1-3.8,2.57,12,12,0,0,1-4.62.9,14.4,14.4,0,0,1-6.57-1.52,13.44,13.44,0,0,1-4.85-4l2.84-3.23A10.39,10.39,0,0,0,201.09,48a10.17,10.17,0,0,0,4.69,1.19A7.07,7.07,0,0,0,211.09,47a8.91,8.91,0,0,0,2.14-6.41,8.69,8.69,0,0,0-.66-3.49,9.3,9.3,0,0,0-1.78-2.71,14.1,14.1,0,0,0-2.54-2.11,31.21,31.21,0,0,0-3-1.72,28,28,0,0,1-3.63-2.08,14.29,14.29,0,0,1-3-2.67,12.17,12.17,0,0,1-2.07-3.6,13.51,13.51,0,0,1-.8-4.85,14.8,14.8,0,0,1,1-5.64,11.52,11.52,0,0,1,2.68-4,10.94,10.94,0,0,1,3.79-2.4,12.45,12.45,0,0,1,4.42-.8,14.43,14.43,0,0,1,5.71,1.09A10.33,10.33,0,0,1,217.59,9l-2.84,3.24a7.71,7.71,0,0,0-3.1-2.74,9.18,9.18,0,0,0-3.9-.83,7.88,7.88,0,0,0-2.73.5,6.4,6.4,0,0,0-2.41,1.55,7.79,7.79,0,0,0-1.72,2.7,10.47,10.47,0,0,0-.66,3.9,9,9,0,0,0,.6,3.43,8.4,8.4,0,0,0,1.61,2.57,11.5,11.5,0,0,0,2.38,2,32.05,32.05,0,0,0,2.8,1.59A36,36,0,0,1,211.29,29a17.32,17.32,0,0,1,3.26,2.77,12.18,12.18,0,0,1,2.31,3.7A13.15,13.15,0,0,1,217.72,40.39Z"/><path class="cls-1" d="M248.61,52.33V30.16H230.72V52.33H226.1V5.61h4.62V26.07h17.89V5.61h4.62V52.33Z"/><path class="cls-1" d="M292.83,28.9a43.59,43.59,0,0,1-1.06,10,26.08,26.08,0,0,1-3,7.76,15.06,15.06,0,0,1-4.82,5,11.9,11.9,0,0,1-6.47,1.79,12,12,0,0,1-6.5-1.79,15.21,15.21,0,0,1-4.88-5A25.32,25.32,0,0,1,263,38.9a43.59,43.59,0,0,1-1.06-10A45.16,45.16,0,0,1,263,19a25.34,25.34,0,0,1,3-7.72,14.84,14.84,0,0,1,4.85-5,12.28,12.28,0,0,1,6.63-1.79,11.9,11.9,0,0,1,6.47,1.79,15.05,15.05,0,0,1,4.82,5,25.61,25.61,0,0,1,3,7.72A43.33,43.33,0,0,1,292.83,28.9Zm-4.82,0a45.16,45.16,0,0,0-.66-7.92,23.72,23.72,0,0,0-2-6.4A12.54,12.54,0,0,0,282,10.29a7.08,7.08,0,0,0-4.55-1.58,7.45,7.45,0,0,0-4.72,1.58,12.16,12.16,0,0,0-3.33,4.29,24.47,24.47,0,0,0-2,6.4,45.16,45.16,0,0,0-.66,7.92,45,45,0,0,0,.66,7.92,25.39,25.39,0,0,0,2,6.47,12,12,0,0,0,3.33,4.36,7.45,7.45,0,0,0,4.72,1.58,7.21,7.21,0,0,0,4.62-1.58,12.17,12.17,0,0,0,3.3-4.36,25.39,25.39,0,0,0,2-6.47A45,45,0,0,0,288,28.9Z"/><path class="cls-1" d="M324.44,18.28a16,16,0,0,1-.95,5.71,12.21,12.21,0,0,1-2.55,4.12,10.55,10.55,0,0,1-3.66,2.51,11.25,11.25,0,0,1-4.32.86h-6.87V52.33h-4.55V5.61h11a15.14,15.14,0,0,1,4.16.59,10,10,0,0,1,3.83,2.08,11,11,0,0,1,2.8,3.93A14.81,14.81,0,0,1,324.44,18.28Zm-4.55,0a11.86,11.86,0,0,0-.6-4,7.06,7.06,0,0,0-1.65-2.73,6.54,6.54,0,0,0-2.4-1.54,8.56,8.56,0,0,0-2.94-.49h-6.21v18h6.27a7.19,7.19,0,0,0,5.32-2.27C319.15,23.74,319.89,21.42,319.89,18.31Z"/><path class="cls-1" d="M352.16,40.39a15.45,15.45,0,0,1-.92,5.51A12.27,12.27,0,0,1,348.7,50a11,11,0,0,1-3.8,2.57,12,12,0,0,1-4.62.9,14.43,14.43,0,0,1-6.57-1.52,13.44,13.44,0,0,1-4.85-4l2.84-3.23A10.39,10.39,0,0,0,335.53,48a10.17,10.17,0,0,0,4.69,1.19A7.07,7.07,0,0,0,345.53,47a8.91,8.91,0,0,0,2.14-6.41,8.69,8.69,0,0,0-.66-3.49,9.3,9.3,0,0,0-1.78-2.71,14.1,14.1,0,0,0-2.54-2.11,31.21,31.21,0,0,0-3-1.72,28,28,0,0,1-3.63-2.08,14.29,14.29,0,0,1-3-2.67A12.17,12.17,0,0,1,331,22.2a13.51,13.51,0,0,1-.8-4.85,14.8,14.8,0,0,1,1-5.64,11.52,11.52,0,0,1,2.68-4,10.94,10.94,0,0,1,3.79-2.4,12.45,12.45,0,0,1,4.42-.8,14.43,14.43,0,0,1,5.71,1.09A10.33,10.33,0,0,1,352,9l-2.84,3.24a7.71,7.71,0,0,0-3.1-2.74,9.17,9.17,0,0,0-3.89-.83,7.9,7.9,0,0,0-2.74.5,6.4,6.4,0,0,0-2.41,1.55,7.79,7.79,0,0,0-1.72,2.7,10.47,10.47,0,0,0-.66,3.9,9,9,0,0,0,.6,3.43,8.4,8.4,0,0,0,1.61,2.57,11.5,11.5,0,0,0,2.38,2,32.05,32.05,0,0,0,2.8,1.59A36,36,0,0,1,345.73,29,17,17,0,0,1,349,31.74a12.18,12.18,0,0,1,2.31,3.7A13,13,0,0,1,352.16,40.39Z"/></svg>