<svg id="Layer_1" data-name="Layer 1" xmlns="http://www.w3.org/2000/svg" viewBox="0 0 411 63"><defs><style>.cls-1{fill:#fbf8ec;}</style></defs><title>coffeeB</title><path class="cls-1" d="M32.33,51.77a15.52,15.52,0,0,1-7.92,1.82A15.31,15.31,0,0,1,17,51.77a17.24,17.24,0,0,1-5.71-5.08A25.11,25.11,0,0,1,7.58,38.9,35.29,35.29,0,0,1,6.26,29a35.91,35.91,0,0,1,1.32-10,24.68,24.68,0,0,1,3.69-7.79,17,17,0,0,1,5.71-5,15.62,15.62,0,0,1,7.43-1.78A16.42,16.42,0,0,1,32.23,6a15.45,15.45,0,0,1,5.05,4.2L31.6,17.88a10,10,0,0,0-2.67-2.51,7,7,0,0,0-3.73-.92,6,6,0,0,0-3.66,1.12,9.19,9.19,0,0,0-2.64,3.07,15.5,15.5,0,0,0-1.62,4.62A29.62,29.62,0,0,0,16.75,29a29.15,29.15,0,0,0,.53,5.68,15.91,15.91,0,0,0,1.62,4.62,9.17,9.17,0,0,0,2.67,3.1,6.23,6.23,0,0,0,3.7,1.12A6.45,6.45,0,0,0,29,42.43a8.45,8.45,0,0,0,2.51-2.51l5.88,7.33A15.78,15.78,0,0,1,32.33,51.77Z"/><path class="cls-1" d="M75.16,28.84A38.24,38.24,0,0,1,73.91,39a24.3,24.3,0,0,1-3.57,7.82,16.37,16.37,0,0,1-5.64,5,16.65,16.65,0,0,1-15,0,16.37,16.37,0,0,1-5.64-5A24.51,24.51,0,0,1,40.51,39a38.66,38.66,0,0,1-1.25-10.13,38.81,38.81,0,0,1,1.22-10.07A23.47,23.47,0,0,1,44,11.05a16.26,16.26,0,0,1,5.64-5,16,16,0,0,1,7.56-1.75A15.82,15.82,0,0,1,64.7,6.1a16.26,16.26,0,0,1,5.64,5,23.93,23.93,0,0,1,3.57,7.72A37.52,37.52,0,0,1,75.16,28.84Zm-10.82,0a33.23,33.23,0,0,0-.46-5.65,18.25,18.25,0,0,0-1.36-4.52,8.44,8.44,0,0,0-2.21-3,4.7,4.7,0,0,0-3.1-1.09,4.81,4.81,0,0,0-3.13,1.09,8.28,8.28,0,0,0-2.25,3,17.87,17.87,0,0,0-1.32,4.52,35.54,35.54,0,0,0-.43,5.65,36.08,36.08,0,0,0,.43,5.67,17.83,17.83,0,0,0,1.32,4.56,8.49,8.49,0,0,0,2.25,3,4.74,4.74,0,0,0,3.13,1.13,4.63,4.63,0,0,0,3.1-1.13,8.66,8.66,0,0,0,2.21-3,18.2,18.2,0,0,0,1.36-4.56A33.73,33.73,0,0,0,64.34,28.84Z"/><path class="cls-1" d="M92.19,15.11v9.57h11.16v9H92.26V52.33H81.57V5.61h22.76v9.5Z"/><path class="cls-1" d="M120.7,15.11v9.57h11.16v9H120.77V52.33H110.08V5.61h22.77v9.5Z"/><path class="cls-1" d="M138.59,52.33V5.61h22.57v9.3H148.69v9.17h11.48V32.8H148.69v10H162v9.5Z"/><path class="cls-1" d="M168.16,52.33V5.61h22.57v9.3H178.25v9.17h11.49V32.8H178.25v10h13.27v9.5Z"/><path class="cls-1" d="M230.26,16.76a8.33,8.33,0,0,0-2.77-2.15,7.65,7.65,0,0,0-3.3-.75A5,5,0,0,0,221,15a4.43,4.43,0,0,0-1.42,3.7A4.21,4.21,0,0,0,221,22.09a24,24,0,0,0,4.29,2.67q1.59.79,3.36,1.89a15.66,15.66,0,0,1,3.22,2.68,13.37,13.37,0,0,1,2.42,3.8,13,13,0,0,1,1,5.25,17.19,17.19,0,0,1-1.2,6.65,13.13,13.13,0,0,1-7.9,7.6,16,16,0,0,1-5.49,1A18.24,18.24,0,0,1,213,52a18.62,18.62,0,0,1-5.57-3.69l5.41-7.92a12.23,12.23,0,0,0,3.5,2.54,9.11,9.11,0,0,0,4,1,4.52,4.52,0,0,0,3.24-1.25,4.58,4.58,0,0,0,1.32-3.5,4.55,4.55,0,0,0-1.59-3.66,23,23,0,0,0-4.62-2.87,30.59,30.59,0,0,1-3.6-2.05,13.36,13.36,0,0,1-3-2.7,12.31,12.31,0,0,1-2-3.7,15.61,15.61,0,0,1-.72-5,15.91,15.91,0,0,1,1.28-6.69,13.17,13.17,0,0,1,3.37-4.59,13.67,13.67,0,0,1,4.62-2.64,15.93,15.93,0,0,1,5.11-.86,18,18,0,0,1,6.87,1.25A14.41,14.41,0,0,1,235.74,9Z"/><path class="cls-1" d="M262.73,52.33V32.8H251.84V52.33H241.35V5.61h10.49V23.29h10.89V5.61h10.5V52.33Z"/><path class="cls-1" d="M315.53,28.84A38.66,38.66,0,0,1,314.28,39a24.51,24.51,0,0,1-3.57,7.82,16.37,16.37,0,0,1-5.64,5,16.65,16.65,0,0,1-15,0,16.37,16.37,0,0,1-5.64-5A24.51,24.51,0,0,1,280.88,39a38.66,38.66,0,0,1-1.25-10.13,38.81,38.81,0,0,1,1.22-10.07,23.47,23.47,0,0,1,3.53-7.72,16.26,16.26,0,0,1,5.64-5,16,16,0,0,1,7.56-1.75,15.82,15.82,0,0,1,7.49,1.75,16.26,16.26,0,0,1,5.64,5,24.14,24.14,0,0,1,3.57,7.72A37.93,37.93,0,0,1,315.53,28.84Zm-10.82,0a33.23,33.23,0,0,0-.46-5.65,18.25,18.25,0,0,0-1.36-4.52,8.44,8.44,0,0,0-2.21-3,4.7,4.7,0,0,0-3.1-1.09,4.81,4.81,0,0,0-3.13,1.09,8.28,8.28,0,0,0-2.25,3,17.87,17.87,0,0,0-1.32,4.52,34.41,34.41,0,0,0-.43,5.65,34.92,34.92,0,0,0,.43,5.67,17.83,17.83,0,0,0,1.32,4.56,8.49,8.49,0,0,0,2.25,3,4.74,4.74,0,0,0,3.13,1.13,4.63,4.63,0,0,0,3.1-1.13,8.66,8.66,0,0,0,2.21-3,18.2,18.2,0,0,0,1.36-4.56A33.73,33.73,0,0,0,304.71,28.84Z"/><path class="cls-1" d="M350.78,20.26A17.41,17.41,0,0,1,349.59,27a13.3,13.3,0,0,1-3.17,4.68,12.56,12.56,0,0,1-4.49,2.74,14.91,14.91,0,0,1-5.08.9H332.3v17H321.94V5.61h14.52a18.38,18.38,0,0,1,5,.72,12.94,12.94,0,0,1,4.62,2.41,12.12,12.12,0,0,1,3.37,4.52A16.9,16.9,0,0,1,350.78,20.26Zm-9.9.2c0-2.12-.51-3.63-1.52-4.56a5.29,5.29,0,0,0-3.7-1.38H332.3V26.73h3.36a4.87,4.87,0,0,0,3.7-1.62A6.56,6.56,0,0,0,340.88,20.46Z"/><path class="cls-1" d="M375.72,16.76A8.33,8.33,0,0,0,373,14.61a7.58,7.58,0,0,0-3.3-.75,5,5,0,0,0-3.2,1.12,4.43,4.43,0,0,0-1.42,3.7,4.24,4.24,0,0,0,1.45,3.41,24,24,0,0,0,4.29,2.67q1.61.79,3.36,1.89a15.4,15.4,0,0,1,3.22,2.68,13.39,13.39,0,0,1,2.43,3.8,13.12,13.12,0,0,1,1,5.25,17.19,17.19,0,0,1-1.2,6.65,13.44,13.44,0,0,1-3.22,4.76,13.65,13.65,0,0,1-4.68,2.84,15.94,15.94,0,0,1-5.49,1A18.2,18.2,0,0,1,358.47,52a18.8,18.8,0,0,1-5.58-3.69l5.41-7.92a12.23,12.23,0,0,0,3.5,2.54,9.11,9.11,0,0,0,4,1,4.51,4.51,0,0,0,3.24-1.25,4.58,4.58,0,0,0,1.32-3.5,4.55,4.55,0,0,0-1.59-3.66,23,23,0,0,0-4.62-2.87,30.45,30.45,0,0,1-3.59-2.05,13.36,13.36,0,0,1-3-2.7,12.11,12.11,0,0,1-2-3.7,15.61,15.61,0,0,1-.72-5,15.91,15.91,0,0,1,1.29-6.69,13.15,13.15,0,0,1,3.36-4.59,13.86,13.86,0,0,1,4.62-2.64,16,16,0,0,1,5.12-.86,17.92,17.92,0,0,1,6.86,1.25A14.41,14.41,0,0,1,381.2,9Z"/></svg>