<svg id="Layer_1" data-name="Layer 1" xmlns="http://www.w3.org/2000/svg" viewBox="0 0 425 63"><defs><style>.cls-1{fill:#fbf8ec;}</style></defs><title>commuteL</title><path class="cls-1" d="M29.62,40.39a15.45,15.45,0,0,1-.92,5.51A12.11,12.11,0,0,1,26.16,50a11,11,0,0,1-3.8,2.57,12,12,0,0,1-4.62.9,14.36,14.36,0,0,1-6.56-1.52,13.36,13.36,0,0,1-4.85-4l2.83-3.23A10.39,10.39,0,0,0,13,48a10.17,10.17,0,0,0,4.69,1.19A7.07,7.07,0,0,0,23,47a8.92,8.92,0,0,0,2.15-6.41,8.86,8.86,0,0,0-.66-3.49,9.53,9.53,0,0,0-1.79-2.71,14.1,14.1,0,0,0-2.54-2.11,29,29,0,0,0-3-1.72,28,28,0,0,1-3.63-2.08,14,14,0,0,1-3-2.67,12.19,12.19,0,0,1-2.08-3.6,13.51,13.51,0,0,1-.79-4.85,14.8,14.8,0,0,1,1-5.64,11.5,11.5,0,0,1,2.67-4,10.94,10.94,0,0,1,3.79-2.4,12.45,12.45,0,0,1,4.42-.8,14.43,14.43,0,0,1,5.71,1.09A10.26,10.26,0,0,1,29.49,9l-2.84,3.24a7.71,7.71,0,0,0-3.1-2.74,9.17,9.17,0,0,0-3.89-.83,7.9,7.9,0,0,0-2.74.5,6.48,6.48,0,0,0-2.41,1.55,7.79,7.79,0,0,0-1.72,2.7,10.47,10.47,0,0,0-.66,3.9,9,9,0,0,0,.6,3.43,8.4,8.4,0,0,0,1.61,2.57,11.77,11.77,0,0,0,2.38,2,32.05,32.05,0,0,0,2.8,1.59A35,35,0,0,1,23.19,29a17.38,17.38,0,0,1,3.27,2.77,12.58,12.58,0,0,1,2.31,3.7A13.16,13.16,0,0,1,29.62,40.39Z"/><path class="cls-1" d="M60.51,52.33V30.16H42.62V52.33H38V5.61h4.62V26.07H60.51V5.61h4.62V52.33Z"/><path class="cls-1" d="M104.73,28.9a43.59,43.59,0,0,1-1.06,10,26.08,26.08,0,0,1-3,7.76,15.06,15.06,0,0,1-4.82,5,11.9,11.9,0,0,1-6.47,1.79,12.07,12.07,0,0,1-6.5-1.79,15.21,15.21,0,0,1-4.88-5A25.32,25.32,0,0,1,74.9,38.9a43.59,43.59,0,0,1-1.06-10,44.54,44.54,0,0,1,1-9.93,25.08,25.08,0,0,1,3-7.72,14.94,14.94,0,0,1,4.85-5,12.28,12.28,0,0,1,6.63-1.79,11.9,11.9,0,0,1,6.47,1.79,15.05,15.05,0,0,1,4.82,5,25.61,25.61,0,0,1,3,7.72A43.33,43.33,0,0,1,104.73,28.9Zm-4.82,0A45.16,45.16,0,0,0,99.25,21a23.72,23.72,0,0,0-2-6.4,12.64,12.64,0,0,0-3.33-4.29,7.12,7.12,0,0,0-4.56-1.58,7.47,7.47,0,0,0-4.72,1.58,12.16,12.16,0,0,0-3.33,4.29,24.47,24.47,0,0,0-2,6.4,45.16,45.16,0,0,0-.66,7.92,45,45,0,0,0,.66,7.92,25.39,25.39,0,0,0,2,6.47,12,12,0,0,0,3.33,4.36,7.47,7.47,0,0,0,4.72,1.58A7.21,7.21,0,0,0,94,47.65a12.17,12.17,0,0,0,3.3-4.36,25.39,25.39,0,0,0,2-6.47A45,45,0,0,0,99.91,28.9Z"/><path class="cls-1" d="M132.45,52.33,124,30.69h-6V52.33h-4.56V5.61h11.22a15.76,15.76,0,0,1,4.46.62,10.11,10.11,0,0,1,3.82,2.08,10.32,10.32,0,0,1,2.71,3.83,14.71,14.71,0,0,1,1,5.81,15.51,15.51,0,0,1-.75,5.11,11.49,11.49,0,0,1-2,3.6,9,9,0,0,1-2.7,2.24,8.67,8.67,0,0,1-2.94,1l9.11,22.44Zm-.26-34.15a10.83,10.83,0,0,0-.7-4.18,6.92,6.92,0,0,0-1.85-2.66A6.5,6.5,0,0,0,127,10a12,12,0,0,0-3.06-.39H118V27.06h6.13A7.62,7.62,0,0,0,130,24.72,9.31,9.31,0,0,0,132.19,18.18Z"/><path class="cls-1" d="M152.65,9.57V52.33h-4.56V9.57h-9v-4h22.57v4Z"/><path class="cls-1" d="M198.05,51.81a12.58,12.58,0,0,1-6.4,1.65,12.4,12.4,0,0,1-6.8-1.89,16,16,0,0,1-5-5.14,26.15,26.15,0,0,1-3.14-7.76,41.34,41.34,0,0,1-1.09-9.7,41.7,41.7,0,0,1,1.09-9.77,25.74,25.74,0,0,1,3.17-7.75,16,16,0,0,1,5-5.12,12.49,12.49,0,0,1,6.73-1.85,14.05,14.05,0,0,1,6.17,1.39,11.73,11.73,0,0,1,4.79,4.36l-3,3a10.26,10.26,0,0,0-3.53-3.43,8.61,8.61,0,0,0-4.26-1.12,8.3,8.3,0,0,0-5,1.58,12.16,12.16,0,0,0-3.56,4.36,23.87,23.87,0,0,0-2.12,6.47,42.71,42.71,0,0,0-.69,7.85,39.72,39.72,0,0,0,.73,7.82,24.72,24.72,0,0,0,2.14,6.44,12.54,12.54,0,0,0,3.57,4.38,8.14,8.14,0,0,0,5,1.62,7.77,7.77,0,0,0,4.55-1.42,11.25,11.25,0,0,0,3.37-3.73l2.9,3A13.06,13.06,0,0,1,198.05,51.81Z"/><path class="cls-1" d="M237.39,28.9a43.59,43.59,0,0,1-1.06,10,26.08,26.08,0,0,1-3,7.76,15.06,15.06,0,0,1-4.82,5A11.9,11.9,0,0,1,222,53.46a12,12,0,0,1-6.5-1.79,15.21,15.21,0,0,1-4.88-5,25.32,25.32,0,0,1-3.07-7.76,43.59,43.59,0,0,1-1.06-10,45.16,45.16,0,0,1,1-9.93,25.34,25.34,0,0,1,3-7.72,14.84,14.84,0,0,1,4.85-5A12.28,12.28,0,0,1,222,4.48a11.9,11.9,0,0,1,6.47,1.79,15.05,15.05,0,0,1,4.82,5,25.61,25.61,0,0,1,3,7.72A43.33,43.33,0,0,1,237.39,28.9Zm-4.82,0a45.16,45.16,0,0,0-.66-7.92,23.72,23.72,0,0,0-2-6.4,12.64,12.64,0,0,0-3.33-4.29A7.12,7.12,0,0,0,222,8.71a7.45,7.45,0,0,0-4.72,1.58A12.16,12.16,0,0,0,214,14.58a24.47,24.47,0,0,0-2,6.4,45.16,45.16,0,0,0-.66,7.92,45,45,0,0,0,.66,7.92,25.39,25.39,0,0,0,2,6.47,12,12,0,0,0,3.33,4.36A7.45,7.45,0,0,0,222,49.23a7.21,7.21,0,0,0,4.62-1.58,12.17,12.17,0,0,0,3.3-4.36,25.39,25.39,0,0,0,2-6.47A45,45,0,0,0,232.57,28.9Z"/><path class="cls-1" d="M278,52.33V11.74h-.2L266.33,52.33h-4.28L250.66,11.74h-.2V52.33H246.1V5.61H253l11.15,39.46h.26l11-39.46h7.12V52.33Z"/><path class="cls-1" d="M325.1,52.33V11.74h-.19L313.45,52.33h-4.28L297.78,11.74h-.2V52.33h-4.36V5.61h6.87l11.15,39.46h.27l11-39.46h7.13V52.33Z"/><path class="cls-1" d="M365.79,42.8a16.48,16.48,0,0,1-2.24,5.57,10.85,10.85,0,0,1-4.13,3.73,13.5,13.5,0,0,1-6.33,1.36,13.36,13.36,0,0,1-6.31-1.36,10.88,10.88,0,0,1-4.09-3.73,16.05,16.05,0,0,1-2.21-5.57,33.85,33.85,0,0,1-.66-6.84V5.61h4.62V35.37a35.63,35.63,0,0,0,.36,5.08,14.74,14.74,0,0,0,1.32,4.46A8.16,8.16,0,0,0,348.76,48a8.64,8.64,0,0,0,8.75,0,8.06,8.06,0,0,0,2.67-3.13,14.74,14.74,0,0,0,1.32-4.42,35.57,35.57,0,0,0,.36-5.12V5.61h4.62V36A32.43,32.43,0,0,1,365.79,42.8Z"/><path class="cls-1" d="M384.83,9.57V52.33h-4.55V9.57h-9v-4h22.57v4Z"/><path class="cls-1" d="M399.22,52.33V5.61H418V9.7H403.71V26.07h13.4v4h-13.4V48.17h15v4.16Z"/></svg>