<?xml version="1.0" encoding="utf-8"?>
<!-- Generator: Adobe Illustrator 22.1.0, SVG Export Plug-In . SVG Version: 6.00 Build 0)  -->
<svg version="1.1" id="Layer_1" xmlns="http://www.w3.org/2000/svg" xmlns:xlink="http://www.w3.org/1999/xlink" x="0px" y="0px"
	 viewBox="0 0 443 63" style="enable-background:new 0 0 443 63;" xml:space="preserve">
<style type="text/css">
	.st0{fill:#FBF8EC;}
</style>
<title>fitnessB</title>
<path class="st0" d="M18.8,15.1v9.6H30v9H18.9v18.7H8.2V5.6h22.8v9.5L18.8,15.1z"/>
<path class="st0" d="M36,52.3V5.6h10.7v46.7H36z"/>
<path class="st0" d="M69,14.6v37.8H58.7V14.6h-8.6v-9h27.5v9H69z"/>
<path class="st0" d="M101.2,52.3L90.4,23.9h-0.2l0.3,28.4H81V5.6h11.7l10.8,28.9h0.2l-0.2-28.9h9.1v46.7H101.2z"/>
<path class="st0" d="M118.8,52.3V5.6h22.6v9.3H129v9.2h11.5v8.7H129v10h13.3v9.5L118.8,52.3z"/>
<path class="st0" d="M167.8,16.8c-0.8-0.9-1.7-1.6-2.8-2.2c-1-0.5-2.2-0.8-3.3-0.8c-1.2,0-2.3,0.4-3.2,1.1c-1,0.9-1.6,2.3-1.4,3.7
	c-0.1,1.3,0.5,2.6,1.4,3.4c1.3,1,2.8,1.9,4.3,2.7c1.1,0.5,2.2,1.2,3.4,1.9c1.2,0.7,2.3,1.6,3.2,2.7c1,1.1,1.8,2.4,2.4,3.8
	c0.7,1.7,1,3.4,1,5.2c0,2.3-0.4,4.5-1.2,6.6c-1.4,3.6-4.3,6.3-7.9,7.6c-1.8,0.7-3.6,1-5.5,1c-2.6,0-5.3-0.5-7.7-1.6
	c-2.1-0.9-4-2.1-5.6-3.7l5.4-7.9c1,1,2.2,1.9,3.5,2.5c1.2,0.6,2.6,1,4,1c1.2,0,2.4-0.4,3.2-1.2c0.9-0.9,1.4-2.2,1.3-3.5
	c0.1-1.4-0.5-2.7-1.6-3.7c-1.4-1.1-3-2.1-4.6-2.9c-1.2-0.6-2.4-1.3-3.6-2c-1.1-0.7-2.1-1.7-3-2.7c-0.9-1.1-1.6-2.4-2-3.7
	c-0.5-1.6-0.8-3.3-0.7-5c-0.1-2.3,0.4-4.6,1.3-6.7c0.8-1.8,1.9-3.3,3.4-4.6c1.4-1.2,2.9-2.1,4.6-2.6c1.6-0.6,3.4-0.9,5.1-0.9
	c2.3,0,4.7,0.4,6.9,1.2c1.9,0.7,3.7,1.9,5.1,3.3L167.8,16.8z"/>
<path class="st0" d="M195.5,16.8c-0.8-0.9-1.7-1.6-2.8-2.1c-1-0.5-2.2-0.8-3.3-0.8c-1.2,0-2.3,0.4-3.2,1.1c-1,0.9-1.6,2.3-1.4,3.7
	c-0.1,1.3,0.5,2.6,1.4,3.4c1.3,1,2.8,1.9,4.3,2.7c1.1,0.5,2.2,1.2,3.4,1.9c1.2,0.7,2.3,1.6,3.2,2.7c1,1.1,1.8,2.4,2.4,3.8
	c0.7,1.7,1,3.4,1,5.2c0,2.3-0.4,4.5-1.2,6.7c-0.7,1.8-1.8,3.4-3.2,4.8c-1.4,1.3-2.9,2.2-4.7,2.8c-1.8,0.7-3.6,1-5.5,1
	c-2.7,0-5.3-0.5-7.7-1.6c-2.1-0.9-4-2.1-5.6-3.7l5.4-7.9c1,1,2.2,1.9,3.5,2.5c1.2,0.6,2.6,1,4,1c1.2,0,2.4-0.4,3.2-1.2
	c0.9-0.9,1.4-2.2,1.3-3.5c0.1-1.4-0.5-2.7-1.6-3.7c-1.4-1.1-3-2.1-4.6-2.9c-1.2-0.6-2.4-1.3-3.6-2c-1.1-0.7-2.1-1.7-3-2.7
	c-0.9-1.1-1.6-2.4-2-3.7c-0.5-1.6-0.8-3.3-0.7-5c0-2.3,0.4-4.6,1.3-6.7c0.8-1.8,1.9-3.3,3.4-4.6c1.4-1.2,2.9-2.1,4.6-2.6
	c1.6-0.6,3.4-0.9,5.1-0.9c2.3,0,4.7,0.4,6.9,1.2c1.9,0.8,3.6,1.9,5,3.4L195.5,16.8z"/>
<path class="st0" d="M241.4,51.8c-2.4,1.3-5.2,1.9-7.9,1.8c-2.6,0-5.1-0.6-7.4-1.8c-2.3-1.2-4.2-3-5.7-5.1c-1.7-2.4-2.9-5-3.7-7.8
	c-0.9-3.2-1.4-6.6-1.3-9.9c0-3.4,0.4-6.7,1.3-10c0.8-2.8,2-5.4,3.7-7.8c1.5-2.1,3.5-3.8,5.7-5c2.3-1.2,4.8-1.8,7.4-1.8
	c2.7-0.1,5.4,0.4,7.8,1.6c2,1,3.7,2.5,5.1,4.2l-5.7,7.7c-0.7-1-1.6-1.8-2.6-2.5c-1.1-0.6-2.4-1-3.7-0.9c-1.3,0-2.6,0.4-3.7,1.1
	c-1.1,0.8-2,1.9-2.6,3.1c-0.8,1.4-1.3,3-1.6,4.6c-0.4,1.9-0.5,3.8-0.5,5.7c0,1.9,0.2,3.8,0.5,5.7c0.3,1.6,0.8,3.2,1.6,4.6
	c0.6,1.2,1.6,2.3,2.7,3.1c1.1,0.8,2.4,1.1,3.7,1.1c1.3,0,2.6-0.3,3.7-1.1c1-0.6,1.9-1.5,2.5-2.5l5.9,7.3
	C245.1,49.1,243.3,50.6,241.4,51.8z"/>
<path class="st0" d="M251,52.3V5.6h10.7v37h12.5v9.8L251,52.3z"/>
<path class="st0" d="M299.6,52.3l-1.9-8.5h-10.5l-1.9,8.5h-10.6l11.4-46.7h13.3l11.3,46.7L299.6,52.3z M292.6,15.8h-0.3l-4,19.9h8
	L292.6,15.8z"/>
<path class="st0" d="M334.1,16.8c-0.8-0.9-1.7-1.6-2.8-2.1c-1-0.5-2.2-0.8-3.3-0.8c-1.2,0-2.3,0.4-3.2,1.1c-1,0.9-1.6,2.3-1.4,3.7
	c-0.1,1.3,0.5,2.6,1.5,3.4c1.3,1,2.8,1.9,4.3,2.7c1.1,0.5,2.2,1.2,3.4,1.9c1.2,0.7,2.3,1.6,3.2,2.7c1,1.1,1.8,2.4,2.4,3.8
	c0.7,1.7,1,3.4,1,5.2c0,2.3-0.4,4.5-1.2,6.6c-0.7,1.8-1.8,3.4-3.2,4.8c-1.3,1.3-2.9,2.2-4.7,2.9c-1.8,0.7-3.6,1-5.5,1
	c-2.7,0-5.3-0.5-7.7-1.6c-2.1-0.9-4-2.1-5.6-3.7l5.4-7.9c1,1,2.2,1.9,3.5,2.5c1.2,0.6,2.6,1,4,1c1.2,0,2.4-0.4,3.2-1.2
	c0.9-0.9,1.4-2.2,1.3-3.5c0.1-1.4-0.5-2.7-1.6-3.7c-1.4-1.1-3-2.1-4.6-2.9c-1.2-0.6-2.4-1.3-3.6-2c-1.1-0.7-2.1-1.7-3-2.7
	c-0.9-1.1-1.6-2.4-2-3.7c-0.5-1.6-0.8-3.3-0.7-5c-0.1-2.3,0.4-4.6,1.3-6.7c0.8-1.8,1.9-3.3,3.4-4.6c1.4-1.2,2.9-2.1,4.6-2.6
	c1.6-0.6,3.4-0.9,5.1-0.9c2.3,0,4.7,0.4,6.9,1.2c1.9,0.7,3.7,1.9,5.1,3.3L334.1,16.8z"/>
<path class="st0" d="M361.9,16.8c-0.8-0.9-1.7-1.6-2.8-2.1c-1-0.5-2.2-0.8-3.3-0.8c-1.2,0-2.3,0.4-3.2,1.1c-1,0.9-1.6,2.3-1.4,3.7
	c-0.1,1.3,0.5,2.6,1.5,3.4c1.3,1,2.8,1.9,4.3,2.7c1.1,0.5,2.2,1.2,3.4,1.9c1.2,0.7,2.3,1.6,3.2,2.7c1,1.1,1.8,2.4,2.4,3.8
	c0.7,1.7,1,3.4,1,5.2c0,2.3-0.4,4.5-1.2,6.7c-0.7,1.8-1.8,3.4-3.2,4.8c-1.4,1.3-2.9,2.2-4.7,2.8c-1.8,0.7-3.6,1-5.5,1
	c-2.7,0-5.3-0.5-7.7-1.6c-2.1-0.9-4-2.1-5.6-3.7l5.4-7.9c1,1,2.2,1.9,3.5,2.5c1.2,0.6,2.6,1,4,1c1.2,0,2.4-0.4,3.2-1.2
	c0.9-0.9,1.4-2.2,1.3-3.5c0.1-1.4-0.5-2.7-1.6-3.7c-1.4-1.1-3-2.1-4.6-2.9c-1.2-0.6-2.4-1.3-3.6-2c-1.1-0.7-2.1-1.6-3-2.7
	c-0.9-1.1-1.6-2.4-2-3.7c-0.5-1.6-0.8-3.3-0.7-5c-0.1-2.3,0.4-4.6,1.3-6.7c0.8-1.8,1.9-3.3,3.4-4.6c1.4-1.2,2.9-2.1,4.6-2.6
	c1.6-0.6,3.4-0.9,5.1-0.9c2.3,0,4.7,0.4,6.9,1.2c1.9,0.7,3.7,1.9,5.1,3.3L361.9,16.8z"/>
<path class="st0" d="M370.3,52.3V5.6h22.6v9.3h-12.5v9.2h11.5v8.7h-11.5v10h13.3v9.5L370.3,52.3z"/>
<path class="st0" d="M419.2,16.8c-0.8-0.9-1.7-1.6-2.8-2.1c-1-0.5-2.2-0.8-3.3-0.8c-1.2,0-2.3,0.4-3.2,1.1c-1,0.9-1.6,2.3-1.4,3.7
	c-0.1,1.3,0.5,2.6,1.5,3.4c1.3,1,2.8,1.9,4.3,2.7c1.1,0.5,2.2,1.2,3.4,1.9c1.2,0.7,2.3,1.6,3.2,2.7c1,1.1,1.8,2.4,2.4,3.8
	c0.7,1.7,1,3.4,1,5.2c0,2.3-0.4,4.5-1.3,6.6c-0.7,1.8-1.8,3.4-3.2,4.8c-1.4,1.3-2.9,2.2-4.7,2.8c-1.8,0.7-3.6,1-5.5,1
	c-2.6,0-5.2-0.5-7.6-1.6c-2.1-0.9-4-2.1-5.6-3.7l5.4-7.9c1,1,2.2,1.9,3.5,2.5c1.2,0.6,2.6,1,4,1c1.2,0,2.4-0.4,3.2-1.2
	c0.9-0.9,1.4-2.2,1.3-3.5c0.1-1.4-0.5-2.7-1.6-3.7c-1.4-1.1-3-2.1-4.6-2.9c-1.2-0.6-2.4-1.3-3.6-2c-1.1-0.7-2.1-1.7-3-2.7
	c-0.9-1.1-1.6-2.4-2-3.7c-0.5-1.6-0.8-3.3-0.7-5c-0.1-2.3,0.4-4.6,1.3-6.7c0.8-1.8,1.9-3.4,3.4-4.7c1.4-1.2,2.9-2.1,4.6-2.6
	c1.6-0.6,3.4-0.9,5.1-0.9c2.3,0,4.7,0.4,6.9,1.2c1.9,0.8,3.7,1.9,5.1,3.4L419.2,16.8z"/>
</svg>
