<?xml version="1.0" encoding="utf-8"?>
<!-- Generator: Adobe Illustrator 22.1.0, SVG Export Plug-In . SVG Version: 6.00 Build 0)  -->
<svg version="1.1" id="Layer_1" xmlns="http://www.w3.org/2000/svg" xmlns:xlink="http://www.w3.org/1999/xlink" x="0px" y="0px"
	 viewBox="0 0 411 63" style="enable-background:new 0 0 411 63;" xml:space="preserve">
<style type="text/css">
	.st0{fill:#FBF8EC;}
</style>
<title>fitnessL</title>
<path class="st0" d="M13.9,9.8v16.8H27v4H13.9v21.8H9.4V5.6H28v4.2H13.9z"/>
<path class="st0" d="M35.5,52.3V5.6h4.6v46.7H35.5z"/>
<path class="st0" d="M59,9.6v42.8h-4.6V9.6h-9v-4H68v4H59z"/>
<path class="st0" d="M94.2,52.3L77.9,13.5h-0.2v38.9h-4.4V5.6h5.7l16.2,38.9h0.2V5.6h4.2v46.7H94.2z"/>
<path class="st0" d="M110.4,52.3V5.6h18.8v4.1h-14.3v16.4h13.4v4h-13.4v18.1h15v4.2L110.4,52.3z"/>
<path class="st0" d="M158.3,40.4c0,1.9-0.3,3.7-0.9,5.5c-0.6,1.5-1.4,2.9-2.5,4.1c-1.1,1.1-2.4,2-3.8,2.6c-1.5,0.6-3,0.9-4.6,0.9
	c-2.3,0-4.5-0.5-6.6-1.5c-1.9-0.9-3.6-2.3-4.9-4l2.8-3.2c1,1.4,2.3,2.5,3.8,3.3c1.4,0.8,3.1,1.2,4.7,1.2c2,0.1,3.9-0.7,5.3-2.2
	c1.5-1.8,2.3-4.1,2.1-6.4c0-1.2-0.2-2.4-0.7-3.5c-0.4-1-1-1.9-1.8-2.7c-0.8-0.8-1.6-1.5-2.6-2.1c-1-0.6-2-1.2-3-1.7
	c-1.3-0.6-2.5-1.3-3.6-2.1c-1.1-0.7-2.1-1.6-3-2.7c-0.9-1.1-1.6-2.3-2.1-3.6c-0.6-1.6-0.8-3.2-0.8-4.9c0-1.9,0.3-3.8,1-5.6
	c0.6-1.5,1.5-2.9,2.7-4c1.1-1.1,2.4-1.9,3.8-2.4c1.4-0.5,2.9-0.8,4.4-0.8c2,0,3.9,0.3,5.7,1.1c1.7,0.7,3.2,1.9,4.2,3.4l-2.8,3.2
	c-0.8-1.2-1.8-2.1-3.1-2.7c-1.2-0.6-2.5-0.8-3.9-0.8c-0.9,0-1.9,0.2-2.7,0.5c-0.9,0.3-1.7,0.9-2.4,1.6c-0.7,0.8-1.3,1.7-1.7,2.7
	c-0.5,1.2-0.7,2.6-0.7,3.9c0,1.2,0.2,2.3,0.6,3.4c0.4,0.9,0.9,1.8,1.6,2.5c0.7,0.8,1.5,1.4,2.4,2c0.9,0.6,1.8,1.1,2.8,1.6
	c1.3,0.6,2.5,1.3,3.6,2.1c1.2,0.8,2.3,1.7,3.3,2.8c1,1.1,1.8,2.3,2.3,3.7C158,37,158.3,38.7,158.3,40.4z"/>
<path class="st0" d="M186.9,40.4c0,1.9-0.3,3.7-0.9,5.5c-0.6,1.5-1.4,2.9-2.6,4.1c-1.1,1.1-2.4,2-3.8,2.6c-1.5,0.6-3,0.9-4.6,0.9
	c-2.3,0-4.5-0.5-6.6-1.5c-1.9-0.9-3.6-2.3-4.9-4l2.8-3.2c1,1.4,2.3,2.5,3.8,3.3c1.5,0.8,3.1,1.2,4.7,1.2c2,0,3.9-0.8,5.3-2.2
	c1.5-1.8,2.3-4.1,2.1-6.4c0-1.2-0.2-2.4-0.7-3.5c-0.4-1-1-1.9-1.8-2.7c-0.8-0.8-1.6-1.5-2.5-2.1c-1-0.6-2-1.2-3-1.7
	c-1.3-0.6-2.5-1.3-3.6-2.1c-1.1-0.7-2.1-1.6-3-2.7c-0.9-1.1-1.6-2.3-2.1-3.6c-0.6-1.6-0.8-3.2-0.8-4.9c0-1.9,0.3-3.8,1-5.6
	c0.6-1.5,1.5-2.9,2.7-4c1.1-1.1,2.4-1.9,3.8-2.4c1.4-0.5,2.9-0.8,4.4-0.8c2,0,3.9,0.3,5.7,1.1c1.7,0.7,3.1,1.9,4.2,3.4l-2.8,3.2
	c-0.8-1.2-1.8-2.1-3.1-2.7c-1.2-0.6-2.6-0.8-3.9-0.8c-0.9,0-1.9,0.2-2.7,0.5c-0.9,0.3-1.7,0.9-2.4,1.6c-0.8,0.8-1.3,1.7-1.7,2.7
	c-0.5,1.2-0.7,2.6-0.7,3.9c0,1.2,0.2,2.3,0.6,3.4c0.4,0.9,0.9,1.8,1.6,2.6c0.7,0.8,1.5,1.4,2.4,2c0.9,0.6,1.8,1.1,2.8,1.6
	c1.3,0.6,2.5,1.3,3.7,2.1c1.2,0.8,2.3,1.7,3.3,2.8c1,1.1,1.8,2.3,2.3,3.7C186.6,37,186.9,38.7,186.9,40.4z"/>
<path class="st0" d="M227.9,51.8c-1.9,1.1-4.2,1.7-6.4,1.7c-2.4,0-4.8-0.6-6.8-1.9c-2-1.3-3.7-3.1-5-5.1c-1.5-2.4-2.5-5-3.1-7.8
	c-0.7-3.2-1.1-6.4-1.1-9.7c0-3.3,0.3-6.6,1.1-9.8c0.6-2.7,1.7-5.4,3.2-7.8c1.3-2.1,3-3.8,5.1-5.1c2-1.2,4.4-1.9,6.7-1.8
	c2.1,0,4.2,0.5,6.2,1.4c2,1,3.6,2.5,4.8,4.4l-3,3c-0.9-1.4-2.1-2.6-3.5-3.4c-1.3-0.7-2.8-1.1-4.3-1.1c-1.8,0-3.6,0.5-5.1,1.6
	c-1.5,1.2-2.7,2.6-3.6,4.4c-1,2.1-1.7,4.2-2.1,6.5c-0.5,2.6-0.7,5.2-0.7,7.9c0,2.6,0.2,5.2,0.7,7.8c0.4,2.2,1.1,4.4,2.1,6.4
	c0.8,1.7,2.1,3.2,3.6,4.4c1.5,1.1,3.2,1.7,5.1,1.6c1.6,0,3.2-0.5,4.6-1.4c1.4-1,2.5-2.2,3.4-3.7l2.9,3
	C231.5,49,229.8,50.7,227.9,51.8z"/>
<path class="st0" d="M239.1,52.3V5.6h4.6V48H257v4.3L239.1,52.3z"/>
<path class="st0" d="M282.7,52.3l-2.8-11.7h-14.4l-3,11.7h-4.7l11.9-46.7h6.3l11.5,46.7L282.7,52.3z M272.8,9.8h-0.3L266.1,37h13.1
	L272.8,9.8z"/>
<path class="st0" d="M313.5,40.4c0,1.9-0.3,3.7-0.9,5.5c-0.6,1.5-1.4,2.9-2.5,4.1c-1.1,1.1-2.4,2-3.8,2.6c-1.5,0.6-3,0.9-4.6,0.9
	c-2.3,0-4.5-0.5-6.6-1.5c-1.9-0.9-3.6-2.3-4.9-4l2.8-3.2c1,1.4,2.3,2.5,3.8,3.3c1.4,0.8,3,1.2,4.7,1.2c2,0.1,3.9-0.7,5.3-2.2
	c1.5-1.8,2.3-4.1,2.1-6.4c0-1.2-0.2-2.4-0.7-3.5c-0.4-1-1-1.9-1.8-2.7c-0.8-0.8-1.6-1.5-2.5-2.1c-1-0.6-2-1.2-3-1.7
	c-1.3-0.6-2.5-1.3-3.6-2.1c-1.1-0.7-2.1-1.6-3-2.7c-0.9-1.1-1.6-2.3-2.1-3.6c-0.6-1.6-0.8-3.2-0.8-4.9c0-1.9,0.3-3.8,1-5.6
	c0.6-1.5,1.5-2.9,2.7-4c1.1-1.1,2.3-1.9,3.7-2.4c1.4-0.5,2.9-0.8,4.4-0.8c2,0,3.9,0.3,5.7,1.1c1.7,0.7,3.2,1.9,4.3,3.4l-2.8,3.2
	c-0.8-1.2-1.8-2.1-3.1-2.7c-1.2-0.6-2.6-0.8-3.9-0.8c-0.9,0-1.9,0.2-2.7,0.5c-0.9,0.3-1.7,0.9-2.4,1.6c-0.8,0.8-1.3,1.7-1.7,2.7
	c-0.5,1.2-0.7,2.6-0.7,3.9c0,1.2,0.2,2.3,0.6,3.4c0.4,0.9,0.9,1.8,1.6,2.6c0.7,0.8,1.5,1.4,2.4,2c0.9,0.6,1.8,1.1,2.8,1.6
	c1.3,0.6,2.5,1.3,3.7,2.1c1.2,0.8,2.3,1.7,3.3,2.8c1,1.1,1.8,2.3,2.3,3.7C313.3,37,313.6,38.7,313.5,40.4z"/>
<path class="st0" d="M342.2,40.4c0,1.9-0.3,3.7-0.9,5.5c-0.6,1.5-1.4,2.9-2.5,4.1c-1.1,1.1-2.4,2-3.8,2.6c-1.5,0.6-3,0.9-4.6,0.9
	c-2.3,0-4.5-0.5-6.6-1.5c-1.9-0.9-3.6-2.3-4.9-4l2.8-3.2c1,1.4,2.3,2.5,3.8,3.3c1.4,0.8,3.1,1.2,4.7,1.2c2,0.1,3.9-0.7,5.3-2.2
	c1.5-1.8,2.3-4.1,2.1-6.4c0-1.2-0.2-2.4-0.7-3.5c-0.4-1-1-1.9-1.8-2.7c-0.8-0.8-1.6-1.5-2.5-2.1c-1-0.6-2-1.2-3-1.7
	c-1.3-0.6-2.5-1.3-3.6-2.1c-1.1-0.7-2.1-1.6-3-2.7c-0.9-1.1-1.6-2.3-2.1-3.6c-0.6-1.6-0.8-3.2-0.8-4.9c0-1.9,0.3-3.8,1-5.6
	c0.6-1.5,1.5-2.9,2.7-4c1.1-1.1,2.4-1.9,3.8-2.4c1.4-0.5,2.9-0.8,4.4-0.8c2,0,3.9,0.3,5.7,1.1c1.7,0.7,3.2,1.9,4.3,3.4l-2.8,3.2
	c-0.8-1.2-1.8-2.1-3.1-2.7c-1.2-0.6-2.5-0.8-3.9-0.8c-0.9,0-1.9,0.2-2.7,0.5c-0.9,0.3-1.7,0.9-2.4,1.6c-0.8,0.8-1.3,1.7-1.7,2.7
	c-0.5,1.2-0.7,2.6-0.7,3.9c0,1.2,0.2,2.3,0.6,3.4c0.4,0.9,0.9,1.8,1.6,2.6c0.7,0.8,1.5,1.4,2.4,2c0.9,0.6,1.8,1.1,2.8,1.6
	c1.3,0.6,2.5,1.3,3.7,2.1c1.2,0.8,2.3,1.7,3.2,2.7c1,1.1,1.8,2.3,2.3,3.7C341.9,37,342.2,38.7,342.2,40.4z"/>
<path class="st0" d="M350.6,52.3V5.6h18.8v4.1h-14.3v16.4h13.4v4h-13.4v18.1h15v4.2L350.6,52.3z"/>
<path class="st0" d="M398.4,40.4c0,1.9-0.3,3.7-0.9,5.5c-0.6,1.5-1.4,2.9-2.5,4.1c-1.1,1.1-2.4,2-3.8,2.6c-1.5,0.6-3,0.9-4.6,0.9
	c-2.3,0-4.5-0.5-6.6-1.5c-1.9-0.9-3.6-2.3-4.9-4l2.9-3.3c1,1.4,2.3,2.5,3.8,3.3c1.4,0.8,3.1,1.2,4.7,1.2c2,0.1,3.9-0.7,5.3-2.2
	c1.5-1.8,2.3-4.1,2.1-6.4c0-1.2-0.2-2.4-0.7-3.5c-0.4-1-1-1.9-1.8-2.7c-0.7-0.8-1.6-1.5-2.5-2.1c-1-0.6-2-1.2-3-1.7
	c-1.3-0.6-2.5-1.3-3.6-2.1c-1.1-0.7-2.1-1.6-3-2.7c-0.9-1.1-1.6-2.3-2.1-3.6c-0.6-1.6-0.8-3.2-0.8-4.9c0-1.9,0.3-3.8,1-5.6
	c0.6-1.5,1.5-2.9,2.7-4c1.1-1.1,2.4-1.9,3.8-2.4c1.4-0.5,2.9-0.8,4.4-0.8c1.9,0,3.8,0.3,5.6,1.1c1.7,0.7,3.2,1.9,4.3,3.4l-2.8,3.2
	c-0.8-1.2-1.8-2.1-3.1-2.7c-1.2-0.6-2.5-0.8-3.9-0.8c-0.9,0-1.9,0.2-2.7,0.5c-0.9,0.3-1.7,0.9-2.4,1.6c-0.7,0.8-1.3,1.7-1.7,2.7
	c-0.5,1.2-0.7,2.6-0.7,3.9c0,1.2,0.2,2.3,0.6,3.4c0.4,0.9,0.9,1.8,1.6,2.6c0.7,0.8,1.5,1.4,2.4,2c0.9,0.6,1.8,1.1,2.8,1.6
	c1.3,0.6,2.5,1.3,3.7,2.1c1.2,0.8,2.3,1.7,3.3,2.8c1,1.1,1.8,2.3,2.3,3.7C398.2,37,398.5,38.7,398.4,40.4z"/>
</svg>
