<svg id="Layer_1" data-name="Layer 1" xmlns="http://www.w3.org/2000/svg" viewBox="0 0 443 63"><defs><style>.cls-1{fill:#fbf8ec;}</style></defs><title>runningB</title><path class="cls-1" d="M27.68,52.33,21.43,33.72H18.34V52.33H8.17V5.6h15q6.78,0,10.54,3.54t3.75,10.52a16.76,16.76,0,0,1-.59,4.62,12.84,12.84,0,0,1-1.55,3.5,9.9,9.9,0,0,1-2.13,2.38,8.59,8.59,0,0,1-2.31,1.32l8,20.85Zm-.63-32.07a7.28,7.28,0,0,0-.5-2.91,4.92,4.92,0,0,0-1.28-1.78,4.22,4.22,0,0,0-1.75-.89,8.26,8.26,0,0,0-1.88-.23h-3.3V26.26h3.1a5.92,5.92,0,0,0,3.93-1.42Q27.05,23.43,27.05,20.26Z"/><path class="cls-1" d="M71.5,42.3a16.41,16.41,0,0,1-2.81,5.87,13.11,13.11,0,0,1-4.95,4,16.79,16.79,0,0,1-7.32,1.46,16.39,16.39,0,0,1-7.26-1.46,13,13,0,0,1-4.85-4A15.93,15.93,0,0,1,41.6,42.3,30.4,30.4,0,0,1,40.78,35V5.6H51.4V34.12a28.31,28.31,0,0,0,.23,3.69,9.64,9.64,0,0,0,.83,2.94,5.18,5.18,0,0,0,1.58,2,5,5,0,0,0,5.15,0,5.18,5.18,0,0,0,1.58-2,9.64,9.64,0,0,0,.83-2.94,28.31,28.31,0,0,0,.23-3.69V5.6H72.39V35A28.43,28.43,0,0,1,71.5,42.3Z"/><path class="cls-1" d="M97.8,52.33,87,23.89h-.2L87,52.33H77.6V5.6H89.22L100,34.45h.2L100,5.6h9.1V52.33Z"/><path class="cls-1" d="M135.29,52.33,124.46,23.89h-.19l.26,28.44h-9.44V5.6h11.62l10.76,28.85h.19L137.47,5.6h9.1V52.33Z"/><path class="cls-1" d="M152.58,52.33V5.6h10.63V52.33Z"/><path class="cls-1" d="M189.41,52.33,178.58,23.89h-.2l.27,28.44h-9.44V5.6h11.62l10.75,28.85h.2l-.2-28.85h9.11V52.33Z"/><path class="cls-1" d="M231,52.33a23.51,23.51,0,0,1-7.46,1.06,16.52,16.52,0,0,1-13.76-6.77,23.26,23.26,0,0,1-3.7-7.68,36.1,36.1,0,0,1-1.29-10,36.37,36.37,0,0,1,1.29-10,24.73,24.73,0,0,1,3.66-7.79,16.92,16.92,0,0,1,5.71-5,15.48,15.48,0,0,1,7.43-1.78A17.48,17.48,0,0,1,230.82,6,14.17,14.17,0,0,1,235.87,10l-5.74,7.72a7.6,7.6,0,0,0-6.5-3.3,6.25,6.25,0,0,0-3.78,1.15,9.15,9.15,0,0,0-2.65,3.14,15.89,15.89,0,0,0-1.56,4.62,30.43,30.43,0,0,0-.49,5.61,32.34,32.34,0,0,0,.46,5.61,16.18,16.18,0,0,0,1.49,4.62,9.31,9.31,0,0,0,2.59,3.17,6.92,6.92,0,0,0,7.47.19V33.85h-5V24.68H236.4V49.56A18.24,18.24,0,0,1,231,52.33Z"/><path class="cls-1" d="M267.68,14.58V52.33H257.32V14.58h-8.58v-9h27.52v9Z"/><path class="cls-1" d="M299.86,52.33l-6.25-18.61h-3.09V52.33H280.35V5.6H295.3q6.78,0,10.54,3.54t3.75,10.52a16.76,16.76,0,0,1-.59,4.62,12.55,12.55,0,0,1-1.55,3.5,9.7,9.7,0,0,1-2.13,2.38A8.59,8.59,0,0,1,303,31.48l8,20.85Zm-.63-32.07a7.29,7.29,0,0,0-.49-2.91,4.82,4.82,0,0,0-1.29-1.78,4.22,4.22,0,0,0-1.75-.89,8.26,8.26,0,0,0-1.88-.23h-3.3V26.26h3.1a5.9,5.9,0,0,0,3.93-1.42Q299.23,23.43,299.23,20.26Z"/><path class="cls-1" d="M336.78,52.33l-1.91-8.51H324.38l-1.92,8.51H311.9L323.25,5.6h13.27l11.29,46.73Zm-7-36.56h-.27l-4,19.86h8Z"/><path class="cls-1" d="M351.9,52.33V5.6h10.62V52.33Z"/><path class="cls-1" d="M370.84,52.33V5.6h10.69v37H394v9.77Z"/><path class="cls-1" d="M418.09,16.76a8.33,8.33,0,0,0-2.77-2.15,7.6,7.6,0,0,0-3.3-.76,5,5,0,0,0-3.2,1.13,4.43,4.43,0,0,0-1.42,3.7,4.24,4.24,0,0,0,1.45,3.41,24,24,0,0,0,4.29,2.67q1.61.79,3.36,1.89a15.35,15.35,0,0,1,3.22,2.67,13.59,13.59,0,0,1,2.43,3.81,13.09,13.09,0,0,1,1,5.25,17.19,17.19,0,0,1-1.2,6.65,13.44,13.44,0,0,1-3.22,4.76A13.65,13.65,0,0,1,414,52.63a15.94,15.94,0,0,1-5.49,1A18.24,18.24,0,0,1,400.83,52a18.75,18.75,0,0,1-5.57-3.69l5.41-7.92a12.23,12.23,0,0,0,3.5,2.54,9.11,9.11,0,0,0,4,1,4.51,4.51,0,0,0,3.24-1.25,4.58,4.58,0,0,0,1.32-3.5,4.55,4.55,0,0,0-1.59-3.66,23,23,0,0,0-4.62-2.87A30.45,30.45,0,0,1,403,30.55a12.93,12.93,0,0,1-3-2.7,12.11,12.11,0,0,1-2-3.7,15.61,15.61,0,0,1-.72-5,16.07,16.07,0,0,1,1.28-6.69,13.17,13.17,0,0,1,3.37-4.59,13.86,13.86,0,0,1,4.62-2.64,16,16,0,0,1,5.12-.86,18,18,0,0,1,6.86,1.25A14.41,14.41,0,0,1,423.57,9Z"/></svg>