<?xml version="1.0" encoding="utf-8"?>
<!-- Generator: Adobe Illustrator 22.1.0, SVG Export Plug-In . SVG Version: 6.00 Build 0)  -->
<svg version="1.1" id="Layer_1" xmlns="http://www.w3.org/2000/svg" xmlns:xlink="http://www.w3.org/1999/xlink" x="0px" y="0px"
	 viewBox="0 0 272 55.2" style="enable-background:new 0 0 272 55.2;" xml:space="preserve">
<style type="text/css">
	.st0{fill:#FBF8EC;}
	.st1{fill:#EC964E;}
</style>
<g>
	<path class="st0" d="M67,16.1v9.6h11.2v9.1H67v18.7H56.3v-47h22.9v9.6H67z"/>
	<path class="st0" d="M85.4,53.5v-47h10.7v47H85.4z"/>
	<path class="st0" d="M125.2,53.5l-10.9-28.6h-0.2l0.3,28.6h-9.5v-47h11.7l10.8,29h0.2l-0.2-29h9.2v47H125.2z"/>
	<path class="st0" d="M178,30.1c0,3.5-0.4,6.7-1.2,9.6c-0.8,2.9-2,5.3-3.6,7.4c-1.6,2-3.6,3.6-6.1,4.7c-2.5,1.1-5.4,1.7-8.7,1.7
		h-13.2v-47h13.2c3.4,0,6.3,0.6,8.7,1.7c2.5,1.1,4.5,2.7,6.1,4.7s2.8,4.5,3.6,7.4C177.7,23.2,178,26.5,178,30.1z M167.4,30.1
		c0-4.7-0.8-8.3-2.4-10.7c-1.6-2.4-3.7-3.6-6.3-3.6h-2.6v28.4h2.6c2.6,0,4.7-1.2,6.3-3.6C166.6,38.2,167.4,34.7,167.4,30.1z"/>
	<path class="st1" d="M219.9,53.5l0.4-32.3H220l-7.9,32.3h-7.5L197,21.2h-0.2l0.3,32.3h-9.6v-47h13.4l7.6,30.3h0.3l7.4-30.3h14.2v47
		H219.9z"/>
	<path class="st1" d="M257.2,36.6v16.9h-10.4V36.6L234.9,6.5h11.5L252,26h0.1l5.7-19.4h11.3L257.2,36.6z"/>
</g>
<path class="st0" d="M295-73.6c-0.8-0.9-1.7-1.6-2.8-2.2c-1.1-0.5-2.2-0.8-3.3-0.8c-1.2,0-2.3,0.4-3.2,1.1c-1,0.8-1.4,2-1.4,3.7
	c0,1.5,0.5,2.6,1.5,3.4c1,0.8,2.4,1.7,4.3,2.7c1.1,0.5,2.2,1.2,3.4,1.9c1.2,0.7,2.3,1.6,3.2,2.7c1,1.1,1.8,2.3,2.4,3.8
	c0.6,1.5,1,3.2,1,5.3c0,2.5-0.4,4.8-1.2,6.7s-1.9,3.5-3.2,4.8c-1.4,1.3-2.9,2.2-4.7,2.9c-1.8,0.6-3.6,1-5.5,1
	c-2.8,0-5.4-0.5-7.7-1.6s-4.2-2.3-5.6-3.7l5.4-8c1,1.1,2.2,1.9,3.5,2.6c1.3,0.6,2.7,1,4,1c1.3,0,2.4-0.4,3.3-1.3
	c0.9-0.8,1.3-2,1.3-3.5c0-1.5-0.5-2.8-1.6-3.7c-1.1-0.9-2.6-1.9-4.6-2.9c-1.3-0.6-2.5-1.3-3.6-2.1c-1.1-0.8-2.1-1.7-3-2.7
	c-0.9-1.1-1.5-2.3-2-3.7c-0.5-1.4-0.7-3.1-0.7-5c0-2.6,0.4-4.9,1.3-6.7c0.9-1.9,2-3.4,3.4-4.6c1.4-1.2,2.9-2.1,4.6-2.7
	c1.7-0.6,3.4-0.9,5.1-0.9c2.6,0,4.9,0.4,6.9,1.3c2,0.8,3.7,2,5.1,3.4L295-73.6z"/>
<path class="st0" d="M306.6-37.8v-47h22.7v9.4h-12.5v9.2h11.5v8.8h-11.5v10.1h13.3v9.6H306.6z"/>
<path class="st0" d="M359.2-37.8l-1.9-8.6h-10.6l-1.9,8.6h-10.6l11.4-47h13.3l11.3,47H359.2z M352.2-74.6h-0.3l-4,20h8L352.2-74.6z"
	/>
<path class="st0" d="M387.7-75.8v38h-10.4v-38h-8.6v-9h27.7v9H387.7z"/>
<path class="st0" d="M414.4-75.8v38h-10.4v-38h-8.6v-9H423v9H414.4z"/>
<path class="st0" d="M428-37.8v-47h10.8v37.2h12.5v9.8H428z"/>
<path class="st0" d="M456.6-37.8v-47h22.7v9.4h-12.5v9.2h11.5v8.8h-11.5v10.1h13.3v9.6H456.6z"/>
<path class="st1" d="M18.8,1.1C8.5,1.1,0,9.3,0,19.5c0,3.4,1,6.8,2.8,9.7l15,23.6c0.6,1,2.1,1,2.7,0L35,28.9
	c1.7-2.8,2.7-6.1,2.7-9.4C37.7,9.3,29.2,1.1,18.8,1.1z M18.8,25.4c-3.6,0-6.5-2.9-6.5-6.5s2.9-6.5,6.5-6.5s6.5,2.9,6.5,6.5
	S22.4,25.4,18.8,25.4z"/>
</svg>
