<svg id="_728x90_copy1.svg" data-name="728x90/copy1.svg" xmlns="http://www.w3.org/2000/svg" width="357.906" height="369.437" viewBox="0 0 357.906 369.437">
  <defs>
    <style>
      .cls-1 {
        fill: #fff;
      }

      .cls-1, .cls-2 {
        fill-rule: evenodd;
      }

      .cls-2 {
        fill: none;
        stroke: #fff;
        stroke-width: 3px;
      }
    </style>
  </defs>
  <path id="primary_care_from" data-name="primary care from" class="cls-1" d="M94.368,293.09l1.175,5.118,8.151-1.872,0.831,3.619c1.158,5.044,4.682,8.661,10.494,7.326s7.378-6.08,6.211-11.161l-2.006-8.737ZM108.19,295.3l7.713-1.771,0.8,3.473c0.563,2.449-.111,4.374-2.889,5.011-2.742.63-4.244-.718-4.824-3.241Zm-7.325,23.255,1.918,4.888,8.24-3.231,1.218,3.107-6.35,8.05,2.191,5.587,6.851-8.931a7.506,7.506,0,0,0,8.769,1.918c5.552-2.177,6.26-7.047,4.357-11.9l-3.451-8.8Zm14.278,0.041,7.088-2.78,1.478,3.771c0.918,2.339.675,4.288-1.979,5.328-2.618,1.028-4.164-.139-5.108-2.548Zm-3.417,25.155,2.471,4.632,22.5-12-2.47-4.632Zm6.724,12.769,2.951,4.068,7.741-5.617c1.4-1.013,3.5-2.772,3.5-2.772a45.059,45.059,0,0,0-1.306,4.33l-1.61,7.424,0.286,0.394,7.557,0.773a45.1,45.1,0,0,0,4.522.1s-2.326,1.456-3.723,2.469l-7.74,5.617,2.973,4.1,20.854-15.131-0.264-.364L135.754,360l3.793-18.274-0.243-.334Zm20.005,26.3,3.65,3.507,3.418-1.5,7.139,6.857-1.362,3.475,3.975,3.818,9.408-26.629-0.324-.311Zm11.378,0.063,3.838-1.669c1.734-.777,4.119-2.178,4.224-2.233-0.127.241-1.379,2.627-2.034,4.337l-1.512,3.9Zm11.14,20.517,4.3,3.007,5.07-7.255,2.736,1.912-0.827,10.219,4.919,3.437,0.755-11.23a7.5,7.5,0,0,0,8.363-3.261c3.416-4.888,1.307-9.335-2.966-12.321l-7.747-5.413Zm11.908-7.875,4.361-6.241,3.32,2.32c2.06,1.439,2.937,3.2,1.3,5.532-1.611,2.306-3.544,2.191-5.665.708Zm16.113,25.554,4.724,2.373,4.359-8.678,14.458-10.4-4.825-2.423-6.2,4.65c-1.68,1.254-3.931,3.4-3.931,3.4s0.342-3.185.312-5.214l-0.1-7.815-5.26-2.642,0.653,18.413Zm42.039,15.851a12,12,0,0,0,11.671-2.981l-3.317-3.69a7.269,7.269,0,0,1-7.258,2.113c-4.485-1.078-6.662-5.343-5.548-9.974s4.972-7.368,9.457-6.289a6.952,6.952,0,0,1,5.237,4.691l4.567-1.833c-1.391-4-4.214-6.375-8.7-7.453A13.07,13.07,0,1,0,231.033,436.929Zm15.07,2.854,5.047,0.389,1.686-3.33,9.869,0.76,1.156,3.549,5.5,0.423L259.7,415.033,259.256,415Zm8.826-7.18,1.9-3.726c0.846-1.7,1.8-4.3,1.844-4.409,0.055,0.268.6,2.9,1.184,4.642l1.312,3.974Zm21.66,8.767,5.233-.412-0.694-8.821,3.327-.262,5.852,8.416,5.98-.471-6.549-9.15a7.5,7.5,0,0,0,4.386-7.829c-0.467-5.943-4.92-8.038-10.115-7.629l-9.419.741Zm4.192-13.644-0.6-7.587,4.037-.318c2.5-.2,4.3.6,4.521,3.443,0.22,2.8-1.345,3.942-3.924,4.145ZM303.8,438.5l16.959-3.9-1.036-4.5-11.841,2.727-1.33-5.775,9.978-2.3-1.01-4.386-9.978,2.3-1.313-5.7,11.33-2.609-1.035-4.5-16.446,3.787Zm36.477-10.7,4.767-2.2-4.009-8.683,9.227-4.26-1.965-4.256-9.227,4.26-2.783-6.027,10.147-4.684-1.934-4.188-14.913,6.885Zm22.106-10.823,4.4-2.864-4.828-7.415,2.8-1.821,9.164,4.592,5.027-3.273-10.127-4.9a7.5,7.5,0,0,0,.108-8.974c-3.253-5-8.165-4.706-12.532-1.863l-7.919,5.155Zm-2.843-13.987-4.152-6.379,3.393-2.209c2.1-1.371,4.062-1.526,5.617.862,1.534,2.357.7,4.1-1.464,5.517Zm34.928-9a13.085,13.085,0,1,0-18.509-1.671A12.912,12.912,0,0,0,394.465,393.989Zm-2.987-3.612c-3.582,2.964-8.327,2.169-11.362-1.5s-2.926-8.479.656-11.442,8.327-2.168,11.362,1.5S395.06,387.414,391.478,390.377Zm18.779-10.964,3.185-3.886-7.395-6.061c-1.334-1.093-3.569-2.683-3.569-2.683a45.067,45.067,0,0,0,4.518.165l7.588-.326,0.309-.377-1.17-7.5a45.166,45.166,0,0,0-1.049-4.4s2,1.88,3.332,2.973l7.394,6.061,3.209-3.915-19.922-16.328-0.285.348L409.23,361.8l-18.633.968-0.262.319Z" transform="translate(-94.375 -72.125)"/>
  <path id="Ellipse_3_copy_4" data-name="Ellipse 3 copy 4" class="cls-2" d="M98,250a176.391,176.391,0,1,1,335.4,76.438" transform="translate(-94.375 -72.125)"/>
</svg>
