<svg id="_728x90_copy2a.svg" data-name="728x90/copy2a.svg" xmlns="http://www.w3.org/2000/svg" width="356.063" height="368.719" viewBox="0 0 356.063 368.719">
  <defs>
    <style>
      .cls-1 {
        fill: #fff;
      }

      .cls-1, .cls-2 {
        fill-rule: evenodd;
      }

      .cls-2 {
        fill: none;
        stroke: #fff;
        stroke-width: 3px;
      }
    </style>
  </defs>
  <path id="_From_a_screen" data-name=" From a screen" class="cls-1" d="M909.2,194.577l-2.227-5.468-9.96,4.056L892.7,182.58l-4.883,1.988,4.311,10.586-6.914,2.815-4.74-11.64-4.805,1.956,6.968,17.109ZM898.1,169.205l-3.083-5.037-8.49,5.2-1.96-3.2L890.022,156l-3.524-5.756-5.832,11.236a8.442,8.442,0,0,0-10.088-.4c-5.72,3.5-5.548,9.035-2.487,14.035l5.55,9.066Zm-15.818,2.759-7.3,4.471-2.379-3.886c-1.475-2.41-1.589-4.615,1.145-6.289,2.7-1.652,4.639-.664,6.158,1.819Zm-9.746-39.006a14.717,14.717,0,1,0-.853,20.885A14.522,14.522,0,0,0,872.54,132.958Zm-3.892,3.555c3.528,3.86,2.9,9.234-1.057,12.847s-9.362,3.756-12.889-.1-2.9-9.234,1.057-12.847S865.121,132.653,868.648,136.513Zm-13.432-20.379-4.608-3.272-6.226,8.769c-1.123,1.582-2.734,4.214-2.734,4.214a50.7,50.7,0,0,0-.166-5.083l-0.955-8.489-0.448-.317-8.329,1.9a50.739,50.739,0,0,0-4.854,1.519s1.954-2.388,3.078-3.97l6.226-8.769-4.643-3.3L814.784,122.96l0.412,0.293,20.333-4.6,2.535,20.834,0.378,0.268Zm-43-26.688-5.359-1.92-2.817,3.112-10.48-3.755-0.2-4.193L787.522,80.6l2.587,31.655,0.477,0.17Zm-11.706,5.167-3.172,3.477c-1.423,1.6-3.227,4.13-3.309,4.234,0.02-.306.207-3.329,0.093-5.386l-0.242-4.7ZM758.058,75.13c-5.578-.577-10.03,1.887-10.577,7.172-0.508,4.907,2.077,7.379,6.846,10.034l1.4,0.781c2.4,1.351,3.42,2.177,3.238,3.938a2.568,2.568,0,0,1-3.07,2.226c-1.678-.174-2.7-1-3.514-2.907l-4.876,2.463c1.578,3.6,4.128,5.174,7.86,5.56,5.243,0.543,8.945-2.465,9.4-6.869,0.5-4.781-2.081-7.337-6.13-9.578l-1.4-.781c-2.563-1.452-4.083-2.33-3.875-4.343,0.174-1.678,1.852-2.733,4.284-2.482,2.894,0.3,4.374,1.979,5.419,4.164l5.068-2.273C766.764,78.659,763.51,75.694,758.058,75.13Zm-32.421-.445A13.494,13.494,0,0,0,714.109,81.8l4.8,2.849c1.436-2.548,3.38-4.453,7.083-4.7,5.176-.346,8.941,3.5,9.3,8.846s-2.868,9.575-8.044,9.922a7.817,7.817,0,0,1-7.193-3.281l-4.289,3.5c2.834,3.826,6.661,5.43,11.837,5.084A14.7,14.7,0,1,0,725.637,74.684Zm-20.428,2.837-5.724,1.443,2.432,9.65-3.639.917L690.2,81.3l-6.542,1.649,8.987,8.911a8.439,8.439,0,0,0-3.387,9.508c1.639,6.5,6.97,7.983,12.654,6.551l10.3-2.6Zm-2.075,15.918,2.092,8.3-4.416,1.113c-2.739.691-4.878,0.143-5.661-2.965-0.773-3.067.748-4.624,3.569-5.336ZM675.653,85.9l-17.922,7.85,2.081,4.751,12.514-5.481L675,99.12l-10.545,4.618,2.03,4.635,10.545-4.618,2.639,6.025-11.974,5.245,2.081,4.751,17.382-7.613ZM649.171,98.4l-16.412,10.652,2.824,4.351,11.46-7.438,3.627,5.588-9.656,6.267,2.755,4.245,9.656-6.268,3.582,5.518-10.965,7.117,2.824,4.351,15.916-10.331Zm-42.184,30.748-0.453.378,18.563,22.19,4.237-3.545-7.712-9.219c-1.272-1.52-3.646-3.767-3.646-3.767a40.649,40.649,0,0,0,5.1.843l19.808,1.134,0.453-.379-18.564-22.189-4.237,3.545,7.712,9.218a50.546,50.546,0,0,0,3.679,3.741,42.559,42.559,0,0,0-5.136-.817Z" transform="translate(-557.281 -74.656)"/>
  <path id="Ellipse_3_copy_5" data-name="Ellipse 3 copy 5" class="cls-2" d="M903.415,211.447a176.507,176.507,0,1,1-303.67-59.179" transform="translate(-557.281 -74.656)"/>
</svg>
