<svg id="_728x90_copy1.svg" data-name="728x90/copy1.svg" xmlns="http://www.w3.org/2000/svg" width="360.812" height="367.187" viewBox="0 0 360.812 367.187">
  <defs>
    <style>
      .cls-1 {
        fill: #fff;
      }

      .cls-1, .cls-2 {
        fill-rule: evenodd;
      }

      .cls-2 {
        fill: none;
        stroke: #fff;
        stroke-width: 3px;
      }
    </style>
  </defs>
  <path id="Exceptional_primary_care" data-name="Exceptional primary care" class="cls-1" d="M92.391,243.67l-0.843,15.292,4.054,0.223,0.589-10.678,5.207,0.287-0.5,9,3.955,0.218,0.5-9,5.142,0.284-0.564,10.216,4.054,0.224,0.818-14.831Zm-0.916,21.463,0.379,4.836,6.224,2.988a24.918,24.918,0,0,0,3.233,1.136,31.566,31.566,0,0,0-3,1.791l-5.678,3.986,0.412,5.263,11.688-8.395,10.567,5.2-0.384-4.9-4.018-1.869a18.762,18.762,0,0,0-3.16-1.044c0.19-.114,1.907-1.009,2.943-1.719l3.671-2.571-0.409-5.23-9.589,6.873Zm4.115,34.586a10.561,10.561,0,0,0,6.78,8.148l1.679-4.031a6.4,6.4,0,0,1-4.422-4.969c-0.838-3.973,1.728-7.314,5.829-8.18s7.735,1.167,8.573,5.139a6.117,6.117,0,0,1-1.749,5.935l3.184,2.938c2.652-2.618,3.473-5.76,2.634-9.732A11.5,11.5,0,1,0,95.59,299.719Zm4.288,15.549,5.189,14.409,3.82-1.376-3.624-10.061,4.907-1.767,3.053,8.478,3.726-1.342-3.053-8.478,4.845-1.744,3.466,9.626,3.82-1.375L121,307.663Zm8.225,21.367,2.105,4.112,6.549-3.353,1.488,2.907c2.075,4.052,5.859,6.377,10.528,3.986s4.982-6.775,2.892-10.857l-3.594-7.018Zm12.265-1.09,6.2-3.173,1.429,2.79c1.007,1.967.847,3.754-1.385,4.9-2.2,1.127-3.774.3-4.811-1.725Zm1.456,25.4,2.606,3.814,15.177-10.368,3.611,5.286,3.352-2.29L136.741,343l-3.352,2.29L137,350.577Zm10.6,14.339,2.973,3.536,17.176-14.441-2.973-3.536Zm15.866,17.373a11.517,11.517,0,1,0-.6-16.346A11.364,11.364,0,0,0,148.285,392.658Zm2.82-3.01c-2.985-2.8-2.819-7.029.047-10.087s7.077-3.5,10.063-.7,2.819,7.03-.047,10.088S154.091,392.447,151.1,389.648Zm26.408,25.4,0.382,0.26,12.734-18.717-3.575-2.432-5.29,7.776c-0.872,1.283-2.056,3.551-2.056,3.551a31.854,31.854,0,0,0-.456-4.023l-3.382-15.153-0.382-.259-12.734,18.717,3.574,2.432,5.291-7.776a39.668,39.668,0,0,0,2.029-3.569,33.446,33.446,0,0,0,.483,4.041Zm5.945,3.349,4,1.96,2.462-2.174,7.821,3.834-0.21,3.278,4.355,2.135,0.749-24.84-0.356-.174Zm9.553-3,2.769-2.427c1.246-1.117,2.869-2.93,2.943-3-0.043.236-.452,2.571-0.543,4.18l-0.222,3.676Zm14.831,14.247,14.01,4.715,1.295-3.847-9.632-3.242,5.862-17.418L215,408.384Zm31.2,8.757,4.576,0.644,1.026-7.288,3.236,0.455c4.511,0.635,8.592-1.124,9.323-6.321s-2.677-7.977-7.22-8.616l-7.812-1.1Zm6.168-10.665,0.971-6.9,3.105,0.437c2.19,0.308,3.56,1.467,3.21,3.952-0.345,2.451-1.926,3.262-4.181,2.944Zm16.8,13.395,4.62,0.037,0.063-7.789,2.938,0.024,4.491,7.826,5.281,0.042-5.047-8.523a6.606,6.606,0,0,0,4.442-6.533c0.043-5.247-3.7-7.423-8.29-7.46l-8.317-.067Zm4.715-11.647,0.054-6.7,3.564,0.028c2.212,0.018,3.723.856,3.7,3.364-0.02,2.475-1.48,3.355-3.757,3.336Zm19.428,11.14,4.6-.433-2.1-22.339-4.6.433Zm12.654-1.135,4.32-.939-1.786-8.221c-0.322-1.484-1-3.8-1-3.8s1.743,1.647,3.026,2.584l5.411,3.923,0.419-.091,3.3-5.814a39.75,39.75,0,0,0,1.681-3.607s0.35,2.389.672,3.872l1.786,8.222,4.353-.946-4.812-22.15-0.387.084-8.062,14.176-13.378-9.518-0.355.077Zm28.27-6.734,4.155-1.605,0.076-3.283,8.126-3.139,2.264,2.38,4.525-1.747-17.729-17.419-0.369.142Zm4.287-9.049,0.1-3.681c0.026-1.673-.2-4.1-0.207-4.2,0.144,0.191,1.58,2.077,2.7,3.237l2.548,2.659Zm20.544-1.162,4.043-2.234-3.766-6.816,2.571-1.42,7.751,4.613,4.621-2.553-8.577-4.949a6.605,6.605,0,0,0,.665-7.87c-2.537-4.592-6.867-4.65-10.882-2.432l-7.278,4.022ZM350.3,410.092l-3.239-5.863,3.119-1.724c1.935-1.069,3.662-1.081,4.875,1.114,1.2,2.166.357,3.648-1.636,4.749Zm26.513-2.721,3.747-2.759-5.067-6.884-2.388-15.5-3.828,2.817,1.174,6.718c0.314,1.818,1.1,4.439,1.1,4.439s-2.363-1.54-3.967-2.326l-6.171-3.04-4.173,3.072,14.7,6.839Zm30.53-25.192a10.556,10.556,0,0,0,3.164-10.113l-4.3.777a6.393,6.393,0,0,1-1.773,6.409c-2.88,2.859-7.078,2.517-10.03-.456s-3.217-7.128-.337-9.987a6.117,6.117,0,0,1,5.933-1.751l0.738-4.267c-3.636-.806-6.719.209-9.6,3.068A11.5,11.5,0,1,0,407.345,382.179Zm9.137-9.945,2.691-3.55-1.662-2.833,5.263-6.941,3.176,0.834,2.931-3.865-24.237-5.5-0.239.315Zm-1.11-9.951-1.851-3.184c-0.857-1.436-2.326-3.378-2.384-3.464,0.223,0.087,2.436.937,4,1.334l3.566,0.923Zm16.858-11.8,2.266-4.027-6.789-3.82,1.441-2.56,9.022-.15,2.59-4.6-9.9.3a6.605,6.605,0,0,0-3.572-7.046c-4.573-2.574-8.288-.347-10.538,3.652l-4.079,7.249Zm-7.917-9.757-5.839-3.286,1.748-3.106c1.084-1.928,2.548-2.846,4.734-1.616,2.157,1.214,2.222,2.916,1.1,4.9Zm19.229-11.484,5.7-14.213-3.768-1.511-3.982,9.924-4.839-1.942,3.355-8.362-3.675-1.475-3.356,8.362L428.2,318.1l3.81-9.5-3.767-1.511-5.531,13.783Z" transform="translate(-91.469 -74.094)"/>
  <path id="Ellipse_3_copy_3" data-name="Ellipse 3 copy 3" class="cls-2" d="M99.277,230.667a176.409,176.409,0,1,1,344.871,69.416" transform="translate(-91.469 -74.094)"/>
</svg>
