<svg id="_728x90_copy2a.svg" data-name="728x90/copy2a.svg" xmlns="http://www.w3.org/2000/svg" width="364.938" height="362.969" viewBox="0 0 364.938 362.969">
  <defs>
    <style>
      .cls-1 {
        fill: #fff;
      }

      .cls-1, .cls-2 {
        fill-rule: evenodd;
      }

      .cls-2 {
        fill: none;
        stroke: #fff;
        stroke-width: 3px;
      }
    </style>
  </defs>
  <path id="_a_screen_or_clinic_near_you" data-name=" a screen or clinic near you" class="cls-1" d="M907.872,264.4l0.1-4.021-2.712-1.2,0.2-7.863,2.768-1.062,0.11-4.378-20.663,8.748-0.009.357Zm-6.06-6.709-3.035-1.357c-1.386-.6-3.485-1.25-3.574-1.282,0.21-.054,2.28-0.6,3.634-1.131l3.1-1.2Zm4.765-32.916c-0.566-3.921-3.022-6.547-6.737-6.01-3.45.5-4.7,2.695-5.7,6.42l-0.293,1.1c-0.512,1.88-.9,2.719-2.141,2.9a1.815,1.815,0,0,1-2.054-1.72,2.839,2.839,0,0,1,1.386-2.909l-2.528-2.916a6.16,6.16,0,0,0-2.455,6.344c0.532,3.686,3.231,5.7,6.327,5.257,3.362-.485,4.669-2.691,5.507-5.852l0.293-1.1c0.553-2.006.893-3.2,2.308-3.4,1.179-.17,2.192.8,2.439,2.508a4.539,4.539,0,0,1-1.919,4.43l2.431,3.081C905.66,231.345,907.13,228.6,906.577,224.771Zm-4.688-22.412a9.538,9.538,0,0,0-6.515-7.011l-1.314,3.718a5.773,5.773,0,0,1,4.232,4.261c0.953,3.539-1.2,6.678-4.85,7.662s-7.031-.67-7.983-4.209a5.525,5.525,0,0,1,1.283-5.437l-3.015-2.49c-2.261,2.491-2.846,5.363-1.893,8.9A10.384,10.384,0,1,0,901.889,202.359Zm-4.561-13.837-1.587-3.859-6.5,2.675-1.009-2.453,4.941-6.479L891.354,174l-5.327,7.186a5.965,5.965,0,0,0-6.993-1.41c-4.383,1.8-4.882,5.681-3.307,9.513l2.857,6.946Zm-11.345.154-5.6,2.3L879.163,188c-0.759-1.847-.592-3.4,1.5-4.26,2.068-.85,3.311.057,4.093,1.959Zm2.67-20.051-6.729-12.078-3.2,1.783,4.7,8.434-4.112,2.292-3.959-7.107-3.124,1.74,3.959,7.107-4.061,2.262-4.5-8.069-3.2,1.783,6.526,11.714Zm-10.429-17.877-8.072-11.223-2.975,2.14,5.636,7.837-3.821,2.749-4.75-6.6-2.9,2.088,4.749,6.6-3.773,2.714-5.393-7.5-2.975,2.14,7.828,10.884Zm-23.27-28.6-0.284-.306-14.988,13.908,2.656,2.862,6.227-5.778c1.027-.953,2.527-2.711,2.527-2.711a28.891,28.891,0,0,0-.411,3.634L850.6,147.778l0.284,0.306,14.988-13.907-2.655-2.863-6.228,5.778a35.842,35.842,0,0,0-2.506,2.733,30.14,30.14,0,0,0,.39-3.656Zm-20.683-17.42a10.4,10.4,0,1,0,2.371,14.578A10.26,10.26,0,0,0,834.271,104.727Zm-2.189,3.013c2.989,2.172,3.314,5.981,1.089,9.042s-5.948,3.928-8.936,1.756-3.314-5.982-1.09-9.043S829.093,105.568,832.082,107.74ZM820,95.472l-3.669-1.985-3.345,6.185-2.333-1.262-0.271-8.141L806.185,88l0.419,8.932a5.962,5.962,0,0,0-6.306,3.33c-2.254,4.166-.188,7.486,3.454,9.456l6.6,3.573Zm-8.687,7.292-2.878,5.32-2.83-1.531c-1.756-.95-2.607-2.257-1.53-4.249,1.064-1.966,2.6-2.049,4.408-1.071Zm-28.654-24.2a9.536,9.536,0,0,0-9.431,1.633l2.4,3.13a5.776,5.776,0,0,1,5.882-1.221c3.486,1.134,4.944,4.648,3.773,8.248s-4.4,5.526-7.885,4.392a5.525,5.525,0,0,1-3.856-4.044L769.8,91.871c0.853,3.255,2.941,5.313,6.427,6.447A10.386,10.386,0,1,0,782.655,78.564ZM768.57,74.888l-13.1-2.537-0.7,3.6,9.008,1.745-3.154,16.29,4.094,0.793Zm-19.52-3.265-4.149-.431-2.093,20.151,4.148,0.431Zm-27.614-1.408-0.417,0L720.9,90.652l3.9,0.022,0.049-8.492c0.009-1.4-.246-3.7-0.246-3.7a28.744,28.744,0,0,0,2.367,2.785l10.165,9.653,0.417,0,0.118-20.44-3.9-.023-0.049,8.492a35.567,35.567,0,0,0,.276,3.7,30.165,30.165,0,0,0-2.4-2.785Zm-7.721.805-4.153.385,1.872,20.173,4.153-.385Zm-21.007,2.691a9.536,9.536,0,0,0-7.457,6l3.614,1.575a5.776,5.776,0,0,1,4.552-3.918c3.6-.7,6.576,1.669,7.3,5.384s-1.168,6.965-4.766,7.662a5.522,5.522,0,0,1-5.331-1.667l-2.7,2.83c2.323,2.433,5.147,3.221,8.745,2.523A10.384,10.384,0,1,0,692.708,73.711ZM654.264,85.929l-0.388.154,7.54,19,3.628-1.44-3.132-7.894c-0.517-1.3-1.613-3.335-1.613-3.335a28.892,28.892,0,0,0,3.238,1.7l13.039,5.148,0.388-.154-7.541-19-3.628,1.44,3.133,7.893a35.78,35.78,0,0,0,1.64,3.324,30.076,30.076,0,0,0-3.266-1.685Zm-6.826,3.477L635.31,96.048l1.761,3.215,8.469-4.638,2.262,4.13-7.136,3.908,1.718,3.136,7.135-3.908,2.234,4.078-8.1,4.437,1.761,3.215,11.762-6.442ZM630.7,98.8l-3.269,2.347,0.679,2.888-6.394,4.588-2.519-1.568-3.56,2.555,19.454,11.208,0.29-.209ZM629,107.684l0.748,3.242c0.357,1.468,1.107,3.535,1.134,3.625-0.17-.135-1.853-1.458-3.1-2.218l-2.831-1.747Zm-18,5.266-3.214,2.661,4.484,5.418-2.043,1.691-7.653-2.8-3.674,3.041,8.442,2.955a5.966,5.966,0,0,0,.728,7.1c3.021,3.651,6.874,2.977,10.066.336l5.786-4.789Zm3.512,10.789,3.858,4.661-2.48,2.052c-1.538,1.273-3.069,1.573-4.514-.172-1.425-1.722-.928-3.178.657-4.489Zm-30.21,14.472-2.717,3.206,5.888,4.991,5.33,13.116,2.776-3.274-2.433-5.657c-0.655-1.532-1.888-3.672-1.888-3.672s2.4,0.86,3.97,1.217l6.056,1.383,3.026-3.569-14.347-2.942Zm-14.834,19.26a10.4,10.4,0,1,0,14.421-3.2A10.262,10.262,0,0,0,569.472,157.471Zm3.133,2.014c2-3.108,5.784-3.651,8.968-1.6s4.261,5.716,2.263,8.824-5.784,3.651-8.968,1.6S570.607,162.594,572.605,159.485ZM557.2,179.44c-1.965,4.181-1.234,8.443,3.405,10.623l11.707,5.5,1.774-3.776-11.491-5.4c-2.67-1.255-3.163-2.869-2-5.351,1.179-2.508,2.749-3.187,5.419-1.932l11.491,5.4,1.774-3.777-11.706-5.5C562.94,173.048,559.193,175.206,557.2,179.44Z" transform="translate(-543.406 -70.219)"/>
  <path id="Ellipse_3_copy_5" data-name="Ellipse 3 copy 5" class="cls-2" d="M895.789,281.165a176.391,176.391,0,0,1-348.961-51.776,178.182,178.182,0,0,1,4.378-20.856" transform="translate(-543.406 -70.219)"/>
</svg>
