<svg id="_728x90_copy2b.svg" data-name="728x90/copy2b.svg" xmlns="http://www.w3.org/2000/svg" width="359.184" height="370.063" viewBox="0 0 359.184 370.063">
  <defs>
    <style>
      .cls-1 {
        fill: none;
        stroke: #fff;
        stroke-width: 3px;
      }

      .cls-1, .cls-2 {
        fill-rule: evenodd;
      }

      .cls-2 {
        fill: #fff;
      }
    </style>
  </defs>
  <path id="Ellipse_3_copy_4" data-name="Ellipse 3 copy 4" class="cls-1" d="M1330.53,250.589q0.705,8.339.64,16.88a176.392,176.392,0,1,1-347.637-44.077" transform="translate(-976.906 -73.656)"/>
  <path id="_or_clinic_near_you." data-name=" or clinic near you." class="cls-2" d="M1335.78,218.427a14.718,14.718,0,1,0-11.48,17.467A14.525,14.525,0,0,0,1335.78,218.427Zm-5.17,1.046c1.04,5.124-2.27,9.407-7.52,10.47s-9.96-1.6-10.99-6.721,2.26-9.408,7.51-10.471S1329.57,214.348,1330.61,219.473Zm-1.27-24.3-2.24-5.462-9.2,3.778-1.43-3.472,7-9.162-2.56-6.242-7.55,10.161a8.435,8.435,0,0,0-9.89-2c-6.2,2.545-6.91,8.033-4.69,13.456l4.04,9.832Zm-16.05.205-7.92,3.251-1.73-4.214c-1.07-2.614-.83-4.809,2.13-6.025,2.93-1.2,4.69.083,5.79,2.775ZM1302,144.127a13.482,13.482,0,0,0-12.25-5.768l0.24,5.575c2.91-.19,5.57.4,7.8,3.362,3.12,4.145,1.96,9.4-2.32,12.621s-9.59,2.831-12.71-1.314a7.836,7.836,0,0,1-1.18-7.817l-5.28-1.679c-1.65,4.465-.9,8.546,2.22,12.691A14.693,14.693,0,1,0,1302,144.127Zm-13.6-15.5-13.8-12.9-3.54,3.789,9.49,8.867-16.04,17.157,4.31,4.03Zm-21.12-18.366-4.78-3.469L1245.66,130l4.77,3.469Zm-33.36-20.475-0.52-.278-13.6,25.532,4.88,2.6,5.64-10.607c0.94-1.75,2.13-4.794,2.13-4.794a41.2,41.2,0,0,0,1.13,5.047l6.39,18.782,0.52,0.277,13.59-25.532-4.87-2.6-5.65,10.608a51.272,51.272,0,0,0-2.09,4.813,42.745,42.745,0,0,0-1.17-5.067Zm-10.31-3.723-5.54-2.036-9.89,26.918,5.54,2.036Zm-28.68-8.784a13.506,13.506,0,0,0-13.04,3.677l3.84,4.056c2.08-2.056,4.47-3.355,8.1-2.578,5.07,1.087,7.64,5.82,6.51,11.058s-5.38,8.422-10.45,7.335a7.815,7.815,0,0,1-6.02-5.128l-5.09,2.189c1.68,4.457,4.92,7.049,9.99,8.135A14.7,14.7,0,1,0,1194.93,77.275Zm-56.93-2.6-0.59.032L1139,103.6l5.52-.3-0.67-12c-0.1-1.979-.66-5.2-0.66-5.2a40.709,40.709,0,0,0,3.58,3.731l15.19,12.764,0.59-.033-1.59-28.886-5.51.3,0.66,12a50.388,50.388,0,0,0,.7,5.2,43.09,43.09,0,0,0-3.62-3.728Zm-10.68,1.945-19.04,4.461,1.18,5.049,13.3-3.115,1.52,6.486-11.21,2.625,1.16,4.926,11.2-2.625,1.5,6.4-12.72,2.98,1.18,5.05,18.47-4.327Zm-26.4,6.583-5.24,2.217,0.03,4.2-10.25,4.336-2.99-2.949-5.71,2.414,23.35,21.536,0.46-.2Zm-5.11,11.731,0.02,4.707c0.03,2.138.42,5.224,0.43,5.357a53.8,53.8,0,0,0-3.58-4.026l-3.36-3.294Zm-26.15,2.517-4.95,3.208,5.41,8.355-3.15,2.039-10.3-5.192-5.66,3.666,11.37,5.546a8.451,8.451,0,0,0-.14,10.093c3.64,5.628,9.17,5.317,14.09,2.132l8.92-5.775Zm3.16,15.74,4.65,7.186-3.82,2.475c-2.37,1.535-4.57,1.7-6.32-.986-1.71-2.655-.78-4.619,1.67-6.2Zm-44.01,16.326-4.28,4.123,7.57,7.869,5.62,19.224,4.38-4.21-2.61-8.311c-0.71-2.25-2.14-5.438-2.14-5.438s3.25,1.553,5.42,2.281l8.32,2.814,4.77-4.59-19.77-6.2Zm-23,25.567a14.717,14.717,0,1,0,20.62-3.417A14.524,14.524,0,0,0,1005.81,155.087Zm4.27,3.087c3.06-4.24,8.45-4.716,12.79-1.581s5.59,8.4,2.53,12.642-8.45,4.716-12.8,1.58S1007.02,162.413,1010.08,158.174Zm-22.162,27.685c-2.717,5.946-1.619,11.966,4.979,14.981l16.653,7.606,2.45-5.37-16.342-7.467c-3.8-1.735-4.519-4.012-2.907-7.541,1.63-3.568,3.841-4.551,7.639-2.816l16.34,7.466,2.46-5.37-16.65-7.607C995.939,176.726,990.669,179.837,987.918,185.859Zm-8.109,21.627a3.564,3.564,0,1,0,4.485-2.365A3.519,3.519,0,0,0,979.809,207.486Z" transform="translate(-976.906 -73.656)"/>
</svg>
