<svg id="copy1.svg" xmlns="http://www.w3.org/2000/svg" width="376.5" height="362.937" viewBox="0 0 376.5 362.937">
  <defs>
    <style>
      .cls-1 {
        fill: none;
        stroke: #fff;
        stroke-width: 3px;
      }

      .cls-1, .cls-2 {
        fill-rule: evenodd;
      }

      .cls-2 {
        fill: #fff;
      }
    </style>
  </defs>
  <path id="Ellipse_3_copy_3" data-name="Ellipse 3 copy 3" class="cls-1" d="M411.642,339.124A176.451,176.451,0,0,1,89.771,298.569" transform="translate(-70.5 -64.969)"/>
  <path id="GAIN_SUPPORT_for_every_step" data-name="GAIN SUPPORT for every step" class="cls-2" d="M96.95,259.192a16.807,16.807,0,0,0-3.358-9.805l-11.547.417,0.4,11.091,4.672-.169L86.892,254.5l4.178-.151a12.746,12.746,0,0,1,1.132,5.018c0.2,5.431-3.376,8.679-8.2,8.853s-8.542-2.735-8.71-7.407a7.158,7.158,0,0,1,2.147-5.858l-3.7-3.479c-2.354,2.215-3.384,5.294-3.232,9.51,0.281,7.787,6.059,12.979,13.693,12.7S97.254,267.624,96.95,259.192Zm-0.557-13.061,0.682-5.085-3.273-1.9,1.334-9.944,3.657-.966,0.743-5.537L72.127,230.95l-0.061.452Zm-6.76-9.343-3.662-2.14c-1.674-.953-4.247-2.066-4.355-2.118,0.274-.04,2.974-0.445,4.765-0.933l4.1-1.1Zm11.291-18.3,1.335-5.149-25.011-6.482-1.334,5.15Zm10.644-30.4,0.2-.495L87.531,178,85.7,182.626l10.068,3.988c1.66,0.658,4.507,1.418,4.507,1.418a36.668,36.668,0,0,0-4.405,1.524l-16.175,7.61-0.2.5,24.233,9.6,1.833-4.627-10.067-3.989a45.393,45.393,0,0,0-4.52-1.382,38.457,38.457,0,0,0,4.419-1.56Zm11.783-20.044c2.8-4.209,2.7-8.794-1.293-11.443-3.7-2.461-6.758-1.434-10.874,1.26l-1.211.793c-2.085,1.352-3.169,1.817-4.5.934a2.314,2.314,0,0,1-.49-3.382c0.841-1.266,1.926-1.731,3.792-1.587l0.076-4.922c-3.531-.247-5.857,1.127-7.729,3.944-2.629,3.956-1.779,8.17,1.544,10.378,3.609,2.4,6.727,1.412,10.211-.88l1.211-.793c2.232-1.436,3.569-2.282,5.088-1.272,1.266,0.841,1.406,2.622.186,4.457-1.451,2.184-3.41,2.662-5.592,2.581l-0.308,5C116.889,173.518,120.617,172.163,123.351,168.049Zm14.767-18.932c3.967-4.354,4.681-9.821-.151-14.223l-12.192-11.107-3.582,3.933,11.966,10.9c2.781,2.534,2.774,4.686.42,7.27-2.38,2.613-4.548,2.848-7.329.315l-11.967-10.9-3.583,3.932,12.192,11.107C128.723,154.746,134.1,153.527,138.118,149.117Zm11.292-11.973,3.972-3.538-5.636-6.327,2.808-2.5c3.916-3.488,5.409-8.381,1.391-12.892s-9-3.587-12.941-.074l-6.78,6.04Zm-4.773-13.355L139.3,117.8,142,115.4c1.9-1.694,3.939-2.033,5.86.123,1.9,2.128,1.431,4.119-.527,5.863Zm22.709-2.008,4.453-2.91-4.635-7.094,3.149-2.058c4.389-2.868,6.592-7.485,3.287-12.543s-8.365-4.883-12.787-1.993l-7.6,4.968Zm-2.739-13.916-4.386-6.712,3.022-1.974c2.131-1.393,4.2-1.426,5.777.991,1.559,2.385.8,4.286-1.391,5.72Zm34.262-3.482A13.262,13.262,0,1,0,181.335,97.5,13.085,13.085,0,0,0,198.869,104.383Zm-1.881-4.361c-4.326,1.866-8.717-.254-10.629-4.685s-0.44-9.08,3.886-10.946,8.717,0.254,10.629,4.685S201.315,98.156,196.988,100.022Zm19.188-2.582,5.176-1.227-2.069-8.725,3.29-.78,7.171,7.515,5.915-1.4-7.983-8.142a7.6,7.6,0,0,0,3.172-8.523c-1.394-5.878-6.178-7.282-11.317-6.063L210.215,72.3Zm2.072-14.315-1.779-7.5,3.992-.947c2.477-.587,4.4-0.066,5.064,2.743,0.657,2.773-.733,4.157-3.284,4.762Zm27.366,8.693,5.3-.457L249.1,70.273l7.345-.633-0.4-4.657-19.991,1.723,0.4,4.657,7.345-.633Zm26.509-.69,5.287,0.605,1.1-9.629,10.233,1.171,0.54-4.72-10.233-1.171,0.765-6.684,11.253,1.288,0.531-4.645-16.539-1.893Zm33.326,6.332a13.262,13.262,0,1,0-9.2-16.438A13.086,13.086,0,0,0,305.449,97.46Zm1.311-4.565c-4.529-1.3-6.579-5.724-5.247-10.362s5.417-7.3,9.945-6,6.58,5.724,5.248,10.362S311.288,94.2,306.76,92.895ZM323.233,103.1l4.788,2.322,3.914-8.07,3.044,1.476,0.805,10.359,5.471,2.654-1.038-11.36a7.605,7.605,0,0,0,7.849-4.6c2.637-5.437-.183-9.551-4.937-11.856l-8.617-4.18Zm10.659-9.784,3.367-6.942,3.693,1.791c2.292,1.111,3.45,2.729,2.19,5.328-1.244,2.565-3.2,2.758-5.556,1.614Zm18.993,26.056L366.8,130.2l2.871-3.689-9.716-7.56,3.687-4.738,8.186,6.371,2.8-3.6-8.186-6.37,3.64-4.678,9.3,7.234,2.87-3.688-13.494-10.5Zm24.391,21.584,0.365,0.387,26.726-9.665-3.548-3.757-10.212,3.686A46.136,46.136,0,0,0,385,134.188c0.17-.318,1.978-3.384,2.872-5.482l4.185-10.067L388.14,114.5Zm10.8,11.953,9.976,14.538,3.854-2.644-6.966-10.152,4.951-3.4,5.869,8.554,3.76-2.58-5.869-8.554,4.888-3.354,6.665,9.714,3.854-2.645-9.675-14.1Zm12.856,19.477,2.317,4.788,8.072-3.906,1.473,3.044-5.787,8.626,2.648,5.472,6.224-9.555a7.6,7.6,0,0,0,9.007,1.255c5.438-2.632,5.774-7.606,3.473-12.36l-4.171-8.618Zm14.424-1.071,6.943-3.36,1.787,3.694c1.109,2.291,1.016,4.278-1.584,5.536-2.565,1.242-4.216.184-5.358-2.176Zm-2.4,29.139,1.6,5.113,9.393-2.933,17.76,3.211-1.631-5.223-7.751-1.241c-2.1-.34-5.243-0.472-5.243-0.472s2.562-1.994,4.019-3.445l5.622-5.576-1.778-5.694-12.958,13.44Zm6.813,33.767c0.51,5.029,3.5,8.507,8.262,8.024,4.424-.448,6.133-3.181,7.605-7.876l0.433-1.38c0.753-2.368,1.3-3.417,2.884-3.578a2.315,2.315,0,0,1,2.525,2.3c0.153,1.513-.39,2.561-1.924,3.633l3.065,3.853c2.886-2.05,3.813-4.588,3.471-7.953-0.479-4.726-3.81-7.444-7.78-7.042-4.31.437-6.095,3.178-7.333,7.161l-0.433,1.381c-0.813,2.527-1.31,4.029-3.125,4.213-1.513.153-2.751-1.135-2.973-3.327-0.265-2.609.947-4.222,2.685-5.544l-2.933-4.057C421.3,225.893,419.277,229.306,419.775,234.221ZM420.926,253l-0.181,5.318,21.159,0.722-0.252,7.369,4.673,0.16,0.684-20.058-4.673-.159-0.251,7.37Zm-1.049,17.368L416.688,287.7l4.6,0.845,2.227-12.106,5.9,1.085-1.876,10.2,4.484,0.825,1.876-10.2,5.829,1.072-2.13,11.584,4.6,0.845,3.092-16.815Zm-4.662,22.87-1.725,5.032,8.016,2.747-1.22,3.559c-1.7,4.96-.6,9.956,5.114,11.915s9.6-1.289,11.312-6.285l2.945-8.591Zm10.712,9.3,7.584,2.6-1.17,3.415c-0.826,2.408-2.435,3.7-5.167,2.768-2.695-.924-3.268-2.888-2.418-5.368Z" transform="translate(-70.5 -64.969)"/>
</svg>
