<svg id="copy1.svg" xmlns="http://www.w3.org/2000/svg" width="355.781" height="368.531" viewBox="0 0 355.781 368.531">
  <defs>
    <style>
      .cls-1 {
        fill: none;
        stroke: #fff;
        stroke-width: 3px;
      }

      .cls-1, .cls-2 {
        fill-rule: evenodd;
      }

      .cls-2 {
        fill: #fff;
      }
    </style>
  </defs>
  <path id="Ellipse_3_copy_11" data-name="Ellipse 3 copy 11" class="cls-1" d="M413.167,162.071a176.407,176.407,0,1,1-282.61-28.378" transform="translate(-83.5 -61.375)"/>
  <path id="LOSE_WEIGHT" data-name="LOSE WEIGHT" class="cls-2" d="M151.736,134.867L166.1,122.6l-3.367-3.944-9.877,8.431-15.248-17.864-4.49,3.833Zm29.575-21.54a14.719,14.719,0,1,0-20.254-5.176A14.524,14.524,0,0,0,181.311,113.327Zm-2.669-4.546c-4.51,2.647-9.636.913-12.348-3.705s-1.728-9.94,2.782-12.588,9.635-.914,12.347,3.705S183.151,106.133,178.642,108.781Zm28.6-7.691C212.508,99.163,215.43,95,213.605,90c-1.695-4.635-5.1-5.724-10.555-6.021l-1.6-.087c-2.754-.161-4.03-0.458-4.638-2.121a2.568,2.568,0,0,1,1.785-3.347c1.584-.579,2.86-0.283,4.434,1.073l3.3-4.352c-3-2.542-5.98-2.843-9.506-1.554-4.951,1.811-6.961,6.138-5.441,10.3,1.652,4.516,5.088,5.685,9.712,5.925l1.6,0.087c2.941,0.182,4.693.305,5.388,2.207,0.579,1.584-.466,3.269-2.764,4.109-2.733,1-4.8.138-6.7-1.368l-3.559,4.266C197.864,101.733,202.089,102.973,207.239,101.09Zm14.323-5.177L240.756,92.1l-1.012-5.088-13.4,2.666-1.3-6.536,11.292-2.246-0.987-4.964-11.293,2.246-1.283-6.453,12.823-2.551-1.012-5.088-18.615,3.7Zm44.194-4.857,0.589,0.047,7.776-13.261c0.838-1.5,1.92-3.952,1.972-4.074,0.064,0.259.67,2.761,1.265,4.331L282.7,92.4l0.589,0.046,12.667-28.02-5.718-.452-5.028,11.152c-0.868,1.877-1.868,4.887-1.923,5.052a37.231,37.231,0,0,0-1.357-5.311l-4.663-12.172-0.589-.047-6.436,11.294a33.574,33.574,0,0,0-2.175,5.031c-0.06-.3-0.581-3.346-1.1-5.291l-3.254-11.807-6.222-.492Zm32.469,3.867,18.74,5.623,1.491-4.968L305.37,91.652l1.915-6.381,11.026,3.309,1.454-4.847-11.026-3.308,1.891-6.3,12.52,3.757,1.491-4.968-18.175-5.454Zm24.652,8.259,5.407,2.371L339.8,79.291l-5.407-2.371Zm24.094,12.984a18.65,18.65,0,0,0,11.118,2.942l6.73-10.913-10.482-6.464-2.723,4.416,5.887,3.63-2.435,3.949a14.158,14.158,0,0,1-5.328-2.047c-5.133-3.166-5.929-8.463-3.118-13.022s7.786-6.2,12.2-3.475a7.941,7.941,0,0,1,4.083,5.591L368.4,99.5c-0.593-3.537-2.8-6.385-6.785-8.842-7.359-4.538-15.71-2.4-20.16,4.81S339,111.252,346.971,116.166Zm14.666,9.454,4.315,4.029,7.683-8.23,8.97,8.374-7.684,8.23,4.316,4.028,19.567-20.96-4.315-4.028L386.2,125.94l-8.969-8.374,8.287-8.877L381.2,104.66Zm25.933,26.962,3.527,4.733,18.834-14.033,4.888,6.559,4.159-3.1-13.3-17.853-4.159,3.1,4.888,6.56Z" transform="translate(-83.5 -61.375)"/>
</svg>
