<svg id="copy2b.svg" xmlns="http://www.w3.org/2000/svg" width="364" height="363.781" viewBox="0 0 364 363.781">
  <defs>
    <style>
      .cls-1 {
        fill: #fff;
      }

      .cls-1, .cls-2 {
        fill-rule: evenodd;
      }

      .cls-2 {
        fill: none;
        stroke: #fff;
        stroke-width: 3px;
      }
    </style>
  </defs>
  <path id="BUT_never_lose_support." data-name="BUT never lose support." class="cls-1" d="M1341.76,270.461l1.27-11.528c0.64-5.869-2.51-9.65-7.16-10.16-3.99-.436-6.28,1.561-7.49,4.823a5.859,5.859,0,0,0-5.35-5c-4.32-.473-7.95,2.1-8.58,7.883l-1.19,10.858Zm-4.51-6.434-7.08-.776,0.55-5.072c0.27-2.431,1.86-3.784,3.95-3.555a3.417,3.417,0,0,1,3.17,4Zm-12.07-1.322-6.12-.67,0.5-4.57c0.25-2.3,1.5-3.229,3.42-3.018s2.93,1.593,2.67,3.982Zm18.78-31.511c-0.38-6.526-4.17-11.333-11.41-10.913l-18.27,1.059,0.34,5.894,17.94-1.04c4.17-.241,5.87,1.434,6.09,5.307,0.23,3.916-1.26,5.819-5.43,6.06l-17.94,1.04,0.34,5.894,18.28-1.059C1341.14,243.016,1344.34,237.8,1343.96,231.194ZM1340.1,205l-1.31-5.758-22.9,5.207-1.82-7.977-5.05,1.15,4.93,21.712,5.06-1.15-1.81-7.977Zm-19.24-52.2-0.26-.53-25.95,12.762,2.43,4.956,10.79-5.3c1.77-.875,4.52-2.648,4.52-2.648a40.994,40.994,0,0,0-2.03,4.757l-5.8,18.969,0.26,0.529,25.95-12.761-2.43-4.957-10.79,5.3a50.787,50.787,0,0,0-4.5,2.685,43.073,43.073,0,0,0,2.01-4.795Zm-5.06-7.67-11.45-15.87-4.21,3.035,8,11.082-5.4,3.9-6.74-9.337-4.11,2.961,6.74,9.338-5.33,3.849-7.65-10.6-4.21,3.036,11.1,15.39Zm-23.77-29.492-0.41-.417L1262.28,126.8l4.06,4.053,11.21-4.419a51.68,51.68,0,0,0,6.14-3.044c-0.18.358-2.09,3.817-3.01,6.173l-4.32,11.3,4.48,4.47Zm-14.59-13.06L1261.52,91.2l-3.02,4.22,11.12,7.943-3.87,5.421-9.37-6.693-2.94,4.118,9.36,6.692-3.82,5.353-10.64-7.6-3.01,4.22,15.44,11.032Zm-22.85-15.485-5.27-2.656-4.48,8.886-3.35-1.688-0.72-11.5-6.03-3.035,0.96,12.617a8.44,8.44,0,0,0-8.78,4.97c-3.02,5.987.04,10.6,5.28,13.234l9.49,4.781ZM1242.6,97.761l-3.85,7.643-4.07-2.049c-2.52-1.271-3.78-3.085-2.34-5.946,1.43-2.824,3.6-3.006,6.19-1.7Zm-25.58-26.756-18.34-4.5-1.24,5.037,12.61,3.1-5.59,22.808,5.73,1.407Zm-37.7-7.089a14.719,14.719,0,1,0,13.74,15.76A14.516,14.516,0,0,0,1179.32,63.916Zm-0.38,5.258c5.21,0.381,8.45,4.719,8.06,10.06s-4.22,9.164-9.44,8.783-8.45-4.718-8.06-10.06S1173.72,68.793,1178.94,69.174Zm-30.1-4.856c-5.58.557-9.44,3.867-8.92,9.154,0.49,4.909,3.52,6.811,8.73,8.452l1.53,0.483c2.63,0.84,3.79,1.444,3.97,3.206a2.57,2.57,0,0,1-2.56,2.8c-1.68.168-2.84-.437-4.03-2.141l-4.28,3.394c2.27,3.206,5.08,4.239,8.82,3.866,5.24-.524,8.26-4.216,7.82-8.621-0.47-4.783-3.51-6.769-7.93-8.15l-1.53-.483c-2.8-.907-4.47-1.461-4.67-3.475-0.17-1.678,1.26-3.05,3.7-3.293,2.89-.289,4.68,1.058,6.14,2.989l4.51-3.247C1158.08,66.023,1154.3,63.773,1148.84,64.318Zm-16.73,2.6-18.97,4.8,1.28,5.028,13.24-3.351,1.64,6.459-11.16,2.823,1.24,4.906,11.16-2.823,1.61,6.377-12.67,3.206,1.27,5.028,18.4-4.654Zm-45.13,15.216c-5.02,2.5-7.46,6.962-5.09,11.719,2.19,4.417,5.7,5.122,11.15,4.813l1.6-.091c2.76-.145,4.06.008,4.85,1.595a2.569,2.569,0,0,1-1.41,3.523c-1.51.751-2.81,0.6-4.52-.575l-2.8,4.69c3.26,2.194,6.26,2.163,9.62.491,4.72-2.347,6.23-6.87,4.26-10.834-2.14-4.3-5.68-5.085-10.3-4.811l-1.61.091c-2.94.145-4.69,0.217-5.6-1.6-0.75-1.51.11-3.3,2.3-4.389,2.6-1.3,4.75-.669,6.8.617l3.07-4.633C1096.23,80.457,1091.89,79.694,1086.98,82.135Zm-24.62,14.248c-5.52,3.5-7.89,9.139-4.01,15.265l9.8,15.458,4.98-3.159-9.61-15.173c-2.23-3.526-1.6-5.827,1.68-7.9,3.31-2.1,5.7-1.715,7.94,1.811l9.61,15.173,4.99-3.16-9.8-15.458C1074.06,93.111,1067.95,92.841,1062.36,96.384Zm-16.19,11.725-4.39,3.943,6.28,7-3.11,2.789c-4.33,3.887-5.97,9.323-1.49,14.313s10,3.945,14.36.03l7.5-6.732Zm5.35,14.8,5.95,6.622-2.99,2.676c-2.1,1.887-4.36,2.273-6.5-.113-2.11-2.354-1.6-4.566.56-6.51Zm-25.65,4.316-3.72,4.583,7.3,5.929-2.63,3.24c-3.67,4.517-4.44,10.142.77,14.37s10.49,2.33,14.18-2.219l6.36-7.823Zm7.6,13.782,6.91,5.61-2.52,3.109c-1.79,2.193-3.96,2.928-6.45.907-2.45-1.994-2.3-4.258-.46-6.516Zm-31.91,20.125a14.716,14.716,0,1,0,20.05-5.916A14.522,14.522,0,0,0,1001.56,161.135Zm4.62,2.539c2.52-4.582,7.81-5.715,12.5-3.135s6.57,7.655,4.05,12.237-7.81,5.714-12.5,3.134S1003.66,168.256,1006.18,163.674Zm-14.113,17.791-1.867,5.6,9.444,3.146-1.187,3.562-11.284,2.375-2.133,6.4,12.351-2.775a8.441,8.441,0,0,0,6.189,7.975c6.36,2.12,10.48-1.575,12.34-7.137l3.36-10.084Zm12.3,10.323,8.12,2.706-1.44,4.322c-0.89,2.681-2.51,4.188-5.55,3.175-3-1-3.49-3.121-2.57-5.882Zm-21.735,23.3-0.977,5.823,23.162,3.886-1.35,8.068,5.11,0.858,3.69-21.958-5.12-.858-1.35,8.068Zm-2.646,18.4a3.563,3.563,0,1,0,3.853-3.292A3.518,3.518,0,0,0,979.989,233.486Z" transform="translate(-980 -63.875)"/>
  <path id="Ellipse_3_copy_6" data-name="Ellipse 3 copy 6" class="cls-2" d="M1331.74,282.355A176.407,176.407,0,0,1,981.972,250.87" transform="translate(-980 -63.875)"/>
</svg>
