<svg xmlns="http://www.w3.org/2000/svg" xmlns:xlink="http://www.w3.org/1999/xlink" viewBox="0 0 574.8 112.16"><defs><style>.cls-1{fill:none;}.cls-2,.cls-5{fill:#fff;}.cls-3{clip-path:url(#clip-path);}.cls-4{fill:#00af9a;}.cls-5{fill-rule:evenodd;}.cls-6{fill:#231f20;}.cls-7{clip-path:url(#clip-path-2);}</style><clipPath id="clip-path" transform="translate(0 -0.23)"><rect class="cls-1" x="1.77" width="270.42" height="88.43"/></clipPath><clipPath id="clip-path-2" transform="translate(0 -0.23)"><polygon class="cls-2" points="2.15 37.73 56.34 37.73 60.05 47.64 5.42 47.63 2.15 37.73 2.15 37.73"/></clipPath></defs><title>Asset 1</title><g id="Layer_2" data-name="Layer 2"><g id="Layer_1-2" data-name="Layer 1"><g class="cls-3"><polygon class="cls-2" points="17.38 0 271.47 0 271.47 87.57 17.38 87.57 17.38 0 17.38 0"/><polygon class="cls-4" points="20.23 2.74 268.95 2.74 268.95 71.49 20.23 71.49 20.23 2.74 20.23 2.74"/><path class="cls-2" d="M101.74,26c-4.6.57-6.33.74-15.7.74v2.6h5.42V58.46H86v2.62h20.71V58.46h-5.09v-17c.24-3.86.41-6.57,2.38-9a8,8,0,0,1,6-3c4.44,0,4.93,3.87,4.93,8.55v20.4h-4.44v2.62h19.32V58.46h-4.93V42.91c0-4.36.16-8.06,3.2-11a8.18,8.18,0,0,1,5.43-2.47c4.68,0,4.68,4,4.68,8.22V58.46h-4.52v2.62h19.81V58.46h-5.09V37.4c-.25-4.44-.33-11.67-11.18-11.67a13.34,13.34,0,0,0-12.33,7.07c-1.89-3.53-4-7.15-11.34-7.15-6.42,0-9.46,3.53-11.84,6.33V26Z" transform="translate(0 -0.23)"/><path class="cls-5" d="M157.14,29.32h5.59V58.46h-5.59v2.62h21.13V58.46H173V26c-3.87.24-6,.41-8.06.57s-4.11.17-7.81.17v2.6Zm3.7-14.3a5.92,5.92,0,1,0,5.92-5.92A5.89,5.89,0,0,0,160.84,15Z" transform="translate(0 -0.23)"/><path class="cls-2" d="M213.65,50.63c-1.91,3.24-5.1,8.15-11.63,8.54a6.23,6.23,0,0,1-3.83-.71c-3.57-2-3.9-5.76-4.15-8.17-.16-2-.33-4.15-.33-6.31,0,0-.13-9,1.41-11.87A7.23,7.23,0,0,1,202,27.92a7.55,7.55,0,0,1,5.1,1.68c-1.49,1.33-3.05,2.84-3.05,5.58a5.17,5.17,0,0,0,5.4,5.23c2.74,0,5.56-1.66,5.56-5.31,0-5.73-6.14-9.55-13.61-9.55-9.38,0-19.26,6.23-19.26,19.09,0,10.13,7.22,17.52,18.59,17.52,10.13,0,13.7-6.47,15.61-10l-2.64-1.57Z" transform="translate(0 -0.23)"/><path class="cls-5" d="M251.05,36.43c0-2.91.08-7-5.56-9.39a22.24,22.24,0,0,0-8.31-1.49c-8.05,0-14.52,3.74-14.52,9.05a4.42,4.42,0,0,0,4.64,4.56A4.6,4.6,0,0,0,232,34.52a3.71,3.71,0,0,0-.42-1.66c-.25-.67-.75-1.17-1-1.83a1.28,1.28,0,0,1-.16-.78c0-.74,1.16-2.4,4.89-2.4,5.57,0,5.81,2.68,5.81,6.17v6.2c-5.15.5-11.91,1.25-16.56,4.65a11.11,11.11,0,0,0-4.85,8.91c0,2.57,1.24,8.38,9.8,8.38a15.14,15.14,0,0,0,11.8-5.44c1.08,2.16,2.72,5.44,7.46,5.44,4.06,0,6.64-2.57,8.13-4.15l-1.52-2a4.43,4.43,0,0,1-2.49,1.25c-2,0-1.88-2.22-1.88-4.13V36.43Zm-9.88,12.86c0,2.16.08,4.74-2.33,6.73a6.08,6.08,0,0,1-3.65,1.33c-2.9,0-5.64-2.25-5.64-6.4,0-7.39,7.22-7.8,11.62-8.05v6.39Z" transform="translate(0 -0.23)"/><polygon class="cls-6" points="20.22 71.36 268.95 71.36 268.95 84.76 20.22 84.76 20.22 71.36 20.22 71.36"/><path class="cls-2" d="M48.13,58.46v2.62H28.68V58.46H32.3c3.61-.25,4.65-2.19,5.79-5.34C44.12,36.39,50,19.74,55.94,3h3.85S73.4,40,80.16,58.46H86.6v2.62H60.3V58.46h7.56c-4.67-12.76-9.3-25.5-14-38.35l-5.4,15.37c-.59,1.66-4.5,13.68-6.28,18.84-.48,1.77-.42,1.65-.35,2.47.13,1.42,2,1.73,6.33,1.67Z" transform="translate(0 -0.23)"/><polygon class="cls-2" points="2.15 37.49 56.34 37.49 60.05 47.41 5.42 47.4 2.15 37.49 2.15 37.49"/><g class="cls-7"><polygon class="cls-6" points="0 36.65 57.36 36.65 60.15 44.04 2.87 44.04 0 36.65 0 36.65"/></g></g><path class="cls-2" d="M40.23,105.68h-4c.37-1.08,2-6.92,2-6.92h0C38.43,99.39,40.07,105.33,40.23,105.68Zm4.87,6.51L39.93,96H36.82l-5.31,16.22h2.78l1.31-4.25h5.24l1.31,4.25Z" transform="translate(0 -0.23)"/><path class="cls-2" d="M54.69,112.39c-3.19,0-4.18-1.64-4.18-3.59V100h2v8.17c0,1.86.67,2.47,2.16,2.47s2.19-.86,2.19-2.47V100h2v8.75C58.89,111,57.35,112.39,54.69,112.39Z" transform="translate(0 -0.23)"/><path class="cls-2" d="M72.41,101.71h-3v10.48h-2V101.71H64.28V100h8.39Z" transform="translate(0 -0.23)"/><path class="cls-2" d="M82.39,110.84c-2.07,0-2.86-1.73-2.86-4.85,0-2.91.77-4.56,2.81-4.56s2.8,1.86,2.8,4.82C85.14,109.51,84.21,110.84,82.39,110.84Zm.06,1.53c3.16,0,5-2.45,5-6.24,0-3.54-1.64-6.25-5.07-6.25-3,0-5.07,2.23-5.07,6.23C77.29,109.71,79,112.37,82.45,112.37Z" transform="translate(0 -0.23)"/><path class="cls-2" d="M128.18,112.19v-7.47h-5.5v7.47H120V96h2.65v6.49h5.5V96h2.72v16.17Z" transform="translate(0 -0.23)"/><path class="cls-2" d="M142.86,110.84c-2.07,0-2.87-1.73-2.87-4.85,0-2.91.78-4.56,2.82-4.56s2.8,1.86,2.8,4.82C145.61,109.51,144.68,110.84,142.86,110.84Zm.06,1.53c3.16,0,5-2.45,5-6.24,0-3.54-1.64-6.25-5.07-6.25-3.05,0-5.07,2.23-5.07,6.23C137.76,109.71,139.45,112.37,142.92,112.37Z" transform="translate(0 -0.23)"/><path class="cls-2" d="M164,112.19l-.56-7.53c0-.77-.09-1.69-.09-2.06-.09.41-.24,1.13-.47,1.9l-2.21,7.69h-1.72l-2-7.36c-.23-.8-.46-1.84-.53-2.24,0,.4-.07,1.51-.12,2.26l-.52,7.34h-2L154.85,100h2.68l1.86,6.89c.28,1,.39,1.65.46,2a18,18,0,0,1,.44-2L162.2,100h2.68L166,112.19Z" transform="translate(0 -0.23)"/><path class="cls-2" d="M172.55,112.19V100h6.73l-.27,1.64h-4.45V105h3.74v1.65h-3.71v3.81h4.86v1.71Z" transform="translate(0 -0.23)"/><path class="cls-2" d="M221.71,112.18h-8.27V96h2.73V110h6Z" transform="translate(0 -0.23)"/><path class="cls-2" d="M227.89,112.19V100H230v12.15Z" transform="translate(0 -0.23)"/><path class="cls-2" d="M243.12,101.68H239V105h3.38v1.63H239v5.57h-2V100h6.41Z" transform="translate(0 -0.23)"/><path class="cls-2" d="M249.06,112.19V100h6.73l-.26,1.64h-4.46V105h3.74v1.65h-3.7v3.81H256v1.71Z" transform="translate(0 -0.23)"/><path class="cls-2" d="M316.15,9.88H320V26.47h20.85V9.88h3.89V48.13h-3.89V30H320v18.1h-3.89Z" transform="translate(0 -0.23)"/><path class="cls-2" d="M355,36.46a11.06,11.06,0,0,0,.92,3.57,9.4,9.4,0,0,0,2,2.89,9.25,9.25,0,0,0,2.86,1.91,8.7,8.7,0,0,0,3.51.71,9,9,0,0,0,5-1.33,10,10,0,0,0,3.16-3.05l2.75,2.27a13.7,13.7,0,0,1-5,4.11,14.06,14.06,0,0,1-5.86,1.24,13.55,13.55,0,0,1-5.21-1A12.38,12.38,0,0,1,354.94,45a13.17,13.17,0,0,1-2.73-4.22,13.69,13.69,0,0,1-1-5.29,14.15,14.15,0,0,1,1-5.3,12.89,12.89,0,0,1,2.7-4.21A12.52,12.52,0,0,1,364,22.2a12.21,12.21,0,0,1,5.13,1A11.44,11.44,0,0,1,372.9,26a11.68,11.68,0,0,1,2.35,4,14.59,14.59,0,0,1,.81,4.89v1.62Zm17.18-2.92a7.59,7.59,0,0,0-8.21-8.1,8.65,8.65,0,0,0-3.35.68,9.37,9.37,0,0,0-2.84,1.81,8.89,8.89,0,0,0-1.94,2.59,6.62,6.62,0,0,0-.73,3Z" transform="translate(0 -0.23)"/><path class="cls-2" d="M385.57,48.13H382V7.29h3.57Z" transform="translate(0 -0.23)"/><path class="cls-2" d="M392.8,22.85h3.57v4.21h.11a9.2,9.2,0,0,1,2-2.21A12.88,12.88,0,0,1,401,23.33a12.06,12.06,0,0,1,2.67-.86,13.64,13.64,0,0,1,2.62-.27,14.23,14.23,0,0,1,5.43,1,12.52,12.52,0,0,1,7,7,14.52,14.52,0,0,1,0,10.59,12.49,12.49,0,0,1-7,7,14.42,14.42,0,0,1-5.43,1,13.64,13.64,0,0,1-2.62-.27,11.58,11.58,0,0,1-2.67-.87,12.35,12.35,0,0,1-2.49-1.51,9.2,9.2,0,0,1-2-2.21h-.11V63.69H392.8Zm23.07,12.64a11.28,11.28,0,0,0-.67-3.94,9.41,9.41,0,0,0-1.92-3.19,9.17,9.17,0,0,0-3-2.14,9.67,9.67,0,0,0-4-.78,10.23,10.23,0,0,0-4.05.78,10.11,10.11,0,0,0-3.19,2.14A9.7,9.7,0,0,0,397,31.55a10.72,10.72,0,0,0,0,7.88,9.7,9.7,0,0,0,2.11,3.19,9.92,9.92,0,0,0,3.19,2.13,10.06,10.06,0,0,0,4.05.79,9.51,9.51,0,0,0,4-.79,9,9,0,0,0,3-2.13,9.41,9.41,0,0,0,1.92-3.19A11.32,11.32,0,0,0,415.87,35.49Z" transform="translate(0 -0.23)"/><path class="cls-2" d="M436.24,26.09h-6v22h-3.57v-22h-5.34V22.85h5.34V15.93q0-5,2.33-7.15a8.72,8.72,0,0,1,6.16-2.14,11.75,11.75,0,0,1,1.54.11c.52.07,1,.16,1.54.27l-.65,3.24c-.43-.11-.89-.2-1.35-.27a9.57,9.57,0,0,0-1.41-.11,5.16,5.16,0,0,0-2.38.49,3.27,3.27,0,0,0-1.4,1.38,6.12,6.12,0,0,0-.65,2.08,18.51,18.51,0,0,0-.16,2.54v6.48h6Z" transform="translate(0 -0.23)"/><path class="cls-2" d="M457.36,48.13c-.07-.68-.12-1.36-.14-2s0-1.34,0-2h-.11A8.65,8.65,0,0,1,455.58,46a9.8,9.8,0,0,1-2.06,1.48,11.2,11.2,0,0,1-2.4,1,9.61,9.61,0,0,1-2.51.35q-4.86,0-7.19-2.57t-2.32-7.32v-16h3.56v14a18.88,18.88,0,0,0,.33,3.73,6.78,6.78,0,0,0,1.11,2.72A4.86,4.86,0,0,0,446.2,45a8.44,8.44,0,0,0,3.33.57c.17,0,.68-.08,1.51-.22a6.51,6.51,0,0,0,2.62-1.19,8.67,8.67,0,0,0,2.46-2.92,11.18,11.18,0,0,0,1.08-5.4v-13h3.56V42.57c0,.68,0,1.54.08,2.59s.12,2,.19,3Z" transform="translate(0 -0.23)"/><path class="cls-2" d="M472.16,48.13h-3.57V7.29h3.57Z" transform="translate(0 -0.23)"/><path class="cls-2" d="M482.8,22.85c.07.68.12,1.36.14,2s0,1.35,0,2h.11A8.65,8.65,0,0,1,484.58,25a10.22,10.22,0,0,1,2.06-1.49,11.49,11.49,0,0,1,2.4-1,9.55,9.55,0,0,1,2.51-.35q4.86,0,7.19,2.57c1.54,1.71,2.32,4.15,2.32,7.32v16h-3.57v-14A11.91,11.91,0,0,0,496,27.68q-1.47-2.23-5.41-2.24a12.68,12.68,0,0,0-1.51.22,6.51,6.51,0,0,0-2.62,1.19A8.52,8.52,0,0,0,484,29.76a11.23,11.23,0,0,0-1.08,5.4v13H479.4V28.41c0-.68,0-1.55-.08-2.59s-.12-2-.19-3Z" transform="translate(0 -0.23)"/><path class="cls-2" d="M509.49,36.46A10.8,10.8,0,0,0,510.4,40a9.57,9.57,0,0,0,2,2.89,9.3,9.3,0,0,0,2.87,1.91,8.7,8.7,0,0,0,3.51.71,8.94,8.94,0,0,0,4.94-1.33,9.85,9.85,0,0,0,3.16-3.05l2.76,2.27a13.78,13.78,0,0,1-5,4.11,14.1,14.1,0,0,1-5.86,1.24,13.55,13.55,0,0,1-5.21-1A12.32,12.32,0,0,1,509.43,45a13.34,13.34,0,0,1-2.73-4.22,13.88,13.88,0,0,1-1-5.29,14.15,14.15,0,0,1,1-5.3,12.89,12.89,0,0,1,2.7-4.21,13,13,0,0,1,14.21-2.75,11.3,11.3,0,0,1,3.8,2.72,11.68,11.68,0,0,1,2.35,4,14.59,14.59,0,0,1,.81,4.89v1.62Zm17.17-2.92a8.1,8.1,0,0,0-2.16-5.86,8,8,0,0,0-6-2.24,8.68,8.68,0,0,0-3.35.68,9.33,9.33,0,0,0-2.83,1.81,9.1,9.1,0,0,0-1.95,2.59,6.75,6.75,0,0,0-.73,3Z" transform="translate(0 -0.23)"/><path class="cls-2" d="M549.08,28.84a6.61,6.61,0,0,0-2.16-2.48,5.74,5.74,0,0,0-3.29-.92,8,8,0,0,0-1.87.22,5.8,5.8,0,0,0-1.7.67,3.84,3.84,0,0,0-1.21,1.16,3.08,3.08,0,0,0-.46,1.73,2.87,2.87,0,0,0,1.24,2.6,12.36,12.36,0,0,0,3.73,1.4l3.62.86a8.62,8.62,0,0,1,4.4,2.41A6.22,6.22,0,0,1,553.13,41a7.07,7.07,0,0,1-.83,3.54A7.2,7.2,0,0,1,550.08,47a9.52,9.52,0,0,1-3.16,1.38,15.72,15.72,0,0,1-3.62.43,13.32,13.32,0,0,1-5.43-1.11,10.06,10.06,0,0,1-4.29-3.81l3.08-2.1a8.44,8.44,0,0,0,2.73,2.75,7.26,7.26,0,0,0,3.91,1,9.36,9.36,0,0,0,2.16-.25,6.31,6.31,0,0,0,1.92-.75,4.09,4.09,0,0,0,1.35-1.33,3.48,3.48,0,0,0,.52-1.89,2.91,2.91,0,0,0-1.41-2.72,12.5,12.5,0,0,0-3.4-1.33L541,36.46c-.43-.11-1-.29-1.76-.54a8.62,8.62,0,0,1-2.16-1.13,6.93,6.93,0,0,1-1.81-2,5.57,5.57,0,0,1-.75-3,7.15,7.15,0,0,1,.78-3.41A6.6,6.6,0,0,1,537.39,24a9.58,9.58,0,0,1,3-1.38,12.76,12.76,0,0,1,3.45-.46,11.69,11.69,0,0,1,4.92,1,7.21,7.21,0,0,1,3.51,3.51Z" transform="translate(0 -0.23)"/><path class="cls-2" d="M570.75,28.84a6.63,6.63,0,0,0-2.17-2.48,5.71,5.71,0,0,0-3.29-.92,8,8,0,0,0-1.86.22,5.87,5.87,0,0,0-1.71.67,3.84,3.84,0,0,0-1.21,1.16,3.08,3.08,0,0,0-.46,1.73,2.87,2.87,0,0,0,1.24,2.6,12.36,12.36,0,0,0,3.73,1.4l3.62.86a8.62,8.62,0,0,1,4.4,2.41A6.23,6.23,0,0,1,574.8,41a7.08,7.08,0,0,1-.84,3.54A7.2,7.2,0,0,1,571.74,47a9.43,9.43,0,0,1-3.16,1.38,15.63,15.63,0,0,1-3.61.43,13.25,13.25,0,0,1-5.43-1.11,10,10,0,0,1-4.3-3.81l3.08-2.1a8.44,8.44,0,0,0,2.73,2.75,7.29,7.29,0,0,0,3.92,1,9.36,9.36,0,0,0,2.16-.25,6.25,6.25,0,0,0,1.91-.75,4.09,4.09,0,0,0,1.35-1.33,3.39,3.39,0,0,0,.52-1.89,2.91,2.91,0,0,0-1.41-2.72,12.37,12.37,0,0,0-3.4-1.33l-3.46-.81c-.43-.11-1-.29-1.75-.54a8.29,8.29,0,0,1-2.16-1.13,6.65,6.65,0,0,1-1.81-2,5.49,5.49,0,0,1-.76-3,7.15,7.15,0,0,1,.78-3.41A6.8,6.8,0,0,1,559.05,24a9.58,9.58,0,0,1,3-1.38,12.84,12.84,0,0,1,3.46-.46,11.68,11.68,0,0,1,4.91,1,7.21,7.21,0,0,1,3.51,3.51Z" transform="translate(0 -0.23)"/><path class="cls-2" d="M320,105.1h-3.89V66.86H320Z" transform="translate(0 -0.23)"/><path class="cls-2" d="M331.17,79.82c.07.69.12,1.36.13,2s0,1.34,0,2h.11A8.37,8.37,0,0,1,333,82,10.11,10.11,0,0,1,335,80.5a10.76,10.76,0,0,1,2.41-1,9.12,9.12,0,0,1,2.51-.36c3.24,0,5.64.86,7.18,2.57s2.33,4.15,2.33,7.32v16h-3.57v-14a11.76,11.76,0,0,0-1.46-6.45c-1-1.5-2.77-2.24-5.4-2.24a14.1,14.1,0,0,0-1.51.21,6.64,6.64,0,0,0-2.62,1.19,8.56,8.56,0,0,0-2.46,2.92,11.18,11.18,0,0,0-1.08,5.4v13h-3.56V85.39c0-.69,0-1.55-.09-2.6s-.11-2-.18-3Z" transform="translate(0 -0.23)"/><path class="cls-2" d="M369.85,85.82a6.64,6.64,0,0,0-2.16-2.49,5.74,5.74,0,0,0-3.3-.91,8.56,8.56,0,0,0-1.86.21,5.71,5.71,0,0,0-1.7.68,3.67,3.67,0,0,0-1.22,1.16,3.06,3.06,0,0,0-.46,1.73,2.88,2.88,0,0,0,1.24,2.59,12.2,12.2,0,0,0,3.73,1.4l3.62.87a8.64,8.64,0,0,1,4.4,2.4A6.23,6.23,0,0,1,373.9,98a7.08,7.08,0,0,1-.84,3.54,7.27,7.27,0,0,1-2.21,2.43,9.61,9.61,0,0,1-3.16,1.38,15.25,15.25,0,0,1-3.62.43,13.25,13.25,0,0,1-5.43-1.11,9.94,9.94,0,0,1-4.3-3.8l3.08-2.11a8.44,8.44,0,0,0,2.73,2.75,7.21,7.21,0,0,0,3.92,1,9.93,9.93,0,0,0,2.16-.24,6.32,6.32,0,0,0,1.92-.76,4.25,4.25,0,0,0,1.35-1.32A3.47,3.47,0,0,0,370,98.3a2.93,2.93,0,0,0-1.41-2.73,12.06,12.06,0,0,0-3.4-1.32l-3.46-.81c-.43-.11-1-.29-1.75-.54a8.33,8.33,0,0,1-2.16-1.14,6.74,6.74,0,0,1-1.81-2,5.52,5.52,0,0,1-.76-3,7,7,0,0,1,.79-3.4,6.7,6.7,0,0,1,2.1-2.38,9.81,9.81,0,0,1,3-1.38,13.3,13.3,0,0,1,3.46-.46,11.84,11.84,0,0,1,4.91,1A7.23,7.23,0,0,1,373,83.71Z" transform="translate(0 -0.23)"/><path class="cls-2" d="M396.37,105.1c-.07-.68-.12-1.36-.13-2s0-1.34,0-2h-.11a8.21,8.21,0,0,1-1.51,1.89,9.94,9.94,0,0,1-2.06,1.49,11,11,0,0,1-2.4,1,9.5,9.5,0,0,1-2.51.35q-4.86,0-7.19-2.56c-1.54-1.71-2.32-4.15-2.32-7.32V79.82h3.57v14a19.64,19.64,0,0,0,.32,3.73,7.19,7.19,0,0,0,1.11,2.73,4.74,4.74,0,0,0,2.11,1.67,8.38,8.38,0,0,0,3.32.57,12.68,12.68,0,0,0,1.51-.22,6.61,6.61,0,0,0,2.62-1.18,8.56,8.56,0,0,0,2.46-2.92,11.23,11.23,0,0,0,1.08-5.4v-13h3.56V99.54c0,.68,0,1.55.08,2.59s.12,2,.19,3Z" transform="translate(0 -0.23)"/><path class="cls-2" d="M407.18,87.71c0-1.12,0-2.25-.09-3.4s-.1-2.65-.13-4.49h3.51v4.7h.11a7.79,7.79,0,0,1,1.08-2,8.37,8.37,0,0,1,4-2.92,9.27,9.27,0,0,1,3-.46,9.55,9.55,0,0,1,2.65.33l-.7,3.51a6.06,6.06,0,0,0-2.06-.27,7.34,7.34,0,0,0-3.51.78,8,8,0,0,0-2.43,2,8.21,8.21,0,0,0-1.43,2.62,8.6,8.6,0,0,0-.46,2.7V105.1h-3.56Z" transform="translate(0 -0.23)"/><path class="cls-2" d="M424.89,93.44a11,11,0,0,0,.92,3.56,9.28,9.28,0,0,0,2,2.89,9.46,9.46,0,0,0,2.86,1.92,8.7,8.7,0,0,0,3.51.7,9.06,9.06,0,0,0,4.95-1.32,10,10,0,0,0,3.16-3L445,100.4a13.75,13.75,0,0,1-5,4.11,14,14,0,0,1-5.87,1.24,13.36,13.36,0,0,1-5.21-1,12.09,12.09,0,0,1-4.13-2.78,13.3,13.3,0,0,1-2.73-4.21,13.74,13.74,0,0,1-1-5.3,14.26,14.26,0,0,1,1-5.29,12.78,12.78,0,0,1,2.7-4.21,12.47,12.47,0,0,1,9.08-3.79,12.37,12.37,0,0,1,5.13,1,11.32,11.32,0,0,1,3.81,2.73,11.59,11.59,0,0,1,2.35,4,14.57,14.57,0,0,1,.81,4.88v1.63Zm17.18-2.92a8.09,8.09,0,0,0-2.16-5.86,8,8,0,0,0-6.05-2.24,8.64,8.64,0,0,0-3.35.67,9.37,9.37,0,0,0-2.84,1.81,9.21,9.21,0,0,0-1.94,2.59,6.66,6.66,0,0,0-.73,3Z" transform="translate(0 -0.23)"/><path class="cls-2" d="M476.32,105.1h-3.57v-4.21h-.1a9.24,9.24,0,0,1-2.06,2.21,12.62,12.62,0,0,1-2.48,1.52,12.4,12.4,0,0,1-2.67.86,13.72,13.72,0,0,1-2.62.27,14.16,14.16,0,0,1-5.43-1,12.45,12.45,0,0,1-4.24-2.78,12.8,12.8,0,0,1-2.79-4.21,14.52,14.52,0,0,1,0-10.59,12.63,12.63,0,0,1,7-7,14.35,14.35,0,0,1,5.43-1,13.72,13.72,0,0,1,2.62.27,11.9,11.9,0,0,1,2.67.87,13.06,13.06,0,0,1,2.48,1.51A9.1,9.1,0,0,1,472.65,84h.1V64.26h3.57ZM453.25,92.46a11.38,11.38,0,0,0,.68,4,9.46,9.46,0,0,0,1.92,3.18,8.88,8.88,0,0,0,3,2.14,9.71,9.71,0,0,0,4,.78,10.32,10.32,0,0,0,4-.78,9.92,9.92,0,0,0,3.21-2.14,9.61,9.61,0,0,0,2.11-3.18,10.62,10.62,0,0,0,0-7.89,9.65,9.65,0,0,0-2.11-3.19,9.9,9.9,0,0,0-3.21-2.13,10.32,10.32,0,0,0-4-.78,9.71,9.71,0,0,0-4,.78,8.86,8.86,0,0,0-3,2.13,9.51,9.51,0,0,0-1.92,3.19A11.33,11.33,0,0,0,453.25,92.46Z" transform="translate(0 -0.23)"/><path class="cls-2" d="M488.12,63.64a7.07,7.07,0,1,1-7.07,7.07A7.09,7.09,0,0,1,488.12,63.64Zm0,12.54a5.48,5.48,0,1,0-5.24-5.47A5.31,5.31,0,0,0,488.12,76.18Zm-2.72-9.25h2.38c1.71,0,3.34.4,3.34,2.18a2.18,2.18,0,0,1-1.67,2.28l1.9,3h-2l-1.69-2.85h-.43v2.85H485.4ZM487.21,70h.89c.46,0,1.2,0,1.2-.8s-.74-.8-1.2-.8h-.89Z" transform="translate(0 -0.23)"/></g></g></svg>