<svg xmlns="http://www.w3.org/2000/svg" viewBox="0 0 54.19 14.8"><defs><style>.cls-1{fill:#00463c;}</style></defs><title>barText1</title><g id="Layer_2" data-name="Layer 2"><g id="Layer_1-2" data-name="Layer 1"><path class="cls-1" d="M0,14.56V.24H3.81A11.31,11.31,0,0,1,6.59.45,3.15,3.15,0,0,1,8.32,1.87,5.19,5.19,0,0,1,9,4.66a5.29,5.29,0,0,1-.58,2.6A3.44,3.44,0,0,1,6.94,8.74a7.63,7.63,0,0,1-3,.42H2.36v5.4ZM2.36,2.67V6.74H3.67a5.51,5.51,0,0,0,1.8-.19,1.53,1.53,0,0,0,.78-.67,2.21,2.21,0,0,0,.3-1.19,2.16,2.16,0,0,0-.31-1.2,1.56,1.56,0,0,0-.77-.66,7.25,7.25,0,0,0-1.95-.16Z"/><path class="cls-1" d="M20.33,14.56H17.76l-1-3.24H12l-1,3.24H8.54L13.12.24h2.51ZM16,8.9,14.35,3.58,12.76,8.9Z"/><path class="cls-1" d="M21.58,14.56V.24h5a6.91,6.91,0,0,1,2.74.39A3,3,0,0,1,30.65,2a4.52,4.52,0,0,1,.53,2.28,4.27,4.27,0,0,1-.8,2.7,3.54,3.54,0,0,1-2.29,1.29,6.58,6.58,0,0,1,1.26,1.2,16.81,16.81,0,0,1,1.35,2.33l1.43,2.79H29.3l-1.71-3.11a20.63,20.63,0,0,0-1.26-2.12,1.79,1.79,0,0,0-.71-.58,3.08,3.08,0,0,0-1.19-.17H24v6ZM24,6.3H25.7a9,9,0,0,0,2.05-.14,1.38,1.38,0,0,0,.72-.57,2.15,2.15,0,0,0,.27-1.15,2,2,0,0,0-.27-1.1,1.47,1.47,0,0,0-.75-.57,9.72,9.72,0,0,0-1.92-.1H24Z"/><path class="cls-1" d="M33.44,14.56V.24H35.8V6.62L40.6.24h3.19L39.37,5.82,44,14.56H41L37.72,7.83l-1.92,2.4v4.33Z"/><path class="cls-1" d="M44.65,9.89,47,9.62c.26,1.83,1.12,2.74,2.56,2.74a2.38,2.38,0,0,0,1.69-.56,1.81,1.81,0,0,0,.62-1.39A1.45,1.45,0,0,0,51,9a19.5,19.5,0,0,0-2.13-.74,7.07,7.07,0,0,1-2.22-1,3.84,3.84,0,0,1-1.12-1.41A4.41,4.41,0,0,1,45.08,4a4.26,4.26,0,0,1,.53-2.11A3.56,3.56,0,0,1,47.08.48,5.06,5.06,0,0,1,49.39,0a4.48,4.48,0,0,1,3.24,1.12,4.52,4.52,0,0,1,1.23,3.22l-2.38.12a2.52,2.52,0,0,0-.67-1.61,2.17,2.17,0,0,0-1.47-.46,2.44,2.44,0,0,0-1.48.4,1.23,1.23,0,0,0-.52,1,1.27,1.27,0,0,0,.47,1A7,7,0,0,0,50,5.65a8.77,8.77,0,0,1,2.58,1.08,3.82,3.82,0,0,1,1.22,1.48,5.15,5.15,0,0,1,.42,2.19A4.51,4.51,0,0,1,53,13.54a4.62,4.62,0,0,1-3.59,1.26C46.58,14.8,45,13.17,44.65,9.89Z"/></g></g></svg>