<svg xmlns="http://www.w3.org/2000/svg" viewBox="0 0 144.17 14.8"><defs><style>.cls-1{fill:#00463c;}</style></defs><title>barText2</title><g id="Layer_2" data-name="Layer 2"><g id="Layer_1-2" data-name="Layer 1"><path class="cls-1" d="M3.08,12.5V8.78H0V6.21H3.08V2.49H5.13V6.21H8.21V8.78H5.13V12.5Z"/><path class="cls-1" d="M24.66,14.56H22.09l-1-3.24h-4.7l-1,3.24H12.87L17.44.24H20ZM20.3,8.9,18.68,3.58,17.09,8.9Z"/><path class="cls-1" d="M25.91,14.56V.24h5a6.86,6.86,0,0,1,2.73.39A3,3,0,0,1,35,2a4.63,4.63,0,0,1,.53,2.28A4.22,4.22,0,0,1,34.7,7a3.51,3.51,0,0,1-2.29,1.29,6,6,0,0,1,1.26,1.2A16.6,16.6,0,0,1,35,11.77l1.43,2.79H33.63l-1.72-3.11a18.86,18.86,0,0,0-1.26-2.12,1.77,1.77,0,0,0-.7-.58,3.12,3.12,0,0,0-1.19-.17h-.49v6ZM28.27,6.3H30a9.1,9.1,0,0,0,2-.14,1.36,1.36,0,0,0,.71-.57,2.06,2.06,0,0,0,.28-1.15,1.93,1.93,0,0,0-.28-1.1,1.45,1.45,0,0,0-.74-.57,9.72,9.72,0,0,0-1.92-.1H28.27Z"/><path class="cls-1" d="M40.38,14.56V2.67H36.89V.24h9.33V2.67H42.74V14.56Z"/><path class="cls-1" d="M57.78,9.31V6.88h5.11v5.71a6.29,6.29,0,0,1-2.19,1.56,6.64,6.64,0,0,1-2.84.65A5.56,5.56,0,0,1,54.79,14a5.82,5.82,0,0,1-2.1-2.56,9.53,9.53,0,0,1-.78-4,9.54,9.54,0,0,1,.79-4,5.83,5.83,0,0,1,2-2.51,5.36,5.36,0,0,1,3-.83,5.06,5.06,0,0,1,3.37,1.07,5.09,5.09,0,0,1,1.62,3.14l-2.34.54a3,3,0,0,0-1-1.69,2.51,2.51,0,0,0-1.68-.59,3,3,0,0,0-2.45,1.18,5.73,5.73,0,0,0-.93,3.59,6.44,6.44,0,0,0,1,3.93,2.76,2.76,0,0,0,2.35,1.16A3.56,3.56,0,0,0,59.17,12a4.77,4.77,0,0,0,1.33-.89V9.31Z"/><path class="cls-1" d="M75.67,14.56H73.1l-1-3.24h-4.7l-1,3.24H63.89L68.46.24H71ZM71.31,8.9,69.69,3.58,68.1,8.9Z"/><path class="cls-1" d="M77,14.56V.36h2.37V12.14h5.89v2.42Z"/><path class="cls-1" d="M87,14.56V.36h2.37V12.14h5.89v2.42Z"/><path class="cls-1" d="M97,14.56V.24h8.71V2.67H99.33V5.84h5.89V8.25H99.33v3.89h6.56v2.42Z"/><path class="cls-1" d="M107.9,14.56V.24h5a6.82,6.82,0,0,1,2.73.39A3,3,0,0,1,117,2a4.63,4.63,0,0,1,.53,2.28,4.22,4.22,0,0,1-.81,2.7,3.51,3.51,0,0,1-2.29,1.29,6,6,0,0,1,1.26,1.2A15.66,15.66,0,0,1,117,11.77l1.43,2.79h-2.83l-1.72-3.11a19.41,19.41,0,0,0-1.25-2.12,1.79,1.79,0,0,0-.71-.58,3.08,3.08,0,0,0-1.19-.17h-.49v6Zm2.36-8.26H112a9,9,0,0,0,2-.14,1.38,1.38,0,0,0,.72-.57,2.15,2.15,0,0,0,.27-1.15,2,2,0,0,0-.27-1.1,1.47,1.47,0,0,0-.75-.57,9.72,9.72,0,0,0-1.92-.1h-1.86Z"/><path class="cls-1" d="M119.66,14.56V.24H122V14.56Z"/><path class="cls-1" d="M124.3,14.56V.24H133V2.67h-6.35V5.84h5.9V8.25h-5.9v3.89h6.56v2.42Z"/><path class="cls-1" d="M134.63,9.89l2.31-.27c.26,1.83,1.12,2.74,2.56,2.74a2.38,2.38,0,0,0,1.69-.56,1.81,1.81,0,0,0,.62-1.39A1.45,1.45,0,0,0,140.94,9a18.7,18.7,0,0,0-2.13-.74,7.07,7.07,0,0,1-2.22-1,3.84,3.84,0,0,1-1.12-1.41A4.41,4.41,0,0,1,135.06,4a4.26,4.26,0,0,1,.53-2.11A3.56,3.56,0,0,1,137.06.48,5.07,5.07,0,0,1,139.38,0a4.45,4.45,0,0,1,3.23,1.12,4.52,4.52,0,0,1,1.23,3.22l-2.38.12a2.52,2.52,0,0,0-.67-1.61,2.17,2.17,0,0,0-1.47-.46,2.44,2.44,0,0,0-1.48.4,1.23,1.23,0,0,0-.52,1,1.27,1.27,0,0,0,.47,1,7,7,0,0,0,2.16.88,9,9,0,0,1,2.59,1.08,3.79,3.79,0,0,1,1.21,1.48,5.15,5.15,0,0,1,.42,2.19A4.51,4.51,0,0,1,143,13.54a4.62,4.62,0,0,1-3.59,1.26C136.56,14.8,135,13.17,134.63,9.89Z"/></g></g></svg>