<?xml version="1.0" encoding="utf-8"?>
<!-- Generator: Adobe Illustrator 24.0.0, SVG Export Plug-In . SVG Version: 6.00 Build 0)  -->
<svg version="1.1" id="Layer_1" xmlns="http://www.w3.org/2000/svg" xmlns:xlink="http://www.w3.org/1999/xlink" x="0px" y="0px"
	 viewBox="0 0 31 27" style="enable-background:new 0 0 31 27;" xml:space="preserve">
<style type="text/css">
	.st0{fill-rule:evenodd;clip-rule:evenodd;fill:#EE2C2A;}
	.st1{fill:#FFFFFF;}
</style>
<g id="heart">
	<path class="st0" d="M15.5,23.8c-0.4,0-0.8-0.3-1-0.7c-0.2-0.5-1.7-2.4-4.3-4c-0.4-0.2-0.8-0.5-1.3-0.7c-2.7-1.4-6-3.2-5.9-7.2
		c0-4.8,3.4-7.4,6.7-7.4c2.3,0,4.3,1.1,5.7,3C16.9,5.1,19,4,21.3,4c3.3,0,6.7,2.5,6.7,7.2c0,3.8-3.1,5.6-5.6,7
		c-0.5,0.3-1.1,0.6-1.5,0.9c-2.3,1.5-4.1,3.5-4.3,4C16.4,23.5,16,23.8,15.5,23.8C15.5,23.8,15.5,23.8,15.5,23.8z"/>
	<path class="st1" d="M9.8,4.9c2.2,0,4.5,1.3,5.7,3.9C16.7,6.3,19,5,21.3,5c2.9,0,5.7,2.1,5.7,6.2c0,4-4.1,5.3-6.7,7
		c-2.4,1.5-4.5,3.7-4.7,4.6c-0.3-0.9-2.1-3-4.8-4.5c-2.7-1.6-6.7-3.1-6.7-7C4.1,7.2,6.9,4.9,9.8,4.9 M9.8,2.9
		c-3.8,0-7.7,2.9-7.7,8.3c0,4.6,3.7,6.6,6.5,8.1C9,19.6,9.4,19.8,9.8,20c2.2,1.3,3.7,3,3.9,3.5c0.3,0.8,1,1.4,1.9,1.4c0,0,0,0,0,0
		c0.9,0,1.6-0.6,1.9-1.4c0.3-0.5,1.9-2.2,3.9-3.5c0.4-0.3,0.9-0.6,1.5-0.9c2.6-1.5,6.2-3.4,6.1-7.9c0-5.4-3.9-8.2-7.7-8.2
		c-2.2,0-4.2,0.9-5.7,2.4C14,3.8,12,2.9,9.8,2.9C9.8,2.9,9.8,2.9,9.8,2.9L9.8,2.9z"/>
</g>
</svg>
