<svg xmlns="http://www.w3.org/2000/svg" viewBox="0 0 97.75 136"><defs><style>.cls-1{fill:#fff;}.cls-2{opacity:0.5;}.cls-3{fill:#e97924;}</style></defs><title>orangepin</title><g id="Layer_2" data-name="Layer 2"><g id="Layer_1-2" data-name="Layer 1"><path class="cls-1" d="M48.88,0C21.92,0,0,21.45,0,47.81A47,47,0,0,0,7.29,73l38.8,61.16a4.12,4.12,0,0,0,7-.05L90.86,72.31a47.1,47.1,0,0,0,6.89-24.5C97.75,21.45,75.83,0,48.88,0Zm0,64.76A17.08,17.08,0,1,1,66,47.68,17.08,17.08,0,0,1,48.88,64.76Z"/><g class="cls-2"><path class="cls-3" d="M48.88,0C21.92,0,0,21.45,0,47.81A47,47,0,0,0,7.29,73l38.8,61.16a4.12,4.12,0,0,0,7-.05L90.86,72.31a47.1,47.1,0,0,0,6.89-24.5C97.75,21.45,75.83,0,48.88,0Zm0,64.76A17.08,17.08,0,1,1,66,47.68,17.08,17.08,0,0,1,48.88,64.76Z"/></g></g></g></svg>