<svg id="CIRCLE_copy" data-name="CIRCLE copy" xmlns="http://www.w3.org/2000/svg" width="368.469" height="365.875" viewBox="0 0 368.469 365.875">
  <defs>
    <style>
      .cls-1 {
        fill: none;
        stroke: #fff;
        stroke-width: 3px;
      }

      .cls-1, .cls-2 {
        fill-rule: evenodd;
      }

      .cls-2 {
        fill: #fff;
      }
    </style>
  </defs>
  <path class="cls-1" d="M422.02,167.487A176.405,176.405,0,1,1,105.728,323.638" transform="translate(-74.969 -61)"/>
  <path id="KNOW_YOUR_WAIT-TIME" data-name="KNOW YOUR WAIT-TIME" class="cls-2" d="M111.663,307.539l-1.47-5.718-8.088,2.078-3.92-1.866,9.415-10.3-1.774-6.9L92.909,299.3,78.3,292.947l1.669,6.5L91.4,304.43a22.166,22.166,0,0,0,4.96,1.338,47.026,47.026,0,0,0-4.751.83l-9.191,2.362,1.47,5.718Zm-7.81-49.834-0.042-.589-28.858,2.071,0.4,5.511,11.989-.861c1.977-.141,5.189-0.753,5.189-0.753a40.794,40.794,0,0,0-3.671,3.647l-12.51,15.4,0.042,0.589,28.857-2.071-0.395-5.51L92.862,276a50.508,50.508,0,0,0-5.186.795,42.583,42.583,0,0,0,3.668-3.688Zm1.88-20.775a14.719,14.719,0,1,0-16.539,12.784A14.523,14.523,0,0,0,105.733,236.93Zm-5.226-.692c-0.687,5.184-5.207,8.159-10.516,7.456s-8.9-4.752-8.213-9.936,5.207-8.159,10.516-7.456S101.193,231.054,100.507,236.238Zm10.3-25.69,0.175-.564L99.77,199.478c-1.277-1.148-3.43-2.744-3.538-2.822,0.267-.006,2.84-0.045,4.5-0.279l15.121-2.055,0.176-.563L91.5,175.228,89.8,180.7l9.765,7.362c1.639,1.261,4.353,2.9,4.5,2.989a37.249,37.249,0,0,0-5.478.152l-12.9,1.863-0.175.564,9.594,8.766a33.359,33.359,0,0,0,4.427,3.23c-0.307-.007-3.391-0.171-5.4-0.09l-12.23.569-1.852,5.959Zm19.467-45.668,3.242-4.985-9.157-5.955-9.827-17.458-3.311,5.091,4.426,7.506c1.193,2.034,3.307,4.817,3.307,4.817s-3.519-.778-5.79-1l-8.749-.86-3.61,5.551,20.665,1.566ZM149.2,140.935a14.717,14.717,0,1,0-20.886.8A14.521,14.521,0,0,0,149.2,140.935Zm-3.852-3.6c-3.569,3.821-8.976,3.617-12.889-.038s-4.485-9.036-.915-12.857,8.976-3.617,12.889.038S148.922,133.516,145.352,137.337Zm27.676-17.282c5.321-3.8,7.372-9.562,3.157-15.466l-10.633-14.9-4.806,3.43,10.438,14.622c2.426,3.4,1.915,5.732-1.243,7.986-3.192,2.279-5.6,2.028-8.025-1.37L151.479,99.738l-4.806,3.43,10.634,14.9C161.521,123.968,167.639,123.9,173.028,120.055Zm14.7-10.131,5.336-2.526L188.8,98.4l3.391-1.606,9.518,6.5,6.1-2.887-10.545-7a8.439,8.439,0,0,0,1.479-9.984c-2.869-6.06-8.387-6.48-13.684-3.972l-9.6,4.547Zm-1.051-16.018-3.663-7.737,4.116-1.949c2.553-1.209,4.757-1.086,6.129,1.81,1.353,2.858.163,4.681-2.467,5.926Zm43.3,0.285,0.582-.1,4.307-14.755c0.447-1.658.9-4.3,0.919-4.432a45.108,45.108,0,0,0,2.283,3.891l8.665,12.563,0.582-.1L252.762,61l-5.655.955L244.951,74c-0.384,2.032-.62,5.194-0.633,5.367a37.133,37.133,0,0,0-2.611-4.819l-7.49-10.666-0.582.1L230.149,76.5a33.472,33.472,0,0,0-.883,5.409c-0.132-.277-1.379-3.1-2.361-4.861l-6.034-10.656-6.153,1.04Zm25.493-4.185,5.691,0.117,1.682-3.846,11.13,0.228,1.522,3.911,6.2,0.127L269.171,61.355l-0.506-.01Zm9.456-8.621,1.9-4.305c0.841-1.965,1.746-4.941,1.791-5.066,0.078,0.3.861,3.223,1.623,5.137l1.724,4.379Zm21.143,10.191,5.838,0.882L296.185,64.1l-5.838-.882Zm18.558,3.59,5.691,1.573,6.257-22.64,7.885,2.179,1.381-5-21.46-5.931-1.382,5,7.885,2.179Zm17.518-4,9.8,3.894,1.869-4.7-9.8-3.894Zm14.58,16.069,5.221,2.759L352.92,89.222l7.235,3.824,2.424-4.587-19.69-10.407-2.424,4.587,7.235,3.824Zm16.375,9.529,4.857,3.356,16.3-23.591L369.4,93.172Zm10.475,6.787,4.116,3.87,7.366-7.833c1.329-1.413,3.284-3.8,3.284-3.8a50.576,50.576,0,0,0-.531,5.058l-0.214,8.538,0.4,0.375,8.509-.739a50.457,50.457,0,0,0,5.015-.84s-2.262,2.1-3.591,3.511l-7.366,7.834,4.148,3.9,19.845-21.1-0.369-.347-20.768,1.773,0.339-20.982-0.338-.318Zm25.066,25.056,11.454,15.867,4.206-3.036-8-11.079,5.4-3.9,6.739,9.336,4.1-2.962-6.739-9.336,5.334-3.851,7.652,10.6L423,147.209,411.89,131.821Z" transform="translate(-74.969 -61)"/>
</svg>
