<svg xmlns="http://www.w3.org/2000/svg" width="366.718" height="363.937" viewBox="0 0 366.718 363.937">
  <defs>
    <style>
      .cls-1 {
        fill: none;
        stroke: #fff;
        stroke-width: 3px;
      }

      .cls-1, .cls-2 {
        fill-rule: evenodd;
      }

      .cls-2 {
        fill: #fff;
      }
    </style>
  </defs>
  <path id="Ellipse_3_copy_3" data-name="Ellipse 3 copy 3" class="cls-1" d="M835.419,113.041a176.391,176.391,0,1,1-259.047,232.7" transform="translate(-536.094 -64.469)"/>
  <path id="WHEN_IT_S_GO-TIME." data-name="WHEN IT’S GO-TIME." class="cls-2" d="M574.025,313.509l-0.164-.567-15.155-2.584c-1.7-.254-4.375-0.4-4.509-0.4,0.22-.152,2.346-1.6,3.6-2.715l11.487-10.053-0.165-.567-30.689-1.941,1.6,5.509,12.209,0.76c2.063,0.148,5.232.019,5.406,0.013a37.237,37.237,0,0,0-4.489,3.147l-9.737,8.666,0.164,0.567,12.841,2.027a33.375,33.375,0,0,0,5.476.255c-0.26.163-2.925,1.727-4.559,2.9l-9.894,7.219,1.74,6Zm-8.094-32.17-0.3-5.9-11.245.568-0.619-12.255,11.245-.568-0.3-5.9-28.637,1.446,0.3,5.9,12.129-.612,0.619,12.255L537,276.889l0.3,5.9ZM564.757,250l1.487-19.509-5.171-.394-1.039,13.622-6.643-.506,0.875-11.478-5.045-.385-0.875,11.478-6.559-.5,0.994-13.034-5.172-.394-1.443,18.92Zm8.519-48.4,0.15-.571-27.993-7.32-1.4,5.345,11.63,3.042c1.918,0.5,5.156.956,5.156,0.956a40.713,40.713,0,0,0-4.649,2.272l-16.8,10.559-0.15.572,27.993,7.32,1.4-5.345-11.629-3.042a50.711,50.711,0,0,0-5.166-.915,42.657,42.657,0,0,0,4.659-2.313Zm7.052-17.152,2.623-5.289-25.69-12.738-2.622,5.289Zm9.548-17.325,3.256-4.925-19.6-12.954,4.512-6.825-4.327-2.86-12.279,18.575,4.327,2.86,4.512-6.825Zm-2.317-26.959,1.777-2.088-1.636-4.716a6.985,6.985,0,0,0-1.943-3.315,3.417,3.417,0,1,0-.821,5.781Zm27.916-3.375c4.089-3.84,5.141-8.819,1.5-12.693-3.378-3.6-6.939-3.262-12.07-1.395l-1.51.55c-2.6.933-3.885,1.161-5.1-.131a2.569,2.569,0,0,1,.328-3.779c1.23-1.155,2.52-1.383,4.5-.753l1.331-5.3c-3.753-1.162-6.616-.267-9.352,2.3-3.843,3.609-3.993,8.378-.962,11.607,3.291,3.505,6.91,3.231,11.257,1.637l1.509-.55c2.776-.986,4.435-1.561,5.821-0.085,1.155,1.23.855,3.19-.929,4.864-2.121,1.992-4.36,2.011-6.7,1.371l-1.6,5.32C607.105,141.062,611.478,140.543,615.475,136.79ZM648.4,113.006a18.643,18.643,0,0,0,7.988-8.272l-6.247-11.2-10.753,6,2.528,4.53,6.039-3.37,2.261,4.05a14.135,14.135,0,0,1-4.385,3.654c-5.266,2.939-10.279,1.051-12.888-3.625s-1.616-9.82,2.913-12.347a7.943,7.943,0,0,1,6.872-.84l1.567-5.414c-3.378-1.206-6.94-.667-11.028,1.614-7.549,4.213-9.758,12.544-5.627,19.946S640.225,117.568,648.4,113.006ZM677.532,100.8a14.718,14.718,0,1,0-18.521-9.692A14.523,14.523,0,0,0,677.532,100.8Zm-1.553-5.038c-5,1.54-9.587-1.325-11.165-6.443s0.6-10.071,5.6-11.611,9.587,1.325,11.165,6.443S680.977,94.22,675.979,95.76Zm19.255-8.883,10.435-1.494-0.717-5.009-10.435,1.494Zm21.456,6.65,5.9-.168-0.669-23.481,8.179-.233-0.148-5.185-22.259.634,0.148,5.185,8.178-.233Zm19.815,0.313,5.875,0.571,2.774-28.54-5.876-.571Zm13.279,0.969,5.471,1.414,2.69-10.41C758.43,83.936,759,80.9,759,80.9a50.439,50.439,0,0,0,1.967,4.689l3.918,7.589,0.531,0.137,7.1-4.74a50.664,50.664,0,0,0,3.993-3.149s-0.974,2.927-1.46,4.805l-2.69,10.41,5.511,1.424,7.248-28.046-0.49-.127L767.275,85.437,757.482,66.88l-0.45-.116Zm34.809,10.24,17.632,8.487,2.25-4.674-12.312-5.927,2.89-6,10.374,4.994,2.195-4.561-10.374-4.993,2.853-5.928,11.78,5.67,2.25-4.674-17.1-8.231Zm25.62,13.958a3.564,3.564,0,1,0-1.075-4.955A3.52,3.52,0,0,0,810.213,119.008Z" transform="translate(-536.094 -64.469)"/>
</svg>
