<?xml version="1.0" encoding="utf-8"?>
<!-- Generator: Adobe Illustrator 22.1.0, SVG Export Plug-In . SVG Version: 6.00 Build 0)  -->
<svg version="1.1" id="Layer_1" xmlns="http://www.w3.org/2000/svg" xmlns:xlink="http://www.w3.org/1999/xlink" x="0px" y="0px"
	 viewBox="0 0 25 25" style="enable-background:new 0 0 25 25;" xml:space="preserve">
<style type="text/css">
	.st0{fill:#A94FD8;}
</style>
<g>
	<g id="Layer0_0_FILL">
		<path class="st0" d="M20,6.6c-0.2-0.3-0.4-0.7-0.6-1S18.9,5,18.6,4.8C18.3,4.5,18,4.2,17.7,4c-0.3-0.2-0.6-0.4-0.9-0.6
			s-0.7-0.4-1-0.5c-0.4-0.2-0.7-0.3-1.1-0.4c-0.4-0.1-0.8-0.2-1.1-0.2c-0.4-0.1-0.8-0.1-1.2,0c-0.4,0-0.8,0-1.1,0
			c-0.4,0.1-0.8,0.2-1.2,0.2c-0.4,0.1-0.7,0.2-1,0.4C8.8,3,8.4,3.2,8.1,3.4S7.5,3.8,7.2,4C6.9,4.2,6.6,4.5,6.3,4.8
			C6,5,5.8,5.3,5.5,5.6c-0.2,0.3-0.4,0.6-0.6,1c-0.2,0.3-0.4,0.6-0.5,1C4.2,7.9,4.1,8.3,4,8.6C3.9,9,3.8,9.4,3.8,9.8
			c0.1,0.4,0.1,0.7,0.1,1.1c0,0.6,0.1,1.2,0.2,1.8c0.1,0.5,0.3,1.1,0.5,1.6c0.4,1.1,1,2,1.8,2.8s1.7,1.4,2.8,1.8
			c0.5,0.2,1.1,0.4,1.6,0.5s1.1,0.2,1.7,0.2l0.1,3.2l8.6-4.4v-0.1L12.6,14l-0.1,0.1v3.2c-0.3,0-0.6-0.1-0.8-0.1
			c-0.3,0-0.6-0.1-0.9-0.2s-0.5-0.1-0.8-0.2s-0.5-0.3-0.7-0.4c-0.5-0.3-0.9-0.6-1.3-1c-0.4-0.4-0.8-0.8-1.1-1.3
			c-0.3-0.5-0.5-1-0.6-1.6c-0.1-0.3-0.1-0.5-0.2-0.8c0-0.3,0-0.6,0-0.9s0-0.6,0-0.8c0-0.3,0.1-0.6,0.2-0.9C6.5,8.5,6.7,8,6.9,7.5
			C7.2,7,7.6,6.6,8,6.2c0.4-0.4,0.8-0.7,1.3-1C9.5,5.1,9.7,5,10,4.9s0.5-0.2,0.8-0.3s0.6-0.1,0.9-0.1c0.3-0.1,0.5-0.1,0.8-0.1
			c0.4,0,0.9,0.1,1.3,0.1c0.4,0.1,0.9,0.2,1.2,0.4c0.4,0.1,0.7,0.3,1.1,0.6C16.4,5.7,16.8,6,17,6.3c0.3,0.3,0.6,0.6,0.8,1
			C18,7.6,18.2,8,18.4,8.4c0.1,0.4,0.2,0.8,0.3,1.2s0.2,0.9,0.2,1.3V11H21l0.1-0.1c0-0.4,0-0.8-0.1-1.1c-0.1-0.4-0.1-0.8-0.2-1.2
			s-0.2-0.7-0.4-1C20.4,7.2,20.2,6.9,20,6.6z"/>
	</g>
</g>
</svg>
