<svg id="copy2.svg" xmlns="http://www.w3.org/2000/svg" width="385.937" height="368.656" viewBox="0 0 385.937 368.656">
  <defs>
    <style>
      .cls-1 {
        fill: none;
        stroke: #fff;
        stroke-width: 3px;
      }

      .cls-1, .cls-2 {
        fill-rule: evenodd;
      }

      .cls-2 {
        fill: #fff;
      }
    </style>
  </defs>
  <path id="Ellipse_3_copy_4" data-name="Ellipse 3 copy 4" class="cls-1" d="M861.308,348.131a176.439,176.439,0,0,1-319.632-55.614" transform="translate(-521.125 -61.25)"/>
  <path id="OF_YOUR_WEIGHT-LOSS_JOURNEY." data-name="OF YOUR WEIGHT-LOSS JOURNEY." class="cls-2" d="M547.658,253.477a13.261,13.261,0,1,0-13.441,13.193A13.085,13.085,0,0,0,547.658,253.477Zm-4.749-.064c-0.064,4.711-3.793,7.852-8.618,7.786s-8.467-3.307-8.4-8.018,3.792-7.852,8.617-7.787S542.973,248.7,542.909,253.413Zm5.493-18.186,0.928-5.239-9.541-1.691,1.8-10.14-4.677-.829-1.8,10.14-6.623-1.174,1.977-11.151-4.6-.815-2.9,16.389Zm9.1-36.124,1.95-4.991-9.167-3.582-11.86-13.61-1.991,5.1,5.276,5.815c1.424,1.577,3.8,3.647,3.8,3.647s-3.247-.045-5.292.176l-7.876.84-2.171,5.557,18.52-2.393Zm12.115-24.729a13.262,13.262,0,1,0-18.128,5.116A13.086,13.086,0,0,0,569.619,174.374Zm-4.135-2.338c-2.319,4.1-7.1,5.066-11.3,2.691s-5.838-6.968-3.519-11.07,7.1-5.066,11.3-2.69S567.8,167.935,565.484,172.036Zm20.579-20.991c3.8-4.5,4.312-9.988-.68-14.207l-12.6-10.644-3.434,4.063,12.364,10.448c2.873,2.429,2.946,4.58.69,7.25-2.282,2.7-4.439,3.015-7.312.587l-12.364-10.449-3.434,4.063,12.6,10.645C576.885,157.02,582.213,155.6,586.063,151.045Zm10.53-12.152,4.028-3.477-5.86-6.79,2.56-2.21,9.831,3.363,4.6-3.973-10.842-3.545a7.606,7.606,0,0,0-1.115-9.028c-3.948-4.575-8.842-3.614-12.841-.162l-7.251,6.258Zm-4.762-13.662-5.041-5.84,3.107-2.682c1.927-1.664,3.872-2.087,5.759.1,1.862,2.158,1.267,4.027-.718,5.741ZM628.546,113.7l0.46-.267-1.031-13.816c-0.147-1.541-.6-3.914-0.626-4.031,0.181,0.159,1.912,1.7,3.157,2.562l11.288,7.864,0.46-.268-4.968-27.264-4.471,2.595L634.8,91.916c0.319,1.837,1.12,4.58,1.163,4.73a33.5,33.5,0,0,0-3.727-3.242l-9.7-6.634-0.46.267L623.1,98.709a29.993,29.993,0,0,0,.966,4.844c-0.2-.192-2.146-2.182-3.53-3.356l-8.463-7.086-4.866,2.824ZM654.171,99.9l16.6-5.939-1.574-4.4-11.594,4.147-2.022-5.654,9.768-3.494-1.535-4.294-9.769,3.494-2-5.582,11.093-3.968-1.574-4.4-16.1,5.76Zm21.919-7.186,5.168-1.261-6.124-25.1-5.168,1.261Zm23.924-4.032a16.805,16.805,0,0,0,9.494-4.154l-1.367-11.472-11.019,1.312,0.553,4.642,6.189-.737,0.494,4.151a12.744,12.744,0,0,1-4.906,1.541c-5.4.643-8.927-2.649-9.5-7.442s2.021-8.737,6.663-9.29a7.159,7.159,0,0,1,6.015,1.656l3.162-3.974c-2.4-2.163-5.555-2.936-9.743-2.437-7.736.921-12.434,7.107-11.531,14.692S691.636,89.682,700.014,88.684Zm15.261-1.62,5.314,0.279,0.532-10.134,11.045,0.581-0.532,10.134,5.313,0.279L738.3,62.395l-5.314-.279-0.574,10.931-11.045-.581,0.574-10.931-5.313-.279Zm33.18,3.285,5.206,1.1,4.362-20.711,7.214,1.519,0.963-4.574-19.633-4.135L745.6,68.119l7.213,1.519Zm15.413-4.656,9.065,2.835,1.361-4.352-9.066-2.835ZM774.78,97.616l15.622,6.762,1.857-4.29-10.74-4.648,8.407-19.423L785.044,73.9Zm29,14.936a13.265,13.265,0,1,0-4.324-18.337A13.089,13.089,0,0,0,803.776,112.552Zm2.516-4.03c-4-2.5-4.753-7.314-2.2-11.409s7.216-5.531,11.214-3.035,4.754,7.314,2.2,11.408S810.29,111.018,806.292,108.522Zm17.965,19.13c3.821,3.309,8.382,3.79,11.516.17,2.911-3.361,2.28-6.522.13-10.947l-0.632-1.3c-1.077-2.239-1.4-3.374-.356-4.581a2.314,2.314,0,0,1,3.417-.057c1.149,1,1.473,2.13,1.093,3.963l4.873,0.7c0.693-3.471-.374-5.953-2.931-8.168-3.591-3.109-7.879-2.8-10.491.215-2.836,3.275-2.255,6.493-.423,10.241l0.632,1.3c1.142,2.4,1.811,3.83.617,5.209-1,1.149-2.78,1.061-4.446-.381-1.982-1.717-2.207-3.721-1.85-5.875l-4.916-.94C819.652,120.548,820.523,124.418,824.257,127.652Zm14.763,14.534c3.367,3.77,7.829,4.83,11.4,1.64,3.317-2.961,3.095-6.177,1.529-10.842l-0.461-1.372c-0.782-2.359-.958-3.526.233-4.59a2.316,2.316,0,0,1,3.4.381c1.012,1.134,1.188,2.3.577,4.07l4.744,1.318c1.131-3.354.39-5.953-1.863-8.476-3.164-3.544-7.457-3.787-10.434-1.129-3.232,2.886-3.067,6.152-1.729,10.1l0.461,1.372c0.826,2.523,1.306,4.031-.054,5.246-1.134,1.013-2.893.7-4.361-.946-1.747-1.956-1.714-3.973-1.084-6.064l-4.757-1.561C835.36,134.549,835.729,138.5,839.02,142.186Zm16.687,22.255c2.47,4.014,6.3,5.451,10.993,2.563l15.474-9.52-2.789-4.532-15.409,9.48c-2.266,1.4-3.426.814-4.342-.675-0.956-1.554-.286-2.858.538-4.347l-4.5-2.316A8.257,8.257,0,0,0,855.707,164.441ZM867.6,187.4a13.26,13.26,0,1,0,7.028-17.472A13.084,13.084,0,0,0,867.6,187.4Zm4.377-1.843c-1.829-4.342.328-8.714,4.775-10.587s9.082-.363,10.911,3.978-0.328,8.714-4.775,10.587S873.806,189.9,871.977,185.559Zm4.38,29.037c1.311,5.742,5.393,9.449,11.765,7.994l16.078-3.672-1.184-5.187-15.782,3.6c-3.668.838-5.431-.4-6.209-3.805-0.787-3.445.257-5.36,3.924-6.2l15.782-3.6-1.184-5.187-16.078,3.672C877.1,203.669,875.028,208.78,876.357,214.6Zm3.4,15.719,0.372,5.306,8.946-.627,0.237,3.373-8.579,5.859,0.426,6.065,9.329-6.559a7.606,7.606,0,0,0,7.9,4.512c6.027-.423,8.188-4.917,7.818-10.186l-0.67-9.552Zm13.791,4.365,7.695-.54,0.287,4.094c0.179,2.539-.647,4.349-3.528,4.552-2.843.2-3.983-1.4-4.167-4.012ZM879.08,275.208l-0.046.529L905,278.007l0.433-4.959-10.788-.943c-1.779-.155-4.723-0.069-4.723-0.069a36.737,36.737,0,0,0,3.785-2.721L907.031,257.4l0.046-.53L881.111,254.6l-0.434,4.958,10.788,0.943a45.554,45.554,0,0,0,4.727.032,38.3,38.3,0,0,0-3.788,2.758Zm-0.914,6.227-4.206,17.128,4.54,1.115,2.937-11.96,5.832,1.432L884.8,299.227l4.429,1.088,2.474-10.077,5.759,1.414-2.81,11.442,4.54,1.115,4.079-16.61Zm-8.285,28.2-2.006,4.968L877,318.287l11.705,13.74,2.049-5.074-5.211-5.873c-1.406-1.592-3.756-3.689-3.756-3.689s3.246,0.081,5.293-.117l7.884-.751,2.233-5.532-18.544,2.185ZM863.588,323.3a3.211,3.211,0,1,0,4.329-1.456A3.171,3.171,0,0,0,863.588,323.3Z" transform="translate(-521.125 -61.25)"/>
</svg>
