<svg xmlns="http://www.w3.org/2000/svg" width="362.876" height="365.281" viewBox="0 0 362.876 365.281">
  <defs>
    <style>
      .cls-1 {
        fill: none;
        stroke: #fff;
        stroke-width: 3px;
      }

      .cls-1, .cls-2 {
        fill-rule: evenodd;
      }

      .cls-2 {
        fill: #fff;
      }
    </style>
  </defs>
  <path id="Ellipse_3_copy_12" data-name="Ellipse 3 copy 12" class="cls-1" d="M650.652,415.276A176.454,176.454,0,0,1,637.158,93.087" transform="translate(-537.562 -69.531)"/>
  <path id="_5-STAR_RATED_WEIGHT_LOSS_SURGERY_PROGRAM_IN_WA." data-name="5-STAR RATED WEIGHT LOSS SURGERY PROGRAM IN WA." class="cls-2" d="M658.5,96.489c3.626-1.325,5.386-4.246,4.121-7.71-1.106-3.026-4.2-4.2-7.623-2.948a5.06,5.06,0,0,0-2.042,1.217l-1.08-2.956,6.814-2.489-1.038-2.841-9.632,3.519,3.435,9.4,0.328,0.037a6.371,6.371,0,0,1,3.394-2.89c1.964-.717,3.5-0.388,4.088,1.229a2.622,2.622,0,0,1-1.837,3.5,3.76,3.76,0,0,1-4.152-.76l-2.248,2.445A7.06,7.06,0,0,0,658.5,96.489Zm6.269-7.887,5.905-1.713-0.823-2.834-5.9,1.713Zm14.678,1.757c3.194-.705,5.206-2.888,4.538-5.914-0.62-2.81-2.5-3.7-5.634-4.3l-0.92-.175c-1.579-.306-2.294-0.577-2.516-1.586a1.5,1.5,0,0,1,1.291-1.8,2.345,2.345,0,0,1,2.48.964l2.246-2.259a5.085,5.085,0,0,0-5.373-1.635c-3,.663-4.5,3.008-3.943,5.53,0.6,2.738,2.5,3.68,5.154,4.177l0.92,0.175c1.686,0.333,2.689.54,2.943,1.693,0.212,0.961-.523,1.853-1.916,2.161a3.747,3.747,0,0,1-3.765-1.31l-2.388,2.19A6.615,6.615,0,0,0,679.444,90.359Zm11.465-2.33,3.415-.461-1.833-13.583,4.731-.638-0.4-3-12.876,1.737,0.4,3,4.731-.638Zm7.105-1.048,3.316-.174,0.815-2.309,6.484-.341,1.052,2.211,3.611-.19L704.767,69.73l-0.294.016Zm5.134-5.418,0.923-2.585c0.406-1.179.806-2.949,0.827-3.024,0.058,0.169.638,1.838,1.163,2.919l1.189,2.474Zm12.4,4.686,3.44,0.158,0.267-5.8,2.186,0.1,3.125,5.954,3.931,0.18-3.518-6.49a4.922,4.922,0,0,0,3.492-4.74c0.18-3.907-2.548-5.632-5.964-5.789l-6.191-.284Zm3.84-8.54,0.229-4.988,2.653,0.122c1.647,0.076,2.749.742,2.663,2.609-0.085,1.843-1.2,2.457-2.892,2.379ZM736.423,87.8l3.391,0.6,1.015-5.717,2.155,0.383,2.329,6.31,3.876,0.688-2.65-6.892a4.924,4.924,0,0,0,4.077-4.249c0.684-3.852-1.8-5.916-5.166-6.514l-6.1-1.083Zm4.913-7.974,0.872-4.918,2.617,0.464c1.623,0.288,2.63,1.091,2.3,2.933-0.323,1.817-1.5,2.282-3.176,1.985Zm8.983,10.47,3.2,0.895,1.51-1.928,6.255,1.749,0.29,2.431,3.483,0.974L762.233,76.1l-0.285-.079Zm6.6-3.494,1.7-2.155c0.762-.988,1.706-2.537,1.75-2.6,0,0.179.017,1.946,0.169,3.138l0.336,2.725Zm11.637,8.992,3.233,1.189,4.73-12.863L781,85.763l1.044-2.84-12.193-4.484L768.8,81.28l4.48,1.647ZM778.6,99.649l10.315,4.88,1.294-2.734-7.2-3.408,1.662-3.513,6.069,2.871L792,95.078l-6.069-2.871,1.641-3.468L794.467,92l1.294-2.734-10-4.733ZM791.753,106l4.413,2.642c4.433,2.655,9.315,1.591,11.855-2.652s1.153-9.061-3.259-11.7l-4.413-2.642Zm4.511-.827,5.486-9.162,1.309,0.784c3.188,1.909,3.507,4.681,1.9,7.362s-4.2,3.709-7.387,1.8Zm17.99,16.118,0.275,0.207,7.98-4.084c0.882-.475,2.183-1.341,2.247-1.386-0.05.148-.536,1.568-0.736,2.527l-1.854,8.7,0.275,0.207,15.01-9.808-2.67-2.015-5.968,3.908c-1.015.651-2.45,1.818-2.528,1.881a21.836,21.836,0,0,0,1-3.036l1.521-7.448-0.274-.207-6.705,3.537a19.424,19.424,0,0,0-2.646,1.793c0.064-.168.762-1.828,1.115-2.948l2.1-6.826-2.9-2.193ZM828.945,132.7l8.269,7.861,2.084-2.192-5.774-5.489,2.677-2.816,4.865,4.625,2.034-2.139-4.866-4.625,2.643-2.78L846.4,130.4l2.084-2.192-8.02-7.625ZM839.414,143l2.331,2.534,12.31-11.323-2.331-2.534Zm9.88,11.916a10.872,10.872,0,0,0,5.5,3.845l5.879-4.623-4.441-5.647-2.379,1.871,2.5,3.171-2.127,1.673a8.237,8.237,0,0,1-2.507-2.192,5.209,5.209,0,0,1,.91-7.758c2.456-1.932,5.51-1.83,7.381.549a4.639,4.639,0,0,1,1.113,3.883l3.262,0.407c0.386-2.056-.25-4.06-1.939-6.206a8.224,8.224,0,0,0-12.008-1.418C846.543,145.531,845.917,150.624,849.294,154.918Zm5.987,7.587,1.823,2.922,5.574-3.476,3.789,6.074-5.574,3.477,1.823,2.922,14.194-8.853-1.822-2.923-6.012,3.75-3.789-6.074,6.012-3.75-1.823-2.923Zm10.772,18.442,1.528,3.086,12.279-6.079,2.117,4.276,2.711-1.342-5.762-11.64-2.712,1.343,2.117,4.276Zm6.674,14.74,3.673,10.386,2.851-1.008-2.525-7.14,12.913-4.567-1.148-3.246Zm6.033,19.991A8.587,8.587,0,1,0,885,205.2,8.472,8.472,0,0,0,878.76,215.678Zm2.985-.742c-0.736-2.961,1.081-5.543,4.114-6.3s5.847,0.676,6.583,3.637-1.082,5.542-4.114,6.3S882.481,217.9,881.745,214.936Zm0.145,16.7c0.467,3.237,2.5,5.405,5.563,4.962,2.848-.412,3.878-2.226,4.7-5.3l0.242-.905c0.422-1.552.745-2.244,1.767-2.392a1.5,1.5,0,0,1,1.7,1.42,2.343,2.343,0,0,1-1.144,2.4l2.088,2.407A5.087,5.087,0,0,0,898.83,229c-0.44-3.043-2.669-4.709-5.225-4.34-2.775.4-3.854,2.222-4.546,4.832l-0.242.9c-0.457,1.657-.737,2.642-1.9,2.811-0.974.14-1.81-.659-2.014-2.071a3.746,3.746,0,0,1,1.584-3.658l-2.008-2.543A6.617,6.617,0,0,0,881.89,231.641Zm1.35,13.105c0.2,3.266,2.047,5.591,5.141,5.4,2.873-.179,4.048-1.9,5.119-4.9l0.315-.883c0.547-1.513.925-2.177,1.956-2.241a1.5,1.5,0,0,1,1.575,1.554,2.343,2.343,0,0,1-1.336,2.3l1.885,2.57a5.086,5.086,0,0,0,2.447-5.057c-0.19-3.069-2.276-4.912-4.855-4.752-2.8.174-4.023,1.9-4.925,4.447l-0.315.882c-0.59,1.614-.95,2.573-2.128,2.646-0.982.061-1.751-.8-1.839-2.228a3.75,3.75,0,0,1,1.877-3.518l-1.794-2.7A6.615,6.615,0,0,0,883.24,244.746Zm0.079,18.6c-0.175,3.266,1.389,5.788,4.483,5.955,2.873,0.154,4.239-1.423,5.648-4.278l0.415-.84c0.718-1.439,1.169-2.055,2.2-2a1.5,1.5,0,0,1,1.385,1.725,2.346,2.346,0,0,1-1.592,2.131l1.575,2.769a5.083,5.083,0,0,0,3.013-4.739c0.165-3.07-1.694-5.14-4.273-5.279-2.8-.15-4.214,1.424-5.4,3.848l-0.415.839c-0.772,1.535-1.24,2.446-2.418,2.383-0.983-.053-1.646-1-1.569-2.424a3.746,3.746,0,0,1,2.269-3.277l-1.47-2.887A6.614,6.614,0,0,0,883.319,263.351Zm-1.5,15c-0.556,3.773,1.038,6.967,5.224,7.583l10.563,1.556,0.5-3.408-10.368-1.527c-2.41-.355-3.184-1.513-2.854-3.752,0.333-2.264,1.412-3.174,3.822-2.819l10.368,1.527,0.5-3.408-10.563-1.555C884.827,271.935,882.381,274.534,881.818,278.355Zm-1.471,10.062-0.837,3.341,5.632,1.411-0.532,2.124-6.458,1.883-0.956,3.818,7.06-2.162a4.925,4.925,0,0,0,3.954,4.364c3.794,0.951,6.027-1.381,6.859-4.7l1.507-6.014Zm7.611,5.458,4.845,1.214-0.646,2.577c-0.4,1.6-1.272,2.548-3.086,2.093-1.79-.448-2.171-1.66-1.759-3.307Zm-14.534,17.343a10.874,10.874,0,0,0-.349,6.7l7.034,2.537,2.437-6.758L879.7,312.67l-1.369,3.795-2.545-.918a8.242,8.242,0,0,1,.531-3.286,5.209,5.209,0,0,1,7.061-3.338c2.939,1.06,4.47,3.7,3.443,6.55a4.631,4.631,0,0,1-2.7,3l1.383,2.982c1.948-.762,3.31-2.363,4.236-4.931a8.222,8.222,0,0,0-5.158-10.934C879.928,303.914,875.277,306.081,873.424,311.218Zm-3.312,9.071-4.92,10.3,2.73,1.3,3.435-7.189,3.506,1.675-2.9,6.058,2.663,1.272,2.894-6.058,3.462,1.654L877.7,336.18l2.729,1.3L885.2,327.5Zm-6.441,13.142-1.767,2.956,4.983,2.98-1.124,1.879-6.726-.065-2.02,3.378,7.384-.028a4.923,4.923,0,0,0,2.523,5.321c3.357,2.008,6.169.421,7.924-2.514l3.182-5.321Zm5.708,7.426,4.286,2.563L872.3,345.7c-0.846,1.415-1.955,2.071-3.56,1.111-1.584-.947-1.6-2.217-0.727-3.674ZM853.323,349.7l-2.044,2.8,5.145,3.755,5.174,10.472,2.088-2.86-2.342-4.509c-0.631-1.222-1.774-2.909-1.774-2.909s2.024,0.564,3.34.763l5.066,0.775,2.276-3.119-11.983-1.559Zm-10.237,13.015-2.367,2.5,3.984,3.771-1.674,1.768c-2.333,2.466-3.027,5.7-.186,8.393s6,1.818,8.351-.666l4.041-4.27Zm3.815,8.351,3.77,3.568-1.607,1.7c-1.132,1.2-2.428,1.529-3.786.244-1.34-1.268-1.15-2.579.017-3.811Zm-14.067,2.269-2.588,2.271,3.827,4.362-1.645,1.444-6.378-2.125-2.958,2.595,7.033,2.237a4.923,4.923,0,0,0,.769,5.836c2.579,2.939,5.74,2.292,8.31.038l4.658-4.087Zm3.153,8.815,3.292,3.752-2,1.752c-1.239,1.086-2.494,1.37-3.727-.035-1.216-1.386-.841-2.6.435-3.718Zm-21.522,5.759a8.589,8.589,0,1,0,12.026,2.041A8.474,8.474,0,0,0,814.465,387.907Zm1.77,2.516c2.5-1.756,5.56-.992,7.358,1.564s1.48,5.7-1.016,7.453-5.56.993-7.358-1.564S813.739,392.178,816.235,390.423Zm-18.819,7.985a10.872,10.872,0,0,0-4.712,4.771l3.569,6.569,6.309-3.429-1.444-2.657-3.544,1.925L796.3,403.21a8.253,8.253,0,0,1,2.58-2.1,5.207,5.207,0,0,1,7.492,2.2c1.491,2.744.878,5.736-1.78,7.18a4.629,4.629,0,0,1-4.012.445l-0.949,3.147c1.961,0.725,4.042.434,6.44-.869a8.22,8.22,0,0,0,3.412-11.594C807.126,397.273,802.212,395.8,797.416,398.408Zm-8.528,4.6-3.178,1.325,2.233,5.358-2.021.842-5.367-4.052-3.633,1.513,5.951,4.369a4.924,4.924,0,0,0-1.136,5.777c1.5,3.61,4.707,4.008,7.864,2.692l5.721-2.384Zm0.171,9.363,1.921,4.609L788.528,418c-1.522.634-2.8,0.5-3.522-1.224-0.709-1.7.034-2.733,1.6-3.386Zm-13.208-3.951-3.174.978-0.227,2.439-6.208,1.912-1.56-1.888-3.456,1.065L773.508,426.8l0.282-.087Zm-3.659,6.508-0.265,2.734c-0.106,1.242-.062,3.057-0.064,3.135-0.1-.151-1.068-1.628-1.841-2.549l-1.757-2.11Zm-13.163-1.412-3.238.61,1.16,6.163c0.21,1.112.663,2.853,0.663,2.853s-1.264-1.263-2.2-1.988l-3.951-3.035-0.314.059-2.576,4.265a29.548,29.548,0,0,0-1.327,2.652s-0.211-1.787-.421-2.9l-1.161-6.163-3.262.614,3.127,16.605,0.29-.055,6.3-10.4,9.772,7.369,0.266-.05ZM733.4,417.394l-3.435.235,1.138,16.686,3.436-.235Zm-20.4.293-0.344,0-0.119,16.875,3.222,0.023,0.05-7.011c0.008-1.156-.2-3.052-0.2-3.052a23.736,23.736,0,0,0,1.951,2.3l8.382,7.981,0.344,0,0.12-16.875-3.223-.023-0.049,7.011a29.361,29.361,0,0,0,.224,3.052,24.946,24.946,0,0,0-1.976-2.3Zm-14.154-1.358-0.339-.057-5.2,7.308c-0.563.829-1.318,2.2-1.354,2.267a26.292,26.292,0,0,0-.514-2.581l-2.373-8.582-0.34-.057-8.793,15.635,3.3,0.555,3.492-6.223c0.6-1.047,1.335-2.745,1.376-2.838a21.676,21.676,0,0,0,.516,3.156l2.088,7.312,0.34,0.057,4.317-6.234a19.48,19.48,0,0,0,1.521-2.813c0.02,0.178.167,1.974,0.371,3.131l1.288,7.028,3.591,0.6Zm-14.6-2.421-3.2-.894-1.509,1.927-6.255-1.749L673,410.761l-3.482-.974,2.822,18.313,0.285,0.079Zm-6.6,3.494-1.7,2.155c-0.762.988-1.706,2.537-1.75,2.6,0-.179-0.017-1.947-0.169-3.139L673.7,416.3Zm-11.65-9.159a2.078,2.078,0,1,0,1.269,2.67A2.052,2.052,0,0,0,666.005,408.243Z" transform="translate(-537.562 -69.531)"/>
</svg>
