<svg xmlns="http://www.w3.org/2000/svg" width="369.937" height="365.969" viewBox="0 0 369.937 365.969">
  <defs>
    <style>
      .cls-1 {
        fill: none;
        stroke: #fff;
        stroke-width: 3px;
      }

      .cls-1, .cls-2 {
        fill-rule: evenodd;
      }

      .cls-2 {
        fill: #fff;
      }
    </style>
  </defs>
  <path id="Ellipse_3_copy_13" data-name="Ellipse 3 copy 13" class="cls-1" d="M429.954,278.313A176.4,176.4,0,1,1,149.078,109.476" transform="translate(-77.875 -61.906)"/>
  <path id="THE_ONLY_REPEAT" data-name="THE ONLY REPEAT" class="cls-2" d="M174.11,113.367l5.209-2.779L168.263,89.865l7.217-3.851-2.441-4.576L153.4,91.918l2.441,4.576,7.218-3.851Zm17.247-8.759,5.624-1.8L193.55,92.085l11.689-3.739,3.43,10.725,5.624-1.8-8.737-27.314-5.623,1.8,3.7,11.568-11.689,3.739-3.7-11.568-5.623,1.8Zm29.423-9.525,19.229-3.619-0.959-5.1-13.427,2.527-1.233-6.548L235.7,80.217l-0.936-4.973-11.314,2.129-1.216-6.465,12.847-2.418-0.96-5.1L215.476,66.9Zm49.543-3.772A14.719,14.719,0,1,0,256.5,75.632,14.523,14.523,0,0,0,270.323,91.311Zm0.353-5.26c-5.218-.35-8.479-4.669-8.12-10.013s4.167-9.189,9.385-8.839,8.478,4.669,8.12,10.013S275.894,86.4,270.676,86.051Zm42.38,13.568,0.569,0.158L321.354,71.9l-5.323-1.476L312.82,82.007c-0.53,1.91-1.031,5.14-1.031,5.14a40.892,40.892,0,0,0-2.2-4.68l-10.31-16.948-0.569-.158-7.728,27.875,5.323,1.476,3.21-11.581a50.53,50.53,0,0,0,.991-5.151,42.646,42.646,0,0,0,2.244,4.691Zm7,2.552,17.065,8.1,2.224-4.685-11.732-5.569L337.686,78.8l-5.333-2.531Zm24.477,12.833,4.977,3.253,5.976-9.141,17.479-9.782-5.083-3.323-7.515,4.407c-2.036,1.187-4.824,3.294-4.824,3.294s0.787-3.516,1.012-5.786l0.88-8.744L351.9,85.56l-1.615,20.658Zm24,18.141,4.042,4.305,7.257-6.813,2.569,2.736-3.273,11.057,4.62,4.92,3.427-12.186a8.44,8.44,0,0,0,9.959-1.655c4.89-4.59,3.6-9.972-.416-14.247l-7.275-7.749Zm14.927-5.915,6.242-5.861,3.118,3.321c1.935,2.061,2.494,4.2.157,6.391-2.306,2.165-4.407,1.592-6.4-.53Zm3.355,26.3,10.87,16.272L402,166.919l-7.59-11.362,5.54-3.7,6.4,9.573,4.208-2.811-6.4-9.574,5.471-3.654,7.262,10.871,4.314-2.882L410.665,137.6Zm13.927,21.835,2.434,5.38,8.569-3.877,1.722,3.8c2.4,5.3,7.088,8.5,13.2,5.74s6.779-8.344,4.362-13.685l-4.155-9.184Zm15.73-.636,8.108-3.668,1.651,3.65c1.165,2.575.851,4.847-2.07,6.168-2.882,1.3-4.838.152-6.037-2.5Zm-5.457,24.753,5.025,18.912,5.014-1.332-3.51-13.206,6.44-1.711,2.957,11.127,4.891-1.3-2.957-11.127,6.358-1.689,3.357,12.634,5.014-1.332-4.874-18.341Zm6.02,23.056,0.5,5.671,4,1.258,0.972,11.09-3.725,1.935,0.541,6.175L447,233.077l-0.044-.5Zm9.59,8.472,4.485,1.428c2.045,0.625,5.1,1.2,5.231,1.235-0.287.109-3.112,1.2-4.932,2.167l-4.169,2.186ZM418.7,255.957l-0.344,5.893,23.448,1.369-0.477,8.167,5.178,0.3,1.3-22.228-5.178-.3-0.477,8.167Z" transform="translate(-77.875 -61.906)"/>
</svg>
