<?xml version="1.0" encoding="utf-8"?>
<!-- Generator: Adobe Illustrator 22.1.0, SVG Export Plug-In . SVG Version: 6.00 Build 0)  -->
<svg version="1.1" id="Layer_1" xmlns="http://www.w3.org/2000/svg" xmlns:xlink="http://www.w3.org/1999/xlink" x="0px" y="0px"
	 viewBox="0 0 329.5 329.5" style="enable-background:new 0 0 329.5 329.5;" xml:space="preserve">
<style type="text/css">
	.st0{enable-background:new    ;}
	.st1{fill:#00FCFF;}
</style>
<g class="st0">
	<path class="st1" d="M10.9,2V0.3h3.3v13.3h3.3v3.3h-3.3v6.6h-3.3v-6.6H1v-6.6h1.7V8.6h1.7V6.9H6V5.3h1.7V3.6h1.7V2H10.9z
		 M10.9,13.6V6.9H9.3v1.7H7.6v1.7H6V12H4.3v1.7L10.9,13.6L10.9,13.6z"/>
	<path class="st1" d="M42.5,20.2h-1.7v-3.3h3.3v1.7h1.7v1.7h6.7V17h-3.3v-1.7h-3.3v-1.7h-3.3v-1.7h-1.7V8.6h1.7V6.9h1.7V5.3h10V7H56
		v1.7h1.7V12h-3.3v-1.7h-1.7V8.6H46v3.3h5v1.7h3.3v1.7H56V17h1.7v3.3H56V22h-1.7v1.7h-10V22h-1.7v-1.8H42.5z"/>
	<path class="st1" d="M72.5,20.2h1.7v3.3h-3.3v-1.7h-1.7v-1.7h-1.7V8.6h-3.3V5.3h3.3v-5h3.3v5h3.3v3.3h-3.3v10h1.7V20.2z"/>
	<path class="st1" d="M92.4,20.2h1.7v3.3h-3.3v-1.7h-1.7v-1.7h-1.7v-8.3h-3.3V8.6h6.7v10h1.7L92.4,20.2L92.4,20.2z M90.8,2v3.3h-3.3
		V2H90.8z"/>
	<path class="st1" d="M110.7,0.3v23.2h-3.3V0.3H110.7z"/>
	<path class="st1" d="M130.7,0.3v23.2h-3.3V0.3H130.7z"/>
	<path class="st1" d="M164,23.5v-1.7h-1.7v-1.7h-1.7V8.6h1.7V6.9h1.7V5.3h10V7h1.7v1.7h1.7v11.6h-1.7V22H174v1.7h-10V23.5z
		 M165.6,20.2h6.7v-1.7h1.7v-8.3h-1.7V8.6h-6.7v1.7H164v8.3h1.7L165.6,20.2L165.6,20.2z"/>
	<path class="st1" d="M180.6,5.3h3.3v13.3h1.7v1.7h1.7V12h3.3v8.3h1.7v-1.7h1.7V5.3h3.3v14.9h-1.7v1.7h-1.7v1.7h-3.3v-1.7h-3.3v1.7
		H184v-1.7h-1.7v-1.7h-1.7V5.3z"/>
	<path class="st1" d="M203.9,10.3v13.3h-3.3V5.3h3.3V7h1.7V5.3h8.3V7h1.7v1.7h1.7v14.9H214V10.3h-1.7V8.6h-6.7v1.7H203.9z"/>
	<path class="st1" d="M242.1,16.9h-1.7V0.3h3.3v14.9h1.7v1.7h1.7v1.7h3.3v-1.7h1.7v-1.7h1.7V0.3h3.3v16.6h-1.7v1.7h-1.7v1.7H252V22
		h-1.7v1.7H247V22h-1.7v-1.7h-1.7v-1.7h-1.7v-1.7H242.1z"/>
	<path class="st1" d="M265.4,20.2h6.7v-1.7h1.7v-1.7h3.3v3.3h-1.7v1.7h-1.7v1.7h-10v-1.7H262v-1.7h-1.7V3.6h1.7V2h1.7V0.3h10V2h1.7
		v1.7h1.7V7h-3.3V5.3h-1.7V3.6h-6.7v1.7h-1.7v13.3h1.7V20.2z"/>
	<path class="st1" d="M285.4,13.6h-1.7v10h-3.3V0.3h13.3V2h1.7v1.7h1.7v6.6h-1.7V12h-1.7v1.7h-3.3v1.7h1.7v1.7h1.7v1.7h1.7v1.7h1.7
		v3.3h-3.3v-1.7H292v-1.7h-1.7v-1.7h-1.7V17h-1.7v-1.7h-1.7v-1.7H285.4z M283.7,3.6v6.6h8.3V8.6h1.7V5.3H292V3.6H283.7z"/>
	<path class="st1" d="M302,20.2h-1.7v-3.3h3.3v1.7h1.7v1.7h6.7V17h-3.3v-1.7h-3.3v-1.7H302v-1.7h-1.7V8.6h1.7V6.9h1.7V5.3h10V7h1.7
		v1.7h1.7V12h-3.3v-1.7H312V8.6h-6.7v3.3h5v1.7h3.3v1.7h1.7V17h1.7v3.3h-1.7V22h-1.7v1.7h-10V22H302V20.2z"/>
	<path class="st1" d="M328.6,20.2v3.3h-3.3v-3.3H328.6z"/>
</g>
</svg>
