<?xml version="1.0" encoding="utf-8"?>
<!-- Generator: Adobe Illustrator 22.1.0, SVG Export Plug-In . SVG Version: 6.00 Build 0)  -->
<svg version="1.1" id="Layer_1" xmlns="http://www.w3.org/2000/svg" xmlns:xlink="http://www.w3.org/1999/xlink" x="0px" y="0px"
	 viewBox="0 0 563 50" style="enable-background:new 0 0 563 50;" xml:space="preserve">
<style type="text/css">
	.st0{fill:#FBF8EC;}
	.st1{fill:#EC9249;}
</style>
<g id="Layer_2_1_">
	<g id="Layer_2-2">
		<path class="st0" d="M10.8,11.3v9.6H22V30H10.8v18.7H0.1v-47H23v9.6L10.8,11.3z"/>
		<path class="st0" d="M29.2,48.7v-47h10.7v47H29.2z"/>
		<path class="st0" d="M69,48.7L58.1,20.1h-0.2l0.3,28.6h-9.5v-47h11.7l10.8,29h0.2l-0.2-29h9.2v47H69z"/>
		<path class="st0" d="M121.9,25.3c0,3.3-0.3,6.5-1.2,9.7c-0.7,2.7-1.9,5.2-3.6,7.4c-1.6,2-3.7,3.6-6.1,4.6
			c-2.8,1.2-5.7,1.7-8.7,1.7H89.2v-47h13.2c3-0.1,6,0.5,8.7,1.7c2.4,1,4.5,2.7,6.1,4.7c1.7,2.2,2.9,4.7,3.6,7.4
			C121.5,18.7,121.9,22,121.9,25.3z M111.2,25.3c0-4.7-0.8-8.3-2.4-10.7c-1.3-2.2-3.7-3.6-6.3-3.6h-2.6v28.4h2.6
			c2.6,0,5-1.4,6.3-3.6C110.4,33.4,111.2,29.9,111.2,25.3z"/>
		<path class="st1" d="M163.7,48.7l0.4-32.2h-0.3l-7.9,32.2h-7.5l-7.6-32.2h-0.2l0.3,32.2h-9.6v-47h13.4l7.6,30.3h0.3l7.4-30.3h14.2
			v47L163.7,48.7z"/>
		<path class="st1" d="M201,31.8v16.9h-10.4V31.8L178.7,1.7h11.5l5.6,19.4h0.1l5.7-19.4H213L201,31.8z"/>
		<path class="st0" d="M238.8,12.9c-0.8-0.9-1.7-1.6-2.8-2.2c-1-0.5-2.2-0.8-3.3-0.8c-1.2,0-2.3,0.4-3.2,1.1c-1,0.9-1.6,2.3-1.5,3.7
			c-0.1,1.3,0.5,2.6,1.5,3.4c1.3,1.1,2.8,2,4.4,2.7c1.1,0.5,2.2,1.2,3.4,1.9c1.2,0.7,2.3,1.7,3.2,2.7c1,1.1,1.8,2.4,2.4,3.8
			c0.7,1.7,1,3.5,1,5.3c0,2.3-0.4,4.6-1.2,6.7c-1.4,3.6-4.3,6.4-8,7.6c-1.8,0.7-3.6,1-5.5,1c-2.7,0-5.3-0.5-7.7-1.6
			c-2.1-0.9-4-2.2-5.6-3.7l5.4-8c1,1.1,2.2,1.9,3.5,2.5c1.2,0.6,2.6,1,4,1c1.2,0,2.4-0.4,3.3-1.2c0.9-0.9,1.4-2.2,1.3-3.5
			c0.1-1.4-0.5-2.8-1.6-3.7c-1.4-1.1-3-2.1-4.6-2.9c-1.3-0.6-2.5-1.3-3.6-2.1c-1.1-0.7-2.1-1.7-3-2.7c-0.9-1.1-1.6-2.4-2-3.7
			c-0.5-1.6-0.8-3.3-0.7-5c-0.1-2.3,0.4-4.6,1.3-6.7c0.8-1.8,1.9-3.4,3.4-4.7c1.4-1.2,2.9-2.1,4.6-2.7c1.7-0.6,3.4-0.9,5.1-0.9
			c2.4,0,4.7,0.4,6.9,1.2c1.9,0.8,3.7,1.9,5.1,3.4L238.8,12.9z"/>
		<path class="st0" d="M250.4,48.7v-47h22.7v9.4h-12.6v9.2h11.5v8.8h-11.5v10.1h13.3v9.5H250.4z"/>
		<path class="st0" d="M303,48.7l-1.9-8.6h-10.5l-1.9,8.6H278l11.4-47h13.3l11.4,47H303z M296,11.9h-0.3l-4,20h8L296,11.9z"/>
		<path class="st0" d="M331.5,10.7v38h-10.4v-38h-8.6v-9h27.7v9L331.5,10.7z"/>
		<path class="st0" d="M358.2,10.7v38h-10.4v-38h-8.6v-9h27.7v9L358.2,10.7z"/>
		<path class="st0" d="M371.8,48.7v-47h10.8v37.2h12.5v9.8H371.8z"/>
		<path class="st0" d="M400.4,48.7v-47h22.7v9.4h-12.5v9.2h11.5v8.8h-11.5v10.1h13.3v9.5H400.4z"/>
		<path class="st0" d="M442.3,43.3c0,1.6-0.5,3.1-1.6,4.2c-1,1.1-2.5,1.8-4,1.7c-1.5,0.1-3-0.6-4.1-1.7c-1.1-1.1-1.7-2.7-1.6-4.2
			c0-1.6,0.5-3.1,1.6-4.2c1-1.2,2.5-1.8,4.1-1.8c1.5,0,3,0.6,4,1.8C441.7,40.2,442.3,41.8,442.3,43.3z"/>
		<path class="st0" d="M470,48.1c-2.5,1.3-5.2,1.9-8,1.8c-2.6,0-5.2-0.6-7.5-1.8c-2.3-1.3-4.2-3-5.7-5.1c-1.7-2.4-2.9-5-3.7-7.8
			c-0.9-3.3-1.4-6.6-1.3-10c0-3.4,0.4-6.8,1.3-10.1c0.8-2.8,2-5.5,3.7-7.8c1.5-2.1,3.5-3.8,5.7-5c2.3-1.2,4.9-1.8,7.5-1.8
			c2.7-0.1,5.4,0.5,7.9,1.7c2,1,3.7,2.5,5.1,4.2l-5.7,7.7c-0.7-1-1.6-1.9-2.7-2.5c-1.1-0.7-2.4-1-3.8-0.9c-1.3,0-2.6,0.4-3.7,1.1
			c-1.1,0.8-2,1.9-2.7,3.1c-0.8,1.5-1.3,3-1.6,4.7c-0.4,1.9-0.5,3.8-0.5,5.7c0,1.9,0.2,3.8,0.5,5.7c0.3,1.6,0.8,3.2,1.6,4.6
			c0.6,1.2,1.6,2.3,2.7,3.1c1.1,0.8,2.4,1.2,3.7,1.1c1.3,0,2.6-0.3,3.7-1.1c1-0.7,1.9-1.5,2.5-2.5l5.9,7.4
			C473.7,45.5,472,47,470,48.1z"/>
		<path class="st0" d="M513.2,25.1c0,3.4-0.4,6.9-1.3,10.2c-0.7,2.8-1.9,5.5-3.6,7.9c-1.5,2.1-3.4,3.8-5.7,5
			c-4.7,2.4-10.3,2.4-15.1,0c-2.3-1.2-4.2-2.9-5.7-5c-1.7-2.4-2.9-5.1-3.6-7.9c-0.9-3.3-1.3-6.7-1.3-10.2c0-3.4,0.4-6.8,1.2-10.1
			c0.7-2.8,1.9-5.4,3.5-7.8c1.5-2.1,3.4-3.8,5.7-5c4.8-2.3,10.4-2.3,15.1,0c2.3,1.2,4.2,2.9,5.7,5c1.6,2.4,2.9,5,3.6,7.8
			C512.8,18.3,513.2,21.7,513.2,25.1z M502.3,25.1c0-1.9-0.1-3.8-0.5-5.7c-0.3-1.6-0.7-3.1-1.4-4.5c-0.5-1.2-1.3-2.2-2.2-3
			c-0.9-0.7-2-1.1-3.1-1.1c-1.1,0-2.3,0.4-3.2,1.1c-1,0.8-1.7,1.8-2.2,3c-0.6,1.4-1.1,3-1.3,4.5c-0.3,1.9-0.4,3.8-0.4,5.7
			c0,1.9,0.1,3.8,0.4,5.7c0.2,1.6,0.7,3.1,1.3,4.6c0.5,1.2,1.3,2.2,2.2,3c0.9,0.7,2,1.1,3.2,1.1c1.1,0,2.3-0.4,3.1-1.1
			c1-0.8,1.7-1.9,2.2-3c0.6-1.5,1.1-3,1.4-4.6C502.2,28.9,502.3,27,502.3,25.1z"/>
		<path class="st0" d="M552.6,48.7l0.4-32.2h-0.3l-7.9,32.2h-7.5l-7.6-32.2h-0.2l0.3,32.2h-9.6v-47h13.4l7.6,30.3h0.3l7.4-30.3H563
			v47L552.6,48.7z"/>
	</g>
</g>
</svg>
