<svg id="_300x250A_copy1.svg" data-name="300x250A/copy1.svg" xmlns="http://www.w3.org/2000/svg" width="381.842" height="365.594" viewBox="0 0 381.842 365.594">
  <defs>
    <style>
      .cls-1 {
        fill: none;
        stroke: #fff;
        stroke-width: 3px;
      }

      .cls-1, .cls-2 {
        fill-rule: evenodd;
      }

      .cls-2 {
        fill: #fff;
      }
    </style>
  </defs>
  <path class="cls-1" d="M1062.96,298.761a176.423,176.423,0,0,1-345.8-41.253Q717,253.773,717,250" transform="translate(-698.938 -62.313)"/>
  <path id="NEW_CHILDBIRTH_CENTER" data-name="NEW CHILDBIRTH CENTER" class="cls-2" d="M731.209,221.015l0.087-.584-28.607-4.283-0.818,5.463,11.885,1.779c1.96,0.294,5.227.4,5.227,0.4a40.667,40.667,0,0,0-4.377,2.756l-15.57,12.293-0.088.583,28.608,4.284,0.818-5.463-11.885-1.78a50.754,50.754,0,0,0-5.234-.357,42.519,42.519,0,0,0,4.384-2.8Zm1.657-7.247,6.3-18.529-4.912-1.669-4.4,12.938-6.309-2.144,3.705-10.9-4.792-1.629-3.7,10.9-6.229-2.117,4.207-12.379-4.912-1.67-6.107,17.97Zm12.6-31.281,0.3-.509-8.5-12.81c-0.978-1.412-2.706-3.461-2.793-3.562,0.26,0.056,2.774.611,4.446,0.766l15.19,1.484,0.3-.508-19.6-23.688L731.89,148.6l7.808,9.416c1.305,1.6,3.569,3.824,3.693,3.946a37.189,37.189,0,0,0-5.366-1.115l-12.983-1.158-0.3.508,7.318,10.743a33.453,33.453,0,0,0,3.564,4.164c-0.3-.078-3.261-0.948-5.238-1.333l-12.035-2.264-3.176,5.373ZM780.2,138.149a13.5,13.5,0,0,0,4.54-12.76l-5.525.781c0.475,2.885.151,5.587-2.581,8.1-3.82,3.509-9.165,2.864-12.788-1.08s-3.756-9.261.064-12.77a7.815,7.815,0,0,1,7.663-1.944l1.155-5.412c-4.605-1.21-8.593-.066-12.413,3.443A14.7,14.7,0,1,0,780.2,138.149Zm12.285-12.127,4.861-3.35-6.388-9.27,10.1-6.963,6.388,9.271,4.861-3.35-16.27-23.61-4.861,3.35,6.891,10-10.1,6.962-6.891-10-4.861,3.349Zm26.137-16.675,5.275-2.653L811.012,81.075l-5.274,2.653Zm11.508-5.713,17.752-6.456L846.112,92.3l-12.2,4.438L825.881,74.67l-5.548,2.017Zm23.184-8.046,8.673-1.571c8.716-1.578,13.813-8.459,12.3-16.8s-8.739-12.991-17.413-11.42l-8.674,1.571Zm4.886-6.157L854.94,71.42l2.573-.466c6.267-1.135,9.807,2.082,10.761,7.352s-1.233,9.524-7.5,10.659Zm24.5,1.6,11.6-.033c5.9-.017,9.311-3.569,9.3-8.25-0.011-4.007-2.252-6.067-5.628-6.9a5.859,5.859,0,0,0,4.369-5.875c-0.012-4.344-2.974-7.667-8.794-7.651l-10.923.031Zm5.89-5.2-0.02-7.127,5.1-.014c2.446-.007,3.968,1.423,3.974,3.531a3.42,3.42,0,0,1-3.617,3.6Zm-0.034-12.146-0.018-6.157,4.6-.013c2.32-.007,3.377,1.129,3.383,3.069s-1.257,3.082-3.661,3.089Zm20.6,18.127,5.861,0.715L918.5,64.049l-5.861-.715Zm12.773,1.535,5.723,1.456,2.453-9.647,3.639,0.925,3.187,11.082,6.541,1.663L939.814,86.7a8.442,8.442,0,0,0,7.506-6.752c1.653-6.5-2.331-10.342-8.013-11.787l-10.3-2.62Zm9.4-13.015,2.111-8.3,4.414,1.123c2.739,0.7,4.36,2.2,3.57,5.3-0.78,3.066-2.859,3.712-5.68,2.995Zm22.354,22.783,5.41,2.366,9.41-21.523,7.5,3.278,2.078-4.753-20.4-8.92-2.078,4.753,7.5,3.277Zm17.55,8.078,4.911,3.275,6.246-9.367,10.208,6.807-6.245,9.367,4.911,3.275,15.906-23.856-4.91-3.274-6.738,10.1-10.208-6.807,6.736-10.1-4.911-3.275Zm41.737,35.186a13.482,13.482,0,0,0,12.66,4.8l-0.67-5.539c-2.89.415-5.59,0.036-8.04-2.747-3.43-3.89-2.68-9.22,1.34-12.762s9.34-3.564,12.77.326a7.808,7.808,0,0,1,1.78,7.7l5.39,1.265c1.3-4.578.24-8.589-3.19-12.479A14.692,14.692,0,1,0,1012.98,146.37Zm11.04,13.229,10.11,16.749,4.44-2.681-7.06-11.695,5.7-3.444,5.95,9.855,4.33-2.616-5.95-9.854,5.63-3.4,6.76,11.19,4.44-2.681-9.81-16.243Zm21.06,43.949,0.21,0.551,27-10.383-1.98-5.157-11.22,4.314c-1.85.712-4.74,2.231-4.74,2.231a41.185,41.185,0,0,0,2.44-4.556l7.49-18.375-0.21-.552-27.01,10.384,1.99,5.156,11.21-4.314a50.211,50.211,0,0,0,4.73-2.27,41.938,41.938,0,0,0-2.43,4.6Zm3.38,13.539,1.13,5.8,23.06-4.469,1.55,8.031,5.09-.987-4.23-21.859-5.09.987,1.55,8.032Zm3.12,19.036,0.57,19.557,5.18-.15-0.39-13.656,6.66-.192,0.33,11.506,5.06-.146-0.33-11.507,6.57-.19,0.38,13.066,5.18-.15-0.54-18.966Zm0.24,25.913-0.82,5.845,9.85,1.384-0.52,3.717-10.66,4.378-0.94,6.681,11.64-4.965a8.439,8.439,0,0,0,7.53,6.721c6.64,0.932,10.02-3.447,10.84-9.251l1.47-10.523Zm13.96,7.921,8.48,1.191-0.64,4.51c-0.39,2.8-1.7,4.571-4.88,4.126-3.13-.44-4-2.436-3.59-5.317Z" transform="translate(-698.938 -62.313)"/>
</svg>
