<svg id="_300x250A_copy2.svg" data-name="300x250A/copy2.svg" xmlns="http://www.w3.org/2000/svg" width="359" height="365.906" viewBox="0 0 359 365.906">
  <defs>
    <style>
      .cls-1 {
        fill: none;
        stroke: #fff;
        stroke-width: 3px;
      }

      .cls-1, .cls-2 {
        fill-rule: evenodd;
      }

      .cls-2 {
        fill: #fff;
      }
    </style>
  </defs>
  <path id="Ellipse_3_copy" data-name="Ellipse 3 copy" class="cls-1" d="M1019.2,226.3A176.4,176.4,0,1,1,668,250,175.811,175.811,0,0,1,682.094,180.8" transform="translate(-666.5 -62)"/>
  <path id="DUE_JANUARY_2021" data-name="DUE JANUARY 2021" class="cls-2" d="M700.091,175.042l5-7.258c5.025-7.293,3.739-15.759-3.241-20.568s-15.373-2.961-20.374,4.3l-5,7.258Zm-0.922-7.805L684.1,156.853l1.483-2.154c3.613-5.243,8.39-5.486,12.8-2.447s5.885,7.588,2.272,12.832Zm26.789-24.144c4.654-4.591,5.768-10.608.673-15.772L713.775,114.29l-4.2,4.148,12.619,12.789c2.932,2.973,2.8,5.358.035,8.083-2.792,2.755-5.209,2.888-8.141-.085l-12.619-12.79-4.2,4.147,12.855,13.03C715.213,148.776,721.245,147.743,725.958,143.093Zm12.913-12.972,15.481-11.967-3.172-4.1-10.811,8.356-4.075-5.271,9.109-7.042-3.1-4-9.109,7.042-4.024-5.2,10.344-8-3.173-4.1-15.014,11.607Zm35.649-22.794c4.722-2.249,6.762-6.3,4.133-11.826l-8.669-18.2-5.332,2.539,8.633,18.127c1.269,2.666.492,3.878-1.26,4.712-1.828.87-3.188-.024-4.733-1.11l-3.09,4.695A9.161,9.161,0,0,0,774.52,107.327Zm10.433-5.583,5.447-1.659,0.4-4.178,10.651-3.243,2.664,3.245,5.93-1.806L789.072,70.247l-0.484.147Zm6.308-11.135,0.47-4.684c0.189-2.13.123-5.24,0.127-5.373,0.166,0.258,1.821,2.8,3.14,4.378l3,3.627Zm46.37,0.366,0.587-.065-3.186-28.752-5.491.608,1.324,11.945c0.218,1.97.953,5.155,0.953,5.155a40.778,40.778,0,0,0-3.785-3.526l-15.872-11.9-0.586.065,3.186,28.752,5.491-.608L818.928,80.7a50.606,50.606,0,0,0-1-5.151,42.566,42.566,0,0,0,3.827,3.522Zm18.888,0.9c6.516,0.518,11.795-2.574,12.37-9.8l1.45-18.244-5.885-.468-1.423,17.907c-0.331,4.162-2.224,5.619-6.091,5.311-3.909-.311-5.59-2.052-5.259-6.213L853.1,62.458l-5.885-.468-1.45,18.244C845.194,87.464,849.919,91.35,856.519,91.875Zm14.489,0.9,5.51,1.434,2.528-3.352,10.775,2.8,0.574,4.159,6,1.561-5.408-31.3-0.49-.128Zm11.2-6.194,2.849-3.747c1.274-1.717,2.845-4.4,2.917-4.514,0.008,0.307.091,3.336,0.389,5.374l0.661,4.661Zm18.625,14.653L906.2,103.7l4.157-9.043,3.41,1.568,1.13,11.473,6.131,2.818-1.412-12.577a8.439,8.439,0,0,0,8.6-5.282c2.8-6.092-.422-10.59-5.748-13.039l-9.655-4.438Zm11.6-11.1,3.576-7.778,4.138,1.9c2.567,1.18,3.889,2.948,2.55,5.86-1.321,2.874-3.482,3.133-6.126,1.918Zm18.423,26.774,4.927,3.329,6.114-9.049,17.626-9.515-5.031-3.4-7.582,4.292c-2.054,1.157-4.874,3.221-4.874,3.221s0.841-3.5,1.1-5.771l1.013-8.73-5.485-3.707-1.93,20.63Zm21.853,16.593,14.7,15.875,3.807-3.524-5.33-5.756a21.981,21.981,0,0,0-1.728-1.618,17.5,17.5,0,0,0,2.582.368l5.13,0.078c4.832,0.067,7.908-.77,10.229-2.919,3.9-3.61,4.165-8.971.04-13.427-4.155-4.487-9.547-4.725-14.155-2.067l3.2,5.2c2.647-1.3,5.185-1.352,6.933.536a3.54,3.54,0,0,1-.147,5.366c-1.392,1.289-3.446,1.926-7.83,1.847l-17.058-.3Zm24.131,30.012c3.469,5.34,10.654,8.116,19.212,2.556s8.94-13.253,5.47-18.593-10.651-8.116-19.209-2.556S973.369,158.179,976.838,163.519Zm4.385-2.849c-2.021-3.112-1.039-7.019,4.442-10.58s9.451-2.871,11.473.241,1.039,7.019-4.442,10.58S983.245,163.782,981.223,160.67Zm3.914,15.476L993.744,196l4.759-2.064-3.121-7.2a22.045,22.045,0,0,0-1.094-2.1,17.489,17.489,0,0,0,2.314,1.2l4.818,1.773c4.53,1.664,7.71,1.894,10.62.636,4.87-2.114,6.9-7.085,4.48-12.656-2.43-5.611-7.44-7.621-12.67-6.641l1.3,5.964c2.93-.35,5.34.442,6.36,2.8a3.542,3.542,0,0,1-1.91,5.015c-1.74.755-3.89,0.675-8-.852l-16-5.934Zm11.17,28.645,1.651,5.713,27.552-7.962-3.08-10.655-5.07,1.463,1.43,4.943Z" transform="translate(-666.5 -62)"/>
</svg>
