<svg id="Layer_1" data-name="Layer 1" xmlns="http://www.w3.org/2000/svg" viewBox="0 0 411 63"><defs><style>.cls-1{fill:#fbf8ec;}</style></defs><title>artL</title><path class="cls-1" d="M29.36,52.33,26.52,40.65H12.13l-3,11.68H4.48L16.36,5.61h6.27L34.18,52.33ZM19.52,9.76h-.26L12.79,37H25.86Z"/><path class="cls-1" d="M59,52.33,50.54,30.69h-6V52.33H40V5.61H51.2a15.76,15.76,0,0,1,4.46.62,10.15,10.15,0,0,1,3.83,2.08,10.41,10.41,0,0,1,2.7,3.83,14.52,14.52,0,0,1,1,5.81,15.5,15.5,0,0,1-.76,5.11,11.68,11.68,0,0,1-2,3.6,9.13,9.13,0,0,1-2.71,2.24,8.67,8.67,0,0,1-2.94,1l9.11,22.44Zm-.26-34.15A11,11,0,0,0,58,14a7,7,0,0,0-1.85-2.66A6.57,6.57,0,0,0,53.55,10a12.07,12.07,0,0,0-3.07-.39H44.54V27.06h6.14a7.61,7.61,0,0,0,5.9-2.34A9.31,9.31,0,0,0,58.73,18.18Z"/><path class="cls-1" d="M79.19,9.57V52.33H74.63V9.57h-9v-4H88.23v4Z"/><path class="cls-1" d="M125.16,52.17a18.44,18.44,0,0,1-6.44,1,14.22,14.22,0,0,1-7-1.71,15,15,0,0,1-5.22-4.89,24.31,24.31,0,0,1-3.23-7.65,41.41,41.41,0,0,1-1.12-10,40.88,40.88,0,0,1,1.09-9.7,26,26,0,0,1,3.13-7.75,15.67,15.67,0,0,1,5-5.12,12.49,12.49,0,0,1,6.73-1.85,14.14,14.14,0,0,1,6.27,1.39,11.82,11.82,0,0,1,4.75,4.36l-3,3a10.55,10.55,0,0,0-3.53-3.46,8.53,8.53,0,0,0-4.32-1.16,8,8,0,0,0-5,1.62,12.71,12.71,0,0,0-3.53,4.39,23.58,23.58,0,0,0-2.11,6.43,42.2,42.2,0,0,0-.7,7.82A42.21,42.21,0,0,0,107.7,37a21.51,21.51,0,0,0,2.21,6.36,12.06,12.06,0,0,0,3.7,4.2A8.81,8.81,0,0,0,118.72,49a12.42,12.42,0,0,0,3.8-.53,7.59,7.59,0,0,0,2.8-1.51V31.15h-6.66v-4h11.15V49.44A14.57,14.57,0,0,1,125.16,52.17Z"/><path class="cls-1" d="M159.51,52.33l-2.84-11.68H142.28l-3,11.68h-4.68L146.51,5.61h6.27l11.55,46.72ZM149.68,9.76h-.27L142.94,37H156Z"/><path class="cls-1" d="M170.13,52.33V5.61h4.62V48h13.34v4.29Z"/><path class="cls-1" d="M193.7,52.33V5.61h4.62V48h13.33v4.29Z"/><path class="cls-1" d="M217.26,52.33V5.61h18.81V9.7H221.75V26.07h13.4v4h-13.4V48.17h15v4.16Z"/><path class="cls-1" d="M263.85,52.33l-8.44-21.64h-6V52.33h-4.55V5.61h11.22a15.69,15.69,0,0,1,4.45.62,10.15,10.15,0,0,1,3.83,2.08,10.55,10.55,0,0,1,2.71,3.83,14.71,14.71,0,0,1,1,5.81,15.24,15.24,0,0,1-.76,5.11,11.68,11.68,0,0,1-2,3.6,9,9,0,0,1-2.71,2.24,8.69,8.69,0,0,1-2.93,1l9.1,22.44Zm-.26-34.15A11,11,0,0,0,262.9,14a6.92,6.92,0,0,0-1.85-2.66A6.57,6.57,0,0,0,258.41,10a12,12,0,0,0-3.07-.39H249.4V27.06h6.14a7.62,7.62,0,0,0,5.91-2.34A9.3,9.3,0,0,0,263.59,18.18Z"/><path class="cls-1" d="M276.26,52.33V5.61h4.62V52.33Z"/><path class="cls-1" d="M291.57,52.33V5.61h18.81V9.7H296.06V26.07h13.4v4h-13.4V48.17h15v4.16Z"/><path class="cls-1" d="M339.42,40.39a15.23,15.23,0,0,1-.92,5.51A12.11,12.11,0,0,1,336,50a10.88,10.88,0,0,1-3.8,2.57,12,12,0,0,1-4.62.9A14.36,14.36,0,0,1,321,51.94a13.36,13.36,0,0,1-4.85-4L319,44.68A10.47,10.47,0,0,0,322.79,48a10.17,10.17,0,0,0,4.69,1.19A7.07,7.07,0,0,0,332.79,47a8.92,8.92,0,0,0,2.15-6.41,8.69,8.69,0,0,0-.66-3.49,9.33,9.33,0,0,0-1.79-2.71A13.77,13.77,0,0,0,330,32.27a29,29,0,0,0-3-1.72,28,28,0,0,1-3.63-2.08,14.49,14.49,0,0,1-3-2.67,12.19,12.19,0,0,1-2.08-3.6,13.51,13.51,0,0,1-.79-4.85,14.8,14.8,0,0,1,1-5.64,11.64,11.64,0,0,1,2.67-4,11,11,0,0,1,3.79-2.4,12.5,12.5,0,0,1,4.43-.8A14.5,14.5,0,0,1,335,5.57,10.3,10.3,0,0,1,339.29,9l-2.84,3.24a7.71,7.71,0,0,0-3.1-2.74,9.14,9.14,0,0,0-3.89-.83,7.9,7.9,0,0,0-2.74.5,6.48,6.48,0,0,0-2.41,1.55,7.93,7.93,0,0,0-1.72,2.7,10.47,10.47,0,0,0-.66,3.9,9,9,0,0,0,.6,3.43,8.24,8.24,0,0,0,1.62,2.57,11.44,11.44,0,0,0,2.37,2,30.82,30.82,0,0,0,2.81,1.59A35.88,35.88,0,0,1,333,29a17.38,17.38,0,0,1,3.27,2.77,12.58,12.58,0,0,1,2.31,3.7A13.16,13.16,0,0,1,339.42,40.39Z"/></svg>