<svg id="Layer_1" data-name="Layer 1" xmlns="http://www.w3.org/2000/svg" viewBox="0 0 411 63"><defs><style>.cls-1{fill:#fbf8ec;}</style></defs><title>bikeL</title><path class="cls-1" d="M33.45,39.6a14.17,14.17,0,0,1-1.15,6.07,11.23,11.23,0,0,1-2.94,3.92,10.91,10.91,0,0,1-3.93,2.12,14.93,14.93,0,0,1-4.12.62H9.36V5.61H20a17.08,17.08,0,0,1,4.11.52A11.1,11.1,0,0,1,27.93,8a9.66,9.66,0,0,1,2.88,3.5A12.22,12.22,0,0,1,31.93,17a13.71,13.71,0,0,1-.56,4.13,10.86,10.86,0,0,1-1.5,3,9,9,0,0,1-2.14,2.12,10.71,10.71,0,0,1-2.46,1.28v.13A10.22,10.22,0,0,1,28,28.77,9.84,9.84,0,0,1,30.65,31a11.73,11.73,0,0,1,2,3.57A14.51,14.51,0,0,1,33.45,39.6ZM27.58,17.72a9.48,9.48,0,0,0-.7-3.88A6.64,6.64,0,0,0,25,11.31,6.78,6.78,0,0,0,22.43,10a11.42,11.42,0,0,0-3-.39H13.72v16.5h5.87a9.41,9.41,0,0,0,2.87-.46A6.93,6.93,0,0,0,25,24.13a7.88,7.88,0,0,0,1.85-2.6A9.12,9.12,0,0,0,27.58,17.72ZM28.9,39.3a11,11,0,0,0-.8-4.44,8.3,8.3,0,0,0-2-2.93,8.14,8.14,0,0,0-2.81-1.64,9.31,9.31,0,0,0-3-.53H13.72V48.37h6.53a10.66,10.66,0,0,0,3.37-.52,7.36,7.36,0,0,0,2.77-1.65,7.49,7.49,0,0,0,1.85-2.82A11.33,11.33,0,0,0,28.9,39.3Z"/><path class="cls-1" d="M41.44,52.33V5.61h4.62V52.33Z"/><path class="cls-1" d="M76.94,52.33,61.37,28.38H61.3v24H56.75V5.61H61.3v21h.07L76,5.61h5.35L65.66,27.19,82.49,52.33Z"/><path class="cls-1" d="M88.56,52.33V5.61h18.81V9.7H93.05V26.07h13.4v4H93.05V48.17h15v4.16Z"/><path class="cls-1" d="M151.26,18.28a15.75,15.75,0,0,1-1,5.71,12.19,12.19,0,0,1-2.54,4.12,10.64,10.64,0,0,1-3.66,2.51,11.29,11.29,0,0,1-4.32.86h-6.87V52.33h-4.55V5.61h11a15.19,15.19,0,0,1,4.16.59,10,10,0,0,1,3.83,2.08,11.12,11.12,0,0,1,2.8,3.93A14.81,14.81,0,0,1,151.26,18.28Zm-4.55,0a11.86,11.86,0,0,0-.6-4,7.06,7.06,0,0,0-1.65-2.73,6.58,6.58,0,0,0-2.41-1.54,8.46,8.46,0,0,0-2.93-.49h-6.21v18h6.27a7.19,7.19,0,0,0,5.32-2.27C146,23.74,146.71,21.42,146.71,18.31Z"/><path class="cls-1" d="M175.94,52.33l-2.83-11.68H158.72l-3,11.68h-4.69L162.94,5.61h6.27l11.55,46.72ZM166.11,9.76h-.26L159.38,37h13.07Z"/><path class="cls-1" d="M193.57,9.57V52.33H189V9.57h-9v-4h22.57v4Z"/><path class="cls-1" d="M230.46,52.33V30.16H212.57V52.33H208V5.61h4.62V26.07h17.89V5.61h4.62V52.33Z"/><path class="cls-1" d="M266,40.39a15.45,15.45,0,0,1-.92,5.51A12.11,12.11,0,0,1,262.57,50a11,11,0,0,1-3.8,2.57,12,12,0,0,1-4.62.9,14.36,14.36,0,0,1-6.56-1.52,13.47,13.47,0,0,1-4.86-4l2.84-3.23A10.39,10.39,0,0,0,249.4,48a10.17,10.17,0,0,0,4.69,1.19A7.07,7.07,0,0,0,259.4,47a8.91,8.91,0,0,0,2.14-6.41,8.69,8.69,0,0,0-.66-3.49,9.3,9.3,0,0,0-1.78-2.71,14.1,14.1,0,0,0-2.54-2.11,29,29,0,0,0-3-1.72,28,28,0,0,1-3.63-2.08,14,14,0,0,1-3-2.67,12.19,12.19,0,0,1-2.08-3.6,13.51,13.51,0,0,1-.8-4.85,14.8,14.8,0,0,1,1-5.64,11.8,11.8,0,0,1,2.68-4,10.94,10.94,0,0,1,3.79-2.4,12.45,12.45,0,0,1,4.42-.8,14.43,14.43,0,0,1,5.71,1.09A10.26,10.26,0,0,1,265.9,9l-2.84,3.24A7.71,7.71,0,0,0,260,9.47a9.17,9.17,0,0,0-3.89-.83,7.9,7.9,0,0,0-2.74.5,6.48,6.48,0,0,0-2.41,1.55,7.79,7.79,0,0,0-1.72,2.7,10.47,10.47,0,0,0-.66,3.9,9,9,0,0,0,.6,3.43,8.4,8.4,0,0,0,1.61,2.57,11.77,11.77,0,0,0,2.38,2,32.05,32.05,0,0,0,2.8,1.59A35,35,0,0,1,259.6,29a17.38,17.38,0,0,1,3.27,2.77,12.35,12.35,0,0,1,2.3,3.7A13,13,0,0,1,266,40.39Z"/></svg>