<svg id="Layer_1" data-name="Layer 1" xmlns="http://www.w3.org/2000/svg" viewBox="0 0 411 63"><defs><style>.cls-1{fill:#fbf8ec;}</style></defs><title>bikeB</title><path class="cls-1" d="M37.54,39a14.38,14.38,0,0,1-1.22,6.3,11.3,11.3,0,0,1-3.2,4.1,12.71,12.71,0,0,1-4.45,2.24,18.54,18.54,0,0,1-5,.69H8.17V5.61h14a24.75,24.75,0,0,1,4.62.46,12.52,12.52,0,0,1,4.45,1.75,10.31,10.31,0,0,1,3.37,3.66A12.33,12.33,0,0,1,36,17.62a11.63,11.63,0,0,1-1.68,6.63,10.12,10.12,0,0,1-4.13,3.6V28a8.81,8.81,0,0,1,2.64,1.19,9.9,9.9,0,0,1,2.38,2.21,11.22,11.22,0,0,1,1.71,3.27A13.25,13.25,0,0,1,37.54,39ZM26.65,19.3c0-1.82-.5-3.1-1.51-3.85a5.8,5.8,0,0,0-3.57-1.13H18V24.48h3.63a5.56,5.56,0,0,0,3.46-1.19A4.72,4.72,0,0,0,26.65,19.3ZM27.51,38A6.48,6.48,0,0,0,27,35.36a5.07,5.07,0,0,0-1.32-1.8,5.5,5.5,0,0,0-1.85-1,6.25,6.25,0,0,0-2-.34H18V43.62h4a5.77,5.77,0,0,0,3.92-1.39A5.23,5.23,0,0,0,27.51,38Z"/><path class="cls-1" d="M44.08,52.33V5.61H54.7V52.33Z"/><path class="cls-1" d="M83.81,52.33l-10-21.71h-.2V52.33H63V5.61H73.64V25.08h.2L83.48,5.61H95.29L83.28,27,96,52.33Z"/><path class="cls-1" d="M100.51,52.33V5.61h22.57v9.3H110.6v9.17h11.49V32.8H110.6v10h13.27v9.5Z"/><path class="cls-1" d="M172.12,20.26A17.41,17.41,0,0,1,170.93,27a13.44,13.44,0,0,1-3.17,4.68,12.65,12.65,0,0,1-4.49,2.74,14.91,14.91,0,0,1-5.08.9h-4.56v17H143.27V5.61h14.52a18.45,18.45,0,0,1,5.05.72,12.94,12.94,0,0,1,4.62,2.41,12.12,12.12,0,0,1,3.37,4.52A16.9,16.9,0,0,1,172.12,20.26Zm-9.91.2c0-2.12-.5-3.63-1.51-4.56a5.32,5.32,0,0,0-3.7-1.38h-3.37V26.73H157a4.9,4.9,0,0,0,3.7-1.62A6.56,6.56,0,0,0,162.21,20.46Z"/><path class="cls-1" d="M195.68,52.33l-1.92-8.51H183.27l-1.92,8.51H170.79L182.15,5.61h13.26L206.7,52.33Zm-7-36.56h-.26l-4,19.86h8Z"/><path class="cls-1" d="M224.32,14.58V52.33H214V14.58h-8.58v-9H232.9v9Z"/><path class="cls-1" d="M258.38,52.33V32.8H247.49V52.33H237V5.61h10.5V23.29h10.89V5.61h10.49V52.33Z"/><path class="cls-1" d="M296.52,16.76a8.33,8.33,0,0,0-2.77-2.15,7.58,7.58,0,0,0-3.3-.75,5,5,0,0,0-3.2,1.12,4.43,4.43,0,0,0-1.42,3.7,4.24,4.24,0,0,0,1.45,3.41,24,24,0,0,0,4.29,2.67q1.6.79,3.36,1.89a15.4,15.4,0,0,1,3.22,2.68,13.39,13.39,0,0,1,2.43,3.8,13.12,13.12,0,0,1,1,5.25,17.19,17.19,0,0,1-1.2,6.65,13.44,13.44,0,0,1-3.22,4.76,13.65,13.65,0,0,1-4.68,2.84,15.94,15.94,0,0,1-5.49,1A18.2,18.2,0,0,1,279.27,52a18.8,18.8,0,0,1-5.58-3.69l5.41-7.92a12.23,12.23,0,0,0,3.5,2.54,9.11,9.11,0,0,0,4,1,4.51,4.51,0,0,0,3.24-1.25,4.58,4.58,0,0,0,1.32-3.5,4.55,4.55,0,0,0-1.59-3.66A23,23,0,0,0,285,32.6a30.45,30.45,0,0,1-3.59-2.05,13.14,13.14,0,0,1-3-2.7,12.11,12.11,0,0,1-2-3.7,15.61,15.61,0,0,1-.72-5A15.91,15.91,0,0,1,277,12.44a13.15,13.15,0,0,1,3.36-4.59,13.86,13.86,0,0,1,4.62-2.64,16,16,0,0,1,5.12-.86,17.92,17.92,0,0,1,6.86,1.25A14.41,14.41,0,0,1,302,9Z"/></svg>