<svg id="Layer_1" data-name="Layer 1" xmlns="http://www.w3.org/2000/svg" viewBox="0 0 411 63"><defs><style>.cls-1{fill:#fbf8ec;}</style></defs><title>dogB</title><path class="cls-1" d="M40.71,29.1a36.81,36.81,0,0,1-1.15,9.57A20.27,20.27,0,0,1,36,46a15.72,15.72,0,0,1-6,4.68,21,21,0,0,1-8.68,1.65H8.17V5.61H21.31A21.2,21.2,0,0,1,30,7.25,15.72,15.72,0,0,1,36,12a20.61,20.61,0,0,1,3.54,7.4A37.7,37.7,0,0,1,40.71,29.1Zm-10.63,0q0-7.07-2.4-10.66a7.25,7.25,0,0,0-6.24-3.59H18.87V43.09h2.57a7.27,7.27,0,0,0,6.24-3.59Q30.08,35.9,30.08,29.1Z"/><path class="cls-1" d="M81.1,28.84A38.66,38.66,0,0,1,79.85,39a24.5,24.5,0,0,1-3.56,7.82,16.49,16.49,0,0,1-5.65,5,16.65,16.65,0,0,1-15,0,16.37,16.37,0,0,1-5.64-5A24.51,24.51,0,0,1,46.45,39,38.66,38.66,0,0,1,45.2,28.84a38.81,38.81,0,0,1,1.22-10.07A23.47,23.47,0,0,1,50,11.05a16.26,16.26,0,0,1,5.64-5,16,16,0,0,1,7.56-1.75A15.82,15.82,0,0,1,70.64,6.1a16.38,16.38,0,0,1,5.65,5,24.13,24.13,0,0,1,3.56,7.72A37.93,37.93,0,0,1,81.1,28.84Zm-10.82,0a33.23,33.23,0,0,0-.46-5.65,18.25,18.25,0,0,0-1.36-4.52,8.44,8.44,0,0,0-2.21-3,4.7,4.7,0,0,0-3.1-1.09A4.81,4.81,0,0,0,60,15.67a8.28,8.28,0,0,0-2.25,3,17.87,17.87,0,0,0-1.32,4.52A35.54,35.54,0,0,0,56,28.84a36.08,36.08,0,0,0,.43,5.67,17.83,17.83,0,0,0,1.32,4.56,8.49,8.49,0,0,0,2.25,3,4.74,4.74,0,0,0,3.13,1.13,4.63,4.63,0,0,0,3.1-1.13,8.66,8.66,0,0,0,2.21-3,18.2,18.2,0,0,0,1.36-4.56A33.73,33.73,0,0,0,70.28,28.84Z"/><path class="cls-1" d="M111.79,52.33a23.47,23.47,0,0,1-7.46,1.06,16.56,16.56,0,0,1-13.76-6.77,23.44,23.44,0,0,1-3.69-7.68,36.1,36.1,0,0,1-1.29-10,36.37,36.37,0,0,1,1.29-10,24.73,24.73,0,0,1,3.66-7.79,16.83,16.83,0,0,1,5.71-5,15.58,15.58,0,0,1,7.42-1.78,17.55,17.55,0,0,1,8,1.62A14.35,14.35,0,0,1,116.68,10l-5.75,7.72a7.58,7.58,0,0,0-6.49-3.3,6.25,6.25,0,0,0-3.78,1.15A9.13,9.13,0,0,0,98,18.74a15.89,15.89,0,0,0-1.56,4.62A30.41,30.41,0,0,0,96,29a32.32,32.32,0,0,0,.47,5.61,15.87,15.87,0,0,0,1.49,4.62,9.31,9.31,0,0,0,2.59,3.17,6,6,0,0,0,3.75,1.19,6.08,6.08,0,0,0,3.71-1V33.85h-5V24.68h14.26V49.56A18.3,18.3,0,0,1,111.79,52.33Z"/><path class="cls-1" d="M166.51,20.26A17.41,17.41,0,0,1,165.32,27a13.3,13.3,0,0,1-3.17,4.68,12.65,12.65,0,0,1-4.49,2.74,14.91,14.91,0,0,1-5.08.9H148v17H137.67V5.61h14.51a18.39,18.39,0,0,1,5,.72,12.94,12.94,0,0,1,4.62,2.41,12.12,12.12,0,0,1,3.37,4.52A16.9,16.9,0,0,1,166.51,20.26Zm-9.9.2c0-2.12-.51-3.63-1.52-4.56a5.31,5.31,0,0,0-3.7-1.38H148V26.73h3.36a4.88,4.88,0,0,0,3.7-1.62A6.56,6.56,0,0,0,156.61,20.46Z"/><path class="cls-1" d="M190.07,52.33l-1.92-8.51H177.66l-1.91,8.51H165.19L176.54,5.61H189.8l11.29,46.72Zm-7-36.56h-.26l-4,19.86h8Z"/><path class="cls-1" d="M224.69,52.33l-6.25-18.61h-3.09V52.33H205.18V5.61h14.95q6.78,0,10.54,3.53t3.75,10.52a16.76,16.76,0,0,1-.59,4.62,12.84,12.84,0,0,1-1.55,3.5,9.73,9.73,0,0,1-2.14,2.38,8.55,8.55,0,0,1-2.3,1.32l8,20.85Zm-.63-32.07a7.28,7.28,0,0,0-.5-2.91,4.92,4.92,0,0,0-1.28-1.78,4.22,4.22,0,0,0-1.75-.89,8.26,8.26,0,0,0-1.88-.23h-3.3V26.26h3.1a5.92,5.92,0,0,0,3.93-1.42Q224.06,23.43,224.06,20.26Z"/><path class="cls-1" d="M261.68,52.33l-10-21.71h-.2V52.33H240.89V5.61h10.62V25.08h.2l9.64-19.47h11.81L261.15,27l12.74,25.34Z"/><path class="cls-1" d="M297.71,16.76a8.33,8.33,0,0,0-2.77-2.15,7.65,7.65,0,0,0-3.3-.75,5,5,0,0,0-3.2,1.12,4.43,4.43,0,0,0-1.42,3.7,4.21,4.21,0,0,0,1.45,3.41,24,24,0,0,0,4.29,2.67c1.07.53,2.18,1.16,3.36,1.89a15.4,15.4,0,0,1,3.22,2.68,13.61,13.61,0,0,1,2.43,3.8,13.12,13.12,0,0,1,1,5.25,17.19,17.19,0,0,1-1.2,6.65,13.44,13.44,0,0,1-3.22,4.76,13.65,13.65,0,0,1-4.68,2.84,16,16,0,0,1-5.49,1A18.24,18.24,0,0,1,280.45,52a18.62,18.62,0,0,1-5.57-3.69l5.41-7.92a12.23,12.23,0,0,0,3.5,2.54,9.11,9.11,0,0,0,4,1,4.51,4.51,0,0,0,3.24-1.25,4.58,4.58,0,0,0,1.32-3.5,4.55,4.55,0,0,0-1.59-3.66,23,23,0,0,0-4.62-2.87,30.45,30.45,0,0,1-3.59-2.05,12.93,12.93,0,0,1-3-2.7,12.11,12.11,0,0,1-2-3.7,15.61,15.61,0,0,1-.72-5,16.07,16.07,0,0,1,1.28-6.69,13.17,13.17,0,0,1,3.37-4.59,13.86,13.86,0,0,1,4.62-2.64,16,16,0,0,1,5.12-.86,18,18,0,0,1,6.86,1.25A14.41,14.41,0,0,1,303.19,9Z"/></svg>