<svg id="Layer_1" data-name="Layer 1" xmlns="http://www.w3.org/2000/svg" viewBox="0 0 411 63"><defs><style>.cls-1{fill:#fbf8ec;}</style></defs><title>fitnessL</title><path class="cls-1" d="M13.92,9.76V26.53H27.05v4H13.92V52.33H9.36V5.6H28V9.76Z"/><path class="cls-1" d="M35.5,52.33V5.6h4.62V52.33Z"/><path class="cls-1" d="M59,9.56V52.33H54.44V9.56h-9v-4H68v4Z"/><path class="cls-1" d="M94.19,52.33,77.93,13.46h-.19V52.33H73.38V5.6h5.74L95.29,44.48h.2V5.6h4.22V52.33Z"/><path class="cls-1" d="M110.41,52.33V5.6h18.81V9.7H114.89V26.06h13.4v4h-13.4V48.17h15v4.16Z"/><path class="cls-1" d="M158.26,40.39a15.23,15.23,0,0,1-.93,5.51A12.11,12.11,0,0,1,154.79,50,10.94,10.94,0,0,1,151,52.56a12,12,0,0,1-4.62.9,14.37,14.37,0,0,1-6.57-1.52,13.44,13.44,0,0,1-4.85-4l2.84-3.23A10.36,10.36,0,0,0,141.62,48a10.2,10.2,0,0,0,4.69,1.19A7.07,7.07,0,0,0,151.62,47a8.92,8.92,0,0,0,2.15-6.41,8.69,8.69,0,0,0-.66-3.49,9.5,9.5,0,0,0-1.78-2.71,14.17,14.17,0,0,0-2.55-2.11,29,29,0,0,0-3-1.72,28,28,0,0,1-3.63-2.08,14.78,14.78,0,0,1-3-2.67,12.19,12.19,0,0,1-2.08-3.6,13.51,13.51,0,0,1-.79-4.85,14.8,14.8,0,0,1,1-5.64,11.64,11.64,0,0,1,2.67-4,11.15,11.15,0,0,1,3.8-2.41,12.63,12.63,0,0,1,4.42-.79,14.5,14.5,0,0,1,5.71,1.09A10.3,10.3,0,0,1,158.12,9l-2.83,3.24a7.8,7.8,0,0,0-3.11-2.74,9.11,9.11,0,0,0-3.89-.83,7.94,7.94,0,0,0-2.74.5,6.48,6.48,0,0,0-2.41,1.55,7.92,7.92,0,0,0-1.71,2.7,10.47,10.47,0,0,0-.66,3.9,9,9,0,0,0,.59,3.43A8.43,8.43,0,0,0,143,23.29a11.44,11.44,0,0,0,2.37,2,30.82,30.82,0,0,0,2.81,1.59A35.88,35.88,0,0,1,151.82,29a17.38,17.38,0,0,1,3.27,2.77,12.38,12.38,0,0,1,2.31,3.7A13.15,13.15,0,0,1,158.26,40.39Z"/><path class="cls-1" d="M186.9,40.39A15.23,15.23,0,0,1,186,45.9,12,12,0,0,1,183.43,50a10.84,10.84,0,0,1-3.79,2.57,12,12,0,0,1-4.62.9,14.37,14.37,0,0,1-6.57-1.52,13.44,13.44,0,0,1-4.85-4l2.84-3.23A10.39,10.39,0,0,0,170.27,48,10.16,10.16,0,0,0,175,49.23,7.08,7.08,0,0,0,180.27,47a8.91,8.91,0,0,0,2.14-6.41,8.69,8.69,0,0,0-.66-3.49A9.3,9.3,0,0,0,180,34.38a14.46,14.46,0,0,0-2.54-2.11,30.21,30.21,0,0,0-3-1.72,29.43,29.43,0,0,1-3.63-2.08,14.78,14.78,0,0,1-3-2.67,12.19,12.19,0,0,1-2.08-3.6,13.51,13.51,0,0,1-.79-4.85,14.8,14.8,0,0,1,1-5.64,11.64,11.64,0,0,1,2.67-4,11.25,11.25,0,0,1,3.8-2.41,12.67,12.67,0,0,1,4.42-.79,14.46,14.46,0,0,1,5.71,1.09A10.39,10.39,0,0,1,186.77,9l-2.84,3.24a7.78,7.78,0,0,0-3.1-2.74,9.18,9.18,0,0,0-3.9-.83,8,8,0,0,0-2.74.5,6.44,6.44,0,0,0-2.4,1.55,7.79,7.79,0,0,0-1.72,2.7,10.47,10.47,0,0,0-.66,3.9,9.15,9.15,0,0,0,.59,3.43,8.62,8.62,0,0,0,1.62,2.57,11.24,11.24,0,0,0,2.38,2,30.65,30.65,0,0,0,2.8,1.59A35.88,35.88,0,0,1,180.46,29a17.38,17.38,0,0,1,3.27,2.77,12.18,12.18,0,0,1,2.31,3.7A13.15,13.15,0,0,1,186.9,40.39Z"/><path class="cls-1" d="M227.88,51.81a12.58,12.58,0,0,1-6.4,1.65,12.4,12.4,0,0,1-6.8-1.89,16,16,0,0,1-5-5.14,26.15,26.15,0,0,1-3.14-7.76,41.34,41.34,0,0,1-1.09-9.7,41.7,41.7,0,0,1,1.09-9.77,25.49,25.49,0,0,1,3.17-7.75,16,16,0,0,1,5.05-5.12,12.49,12.49,0,0,1,6.73-1.85,13.91,13.91,0,0,1,6.17,1.39,11.73,11.73,0,0,1,4.79,4.36l-3,3a10.26,10.26,0,0,0-3.53-3.43,8.64,8.64,0,0,0-4.26-1.12,8.23,8.23,0,0,0-5.05,1.58,12.16,12.16,0,0,0-3.56,4.36A23.87,23.87,0,0,0,211,21.12a42.71,42.71,0,0,0-.69,7.85,39.72,39.72,0,0,0,.73,7.82,24.72,24.72,0,0,0,2.14,6.44,12.54,12.54,0,0,0,3.57,4.38,8.14,8.14,0,0,0,5.05,1.62,7.77,7.77,0,0,0,4.55-1.42,11.25,11.25,0,0,0,3.37-3.73l2.9,3A13.14,13.14,0,0,1,227.88,51.81Z"/><path class="cls-1" d="M239.1,52.33V5.6h4.62V48h13.33v4.29Z"/><path class="cls-1" d="M282.66,52.33l-2.83-11.68H265.44l-3,11.68h-4.69L269.66,5.6h6.27l11.55,46.73ZM272.83,9.76h-.26L266.1,37h13.07Z"/><path class="cls-1" d="M313.55,40.39a15.45,15.45,0,0,1-.92,5.51A12.13,12.13,0,0,1,310.08,50a10.84,10.84,0,0,1-3.79,2.57,12,12,0,0,1-4.62.9,14.4,14.4,0,0,1-6.57-1.52,13.44,13.44,0,0,1-4.85-4l2.84-3.23A10.39,10.39,0,0,0,296.92,48a10.16,10.16,0,0,0,4.68,1.19A7.08,7.08,0,0,0,306.92,47a8.91,8.91,0,0,0,2.14-6.41,8.69,8.69,0,0,0-.66-3.49,9.3,9.3,0,0,0-1.78-2.71,14.1,14.1,0,0,0-2.54-2.11,31.21,31.21,0,0,0-3-1.72,28,28,0,0,1-3.63-2.08,14.57,14.57,0,0,1-3-2.67,12.19,12.19,0,0,1-2.08-3.6,13.74,13.74,0,0,1-.79-4.85,14.8,14.8,0,0,1,1-5.64,11.52,11.52,0,0,1,2.68-4A11.11,11.11,0,0,1,299,5.27a12.67,12.67,0,0,1,4.42-.79,14.46,14.46,0,0,1,5.71,1.09A10.39,10.39,0,0,1,313.42,9l-2.84,3.24a7.71,7.71,0,0,0-3.1-2.74,9.18,9.18,0,0,0-3.9-.83,7.88,7.88,0,0,0-2.73.5,6.4,6.4,0,0,0-2.41,1.55,7.79,7.79,0,0,0-1.72,2.7,10.47,10.47,0,0,0-.66,3.9,9.15,9.15,0,0,0,.59,3.43,8.62,8.62,0,0,0,1.62,2.57,11.5,11.5,0,0,0,2.38,2,30.65,30.65,0,0,0,2.8,1.59A37.12,37.12,0,0,1,307.12,29a17.32,17.32,0,0,1,3.26,2.77,12.18,12.18,0,0,1,2.31,3.7A13.15,13.15,0,0,1,313.55,40.39Z"/><path class="cls-1" d="M342.19,40.39a15.23,15.23,0,0,1-.92,5.51A12.11,12.11,0,0,1,338.73,50a10.88,10.88,0,0,1-3.8,2.57,12,12,0,0,1-4.62.9,14.36,14.36,0,0,1-6.56-1.52,13.36,13.36,0,0,1-4.85-4l2.83-3.23A10.47,10.47,0,0,0,325.56,48a10.17,10.17,0,0,0,4.69,1.19A7.07,7.07,0,0,0,335.56,47a8.92,8.92,0,0,0,2.15-6.41,8.69,8.69,0,0,0-.66-3.49,9.33,9.33,0,0,0-1.79-2.71,13.77,13.77,0,0,0-2.54-2.11,29,29,0,0,0-3-1.72,28,28,0,0,1-3.63-2.08,14.78,14.78,0,0,1-3-2.67A12.19,12.19,0,0,1,321,22.2a13.51,13.51,0,0,1-.79-4.85,14.8,14.8,0,0,1,1-5.64,11.64,11.64,0,0,1,2.67-4,11.21,11.21,0,0,1,3.79-2.41,12.72,12.72,0,0,1,4.43-.79,14.41,14.41,0,0,1,5.7,1.09A10.26,10.26,0,0,1,342.06,9l-2.84,3.24a7.71,7.71,0,0,0-3.1-2.74,9.14,9.14,0,0,0-3.89-.83,7.9,7.9,0,0,0-2.74.5,6.48,6.48,0,0,0-2.41,1.55,7.93,7.93,0,0,0-1.72,2.7,10.47,10.47,0,0,0-.66,3.9,9,9,0,0,0,.6,3.43,8.24,8.24,0,0,0,1.62,2.57,11.44,11.44,0,0,0,2.37,2,30.82,30.82,0,0,0,2.81,1.59A35.88,35.88,0,0,1,335.76,29,17.38,17.38,0,0,1,339,31.74a12.58,12.58,0,0,1,2.31,3.7A13.16,13.16,0,0,1,342.19,40.39Z"/><path class="cls-1" d="M350.57,52.33V5.6h18.81V9.7H355.06V26.06h13.4v4h-13.4V48.17h15v4.16Z"/><path class="cls-1" d="M398.43,40.39a15.23,15.23,0,0,1-.93,5.51A12.11,12.11,0,0,1,395,50a10.94,10.94,0,0,1-3.79,2.57,12,12,0,0,1-4.63.9A14.36,14.36,0,0,1,380,51.94a13.44,13.44,0,0,1-4.85-4L378,44.68A10.36,10.36,0,0,0,381.79,48a10.2,10.2,0,0,0,4.69,1.19A7.07,7.07,0,0,0,391.79,47a8.92,8.92,0,0,0,2.15-6.41,8.69,8.69,0,0,0-.66-3.49,9.5,9.5,0,0,0-1.78-2.71A14.17,14.17,0,0,0,389,32.27a29,29,0,0,0-3-1.72,28,28,0,0,1-3.63-2.08,14.78,14.78,0,0,1-3-2.67,12.19,12.19,0,0,1-2.08-3.6,13.51,13.51,0,0,1-.79-4.85,14.8,14.8,0,0,1,1-5.64,11.64,11.64,0,0,1,2.67-4,11.15,11.15,0,0,1,3.8-2.41,12.63,12.63,0,0,1,4.42-.79A14.5,14.5,0,0,1,394,5.57,10.3,10.3,0,0,1,398.29,9l-2.83,3.24a7.8,7.8,0,0,0-3.11-2.74,9.11,9.11,0,0,0-3.89-.83,7.94,7.94,0,0,0-2.74.5,6.48,6.48,0,0,0-2.41,1.55,7.92,7.92,0,0,0-1.71,2.7,10.47,10.47,0,0,0-.66,3.9,9,9,0,0,0,.59,3.43,8.43,8.43,0,0,0,1.62,2.57,11.44,11.44,0,0,0,2.37,2,30.82,30.82,0,0,0,2.81,1.59A35.88,35.88,0,0,1,392,29a17.38,17.38,0,0,1,3.27,2.77,12.38,12.38,0,0,1,2.31,3.7A13.15,13.15,0,0,1,398.43,40.39Z"/></svg>