<svg id="Layer_1" data-name="Layer 1" xmlns="http://www.w3.org/2000/svg" viewBox="0 0 443 63"><defs><style>.cls-1{fill:#fbf8ec;}</style></defs><title>fitnessB</title><path class="cls-1" d="M18.8,15.11v9.57H30v9H18.87V52.33H8.17V5.6H30.94v9.51Z"/><path class="cls-1" d="M36,52.33V5.6H46.65V52.33Z"/><path class="cls-1" d="M69,14.58V52.33H58.66V14.58H50.08v-9H77.6v9Z"/><path class="cls-1" d="M101.23,52.33,90.41,23.89h-.2l.26,28.44H81V5.6H92.65l10.76,28.85h.2l-.2-28.85h9.11V52.33Z"/><path class="cls-1" d="M118.85,52.33V5.6h22.58v9.31H129v9.17h11.49V32.8H129v10h13.27v9.5Z"/><path class="cls-1" d="M167.76,16.76A8.43,8.43,0,0,0,165,14.61a7.66,7.66,0,0,0-3.3-.76,5,5,0,0,0-3.2,1.13,4.43,4.43,0,0,0-1.42,3.7,4.21,4.21,0,0,0,1.45,3.41,24,24,0,0,0,4.29,2.67c1.06.53,2.18,1.16,3.35,1.89a15.4,15.4,0,0,1,3.23,2.67,13.56,13.56,0,0,1,2.42,3.81,13.09,13.09,0,0,1,1,5.25A17.19,17.19,0,0,1,171.58,45a13.13,13.13,0,0,1-7.9,7.6,16,16,0,0,1-5.49,1A18.21,18.21,0,0,1,150.5,52a18.8,18.8,0,0,1-5.58-3.69l5.41-7.92a12.37,12.37,0,0,0,3.5,2.54,9.12,9.12,0,0,0,4,1,4.5,4.5,0,0,0,3.23-1.25,4.58,4.58,0,0,0,1.32-3.5,4.57,4.57,0,0,0-1.58-3.66,23.6,23.6,0,0,0-4.62-2.87,29.8,29.8,0,0,1-3.6-2.05,13.36,13.36,0,0,1-3-2.7,11.88,11.88,0,0,1-2-3.7,15.32,15.32,0,0,1-.73-5,15.91,15.91,0,0,1,1.29-6.69,13.17,13.17,0,0,1,3.37-4.59,13.67,13.67,0,0,1,4.62-2.64,15.89,15.89,0,0,1,5.11-.86,17.92,17.92,0,0,1,6.86,1.25A14.45,14.45,0,0,1,173.24,9Z"/><path class="cls-1" d="M195.54,16.76a8.33,8.33,0,0,0-2.77-2.15,7.6,7.6,0,0,0-3.3-.76,5,5,0,0,0-3.2,1.13,4.46,4.46,0,0,0-1.42,3.7,4.24,4.24,0,0,0,1.45,3.41,24,24,0,0,0,4.29,2.67q1.6.79,3.36,1.89a15.35,15.35,0,0,1,3.22,2.67,13.37,13.37,0,0,1,2.43,3.81,13.09,13.09,0,0,1,1,5.25,17.19,17.19,0,0,1-1.2,6.65,13.44,13.44,0,0,1-3.22,4.76,13.65,13.65,0,0,1-4.68,2.84,15.94,15.94,0,0,1-5.49,1A18.2,18.2,0,0,1,178.29,52a18.8,18.8,0,0,1-5.58-3.69l5.41-7.92a12.23,12.23,0,0,0,3.5,2.54,9.11,9.11,0,0,0,4,1,4.51,4.51,0,0,0,3.24-1.25,4.58,4.58,0,0,0,1.32-3.5,4.57,4.57,0,0,0-1.58-3.66A23.6,23.6,0,0,0,184,32.6a29.8,29.8,0,0,1-3.6-2.05,13.36,13.36,0,0,1-3-2.7,11.88,11.88,0,0,1-2-3.7,15.32,15.32,0,0,1-.73-5A15.91,15.91,0,0,1,176,12.44a13.15,13.15,0,0,1,3.36-4.59A13.86,13.86,0,0,1,184,5.21a16,16,0,0,1,5.12-.86,17.92,17.92,0,0,1,6.86,1.25A14.41,14.41,0,0,1,201,9Z"/><path class="cls-1" d="M241.35,51.77a15.52,15.52,0,0,1-7.92,1.82A15.28,15.28,0,0,1,226,51.77a17.24,17.24,0,0,1-5.71-5.08,25.11,25.11,0,0,1-3.69-7.79A35.29,35.29,0,0,1,215.28,29a35.91,35.91,0,0,1,1.32-10,24.68,24.68,0,0,1,3.69-7.79,17,17,0,0,1,5.71-5,15.48,15.48,0,0,1,7.43-1.78A16.42,16.42,0,0,1,241.25,6a15.45,15.45,0,0,1,5.05,4.2l-5.68,7.65A10,10,0,0,0,238,15.37a7,7,0,0,0-3.73-.92,6,6,0,0,0-3.66,1.12,9.19,9.19,0,0,0-2.64,3.07,15.5,15.5,0,0,0-1.62,4.62,29.62,29.62,0,0,0-.53,5.71,29.15,29.15,0,0,0,.53,5.68,16,16,0,0,0,1.62,4.62,9.06,9.06,0,0,0,2.67,3.1,6.23,6.23,0,0,0,3.7,1.12A6.45,6.45,0,0,0,238,42.43a8.45,8.45,0,0,0,2.51-2.51l5.87,7.33A15.64,15.64,0,0,1,241.35,51.77Z"/><path class="cls-1" d="M251,52.33V5.6h10.7v37h12.47v9.77Z"/><path class="cls-1" d="M299.62,52.33l-1.91-8.51H287.22l-1.92,8.51H274.74L286.09,5.6h13.27l11.29,46.73Zm-7-36.56h-.26l-4,19.86h8Z"/><path class="cls-1" d="M334.08,16.76a8.37,8.37,0,0,0-2.78-2.15,7.6,7.6,0,0,0-3.3-.76A5,5,0,0,0,324.8,15a4.46,4.46,0,0,0-1.42,3.7,4.22,4.22,0,0,0,1.46,3.41,23.25,23.25,0,0,0,4.29,2.67c1.06.53,2.18,1.16,3.35,1.89a15.1,15.1,0,0,1,3.22,2.67,13.37,13.37,0,0,1,2.43,3.81,13.09,13.09,0,0,1,1,5.25A17.38,17.38,0,0,1,337.9,45a13.46,13.46,0,0,1-3.23,4.76A13.7,13.7,0,0,1,330,52.63a16,16,0,0,1-5.49,1A18.21,18.21,0,0,1,316.82,52a18.8,18.8,0,0,1-5.58-3.69l5.41-7.92a12.37,12.37,0,0,0,3.5,2.54,9.12,9.12,0,0,0,4,1,4.5,4.5,0,0,0,3.23-1.25,4.58,4.58,0,0,0,1.32-3.5,4.57,4.57,0,0,0-1.58-3.66,23.6,23.6,0,0,0-4.62-2.87,29.8,29.8,0,0,1-3.6-2.05,13.36,13.36,0,0,1-3-2.7,11.88,11.88,0,0,1-2-3.7,15.32,15.32,0,0,1-.73-5,15.91,15.91,0,0,1,1.29-6.69,13.27,13.27,0,0,1,3.36-4.59,13.86,13.86,0,0,1,4.62-2.64,16,16,0,0,1,5.12-.86,17.92,17.92,0,0,1,6.86,1.25A14.32,14.32,0,0,1,339.55,9Z"/><path class="cls-1" d="M361.86,16.76a8.33,8.33,0,0,0-2.77-2.15,7.63,7.63,0,0,0-3.3-.76,5,5,0,0,0-3.2,1.13,4.43,4.43,0,0,0-1.42,3.7,4.24,4.24,0,0,0,1.45,3.41,24,24,0,0,0,4.29,2.67c1.07.53,2.18,1.16,3.36,1.89a15.35,15.35,0,0,1,3.22,2.67,13.81,13.81,0,0,1,2.43,3.81,13.09,13.09,0,0,1,1,5.25,17.19,17.19,0,0,1-1.2,6.65,13.44,13.44,0,0,1-3.22,4.76,13.65,13.65,0,0,1-4.68,2.84,16,16,0,0,1-5.49,1A18.24,18.24,0,0,1,344.6,52,18.62,18.62,0,0,1,339,48.31l5.41-7.92a12.23,12.23,0,0,0,3.5,2.54,9.11,9.11,0,0,0,4,1,4.51,4.51,0,0,0,3.24-1.25,4.58,4.58,0,0,0,1.32-3.5,4.55,4.55,0,0,0-1.59-3.66,23,23,0,0,0-4.62-2.87,30.45,30.45,0,0,1-3.59-2.05,12.93,12.93,0,0,1-3-2.7,12.11,12.11,0,0,1-2-3.7,15.61,15.61,0,0,1-.72-5,16.07,16.07,0,0,1,1.28-6.69,13.17,13.17,0,0,1,3.37-4.59,13.86,13.86,0,0,1,4.62-2.64,16,16,0,0,1,5.12-.86,18,18,0,0,1,6.86,1.25A14.41,14.41,0,0,1,367.34,9Z"/><path class="cls-1" d="M370.31,52.33V5.6h22.57v9.31H380.41v9.17h11.48V32.8H380.41v10h13.27v9.5Z"/><path class="cls-1" d="M419.22,16.76a8.47,8.47,0,0,0-2.78-2.15,7.6,7.6,0,0,0-3.3-.76,5,5,0,0,0-3.2,1.13,4.46,4.46,0,0,0-1.42,3.7A4.22,4.22,0,0,0,410,22.09a23.25,23.25,0,0,0,4.29,2.67c1.06.53,2.18,1.16,3.35,1.89a15.35,15.35,0,0,1,3.22,2.67,13.37,13.37,0,0,1,2.43,3.81,13.09,13.09,0,0,1,1,5.25A17.38,17.38,0,0,1,423,45a13.46,13.46,0,0,1-3.23,4.76,13.7,13.7,0,0,1-4.67,2.84,16,16,0,0,1-5.49,1A18.21,18.21,0,0,1,402,52a18.8,18.8,0,0,1-5.58-3.69l5.41-7.92a12.23,12.23,0,0,0,3.5,2.54,9.12,9.12,0,0,0,4,1,4.5,4.5,0,0,0,3.23-1.25,4.58,4.58,0,0,0,1.32-3.5,4.57,4.57,0,0,0-1.58-3.66,23.6,23.6,0,0,0-4.62-2.87,29.8,29.8,0,0,1-3.6-2.05,13.36,13.36,0,0,1-3-2.7,11.88,11.88,0,0,1-2-3.7,15.32,15.32,0,0,1-.73-5,15.91,15.91,0,0,1,1.29-6.69A13.27,13.27,0,0,1,403,7.85a13.86,13.86,0,0,1,4.62-2.64,16,16,0,0,1,5.12-.86,17.92,17.92,0,0,1,6.86,1.25A14.32,14.32,0,0,1,424.69,9Z"/></svg>