<svg id="Layer_1" data-name="Layer 1" xmlns="http://www.w3.org/2000/svg" viewBox="0 0 411 63"><defs><style>.cls-1{fill:#fbf8ec;}</style></defs><title>musicB</title><path class="cls-1" d="M8.17,52.33V5.61h10.7v37H31.34v9.76Z"/><path class="cls-1" d="M36.09,52.33V5.61H46.72V52.33Z"/><path class="cls-1" d="M75.49,52.33H62.09L50.81,5.61H62.75l6.34,34.18h.13L75.49,5.61H87Z"/><path class="cls-1" d="M91.07,52.33V5.61h22.57v9.3H101.17v9.17h11.48V32.8H101.17v10h13.26v9.5Z"/><path class="cls-1" d="M166,52.33l.4-32.07h-.27l-7.85,32.07h-7.46l-7.59-32.07h-.19l.32,32.07h-9.57V5.61h13.34l7.52,30.09H155l7.32-30.09H176.4V52.33Z"/><path class="cls-1" d="M214.65,42.3a16.56,16.56,0,0,1-2.8,5.87,13.26,13.26,0,0,1-4.95,4,16.87,16.87,0,0,1-7.33,1.46,16.39,16.39,0,0,1-7.26-1.46,13,13,0,0,1-4.85-4,16.09,16.09,0,0,1-2.71-5.87,30.4,30.4,0,0,1-.82-7.26V5.61h10.62V34.12a26.6,26.6,0,0,0,.24,3.69,9.37,9.37,0,0,0,.82,2.94,5.28,5.28,0,0,0,1.58,2,5,5,0,0,0,5.15,0,5.3,5.3,0,0,0,1.59-2,9.65,9.65,0,0,0,.82-2.94,26.66,26.66,0,0,0,.23-3.69V5.61h10.56V35A28,28,0,0,1,214.65,42.3Z"/><path class="cls-1" d="M242.4,16.76a8.33,8.33,0,0,0-2.77-2.15,7.58,7.58,0,0,0-3.3-.75,5,5,0,0,0-3.2,1.12,4.43,4.43,0,0,0-1.42,3.7,4.24,4.24,0,0,0,1.45,3.41,24,24,0,0,0,4.29,2.67q1.61.79,3.36,1.89A15.4,15.4,0,0,1,244,29.33a13.39,13.39,0,0,1,2.43,3.8,13.12,13.12,0,0,1,1,5.25,17.19,17.19,0,0,1-1.2,6.65A13.44,13.44,0,0,1,243,49.79a13.65,13.65,0,0,1-4.68,2.84,15.94,15.94,0,0,1-5.49,1A18.2,18.2,0,0,1,225.15,52a18.67,18.67,0,0,1-5.58-3.69L225,40.39a12.23,12.23,0,0,0,3.5,2.54,9.11,9.11,0,0,0,4,1,4.51,4.51,0,0,0,3.24-1.25,4.58,4.58,0,0,0,1.32-3.5,4.55,4.55,0,0,0-1.59-3.66,23,23,0,0,0-4.62-2.87,30.45,30.45,0,0,1-3.59-2.05,13.14,13.14,0,0,1-3-2.7,12.11,12.11,0,0,1-2-3.7,15.61,15.61,0,0,1-.72-5,16.07,16.07,0,0,1,1.28-6.69,13.3,13.3,0,0,1,3.37-4.59,13.86,13.86,0,0,1,4.62-2.64,16,16,0,0,1,5.12-.86A17.92,17.92,0,0,1,242.8,5.6,14.41,14.41,0,0,1,247.88,9Z"/><path class="cls-1" d="M253.49,52.33V5.61h10.63V52.33Z"/><path class="cls-1" d="M296.59,51.77a15.52,15.52,0,0,1-7.92,1.82,15.31,15.31,0,0,1-7.43-1.82,17.11,17.11,0,0,1-5.7-5.08,24.9,24.9,0,0,1-3.7-7.79A35.29,35.29,0,0,1,270.52,29a35.91,35.91,0,0,1,1.32-10,24.48,24.48,0,0,1,3.7-7.79,16.92,16.92,0,0,1,5.7-5,15.62,15.62,0,0,1,7.43-1.78A16.42,16.42,0,0,1,296.49,6a15.45,15.45,0,0,1,5.05,4.2l-5.68,7.65a10,10,0,0,0-2.67-2.51,7,7,0,0,0-3.73-.92,6,6,0,0,0-3.66,1.12,9.19,9.19,0,0,0-2.64,3.07,15.5,15.5,0,0,0-1.62,4.62A29.62,29.62,0,0,0,281,29a29.15,29.15,0,0,0,.53,5.68,15.91,15.91,0,0,0,1.62,4.62,9.17,9.17,0,0,0,2.67,3.1,6.23,6.23,0,0,0,3.7,1.12,6.45,6.45,0,0,0,3.69-1.06,8.45,8.45,0,0,0,2.51-2.51l5.88,7.33A15.78,15.78,0,0,1,296.59,51.77Z"/></svg>