<svg id="Layer_1" data-name="Layer 1" xmlns="http://www.w3.org/2000/svg" viewBox="0 0 411 63"><defs><style>.cls-1{fill:#fbf8ec;}</style></defs><title>runningL</title><path class="cls-1" d="M28.37,52.33,19.92,30.69h-6V52.33H9.36V5.6H20.58A15.76,15.76,0,0,1,25,6.23a10.11,10.11,0,0,1,3.82,2.08,10.32,10.32,0,0,1,2.71,3.83,14.71,14.71,0,0,1,1,5.81,15.24,15.24,0,0,1-.76,5.11,11.28,11.28,0,0,1-2,3.6,9,9,0,0,1-2.7,2.24,8.67,8.67,0,0,1-2.94,1l9.11,22.44ZM28.1,18.18A11,11,0,0,0,27.41,14a6.92,6.92,0,0,0-1.85-2.66A6.57,6.57,0,0,0,22.92,10a12,12,0,0,0-3.07-.4H13.92v17.5h6.13A7.62,7.62,0,0,0,26,24.72,9.3,9.3,0,0,0,28.1,18.18Z"/><path class="cls-1" d="M66.22,42.8A16.48,16.48,0,0,1,64,48.37a10.85,10.85,0,0,1-4.13,3.73,13.5,13.5,0,0,1-6.33,1.36,13.36,13.36,0,0,1-6.31-1.36,10.88,10.88,0,0,1-4.09-3.73,16.05,16.05,0,0,1-2.21-5.57A33.85,33.85,0,0,1,40.25,36V5.6h4.62V35.37a35.63,35.63,0,0,0,.36,5.08,14.74,14.74,0,0,0,1.32,4.46A8.16,8.16,0,0,0,49.19,48a7.47,7.47,0,0,0,4.39,1.19A7.52,7.52,0,0,0,57.94,48a8.06,8.06,0,0,0,2.67-3.13,14.74,14.74,0,0,0,1.32-4.42,35.57,35.57,0,0,0,.36-5.12V5.6h4.62V36A32.43,32.43,0,0,1,66.22,42.8Z"/><path class="cls-1" d="M97.88,52.33,81.63,13.46h-.2V52.33H77.08V5.6h5.74L99,44.48h.2V5.6h4.22V52.33Z"/><path class="cls-1" d="M134.91,52.33,118.66,13.46h-.2V52.33H114.1V5.6h5.74L136,44.48h.2V5.6h4.23V52.33Z"/><path class="cls-1" d="M151.13,52.33V5.6h4.62V52.33Z"/><path class="cls-1" d="M187.25,52.33,171,13.46h-.2V52.33h-4.35V5.6h5.74l16.17,38.88h.2V5.6h4.22V52.33Z"/><path class="cls-1" d="M224.42,52.17a18.44,18.44,0,0,1-6.44,1,14.25,14.25,0,0,1-7-1.71,15,15,0,0,1-5.22-4.89,24.54,24.54,0,0,1-3.23-7.65,41.41,41.41,0,0,1-1.12-10,40.88,40.88,0,0,1,1.09-9.7,26,26,0,0,1,3.13-7.75,15.77,15.77,0,0,1,5-5.12,12.49,12.49,0,0,1,6.73-1.85,14,14,0,0,1,6.27,1.39,11.76,11.76,0,0,1,4.75,4.36l-3,3a10.55,10.55,0,0,0-3.53-3.46,8.53,8.53,0,0,0-4.32-1.16,8,8,0,0,0-5,1.62A12.71,12.71,0,0,0,209,14.65a23.58,23.58,0,0,0-2.11,6.43,42.22,42.22,0,0,0-.69,7.82A42.24,42.24,0,0,0,207,37a21.8,21.8,0,0,0,2.21,6.36,12.06,12.06,0,0,0,3.7,4.2A8.81,8.81,0,0,0,218,49a12.42,12.42,0,0,0,3.8-.53,7.51,7.51,0,0,0,2.8-1.51V31.15h-6.66v-4h11.15V49.44A14.47,14.47,0,0,1,224.42,52.17Z"/><path class="cls-1" d="M257.58,9.56V52.33H253V9.56h-9v-4h22.58v4Z"/><path class="cls-1" d="M291,52.33l-8.45-21.64h-6V52.33H272V5.6h11.22a15.76,15.76,0,0,1,4.46.63,10.11,10.11,0,0,1,3.82,2.08,10.32,10.32,0,0,1,2.71,3.83,14.71,14.71,0,0,1,1,5.81,15.24,15.24,0,0,1-.76,5.11,11.28,11.28,0,0,1-2,3.6,9,9,0,0,1-2.7,2.24,8.67,8.67,0,0,1-2.94,1l9.11,22.44Zm-.27-34.15A11,11,0,0,0,290,14a6.92,6.92,0,0,0-1.85-2.66A6.57,6.57,0,0,0,285.53,10a12,12,0,0,0-3.07-.4h-5.93v17.5h6.13a7.62,7.62,0,0,0,5.91-2.34A9.3,9.3,0,0,0,290.71,18.18Z"/><path class="cls-1" d="M323.38,52.33l-2.83-11.68H306.16l-3,11.68H298.5L310.38,5.6h6.27L328.2,52.33ZM313.55,9.76h-.26L306.82,37h13.07Z"/><path class="cls-1" d="M334,52.33V5.6h4.62V52.33Z"/><path class="cls-1" d="M349.32,52.33V5.6h4.62V48h13.33v4.29Z"/><path class="cls-1" d="M393.15,40.39a15.23,15.23,0,0,1-.93,5.51A12,12,0,0,1,389.68,50a10.94,10.94,0,0,1-3.79,2.57,12,12,0,0,1-4.62.9,14.37,14.37,0,0,1-6.57-1.52,13.44,13.44,0,0,1-4.85-4l2.84-3.23A10.36,10.36,0,0,0,376.51,48a10.2,10.2,0,0,0,4.69,1.19A7.07,7.07,0,0,0,386.51,47a8.92,8.92,0,0,0,2.15-6.41,8.69,8.69,0,0,0-.66-3.49,9.5,9.5,0,0,0-1.78-2.71,14.17,14.17,0,0,0-2.55-2.11,29,29,0,0,0-3-1.72A29.43,29.43,0,0,1,377,28.47a14.78,14.78,0,0,1-3-2.67A12.19,12.19,0,0,1,372,22.2a13.51,13.51,0,0,1-.79-4.85,14.8,14.8,0,0,1,1-5.64,11.64,11.64,0,0,1,2.67-4,11.15,11.15,0,0,1,3.8-2.41,12.63,12.63,0,0,1,4.42-.79,14.5,14.5,0,0,1,5.71,1.09A10.3,10.3,0,0,1,393,9l-2.83,3.24a7.8,7.8,0,0,0-3.11-2.74,9.11,9.11,0,0,0-3.89-.83,7.94,7.94,0,0,0-2.74.5A6.56,6.56,0,0,0,378,10.69a7.92,7.92,0,0,0-1.71,2.7,10.47,10.47,0,0,0-.66,3.9,9,9,0,0,0,.59,3.43,8.43,8.43,0,0,0,1.62,2.57,11.44,11.44,0,0,0,2.37,2,30.82,30.82,0,0,0,2.81,1.59A35.88,35.88,0,0,1,386.71,29,17.38,17.38,0,0,1,390,31.74a12.18,12.18,0,0,1,2.31,3.7A13.15,13.15,0,0,1,393.15,40.39Z"/></svg>