<svg id="Layer_1" data-name="Layer 1" xmlns="http://www.w3.org/2000/svg" viewBox="0 0 411 63"><defs><style>.cls-1{fill:#fbf8ec;}</style></defs><title>seattleL</title><path class="cls-1" d="M29.62,40.39a15.45,15.45,0,0,1-.92,5.51A12.11,12.11,0,0,1,26.16,50a11,11,0,0,1-3.8,2.57,12,12,0,0,1-4.62.9,14.36,14.36,0,0,1-6.56-1.52,13.36,13.36,0,0,1-4.85-4l2.83-3.23A10.39,10.39,0,0,0,13,48a10.17,10.17,0,0,0,4.69,1.19A7.07,7.07,0,0,0,23,47a8.92,8.92,0,0,0,2.15-6.41,8.86,8.86,0,0,0-.66-3.49,9.53,9.53,0,0,0-1.79-2.71,14.1,14.1,0,0,0-2.54-2.11,29,29,0,0,0-3-1.72,28,28,0,0,1-3.63-2.08,14,14,0,0,1-3-2.67,12.19,12.19,0,0,1-2.08-3.6,13.51,13.51,0,0,1-.79-4.85,14.8,14.8,0,0,1,1-5.64,11.5,11.5,0,0,1,2.67-4,10.94,10.94,0,0,1,3.79-2.4,12.45,12.45,0,0,1,4.42-.8,14.43,14.43,0,0,1,5.71,1.09A10.26,10.26,0,0,1,29.49,9l-2.84,3.24a7.71,7.71,0,0,0-3.1-2.74,9.17,9.17,0,0,0-3.89-.83,7.9,7.9,0,0,0-2.74.5,6.48,6.48,0,0,0-2.41,1.55,7.79,7.79,0,0,0-1.72,2.7,10.47,10.47,0,0,0-.66,3.9,9,9,0,0,0,.6,3.43,8.4,8.4,0,0,0,1.61,2.57,11.77,11.77,0,0,0,2.38,2,32.05,32.05,0,0,0,2.8,1.59A35,35,0,0,1,23.19,29a17.38,17.38,0,0,1,3.27,2.77,12.58,12.58,0,0,1,2.31,3.7A13.16,13.16,0,0,1,29.62,40.39Z"/><path class="cls-1" d="M38,52.33V5.61H56.82V9.7H42.49V26.07h13.4v4H42.49V48.17h15v4.16Z"/><path class="cls-1" d="M85.59,52.33,82.75,40.65H68.36l-3,11.68H60.71L72.59,5.61h6.27L90.41,52.33ZM75.76,9.76h-.27L69,37H82.09Z"/><path class="cls-1" d="M103.21,9.57V52.33H98.66V9.57h-9v-4h22.57v4Z"/><path class="cls-1" d="M125.78,9.57V52.33h-4.55V9.57h-9v-4h22.58v4Z"/><path class="cls-1" d="M140.17,52.33V5.61h4.62V48h13.33v4.29Z"/><path class="cls-1" d="M163.73,52.33V5.61h18.81V9.7H168.22V26.07h13.4v4h-13.4V48.17h15v4.16Z"/><path class="cls-1" d="M196.21,49.5a3.25,3.25,0,0,1-.9,2.37,2.92,2.92,0,0,1-2.21.92,2.81,2.81,0,0,1-2.17-.92,3.31,3.31,0,0,1-.86-2.37,3.38,3.38,0,0,1,.86-2.31,2.74,2.74,0,0,1,2.17-1,2.85,2.85,0,0,1,2.21,1A3.33,3.33,0,0,1,196.21,49.5Z"/><path class="cls-1" d="M226,51.81a12.64,12.64,0,0,1-6.41,1.65,12.37,12.37,0,0,1-6.79-1.89,16,16,0,0,1-5-5.14,26.15,26.15,0,0,1-3.13-7.76A40.82,40.82,0,0,1,203.6,29a41.17,41.17,0,0,1,1.09-9.77,25.48,25.48,0,0,1,3.16-7.75,16,16,0,0,1,5.05-5.12,12.51,12.51,0,0,1,6.73-1.85,14.13,14.13,0,0,1,6.18,1.39,11.77,11.77,0,0,1,4.78,4.36l-3,3a10.26,10.26,0,0,0-3.53-3.43,8.59,8.59,0,0,0-4.26-1.12,8.32,8.32,0,0,0-5.05,1.58,12.26,12.26,0,0,0-3.56,4.36,23.53,23.53,0,0,0-2.11,6.47,42.71,42.71,0,0,0-.69,7.85,40.51,40.51,0,0,0,.72,7.82,24.36,24.36,0,0,0,2.15,6.44,12.41,12.41,0,0,0,3.56,4.38,8.14,8.14,0,0,0,5.05,1.62,7.77,7.77,0,0,0,4.55-1.42,11.14,11.14,0,0,0,3.37-3.73l2.9,3A13.12,13.12,0,0,1,226,51.81Z"/><path class="cls-1" d="M265.37,28.9a44.17,44.17,0,0,1-1.05,10,26.36,26.36,0,0,1-3,7.76,15.06,15.06,0,0,1-4.82,5A11.89,11.89,0,0,1,250,53.46a12.11,12.11,0,0,1-6.51-1.79,15.21,15.21,0,0,1-4.88-5,25.57,25.57,0,0,1-3.07-7.76,44.17,44.17,0,0,1-1-10,45.16,45.16,0,0,1,1-9.93,25.08,25.08,0,0,1,3-7.72,14.94,14.94,0,0,1,4.85-5A12.34,12.34,0,0,1,250,4.48a11.89,11.89,0,0,1,6.46,1.79,15.05,15.05,0,0,1,4.82,5,25.88,25.88,0,0,1,3,7.72A43.91,43.91,0,0,1,265.37,28.9Zm-4.82,0A46.17,46.17,0,0,0,259.9,21a23.72,23.72,0,0,0-2-6.4,12.64,12.64,0,0,0-3.33-4.29A7.12,7.12,0,0,0,250,8.71a7.43,7.43,0,0,0-4.72,1.58,12.07,12.07,0,0,0-3.34,4.29,24.47,24.47,0,0,0-2,6.4,45.16,45.16,0,0,0-.66,7.92,45,45,0,0,0,.66,7.92,25.39,25.39,0,0,0,2,6.47,11.92,11.92,0,0,0,3.34,4.36A7.43,7.43,0,0,0,250,49.23a7.25,7.25,0,0,0,4.62-1.58,12.28,12.28,0,0,0,3.3-4.36,25.79,25.79,0,0,0,2-6.47A46,46,0,0,0,260.55,28.9Z"/><path class="cls-1" d="M306,52.33V11.74h-.2L294.31,52.33H290L278.64,11.74h-.2V52.33h-4.36V5.61H281L292.1,45.07h.27l11-39.46h7.13V52.33Z"/></svg>