<svg xmlns="http://www.w3.org/2000/svg" width="366.344" height="362.469" viewBox="0 0 366.344 362.469">
  <defs>
    <style>
      .cls-1 {
        fill: none;
        stroke: #fff;
        stroke-width: 3px;
      }

      .cls-1, .cls-2 {
        fill-rule: evenodd;
      }

      .cls-2 {
        fill: #fff;
      }
    </style>
  </defs>
  <path id="Ellipse_3_copy_12" data-name="Ellipse 3 copy 12" class="cls-1" d="M870.558,345.268a176.453,176.453,0,0,1-320.433-36.194" transform="translate(-536.562 -71.406)"/>
  <path id="_5-STAR_RATED_WEIGHT_LOSS_SURGERY_PROGRAM_IN_WA." data-name="5-STAR RATED WEIGHT LOSS SURGERY PROGRAM IN WA." class="cls-2" d="M556.766,288.511c-0.751-3.786-3.367-5.975-6.985-5.256-3.159.627-4.793,3.508-4.085,7.078a5.06,5.06,0,0,0,.889,2.2l-3.087.613-1.412-7.115-2.967.589,2,10.058,9.816-1.949,0.087-.318a6.376,6.376,0,0,1-2.333-3.8c-0.407-2.05.154-3.515,1.843-3.851a2.623,2.623,0,0,1,3.174,2.354,3.76,3.76,0,0,1-1.389,3.986l2.07,2.6A7.06,7.06,0,0,0,556.766,288.511Zm-6.829-7.407-0.785-6.1-2.927.377,0.785,6.1Zm3.992-14.233c-0.206-3.265-2.053-5.588-5.146-5.393-2.872.181-4.045,1.906-5.113,4.906l-0.314.883c-0.545,1.513-.922,2.177-1.953,2.242a1.5,1.5,0,0,1-1.577-1.552,2.344,2.344,0,0,1,1.334-2.3l-1.887-2.567a5.087,5.087,0,0,0-2.442,5.058c0.194,3.069,2.281,4.909,4.859,4.746,2.8-.176,4.02-1.9,4.92-4.45l0.314-.883c0.588-1.614.946-2.573,2.125-2.648,0.982-.061,1.751.8,1.841,2.226a3.749,3.749,0,0,1-1.873,3.519l1.8,2.7A6.615,6.615,0,0,0,553.929,266.871Zm-0.54-11.687,0.07-3.445-13.7-.276,0.1-4.773-3.026-.061-0.263,12.989,3.026,0.062,0.1-4.773ZM553.446,248l0.338-3.3-2.156-1.16,0.659-6.46,2.347-.7,0.367-3.6-17.563,5.9-0.03.293Zm-4.564-5.905-2.413-1.31c-1.1-.582-2.789-1.249-2.86-1.281,0.176-.032,1.914-0.348,3.063-0.7l2.628-.8Zm6.537-11.538,0.685-3.375-5.689-1.154,0.435-2.145,6.364-2.173L558,217.856l-6.953,2.479a4.924,4.924,0,0,0-4.147-4.18c-3.833-.778-5.957,1.653-6.637,5l-1.233,6.075Zm-7.849-5.106-4.893-.993,0.528-2.6c0.328-1.615,1.156-2.6,2.988-2.23,1.808,0.367,2.243,1.56,1.906,3.223Zm12.585-15.277,1.116-3.259-5.493-1.881,0.709-2.072,6.594-1.33,1.275-3.724-7.217,1.559a4.925,4.925,0,0,0-3.572-4.682c-3.7-1.268-6.123.867-7.231,4.1l-2.008,5.865Zm-7.124-6.081-4.725-1.618,0.861-2.514c0.535-1.559,1.483-2.431,3.252-1.825,1.746,0.6,2.023,1.837,1.473,3.443Zm11.727-7.267,1.375-3.023-1.673-1.788,2.69-5.911,2.447,0.087,1.5-3.292-18.529-.026-0.122.269Zm-2.439-7.055-1.868-2.013c-0.858-.9-2.244-2.075-2.3-2.128,0.177,0.026,1.925.282,3.127,0.315l2.744,0.086Zm10.675-10.117,1.671-3.012-11.983-6.651L565,165.819l-2.646-1.469-6.3,11.36,2.646,1.468,2.317-4.173Zm5.358-9.338,6.408-9.443-2.5-1.7-4.475,6.593-3.216-2.182,3.771-5.556-2.442-1.657-3.771,5.556-3.174-2.155,4.281-6.308-2.5-1.7-6.215,9.158Zm8.294-12.017,3.289-3.954c3.305-3.973,3-8.96-.8-12.123s-8.777-2.531-12.066,1.423l-3.289,3.953Zm-0.124-4.584-8.21-6.83,0.976-1.173c2.376-2.856,5.164-2.745,7.567-.747s3.019,4.72.643,7.577Zm18.692-15.3,0.247-.24-2.809-8.513c-0.334-.944-0.99-2.363-1.024-2.433a26.187,26.187,0,0,0,2.383,1.115l8.317,3.171,0.247-.24-7.385-16.34-2.4,2.329,2.945,6.5c0.487,1.1,1.419,2.7,1.47,2.787a21.729,21.729,0,0,0-2.847-1.452l-7.125-2.648-0.248.239,2.465,7.169a19.432,19.432,0,0,0,1.364,2.89c-0.155-.089-1.688-1.034-2.741-1.555l-6.422-3.124-2.613,2.534Zm13.538-12.761,9.04-6.963-1.846-2.4-6.312,4.862-2.371-3.078,5.318-4.1-1.8-2.338-5.319,4.1-2.341-3.039,6.039-4.652-1.845-2.4-8.767,6.753Zm11.785-8.762,2.863-1.914-9.3-13.9-2.863,1.914Zm13.293-7.931a10.869,10.869,0,0,0,4.645-4.841L644.81,97.6l-6.262,3.521,1.483,2.638,3.517-1.977,1.326,2.359a8.252,8.252,0,0,1-2.551,2.139,5.208,5.208,0,0,1-7.526-2.091c-1.531-2.724-.961-5.726,1.677-7.209a4.632,4.632,0,0,1,4.007-.5l0.9-3.161c-1.973-.7-4.051-0.376-6.431.962a8.224,8.224,0,0,0-3.247,11.647C634.132,110.239,639.069,111.641,643.83,108.964Zm8.418-4.75,3.168-1.352-2.579-6.041,6.585-2.81L662,100.052l3.168-1.352L658.6,83.314l-3.168,1.352,2.781,6.517-6.585,2.81-2.781-6.517-3.168,1.352Zm19.878-7.808,3.284-1.035L671.291,82.3l4.551-1.435-0.91-2.886-12.387,3.905,0.91,2.886,4.551-1.435Zm15.591-4.329,10.828-2.033-0.559-2.973-7.443,1.4-2.528-13.461-3.383.635Zm20.68-2.888a8.587,8.587,0,1,0-9.392-7.781A8.473,8.473,0,0,0,708.4,89.189Zm-0.274-3.063c-3.039.272-5.31-1.921-5.589-5.033s1.567-5.674,4.606-5.946,5.311,1.921,5.589,5.033S711.162,85.853,708.123,86.125Zm16.529,2.425c3.271,0.036,5.724-1.635,5.758-4.734,0.031-2.878-1.6-4.175-4.516-5.461l-0.857-.378c-1.468-.655-2.1-1.081-2.092-2.114a1.5,1.5,0,0,1,1.664-1.458,2.345,2.345,0,0,1,2.2,1.5l2.7-1.693a5.086,5.086,0,0,0-4.864-2.808c-3.075-.033-5.064,1.913-5.092,4.5-0.03,2.8,1.6,4.15,4.076,5.235l0.856,0.378c1.567,0.706,2.5,1.134,2.484,2.315-0.01.984-.928,1.687-2.355,1.672a3.747,3.747,0,0,1-3.371-2.128l-2.822,1.593A6.615,6.615,0,0,0,724.652,88.55Zm13.157,0.68c3.258,0.3,5.84-1.164,6.126-4.25,0.265-2.866-1.258-4.292-4.057-5.811l-0.824-.447c-1.41-.773-2.009-1.249-1.913-2.278a1.5,1.5,0,0,1,1.777-1.318,2.346,2.346,0,0,1,2.069,1.674l2.829-1.467a5.088,5.088,0,0,0-4.621-3.2c-3.062-.284-5.2,1.494-5.442,4.067-0.258,2.793,1.26,4.267,3.637,5.55l0.823,0.447c1.5,0.831,2.4,1.334,2.288,2.51-0.091.98-1.063,1.606-2.484,1.475a3.75,3.75,0,0,1-3.188-2.4l-2.942,1.358A6.615,6.615,0,0,0,737.809,89.23Zm18.4,2.781c3.2,0.675,5.933-.482,6.573-3.514,0.594-2.815-.754-4.407-3.358-6.239l-0.766-.539c-1.312-.93-1.852-1.472-1.638-2.482a1.5,1.5,0,0,1,1.917-1.1,2.345,2.345,0,0,1,1.861,1.9l2.978-1.131a5.085,5.085,0,0,0-4.219-3.706c-3.008-.635-5.34.884-5.873,3.41-0.579,2.743.759,4.383,2.971,5.931l0.766,0.539c1.4,1,2.226,1.6,1.982,2.756-0.2.963-1.241,1.472-2.637,1.178a3.747,3.747,0,0,1-2.889-2.746L750.8,87.275A6.613,6.613,0,0,0,756.205,92.012ZM770.8,95.8c3.642,1.129,7.043.045,8.3-4l3.161-10.2-3.29-1.02-3.1,10.01c-0.721,2.326-1.984,2.913-4.146,2.243-2.186-.677-2.919-1.884-2.2-4.21l3.1-10.011-3.29-1.02-3.161,10.2C764.919,91.841,767.111,94.658,770.8,95.8Zm9.716,3,3.173,1.341,2.26-5.349,2.017,0.852,0.867,6.67,3.626,1.532-1.051-7.309a4.924,4.924,0,0,0,4.92-3.236c1.523-3.6-.438-6.168-3.588-7.5l-5.711-2.413Zm6.563-6.682,1.945-4.6,2.447,1.034c1.519,0.642,2.322,1.649,1.594,3.371-0.719,1.7-1.974,1.89-3.538,1.229Zm14.9,17.027a10.879,10.879,0,0,0,6.566,1.376l3.588-6.562-6.3-3.446-1.451,2.655,3.539,1.935-1.3,2.375a8.274,8.274,0,0,1-3.166-1.03,5.209,5.209,0,0,1-2.212-7.49c1.5-2.741,4.347-3.847,7-2.4A4.633,4.633,0,0,1,810.8,99.7l3.16-.908c-0.453-2.042-1.826-3.634-4.222-4.944a8.222,8.222,0,0,0-11.6,3.416C795.765,101.6,797.191,106.527,801.982,109.147Zm8.455,4.668,9.417,6.444,1.708-2.5-6.576-4.5,2.194-3.207,5.541,3.791,1.666-2.435-5.54-3.791,2.166-3.166,6.292,4.305,1.708-2.5-9.133-6.249Zm12,8.384,2.649,2.2,3.71-4.466,1.685,1.4-1.1,6.636,3.028,2.516,1.107-7.3a4.923,4.923,0,0,0,5.646-1.675c2.5-3.009,1.364-6.031-1.266-8.216l-4.769-3.962Zm8.215-4.5,3.191-3.842,2.044,1.7c1.268,1.054,1.746,2.25.551,3.688-1.18,1.42-2.437,1.239-3.743.154Zm6.267,17.224,2.454,2.45,4.5-4.507,11.143-3.5-2.5-2.5-4.816,1.621c-1.3.435-3.146,1.306-3.146,1.306s0.868-1.913,1.267-3.183l1.544-4.887-2.731-2.728-3.383,11.6ZM848.2,147.041l2.108,2.723,4.338-3.357,1.49,1.926c2.078,2.684,5.171,3.868,8.264,1.474s2.719-5.65.627-8.354l-3.6-4.65Zm8.839-2.486,4.105-3.176,1.43,1.848c1.008,1.3,1.137,2.635-.342,3.779-1.459,1.129-2.724.74-3.763-.6Zm0.079,14.249,1.846,2.906,4.9-3.111,1.173,1.847-3.08,5.976,2.11,3.322,3.292-6.606a4.921,4.921,0,0,0,5.884.137c3.3-2.1,3.147-5.319,1.315-8.205l-3.322-5.231Zm9.195-1.761,4.214-2.676,1.424,2.242c0.883,1.391.97,2.675-.607,3.677-1.557.989-2.7,0.431-3.607-1ZM868.7,179.2a8.589,8.589,0,1,0,3.866-11.57A8.475,8.475,0,0,0,868.7,179.2Zm2.758-1.362c-1.351-2.736-.126-5.647,2.677-7.03s5.858-.587,7.208,2.149,0.126,5.646-2.676,7.03S872.805,180.569,871.454,177.833Zm5,19.823a10.874,10.874,0,0,0,3.991,5.389l7.039-2.517-2.418-6.761-2.848,1.018,1.358,3.8-2.547.911a8.233,8.233,0,0,1-1.68-2.872,5.207,5.207,0,0,1,3.324-7.065c2.94-1.051,5.8.014,6.821,2.863a4.629,4.629,0,0,1-.177,4.032l2.963,1.422c1.018-1.827,1.05-3.927.131-6.5a8.219,8.219,0,0,0-10.931-5.153C876.823,187.886,874.613,192.515,876.451,197.656Zm3.235,9.133,0.82,3.344,5.639-1.382,0.521,2.126-4.83,4.679,0.938,3.823,5.232-5.209a4.923,4.923,0,0,0,5.533,2.012c3.8-.932,4.684-4.036,3.869-7.357l-1.476-6.021Zm9.278,1.27,4.849-1.189,0.633,2.58c0.393,1.6.065,2.846-1.751,3.291-1.792.44-2.694-.453-3.1-2.1ZM883.03,220.5l0.478,3.287,2.375,0.6,0.935,6.428-2.105,1.251,0.521,3.579,15.6-10-0.042-.292Zm5.868,4.616,2.66,0.682c1.212,0.3,3.011.531,3.088,0.545-0.163.074-1.772,0.805-2.8,1.427l-2.355,1.412Zm-3.419,12.789,0.1,3.294,6.268-.2c1.131-.036,2.922-0.216,2.922-0.216a29.515,29.515,0,0,0-2.3,1.87l-3.607,3.437,0.011,0.319,3.817,3.2a29.6,29.6,0,0,0,2.417,1.719s-1.8-.066-2.929-0.03l-6.269.2,0.106,3.319,16.888-.538-0.009-.295-9.3-7.824,8.784-8.523-0.008-.271Zm-0.107,25.918-0.3,3.43,16.662,1.44,0.3-3.43Zm-2.846,20.2-0.055.34,16.656,2.712,0.517-3.181-6.919-1.126c-1.142-.186-3.047-0.272-3.047-0.272a23.815,23.815,0,0,0,2.575-1.575l9.174-7.055,0.055-.34-16.656-2.711L884.308,274l6.92,1.127a29.313,29.313,0,0,0,3.05.247,24.823,24.823,0,0,0-2.578,1.6ZM879.008,297.8l-0.108.327,6.423,6.258c0.731,0.684,1.969,1.64,2.031,1.687-0.155,0-1.657-.006-2.629.111l-8.845,1.025-0.109.327,14.1,11.092,1.055-3.175-5.612-4.407c-0.942-.754-2.507-1.741-2.592-1.8a21.788,21.788,0,0,0,3.2-.026l7.546-.939,0.109-.327-5.5-5.224a19.424,19.424,0,0,0-2.546-1.935c0.179,0.007,1.976.138,3.151,0.114l7.142-.192,1.149-3.455Zm-4.636,14.056L873,314.88l1.673,1.788-2.69,5.911-2.447-.086-1.5,3.291,18.529,0.027,0.122-.269Zm2.438,7.056,1.868,2.012c0.859,0.9,2.245,2.076,2.3,2.129-0.177-.027-1.926-0.282-3.127-0.315l-2.745-.087Zm-10.841,10.1a2.078,2.078,0,1,0,2.833-.844A2.053,2.053,0,0,0,865.969,329.016Z" transform="translate(-536.562 -71.406)"/>
</svg>
