<svg xmlns="http://www.w3.org/2000/svg" width="363.313" height="368.718" viewBox="0 0 363.313 368.718">
  <defs>
    <style>
      .cls-1 {
        fill: none;
        stroke: #fff;
        stroke-width: 3px;
      }

      .cls-1, .cls-2 {
        fill-rule: evenodd;
      }

      .cls-2 {
        fill: #fff;
      }
    </style>
  </defs>
  <path id="Ellipse_3_copy_13" data-name="Ellipse 3 copy 13" class="cls-1" d="M400.845,144.867A176.4,176.4,0,1,1,85.655,234.6" transform="translate(-75.781 -61.844)"/>
  <path id="THE_ONLY_REPEAT" data-name="THE ONLY REPEAT" class="cls-2" d="M105.6,218.981l1.529-5.7-22.686-6.085,2.12-7.9-5.01-1.344-5.769,21.5,5.01,1.344,2.12-7.9Zm5.388-18.578,2.529-5.335-10.175-4.822,5.257-11.09,10.174,4.823,2.529-5.335L95.388,166.361,92.859,171.7l10.975,5.2-5.256,11.09-10.975-5.2-2.529,5.335Zm13.148-27.992,10.5-16.513-4.377-2.783-7.329,11.531-5.623-3.574,6.175-9.715-4.271-2.715-6.175,9.716-5.552-3.529,7.012-11.032-4.377-2.783L99.935,157.03Zm31.1-38.752a14.719,14.719,0,1,0-20.9-.617A14.523,14.523,0,0,0,155.231,133.659Zm-3.6-3.852c-3.821,3.571-9.2,3-12.86-.912s-3.862-9.321-.041-12.892,9.2-3,12.859.913S155.453,126.236,151.632,129.807ZM190.5,108.132l0.5-.307L175.926,83.136l-4.714,2.878,6.262,10.257c1.033,1.692,3.048,4.265,3.048,4.265a40.743,40.743,0,0,0-4.922-1.589L156.18,94.9l-0.5.308,15.074,24.688,4.714-2.878L169.2,106.756a50.691,50.691,0,0,0-3.084-4.243,42.46,42.46,0,0,0,4.958,1.567Zm6.649-3.369,17.573-6.927-1.9-4.825-12.082,4.762-8.612-21.85-5.492,2.165Zm26.093-9.105,5.776-1.411-2.592-10.609,4.8-19.446-5.9,1.441-1.917,8.5c-0.524,2.3-.891,5.773-0.891,5.773s-2.029-2.977-3.533-4.693L213.2,68.594l-6.431,1.571,13.98,15.294Zm29.645-5.129,5.905-.01-0.017-9.954,3.754-.006,5.837,9.944,6.749-.011-6.556-10.829a8.44,8.44,0,0,0,5.595-8.4c-0.011-6.706-4.824-9.44-10.687-9.43l-10.629.018Zm5.879-14.941-0.014-8.562,4.555-.008c2.826,0,4.768,1.046,4.774,4.252,0,3.163-1.849,4.305-4.759,4.31Zm21.5,15.518,19.308,3.18,0.843-5.118-13.482-2.221,1.083-6.575,11.36,1.871,0.823-4.993-11.36-1.871,1.069-6.492,12.9,2.125,0.843-5.118-18.726-3.084Zm25.459,4.75,5.592,1.9,3.024-8.906,3.953,1.342c5.512,1.871,11.054.635,13.21-5.715s-1.462-10.651-7.013-12.536L314.937,68.7ZM316,83.936l2.861-8.427,3.795,1.288c2.675,0.909,4.119,2.69,3.089,5.726-1.017,3-3.2,3.637-5.951,2.7Zm14.346,20.9,17.243,9.251,2.452-4.57L338,103.053l3.151-5.871,10.144,5.443,2.393-4.459-10.145-5.443,3.111-5.8,11.519,6.181,2.453-4.571L343.9,79.564Zm20.949,11.356,4.48,3.512,3.655-2.065,8.762,6.868-1.133,4.042,4.879,3.824,7.525-30.858-0.4-.312Zm12.738-1.213,4.107-2.3c1.853-1.066,4.364-2.9,4.475-2.975-0.115.284-1.247,3.094-1.787,5.082l-1.252,4.537Zm12.8,22.836,4.069,4.278,17.02-16.186,5.638,5.928,3.759-3.574-15.344-16.135-3.758,3.575,5.637,5.928Z" transform="translate(-75.781 -61.844)"/>
</svg>
