<svg xmlns="http://www.w3.org/2000/svg" viewBox="0 0 752.99 99.2"><defs><style>.cls-1{fill:#fff;}</style></defs><title>musthave</title><g id="Layer_2" data-name="Layer 2"><g id="Layer_1-2" data-name="Layer 1"><path class="cls-1" d="M0,2.4H26.27L50.8,69.47h.4L75.47,2.4h26.4V96.8H85.2V20.93h-.27L56.27,96.8H44.53L16.27,20.93H16V96.8H0Z"/><path class="cls-1" d="M195,62.13a38.73,38.73,0,0,1-2.94,15.4,34.41,34.41,0,0,1-8,11.67,35.18,35.18,0,0,1-12,7.4,44.95,44.95,0,0,1-30.13,0,35.88,35.88,0,0,1-12.07-7.4,33.31,33.31,0,0,1-8-11.67A39.61,39.61,0,0,1,119,62.13V2.4h16.8V61.47a32.26,32.26,0,0,0,1.06,8.2,20,20,0,0,0,3.54,7.26,18.09,18.09,0,0,0,6.53,5.2,26.33,26.33,0,0,0,20.13,0,18.22,18.22,0,0,0,6.54-5.2,20.13,20.13,0,0,0,3.53-7.26,32.27,32.27,0,0,0,1.07-8.2V2.4H195Z"/><path class="cls-1" d="M258.57,22.13a20.5,20.5,0,0,0-7.53-5.8,22.56,22.56,0,0,0-9.8-2.33,24.57,24.57,0,0,0-5.87.73A18,18,0,0,0,230,17a12.52,12.52,0,0,0-3.93,4,11,11,0,0,0-1.54,5.93,10.58,10.58,0,0,0,1.34,5.47,12.13,12.13,0,0,0,3.66,3.87,25.39,25.39,0,0,0,5.67,2.8c2.22.8,4.67,1.6,7.33,2.4q4.53,1.47,9.4,3.33a36.84,36.84,0,0,1,8.94,4.93,24.5,24.5,0,0,1,6.66,7.74,23.5,23.5,0,0,1,2.6,11.6,29.53,29.53,0,0,1-2.8,13.26,27.19,27.19,0,0,1-7.46,9.4A31.84,31.84,0,0,1,249,97.33a45.83,45.83,0,0,1-13.2,1.87,49.51,49.51,0,0,1-18-3.4,34.84,34.84,0,0,1-14.4-10.07l12-11.2a24,24,0,0,0,9.27,7.6,26.07,26.07,0,0,0,11.4,2.8,25.75,25.75,0,0,0,6-.73,15.92,15.92,0,0,0,5.53-2.47,13.69,13.69,0,0,0,4-4.33,12.57,12.57,0,0,0,1.54-6.47,10.53,10.53,0,0,0-1.74-6.2,15.51,15.51,0,0,0-4.66-4.26,33.65,33.65,0,0,0-6.94-3.14l-8.4-2.8a79.92,79.92,0,0,1-8.53-3.2,28,28,0,0,1-7.67-4.93,23.81,23.81,0,0,1-5.53-7.53,25.83,25.83,0,0,1-2.13-11.14,24.41,24.41,0,0,1,3-12.4,26.66,26.66,0,0,1,7.86-8.6,35.23,35.23,0,0,1,11.07-5.06A48.34,48.34,0,0,1,242,0a45.1,45.1,0,0,1,14.6,2.53,35.89,35.89,0,0,1,12.87,7.6Z"/><path class="cls-1" d="M304.42,17.07H275.49V2.4h74.67V17.07H321.22V96.8h-16.8Z"/><path class="cls-1" d="M391.76,2.4h16.8V40.53h44.13V2.4h16.8V96.8h-16.8V54.93H408.56V96.8h-16.8Z"/><path class="cls-1" d="M517.32,2.4h14.53l40.67,94.4h-19.2l-8.8-21.6H503.58l-8.53,21.6h-18.8Zm21.33,58.4L524.12,22.4l-14.8,38.4Z"/><path class="cls-1" d="M559.29,2.4h18.8l26,72.67h.53L630.89,2.4H649L611.15,96.8H596.62Z"/><path class="cls-1" d="M655.74,2.4h62.53V17.07H672.54v24h43.33V55.2H672.54V81.87h48.13V96.8H655.74Z"/><path class="cls-1" d="M731.66,42.4a9.89,9.89,0,0,1,3.13-7.33A10.37,10.37,0,0,1,742.33,32a10.71,10.71,0,0,1,7.46,2.93,9.38,9.38,0,0,1,3.2,7.2,9.91,9.91,0,0,1-3.13,7.34,10.78,10.78,0,0,1-11.6,2.26,11.51,11.51,0,0,1-3.4-2.13,9.71,9.71,0,0,1-2.33-3.2A9.34,9.34,0,0,1,731.66,42.4Zm0,45.07a9.91,9.91,0,0,1,3.13-7.34,10.4,10.4,0,0,1,7.54-3.06A10.71,10.71,0,0,1,749.79,80a9.38,9.38,0,0,1,3.2,7.2,9.87,9.87,0,0,1-3.13,7.33,10.36,10.36,0,0,1-7.53,3.07,10.59,10.59,0,0,1-4.07-.8,11.51,11.51,0,0,1-3.4-2.13,9.82,9.82,0,0,1-2.33-3.2A9.38,9.38,0,0,1,731.66,87.47Z"/></g></g></svg>