<?xml version="1.0" encoding="utf-8"?>
<!-- Generator: Adobe Illustrator 22.1.0, SVG Export Plug-In . SVG Version: 6.00 Build 0)  -->
<svg version="1.1" id="Layer_1" xmlns="http://www.w3.org/2000/svg" xmlns:xlink="http://www.w3.org/1999/xlink" x="0px" y="0px"
	 viewBox="0 0 144 144" style="enable-background:new 0 0 144 144;" xml:space="preserve">
<style type="text/css">
	.st0{enable-background:new    ;}
	.st1{fill:#00FCFF;}
</style>
<g class="st0">
	<path class="st1" d="M8.9,2.1V0.7h2.7v10.9h2.7v2.7h-2.7v5.5H8.9v-5.5H0.7V8.9H2V7.5h1.4V6.2h1.4V4.8h1.4V3.4h1.4V2.1H8.9z
		 M8.9,11.6V6.2H7.5v1.4H6.1V9H4.8v1.4H3.4v1.4h5.5V11.6z"/>
	<path class="st1" d="M34.9,17.1h-1.4v-2.7h2.7v1.4h1.4v1.4h5.5v-2.7h-2.7V13h-2.7v-1.4H35v-1.4h-1.4V7.5H35V6.2h1.4V4.8h8.2v1.4H46
		v1.4h1.4v2.7h-2.7V8.9h-1.4V7.5h-5.5v2.7h4.1v1.4h2.7V13H46v1.4h1.4v2.7H46v1.4h-1.4v1.4h-8.2v-1.4H35L34.9,17.1L34.9,17.1z"/>
	<path class="st1" d="M59.6,17.1H61v2.7h-2.7v-1.4h-1.4V17h-1.4V7.5h-2.7V4.8h2.7V0.7h2.7v4.1h2.7v2.7h-2.7v8.2h1.4V17.1z"/>
	<path class="st1" d="M73,17.1h1.4v2.7h-2.7v-1.4h-1.4V17h-1.4v-6.8h-2.7V7.5h5.5v8.2H73V17.1z M71.6,2.1v2.7h-2.7V2.1H71.6z"/>
	<path class="st1" d="M84.1,0.7v19.1h-2.7V0.7H84.1z"/>
	<path class="st1" d="M93.5,0.7v19.1h-2.7V0.7H93.5z"/>
</g>
<g class="st0">
	<path class="st1" d="M3.4,53.4V52H2v-1.4H0.7V41H2v-1.4h1.4v-1.4h8.2v1.4H13V41h1.4v9.6H13V52h-1.4v1.4H3.4z M4.8,50.7h5.5v-1.4
		h1.4v-6.8h-1.4v-1.4H4.8v1.4H3.4v6.8h1.4V50.7z"/>
	<path class="st1" d="M17.1,38.4h2.7v10.9h1.4v1.4h1.4v-6.8h2.7v6.8h1.4v-1.4h1.4V38.4h2.7v12.3h-1.4V52H28v1.4h-2.7V52h-2.7v1.4
		h-2.7V52h-1.4v-1.4h-1.4C17.1,50.6,17.1,38.4,17.1,38.4z"/>
	<path class="st1" d="M36.3,42.5v10.9h-2.7v-15h2.7v1.4h1.4v-1.4h6.8v1.4h1.4v1.4h1.4v12.3h-2.7v-11h-1.4v-1.4h-5.5v1.4
		C37.7,42.5,36.3,42.5,36.3,42.5z"/>
	<path class="st1" d="M67.8,47.9h-1.4V34.3h2.7v12.3h1.4V48h1.4v1.4h2.7V48H76v-1.4h1.4V34.3h2.7V48h-1.4v1.4h-1.4v1.4H76V52h-1.4
		v1.4h-2.7V52h-1.4v-1.4h-1.4v-1.4h-1.4v-1.3C67.7,47.9,67.8,47.9,67.8,47.9z"/>
	<path class="st1" d="M87,50.7h5.5v-1.4h1.4v-1.4h2.7v2.7h-1.4V52h-1.4v1.4h-8.2V52h-1.4v-1.4h-1.4V37h1.4v-1.4h1.4v-1.4h8.2v1.4
		h1.4V37h1.4v2.7h-2.7v-1.4h-1.4V37H87v1.4h-1.4v10.9H87V50.7z"/>
	<path class="st1" d="M103.4,45.2H102v8.2h-2.7V34.3h11v1.4h1.4V37h1.4v5.5h-1.4v1.4h-1.4v1.4h-2.7v1.4h1.4v1.4h1.4v1.4h1.4v1.4h1.4
		v2.7h-2.7V52h-1.4v-1.4h-1.4v-1.4h-1.4v-1.4h-1.4v-1.4h-1.4v-1.2C103.5,45.2,103.4,45.2,103.4,45.2z M102,37v5.5h6.8v-1.4h1.4v-2.7
		h-1.4V37H102z"/>
	<path class="st1" d="M117.1,50.7h-1.4V48h2.7v1.4h1.4v1.4h5.5v-2.7h-2.7v-1.4h-2.7v-1.4h-2.7v-1.4h-1.4v-2.7h1.4v-1.4h1.4v-1.4h8.2
		v1.4h1.4v1.4h1.4v2.7h-2.7v-1.4h-1.4v-1.4H120v2.7h4.1v1.4h2.7v1.4h1.4V48h1.4v2.7h-1.4V52h-1.4v1.4h-8.2V52h-1.4L117.1,50.7
		L117.1,50.7z"/>
	<path class="st1" d="M139,50.7v2.7h-2.7v-2.7H139z"/>
</g>
</svg>
