<svg xmlns="http://www.w3.org/2000/svg" width="363.219" height="368.281" viewBox="0 0 363.219 368.281">
  <defs>
    <style>
      .cls-1 {
        fill: none;
        stroke: #fff;
        stroke-width: 3px;
      }

      .cls-1, .cls-2 {
        fill-rule: evenodd;
      }

      .cls-2 {
        fill: #fff;
      }
    </style>
  </defs>
  <path id="Ellipse_3_copy_14" data-name="Ellipse 3 copy 14" class="cls-1" d="M689.684,422.4a176.43,176.43,0,0,1-54.1-337.331" transform="translate(-528.219 -63.75)"/>
  <path id="WEIGHT_LOSS_SURGERY_PROGRAM." data-name="WEIGHT LOSS SURGERY PROGRAM." class="cls-2" d="M666.42,90.562l0.454-.087L670,78.858c0.322-1.3.631-3.38,0.644-3.483,0.1,0.182,1.078,1.944,1.852,3.006l6.993,9.684,0.453-.087,3.755-23.767-4.409.843L677.8,74.51c-0.266,1.6-.4,4.074-0.4,4.21a29.061,29.061,0,0,0-2.124-3.727l-6.04-8.219-0.454.087-2.517,9.856a26.227,26.227,0,0,0-.6,4.247c-0.108-.215-1.132-2.4-1.929-3.764l-4.9-8.236-4.8.917Zm25.293-4.06,15.31-.324-0.086-4.058-10.691.226-0.11-5.213,9.008-.19-0.084-3.959-9.007.19-0.109-5.147,10.228-.216-0.085-4.058-14.848.314Zm20.351,0.08,4.606,0.347,1.685-22.374-4.607-.347Zm21.2,3.046a14.6,14.6,0,0,0,8.948-.971l1.854-9.861-9.472-1.781-0.75,3.99,5.32,1-0.671,3.568a11.073,11.073,0,0,1-4.467,0,6.988,6.988,0,0,1-5.932-8.638c0.775-4.119,3.949-6.713,7.939-5.963a6.215,6.215,0,0,1,4.552,2.938l3.655-2.47c-1.426-2.417-3.838-3.879-7.439-4.555-6.649-1.25-12.152,2.652-13.377,9.171S726.063,88.274,733.264,89.628Zm13.386,2.656,4.355,1.54,2.937-8.307,9.054,3.2-2.937,8.307,4.356,1.54,7.479-21.157-4.355-1.54-3.168,8.96-9.054-3.2,3.168-8.961-4.356-1.54ZM773.817,103.2l4.1,2.136,8.5-16.3L792.089,92l1.877-3.6-15.448-8.057-1.877,3.6,5.676,2.96Zm19.943,11.518,12.2,8.353,2.294-3.349-8.386-5.743,10.386-15.166L806.441,96.2Zm22.578,17.625a11.517,11.517,0,1,0-.849-16.336A11.365,11.365,0,0,0,816.338,132.343Zm2.775-3.052c-3.028-2.753-2.927-6.986-.108-10.088s7.024-3.605,10.052-.853,2.926,6.986.107,10.087S822.141,132.043,819.113,129.291Zm12.729,19.288c2.8,3.382,6.637,4.447,9.84,1.795,2.975-2.462,2.887-5.26,1.68-9.359l-0.356-1.2c-0.6-2.073-.716-3.092.352-3.976a2.011,2.011,0,0,1,2.935.441,3.146,3.146,0,0,1,.369,3.551l4.073,1.3a6.822,6.822,0,0,0-1.34-7.416c-2.631-3.178-6.348-3.529-9.018-1.319-2.9,2.4-2.861,5.239-1.829,8.712l0.355,1.205c0.635,2.217,1,3.541-.218,4.551-1.017.842-2.533,0.511-3.753-.963a5.026,5.026,0,0,1-.743-5.3l-4.078-1.509C828.915,141.834,829.106,145.274,831.842,148.579Zm10.874,14.778c2.392,3.68,6.081,5.178,9.567,2.912,3.237-2.105,3.471-4.893,2.742-9.1l-0.215-1.238c-0.36-2.128-.357-3.153.805-3.908a2.01,2.01,0,0,1,2.865.774,3.146,3.146,0,0,1-.041,3.569l3.9,1.757a6.824,6.824,0,0,0-.481-7.52c-2.248-3.458-5.9-4.233-8.805-2.344-3.154,2.05-3.443,4.875-2.816,8.443l0.214,1.238c0.377,2.274.59,3.631-.738,4.494-1.107.72-2.574,0.218-3.618-1.387a5.028,5.028,0,0,1-.13-5.347l-3.876-1.967C840.582,156.322,840.378,159.761,842.716,163.357Zm12.456,23.094c1.757,4.023,5.152,6.105,8.963,4.441,3.539-1.546,4.226-4.26,4.2-8.533l-0.008-1.256c-0.007-2.158.164-3.169,1.434-3.724a2.01,2.01,0,0,1,2.7,1.233,3.147,3.147,0,0,1-.626,3.515l3.558,2.372a6.824,6.824,0,0,0,.758-7.5c-1.652-3.781-5.128-5.144-8.3-3.756-3.448,1.506-4.2,4.245-4.162,7.868l0.009,1.257c0,2.306-.014,3.68-1.465,4.314-1.21.528-2.576-.208-3.342-1.962a5.029,5.029,0,0,1,.747-5.3l-3.5-2.576C854.22,179.16,853.455,182.519,855.172,186.451Zm7.1,19.638c1.419,4.914,5.14,7.927,10.593,6.353l13.759-3.973-1.282-4.439-13.5,3.9c-3.139.906-4.728-.077-5.57-2.994-0.851-2.948-.04-4.659,3.1-5.566l13.5-3.9-1.281-4.439-13.759,3.973C862.373,196.58,860.831,201.112,862.268,206.089Zm3.822,13.781,0.642,4.575,7.713-1.083,0.409,2.908-7.079,5.594,0.735,5.229,7.687-6.246a6.6,6.6,0,0,0,7.115,3.433c5.2-.73,6.8-4.754,6.159-9.3l-1.158-8.236Zm12.212,2.95,6.634-.933,0.5,3.53c0.308,2.19-.3,3.808-2.782,4.157-2.451.344-3.535-.97-3.852-3.225Zm-9.872,29.559a14.586,14.586,0,0,0,2.55,8.632l10.033,0.066,0.064-9.637-4.059-.027-0.036,5.413-3.631-.024a11.073,11.073,0,0,1-.8-4.4A6.988,6.988,0,0,1,880,245.03c4.191,0.028,7.309,2.689,7.282,6.748a6.212,6.212,0,0,1-2.08,5l3.082,3.157c2.125-1.835,3.132-4.469,3.157-8.132,0.045-6.766-4.776-11.485-11.41-11.529S868.478,245.052,868.43,252.379Zm-0.343,13.626-2.266,15.14,4.013,0.6,1.582-10.572,5.156,0.772-1.333,8.908,3.915,0.586,1.334-8.908,5.09,0.762-1.514,10.115,4.013,0.6,2.2-14.684Zm-3.311,20.012-1.267,4.443L871,292.6l-0.806,2.825-8.739,2.243-1.449,5.078,9.56-2.593a6.606,6.606,0,0,0,5.112,6.023c5.046,1.44,8.142-1.59,9.4-6l2.281-8Zm9.968,7.648,6.443,1.838-0.978,3.428c-0.606,2.126-1.816,3.36-4.228,2.672-2.381-.679-2.839-2.32-2.215-4.51ZM856.5,311.186l-1.841,4.273,7.849,3.384,9.886,12.166,1.881-4.364-4.4-5.2c-1.189-1.411-3.187-3.278-3.187-3.278s2.816,0.136,4.6,0l6.861-.493,2.051-4.758-16.145,1.522Zm-10.477,21.08-2.575,3.837,6.112,4.1-1.821,2.713c-2.538,3.782-2.734,8.221,1.623,11.145s8.345,1.069,10.9-2.74l4.395-6.55Zm6.908,10.2,5.782,3.881-1.747,2.6c-1.232,1.836-2.873,2.564-4.956,1.166-2.055-1.379-2.1-3.155-.826-5.046Zm-18.6,6.65-3.059,3.464,5.84,5.155-1.945,2.2L826.31,358.2l-3.495,3.959,9.745,1.779a6.606,6.606,0,0,0,2.018,7.638c3.934,3.474,8.033,2.073,11.069-1.366l5.5-6.235Zm5.7,11.2,5.023,4.435-2.36,2.672c-1.463,1.658-3.087,2.25-4.967.59-1.856-1.639-1.563-3.317-.055-5.025Zm-28.435,11.372a11.519,11.519,0,1,0,16.3,1.38A11.367,11.367,0,0,0,811.593,371.685Zm2.647,3.164c3.139-2.625,7.32-1.949,10.009,1.266s2.617,7.449-.522,10.075-7.319,1.949-10.008-1.266S811.1,377.475,814.24,374.849Zm-25.2,12.616a14.591,14.591,0,0,0-6.088,6.627l5.1,8.636,8.295-4.9-2.065-3.5-4.659,2.754-1.847-3.125a11.083,11.083,0,0,1,3.359-2.943,6.987,6.987,0,0,1,10.153,2.585c2.132,3.608,1.455,7.65-2.04,9.715a6.21,6.21,0,0,1-5.359.791l-1.12,4.266c2.665,0.877,5.442.386,8.6-1.477,5.824-3.443,7.389-10,4.014-15.713S795.348,383.737,789.042,387.465Zm-11.851,6.745-4.276,1.75,2.95,7.208-2.719,1.113-7.164-5.484-4.887,2,7.946,5.912a6.6,6.6,0,0,0-1.575,7.741c1.987,4.856,6.281,5.417,10.527,3.68l7.7-3.15Zm0.148,12.563,2.538,6.2-3.3,1.35c-2.047.837-3.764,0.648-4.714-1.673-0.937-2.291.069-3.665,2.177-4.528Zm-18.372-5.2-4.315,1.107-0.461,3.253-8.439,2.164-1.969-2.629-4.7,1.2,15.566,19.38,0.384-.1Zm-5.319,8.485-0.53,3.645c-0.222,1.659-.279,4.092-0.286,4.2-0.122-.208-1.327-2.25-2.3-3.532l-2.219-2.94Zm-18.223-2.666-4.4.4,0.762,8.379c0.138,1.511.52,3.9,0.52,3.9a39.514,39.514,0,0,0-2.685-2.936l-4.887-4.558-0.427.039-3.985,5.365a39.416,39.416,0,0,0-2.111,3.372s-0.054-2.413-.192-3.925l-0.762-8.378-4.436.4,2.054,22.573,0.394-.036L725.01,418.9l12.107,11.09,0.362-.033Zm-29.753,1.43A2.789,2.789,0,1,0,708.4,411.7,2.754,2.754,0,0,0,705.672,408.818Z" transform="translate(-528.219 -63.75)"/>
</svg>
