<svg xmlns="http://www.w3.org/2000/svg" width="368.344" height="367.219" viewBox="0 0 368.344 367.219">
  <defs>
    <style>
      .cls-1 {
        fill: none;
        stroke: #fff;
        stroke-width: 3px;
      }

      .cls-1, .cls-2 {
        fill-rule: evenodd;
      }

      .cls-2 {
        fill: #fff;
      }
    </style>
  </defs>
  <path id="Ellipse_3_copy_15" data-name="Ellipse 3 copy 15" class="cls-1" d="M381.414,371.013q-3.986,3.963-8.272,7.721A176.391,176.391,0,1,1,179.682,87.42" transform="translate(-79 -56.719)"/>
  <path id="A_NATIONAL_TOP_5_" data-name="A NATIONAL TOP 5%" class="cls-2" d="M203.359,92.6l5.556-1.241,0.718-4.136L220.5,84.8l2.41,3.437,6.051-1.352L209.85,61.507l-0.494.11Zm7.132-10.625,0.823-4.635c0.35-2.109.52-5.215,0.534-5.348,0.146,0.27,1.6,2.926,2.8,4.6l2.717,3.844Zm56.372,4.632,0.59,0.019,0.925-28.915-5.522-.177-0.384,12.013c-0.064,1.981.212,5.239,0.212,5.239a40.815,40.815,0,0,0-3.247-4.028L245.414,56.724l-0.59-.019L243.9,85.62l5.522,0.177,0.384-12.013a50.421,50.421,0,0,0-.255-5.24,42.628,42.628,0,0,0,3.289,4.029Zm5.338,0.135,5.616,0.929,2.214-3.566,10.983,1.817,0.948,4.089,6.116,1.012-8.217-30.681-0.5-.083Zm10.591-7.18,2.5-3.989c1.114-1.825,2.435-4.641,2.5-4.758,0.035,0.3.392,3.313,0.873,5.316l1.08,4.581Zm22.188,13.9L310.6,95.27l7.189-22.362,7.789,2.5,1.588-4.938-21.2-6.815L304.381,68.6l7.788,2.5Zm18.2,6.71,5.36,2.474L340.56,76.613l-5.36-2.474Zm23.2,13.057a14.718,14.718,0,1,0-4.336-20.449A14.524,14.524,0,0,0,346.384,113.23Zm2.892-4.407c-4.372-2.869-5.09-8.232-2.151-12.71s8.144-5.954,12.516-3.085,5.089,8.232,2.151,12.71S353.648,111.691,349.276,108.823Zm30.232,32.636,0.417,0.417L400.357,121.4l-3.909-3.9-8.488,8.505c-1.4,1.4-3.425,3.969-3.425,3.969a40.82,40.82,0,0,0,.383-5.158l-0.646-19.825-0.417-.417-20.432,20.471,3.909,3.9,8.488-8.505a50.319,50.319,0,0,0,3.395-4,42.688,42.688,0,0,0-.353,5.187Zm3.749,3.834,3.212,4.7,4.108-.865,6.28,9.195-2.3,3.511,3.5,5.12,16.494-27.15-0.285-.418Zm12.513,2.691,4.61-.953c2.089-.456,5.037-1.449,5.165-1.485-0.2.236-2.123,2.574-3.238,4.306l-2.565,3.948Zm4.322,23.3,7.884,17.169,4.714-2.165-5.42-11.8,21.346-9.8-2.464-5.366Zm14.159,38.6,1.233,5.774,22.972-4.908,1.709,8,5.073-1.083L440.586,195.9l-5.073,1.084,1.71,8Zm3.674,31.156a14.717,14.717,0,1,0,14.245-15.3A14.522,14.522,0,0,0,417.925,241.049Zm5.268-.165c-0.163-5.226,3.814-8.894,9.167-9.061s9.551,3.246,9.714,8.472-3.814,8.894-9.167,9.061S423.356,246.111,423.193,240.884Zm-5.3,20.887-0.948,5.827,9.281,1.51-0.67,4.12c-0.934,5.744,1.2,11,7.819,12.08s10.261-3.2,11.2-8.986l1.618-9.948Zm13.453,8.169,8.782,1.429-0.644,3.954c-0.453,2.788-1.972,4.506-5.135,3.992-3.121-.508-4.113-2.549-3.646-5.421ZM406.431,305.3c-2.5,6.131-.821,11.734,5.036,14.122,5.116,2.086,10.177-.5,12.533-6.276a8.668,8.668,0,0,0,.81-4l5,2.038-4.7,11.52,4.8,1.958,6.639-16.284L420.66,301.9l-0.425.373a10.936,10.936,0,0,1-.246,7.642c-1.354,3.319-3.541,4.886-6.275,3.772-2.5-1.019-3.5-3.477-2.323-6.367a6.448,6.448,0,0,1,5.754-4.394l-0.511-5.674C412.607,297.527,408.517,300.186,406.431,305.3Zm1.977,28.244a7.72,7.72,0,1,0,10.832-2.254A7.856,7.856,0,0,0,408.408,333.546Zm-10.736-8.366-3.161,4.684,13.742,30.9,3.161-4.684ZM384.713,343.7a7.72,7.72,0,1,0,10.831-2.254A7.855,7.855,0,0,0,384.713,343.7Zm27.4-7.657a3,3,0,0,1,4.319-.595,2.957,2.957,0,0,1,1.064,4.228,2.988,2.988,0,0,1-4.343.63A3.037,3.037,0,0,1,412.113,336.046ZM388.418,346.2a3,3,0,0,1,4.319-.6,2.959,2.959,0,0,1,1.064,4.229,2.989,2.989,0,0,1-4.343.63A3.036,3.036,0,0,1,388.418,346.2Z" transform="translate(-79 -56.719)"/>
</svg>
