<svg xmlns="http://www.w3.org/2000/svg" viewBox="0 0 187.11 45.55"><defs><style>.cls-1{fill:#fff;}</style></defs><title>tagline</title><g id="Layer_2" data-name="Layer 2"><g id="Layer_1-2" data-name="Layer 1"><path class="cls-1" d="M2.16,3.12V8.59H6.79v1.87H2.16v7.68H0v-17H7.15v2Z"/><path class="cls-1" d="M17.84,12.14a10.6,10.6,0,0,1-.3,2.62,6.42,6.42,0,0,1-.87,2,4,4,0,0,1-1.38,1.3,3.56,3.56,0,0,1-1.85.47,3.5,3.5,0,0,1-1.82-.47,4.16,4.16,0,0,1-1.38-1.3,6.42,6.42,0,0,1-.86-2,10.6,10.6,0,0,1-.3-2.62,10.88,10.88,0,0,1,.3-2.64,6.56,6.56,0,0,1,.85-2,4,4,0,0,1,1.37-1.3,3.55,3.55,0,0,1,1.84-.47,3.56,3.56,0,0,1,1.85.47,4,4,0,0,1,1.38,1.3,6.35,6.35,0,0,1,.87,2A10.88,10.88,0,0,1,17.84,12.14Zm-2.12,0a11.76,11.76,0,0,0-.13-1.83,5.57,5.57,0,0,0-.42-1.47,2.66,2.66,0,0,0-.72-1,1.52,1.52,0,0,0-1-.36,1.5,1.5,0,0,0-1,.36,2.54,2.54,0,0,0-.71,1,5.58,5.58,0,0,0-.41,1.47,11.76,11.76,0,0,0-.13,1.83A11.45,11.45,0,0,0,11.32,14a5.61,5.61,0,0,0,.41,1.46,2.54,2.54,0,0,0,.71,1,1.5,1.5,0,0,0,1,.36,1.59,1.59,0,0,0,1-.36,2.63,2.63,0,0,0,.7-1A5.61,5.61,0,0,0,15.59,14,11.45,11.45,0,0,0,15.72,12.13Z"/><path class="cls-1" d="M23.75,6.38a2.23,2.23,0,0,1,1.61-.69l.29,0-.1,2.14-.19,0h-.21a1.51,1.51,0,0,0-1,.37,3,3,0,0,0-.75,1,5.43,5.43,0,0,0-.45,1.36,7.21,7.21,0,0,0-.16,1.55v6.09H20.71v-9c0-.48,0-1,0-1.54s0-1.06-.07-1.5h1.94c.05.4.09.81.11,1.24s0,.85,0,1.25h.05A4.3,4.3,0,0,1,23.75,6.38Z"/><path class="cls-1" d="M32.1,18.36a4.3,4.3,0,0,1-.87.1,2.22,2.22,0,0,1-2-.89,4.47,4.47,0,0,1-.58-2.47V7.75H27.13V6.1h1.51V2.88h2V6.1h2.13V7.75H30.64v6.92A2.81,2.81,0,0,0,31,16.19a1,1,0,0,0,.93.47,1.88,1.88,0,0,0,.46-.06,3,3,0,0,0,.41-.11l0,1.63A2.29,2.29,0,0,1,32.1,18.36Z"/><path class="cls-1" d="M39.45,20.33A11.46,11.46,0,0,1,39,21.8a4,4,0,0,1-.67,1.13,2.69,2.69,0,0,1-1,.72A3,3,0,0,1,36,23.9a5.06,5.06,0,0,1-.79-.06,4.55,4.55,0,0,1-.63-.13l.27-1.85a2.55,2.55,0,0,0,1,.17,1.25,1.25,0,0,0,1-.43,3.19,3.19,0,0,0,.54-1.2l.46-1.9L34.33,6.1h2.16l2.38,9.64h.05L41.08,6.1h2.09Z"/><path class="cls-1" d="M56.41,18.14V10.45c0-.34,0-.68,0-1a3.55,3.55,0,0,0-.23-1,1.76,1.76,0,0,0-.52-.7,1.47,1.47,0,0,0-.91-.26,1.74,1.74,0,0,0-.94.27,2.6,2.6,0,0,0-.74.77,3.94,3.94,0,0,0-.48,1.18,6.46,6.46,0,0,0-.17,1.51v6.92h-2v-9c0-.48,0-1,0-1.54s0-1.06-.07-1.5h1.94c.05.4.08.8.11,1.2s0,.69,0,.88h.05A4,4,0,0,1,53.5,6.41a2.69,2.69,0,0,1,1.9-.72A2.75,2.75,0,0,1,57,6.1a2.57,2.57,0,0,1,.93,1.08,5,5,0,0,1,.45,1.53,12.76,12.76,0,0,1,.12,1.75v7.68Z"/><path class="cls-1" d="M63.33,12.65a8.26,8.26,0,0,0,.15,1.62,5.09,5.09,0,0,0,.46,1.3,2.4,2.4,0,0,0,.76.87,1.78,1.78,0,0,0,1,.31,1.74,1.74,0,0,0,1.3-.5,3.9,3.9,0,0,0,.76-1.2l1.54.89A4.77,4.77,0,0,1,68,17.82a3.49,3.49,0,0,1-2.29.73,3.72,3.72,0,0,1-3.24-1.69,8.13,8.13,0,0,1-1.18-4.72,10.16,10.16,0,0,1,.32-2.62,6.35,6.35,0,0,1,.88-2,4.25,4.25,0,0,1,1.39-1.32,3.84,3.84,0,0,1,3.68,0,3.74,3.74,0,0,1,1.26,1.27,6,6,0,0,1,.71,1.89,12.42,12.42,0,0,1,.21,2.34v1ZM67.65,11a5.74,5.74,0,0,0-.49-2.54,1.64,1.64,0,0,0-1.55-1,1.51,1.51,0,0,0-1,.37,2.93,2.93,0,0,0-.68.9,4.44,4.44,0,0,0-.38,1.15A5.56,5.56,0,0,0,63.38,11Z"/><path class="cls-1" d="M74.77,2.52a1.37,1.37,0,0,1-.37,1,1.26,1.26,0,0,1-1.82,0,1.36,1.36,0,0,1-.36-1,1.39,1.39,0,0,1,.36-1,1.25,1.25,0,0,1,1.83,0A1.39,1.39,0,0,1,74.77,2.52ZM72.46,18.14V6.1h2v12Z"/><path class="cls-1" d="M84.07,6.1h2v12a10.7,10.7,0,0,1-.23,2.27,5,5,0,0,1-.77,1.83,3.79,3.79,0,0,1-1.41,1.22,4.68,4.68,0,0,1-2.15.44,5.42,5.42,0,0,1-2.32-.51A5.13,5.13,0,0,1,77.4,22l1.27-1.44a4.39,4.39,0,0,0,1.27,1.07,3.27,3.27,0,0,0,1.63.42,2.29,2.29,0,0,0,1.23-.3,2.18,2.18,0,0,0,.76-.83,3.54,3.54,0,0,0,.4-1.25,10.62,10.62,0,0,0,.11-1.54V16.25h0a3.94,3.94,0,0,1-.92,1.64,2.53,2.53,0,0,1-1.89.66,2.8,2.8,0,0,1-1.63-.49,4,4,0,0,1-1.21-1.36,7.06,7.06,0,0,1-.75-2,13.11,13.11,0,0,1-.25-2.6,12.73,12.73,0,0,1,.24-2.56,6.89,6.89,0,0,1,.73-2,3.81,3.81,0,0,1,1.22-1.32,2.9,2.9,0,0,1,1.65-.47,2.73,2.73,0,0,1,1.79.6,3,3,0,0,1,1,1.53h.07Zm0,6a10.63,10.63,0,0,0-.15-1.84,5.3,5.3,0,0,0-.44-1.47,2.84,2.84,0,0,0-.73-1,1.54,1.54,0,0,0-1-.36,1.51,1.51,0,0,0-1,.36,2.79,2.79,0,0,0-.7,1,5.7,5.7,0,0,0-.4,1.47,11.76,11.76,0,0,0-.14,1.84,11.4,11.4,0,0,0,.14,1.82,5.81,5.81,0,0,0,.4,1.47,2.83,2.83,0,0,0,.7,1,1.51,1.51,0,0,0,1,.36,1.59,1.59,0,0,0,1-.36,2.65,2.65,0,0,0,.73-1,5.79,5.79,0,0,0,.43-1.47A10.31,10.31,0,0,0,84.07,12.12Z"/><path class="cls-1" d="M91.51,18.14H89.45V0h2.06V8.14h0a3.91,3.91,0,0,1,1.08-1.73,2.68,2.68,0,0,1,1.9-.72,2.72,2.72,0,0,1,1.57.41,2.66,2.66,0,0,1,.94,1.08,5.27,5.27,0,0,1,.44,1.53,12.76,12.76,0,0,1,.12,1.75v7.68H95.55V10.45c0-.34,0-.68,0-1a3.22,3.22,0,0,0-.23-1,1.68,1.68,0,0,0-.52-.7,1.45,1.45,0,0,0-.91-.26,1.71,1.71,0,0,0-.93.27,2.63,2.63,0,0,0-.75.77,3.94,3.94,0,0,0-.48,1.18,6.46,6.46,0,0,0-.17,1.51Z"/><path class="cls-1" d="M101,0h2V7.82h0a3,3,0,0,1,1-1.53,2.68,2.68,0,0,1,1.78-.6,2.9,2.9,0,0,1,1.65.47,3.69,3.69,0,0,1,1.21,1.32,6.62,6.62,0,0,1,.74,2,12.73,12.73,0,0,1,.24,2.56,13.11,13.11,0,0,1-.25,2.6,7.06,7.06,0,0,1-.75,2,4,4,0,0,1-1.21,1.36,2.82,2.82,0,0,1-1.63.49,2.51,2.51,0,0,1-1.89-.66,3.94,3.94,0,0,1-.92-1.64h0v1.89h-2Zm2,12.13a11.4,11.4,0,0,0,.14,1.82,5.58,5.58,0,0,0,.44,1.46,2.57,2.57,0,0,0,.73,1,1.57,1.57,0,0,0,1,.36,1.51,1.51,0,0,0,1-.36,2.61,2.61,0,0,0,.69-1A5.61,5.61,0,0,0,107.4,14a11.45,11.45,0,0,0,.13-1.82,11.76,11.76,0,0,0-.13-1.83A5.58,5.58,0,0,0,107,8.83a2.61,2.61,0,0,0-.69-1,1.51,1.51,0,0,0-1-.36,1.54,1.54,0,0,0-1,.36,2.8,2.8,0,0,0-.73,1,5.54,5.54,0,0,0-.45,1.47A11.72,11.72,0,0,0,103,12.13Z"/><path class="cls-1" d="M120.76,12.14a10.6,10.6,0,0,1-.3,2.62,6.42,6.42,0,0,1-.87,2,4,4,0,0,1-1.38,1.3,3.56,3.56,0,0,1-1.85.47,3.5,3.5,0,0,1-1.82-.47,4.16,4.16,0,0,1-1.38-1.3,6.42,6.42,0,0,1-.86-2,10.6,10.6,0,0,1-.3-2.62,10.88,10.88,0,0,1,.3-2.64,6.56,6.56,0,0,1,.85-2,4,4,0,0,1,1.37-1.3,3.86,3.86,0,0,1,3.69,0,4,4,0,0,1,1.38,1.3,6.35,6.35,0,0,1,.87,2A10.88,10.88,0,0,1,120.76,12.14Zm-2.12,0a11.76,11.76,0,0,0-.13-1.83,5.57,5.57,0,0,0-.42-1.47,2.66,2.66,0,0,0-.72-1,1.52,1.52,0,0,0-1-.36,1.5,1.5,0,0,0-1,.36,2.54,2.54,0,0,0-.71,1,5.58,5.58,0,0,0-.41,1.47,11.76,11.76,0,0,0-.13,1.83,11.45,11.45,0,0,0,.13,1.82,5.61,5.61,0,0,0,.41,1.46,2.54,2.54,0,0,0,.71,1,1.5,1.5,0,0,0,1,.36,1.59,1.59,0,0,0,1-.36,2.63,2.63,0,0,0,.7-1,5.61,5.61,0,0,0,.41-1.46A11.45,11.45,0,0,0,118.64,12.13Z"/><path class="cls-1" d="M126.67,6.38a2.23,2.23,0,0,1,1.61-.69l.29,0-.09,2.14-.2,0h-.21a1.51,1.51,0,0,0-1,.37,3,3,0,0,0-.75,1,5.43,5.43,0,0,0-.45,1.36,7.21,7.21,0,0,0-.16,1.55v6.09h-2.06v-9c0-.48,0-1,0-1.54s0-1.06-.07-1.5h2c0,.4.08.81.1,1.24s0,.85,0,1.25h0A4.3,4.3,0,0,1,126.67,6.38Z"/><path class="cls-1" d="M132.78,18.14h-2.06V0h2.06V8.14h.05a3.91,3.91,0,0,1,1.08-1.73,2.68,2.68,0,0,1,1.9-.72,2.72,2.72,0,0,1,1.57.41,2.66,2.66,0,0,1,.94,1.08,5.27,5.27,0,0,1,.44,1.53,12.76,12.76,0,0,1,.12,1.75v7.68h-2.06V10.45c0-.34,0-.68,0-1a3.22,3.22,0,0,0-.23-1,1.68,1.68,0,0,0-.52-.7,1.45,1.45,0,0,0-.91-.26,1.71,1.71,0,0,0-.93.27,2.63,2.63,0,0,0-.75.77A3.94,3.94,0,0,0,133,9.71a6.46,6.46,0,0,0-.17,1.51Z"/><path class="cls-1" d="M150.43,12.14a10.6,10.6,0,0,1-.3,2.62,6.42,6.42,0,0,1-.87,2,4,4,0,0,1-1.38,1.3,3.56,3.56,0,0,1-1.85.47,3.5,3.5,0,0,1-1.82-.47,4.16,4.16,0,0,1-1.38-1.3,6.42,6.42,0,0,1-.86-2,10.6,10.6,0,0,1-.3-2.62A10.88,10.88,0,0,1,142,9.5a6.56,6.56,0,0,1,.85-2,4,4,0,0,1,1.37-1.3,3.86,3.86,0,0,1,3.69,0,4,4,0,0,1,1.38,1.3,6.35,6.35,0,0,1,.87,2A10.88,10.88,0,0,1,150.43,12.14Zm-2.12,0a11.76,11.76,0,0,0-.13-1.83,5.57,5.57,0,0,0-.42-1.47,2.66,2.66,0,0,0-.72-1,1.52,1.52,0,0,0-1-.36,1.5,1.5,0,0,0-1,.36,2.54,2.54,0,0,0-.71,1,5.58,5.58,0,0,0-.41,1.47,11.76,11.76,0,0,0-.13,1.83,11.45,11.45,0,0,0,.13,1.82,5.61,5.61,0,0,0,.41,1.46,2.54,2.54,0,0,0,.71,1,1.5,1.5,0,0,0,1,.36,1.59,1.59,0,0,0,1-.36,2.63,2.63,0,0,0,.7-1,5.61,5.61,0,0,0,.41-1.46A11.45,11.45,0,0,0,148.31,12.13Z"/><path class="cls-1" d="M161.49,12.14a10.6,10.6,0,0,1-.3,2.62,6.65,6.65,0,0,1-.86,2,4.16,4.16,0,0,1-1.38,1.3,3.84,3.84,0,0,1-3.68,0,4.16,4.16,0,0,1-1.38-1.3,6.65,6.65,0,0,1-.86-2,10.6,10.6,0,0,1-.3-2.62A10.88,10.88,0,0,1,153,9.5a6.56,6.56,0,0,1,.85-2,4,4,0,0,1,1.37-1.3,3.88,3.88,0,0,1,3.7,0,4.16,4.16,0,0,1,1.38,1.3,6.57,6.57,0,0,1,.86,2A10.88,10.88,0,0,1,161.49,12.14Zm-2.11,0a13.13,13.13,0,0,0-.13-1.83,5.57,5.57,0,0,0-.42-1.47,2.9,2.9,0,0,0-.72-1,1.54,1.54,0,0,0-1-.36,1.52,1.52,0,0,0-1,.36,2.64,2.64,0,0,0-.71,1A6,6,0,0,0,155,10.3a13.13,13.13,0,0,0-.13,1.83A12.76,12.76,0,0,0,155,14a6,6,0,0,0,.41,1.46,2.64,2.64,0,0,0,.71,1,1.52,1.52,0,0,0,1,.36,1.56,1.56,0,0,0,1-.36,2.64,2.64,0,0,0,.71-1,6,6,0,0,0,.41-1.46A12.76,12.76,0,0,0,159.38,12.13Z"/><path class="cls-1" d="M170.54,18.14V16.25h0a3.85,3.85,0,0,1-.93,1.64,2.49,2.49,0,0,1-1.88.66,2.8,2.8,0,0,1-1.63-.49,3.92,3.92,0,0,1-1.21-1.36,7.06,7.06,0,0,1-.75-2,12.4,12.4,0,0,1-.25-2.6,12.73,12.73,0,0,1,.24-2.56,6.61,6.61,0,0,1,.73-2A3.78,3.78,0,0,1,166,6.16a2.93,2.93,0,0,1,1.66-.47,2.7,2.7,0,0,1,1.78.6,3,3,0,0,1,1,1.53h.05V0h2V18.14Zm0-6a10.59,10.59,0,0,0-.15-1.83A5.2,5.2,0,0,0,170,8.83a2.92,2.92,0,0,0-.73-1,1.54,1.54,0,0,0-1-.36,1.51,1.51,0,0,0-1,.36,2.74,2.74,0,0,0-.7,1,6,6,0,0,0-.41,1.47,13.13,13.13,0,0,0-.13,1.83,12.76,12.76,0,0,0,.13,1.82,6,6,0,0,0,.41,1.46,2.74,2.74,0,0,0,.7,1,1.51,1.51,0,0,0,1,.36,1.59,1.59,0,0,0,1-.36,2.68,2.68,0,0,0,.73-1,5.59,5.59,0,0,0,.43-1.46A10.31,10.31,0,0,0,170.54,12.13Z"/><path class="cls-1" d="M180.9,8.38a2.53,2.53,0,0,0-.8-.76,2.21,2.21,0,0,0-1.17-.3,1.51,1.51,0,0,0-1.15.49,1.9,1.9,0,0,0-.45,1.33,1.52,1.52,0,0,0,.46,1.23,5.48,5.48,0,0,0,1.43.74,8.23,8.23,0,0,1,1,.47,3.41,3.41,0,0,1,1.52,1.73,3.69,3.69,0,0,1,.24,1.4,4.7,4.7,0,0,1-.27,1.66,3.2,3.2,0,0,1-1.94,1.93,4,4,0,0,1-1.46.25,4.36,4.36,0,0,1-3.46-1.63l1.2-1.32a4.72,4.72,0,0,0,1,.88,2.48,2.48,0,0,0,1.37.37,1.48,1.48,0,0,0,1.21-.55,2.21,2.21,0,0,0,.45-1.44,2.08,2.08,0,0,0-.17-.87,1.73,1.73,0,0,0-.46-.61,2.72,2.72,0,0,0-.68-.43c-.26-.12-.55-.24-.85-.35a6.07,6.07,0,0,1-.9-.41,2.88,2.88,0,0,1-1.38-1.59,3.77,3.77,0,0,1-.22-1.38,3.52,3.52,0,0,1,.28-1.44,3.24,3.24,0,0,1,.75-1.12,3.41,3.41,0,0,1,1.13-.72,3.77,3.77,0,0,1,1.39-.25,4.26,4.26,0,0,1,1.86.37,3.85,3.85,0,0,1,1.29,1Z"/><path class="cls-1" d="M187.11,16.87a1.42,1.42,0,0,1-.39,1,1.29,1.29,0,0,1-1,.41,1.25,1.25,0,0,1-1-.41,1.45,1.45,0,0,1-.38-1,1.52,1.52,0,0,1,.38-1,1.23,1.23,0,0,1,1-.43,1.28,1.28,0,0,1,1,.43A1.49,1.49,0,0,1,187.11,16.87Z"/><path class="cls-1" d="M39.51,30.12v5.47h4.63v1.87H39.51v7.68H37.35v-17H44.5v2Z"/><path class="cls-1" d="M49.4,29.52a1.33,1.33,0,0,1-.37,1,1.2,1.2,0,0,1-.9.39,1.18,1.18,0,0,1-.91-.39,1.36,1.36,0,0,1-.36-1,1.39,1.39,0,0,1,.36-1,1.24,1.24,0,0,1,1.82,0A1.39,1.39,0,0,1,49.4,29.52ZM47.1,45.14v-12h2v12Z"/><path class="cls-1" d="M58.66,45.14V37.45c0-.34,0-.68,0-1a3.22,3.22,0,0,0-.23-1,1.68,1.68,0,0,0-.52-.7,1.45,1.45,0,0,0-.91-.26,1.64,1.64,0,0,0-.93.28,2.47,2.47,0,0,0-.75.76,3.94,3.94,0,0,0-.48,1.18,6.46,6.46,0,0,0-.17,1.51v6.92h-2v-9c0-.48,0-1,0-1.54s0-1.06-.07-1.5h1.94c0,.4.09.8.11,1.2s0,.69,0,.88h0a4.1,4.1,0,0,1,1.12-1.77,3,3,0,0,1,3.48-.31,2.66,2.66,0,0,1,.94,1.08,5.27,5.27,0,0,1,.44,1.53,12.76,12.76,0,0,1,.12,1.75v7.68Z"/><path class="cls-1" d="M70.24,45.14V43.25h0a3.85,3.85,0,0,1-.93,1.64,2.49,2.49,0,0,1-1.88.66,2.8,2.8,0,0,1-1.63-.49,3.92,3.92,0,0,1-1.21-1.36,7.06,7.06,0,0,1-.75-2.05,12.4,12.4,0,0,1-.25-2.6,12.73,12.73,0,0,1,.24-2.56,6.61,6.61,0,0,1,.73-2,3.78,3.78,0,0,1,1.21-1.32,2.93,2.93,0,0,1,1.66-.47,2.7,2.7,0,0,1,1.78.6,3,3,0,0,1,1,1.53h0V27h2V45.14Zm0-6a10.59,10.59,0,0,0-.15-1.83,5.2,5.2,0,0,0-.44-1.47,2.92,2.92,0,0,0-.73-1,1.54,1.54,0,0,0-1-.36,1.51,1.51,0,0,0-1,.36,2.74,2.74,0,0,0-.7,1,6,6,0,0,0-.41,1.47,13.13,13.13,0,0,0-.13,1.83A12.76,12.76,0,0,0,65.78,41a6,6,0,0,0,.41,1.46,2.74,2.74,0,0,0,.7,1,1.51,1.51,0,0,0,1,.36,1.59,1.59,0,0,0,1-.36,2.68,2.68,0,0,0,.73-1A5.59,5.59,0,0,0,70.09,41,10.31,10.31,0,0,0,70.24,39.13Z"/><path class="cls-1" d="M84.37,45.36a4.2,4.2,0,0,1-.86.1,2.2,2.2,0,0,1-2-.89,4.47,4.47,0,0,1-.59-2.47V34.75H79.4V33.1h1.52V29.88h2V33.1H85v1.65H82.91v6.92a2.81,2.81,0,0,0,.31,1.52,1.06,1.06,0,0,0,.94.47,1.86,1.86,0,0,0,.45-.06,2.64,2.64,0,0,0,.41-.11l0,1.63A2.48,2.48,0,0,1,84.37,45.36Z"/><path class="cls-1" d="M89.36,45.14H87.3V27h2.06v8.14h0a3.91,3.91,0,0,1,1.08-1.73,2.68,2.68,0,0,1,1.9-.72A2.72,2.72,0,0,1,94,33.1a2.66,2.66,0,0,1,.94,1.08,5.27,5.27,0,0,1,.44,1.53,12.76,12.76,0,0,1,.12,1.75v7.68H93.4V37.45c0-.34,0-.68-.05-1a3.22,3.22,0,0,0-.23-1,1.68,1.68,0,0,0-.52-.7,1.45,1.45,0,0,0-.91-.26,1.64,1.64,0,0,0-.93.28,2.47,2.47,0,0,0-.75.76,3.94,3.94,0,0,0-.48,1.18,6.46,6.46,0,0,0-.17,1.51Z"/><path class="cls-1" d="M100.31,39.65a7.54,7.54,0,0,0,.16,1.62,4.73,4.73,0,0,0,.45,1.3,2.4,2.4,0,0,0,.76.87,1.78,1.78,0,0,0,1,.31,1.72,1.72,0,0,0,1.3-.5,3.92,3.92,0,0,0,.77-1.2l1.53.89A4.77,4.77,0,0,1,105,44.82a3.49,3.49,0,0,1-2.29.73,3.74,3.74,0,0,1-3.24-1.69,8.21,8.21,0,0,1-1.17-4.72,10.18,10.18,0,0,1,.31-2.62,6.36,6.36,0,0,1,.89-2,4.06,4.06,0,0,1,1.39-1.32,3.82,3.82,0,0,1,3.67,0,3.74,3.74,0,0,1,1.26,1.27,5.81,5.81,0,0,1,.71,1.89,12.42,12.42,0,0,1,.21,2.34v1ZM104.63,38a5.6,5.6,0,0,0-.49-2.54,1.64,1.64,0,0,0-1.55-1,1.49,1.49,0,0,0-1,.37,3,3,0,0,0-.69.9,4.85,4.85,0,0,0-.38,1.15,5.56,5.56,0,0,0-.12,1.08Z"/><path class="cls-1" d="M122.58,39.14a10.6,10.6,0,0,1-.3,2.62,6.65,6.65,0,0,1-.86,2,4.16,4.16,0,0,1-1.38,1.3,3.59,3.59,0,0,1-1.85.47,3.5,3.5,0,0,1-1.82-.47,4,4,0,0,1-1.38-1.3,6.42,6.42,0,0,1-.87-2,10.6,10.6,0,0,1-.3-2.62,10.88,10.88,0,0,1,.3-2.64,6.56,6.56,0,0,1,.85-2,4,4,0,0,1,1.37-1.3,3.88,3.88,0,0,1,3.7,0,4.16,4.16,0,0,1,1.38,1.3,6.57,6.57,0,0,1,.86,2A10.88,10.88,0,0,1,122.58,39.14Zm-2.11,0a11.76,11.76,0,0,0-.13-1.83,5.57,5.57,0,0,0-.42-1.47,2.66,2.66,0,0,0-.72-1,1.6,1.6,0,0,0-2,0,2.64,2.64,0,0,0-.71,1,5.59,5.59,0,0,0-.4,1.47,11.72,11.72,0,0,0-.14,1.83,11.4,11.4,0,0,0,.14,1.82,5.62,5.62,0,0,0,.4,1.46,2.64,2.64,0,0,0,.71,1,1.62,1.62,0,0,0,2,0,2.54,2.54,0,0,0,.71-1,6,6,0,0,0,.41-1.46A11.45,11.45,0,0,0,120.47,39.13Z"/><path class="cls-1" d="M131.52,45.14V37.45c0-.34,0-.68,0-1a3.55,3.55,0,0,0-.23-1,1.68,1.68,0,0,0-.52-.7,1.47,1.47,0,0,0-.91-.26,1.67,1.67,0,0,0-.94.28,2.56,2.56,0,0,0-.74.76,3.94,3.94,0,0,0-.48,1.18,6.46,6.46,0,0,0-.17,1.51v6.92h-2v-9c0-.48,0-1,0-1.54s0-1.06-.07-1.5h1.94c0,.4.08.8.11,1.2s0,.69,0,.88h0a4.1,4.1,0,0,1,1.12-1.77,3,3,0,0,1,3.48-.31,2.57,2.57,0,0,1,.93,1.08,5,5,0,0,1,.45,1.53,12.76,12.76,0,0,1,.12,1.75v7.68Z"/><path class="cls-1" d="M138.44,39.65a8.26,8.26,0,0,0,.15,1.62,5.09,5.09,0,0,0,.46,1.3,2.4,2.4,0,0,0,.76.87,1.78,1.78,0,0,0,1.05.31,1.74,1.74,0,0,0,1.3-.5,4.12,4.12,0,0,0,.77-1.2l1.53.89a4.77,4.77,0,0,1-1.38,1.88,3.49,3.49,0,0,1-2.29.73,3.72,3.72,0,0,1-3.24-1.69,8.21,8.21,0,0,1-1.18-4.72,10.16,10.16,0,0,1,.32-2.62,6.35,6.35,0,0,1,.88-2,4.18,4.18,0,0,1,1.4-1.32,3.82,3.82,0,0,1,3.67,0,3.74,3.74,0,0,1,1.26,1.27,5.58,5.58,0,0,1,.7,1.89,11.62,11.62,0,0,1,.22,2.34v1ZM142.76,38a5.74,5.74,0,0,0-.49-2.54,1.64,1.64,0,0,0-1.55-1,1.51,1.51,0,0,0-1.05.37,2.93,2.93,0,0,0-.68.9,4.87,4.87,0,0,0-.39,1.15,5.49,5.49,0,0,0-.11,1.08Z"/><path class="cls-1" d="M149.77,43.87a1.43,1.43,0,0,1-.4,1,1.27,1.27,0,0,1-1,.41,1.22,1.22,0,0,1-1-.41,1.42,1.42,0,0,1-.39-1,1.49,1.49,0,0,1,.39-1,1.21,1.21,0,0,1,1-.43,1.25,1.25,0,0,1,1,.43A1.5,1.5,0,0,1,149.77,43.87Z"/></g></g></svg>