<svg id="Group_11_copy_2" data-name="Group 11 copy 2" xmlns="http://www.w3.org/2000/svg" width="361.719" height="369.094" viewBox="0 0 361.719 369.094">
  <defs>
    <style>
      .cls-1 {
        fill: #fff;
      }

      .cls-1, .cls-2 {
        fill-rule: evenodd;
      }

      .cls-2 {
        fill: none;
        stroke: #fff;
        stroke-width: 3px;
      }
    </style>
  </defs>
  <path id="When_a_project_fail" data-name="When a project fail" class="cls-1" d="M91.563,277.811l0.081,0.585,14.623,4.738c1.644,0.5,4.272,1.025,4.4,1.049-0.239.119-2.552,1.249-3.957,2.168L93.9,294.644l0.081,0.585,30.086,6.338-0.789-5.681-11.971-2.51c-2.02-.443-5.174-0.772-5.347-0.79a37.273,37.273,0,0,0,4.894-2.468l10.883-7.173-0.082-.585-12.413-3.854a33.463,33.463,0,0,0-5.381-1.041c0.28-.124,3.142-1.287,4.928-2.217l10.829-5.718-0.858-6.182Zm6.879,35.464,2.058,5.534,10.554-3.926,4.279,11.5-10.553,3.927,2.058,5.534,26.879-10-2.059-5.534-11.384,4.235L116,313.045l11.384-4.235-2.059-5.534Zm13,31.735,9.921,16.864,4.47-2.63L118.9,347.468l5.742-3.378,5.837,9.922,4.362-2.565-5.837-9.923,5.67-3.335,6.628,11.267,4.47-2.63-9.621-16.355Zm30.184,42.513,0.384,0.448L164,369.18l-3.588-4.2-9.136,7.807c-1.506,1.287-3.728,3.685-3.728,3.685a40.791,40.791,0,0,0,.79-5.112l0.926-19.815-0.384-.449-21.989,18.791,3.588,4.2,9.136-7.806a50.744,50.744,0,0,0,3.7-3.718,42.694,42.694,0,0,0-.763,5.144Zm16.621,14.965,4.688,3.229,3.52-2.285,9.166,6.315-0.881,4.1,5.1,3.517,5.612-31.258-0.417-.288Zm12.639-1.994,3.957-2.548c1.784-1.177,4.176-3.164,4.283-3.244-0.1.29-1.054,3.165-1.471,5.182l-0.971,4.6Zm28.387,26.513,5.528,2.072,3.3-8.806,3.91,1.465c5.449,2.042,11.025.98,13.378-5.3s-1.127-10.69-6.616-12.747l-9.437-3.537Zm10.649-11.59,3.122-8.332,3.751,1.406c2.646,0.991,4.033,2.817,2.908,5.818-1.109,2.961-3.306,3.534-6.03,2.513Zm17.317,21.215,5.8,1.12,1.887-9.771,3.685,0.712,3.826,10.875,6.624,1.279-4.361-11.88a8.439,8.439,0,0,0,7.1-7.175c1.272-6.583-2.928-10.186-8.683-11.3l-10.433-2.015Zm8.628-13.536,1.624-8.405,4.471,0.864c2.774,0.536,4.479,1.939,3.871,5.085-0.6,3.105-2.638,3.871-5.494,3.319Zm35.382,19.1A14.719,14.719,0,1,0,256.4,427.483,14.523,14.523,0,0,0,271.245,442.2Zm0-5.272c-5.229,0-8.772-4.09-8.772-9.446s3.542-9.446,8.771-9.447,8.772,4.09,8.772,9.446S276.474,436.928,271.244,436.928Zm29.368,2.85c5.153-.884,8.215-4.232,7.182-10.257l-3.406-19.864-5.818,1,3.392,19.78c0.5,2.909-.578,3.864-2.49,4.191-1.994.342-3.06-.886-4.253-2.35l-4.245,3.679A9.16,9.16,0,0,0,300.612,439.778Zm18.284-4.145,18.575-6.159-1.632-4.924-12.971,4.3-2.1-6.325L331.7,418.9l-1.593-4.8-10.929,3.624-2.071-6.245,12.411-4.115-1.633-4.924-18.015,5.973Zm39.345-15.792A13.5,13.5,0,0,0,365.8,408.6l-5.546-.611c-0.255,2.913-1.237,5.45-4.506,7.206-4.57,2.454-9.588.506-12.122-4.212s-1.346-9.9,3.224-12.357a7.815,7.815,0,0,1,7.905.015l2.459-4.958c-4.162-2.313-8.309-2.191-12.878.262A14.7,14.7,0,1,0,358.241,419.841Zm22.542-15.112,4.631-3.663-14.575-18.425,6.417-5.076-3.219-4.069-17.465,13.816,3.218,4.069,6.418-5.077Zm26.811-24.248,3.906-4.428-8.065-7.113,7.56-8.572-3.953-3.487-7.561,8.571-5.6-4.938,8.314-9.425-3.891-3.431-12.219,13.853Zm15.065-17.208,3.071-4.794-2.4-3.442,6.005-9.374,4.131,0.744,3.343-5.22-31.431-4.561-0.273.426Zm-2.417-12.566-2.679-3.87c-1.236-1.743-3.3-4.068-3.386-4.172,0.294,0.088,3.2.947,5.229,1.3l4.635,0.816ZM440.2,333.648l2.43-5.382-26.141-11.8-2.43,5.382Zm6.553-14.8,5.814-17.974-4.935-1.6-4,12.356-22.347-7.228-1.817,5.616Z" transform="translate(-91.563 -73.094)"/>
  <path id="Ellipse_3_copy_3" data-name="Ellipse 3 copy 3" class="cls-2" d="M99,251a176.391,176.391,0,1,1,349.3,35.034" transform="translate(-91.563 -73.094)"/>
</svg>
