<svg id="Group_11_copy" data-name="Group 11 copy" xmlns="http://www.w3.org/2000/svg" width="357.031" height="369.75" viewBox="0 0 357.031 369.75">
  <defs>
    <style>
      .cls-1 {
        fill: none;
        stroke: #fff;
        stroke-width: 3px;
      }

      .cls-1, .cls-2 {
        fill-rule: evenodd;
      }

      .cls-2 {
        fill: #fff;
      }
    </style>
  </defs>
  <path id="Ellipse_3_copy_2" data-name="Ellipse 3 copy 2" class="cls-1" d="M565.6,285.614a176.394,176.394,0,1,1,338.546,24.858" transform="translate(-559.25 -72.094)"/>
  <path id="turns_into_a_wail." data-name="turns into a wail." class="cls-2" d="M559.259,303.713l1.472,5.718,22.75-5.856,2.04,7.924,5.024-1.294-5.551-21.566-5.024,1.294,2.039,7.923ZM570,336.141c2.691,5.957,7.947,9.088,14.557,6.1l16.678-7.536-2.431-5.38-16.371,7.4c-3.8,1.719-5.994.765-7.591-2.771-1.615-3.574-.9-5.886,2.9-7.6l16.371-7.4-2.431-5.38L575,321.107C568.394,324.094,567.271,330.108,570,336.141Zm10.16,19.137,3.339,4.868,8.207-5.629,2.123,3.1-4.915,10.428,3.816,5.563,5.239-11.519a8.44,8.44,0,0,0,10.092-.122c5.529-3.792,5.07-9.306,1.755-14.14l-6.01-8.762Zm15.649-3.575,7.059-4.842,2.576,3.756c1.6,2.33,1.826,4.525-.817,6.338-2.608,1.789-4.6.9-6.242-1.5Zm18.379,44.979L614.6,397.1l20.539-20.364-3.889-3.922-8.533,8.46c-1.407,1.4-3.445,3.951-3.445,3.951a40.7,40.7,0,0,0,.409-5.156l-0.541-19.828-0.416-.419-20.538,20.364,3.889,3.922,8.532-8.46a50.556,50.556,0,0,0,3.416-3.981,42.643,42.643,0,0,0-.38,5.186Zm15.109,11.777c4.566,3.259,9.654,3.316,12.741-1.009,2.866-4.016,1.84-7.442-1-12.108l-0.834-1.372c-1.422-2.363-1.9-3.583-.869-5.025a2.568,2.568,0,0,1,3.769-.418c1.373,0.98,1.849,2.2,1.62,4.265l5.456,0.267c0.4-3.907-1.032-6.539-4.087-8.719-4.29-3.062-9-2.276-11.568,1.328-2.793,3.912-1.816,7.407.6,11.358l0.834,1.372c1.511,2.529,2.4,4.043,1.222,5.691-0.98,1.373-2.96,1.462-4.951.041-2.368-1.691-2.825-3.882-2.654-6.3l-5.53-.527C623.468,401.089,624.832,405.275,629.294,408.459Zm28,16.025,5.375,2.44,11.852-26.107-5.375-2.44Zm36.758,13.389,0.566,0.168,8.226-27.736-5.3-1.571-3.418,11.523c-0.564,1.9-1.123,5.122-1.123,5.122a40.821,40.821,0,0,0-2.119-4.72l-10.007-17.132-0.566-.168L672.084,431.1l5.3,1.571,3.418-11.523a50.572,50.572,0,0,0,1.082-5.133,42.584,42.584,0,0,0,2.16,4.731Zm17.224,2.5,5.866,0.66,2.628-23.337,8.128,0.916,0.58-5.154-22.122-2.491-0.58,5.153,8.128,0.916Zm34.8,1.434A14.719,14.719,0,1,0,730.283,428.1,14.525,14.525,0,0,0,746.068,441.8Zm-0.348-5.26c-5.218.346-9.024-3.5-9.378-8.846s2.91-9.661,8.128-10.006,9.024,3.5,9.378,8.846S750.938,436.2,745.72,436.542Zm35.44-.477,5.377-1.875L786.773,430l10.515-3.665,2.79,3.136,5.855-2.041-21.911-23-0.478.167Zm5.86-11.379,0.283-4.7c0.1-2.135-.085-5.241-0.087-5.374,0.177,0.251,1.931,2.721,3.313,4.25l3.143,3.5Zm45.573-11.538,0.479-.344-2.625-15.145c-0.328-1.685-1.085-4.256-1.125-4.384,0.216,0.156,2.294,1.674,3.762,2.488l13.309,7.463,0.48-.344-8.421-29.568-4.657,3.348,3.361,11.76c0.55,1.993,1.73,4.936,1.794,5.1a37.243,37.243,0,0,0-4.465-3.177l-11.419-6.278-0.479.345,2.378,12.777a33.469,33.469,0,0,0,1.588,5.246c-0.24-.191-2.6-2.179-4.259-3.325l-10.107-6.91-5.068,3.644Zm22.96-18.539,4.138-3.908-1.5-3.92,8.092-7.643,3.828,1.72,4.506-4.256-29.392-12.023-0.368.348Zm0.693-12.775-1.664-4.4c-0.778-1.99-2.221-4.746-2.277-4.866,0.264,0.156,2.875,1.692,4.76,2.521l4.3,1.913ZM879.7,370.085l3.7-4.6-22.344-17.971-3.7,4.6Zm9.944-12.8,9.933-16.068-4.412-2.727-6.829,11.046-19.977-12.349-3.1,5.021ZM904.8,330.733a3.564,3.564,0,1,0-4.743,1.793A3.519,3.519,0,0,0,904.8,330.733Z" transform="translate(-559.25 -72.094)"/>
</svg>
