<svg id="copy2.svg" xmlns="http://www.w3.org/2000/svg" width="381.875" height="368.156" viewBox="0 0 381.875 368.156">
  <defs>
    <style>
      .cls-1 {
        fill: none;
        stroke: #fff;
        stroke-width: 3px;
      }

      .cls-1, .cls-2 {
        fill-rule: evenodd;
      }

      .cls-2 {
        fill: #fff;
      }
    </style>
  </defs>
  <path id="Ellipse_3_copy_10" data-name="Ellipse 3 copy 10" class="cls-1" d="M878.991,319.068a176.424,176.424,0,0,1-339.714-56.1Q539,258.017,539,253" transform="translate(-523.531 -62.75)"/>
  <path id="BUT_NEVER_LOSE_SUPPORT." data-name="BUT NEVER LOSE SUPPORT." class="cls-2" d="M551.933,243.524l1.582-11.492c0.805-5.85-2.24-9.718-6.878-10.356-3.97-.546-6.322,1.387-7.618,4.614a5.86,5.86,0,0,0-5.21-5.145c-4.3-.592-8.008,1.879-8.8,7.645l-1.49,10.823Zm-4.334-6.558-7.062-.972,0.695-5.056c0.334-2.424,1.962-3.732,4.051-3.445a3.42,3.42,0,0,1,3.057,4.083Zm-12.035-1.656-6.1-.84,0.627-4.554c0.316-2.3,1.588-3.188,3.51-2.924s2.878,1.674,2.551,4.056Zm24.3-28.5c2.02-6.217.242-12.072-6.657-14.315l-17.409-5.657-1.825,5.615,17.088,5.554c3.971,1.29,4.948,3.47,3.749,7.161-1.213,3.73-3.3,4.96-7.269,3.669l-17.087-5.553-1.825,5.615,17.408,5.658C552.933,216.8,557.813,213.113,559.86,206.815Zm9.108-23.008,2.778-5.209-20.723-11.053,3.85-7.218-4.576-2.441L539.819,177.53l4.576,2.441,3.85-7.218Zm30.9-42.082,0.393-.44-21.556-19.3-3.685,4.116,8.956,8.018c1.477,1.322,4.149,3.2,4.149,3.2a40.773,40.773,0,0,0-5.173-.1l-19.767,1.72-0.393.439,21.556,19.3,3.685-4.116-8.956-8.017a50.253,50.253,0,0,0-4.177-3.174,42.632,42.632,0,0,0,5.2.071Zm5.384-5.128,15.41-12.061-3.2-4.085L606.7,128.873l-4.107-5.248,9.067-7.1-3.119-3.986-9.067,7.1-4.055-5.181,10.3-8.058-3.2-4.085-14.946,11.7Zm29.162-21.435,0.5-.308-4.355-31.243-4.895,2.99,1.656,11.937a51.242,51.242,0,0,0,1.514,6.687c-0.306-.258-3.22-2.926-5.293-4.378l-9.971-6.859-5.4,3.3Zm15.5-8.924,18.193-7.193L666.2,94.222l-12.7,5.023-2.45-6.195,10.7-4.233-1.861-4.705-10.7,4.233-2.418-6.117,12.155-4.806L657.016,72.6l-17.644,6.977Zm24.291-9.053,5.774-1.23-2.073-9.734,3.671-.782,7.764,8.521,6.6-1.405-8.65-9.238a8.439,8.439,0,0,0,3.737-9.376c-1.4-6.558-6.669-8.237-12.4-7.016l-10.394,2.214Zm2.664-15.83-1.783-8.373,4.454-.949c2.764-.589,4.881.038,5.548,3.173,0.659,3.093-.918,4.593-3.764,5.2ZM711.254,91.41l18.889,0.3,0.083-5.186-12.986-.208,0.376-23.485-5.9-.095Zm36.426,3.406a14.72,14.72,0,1,0-11.761-17.285A14.525,14.525,0,0,0,747.68,94.816Zm1.007-5.175c-5.133-1-7.83-5.692-6.806-10.949s5.282-8.6,10.416-7.6,7.829,5.692,6.806,10.949S753.821,90.641,748.687,89.641Zm26.519,13.186c5.22,2.053,10.17.872,12.115-4.073,1.806-4.592-.022-7.667-3.9-11.505l-1.142-1.129c-1.954-1.947-2.712-3.015-2.064-4.663a2.569,2.569,0,0,1,3.556-1.321c1.57,0.617,2.328,1.686,2.606,3.744l5.359-1.065c-0.556-3.889-2.589-6.094-6.083-7.467-4.906-1.929-9.281-.024-10.9,4.1-1.759,4.475.037,7.628,3.338,10.874l1.142,1.129c2.08,2.087,3.309,3.34,2.568,5.224-0.617,1.57-2.517,2.137-4.793,1.242-2.709-1.065-3.684-3.08-4.1-5.466l-5.493.831C767.763,97.091,770.1,100.821,775.206,102.827Zm14.085,5.709,17,9.688,2.569-4.505-11.869-6.765,3.3-5.788,10,5.7,2.506-4.4-10-5.7,3.257-5.715,11.356,6.473,2.568-4.506-16.484-9.4ZM825.23,134.18c4.117,3.807,9.157,4.506,12.765.606,3.349-3.622,2.764-7.15.541-12.135l-0.654-1.467c-1.113-2.522-1.431-3.793-.229-5.093a2.569,2.569,0,0,1,3.792.061c1.238,1.145,1.556,2.416,1.068,4.434l5.378,0.954c0.895-3.824-.2-6.616-2.953-9.164-3.869-3.579-8.636-3.393-11.642-.143-3.264,3.529-2.736,7.118-.841,11.341l0.654,1.466c1.18,2.7,1.869,4.314.5,5.8-1.145,1.239-3.121,1.077-4.916-.584-2.136-1.975-2.313-4.206-1.838-6.582l-5.419-1.221C820.381,126.134,821.207,130.458,825.23,134.18ZM843.2,153.862c3.985,5.181,9.819,7.026,15.569,2.6l14.508-11.156-3.6-4.681L855.435,151.58c-3.309,2.545-5.659,2.118-8.025-.957-2.39-3.109-2.225-5.524,1.084-8.069L862.736,131.6l-3.6-4.68L844.628,138.08C838.878,142.5,839.162,148.613,843.2,153.862Zm10.827,14.713,2.722,5.239,8.344-4.335,1.925,3.7c2.683,5.164,7.538,8.107,13.488,5.016s6.315-8.7,3.613-13.9l-4.646-8.943Zm15.669-1.487,7.9-4.1,1.847,3.555c1.3,2.507,1.111,4.792-1.733,6.27-2.806,1.458-4.822.414-6.163-2.168Zm-4.1,24.988,1.829,5.614,8.942-2.913,1.293,3.969c1.8,5.534,6.112,9.231,12.488,7.154s7.653-7.55,5.837-13.124l-3.122-9.583Zm15.7,1.094,8.461-2.757,1.241,3.81c0.875,2.686.313,4.91-2.734,5.9-3.008.98-4.826-.379-5.727-3.146Zm-6.449,37.772A14.717,14.717,0,1,0,887.6,214.377,14.522,14.522,0,0,0,874.851,230.942Zm5.23-.658c-0.654-5.188,2.962-9.213,8.275-9.883s9.814,2.334,10.467,7.522-2.962,9.213-8.275,9.882S880.734,235.472,880.081,230.284ZM876.8,251.557l-0.409,5.89,9.929,0.691-0.261,3.745L875.728,267l-0.468,6.732,11.266-5.769a8.442,8.442,0,0,0,7.983,6.178c6.69,0.465,9.758-4.141,10.165-9.989l0.738-10.6Zm14.484,6.927,8.541,0.594-0.316,4.544c-0.2,2.819-1.383,4.681-4.58,4.458-3.156-.219-4.163-2.149-3.961-5.052ZM872.857,284.57l-1.368,5.743,22.851,5.444-1.895,7.959,5.046,1.2,5.16-21.662-5.047-1.2-1.9,7.959Zm-4.749,16.2a3.563,3.563,0,1,0,4.535-2.267A3.519,3.519,0,0,0,868.108,300.773Z" transform="translate(-523.531 -62.75)"/>
</svg>
