<?xml version="1.0" encoding="utf-8"?>
<!-- Generator: Adobe Illustrator 22.1.0, SVG Export Plug-In . SVG Version: 6.00 Build 0)  -->
<svg version="1.1" id="Layer_1" xmlns="http://www.w3.org/2000/svg" xmlns:xlink="http://www.w3.org/1999/xlink" x="0px" y="0px"
	 viewBox="0 0 284.4 284.4" style="enable-background:new 0 0 284.4 284.4;" xml:space="preserve">
<style type="text/css">
	.st0{enable-background:new    ;}
	.st1{fill:#FFE99B;}
</style>
<g id="_4_are_waiting_on_dial-up." class="st0">
	<path class="st1" d="M10.8,14.5H9.2v3H7.6v-3H2v-1.2l5.2-8.9h2.1v8.7h1.6L10.8,14.5L10.8,14.5z M7.6,13.2V6l-4.1,7.2H7.6z"/>
	<path class="st1" d="M33.3,17.6h-1.4c-0.1-0.4-0.2-0.9-0.2-1.6c-0.8,1.2-1.9,1.8-3.4,1.8c-0.7,0-1.3-0.3-1.9-0.8
		c-0.5-0.5-0.8-1.2-0.8-2c0-0.5,0.1-0.9,0.3-1.3c0.2-0.4,0.5-0.7,0.8-0.9c0.4-0.3,0.8-0.4,1.4-0.6c0.5-0.1,1.2-0.2,1.9-0.3l1.6-0.1
		v-0.5c0-1.7-0.8-2.5-2.3-2.5c-0.4,0-0.8,0.1-1.4,0.2c-0.6,0.2-1,0.3-1.4,0.6l-0.4-1c1.3-0.7,2.5-1,3.7-1c2.2,0,3.3,1.2,3.3,3.5v4.2
		C33.1,16.2,33.2,16.9,33.3,17.6z M31.6,14.7v-1.8c-1.3,0.1-2.2,0.2-2.7,0.3s-0.9,0.3-1.3,0.6s-0.5,0.7-0.5,1.1s0.2,0.8,0.5,1
		c0.3,0.3,0.7,0.4,1.2,0.4s1-0.2,1.5-0.5C30.8,15.7,31.2,15.2,31.6,14.7z"/>
	<path class="st1" d="M44.6,8.2L44,9.5c-0.6-0.3-1.2-0.4-1.7-0.4c-0.4,0-0.8,0.1-1.3,0.4c-0.5,0.3-0.8,0.6-1.1,1
		c-0.2,0.5-0.4,0.8-0.4,0.8v6.3h-1.4V7.9h1.4v2c0.8-1.5,1.8-2.2,3-2.2C43.2,7.7,43.9,7.8,44.6,8.2z"/>
	<path class="st1" d="M56.2,12.8h-6.6c0,1.1,0.3,2,1,2.7c0.6,0.7,1.4,1.1,2.3,1.1c0.9,0,1.8-0.2,2.7-0.5l0.3,1.2
		c-0.9,0.4-1.8,0.6-3,0.6c-1.4,0-2.6-0.5-3.5-1.4c-0.9-1-1.4-2.2-1.4-3.8c0-1.5,0.4-2.8,1.2-3.7C50,8.1,51,7.7,52.3,7.7
		c1.1,0,2,0.4,2.8,1.3c0.7,0.8,1.1,2,1.1,3.4C56.2,12.4,56.2,12.8,56.2,12.8z M54.6,11.6c0-0.8-0.2-1.4-0.7-1.9s-1-0.8-1.6-0.8
		c-0.7,0-1.4,0.2-1.9,0.7s-0.8,1.1-0.8,1.9h5V11.6z"/>
	<path class="st1" d="M79.8,7.9l-1.4,9.7h-1.1L75,12.1l-2.3,5.5h-1.1l-1.4-9.7h1.4c0.5,4.5,0.8,6.9,0.8,7.1l1.8-4.2h1.5l1.8,4.2
		l0.8-7.1H79.8z"/>
	<path class="st1" d="M90.3,17.6h-1.4c-0.1-0.4-0.2-0.9-0.2-1.6c-0.8,1.2-1.9,1.8-3.4,1.8c-0.7,0-1.3-0.3-1.9-0.8
		c-0.5-0.5-0.8-1.2-0.8-2c0-0.5,0.1-0.9,0.3-1.3c0.2-0.4,0.5-0.7,0.8-0.9c0.4-0.3,0.8-0.4,1.4-0.6c0.5-0.1,1.2-0.2,1.9-0.3l1.6-0.1
		v-0.5c0-1.7-0.8-2.5-2.3-2.5c-0.4,0-0.8,0.1-1.4,0.2c-0.6,0.2-1,0.3-1.4,0.6l-0.4-1c1.3-0.7,2.5-1,3.7-1c2.2,0,3.3,1.2,3.3,3.5v4.2
		C90.1,16.2,90.2,16.9,90.3,17.6z M88.6,14.7v-1.8c-1.3,0.2-2.2,0.3-2.6,0.4c-0.5,0.1-0.9,0.3-1.3,0.6s-0.5,0.7-0.5,1.1
		s0.2,0.8,0.5,1c0.3,0.3,0.7,0.4,1.2,0.4s1-0.2,1.5-0.5C87.8,15.7,88.3,15.2,88.6,14.7z"/>
	<path class="st1" d="M99.1,17.6h-1.4V9.2h-2.8V7.9h4.3L99.1,17.6L99.1,17.6z M98.4,4.2c0.3,0,0.5,0.1,0.7,0.3s0.3,0.4,0.3,0.7
		s-0.1,0.5-0.3,0.7c-0.2,0.2-0.4,0.3-0.7,0.3c-0.3,0-0.5-0.1-0.7-0.3s-0.3-0.4-0.3-0.7s0.1-0.5,0.3-0.7C97.9,4.3,98.1,4.2,98.4,4.2z
		"/>
	<path class="st1" d="M113,17.1c-1,0.4-1.9,0.7-2.9,0.7c-1.7,0-2.6-0.9-2.6-2.7V9.2h-1.9V7.9h1.9V5.3h1.4v2.6h3.3v1.3h-3.3v5.5
		c0,0.6,0.1,1,0.4,1.4c0.3,0.3,0.6,0.5,1.1,0.5c0.8,0,1.6-0.2,2.3-0.5L113,17.1z"/>
	<path class="st1" d="M121.9,17.6h-1.4V9.2h-2.8V7.9h4.3L121.9,17.6L121.9,17.6z M121.2,4.2c0.3,0,0.5,0.1,0.7,0.3s0.3,0.4,0.3,0.7
		s-0.1,0.5-0.3,0.7c-0.2,0.2-0.4,0.3-0.7,0.3c-0.3,0-0.5-0.1-0.7-0.3s-0.3-0.4-0.3-0.7s0.1-0.5,0.3-0.7
		C120.7,4.3,120.9,4.2,121.2,4.2z"/>
	<path class="st1" d="M135.7,17.6h-1.4v-6.2c0-0.9-0.1-1.5-0.4-1.9c-0.3-0.4-0.7-0.6-1.3-0.6c-0.9,0-1.8,0.6-2.8,1.7v7h-1.4V7.9h1.4
		v1.4c1-1.1,2.1-1.7,3.3-1.7c1.8,0,2.7,1.1,2.7,3.3v6.7H135.7z"/>
	<path class="st1" d="M142.3,13.9c-0.9,0.4-1.4,0.8-1.4,1.2c0,0.2,0.1,0.3,0.3,0.5c0.2,0.1,0.5,0.2,0.8,0.2l3.3-0.1
		c0.8,0,1.4,0.2,1.8,0.6c0.4,0.4,0.6,0.9,0.6,1.6c0,1.1-0.5,2-1.5,2.6c-1,0.7-2.1,1-3.4,1c-1.1,0-1.9-0.2-2.6-0.7
		c-0.7-0.4-1-1-1-1.7c0-0.8,0.5-1.4,1.6-2c-0.9-0.4-1.3-0.9-1.3-1.5c0-0.7,0.6-1.3,1.7-1.9c-0.5-0.3-0.9-0.7-1.2-1.2s-0.4-1-0.4-1.6
		c0-0.9,0.3-1.7,0.9-2.2c0.6-0.6,1.4-0.9,2.3-0.9c0.7,0,1.3,0.1,1.8,0.4l2.9-0.4v1.4h-1.8c0.3,0.5,0.4,1.1,0.4,1.7
		c0,0.9-0.3,1.6-0.9,2.2c-0.6,0.6-1.4,0.9-2.3,0.9C142.7,13.9,142.5,13.9,142.3,13.9z M142.9,20.3c1,0,1.8-0.2,2.4-0.6
		c0.7-0.4,1-0.9,1-1.6c0-0.6-0.5-1-1.4-1c-0.3,0-0.9,0-1.6,0.1c-0.5,0-0.9,0-1.2,0c-0.1,0-0.3,0.1-0.6,0.3c-0.3,0.2-0.5,0.4-0.7,0.7
		c-0.2,0.2-0.2,0.5-0.2,0.7c0,0.4,0.2,0.7,0.6,1C141.7,20.1,142.3,20.3,142.9,20.3z M142.9,12.8c0.5,0,1-0.2,1.3-0.6
		c0.3-0.4,0.5-0.8,0.5-1.4s-0.2-1.1-0.5-1.5s-0.8-0.5-1.3-0.5S142,9,141.6,9.4c-0.3,0.4-0.5,0.8-0.5,1.4s0.2,1.1,0.5,1.4
		C141.9,12.6,142.4,12.8,142.9,12.8z"/>
	<path class="st1" d="M166.2,7.7c1.3,0,2.4,0.5,3.2,1.4s1.2,2.1,1.2,3.7c0,1.5-0.4,2.8-1.2,3.7c-0.8,0.9-1.8,1.4-3.2,1.4
		c-1.3,0-2.4-0.5-3.2-1.4s-1.2-2.2-1.2-3.7s0.4-2.7,1.2-3.7S164.8,7.7,166.2,7.7z M166.2,16.5c0.9,0,1.6-0.4,2.1-1.1
		c0.5-0.7,0.8-1.6,0.8-2.7s-0.3-2-0.8-2.7s-1.2-1.1-2.1-1.1c-0.9,0-1.6,0.4-2.1,1.1c-0.5,0.7-0.7,1.6-0.7,2.8c0,1.1,0.3,2,0.8,2.7
		C164.6,16.2,165.3,16.5,166.2,16.5z"/>
	<path class="st1" d="M181.3,17.6h-1.4v-6.2c0-0.9-0.1-1.5-0.4-1.9c-0.3-0.4-0.7-0.6-1.3-0.6c-0.9,0-1.8,0.6-2.8,1.7v7H174V7.9h1.4
		v1.4c1-1.1,2.1-1.7,3.3-1.7c1.8,0,2.7,1.1,2.7,3.3L181.3,17.6L181.3,17.6z"/>
	<path class="st1" d="M204.1,17.6h-1.4v-1.4c-0.3,0.5-0.7,0.9-1.3,1.2c-0.6,0.3-1.1,0.5-1.7,0.5c-1.1,0-2-0.5-2.6-1.5s-1-2.2-1-3.8
		c0-1.4,0.3-2.6,1-3.5s1.6-1.4,2.7-1.4c1.2,0,2.2,0.5,2.9,1.5V4.5h1.4L204.1,17.6L204.1,17.6z M202.6,14.6v-4
		c-0.7-1.1-1.5-1.7-2.5-1.7c-0.8,0-1.4,0.4-1.9,1.1c-0.5,0.7-0.7,1.6-0.7,2.7s0.2,2,0.7,2.8c0.4,0.7,1,1.1,1.8,1.1
		c0.4,0,0.7-0.1,1.1-0.3c0.4-0.2,0.7-0.5,1-0.9C202.5,14.9,202.6,14.7,202.6,14.6z"/>
	<path class="st1" d="M213.1,17.6h-1.4V9.2h-2.8V7.9h4.3v9.7H213.1z M212.4,4.2c0.3,0,0.5,0.1,0.7,0.3s0.3,0.4,0.3,0.7
		s-0.1,0.5-0.3,0.7s-0.4,0.3-0.7,0.3s-0.5-0.1-0.7-0.3s-0.3-0.4-0.3-0.7s0.1-0.5,0.3-0.7S212.1,4.2,212.4,4.2z"/>
	<path class="st1" d="M227.1,17.6h-1.4c-0.1-0.4-0.2-0.9-0.2-1.6c-0.8,1.2-1.9,1.8-3.4,1.8c-0.7,0-1.3-0.3-1.9-0.8
		c-0.5-0.5-0.8-1.2-0.8-2c0-0.5,0.1-0.9,0.3-1.3c0.2-0.4,0.5-0.7,0.8-0.9c0.4-0.3,0.8-0.4,1.4-0.6c0.5-0.1,1.2-0.2,1.9-0.3l1.6-0.1
		v-0.5c0-1.7-0.8-2.5-2.3-2.5c-0.4,0-0.8,0.1-1.4,0.2c-0.6,0.2-1,0.3-1.4,0.6l-0.4-1c1.3-0.7,2.5-1,3.7-1c2.2,0,3.3,1.2,3.3,3.5v4.2
		C226.9,16.2,227,16.9,227.1,17.6z M225.5,14.7v-1.8c-1.3,0.1-2.2,0.2-2.7,0.3s-0.9,0.3-1.3,0.6c-0.4,0.3-0.5,0.7-0.5,1.1
		s0.2,0.8,0.5,1s0.7,0.4,1.2,0.4s1-0.2,1.5-0.5C224.6,15.7,225.1,15.2,225.5,14.7z"/>
	<path class="st1" d="M237.6,17.6h-4V5.8h-2.5V4.5h4v11.8h2.5V17.6z"/>
	<path class="st1" d="M248.6,13h-5.5v-1.4h5.5V13z"/>
	<path class="st1" d="M261.1,17.6h-1.4v-1.4c-1,1.1-2.1,1.7-3.3,1.7c-1.8,0-2.7-1.1-2.7-3.3V8h1.4v6.2c0,0.8,0.1,1.4,0.4,1.8
		c0.3,0.4,0.7,0.6,1.3,0.6c0.9,0,1.8-0.6,2.8-1.7v-7h1.4v9.7H261.1z"/>
	<path class="st1" d="M266.5,9.1c0.3-0.4,0.8-0.8,1.3-1.1s1.1-0.4,1.7-0.4c1.1,0,2,0.5,2.6,1.4s1,2.1,1,3.6s-0.3,2.7-1,3.7
		s-1.6,1.5-2.7,1.5c-0.6,0-1.2-0.1-1.7-0.4s-0.9-0.7-1.2-1.2v5.2h-1.4V7.9h1.4L266.5,9.1L266.5,9.1z M266.5,10.6v4
		c0.3,0.5,0.6,1,1.1,1.4s0.9,0.5,1.4,0.5c0.8,0,1.4-0.4,1.9-1.1s0.7-1.6,0.7-2.7s-0.2-2-0.7-2.7c-0.4-0.7-1.1-1.1-1.8-1.1
		C268.1,8.9,267.2,9.5,266.5,10.6z"/>
	<path class="st1" d="M280.1,15.4c0.3,0,0.6,0.1,0.8,0.3c0.2,0.2,0.3,0.5,0.3,0.8s-0.1,0.6-0.3,0.9c-0.2,0.2-0.5,0.4-0.8,0.4
		s-0.6-0.1-0.8-0.4c-0.2-0.2-0.3-0.5-0.3-0.9s0.1-0.6,0.3-0.8S279.8,15.4,280.1,15.4z"/>
</g>
</svg>
