<svg xmlns="http://www.w3.org/2000/svg" width="360.906" height="365.25" viewBox="0 0 360.906 365.25">
  <defs>
    <style>
      .cls-1 {
        fill: none;
        stroke: #fff;
        stroke-width: 3px;
      }

      .cls-1, .cls-2 {
        fill-rule: evenodd;
      }

      .cls-2 {
        fill: #fff;
      }
    </style>
  </defs>
  <path id="Ellipse_3_copy_3" data-name="Ellipse 3 copy 3" class="cls-1" d="M895.781,250a176.391,176.391,0,1,1-343.662-56.132" transform="translate(-541.5 -62.625)"/>
  <path id="WHEN_IT_S_GO-TIME." data-name="WHEN IT’S GO-TIME." class="cls-2" d="M575.771,171.847l0.339-.483-7.479-13.432c-0.867-1.482-2.43-3.66-2.51-3.767,0.256,0.076,2.719.824,4.374,1.108l15.031,2.656,0.339-.484-17.713-25.136-3.292,4.7L571.916,147c1.177,1.7,3.263,4.089,3.377,4.221a37.183,37.183,0,0,0-5.265-1.527l-12.855-2.161-0.339.484,6.465,11.278a33.358,33.358,0,0,0,3.231,4.428c-0.29-.1-3.178-1.2-5.119-1.734L549.585,158.8,546,163.91Zm20-26.462,4.409-3.926L592.7,133.05l9.165-8.16,7.487,8.409,4.409-3.926L594.69,107.958l-4.409,3.926,8.076,9.07-9.165,8.159-8.075-9.07-4.409,3.926Zm23.691-20.549L635.6,113.774l-2.933-4.278L621.4,117.221l-3.767-5.5,9.5-6.508-2.861-4.174-9.5,6.509-3.719-5.426,10.781-7.391-2.932-4.278-15.651,10.728Zm43.062-23.68,0.538-.242-11.83-26.4-5.042,2.259,4.915,10.97c0.81,1.809,2.485,4.618,2.485,4.618a40.783,40.783,0,0,0-4.684-2.2l-18.755-6.478-0.539.241,11.831,26.4,5.042-2.26-4.915-10.969a50.512,50.512,0,0,0-2.523-4.6,42.632,42.632,0,0,0,4.721,2.183Zm17.787-5.249,5.765-1.269-6.165-28L674.149,67.9ZM699.8,92.495l5.879-.548L703.5,68.558l8.147-.759-0.482-5.165L688.994,64.7l0.481,5.165,8.146-.759Zm19.562-18.7,2.74,0.077,2.651-4.23a6.981,6.981,0,0,0,1.367-3.59,3.417,3.417,0,1,0-5.021,2.981ZM739.48,93.444c5.555,0.782,10.1-1.518,10.836-6.78,0.688-4.886-1.805-7.452-6.475-10.282l-1.373-.832c-2.354-1.439-3.339-2.3-3.093-4.056a2.569,2.569,0,0,1,3.151-2.112c1.671,0.235,2.657,1.1,3.406,3.035l4.964-2.283c-1.445-3.653-3.935-5.324-7.653-5.847-5.22-.735-9.032,2.136-9.649,6.521-0.67,4.761,1.811,7.41,5.776,9.8l1.374,0.832c2.508,1.546,4,2.479,3.713,4.484-0.235,1.67-1.951,2.664-4.373,2.323-2.882-.406-4.3-2.138-5.264-4.361l-5.149,2.086C730.907,89.6,734.051,92.68,739.48,93.444Zm39.166,10.763a18.641,18.641,0,0,0,11.452,1.044l4.812-11.882L783.5,88.746l-1.947,4.808,6.41,2.6-1.741,4.3a14.16,14.16,0,0,1-5.6-1.128c-5.589-2.264-7.259-7.353-5.248-12.317s6.641-7.411,11.449-5.464a7.94,7.94,0,0,1,4.959,4.83l5.2-2.17c-1.176-3.388-3.828-5.827-8.167-7.584-8.013-3.245-15.89.253-19.072,8.109S769.968,100.693,778.646,104.207Zm27.766,15.059a14.718,14.718,0,1,0-4.049-20.507A14.523,14.523,0,0,0,806.412,119.266Zm2.954-4.366c-4.332-2.93-4.974-8.3-1.973-12.739s8.227-5.84,12.558-2.91,4.974,8.3,1.973,12.739S813.7,117.83,809.366,114.9Zm18.986,9.442,7.7,7.2,3.454-3.7-7.7-7.2Zm8.259,20.891,3.828,4.494L858.322,134.5l5.306,6.229,3.949-3.364-14.439-16.952-3.949,3.364L854.494,130Zm12.169,15.64,3.236,4.937L876,150.093l-3.236-4.938Zm7.564,10.958,2.325,5.149,9.8-4.424c1.768-.8,4.487-2.257,4.487-2.257a50.4,50.4,0,0,0-2.423,4.471l-3.46,7.808,0.225,0.5,8.146,2.568a50.641,50.641,0,0,0,4.956,1.14s-2.893,1.074-4.66,1.873l-9.8,4.424,2.343,5.188,26.4-11.921-0.209-.461-19.868-6.3,8.329-19.259-0.19-.423Zm13.825,33.546,4.431,19.061,5.053-1.175-3.094-13.31,6.49-1.508,2.607,11.214,4.929-1.146L887.978,207.3l6.409-1.49,2.96,12.734,5.053-1.175-4.3-18.485Zm5.171,28.714a3.564,3.564,0,1,0,3.188-3.942A3.519,3.519,0,0,0,875.34,234.091Z" transform="translate(-541.5 -62.625)"/>
</svg>
