<svg id="CIRCLE_copy" data-name="CIRCLE copy" xmlns="http://www.w3.org/2000/svg" width="375.344" height="365.844" viewBox="0 0 375.344 365.844">
  <defs>
    <style>
      .cls-1 {
        fill: none;
        stroke: #fff;
        stroke-width: 3px;
      }

      .cls-1, .cls-2 {
        fill-rule: evenodd;
      }

      .cls-2 {
        fill: #fff;
      }
    </style>
  </defs>
  <path class="cls-1" d="M437.881,267.933A176.406,176.406,0,1,1,87.813,224.614" transform="translate(-74.5 -62.031)"/>
  <path id="KNOW_YOUR_WAIT-TIME" data-name="KNOW YOUR WAIT-TIME" class="cls-2" d="M101.618,214.425l1.914-5.586-7.9-2.707-2.25-3.714,13.527-3.434,2.311-6.743-18.742,4.991L81.761,183.9l-2.174,6.343,6.808,10.448a22.232,22.232,0,0,0,3.409,3.843,46.882,46.882,0,0,0-4.425-1.918L76.4,199.542l-1.914,5.586ZM122.474,168.5l0.288-.516L97.513,153.855l-2.7,4.822,10.489,5.868c1.73,0.968,4.75,2.222,4.75,2.222a40.683,40.683,0,0,0-5.071,1.03L86.07,173.791l-0.288.515,25.249,14.126,2.7-4.822-10.489-5.868a50.614,50.614,0,0,0-4.77-2.186,42.483,42.483,0,0,0,5.091-1.066Zm12.985-16.326a14.718,14.718,0,1,0-20.843,1.594A14.523,14.523,0,0,0,135.459,152.17Zm-3.986-3.449c-3.422,3.954-8.833,3.956-12.883.451s-4.825-8.86-1.4-12.814,8.833-3.956,12.883-.452S134.9,144.767,131.473,148.721Zm22.725-15.8,0.456-.375-3.6-14.941c-0.436-1.661-1.358-4.178-1.405-4.3,0.225,0.142,2.4,1.523,3.914,2.241l13.763,6.591,0.456-.375L157.47,92.8l-4.43,3.64,4.113,11.517c0.678,1.954,2.045,4.814,2.119,4.971a37.066,37.066,0,0,0-4.66-2.883l-11.8-5.53-0.456.374,3.2,12.6a33.372,33.372,0,0,0,1.924,5.131c-0.253-.174-2.739-2.006-4.465-3.043l-10.532-6.245-4.821,3.961Zm41.357-27.46L201,103.074l-4.379-10.007,1.382-19.986-5.563,2.435-0.427,8.7c-0.121,2.355.116,5.842,0.116,5.842s-2.512-2.584-4.289-4.016l-6.837-5.525-6.066,2.654,16.405,12.663Zm28.97-9.608a14.717,14.717,0,1,0-17.891-10.806A14.521,14.521,0,0,0,224.525,95.85Zm-1.241-5.123c-5.082,1.231-9.487-1.909-10.748-7.114s1.217-10.014,6.3-11.245,9.487,1.909,10.748,7.114S228.366,89.5,223.284,90.727Zm32.62,0.767c6.532-.25,11.413-3.939,11.135-11.188l-0.7-18.289-5.9.226,0.687,17.952c0.159,4.172-1.549,5.841-5.426,5.989-3.92.15-5.793-1.382-5.952-5.554l-0.687-17.952-5.9.226,0.7,18.289C244.139,88.441,249.288,91.747,255.9,91.494Zm17.844-.391,5.846,0.821,1.384-9.854,3.717,0.522,4.378,10.664,6.681,0.938-4.965-11.64a8.439,8.439,0,0,0,6.72-7.529c0.933-6.639-3.446-10.022-9.25-10.837l-10.523-1.478Zm7.922-13.961,1.191-8.477L287.37,69.3c2.8,0.393,4.572,1.707,4.127,4.88-0.44,3.132-2.436,4-5.317,3.6Zm36.023,24.03,0.541,0.237,11.705-9.961c1.285-1.14,3.114-3.1,3.2-3.2-0.024.266-.276,2.827-0.231,4.505l0.338,15.258,0.541,0.238,21.179-22.287-5.249-2.309L341.3,92.53c-1.437,1.487-3.371,4-3.477,4.137a37.281,37.281,0,0,0,.467-5.461l-0.4-13.027-0.54-.238-9.793,8.546a33.38,33.38,0,0,0-3.709,4.035c0.041-.3.552-3.35,0.7-5.359l0.813-12.218-5.713-2.512Zm23.6,10.51,4.691,3.225,3.518-2.289,9.173,6.306-0.877,4.1,5.108,3.512,5.58-31.266-0.417-.287Zm12.637-2.007,3.954-2.552c1.783-1.179,4.174-3.169,4.281-3.249-0.1.291-1.051,3.166-1.466,5.184l-0.966,4.606ZM366,129.808l4.393,3.944,19.158-21.338-4.394-3.944Zm13.533,13.2,3.891,4.44,17.667-15.478,5.391,6.153,3.9-3.418-14.672-16.747-3.9,3.418,5.39,6.154Zm16.836,6.281,6.045,8.636,4.146-2.9-6.046-8.636Zm3.353,21.437,2.846,5.174,20.585-11.323,3.944,7.17,4.546-2.5L420.905,149.73l-4.545,2.5L420.3,159.4Zm8.445,16.959,2.214,5.473L436.959,182.4l-2.214-5.473Zm5.023,11.426,1.313,5.5,10.458-2.5c1.887-.451,4.832-1.371,4.832-1.371a50.6,50.6,0,0,0-3.222,3.934l-4.871,7.016,0.127,0.534,7.516,4.058a50.792,50.792,0,0,0,4.652,2.053s-3.043.51-4.929,0.961l-10.459,2.5,1.323,5.537L448.1,220.6l-0.117-.492-18.326-9.93,11.812-17.344-0.108-.452Zm7.176,34.708,0.852,19.551,5.183-.226L425.8,239.489l6.657-.29,0.5,11.5,5.056-.22-0.5-11.5,6.573-.287,0.569,13.062,5.182-.226-0.826-18.96Z" transform="translate(-74.5 -62.031)"/>
</svg>
