<?xml version="1.0" encoding="utf-8"?>
<!-- Generator: Adobe Illustrator 23.0.1, SVG Export Plug-In . SVG Version: 6.00 Build 0)  -->
<svg version="1.1" id="Layer_1" xmlns="http://www.w3.org/2000/svg" xmlns:xlink="http://www.w3.org/1999/xlink" x="0px" y="0px"
	 viewBox="0 0 800 800" style="enable-background:new 0 0 800 800;" xml:space="preserve">
<style type="text/css">
	.st0{fill:#A1A6B5;}
	.st1{fill:#FFFDFA;}
	.st2{fill:#E6EBED;}
	.st3{fill:none;}
</style>
<title>poof</title>
<g>
	<polygon class="st0" points="261.8,395.1 268.8,391 268.8,399.8 261.8,403.9 	"/>
	<polygon class="st0" points="261.8,386.4 268.9,382.3 268.8,391 261.8,395.1 	"/>
	<polygon class="st0" points="261.8,377.6 268.9,373.5 268.9,382.3 261.8,386.4 	"/>
	<polygon class="st0" points="261.9,368.9 268.9,364.8 268.9,373.5 261.8,377.6 	"/>
	<polygon class="st0" points="292.3,377.7 299.3,373.6 299.3,382.4 292.3,386.5 	"/>
	<polygon class="st0" points="284.7,355.9 291.8,351.8 291.8,360.5 284.7,364.6 	"/>
	<polygon class="st1" points="262,325.2 269,321.1 276.6,325.5 269.6,329.6 	"/>
	<polygon class="st1" points="246.8,299 253.9,294.9 261.5,299.3 254.4,303.4 	"/>
	<polygon class="st0" points="299.9,373.4 307,369.3 306.9,378 299.9,382.1 	"/>
	<polygon class="st0" points="284.8,347.1 291.8,343 291.8,351.8 284.7,355.9 	"/>
	<polygon class="st1" points="269.6,329.6 276.6,325.5 284.2,329.9 277.2,334 	"/>
	<polygon class="st1" points="254.4,303.4 261.5,299.3 269.1,303.7 262,307.8 	"/>
	<polygon class="st0" points="300,364.6 307,360.5 307,369.3 299.9,373.4 	"/>
	<polygon class="st0" points="284.8,338.4 291.8,334.3 291.8,343 284.8,347.1 	"/>
	<polygon class="st1" points="277.2,334 284.2,329.9 291.8,334.3 284.8,338.4 	"/>
	<polygon class="st1" points="262,307.8 269.1,303.7 276.7,308 269.6,312.1 	"/>
	<polygon class="st0" points="300,355.9 307,351.8 307,360.5 300,364.6 	"/>
	<polygon class="st1" points="269.6,312.1 276.7,308 284.3,312.4 277.2,316.5 	"/>
	<polygon class="st0" points="300,347.2 307,343.1 307,351.8 300,355.9 	"/>
	<polygon class="st1" points="277.2,316.5 284.3,312.4 291.9,316.8 284.8,320.9 	"/>
	<polygon class="st0" points="300,338.4 307.1,334.3 307,343.1 300,347.2 	"/>
	<polygon class="st1" points="292.4,334 299.5,329.9 307.1,334.3 300,338.4 	"/>
	<polygon class="st0" points="292.4,325.3 299.5,321.2 299.5,329.9 292.4,334 	"/>
	<polygon class="st1" points="284.8,320.9 291.9,316.8 299.5,321.2 292.4,325.3 	"/>
</g>
<g>
	<polygon class="st0" points="367.1,476.5 374.2,472.4 374.2,481.2 367.1,485.3 	"/>
	<polygon class="st0" points="359.6,454.7 366.6,450.6 366.6,459.3 359.6,463.4 	"/>
	<polygon class="st0" points="374.8,472.2 381.8,468.1 381.8,476.8 374.7,480.9 	"/>
	<polygon class="st0" points="359.6,445.9 366.7,441.8 366.6,450.6 359.6,454.7 	"/>
	<polygon class="st0" points="374.8,463.4 381.8,459.4 381.8,468.1 374.8,472.2 	"/>
	<polygon class="st0" points="359.6,437.2 366.7,433.1 366.7,441.8 359.6,445.9 	"/>
	<polygon class="st0" points="374.8,454.7 381.9,450.6 381.8,459.4 374.8,463.4 	"/>
	<polygon class="st0" points="359.7,428.5 366.7,424.4 366.7,433.1 359.6,437.2 	"/>
	<polygon class="st1" points="321.7,371.6 328.8,367.5 336.4,371.9 329.3,375.9 	"/>
	<polygon class="st0" points="374.8,446 381.9,441.9 381.9,450.6 374.8,454.7 	"/>
	<polygon class="st0" points="359.7,419.7 366.7,415.6 366.7,424.4 359.7,428.5 	"/>
	<polygon class="st1" points="336.9,389.1 344,385 351.6,389.4 344.5,393.5 	"/>
	<polygon class="st0" points="374.9,437.2 381.9,433.1 381.9,441.9 374.8,446 	"/>
	<polygon class="st0" points="359.7,411 366.8,406.9 366.7,415.6 359.7,419.7 	"/>
	<polygon class="st1" points="344.5,393.5 351.6,389.4 359.2,393.8 352.1,397.9 	"/>
	<polygon class="st1" points="329.4,367.2 336.4,363.1 344,367.5 337,371.6 	"/>
	<polygon class="st0" points="374.9,428.5 381.9,424.4 381.9,433.1 374.9,437.2 	"/>
	<polygon class="st1" points="352.1,397.9 359.2,393.8 366.8,398.1 359.7,402.2 	"/>
	<polygon class="st0" points="359.7,402.2 366.8,398.1 366.8,406.9 359.7,411 	"/>
	<polygon class="st2" points="359.7,411 359.7,419.7 359.7,428.5 359.6,437.2 359.6,445.9 359.6,454.7 359.6,463.4 352,459 
		344.4,454.6 336.8,450.2 336.8,441.5 336.8,432.8 336.8,424 336.9,415.3 336.9,406.6 336.9,397.8 336.9,389.1 344.5,393.5 
		352.1,397.9 359.7,402.2 	"/>
	<polygon class="st1" points="337,371.6 344,367.5 351.6,371.9 344.6,376 	"/>
	<polygon class="st0" points="374.9,419.8 382,415.7 381.9,424.4 374.9,428.5 	"/>
	<polygon class="st1" points="344.6,376 351.6,371.9 359.2,376.3 352.2,380.4 	"/>
	<polygon class="st0" points="374.9,411 382,406.9 382,415.7 374.9,419.8 	"/>
	<polygon class="st1" points="352.2,380.4 359.2,376.3 366.8,380.7 359.8,384.8 	"/>
	<polygon class="st0" points="375,402.3 382,398.2 382,406.9 374.9,411 	"/>
	<polygon class="st1" points="367.4,397.9 374.4,393.8 382,398.2 375,402.3 	"/>
	<polygon class="st0" points="367.4,389.2 374.4,385.1 374.4,393.8 367.4,397.9 	"/>
	<polygon class="st1" points="359.8,384.8 366.8,380.7 374.4,385.1 367.4,389.2 	"/>
	<polygon class="st2" points="367.4,397.9 375,402.3 374.9,411 374.9,419.8 374.9,428.5 374.9,437.2 374.8,446 374.8,454.7 
		374.8,463.4 374.8,472.2 374.7,480.9 367.1,476.5 367.1,485.3 359.5,480.9 351.9,476.5 344.3,472.1 336.7,467.7 329.1,463.3 
		329.1,454.6 321.5,450.2 321.5,441.5 321.6,432.7 321.6,424 321.6,415.2 321.6,406.5 321.7,397.8 321.7,389 321.7,380.3 
		321.7,371.6 329.3,375.9 329.4,367.2 337,371.6 344.6,376 352.2,380.4 359.8,384.8 367.4,389.2 	"/>
</g>
<g>
	<polygon class="st0" points="445.1,485 452.1,480.9 452.1,489.6 445.1,493.7 	"/>
	<polygon class="st0" points="437.5,463.1 444.6,459 444.6,467.8 437.5,471.8 	"/>
	<polygon class="st0" points="452.7,480.6 459.8,476.5 459.7,485.3 452.7,489.4 	"/>
	<polygon class="st0" points="437.6,454.4 444.6,450.3 444.6,459 437.5,463.1 	"/>
	<polygon class="st0" points="452.7,471.9 459.8,467.8 459.8,476.5 452.7,480.6 	"/>
	<polygon class="st0" points="437.6,445.6 444.6,441.5 444.6,450.3 437.6,454.4 	"/>
	<polygon class="st0" points="452.8,463.1 459.8,459 459.8,467.8 452.7,471.9 	"/>
	<polygon class="st0" points="437.6,436.9 444.7,432.8 444.6,441.5 437.6,445.6 	"/>
	<polygon class="st1" points="399.7,380 406.7,375.9 414.3,380.3 407.3,384.4 	"/>
	<polygon class="st0" points="452.8,454.4 459.8,450.3 459.8,459 452.8,463.1 	"/>
	<polygon class="st0" points="437.6,428.2 444.7,424.1 444.7,432.8 437.6,436.9 	"/>
	<polygon class="st1" points="414.9,397.5 421.9,393.4 429.5,397.8 422.5,401.9 	"/>
	<polygon class="st0" points="452.8,445.7 459.9,441.6 459.8,450.3 452.8,454.4 	"/>
	<polygon class="st0" points="437.7,419.4 444.7,415.3 444.7,424.1 437.6,428.2 	"/>
	<polygon class="st1" points="422.5,401.9 429.5,397.8 437.1,402.2 430.1,406.3 	"/>
	<polygon class="st1" points="407.3,375.7 414.4,371.6 422,376 414.9,380 	"/>
	<polygon class="st0" points="452.8,436.9 459.9,432.9 459.9,441.6 452.8,445.7 	"/>
	<polygon class="st1" points="430.1,406.3 437.1,402.2 444.7,406.6 437.7,410.7 	"/>
	<polygon class="st0" points="437.7,410.7 444.7,406.6 444.7,415.3 437.7,419.4 	"/>
	<polygon class="st3" points="437.7,419.4 437.6,428.2 437.6,436.9 437.6,445.6 437.6,454.4 437.5,463.1 437.5,471.8 429.9,467.5 
		422.3,463.1 414.7,458.7 414.7,449.9 414.8,441.2 414.8,432.5 414.8,423.7 414.8,415 414.8,406.3 414.9,397.5 422.5,401.9 
		430.1,406.3 437.7,410.7 	"/>
	<polygon class="st1" points="414.9,380 422,376 429.6,380.4 422.5,384.4 	"/>
	<polygon class="st0" points="452.9,428.2 459.9,424.1 459.9,432.9 452.8,436.9 	"/>
	<polygon class="st1" points="422.5,384.4 429.6,380.4 437.2,384.7 430.1,388.8 	"/>
	<polygon class="st0" points="452.9,419.5 459.9,415.4 459.9,424.1 452.9,428.2 	"/>
	<polygon class="st1" points="430.1,388.8 437.2,384.7 444.8,389.1 437.7,393.2 	"/>
	<polygon class="st0" points="452.9,410.7 460,406.6 459.9,415.4 452.9,419.5 	"/>
	<polygon class="st1" points="445.3,406.3 452.4,402.2 460,406.6 452.9,410.7 	"/>
	<polygon class="st0" points="445.3,397.6 452.4,393.5 452.4,402.2 445.3,406.3 	"/>
	<polygon class="st1" points="437.7,393.2 444.8,389.1 452.4,393.5 445.3,397.6 	"/>
	<polygon class="st2" points="445.3,406.3 452.9,410.7 452.9,419.5 452.9,428.2 452.8,436.9 452.8,445.7 452.8,454.4 452.8,463.1 
		452.7,471.9 452.7,480.6 452.7,489.4 445.1,485 445.1,493.7 437.5,489.3 429.9,484.9 422.3,480.5 414.7,476.1 407,471.8 407.1,463 
		399.5,458.6 399.5,449.9 399.5,441.2 399.5,432.4 399.6,423.7 399.6,414.9 399.6,406.2 399.6,397.5 399.7,388.7 399.7,380 
		407.3,384.4 407.3,375.7 414.9,380 422.5,384.4 430.1,388.8 437.7,393.2 445.3,397.6 	"/>
</g>
<g>
	<polygon class="st0" points="492.2,529.7 499.3,525.6 499.2,534.3 492.2,538.4 	"/>
	<polygon class="st0" points="492.2,520.9 499.3,516.8 499.3,525.6 492.2,529.7 	"/>
	<polygon class="st0" points="492.3,512.2 499.3,508.1 499.3,516.8 492.2,520.9 	"/>
	<polygon class="st0" points="492.3,503.4 499.3,499.4 499.3,508.1 492.3,512.2 	"/>
	<polygon class="st0" points="492.3,498.8 499.4,494.7 499.3,499.4 492.3,503.4 	"/>
	<polygon class="st1" points="492.4,481.3 499.4,477.2 507,481.6 500,485.7 	"/>
	<polygon class="st0" points="492.4,468.5 499.4,464.4 499.4,477.2 492.4,481.3 	"/>
	<polygon class="st0" points="515.1,503.2 522.2,499.1 522.2,507.9 515.1,511.9 	"/>
	<polygon class="st1" points="500,485.7 507,481.6 514.6,486 507.6,490.1 	"/>
	<polygon class="st0" points="492.4,459.8 499.5,455.7 499.4,464.4 492.4,468.5 	"/>
	<polygon class="st1" points="507.6,490.1 514.6,486 522.2,490.4 515.2,494.5 	"/>
	<polygon class="st0" points="515.2,494.5 522.2,490.4 522.2,499.1 515.1,503.2 	"/>
	<polygon class="st1" points="477.3,433.5 484.3,429.4 491.9,433.8 484.9,437.9 	"/>
	<polygon class="st1" points="484.9,437.9 491.9,433.8 499.5,438.2 492.5,442.3 	"/>
	<polygon class="st1" points="492.5,442.3 499.5,438.2 507.1,442.6 500.1,446.7 	"/>
	<polygon class="st1" points="500.1,446.7 507.1,442.6 514.7,447 507.7,451.1 	"/>
	<polygon class="st1" points="507.7,451.1 514.7,447 522.3,451.4 515.3,455.5 	"/>
	<polygon class="st0" points="530.5,473 537.5,468.9 537.5,477.6 530.4,481.7 	"/>
	<polygon class="st1" points="515.3,455.5 522.3,451.4 529.9,455.8 522.9,459.9 	"/>
	<polygon class="st1" points="522.9,459.9 529.9,455.8 537.5,460.1 530.5,464.2 	"/>
	<polygon class="st0" points="530.5,464.2 537.5,460.1 537.5,468.9 530.5,473 	"/>
	<polygon class="st2" points="530.5,464.2 530.5,473 530.4,481.7 522.8,477.3 515.2,472.9 507.6,468.5 500,464.1 492.4,459.8 
		492.4,468.5 492.4,481.3 500,485.7 507.6,490.1 515.2,494.5 515.1,503.2 515.1,511.9 507.5,507.6 499.9,503.2 492.3,498.8 
		492.3,503.4 492.3,512.2 492.2,520.9 492.2,529.7 492.2,538.4 484.6,534 477,529.6 477,520.9 477,512.1 477.1,503.4 477.1,494.7 
		477.1,485.9 477.1,477.2 477.2,468.5 477.2,459.7 477.2,451 477.2,442.2 477.3,433.5 484.9,437.9 492.5,442.3 500.1,446.7 
		507.7,451.1 515.3,455.5 522.9,459.9 	"/>
</g>
<g>
	<polygon class="st0" points="570.6,546.7 577.6,542.6 577.6,551.3 570.5,555.4 	"/>
	<polygon class="st0" points="570.6,537.9 577.6,533.8 577.6,542.6 570.6,546.7 	"/>
	<polygon class="st0" points="570.6,529.2 577.7,525.1 577.6,533.8 570.6,537.9 	"/>
	<polygon class="st0" points="570.6,520.4 577.7,516.3 577.7,525.1 570.6,529.2 	"/>
	<polygon class="st0" points="570.7,511.7 577.7,507.6 577.7,516.3 570.6,520.4 	"/>
	<polygon class="st0" points="570.7,503 577.7,498.9 577.7,507.6 570.7,511.7 	"/>
	<polygon class="st1" points="555.5,461.5 562.6,457.4 570.2,461.8 563.1,465.9 	"/>
	<polygon class="st0" points="570.7,470.2 577.8,466.1 577.7,498.9 570.7,503 	"/>
	<polygon class="st1" points="563.1,465.9 570.2,461.8 577.8,466.1 570.7,470.2 	"/>
	<polygon class="st2" points="563.1,465.9 570.7,470.2 570.7,503 570.7,511.7 570.6,520.4 570.6,529.2 570.6,537.9 570.6,546.7 
		570.5,555.4 555.3,546.6 555.4,537.9 555.4,529.1 555.4,520.4 555.4,511.7 555.5,502.9 555.5,470.2 555.5,461.5 	"/>
</g>
<g>
	<polygon class="st0" points="570.5,581.6 577.5,577.5 577.5,586.2 570.4,590.3 	"/>
	<polygon class="st1" points="555.3,564.1 562.3,560 569.9,564.4 562.9,568.5 	"/>
	<polygon class="st2" points="555.3,564.1 562.9,568.5 570.5,572.9 570.5,581.6 570.4,590.3 562.8,585.9 555.2,581.6 555.3,572.8 	
		"/>
	<polygon class="st1" points="562.9,568.5 569.9,564.4 577.5,568.8 570.5,572.9 	"/>
	<polygon class="st0" points="570.5,572.9 577.5,568.8 577.5,577.5 570.5,581.6 	"/>
</g>
<g>
	<polygon class="st2" points="226.8,570.2 226.8,588.2 193.2,569.2 193.2,551.2 	"/>
	<polygon class="st0" points="226.8,570.2 240.9,562 240.9,580 226.8,588.2 	"/>
	<polygon class="st1" points="193.2,551.2 207.3,543 240.9,562 226.8,570.2 	"/>
</g>
<g>
	<polygon class="st2" points="667.8,493.7 667.7,511.7 634.1,492.6 634.2,474.7 	"/>
	<polygon class="st0" points="667.8,493.7 681.9,485.5 681.8,503.5 667.7,511.7 	"/>
	<polygon class="st1" points="634.2,474.7 648.3,466.5 681.9,485.5 667.8,493.7 	"/>
</g>
<g>
	<polygon class="st2" points="199.1,322.1 199,340 165.4,321 165.5,303.1 	"/>
	<polygon class="st0" points="199.1,322.1 213.2,313.9 213.1,331.9 199,340 	"/>
	<polygon class="st1" points="165.5,303.1 179.5,294.9 213.2,313.9 199.1,322.1 	"/>
</g>
<g>
	<polygon class="st2" points="391.3,287.7 391.2,330.8 357.6,311.8 357.7,268.7 	"/>
	<polygon class="st0" points="391.3,287.7 405.4,279.5 405.3,322.6 391.2,330.8 	"/>
	<polygon class="st1" points="357.7,268.7 371.8,260.5 405.4,279.5 391.3,287.7 	"/>
</g>
<g>
	<polygon class="st2" points="233.6,462.1 233.5,505.2 199.9,486.2 200,443.1 	"/>
	<polygon class="st0" points="233.6,462.1 247.7,453.9 247.6,497 233.5,505.2 	"/>
	<polygon class="st1" points="200,443.1 214,434.9 247.7,453.9 233.6,462.1 	"/>
</g>
<g>
	<polygon class="st2" points="665.5,658.6 665.5,701.7 631.9,682.7 631.9,639.6 	"/>
	<polygon class="st0" points="665.5,658.6 679.6,650.4 679.6,693.5 665.5,701.7 	"/>
	<polygon class="st1" points="631.9,639.6 646,631.4 679.6,650.4 665.5,658.6 	"/>
</g>
<g>
	<polygon class="st2" points="121.6,318.9 121.5,336.8 105.9,327.8 106,309.8 	"/>
	<polygon class="st0" points="121.6,318.9 135.7,310.7 135.6,328.6 121.5,336.8 	"/>
	<polygon class="st1" points="106,309.8 120.1,301.6 135.7,310.7 121.6,318.9 	"/>
</g>
<g>
	<polygon class="st2" points="314.8,520.2 314.8,538.2 299.2,529.2 299.2,511.2 	"/>
	<polygon class="st0" points="314.8,520.2 328.9,512 328.9,530 314.8,538.2 	"/>
	<polygon class="st1" points="299.2,511.2 313.3,503 328.9,512 314.8,520.2 	"/>
</g>
<g>
	<polygon class="st2" points="268.8,550.2 268.8,568.2 253.2,559.2 253.2,541.2 	"/>
	<polygon class="st0" points="268.8,550.2 282.9,542 282.9,560 268.8,568.2 	"/>
	<polygon class="st1" points="253.2,541.2 267.3,533 282.9,542 268.8,550.2 	"/>
</g>
<g>
	<polygon class="st2" points="646.8,573.2 646.8,591.2 631.2,582.2 631.2,564.2 	"/>
	<polygon class="st0" points="646.8,573.2 660.9,565 660.9,583 646.8,591.2 	"/>
	<polygon class="st1" points="631.2,564.2 645.3,556 660.9,565 646.8,573.2 	"/>
</g>
<g>
	<polygon class="st2" points="677.8,557.2 677.8,575.2 662.2,566.2 662.2,548.2 	"/>
	<polygon class="st0" points="677.8,557.2 691.9,549 691.9,567 677.8,575.2 	"/>
	<polygon class="st1" points="662.2,548.2 676.3,540 691.9,549 677.8,557.2 	"/>
</g>
<g>
	<polygon class="st2" points="118.8,420.7 118.7,438.6 103.1,429.6 103.2,411.7 	"/>
	<polygon class="st0" points="118.8,420.7 132.9,412.5 132.8,430.4 118.7,438.6 	"/>
	<polygon class="st1" points="103.2,411.7 117.3,403.5 132.9,412.5 118.8,420.7 	"/>
</g>
<g>
	<polygon class="st2" points="149.8,404.7 149.7,422.6 134.1,413.6 134.2,395.7 	"/>
	<polygon class="st0" points="149.8,404.7 163.9,396.5 163.8,414.4 149.7,422.6 	"/>
	<polygon class="st1" points="134.2,395.7 148.3,387.5 163.9,396.5 149.8,404.7 	"/>
</g>
<g>
	<polygon class="st2" points="400.8,204.7 400.7,222.6 385.1,213.6 385.2,195.7 	"/>
	<polygon class="st0" points="400.8,204.7 414.9,196.5 414.8,214.4 400.7,222.6 	"/>
	<polygon class="st1" points="385.2,195.7 399.3,187.5 414.9,196.5 400.8,204.7 	"/>
</g>
<g>
	<polygon class="st2" points="431.8,188.7 431.7,206.6 416.1,197.6 416.2,179.7 	"/>
	<polygon class="st0" points="431.8,188.7 445.9,180.5 445.8,198.4 431.7,206.6 	"/>
	<polygon class="st1" points="416.2,179.7 430.3,171.5 445.9,180.5 431.8,188.7 	"/>
</g>
<g>
	<polygon class="st1" points="306.9,592.5 326.7,581 351.7,595.5 332,607 	"/>
	<polygon class="st1" points="332,577.2 351.8,565.8 371.3,577 351.5,588.5 	"/>
	<polygon class="st1" points="351.6,558.8 371.4,547.3 396.8,562 377.1,573.5 	"/>
	<polygon class="st0" points="483.4,754.8 503.1,743.3 503,772.6 483.3,784.1 	"/>
	<polygon class="st0" points="550.3,763.2 570,751.8 570,781.9 550.2,793.4 	"/>
	<polygon class="st1" points="377.2,543.8 396.9,532.3 502,592.9 482.2,604.4 	"/>
	<polygon class="st0" points="482.2,604.4 502,592.9 501.9,622.6 482.1,634.1 	"/>
	<polygon class="st1" points="482.1,634.1 501.9,622.6 528.9,638.3 509.2,649.7 	"/>
	<polygon class="st0" points="575.4,748 595.2,736.5 595.1,766.2 575.3,777.7 	"/>
	<polygon class="st1" points="509.2,620 529,608.6 555.3,623.7 535.5,635.2 	"/>
	<polygon class="st0" points="535.5,635.2 555.3,623.7 555.2,653.4 535.4,664.9 	"/>
	<polygon class="st0" points="600.6,732.3 620.3,720.8 620.3,751 600.5,762.5 	"/>
	<polygon class="st1" points="577.5,719 597.3,707.5 620.3,720.8 600.6,732.3 	"/>
	<polygon class="st0" points="577.6,689.2 597.4,677.8 597.3,707.5 577.5,719 	"/>
	<polygon class="st1" points="535.4,664.9 555.2,653.4 597.4,677.8 577.6,689.2 	"/>
	<polygon class="st2" points="535.5,635.2 535.4,664.9 577.6,689.2 577.5,719 600.6,732.3 600.5,762.5 575.4,748 575.3,777.7 
		550.3,763.2 550.2,793.4 483.4,754.8 483.3,784.1 358.8,712.2 358.8,682.9 331.4,667.1 331.5,636.9 306.8,622.7 306.9,592.5 
		332,607 332,577.2 351.5,588.5 351.6,558.8 377.1,573.5 377.2,543.8 482.2,604.4 482.1,634.1 509.2,649.7 509.2,620 	"/>
</g>
<g>
	<polygon class="st1" points="457.4,244.5 477.2,233 502.2,247.5 482.5,259 	"/>
	<polygon class="st1" points="482.5,229.2 502.3,217.8 521.8,229 502,240.5 	"/>
	<polygon class="st1" points="502.1,210.8 521.9,199.3 547.3,214 527.6,225.5 	"/>
	<polygon class="st0" points="633.9,406.8 653.6,395.3 653.5,424.6 633.8,436.1 	"/>
	<polygon class="st0" points="700.8,415.2 720.5,403.8 720.5,433.9 700.7,445.4 	"/>
	<polygon class="st1" points="527.7,195.8 547.4,184.3 652.5,244.9 632.7,256.4 	"/>
	<polygon class="st0" points="632.7,256.4 652.5,244.9 652.4,274.6 632.6,286.1 	"/>
	<polygon class="st1" points="632.6,286.1 652.4,274.6 679.4,290.3 659.7,301.8 	"/>
	<polygon class="st0" points="725.9,400 745.7,388.5 745.6,418.2 725.8,429.7 	"/>
	<polygon class="st1" points="659.7,272 679.5,260.5 705.8,275.7 686,287.2 	"/>
	<polygon class="st0" points="686,287.2 705.8,275.7 705.7,305.4 685.9,316.9 	"/>
	<polygon class="st0" points="751.1,384.3 770.8,372.8 770.8,403 751,414.5 	"/>
	<polygon class="st1" points="728,371 747.8,359.5 770.8,372.8 751.1,384.3 	"/>
	<polygon class="st0" points="728.1,341.2 747.9,329.8 747.8,359.5 728,371 	"/>
	<polygon class="st1" points="685.9,316.9 705.7,305.4 747.9,329.8 728.1,341.2 	"/>
	<polygon class="st2" points="686,287.2 685.9,316.9 728.1,341.2 728,371 751.1,384.3 751,414.5 725.9,400 725.8,429.7 700.8,415.2 
		700.7,445.4 633.9,406.8 633.8,436.1 509.3,364.2 509.3,334.9 481.9,319.1 482,288.9 457.3,274.7 457.4,244.5 482.5,259 
		482.5,229.2 502,240.5 502.1,210.8 527.6,225.5 527.7,195.8 632.7,256.4 632.6,286.1 659.7,301.8 659.7,272 	"/>
</g>
<g>
	<polygon class="st1" points="29.2,66.8 49,55.3 74.1,69.8 54.3,81.3 	"/>
	<polygon class="st1" points="54.4,51.5 74.2,40.1 93.6,51.3 73.9,62.8 	"/>
	<polygon class="st1" points="74,33.1 93.7,21.6 119.2,36.3 99.4,47.8 	"/>
	<polygon class="st0" points="205.7,229.1 225.5,217.6 225.4,246.9 205.6,258.4 	"/>
	<polygon class="st0" points="272.6,237.5 292.4,226.1 292.3,256.2 272.6,267.7 	"/>
	<polygon class="st1" points="99.5,18.1 119.3,6.6 224.3,67.2 204.5,78.7 	"/>
	<polygon class="st0" points="204.5,78.7 224.3,67.2 224.2,96.9 204.5,108.4 	"/>
	<polygon class="st1" points="204.5,108.4 224.2,96.9 251.3,112.6 231.5,124 	"/>
	<polygon class="st0" points="297.8,222.3 317.5,210.8 317.5,240.5 297.7,252 	"/>
	<polygon class="st1" points="231.6,94.3 251.4,82.8 277.6,98 257.9,109.5 	"/>
	<polygon class="st0" points="257.9,109.5 277.6,98 277.5,127.7 257.8,139.2 	"/>
	<polygon class="st0" points="322.9,206.6 342.7,195.1 342.6,225.3 322.8,236.8 	"/>
	<polygon class="st1" points="299.9,193.3 319.6,181.8 342.7,195.1 322.9,206.6 	"/>
	<polygon class="st0" points="299.9,163.6 319.7,152.1 319.6,181.8 299.9,193.3 	"/>
	<polygon class="st1" points="257.8,139.2 277.5,127.7 319.7,152.1 299.9,163.6 	"/>
	<polygon class="st2" points="257.9,109.5 257.8,139.2 299.9,163.6 299.9,193.3 322.9,206.6 322.8,236.8 297.8,222.3 297.7,252 
		272.6,237.5 272.6,267.7 205.7,229.1 205.6,258.4 81.1,186.5 81.2,157.2 53.7,141.4 53.8,111.2 29.2,97 29.2,66.8 54.3,81.3 
		54.4,51.5 73.9,62.8 74,33.1 99.4,47.8 99.5,18.1 204.5,78.7 204.5,108.4 231.5,124 231.6,94.3 	"/>
</g>
<polygon class="st1" points="261.8,351.4 268.8,347.3 291.8,360.5 284.7,364.6 "/>
<polygon class="st0" points="261.8,325.2 268.8,321.1 268.8,347.3 261.8,351.4 "/>
<path class="st2" d="M292.4,334v-8.7l-7.6-4.4l-7.6-4.4l-7.6-4.4l-7.6-4.4l-7.6-4.4l-7.6-4.4v8.7v8.7v8.7v8.7v8.7v8.7v8.7v8.7v8.7
	v8.7v8.7l7.6,4.4l7.6,4.4v-8.7v-8.7v-8.7v-8.7l7.6,4.4l7.6,4.4l7.6,4.4l7.6,4.4v-8.7l7.6,4.4v-8.7v-8.7v-8.7v-8.7v-8.7L292.4,334z
	 M284.8,347.1v8.7v8.7l-7.6-4.4l-7.6-4.4l-7.6-4.4v-8.7V334v-8.7l7.6,4.4l7.6,4.4l7.6,4.4V347.1z"/>
</svg>
