<svg xmlns="http://www.w3.org/2000/svg" width="367.875" height="361.531" viewBox="0 0 367.875 361.531">
  <defs>
    <style>
      .cls-1 {
        fill: none;
        stroke: #fff;
        stroke-width: 3px;
      }

      .cls-1, .cls-2 {
        fill-rule: evenodd;
      }

      .cls-2 {
        fill: #fff;
      }
    </style>
  </defs>
  <path id="Ellipse_3_copy_15" data-name="Ellipse 3 copy 15" class="cls-1" d="M303.311,412.175q-5.428,1.452-11.017,2.575A176.391,176.391,0,1,1,269.616,65.786" transform="translate(-79.656 -58.188)"/>
  <path id="A_NATIONAL_TOP_5_" data-name="A NATIONAL TOP 5%" class="cls-2" d="M287.567,82.07L293,83.761l2.683-3.229,10.631,3.306,0.378,4.181,5.919,1.841-3.932-31.52-0.484-.15Zm11.476-5.661,3.022-3.609c1.354-1.655,3.048-4.263,3.126-4.372-0.007.307-.066,3.336,0.136,5.386l0.441,4.686ZM345.62,108.5l0.5,0.31,15.2-24.614-4.7-2.9-6.316,10.226c-1.041,1.686-2.425,4.648-2.425,4.648a40.744,40.744,0,0,0-.809-5.11L341.9,71.9l-0.5-.31L326.2,96.207l4.7,2.9,6.316-10.226a50.542,50.542,0,0,0,2.39-4.671,42.535,42.535,0,0,0,.845,5.132Zm4.561,2.775,4.408,3.6,3.7-1.989,8.619,7.046-1.215,4.017,4.8,3.924,8.156-30.7-0.392-.32Zm12.761-.952,4.153-2.215c1.874-1.027,4.422-2.811,4.535-2.883-0.121.282-1.31,3.069-1.891,5.045l-1.345,4.51Zm12.317,23.105,3.974,4.367,17.372-15.811,5.507,6.05,3.836-3.492L390.96,108.075l-3.836,3.492,5.507,6.05ZM387.7,148.312l3.415,4.815,23.388-16.591-3.416-4.815Zm13.617,22.878a14.718,14.718,0,1,0,6.423-19.892A14.522,14.522,0,0,0,401.319,171.19Zm4.7-2.382c-2.362-4.665-.313-9.673,4.465-12.093s10.027-1.107,12.39,3.558,0.313,9.673-4.465,12.093S408.384,173.473,406.021,168.808Zm9.963,43.357,0.154,0.57,27.913-7.577-1.446-5.33-11.6,3.148c-1.912.519-4.946,1.735-4.946,1.735a40.748,40.748,0,0,0,2.9-4.282l9.313-17.513-0.154-.57-27.913,7.577,1.446,5.33,11.6-3.147a50.614,50.614,0,0,0,4.935-1.777,42.517,42.517,0,0,0-2.889,4.323Zm1.341,5.193,0.443,5.676,3.994,1.3,0.866,11.1-3.743,1.9,0.482,6.181,27.824-15.329-0.039-.5Zm9.511,8.564,4.472,1.47c2.038,0.645,5.09,1.253,5.219,1.285-0.288.107-3.124,1.174-4.953,2.121l-4.19,2.146Zm-7.858,22.362L417.263,267.1l5.166,0.47,1.178-12.935L447,256.766l0.535-5.88Zm-6.949,40.527-1.806,5.622,22.364,7.185-2.5,7.789,4.938,1.587,6.811-21.2-4.938-1.587-2.5,7.79ZM399.7,317.659a14.717,14.717,0,1,0,19.971-6.169A14.521,14.521,0,0,0,399.7,317.659Zm4.651,2.481c2.461-4.613,7.737-5.813,12.462-3.292s6.666,7.571,4.205,12.184-7.738,5.813-12.462,3.292S401.888,324.753,404.349,320.14Zm-15,15.471-3.724,4.58,7.3,5.932-2.634,3.239c-3.67,4.516-4.439,10.14.764,14.369s10.492,2.335,14.189-2.213l6.357-7.82Zm7.6,13.783,6.9,5.613-2.527,3.108c-1.782,2.192-3.954,2.926-6.441.9-2.454-2-2.3-4.259-.463-6.517Zm-39.213,18.258c-5.221,4.072-6.557,9.766-2.666,14.755,3.4,4.356,9.071,4.637,13.993.8a8.68,8.68,0,0,0,2.693-3.062l3.319,4.256-9.81,7.651,3.19,4.091,13.868-10.815-10.556-13.535-0.555.111a10.928,10.928,0,0,1-4.019,6.5c-2.827,2.205-5.5,2.475-7.32.147-1.66-2.129-1.3-4.759,1.156-6.678a6.449,6.449,0,0,1,7.179-.945l2.382-5.174C366.959,363.986,362.088,364.255,357.732,367.652ZM345.38,393.129a7.72,7.72,0,1,0,10.515,3.439A7.855,7.855,0,0,0,345.38,393.129Zm-5.144-12.6-5.074,2.487-3.471,33.636,5.074-2.487Zm-20.462,9.607a7.72,7.72,0,1,0,10.515,3.44A7.856,7.856,0,0,0,319.774,390.135Zm27.573,7.007a3.005,3.005,0,0,1,4.042,1.635,2.957,2.957,0,0,1-1.183,4.2,2.988,2.988,0,0,1-4.08-1.616A3.037,3.037,0,0,1,347.347,397.142Zm-25.606-2.993a3.005,3.005,0,0,1,4.042,1.635,2.957,2.957,0,0,1-1.184,4.2,2.987,2.987,0,0,1-4.079-1.616A3.036,3.036,0,0,1,321.741,394.149Z" transform="translate(-79.656 -58.188)"/>
</svg>
