<svg xmlns="http://www.w3.org/2000/svg" width="362.5" height="369.343" viewBox="0 0 362.5 369.343">
  <defs>
    <style>
      .cls-1 {
        fill: none;
        stroke: #fff;
        stroke-width: 3px;
      }

      .cls-1, .cls-2 {
        fill-rule: evenodd;
      }

      .cls-2 {
        fill: #fff;
      }
    </style>
  </defs>
  <path id="Ellipse_3_copy_14" data-name="Ellipse 3 copy 14" class="cls-1" d="M671.594,419.358A176.431,176.431,0,0,1,652.613,78.243" transform="translate(-528.188 -62.469)"/>
  <path id="WEIGHT_LOSS_SURGERY_PROGRAM." data-name="WEIGHT LOSS SURGERY PROGRAM." class="cls-2" d="M682.72,86.892l0.46-.04,4.3-11.233c0.455-1.265.976-3.3,1-3.4a35.006,35.006,0,0,0,1.531,3.181l5.955,10.354,0.46-.039,6.189-23.253-4.472.383L695.7,72.1c-0.429,1.56-.816,4.012-0.837,4.146a29.164,29.164,0,0,0-1.728-3.926l-5.159-8.8-0.461.039L683.989,73.1a26.14,26.14,0,0,0-1.034,4.163c-0.086-.224-0.878-2.508-1.531-3.943l-4.024-8.7-4.867.417ZM708.3,85.465l15.262,1.259,0.334-4.046L713.235,81.8l0.429-5.2,8.979,0.741,0.326-3.947-8.98-.741,0.424-5.131,10.2,0.841,0.334-4.046-14.8-1.221Zm20.235,2.181,4.546,0.821,3.985-22.08-4.546-.82ZM749.3,92.865a14.6,14.6,0,0,0,9-.041l2.862-9.616-9.237-2.749-1.158,3.891,5.188,1.544-1.036,3.48a11.074,11.074,0,0,1-4.443-.462,6.988,6.988,0,0,1-5.008-9.2c1.2-4.017,4.621-6.269,8.512-5.111a6.217,6.217,0,0,1,4.225,3.393l3.89-2.079c-1.169-2.552-3.417-4.254-6.929-5.3-6.484-1.93-12.36,1.383-14.253,7.741S742.28,90.775,749.3,92.865Zm13.04,4.025,4.174,1.981,3.779-7.96,8.675,4.118-3.779,7.96,4.173,1.981L788.988,84.7l-4.173-1.981L780.739,91.3l-8.675-4.118L776.14,78.6l-4.174-1.981Zm25.9,13.662,3.853,2.548,10.137-15.331,5.34,3.531,2.238-3.386L795.273,88.3l-2.238,3.386,5.34,3.531Zm18.647,13.515,11.27,9.569,2.627-3.094-7.748-6.579,11.9-14.012-3.522-2.99Zm20.637,19.863a11.518,11.518,0,1,0,.842-16.336A11.363,11.363,0,0,0,827.522,143.93Zm3.075-2.75c-2.728-3.05-2.189-7.25.935-10.044s7.358-2.861,10.086.189,2.189,7.251-.935,10.045S833.325,144.231,830.6,141.18Zm10.669,20.5c2.435,3.652,6.142,5.108,9.6,2.8,3.213-2.142,3.414-4.934,2.636-9.135l-0.228-1.236c-0.385-2.124-.394-3.149.76-3.918a2.01,2.01,0,0,1,2.874.741,3.148,3.148,0,0,1,0,3.57l3.918,1.712a6.823,6.823,0,0,0-.568-7.515c-2.288-3.433-5.95-4.165-8.833-2.243-3.131,2.087-3.387,4.915-2.719,8.476l0.229,1.236c0.4,2.27.631,3.625-.687,4.5-1.1.732-2.572,0.247-3.634-1.346a5.028,5.028,0,0,1-.192-5.346l-3.9-1.922C839.051,154.669,838.886,158.11,841.266,161.681Zm9.29,15.821c2,3.907,5.514,5.778,9.216,3.884,3.437-1.759,3.957-4.509,3.666-8.771l-0.085-1.253c-0.138-2.154-.03-3.173,1.2-3.805a2.01,2.01,0,0,1,2.77,1.067,3.146,3.146,0,0,1-.41,3.545l3.695,2.15a6.822,6.822,0,0,0,.3-7.529c-1.879-3.672-5.431-4.82-8.516-3.241-3.348,1.713-3.928,4.493-3.672,8.107l0.085,1.253c0.14,2.3.212,3.673-1.2,4.4-1.175.6-2.583-.05-3.455-1.754a5.025,5.025,0,0,1,.423-5.331l-3.653-2.357C849.16,170.284,848.6,173.684,850.556,177.5Zm10,24.257c1.333,4.182,4.494,6.6,8.457,5.342,3.679-1.172,4.643-3.8,5.055-8.053l0.121-1.251c0.216-2.147.49-3.135,1.811-3.556a2.011,2.011,0,0,1,2.558,1.506,3.145,3.145,0,0,1-.985,3.431l3.293,2.727a6.825,6.825,0,0,0,1.529-7.38c-1.252-3.931-4.57-5.646-7.872-4.594-3.585,1.142-4.612,3.79-4.952,7.4l-0.121,1.251c-0.239,2.293-.393,3.659-1.9,4.14-1.258.4-2.54-.473-3.121-2.3a5.027,5.027,0,0,1,1.29-5.191l-3.217-2.924C860.367,194.408,859.259,197.671,860.561,201.759Zm5.031,20.266c0.9,5.034,4.293,8.415,9.88,7.412l14.1-2.531-0.816-4.547-13.836,2.484c-3.215.578-4.694-.565-5.231-3.553-0.542-3.02.441-4.638,3.656-5.216l13.836-2.484-0.816-4.547-14.1,2.531C866.678,212.577,864.676,216.926,865.592,222.025Zm2.378,14.1,0.167,4.618,7.783-.282,0.106,2.935-7.619,4.833,0.191,5.277,8.292-5.418a6.605,6.605,0,0,0,6.722,4.149c5.244-.19,7.251-4.027,7.086-8.612l-0.3-8.311Zm11.842,4.195,6.695-.242,0.129,3.562c0.08,2.21-.69,3.757-3.2,3.848-2.474.089-3.417-1.33-3.5-3.606ZM866.94,268.7a14.6,14.6,0,0,0,1.645,8.848l9.973,1.1,1.059-9.58-4.035-.446-0.6,5.38-3.608-.4a11.061,11.061,0,0,1-.338-4.454,6.987,6.987,0,0,1,8.164-6.569c4.167,0.46,6.993,3.429,6.547,7.464a6.217,6.217,0,0,1-2.585,4.762l2.739,3.457c2.3-1.605,3.577-4.12,3.98-7.762,0.743-6.725-3.565-11.916-10.159-12.645S867.745,261.421,866.94,268.7Zm-1.748,13.517-3.817,14.826,3.93,1.012,2.665-10.353,5.049,1.3-2.246,8.723,3.834,0.987,2.246-8.722,4.984,1.283-2.55,9.905,3.93,1.012,3.7-14.378Zm-5.359,19.563-1.72,4.289,7.23,2.9L864.25,311.7l-8.925,1.329-1.965,4.9,9.777-1.591a6.6,6.6,0,0,0,4.463,6.518c4.87,1.953,8.262-.741,9.969-5l3.1-7.72Zm9.125,8.637,6.219,2.493-1.327,3.309c-0.823,2.052-2.154,3.154-4.482,2.221-2.3-.921-2.584-2.6-1.737-4.715ZM849,325.964l-2.273,4.061,7.459,4.175,8.576,13.123,2.322-4.147-3.844-5.632c-1.037-1.526-2.832-3.59-2.832-3.59s2.787,0.426,4.573.48l6.875,0.218,2.531-4.521-16.216-.152ZM836.4,345.85l-2.957,3.55,5.656,4.711-2.091,2.51c-2.915,3.5-3.569,7.9.463,11.253s8.19,1.925,11.126-1.6l5.048-6.061Zm5.818,10.859,5.351,4.456-2.007,2.41c-1.415,1.7-3.122,2.253-5.049.647-1.9-1.584-1.759-3.354-.3-5.1Zm-19.19,4.693-3.4,3.13,5.276,5.73-2.162,1.99-8.626-2.646-3.886,3.577,9.509,2.776a6.605,6.605,0,0,0,1.219,7.805c3.554,3.861,7.776,2.891,11.151-.216l6.12-5.633Zm4.513,11.726,4.538,4.93-2.622,2.414c-1.627,1.5-3.3,1.919-5,.073-1.677-1.821-1.212-3.46.464-5ZM798.088,381.5a11.519,11.519,0,1,0,16.072,3.056A11.366,11.366,0,0,0,798.088,381.5Zm2.306,3.421c3.394-2.288,7.482-1.184,9.825,2.292s1.834,7.679-1.559,9.967-7.482,1.183-9.825-2.292S797,387.211,800.394,384.924Zm-26.366,9.946a14.593,14.593,0,0,0-6.74,5.962l4.186,9.117,8.757-4.02-1.694-3.689-4.918,2.258-1.514-3.3a11.07,11.07,0,0,1,3.644-2.581,6.988,6.988,0,0,1,9.832,3.62c1.748,3.809.657,7.759-3.032,9.453a6.215,6.215,0,0,1-5.412.233l-1.555,4.127c2.561,1.148,5.373.947,8.7-.582,6.148-2.822,8.383-9.185,5.615-15.213S780.686,391.813,774.028,394.87Zm-12.483,5.485-4.434,1.3,2.189,7.475-2.819.825-6.56-6.194-5.067,1.484,7.293,6.7a6.6,6.6,0,0,0-2.366,7.536c1.475,5.036,5.688,6.037,10.091,4.748l7.981-2.338Zm-1.15,12.511,1.883,6.429-3.421,1c-2.122.622-3.81,0.256-4.516-2.151-0.7-2.375.448-3.638,2.633-4.278Zm-17.737-7.073-4.407.656-0.794,3.187-8.617,1.282-1.687-2.819-4.8.714L735.836,429.7l0.392-.058Zm-6.167,7.891-0.9,3.571c-0.392,1.626-.7,4.041-0.719,4.144-0.1-.219-1.087-2.374-1.925-3.751l-1.9-3.154Zm-17.85-4.535-4.421-.056-0.107,8.413c-0.019,1.517.115,3.928,0.115,3.928a39.458,39.458,0,0,0-2.368-3.2l-4.39-5.038-0.429-.006-4.517,4.925a39.715,39.715,0,0,0-2.449,3.137s0.2-2.406.215-3.924l0.107-8.412-4.454-.057-0.288,22.664,0.4,0,11.041-12,10.9,12.281,0.363,0ZM688.9,407.5a2.789,2.789,0,1,0,2.421,3.144A2.754,2.754,0,0,0,688.9,407.5Z" transform="translate(-528.188 -62.469)"/>
</svg>
