<svg id="copy1alt.svg" xmlns="http://www.w3.org/2000/svg" width="368.125" height="363.719" viewBox="0 0 368.125 363.719">
  <defs>
    <style>
      .cls-1 {
        fill: none;
        stroke: #fff;
        stroke-width: 3px;
      }

      .cls-1, .cls-2 {
        fill-rule: evenodd;
      }

      .cls-2 {
        fill: #fff;
      }
    </style>
  </defs>
  <path id="Ellipse_3_copy_13" data-name="Ellipse 3 copy 13" class="cls-1" d="M393,356c-9.45,12.081-17.3,20.6-30.207,30.207-77.794,57.9-187.9,41.915-245.935-35.7A175.061,175.061,0,0,1,152.64,105.141C176.7,87.233,198.252,78.134,226,74" transform="translate(-80.469 -58.813)"/>
  <path id="WA_s_ONLY_REPEAT" data-name="WA’s ONLY REPEAT" class="cls-2" d="M246.835,87.746l0.588,0.01,6.905-13.637c0.739-1.539,1.663-4.039,1.707-4.164,0.08,0.253.838,2.7,1.527,4.217l6.2,13.852,0.588,0.01L275.2,59.451l-5.713-.093-4.3,11.374c-0.746,1.916-1.552,4.963-1.6,5.13a36.931,36.931,0,0,0-1.68-5.184L256.51,58.894l-0.588-.01-5.695,11.6a33.213,33.213,0,0,0-1.849,5.126c-0.079-.295-0.786-3.283-1.427-5.18L242.98,58.925l-6.217-.1Zm26.033,1.2,5.6,0.9,2.191-3.554,10.95,1.759,0.962,4.06,6.1,0.979L290.349,62.63l-0.5-.08Zm10.521-7.183,2.471-3.976c1.1-1.818,2.406-4.623,2.468-4.741,0.036,0.3.405,3.292,0.892,5.281l1.1,4.549Zm19.373-5.334,2.643,0.69,3.523-3.5a6.928,6.928,0,0,0,2.134-3.169,3.4,3.4,0,1,0-5.543,1.76Zm14.729,23.394c5.22,1.99,10.14.769,12.03-4.164,1.755-4.581-.1-7.62-4-11.4l-1.148-1.111c-1.965-1.916-2.731-2.971-2.1-4.615a2.562,2.562,0,0,1,3.53-1.347c1.57,0.6,2.335,1.653,2.632,3.7l5.328-1.11c-0.59-3.86-2.637-6.032-6.13-7.363-4.906-1.871-9.246.065-10.821,4.176-1.71,4.464.11,7.581,3.429,10.776l1.149,1.111c2.092,2.054,3.328,3.288,2.608,5.168-0.6,1.566-2.487,2.148-4.763,1.28-2.708-1.033-3.7-3.026-4.142-5.393l-5.464.878C310.021,94.194,312.388,97.879,317.491,99.825Zm34.4,18.189a14.641,14.641,0,1,0-3.719-20.443A14.49,14.49,0,0,0,351.886,118.014Zm3.009-4.294c-4.269-2.978-4.827-8.328-1.77-12.691s8.285-5.678,12.555-2.7,4.827,8.328,1.77,12.691S359.165,116.7,354.9,113.72Zm29.145,33.3,0.4,0.426L405.389,127.7l-3.781-3.991-8.7,8.207c-1.435,1.353-3.526,3.845-3.526,3.845a40.458,40.458,0,0,0,.53-5.115l-0.068-19.72-0.4-.427-20.945,19.753,3.781,3.991,8.7-8.207a50.318,50.318,0,0,0,3.5-3.875,42.288,42.288,0,0,0-.5,5.145Zm4.649,5.766,10.381,15.665,4.311-2.844-7.137-10.77,19.521-12.877-3.244-4.895ZM402.958,176.3l2.567,5.327,9.808-4.7,19.948,0.662-2.622-5.44-8.681-.115c-2.348-.036-5.812.324-5.812,0.324s2.483-2.587,3.846-4.4l5.257-6.988-2.859-5.931-12.023,16.746Zm11.107,27.754,1.233,5.738,9.695-2.073,0.784,3.648L417.3,219.1l1.409,6.558,9.193-8.61a8.418,8.418,0,0,0,9.346,3.7c6.532-1.4,8.2-6.64,6.975-12.337L442,198.083Zm15.776,2.629,8.339-1.783,0.951,4.426c0.59,2.747-.032,4.851-3.155,5.519-3.081.659-4.577-.907-5.185-3.736ZM419.179,230.8l0.889,19.43,5.163-.235-0.621-13.567,6.632-.3,0.523,11.432,5.036-.23L436.278,235.9l6.548-.3,0.594,12.982,5.162-.235-0.862-18.844Zm0.632,25.719-0.7,5.827,9.3,1.107-0.493,4.12c-0.687,5.743,1.66,10.877,8.292,11.667s10.079-3.612,10.771-9.4l1.189-9.946Zm13.735,7.545,8.8,1.048-0.473,3.954c-0.334,2.788-1.772,4.558-4.943,4.181-3.128-.373-4.2-2.358-3.859-5.229ZM416.14,282.334L410.68,301l4.961,1.444,3.812-13.037,6.372,1.855-3.212,10.985,4.84,1.408,3.212-10.984,6.291,1.831-3.647,12.473,4.96,1.444,5.3-18.106ZM409.4,305.041l-2.5,5.081,2.768,3.127-4.883,9.936-4.173-.268-2.719,5.533,31.629,0.954,0.222-.452Zm3.815,12.136,3.09,3.519c1.422,1.582,3.73,3.645,3.825,3.738-0.3-.054-3.274-0.574-5.323-0.69l-4.681-.282ZM393.6,334.34l-3.328,4.839,19.3,13.211-4.612,6.705,4.261,2.917,12.552-18.248-4.261-2.917-4.612,6.7Z" transform="translate(-80.469 -58.813)"/>
</svg>
