<svg id="copy2alt.svg" xmlns="http://www.w3.org/2000/svg" width="357.906" height="356.687" viewBox="0 0 357.906 356.687">
  <defs>
    <style>
      .cls-1 {
        fill: none;
        stroke: #fff;
        stroke-width: 3px;
      }

      .cls-1, .cls-2 {
        fill-rule: evenodd;
      }

      .cls-2 {
        fill: #fff;
      }
    </style>
  </defs>
  <path id="Ellipse_3_copy_13" data-name="Ellipse 3 copy 13" class="cls-1" d="M851.355,344.485a175.743,175.743,0,0,1-33.562,32.722c-77.794,57.9-187.9,41.915-245.935-35.7A175.393,175.393,0,0,1,686.6,63.258" transform="translate(-535.469 -56.844)"/>
  <path id="_5-star_bariatric_program" data-name="5-star bariatric program" class="cls-2" d="M707.544,74.857c4.107-.029,6.916-2.319,6.888-6.234-0.024-3.419-2.708-5.7-6.58-5.67a5.4,5.4,0,0,0-2.482.487L705.347,60.1l7.717-.054-0.023-3.21-10.909.077,0.075,10.623,0.315,0.154a6.793,6.793,0,0,1,4.436-1.675c2.224-.016,3.643.862,3.655,2.689a2.787,2.787,0,0,1-3.093,2.841,4,4,0,0,1-3.887-2.243l-3.128,1.64A7.515,7.515,0,0,0,707.544,74.857Zm9.707-5.6,6.524,0.466L724,66.6l-6.524-.466Zm14.469,7.257c3.442,0.508,6.268-.9,6.75-4.149,0.448-3.021-1.087-4.619-3.971-6.39l-0.848-.521c-1.454-.9-2.061-1.438-1.9-2.523a1.594,1.594,0,0,1,1.964-1.293,2.491,2.491,0,0,1,2.1,1.893l3.089-1.391a5.408,5.408,0,0,0-4.721-3.652c-3.235-.477-5.611,1.283-6.013,3.994-0.437,2.943,1.091,4.593,3.54,6.089l0.848,0.521c1.549,0.967,2.467,1.551,2.284,2.791-0.154,1.033-1.222,1.64-2.723,1.419a3.984,3.984,0,0,1-3.246-2.722l-3.2,1.269A7.031,7.031,0,0,0,731.72,76.518Zm12.827,1.948,3.6,0.672,2.679-14.29,4.988,0.931,0.592-3.156-13.578-2.533-0.591,3.156,4.988,0.931Zm8.078,1.423,3.4,0.963,1.614-2.039L764.28,80.7l0.3,2.581,3.7,1.048-2.923-19.441-0.3-.086Zm7.031-3.679,1.818-2.279c0.814-1.044,1.825-2.685,1.871-2.753,0,0.19.011,2.065,0.167,3.33l0.346,2.893Zm11.368,9.16,3.393,1.38,2.331-5.707,2.158,0.877,1.014,7.067,3.878,1.577-1.219-7.743a5.24,5.24,0,0,0,5.19-3.5c1.57-3.845-.551-6.54-3.921-7.91l-6.108-2.483Zm6.89-7.181,2-4.909,2.618,1.064c1.624,0.66,2.492,1.718,1.741,3.556-0.741,1.814-2.074,2.033-3.746,1.353Zm14.364,16.666,6.2,3.639c3.157,1.853,6.1,1.034,7.571-1.464a4.074,4.074,0,0,0-.825-5.451,3.64,3.64,0,0,0,4.19-1.752c1.366-2.318.835-5.022-2.278-6.848L801.3,79.552Zm4.789-.915,2.241-3.8,2.73,1.6a2.187,2.187,0,0,1,1.006,3.134,2.125,2.125,0,0,1-3.067.775Zm3.82-6.481,1.936-3.285,2.459,1.442c1.24,0.728,1.446,1.666.836,2.7s-1.645,1.246-2.931.492Zm4.021,14.829,2.841,2.094,2.23-1.342,5.556,4.094-0.631,2.521,3.094,2.28,4.118-19.226-0.252-.186Zm7.879-.976,2.506-1.5c1.13-.692,2.655-1.873,2.722-1.92-0.066.178-.718,1.937-1.018,3.176l-0.7,2.829Zm7.411,12.563,2.692,2.48,4.191-4.527,1.711,1.577-1.537,6.972,3.076,2.834,1.583-7.676a5.246,5.246,0,0,0,6.091-1.461c2.824-3.05,1.786-6.317-.887-8.779l-4.845-4.465Zm8.978-4.311,3.6-3.894,2.076,1.913c1.289,1.187,1.729,2.482.38,3.94-1.332,1.439-2.658,1.177-3.984-.045Zm3.321,16.117,2.488,2.684,13.066-12.055-2.488-2.684Zm4.622,4.786,2.179,2.774,2.509-.7,4.261,5.425-1.282,2.262,2.373,3.021,9.109-17.438-0.194-.247Zm7.856,1.155,2.815-.775c1.275-.367,3.06-1.1,3.138-1.127-0.112.154-1.21,1.676-1.83,2.791l-1.428,2.542Zm4.563,15.464,1.985,3.071,12.248-7.88,2.751,4.257,2.7-1.74L861.74,133.21l-2.705,1.74,2.751,4.256Zm6.314,10.131,1.651,3.262,5.511-2.778,1.05,2.073-3.883,5.993,1.888,3.728,4.173-6.636a5.245,5.245,0,0,0,6.215.756c3.713-1.871,3.886-5.292,2.246-8.53l-2.972-5.871Zm9.918-.905,4.74-2.389,1.274,2.516c0.79,1.561.749,2.927-1.025,3.821-1.752.883-2.9,0.176-3.715-1.432Zm-2.542,16.247,1.387,3.382,16.463-6.722-1.387-3.382Zm5.389,15.543a8.36,8.36,0,0,0,5.957,5.91l1.024-3.3a5.067,5.067,0,0,1-3.86-3.583c-0.957-3.065.818-5.886,3.99-6.873s6.19,0.343,7.148,3.408a4.828,4.828,0,0,1-.938,4.8l2.732,2.075a7.729,7.729,0,0,0,1.353-7.856A9.114,9.114,0,1,0,868.617,188.1Zm4.4,16.349,0.556,3.613,5.768-.883,0.394,2.555c0.547,3.561,2.815,6.252,6.928,5.622s5.445-3.845,4.893-7.433l-0.949-6.168Zm9.506,2.242,5.458-.835,0.378,2.451c0.266,1.73-.3,3.032-2.268,3.333-1.94.3-2.917-.716-3.191-2.5Zm-7.239,13.821,0.176,3.651,6.168-.3,0.112,2.321-6,3.894,0.2,4.173,6.522-4.364a5.24,5.24,0,0,0,5.369,3.219c4.156-.2,5.712-3.253,5.537-6.878l-0.316-6.572Zm9.429,3.208,5.306-.255,0.135,2.817c0.084,1.747-.511,2.978-2.5,3.073-1.96.094-2.721-1.02-2.808-2.819Zm-9.589,22.147a9.134,9.134,0,1,0,9.778-8.5A9,9,0,0,0,875.126,245.869Zm3.263,0.237c0.236-3.229,2.927-5.233,6.242-4.992s5.687,2.612,5.452,5.841-2.927,5.233-6.242,4.992S878.154,249.335,878.389,246.106Zm-6.362,21.364a11.52,11.52,0,0,0,.64,7.089l7.788,1.608L882,268.7l-3.151-.651-0.869,4.192-2.818-.582a8.741,8.741,0,0,1,.064-3.532,5.539,5.539,0,0,1,6.932-4.566c3.253,0.672,5.263,3.219,4.611,6.363a4.916,4.916,0,0,1-2.394,3.557l1.9,2.926c1.937-1.093,3.13-2.979,3.718-5.816a8.724,8.724,0,0,0-7.076-10.71C877.775,258.822,873.2,261.8,872.027,267.47Zm-2.284,10.523-1.156,3.467,5.859,1.944-0.735,2.2-7,1.475-1.32,3.963,7.659-1.723a5.223,5.223,0,0,0,3.842,4.932c3.947,1.309,6.5-.979,7.649-4.422l2.08-6.241Zm7.632,6.382,5.04,1.672-0.892,2.675c-0.552,1.659-1.553,2.592-3.439,1.967-1.862-.618-2.169-1.93-1.6-3.639Zm-12.6,8.342-1.473,3.2,1.773,1.9-2.881,6.264-2.6-.1-1.6,3.487,19.706,0.09,0.131-.285Zm2.569,7.494,1.98,2.141c0.911,0.963,2.381,2.21,2.441,2.267-0.188-.029-2.047-0.306-3.325-0.345l-2.918-.1Zm-10.7,9.867-1.851,2.971,5.668,3.514c1.022,0.634,2.713,1.529,2.713,1.529s-1.9.083-3.142,0.3l-5.22.912-0.18.289,1.491,5.074a31.279,31.279,0,0,0,1.125,2.942s-1.553-1.117-2.575-1.751l-5.668-3.514-1.864,2.993,15.268,9.468,0.166-.266-3.621-12.389,12.807-2.356,0.152-.244Z" transform="translate(-535.469 -56.844)"/>
</svg>
