<svg id="copy1.svg" xmlns="http://www.w3.org/2000/svg" width="366.031" height="364.906" viewBox="0 0 366.031 364.906">
  <defs>
    <style>
      .cls-1 {
        fill: none;
        stroke: #fff;
        stroke-width: 3px;
      }

      .cls-1, .cls-2 {
        fill-rule: evenodd;
      }

      .cls-2 {
        fill: #fff;
      }
    </style>
  </defs>
  <path id="Ellipse_3_copy_7" data-name="Ellipse 3 copy 7" class="cls-1" d="M433.826,281.355A176.4,176.4,0,0,1,83,255q0-8.091.716-16" transform="translate(-77.125 -67.969)"/>
  <path id="IT_S_NOT_JUST_WHAT_YOU_LOSE_" data-name="IT’S NOT JUST WHAT YOU LOSE," class="cls-2" d="M99.079,224.572l0.965-4.517L78.1,215.369l-0.965,4.517Zm3.653-14.673,1.4-4.405L86.6,199.941l1.934-6.1-3.87-1.227L79.4,209.223l3.87,1.226,1.934-6.1Zm-7.9-19.205,0.835-1.976-2.328-3.134a5.459,5.459,0,0,0-2.228-2.017,2.673,2.673,0,1,0,.745,4.507Zm19.742-8.876c2-3.9,1.471-7.851-2.228-9.75-3.435-1.764-5.971-.58-9.262,2.145l-0.968.8c-1.668,1.37-2.559,1.877-3.792,1.244a2.011,2.011,0,0,1-.752-2.872,3.147,3.147,0,0,1,3.119-1.738l-0.413-4.255a6.826,6.826,0,0,0-6.287,4.154c-1.884,3.67-.741,7.225,2.341,8.807,3.347,1.719,5.942.566,8.727-1.751l0.968-.8c1.786-1.457,2.859-2.316,4.268-1.593,1.174,0.6,1.468,2.127.593,3.829a5.028,5.028,0,0,1-4.575,2.771l0.219,4.341C109.523,187.167,112.61,185.635,114.569,181.818Zm21.119-31.261,0.287-.362L118.2,136.184l-2.676,3.4,7.386,5.821c1.218,0.96,3.4,2.3,3.4,2.3a31.922,31.922,0,0,0-4.044.174l-15.351,2.313-0.286.363L124.4,164.56l2.675-3.4-7.386-5.821a39.516,39.516,0,0,0-3.418-2.274,33.276,33.276,0,0,0,4.065-.2Zm11.894-11.633a11.52,11.52,0,1,0-16.349-.646A11.367,11.367,0,0,0,147.582,138.924Zm-2.787-3.042c-3.018,2.765-7.225,2.277-10.057-.814s-2.95-7.325.068-10.09,7.225-2.276,10.057.815S147.813,133.117,144.795,135.882Zm17.656-10.322,3.66-2.82-11.22-14.564,5.073-3.908-2.478-3.216L143.68,111.688l2.478,3.216L151.231,111Zm23.543-15.143c3.611-1.924,5.063-5.164,2.814-9.387l-7.414-13.922-4.077,2.172,7.382,13.864c1.086,2.038.521,3.013-.819,3.726-1.4.744-2.492,0.093-3.738-.7l-2.25,3.778A7.17,7.17,0,0,0,185.994,110.417Zm19.071-8.71c4.781-1.816,7.48-5.771,5.465-11.077l-5.086-13.389-4.318,1.64,4.991,13.142c1.16,3.054.31,4.719-2.529,5.8-2.869,1.09-4.64.421-5.8-2.633L192.8,82.045l-4.319,1.64,5.086,13.389C195.578,102.38,200.222,103.546,205.065,101.707Zm19.631-6.04c4.269-1.017,6.919-3.988,5.956-8.033-0.895-3.755-3.443-4.912-7.652-5.639l-1.238-.214c-2.125-.376-3.09-0.723-3.411-2.071a2.01,2.01,0,0,1,1.692-2.438,3.146,3.146,0,0,1,3.348,1.238l2.963-3.08a6.823,6.823,0,0,0-7.244-2.074c-4.012.956-5.968,4.135-5.165,7.505,0.871,3.659,3.435,4.88,7,5.488l1.239,0.214c2.268,0.409,3.617.664,3.985,2.205,0.305,1.284-.661,2.5-2.522,2.941a5.026,5.026,0,0,1-5.079-1.673l-3.155,2.99C217.353,95.313,220.523,96.661,224.7,95.667Zm16.018-3.282,4.589-.54-2.15-18.257,6.358-.749-0.475-4.032L231.73,70.845l0.475,4.032,6.359-.749Zm29.618-1.072,0.46,0.045,6.281-10.26c0.678-1.16,1.561-3.063,1.6-3.159,0.046,0.2.483,2.17,0.925,3.407l3.967,11.267,0.46,0.045,10.326-21.735-4.466-.439-4.1,8.65c-0.707,1.456-1.534,3.8-1.58,3.924a29.221,29.221,0,0,0-.982-4.176l-3.468-9.593-0.46-.045-5.2,8.741a26.2,26.2,0,0,0-1.777,3.9c-0.043-.236-0.405-2.627-0.785-4.156l-2.371-9.286-4.861-.478Zm25.443,3.153,4.445,1.263,2.409-8.476,9.238,2.625-2.409,8.476,4.445,1.263,6.134-21.588-4.444-1.263-2.6,9.143-9.238-2.625,2.6-9.143-4.445-1.263Zm21.632,6.374,4.061,1.831,2.391-2.251L331.8,104l-0.1,3.282,4.421,1.994-0.048-24.852-0.361-.163Zm9.452-3.3,2.691-2.515c1.209-1.156,2.774-3.02,2.844-3.1-0.034.238-.369,2.584-0.408,4.2l-0.1,3.681Zm14.1,14.777,3.97,2.363,9.4-15.8,5.5,3.274,2.076-3.488-14.974-8.912-2.076,3.488,5.5,3.274Zm23.772,16.744,3.5,3.061,5.623-6.436L388.469,120l-3.578-3.127-6.3,2.6c-1.707.7-4.1,2.03-4.1,2.03s0.992-2.639,1.413-4.375l1.631-6.682-3.9-3.409-3.493,15.835Zm16.986,17.314a11.517,11.517,0,1,0,1.135-16.318A11.365,11.365,0,0,0,381.72,146.373Zm3.124-2.694c-2.673-3.1-2.059-7.288,1.114-10.026s7.409-2.728,10.081.371,2.059,7.288-1.115,10.026S387.516,146.778,384.844,143.679Zm11.731,22.982c2.686,4.353,7.078,6.256,11.908,3.277l12.187-7.518-2.426-3.932-11.962,7.38c-2.78,1.715-4.575,1.194-6.168-1.39-1.611-2.611-1.289-4.477,1.491-6.192l11.962-7.379-2.425-3.932-12.187,7.518C394.125,157.473,393.856,162.252,396.575,166.661Zm10.707,19.475,5.344,13.786,3.785-1.467-3.674-9.478,17.141-6.645-1.67-4.308Zm8.681,27.318a11.52,11.52,0,1,0,8.518-13.969A11.366,11.366,0,0,0,415.963,213.454Zm4.014-.955c-0.948-3.982,1.526-7.42,5.6-8.39s7.834,0.987,8.781,4.968-1.526,7.42-5.6,8.39S420.924,216.481,419.977,212.5Zm-0.37,23.1c0.4,4.37,2.973,7.413,7.113,7.03,3.844-.356,5.349-2.716,6.663-6.781l0.386-1.2c0.672-2.05,1.151-2.956,2.531-3.084a2.009,2.009,0,0,1,2.175,2.019,3.145,3.145,0,0,1-1.7,3.139l2.631,3.369a6.823,6.823,0,0,0,3.075-6.88c-0.38-4.107-3.253-6.492-6.7-6.172-3.745.347-5.316,2.712-6.421,6.162l-0.386,1.195c-0.726,2.189-1.169,3.489-2.746,3.635-1.314.122-2.379-1.006-2.556-2.911a5.028,5.028,0,0,1,2.373-4.794l-2.516-3.544C420.993,228.376,419.211,231.325,419.607,235.6Zm1.127,11.852-0.448,15.306,4.058,0.119,0.312-10.688,5.212,0.153-0.263,9.005,3.958,0.116,0.264-9.006,5.146,0.151-0.3,10.226,4.057,0.118,0.434-14.844Z" transform="translate(-77.125 -67.969)"/>
</svg>
