<svg xmlns="http://www.w3.org/2000/svg" width="364.281" height="367.219" viewBox="0 0 364.281 367.219">
  <defs>
    <style>
      .cls-1 {
        fill: none;
        stroke: #fff;
        stroke-width: 3px;
      }

      .cls-1, .cls-2 {
        fill-rule: evenodd;
      }

      .cls-2 {
        fill: #fff;
      }
    </style>
  </defs>
  <path id="Ellipse_3_copy_4" data-name="Ellipse 3 copy 4" class="cls-1" d="M888.855,248.913a176.39,176.39,0,1,1-337.819-68.044" transform="translate(-534.594 -62.688)"/>
  <path id="TURNs_INTO_A_WAIL." data-name="TURNs INTO A WAIL." class="cls-2" d="M576.678,170.329l3.267-4.917-19.561-13,4.526-6.813-4.319-2.87L548.27,161.274l4.32,2.87,4.527-6.813Zm19.276-23.915c4.516-4.727,5.452-10.775.206-15.786l-13.236-12.646-4.079,4.27,12.992,12.412c3.019,2.885,2.954,5.273.274,8.079-2.71,2.836-5.122,3.04-8.141.156l-12.992-12.412-4.079,4.269L580.135,147.4C585.381,152.413,591.379,151.2,595.954,146.414ZM609,133.669l4.581-3.723-6.277-7.723,2.912-2.367,10.793,4.052,5.235-4.256-11.907-4.287a8.441,8.441,0,0,0-.941-10.049c-4.229-5.2-9.688-4.3-14.237-.6l-8.246,6.7Zm-4.835-15.307-5.4-6.642,3.534-2.873c2.192-1.782,4.362-2.188,6.384.3,2,2.455,1.273,4.508-.985,6.344Zm46.7-12.4,0.518-.283L637.505,80.289l-4.848,2.65,5.766,10.546c0.951,1.739,2.841,4.406,2.841,4.406a40.761,40.761,0,0,0-4.841-1.823l-19.207-4.977-0.518.283,13.877,25.386,4.848-2.65-5.765-10.547a50.652,50.652,0,0,0-2.879-4.386,42.7,42.7,0,0,0,4.879,1.8Zm14.729-5.34c5.3-1.825,8.3-5.935,6.574-10.959-1.606-4.665-4.991-5.819-10.436-6.219l-1.6-.118c-2.749-.213-4.019-0.534-4.6-2.209a2.569,2.569,0,0,1,1.848-3.312c1.6-.549,2.865-0.228,4.412,1.157l3.385-4.287c-2.946-2.6-5.923-2.956-9.471-1.734-4.984,1.716-7.076,6-5.635,10.19,1.565,4.545,4.977,5.779,9.6,6.107l1.6,0.118c2.936,0.238,4.684.394,5.343,2.308,0.549,1.595-.528,3.259-2.84,4.055-2.751.947-4.8,0.047-6.669-1.495l-3.64,4.2C656.21,101.083,660.41,102.4,665.593,100.618Zm24.57-6.746L696,92.966l-4.4-28.342-5.835.906Zm35.661-2.262,0.59-.011-0.525-28.925-5.524.1,0.218,12.017c0.036,1.982.475,5.222,0.475,5.222a40.675,40.675,0,0,0-3.445-3.86L702.9,62.838l-0.59.011,0.525,28.925,5.524-.1-0.219-12.017a50.4,50.4,0,0,0-.516-5.221,42.593,42.593,0,0,0,3.486,3.859ZM739.7,93.064L745.528,94l3.724-23.195,8.078,1.3,0.823-5.122-21.987-3.53-0.823,5.122,8.079,1.3Zm30.389,7.852a14.719,14.719,0,1,0-9.1-18.822A14.524,14.524,0,0,0,770.087,100.916Zm1.756-4.97c-4.931-1.742-6.908-6.779-5.124-11.829s6.486-7.728,11.417-5.986,6.909,6.779,5.125,11.829S776.774,97.687,771.843,95.946ZM796.62,112.09l4.7,3.219,3.515-2.294,9.184,6.294-0.872,4.106,5.113,3.5,5.538-31.278-0.417-.286Zm12.636-2.025,3.951-2.557c1.782-1.182,4.17-3.175,4.277-3.256-0.1.291-1.047,3.168-1.459,5.187l-0.96,4.608Zm25.661,33.345,0.373,0.457,14.953-3.555c1.662-.431,4.181-1.346,4.306-1.393a45.041,45.041,0,0,0-2.252,3.908l-6.632,13.745,0.373,0.457L875.03,146.8l-3.627-4.441-11.53,4.08c-1.955.671-4.82,2.031-4.977,2.105a37.261,37.261,0,0,0,2.9-4.653l5.565-11.784-0.374-.457-12.605,3.162a33.408,33.408,0,0,0-5.137,1.909c0.175-.252,2.014-2.733,3.056-4.456l6.276-10.514-3.947-4.834Zm16.457,20.442,2.686,5.019,4.177-.418,5.253,9.815-2.665,3.244,2.925,5.465,19.317-25.213-0.239-.446Zm12.148,4.02,4.685-.45c2.125-.229,5.163-0.9,5.294-0.921-0.22.214-2.387,2.33-3.683,3.932l-2.973,3.648Zm1.639,23.823,2.084,5.524,26.832-10.12-2.083-5.524Zm4.462,12.014,4.554,18.337,5.034-1.251-3.131-12.606,22.8-5.662-1.423-5.73Zm5.278,26.649A3.564,3.564,0,1,0,878,226.342,3.52,3.52,0,0,0,874.9,230.358Z" transform="translate(-534.594 -62.688)"/>
</svg>
