<svg xmlns="http://www.w3.org/2000/svg" width="373.719" height="368.719" viewBox="0 0 373.719 368.719">
  <defs>
    <style>
      .cls-1 {
        fill: none;
        stroke: #fff;
        stroke-width: 3px;
      }

      .cls-1, .cls-2 {
        fill-rule: evenodd;
      }

      .cls-2 {
        fill: #fff;
      }
    </style>
  </defs>
  <path id="Ellipse_3_copy_5" data-name="Ellipse 3 copy 5" class="cls-1" d="M436.342,265.552a176.4,176.4,0,1,1-348.57-49.009" transform="translate(-75.219 -62.188)"/>
  <path id="WHEN_A_PROJECT_FAIL" data-name="WHEN A PROJECT FAIL" class="cls-2" d="M105.988,201.784l0.231-.543-10.1-11.582c-1.155-1.271-3.137-3.075-3.237-3.164,0.266,0.022,2.83.241,4.507,0.176l15.253-.525,0.231-.543L90.325,164.7l-2.244,5.277,8.976,8.307c1.5,1.419,4.04,3.322,4.179,3.427a37.2,37.2,0,0,0-5.466-.4l-13.021.557-0.231.544,8.665,9.687a33.444,33.444,0,0,0,4.08,3.659c-0.3-.038-3.357-0.511-5.367-0.633l-12.227-.663L75.227,200.2Zm13.827-29.695,3.47-4.775-9.107-6.619,7.213-9.926,9.108,6.619,3.47-4.776-23.195-16.856-3.47,4.775,9.824,7.14-7.214,9.926-9.824-7.14-3.47,4.776ZM138.659,147.6l14.164-13.5-3.579-3.754-9.89,9.427-4.6-4.822L143.089,127l-3.491-3.663-8.334,7.944-4.539-4.762,9.463-9.021-3.58-3.755-13.736,13.1Zm37.224-31.558,0.474-.352-17.265-23.21-4.432,3.3,7.173,9.643c1.183,1.59,3.425,3.969,3.425,3.969a40.862,40.862,0,0,0-5.047-1.134L140.5,105.991l-0.474.352,17.265,23.21,4.433-3.3-7.173-9.643a50.566,50.566,0,0,0-3.459-3.943,42.454,42.454,0,0,0,5.081,1.107Zm13.29-8.068,5.266-2.163,0.008-4.2,10.3-4.231,2.957,2.98L213.437,98,190.312,76.227l-0.469.192Zm5.233-11.678,0.027-4.707c-0.013-2.138-.37-5.228-0.379-5.361,0.19,0.241,2.076,2.612,3.538,4.063l3.328,3.329Zm33.544-1.92,5.834-.907-1.444-9.294,4.126-.641c5.751-.894,10.091-4.556,9.061-11.183s-6.228-8.764-12.021-7.864l-9.961,1.548Zm3.593-15.327-1.366-8.794,3.959-.615c2.792-.434,4.9.477,5.389,3.644,0.486,3.126-1.147,4.7-4.023,5.15ZM253.92,90.868l5.9,0.085L259.966,81l3.753,0.054L269.4,91.09l6.747,0.1-6.38-10.931a8.439,8.439,0,0,0,5.728-8.311c0.1-6.7-4.671-9.514-10.532-9.6l-10.626-.153Zm6.118-14.842,0.123-8.56,4.554,0.066c2.825,0.041,4.75,1.123,4.7,4.327-0.045,3.162-1.917,4.274-4.826,4.233ZM294.62,94.8a14.715,14.715,0,1,0-11.465-17.474A14.519,14.519,0,0,0,294.62,94.8Zm1.093-5.156c-5.114-1.085-7.73-5.82-6.619-11.058s5.424-8.5,10.538-7.419,7.731,5.82,6.62,11.059S300.828,90.73,295.713,89.645Zm23.8,12.611c4.857,1.939,9.219.682,11.485-5l7.473-18.724-5.484-2.189-7.441,18.645c-1.1,2.742-2.512,2.994-4.314,2.275-1.88-.75-2.148-2.356-2.4-4.227l-5.544.921A9.164,9.164,0,0,0,319.515,102.256Zm14.267,5.67,16.908,9.847,2.61-4.482-11.806-6.876,3.353-5.758,9.948,5.794,2.546-4.373-9.948-5.793L350.7,90.6,362,97.179l2.61-4.482-16.4-9.55Zm32,22.223a13.5,13.5,0,0,0,13.227,2.911l-1.464-5.383c-2.8.831-5.525,0.847-8.357-1.551-3.958-3.352-3.986-8.735-.525-12.822s8.72-4.883,12.678-1.531a7.816,7.816,0,0,1,2.885,7.36l5.514,0.47c0.626-4.719-1.007-8.533-4.965-11.885A14.7,14.7,0,1,0,365.781,130.149Zm16.97,16.511,3.75,4.558L404.637,136.3l5.2,6.316,4-3.295-14.146-17.191-4,3.3,5.2,6.317Zm17.135,23.931,2.656,5.271,9.6-4.839,5.143,10.205,4.706-2.372-5.142-10.2,6.665-3.359,5.655,11.221,4.632-2.334-8.313-16.493Zm8.938,17.345,1.779,5.408,4.186,0.311,3.478,10.575-3.185,2.735,1.937,5.889,23.383-21.5-0.158-.481ZM420.1,194l4.693,0.365c2.133,0.142,5.241.008,5.374,0.009-0.254.172-2.755,1.882-4.307,3.236l-3.56,3.08Zm-2.5,23.727,1.1,5.8,28.174-5.341-1.1-5.8Zm2.33,12.636,1.315,18.849,5.176-.361-0.9-12.959,23.435-1.635-0.411-5.89Z" transform="translate(-75.219 -62.188)"/>
</svg>
