<svg xmlns="http://www.w3.org/2000/svg" width="365.313" height="370.656" viewBox="0 0 365.313 370.656">
  <defs>
    <style>
      .cls-1 {
        fill: none;
        stroke: #fff;
        stroke-width: 3px;
      }

      .cls-1, .cls-2 {
        fill-rule: evenodd;
      }

      .cls-2 {
        fill: #fff;
      }
    </style>
  </defs>
  <path id="Ellipse_3_copy_4" data-name="Ellipse 3 copy 4" class="cls-1" d="M788.458,89.528A176.391,176.391,0,1,1,592.164,372.759" transform="translate(-534.062 -59.969)"/>
  <path id="TURNs_INTO_A_WAIL." data-name="TURNs INTO A WAIL." class="cls-2" d="M592.643,345.04l-3.22-4.947L569.74,352.906l-4.463-6.856-4.346,2.829,12.145,18.659,4.347-2.83-4.463-6.855ZM578.32,317.868c-2.552-6.019-7.734-9.274-14.413-6.443l-16.854,7.145,2.3,5.437,16.543-7.013c3.844-1.63,6.011-.624,7.526,2.948,1.531,3.612.763,5.907-3.082,7.537L553.8,334.492l2.3,5.437,16.854-7.145C579.64,329.953,580.905,323.965,578.32,317.868Zm-6.535-17.026-1.6-5.682-9.577,2.7-1.02-3.612,8-8.305-1.834-6.493-8.653,9.236a8.44,8.44,0,0,0-9.6-3.117c-6.452,1.822-7.784,7.193-6.191,12.834l2.888,10.227Zm-15.97-1.625-8.238,2.327-1.237-4.383c-0.768-2.719-.281-4.872,2.8-5.743,3.044-.86,4.644.616,5.435,3.417Zm7.109-47.793-0.055-.588-28.805,2.686,0.513,5.5,11.967-1.116c1.974-.184,5.172-0.863,5.172-0.863a40.677,40.677,0,0,0-3.592,3.723l-12.178,15.664L536,277.019l28.806-2.687-0.513-5.5-11.968,1.116a50.616,50.616,0,0,0-5.168.905,42.492,42.492,0,0,0,3.588-3.765Zm0.932-15.639c0.424-5.593-2.161-9.975-7.459-10.377-4.919-.374-7.32,2.277-9.844,7.118l-0.742,1.424c-1.285,2.44-2.083,3.479-3.849,3.345a2.57,2.57,0,0,1-2.309-3.009c0.128-1.682.926-2.721,2.81-3.593l-2.595-4.806c-3.553,1.676-5.06,4.268-5.344,8.01-0.4,5.256,2.709,8.875,7.124,9.21,4.794,0.363,7.278-2.281,9.408-6.391l0.742-1.424c1.382-2.6,2.218-4.145,4.236-3.992,1.682,0.128,2.783,1.776,2.6,4.215-0.22,2.9-1.858,4.426-4.014,5.531l2.411,5C560.566,244.585,563.441,241.251,563.856,235.785Zm3.538-25.233,1.479-5.716-27.766-7.187-1.48,5.716Zm12.048-33.64,0.224-.546L552.9,165.391l-2.1,5.111,11.121,4.56c1.834,0.752,4.982,1.633,4.982,1.633A40.871,40.871,0,0,0,562,178.328l-18.052,8.232-0.224.547,26.768,10.975,2.1-5.111-11.121-4.56a50.515,50.515,0,0,0-5-1.594,42.543,42.543,0,0,0,4.924-1.673Zm6.832-12.163,3.169-4.982L569.62,147.16l4.391-6.9-4.377-2.784-11.951,18.79,4.378,2.784,4.391-6.9Zm19.248-24.793a14.719,14.719,0,1,0-20.886.9A14.523,14.523,0,0,0,605.522,139.956Zm-3.869-3.581c-3.552,3.837-8.961,3.658-12.891.02s-4.526-9.017-.974-12.855,8.961-3.658,12.892-.02S605.205,132.537,601.653,136.375Zm24.638-16.355,4.816-3.037-0.714-4.136,9.417-5.939,3.425,2.427,5.244-3.307L621.953,88.553l-0.428.27Zm3.146-12.4-0.783-4.642c-0.379-2.1-1.263-5.086-1.295-5.216,0.229,0.2,2.5,2.216,4.185,3.394l3.851,2.707ZM670.22,97.262l0.567-.162,2.659-15.138c0.262-1.7.421-4.373,0.426-4.506,0.151,0.22,1.591,2.353,2.7,3.616l9.993,11.534,0.568-.162,2.092-30.672-5.515,1.571-0.821,12.2c-0.158,2.062-.045,5.23-0.039,5.4a37.224,37.224,0,0,0-3.124-4.5l-8.616-9.777-0.568.162L668.45,79.659a33.448,33.448,0,0,0-.283,5.473c-0.162-.261-1.712-2.932-2.88-4.572l-7.169-9.927-6,1.71Zm25.288-7.013,5.672-.478,1.271-4,11.094-.935,1.922,3.731,6.177-.521-15.5-27.724-0.5.042Zm8.5-9.562,1.442-4.48c0.631-2.042,1.22-5.1,1.252-5.226,0.108,0.287,1.193,3.116,2.151,4.939l2.172,4.176Zm22.523,7.931,5.9,0.275,1.337-28.646-5.9-.275Zm12.8,0.663,18.64,3.082,0.846-5.118-12.815-2.119,3.832-23.176-5.826-.963Zm26.559,5.709a3.563,3.563,0,1,0-2.461-4.431A3.519,3.519,0,0,0,765.893,94.99Z" transform="translate(-534.062 -59.969)"/>
</svg>
