<svg xmlns="http://www.w3.org/2000/svg" width="367.625" height="368.625" viewBox="0 0 367.625 368.625">
  <defs>
    <style>
      .cls-1 {
        fill: none;
        stroke: #fff;
        stroke-width: 3px;
      }

      .cls-1, .cls-2 {
        fill-rule: evenodd;
      }

      .cls-2 {
        fill: #fff;
      }
    </style>
  </defs>
  <path id="Ellipse_3_copy_5" data-name="Ellipse 3 copy 5" class="cls-1" d="M387.925,123.647A176.4,176.4,0,1,1,128.862,361.952" transform="translate(-76.844 -60.938)"/>
  <path id="WHEN_A_PROJECT_FAIL" data-name="WHEN A PROJECT FAIL" class="cls-2" d="M129.014,338.508l-0.273-.524-15.363.46c-1.715.087-4.368,0.473-4.5,0.5,0.185-.192,1.982-2.035,3-3.373l9.273-12.121-0.274-.523-30.461,4.159,2.655,5.083,12.117-1.666c2.051-.263,5.131-1.015,5.3-1.056a37.2,37.2,0,0,0-3.777,3.971L98.875,343.83l0.273,0.524,12.985-.55a33.482,33.482,0,0,0,5.417-.831c-0.222.211-2.525,2.27-3.894,3.746l-8.271,9.029,2.889,5.532Zm-14.177-29.53-1.488-5.712-10.9,2.839L99.36,294.231l10.894-2.839-1.488-5.712L81.02,292.91l1.489,5.713L94.26,295.56l3.094,11.874L85.6,310.5l1.489,5.713Zm-6.971-30.106-1.448-19.514-5.173.383,1.011,13.627-6.645.493-0.852-11.482-5.047.375,0.852,11.481L84,274.722l-0.967-13.038-5.173.384,1.4,18.926Zm-0.77-48.8,0.028-.59L78.23,228.1l-0.264,5.517,12,0.575c1.98,0.095,5.241-.129,5.241-0.129a40.822,40.822,0,0,0-4.079,3.182l-14.254,13.8-0.028.589,28.894,1.384,0.264-5.518-12-.574a50.434,50.434,0,0,0-5.243.171,42.7,42.7,0,0,0,4.081-3.224Zm2.2-15.39,1.67-5.443-3.239-2.67,3.265-10.645,4.179-.394,1.818-5.927-31.505,4.055-0.148.484Zm-5.705-11.455-3.621-3.008c-1.66-1.347-4.275-3.032-4.384-3.109,0.307,0.006,3.336.053,5.385-.157l4.685-.46Zm19.8-27.144,3-5.085-8.1-4.781,2.123-3.6c2.958-5.012,2.881-10.69-2.894-14.1s-10.725-.748-13.7,4.3l-5.124,8.681Zm-9.566-12.5-7.663-4.524,2.037-3.451c1.436-2.433,3.476-3.482,6.236-1.853,2.724,1.608,2.907,3.871,1.427,6.377Zm23.336-9.793,3.812-4.509-7.6-6.425,2.423-2.866,11.358,1.981,4.356-5.153-12.5-2.006a8.439,8.439,0,0,0-2.787-9.7c-5.121-4.329-10.318-2.427-14.1,2.05l-6.861,8.115Zm-7.589-14.147-6.538-5.527,2.941-3.478c1.824-2.158,3.882-2.958,6.329-.889,2.416,2.042,2.087,4.194.209,6.416Zm36.456-14.814a14.715,14.715,0,1,0-20.781-2.226A14.519,14.519,0,0,0,166.026,124.831Zm-3.291-4.116c-4.084,3.264-9.4,2.281-12.748-1.9s-3.13-9.589.953-12.853,9.4-2.282,12.748,1.9S166.819,117.45,162.735,120.715Zm24.85-10.394c4.58-2.524,6.377-6.692,3.425-12.048l-9.729-17.657-5.172,2.85,9.689,17.583c1.425,2.585.72,3.841-.979,4.777-1.773.977-3.184,0.165-4.79-.828l-2.807,4.869A9.164,9.164,0,0,0,187.585,110.321Zm13.435-7.429,18.339-6.819-1.807-4.861-12.806,4.762-2.322-6.245,10.79-4.012-1.764-4.743-10.79,4.012-2.293-6.166,12.253-4.556L208.812,69.4l-17.786,6.614ZM238.5,92.263a13.5,13.5,0,0,0,10.644-8.375l-5.09-2.285c-1.137,2.694-2.851,4.808-6.5,5.475-5.1.932-9.281-2.462-10.244-7.73s1.76-9.838,6.863-10.77a7.817,7.817,0,0,1,7.519,2.441l3.862-3.964c-3.25-3.478-7.234-4.637-12.336-3.7A14.7,14.7,0,1,0,238.5,92.263Zm23.53-2.639,5.9-.006-0.025-23.485,8.18-.009-0.006-5.186-22.263.024,0.006,5.186,8.18-.009ZM291.4,91.566l5.761,1.292,2.353-10.492,11.15,2.5,1.154-5.143-11.151-2.5L302.3,69.94l12.262,2.75,1.135-5.061-18.022-4.041Zm19.078,4.1,5.309,2.057,2.9-3.038,10.381,4.023,0.092,4.2,5.781,2.24-1.777-31.713-0.471-.183ZM322.312,90.8l3.26-3.395c1.464-1.559,3.332-4.046,3.417-4.148-0.028.306-.293,3.324-0.232,5.383l0.122,4.705Zm16.751,16.989,5.181,2.831,13.75-25.165-5.181-2.831ZM350.308,114l15.4,10.945,3-4.229L358.126,113.2l13.608-19.15-4.814-3.42Z" transform="translate(-76.844 -60.938)"/>
</svg>
