<svg xmlns="http://www.w3.org/2000/svg" width="368.75" height="369.094" viewBox="0 0 368.75 369.094">
  <defs>
    <style>
      .cls-1 {
        fill: none;
        stroke: #fff;
        stroke-width: 3px;
      }

      .cls-1, .cls-2 {
        fill-rule: evenodd;
      }

      .cls-2 {
        fill: #fff;
      }
    </style>
  </defs>
  <path id="Ellipse_3_copy_5" data-name="Ellipse 3 copy 5" class="cls-1" d="M419.4,168.29A176.4,176.4,0,1,1,99.588,315.333" transform="translate(-73.719 -61.563)"/>
  <path id="WHEN_A_PROJECT_FAIL" data-name="WHEN A PROJECT FAIL" class="cls-2" d="M106.945,293.073l-0.1-.582L92.086,288.2c-1.658-.445-4.3-0.894-4.433-0.914,0.235-.126,2.512-1.326,3.888-2.287l12.552-8.681-0.1-.582-30.264-5.414,0.962,5.653,12.042,2.143c2.032,0.381,5.194.613,5.368,0.626a37.312,37.312,0,0,0-4.816,2.616l-10.657,7.5,0.1,0.582,12.525,3.471a33.3,33.3,0,0,0,5.41.876c-0.277.133-3.1,1.383-4.858,2.367l-10.648,6.046L80.2,308.36Zm-4.4-32.459,0.341-5.893-11.24-.651,0.709-12.25,11.24,0.651,0.341-5.894-28.625-1.656-0.341,5.893,12.124,0.7-0.709,12.25-12.123-.7-0.341,5.894Zm2.629-30.791L109.8,210.81l-5.04-1.226-3.231,13.276-6.474-1.575L97.773,210.1l-4.917-1.2-2.722,11.186-6.392-1.555,3.091-12.7-5.04-1.226-4.487,18.439Zm14.279-46.665,0.209-.552L92.591,172.4l-1.949,5.168,11.245,4.241c1.854,0.7,5.026,1.489,5.026,1.489a40.742,40.742,0,0,0-4.859,1.773l-17.808,8.743-0.208.552L111.1,204.572l1.949-5.168-11.245-4.241a50.423,50.423,0,0,0-5.041-1.45,42.7,42.7,0,0,0,4.875-1.812Zm6.826-13.968,3.263-4.665-2.26-3.537,6.381-9.124,4.1,0.911,3.554-5.08-31.225-5.835-0.29.415Zm-1.905-12.655-2.52-3.976c-1.165-1.792-3.135-4.2-3.214-4.307,0.29,0.1,3.158,1.077,5.172,1.508l4.6,1ZM151.562,136.8l4.421-3.915-6.236-7.041,3.126-2.768c4.357-3.859,6.031-9.285,1.585-14.3s-9.976-4.012-14.364-.125l-7.547,6.683Zm-5.255-14.839-5.9-6.663,3-2.656c2.115-1.874,4.379-2.244,6.5.155,2.1,2.368,1.575,4.578-.6,6.507Zm25.217-2.139,5.014-3.117-5.255-8.452,3.187-1.982,10.2,5.379,5.73-3.563-11.274-5.752a8.44,8.44,0,0,0,.332-10.089c-3.54-5.694-9.07-5.484-14.048-2.389l-9.025,5.611Zm-2.868-15.8-4.521-7.27,3.868-2.4c2.4-1.492,4.6-1.621,6.3,1.1,1.67,2.686.7,4.632-1.776,6.169Zm39.245-2.88a14.715,14.715,0,1,0-19.088-8.512A14.52,14.52,0,0,0,207.9,101.147Zm-1.865-4.929c-4.89,1.85-9.65-.722-11.544-5.731s-0.029-10.087,4.861-11.936S209,79.273,210.9,84.281,210.926,94.368,206.036,96.218Zm26.842-2.244c5.135-.992,8.126-4.406,6.966-10.41L236.019,63.77l-5.8,1.12,3.81,19.711c0.56,2.9-.5,3.876-2.4,4.244-1.987.384-3.08-.822-4.3-2.261l-4.168,3.769A9.163,9.163,0,0,0,232.878,93.974Zm15.069-2.935,19.548-.847-0.224-5.182-13.65.591-0.288-6.656,11.5-.5-0.219-5.056-11.5.5-0.285-6.572,13.06-.566-0.224-5.182-18.958.821Zm38.933,1.417a13.494,13.494,0,0,0,12.7-4.694l-4.14-3.74c-1.91,2.214-4.192,3.7-7.87,3.209-5.142-.683-8.073-5.2-7.369-10.507s4.7-8.82,9.844-8.137a7.817,7.817,0,0,1,6.4,4.636l4.895-2.583c-2.023-4.31-5.458-6.637-10.6-7.32A14.7,14.7,0,1,0,286.88,92.455Zm23.2,4.729,5.619,1.81,7.2-22.354,7.786,2.508,1.59-4.936-21.19-6.826-1.59,4.936,7.786,2.508Zm27.347,10.883,5.083,3,5.467-9.259,9.84,5.81,2.68-4.539-9.84-5.81,3.794-6.427,10.821,6.389,2.637-4.466-15.9-9.39Zm16.892,9.769,4.418,3.591,3.69-2,8.64,7.021-1.2,4.021,4.81,3.91,8.067-30.722-0.392-.319Zm12.758-.988,4.147-2.228c1.871-1.032,4.414-2.824,4.527-2.9-0.121.283-1.3,3.073-1.877,5.051l-1.332,4.514Zm10.712,21.318,4.059,4.288,20.825-19.714-4.059-4.288Zm8.786,9.375,11.289,15.153,4.16-3.1-7.761-10.417,18.84-14.035-3.528-4.735Z" transform="translate(-73.719 -61.563)"/>
</svg>
