<svg xmlns="http://www.w3.org/2000/svg" width="364.063" height="370.813" viewBox="0 0 364.063 370.813">
  <defs>
    <style>
      .cls-1 {
        fill: none;
        stroke: #fff;
        stroke-width: 3px;
      }

      .cls-1, .cls-2 {
        fill-rule: evenodd;
      }

      .cls-2 {
        fill: #fff;
      }
    </style>
  </defs>
  <path id="Ellipse_3_copy_4" data-name="Ellipse 3 copy 4" class="cls-1" d="M832.7,118.642A176.39,176.39,0,1,1,559.311,328.429" transform="translate(-532.906 -60.656)"/>
  <path id="TURNs_INTO_A_WAIL." data-name="TURNs INTO A WAIL." class="cls-2" d="M568.23,302.179l-1.557-5.694-22.654,6.193-2.157-7.891-5,1.368,5.87,21.475,5-1.368-2.157-7.89Zm-5.345-30.247c-0.592-6.511-4.533-11.192-11.758-10.535L532.9,263.055l0.535,5.881,17.895-1.628c4.158-.378,5.915,1.241,6.266,5.106,0.356,3.906-1.076,5.858-5.235,6.236l-17.894,1.628,0.535,5.88,18.23-1.658C560.453,283.843,563.485,278.527,562.885,271.932Zm-1.025-18.208,0.207-5.9-9.946-.348,0.132-3.751,10.149-5.468,0.236-6.742-11.059,6.153a8.441,8.441,0,0,0-8.191-5.9c-6.7-.235-9.608,4.474-9.813,10.332L533.2,252.72ZM547.148,247.3l-8.555-.3,0.16-4.551c0.1-2.824,1.22-4.726,4.423-4.614,3.161,0.111,4.234,2.005,4.132,4.913Zm21.36-43.341,0.128-.577-28.251-6.235-1.191,5.394,11.737,2.591c1.935,0.427,5.188.756,5.188,0.756a40.725,40.725,0,0,0-4.557,2.45l-16.378,11.2-0.128.577,28.251,6.235,1.191-5.394-11.737-2.591a50.566,50.566,0,0,0-5.2-.715,42.547,42.547,0,0,0,4.566-2.491Zm5.662-14.609c2.111-5.195.987-10.158-3.935-12.158-4.571-1.858-7.666-.066-11.547,3.773l-1.142,1.13c-1.968,1.931-3.045,2.677-4.686,2.01a2.569,2.569,0,0,1-1.28-3.57c0.635-1.563,1.712-2.308,3.773-2.563l-1-5.37c-3.894.512-6.121,2.52-7.534,6-1.984,4.883-.129,9.279,3.973,10.945,4.453,1.81,7.626.05,10.91-3.213l1.141-1.129c2.11-2.056,3.377-3.27,5.252-2.508,1.563,0.635,2.109,2.54,1.188,4.806-1.1,2.7-3.121,3.648-5.511,4.042l0.768,5.5C568.35,196.727,572.106,194.43,574.17,189.351ZM585.241,166.4l3.155-4.992-24.247-15.321-3.155,4.992Zm21.744-28.356,0.38-.452-22.139-18.623-3.557,4.228,9.2,7.737c1.517,1.276,4.246,3.075,4.246,3.075a40.716,40.716,0,0,0-5.173.058l-19.7,2.328-0.38.451L592,155.474l3.556-4.228-9.2-7.737a50.538,50.538,0,0,0-4.273-3.044,42.7,42.7,0,0,0,5.2-.089Zm10.218-9.5,4.538-3.777-15.027-18.057L613,101.483,609.685,97.5l-17.117,14.245,3.319,3.987,6.289-5.234Zm25.9-17.734a14.719,14.719,0,1,0-20.162-5.523A14.523,14.523,0,0,0,643.1,110.817Zm-2.591-4.591c-4.554,2.57-9.65.748-12.282-3.917s-1.557-9.968,3-12.538,9.65-.748,12.282,3.916S645.064,103.656,640.51,106.226Zm28.455-8.052,5.513-1.422,0.582-4.157,10.781-2.78,2.521,3.357,6-1.548L674.44,66.884l-0.49.126Zm6.783-10.852,0.671-4.659c0.281-2.119.349-5.229,0.359-5.362,0.155,0.265,1.7,2.872,2.948,4.509l2.841,3.753Zm42,2.59,0.59,0.019,7.153-13.6c0.767-1.536,1.735-4.035,1.781-4.16,0.076,0.256.8,2.726,1.464,4.267l6,14.034,0.59,0.019,11.356-28.569-5.732-.188L736.435,73.1c-0.78,1.915-1.639,4.967-1.687,5.134a37.322,37.322,0,0,0-1.6-5.241l-5.221-11.941-0.59-.019-5.9,11.577a33.5,33.5,0,0,0-1.94,5.126c-0.074-.3-0.735-3.315-1.347-5.233l-3.8-11.641-6.237-.2Zm26.222,1.041,5.547,1.276,2.432-3.422,10.849,2.5,0.692,4.14,6.041,1.39-6.3-31.132-0.493-.113Zm11.017-6.509,2.74-3.826c1.226-1.752,2.719-4.481,2.788-4.594,0.016,0.307.186,3.331,0.541,5.36l0.794,4.639Zm19.026,14.428,5.533,2.063L789.56,74.064,784.027,72ZM786,103.41l16.81,8.626,2.368-4.616-11.557-5.929,10.724-20.9-5.253-2.7Zm23.549,13.545a3.563,3.563,0,1,0-.991-4.971A3.519,3.519,0,0,0,809.544,116.955Z" transform="translate(-532.906 -60.656)"/>
</svg>
