<?xml version="1.0" encoding="utf-8"?>
<!-- Generator: Adobe Illustrator 22.1.0, SVG Export Plug-In . SVG Version: 6.00 Build 0)  -->
<svg version="1.1" id="Layer_1" xmlns="http://www.w3.org/2000/svg" xmlns:xlink="http://www.w3.org/1999/xlink" x="0px" y="0px"
	 viewBox="0 0 203 203" style="enable-background:new 0 0 203 203;" xml:space="preserve">
<style type="text/css">
	.st0{enable-background:new    ;}
	.st1{fill:#00FCFF;}
</style>
<g class="st0">
	<path class="st1" d="M13,1.9V0h3.9v15.6h3.9v3.9h-3.9v7.8H13v-7.8H1.3v-7.8h2V9.7h2V7.8h2V5.8h2V3.9h2V1.9H13z M13,15.6V7.8h-2v1.9
		h-2v1.9h-2v1.9h-2v1.9H13z"/>
	<path class="st1" d="M50,23.3h-2v-3.9H52v1.9h2v1.9h7.8v-3.9h-3.9v-1.9h-3.9v-1.9H50v-1.9h-2V9.7h2V7.8h2V5.8h11.7v1.9h2v1.9h2v3.9
		h-3.9v-1.9h-2V9.7h-7.8v3.9h5.9v1.9h3.9v1.9h2v1.9h2v3.9h-2v1.9h-2v1.9H52v-1.9h-2V23.3z"/>
	<path class="st1" d="M85.2,23.3h2v3.9h-3.9v-1.9h-2v-1.9h-2V9.7h-3.9V5.8h3.9V0h3.9v5.8h3.9v3.9h-3.9v11.7h2V23.3z"/>
	<path class="st1" d="M108.6,23.3h2v3.9h-3.9v-1.9h-2v-1.9h-2v-9.7h-3.9V9.7h7.8v11.7h2V23.3z M106.6,1.9v3.9h-3.9V1.9H106.6z"/>
	<path class="st1" d="M130,0v27.3h-3.9V0H130z"/>
	<path class="st1" d="M153.5,0v27.3h-3.9V0H153.5z"/>
</g>
<g class="st0">
	<path class="st1" d="M5.2,75.1v-1.9h-2v-1.9h-2V57.6h2v-1.9h2v-1.9h11.7v1.9h2v1.9h2v13.6h-2v1.9h-2v1.9H5.2z M7.1,71.2h7.8v-1.9h2
		v-9.7h-2v-1.9H7.1v1.9h-2v9.7h2V71.2z"/>
	<path class="st1" d="M24.7,53.7h3.9v15.6h2v1.9h2v-9.7h3.9v9.7h2v-1.9h2V53.7h3.9v17.5h-2v1.9h-2v1.9h-3.9v-1.9h-3.9v1.9h-3.9v-1.9
		h-2v-1.9h-2V53.7z"/>
	<path class="st1" d="M52,59.5v15.6h-3.9V53.7H52v1.9h2v-1.9h9.8v1.9h2v1.9h2v17.5h-3.9V59.5h-2v-1.9h-7.8v1.9H52z"/>
	<path class="st1" d="M96.9,67.3h-2V47.8h3.9v17.5h2v1.9h2v1.9h3.9v-1.9h2v-1.9h2V47.8h3.9v19.5h-2v1.9h-2v1.9h-2v1.9h-2v1.9h-3.9
		v-1.9h-2v-1.9h-2v-1.9h-2V67.3z"/>
	<path class="st1" d="M124.2,71.2h7.8v-1.9h2v-1.9h3.9v3.9h-2v1.9h-2v1.9h-11.7v-1.9h-2v-1.9h-2V51.7h2v-1.9h2v-1.9h11.7v1.9h2v1.9
		h2v3.9h-3.9v-1.9h-2v-1.9h-7.8v1.9h-2v15.6h2V71.2z"/>
	<path class="st1" d="M147.6,63.4h-2v11.7h-3.9V47.8h15.6v1.9h2v1.9h2v7.8h-2v1.9h-2v1.9h-3.9v1.9h2v1.9h2v1.9h2v1.9h2v3.9h-3.9
		v-1.9h-2v-1.9h-2v-1.9h-2v-1.9h-2v-1.9h-2V63.4z M145.7,51.7v7.8h9.8v-1.9h2v-3.9h-2v-1.9H145.7z"/>
	<path class="st1" d="M167.1,71.2h-2v-3.9h3.9v1.9h2v1.9h7.8v-3.9h-3.9v-1.9H171v-1.9h-3.9v-1.9h-2v-3.9h2v-1.9h2v-1.9h11.7v1.9h2
		v1.9h2v3.9h-3.9v-1.9h-2v-1.9H171v3.9h5.9v1.9h3.9v1.9h2v1.9h2v3.9h-2v1.9h-2v1.9h-11.7v-1.9h-2V71.2z"/>
	<path class="st1" d="M198.3,71.2v3.9h-3.9v-3.9H198.3z"/>
</g>
</svg>
