<svg xmlns="http://www.w3.org/2000/svg" viewBox="0 0 624.03 52.42"><defs><style>.cls-1{fill:#fbf8ec;}.cls-2{fill:#ec9249;}</style></defs><title>Asset 1</title><g id="Layer_2" data-name="Layer 2"><g id="Layer_2-2" data-name="Layer 2"><path class="cls-1" d="M71.78,12.27V21.9H83V31H71.85V49.7H61.1v-47H84v9.55Z"/><path class="cls-1" d="M90.19,49.7v-47h10.68v47Z"/><path class="cls-1" d="M130,49.7,119.1,21.1h-.2l.26,28.6h-9.49v-47h11.68l10.82,29h.2l-.2-29h9.16v47Z"/><path class="cls-1" d="M182.86,26.34A36.71,36.71,0,0,1,181.7,36a20.32,20.32,0,0,1-3.55,7.37A15.73,15.73,0,0,1,172.08,48a21.08,21.08,0,0,1-8.73,1.66h-13.2v-47h13.2a21.08,21.08,0,0,1,8.73,1.66,15.61,15.61,0,0,1,6.07,4.74,20.77,20.77,0,0,1,3.55,7.43A37.72,37.72,0,0,1,182.86,26.34Zm-10.68,0q0-7.1-2.42-10.72A7.29,7.29,0,0,0,163.49,12H160.9v28.4h2.59a7.28,7.28,0,0,0,6.27-3.62Q172.18,33.18,172.18,26.34Z"/><path class="cls-2" d="M224.67,49.7l.4-32.25h-.27L216.91,49.7h-7.5l-7.63-32.25h-.2l.33,32.25h-9.62v-47h13.4L213.26,33h.26l7.37-30.26h14.2v47Z"/><path class="cls-2" d="M262,32.78V49.7H251.61V32.78L239.74,2.72h11.48l5.64,19.44H257L262.7,2.72H274Z"/><path class="cls-1" d="M299.79,13.93A8.24,8.24,0,0,0,297,11.78a7.62,7.62,0,0,0-3.32-.77,5.06,5.06,0,0,0-3.22,1.13A4.49,4.49,0,0,0,289,15.86a4.25,4.25,0,0,0,1.46,3.43A23,23,0,0,0,294.82,22c1.06.53,2.19,1.16,3.37,1.89a15.61,15.61,0,0,1,3.24,2.7,13.52,13.52,0,0,1,2.44,3.82,13.27,13.27,0,0,1,1,5.28,17.27,17.27,0,0,1-1.21,6.68A13.24,13.24,0,0,1,295.69,50a16.19,16.19,0,0,1-5.52,1,18.4,18.4,0,0,1-7.73-1.59,19,19,0,0,1-5.61-3.72l5.44-8a12.16,12.16,0,0,0,3.52,2.55,9.13,9.13,0,0,0,4,1A4.55,4.55,0,0,0,293.09,40a4.65,4.65,0,0,0,1.33-3.52,4.56,4.56,0,0,0-1.6-3.68,23.48,23.48,0,0,0-4.64-2.89,30.93,30.93,0,0,1-3.62-2.06,13.28,13.28,0,0,1-3-2.72,11.92,11.92,0,0,1-2-3.72,15.41,15.41,0,0,1-.73-5,16,16,0,0,1,1.3-6.74A13.37,13.37,0,0,1,283.5,5a13.83,13.83,0,0,1,4.65-2.65,15.8,15.8,0,0,1,5.14-.86,17.94,17.94,0,0,1,6.9,1.25,14.37,14.37,0,0,1,5.11,3.43Z"/><path class="cls-1" d="M311.44,49.7v-47h22.7v9.35H321.59V21.3h11.55v8.76H321.59V40.15h13.34V49.7Z"/><path class="cls-1" d="M364,49.7l-1.92-8.56H351.55l-1.93,8.56H339l11.41-47h13.34l11.35,47Zm-7-36.76h-.27l-4,20h8Z"/><path class="cls-1" d="M392.49,11.74v38H382.08v-38h-8.63v-9h27.67v9Z"/><path class="cls-1" d="M419.17,11.74v38H408.75v-38h-8.62v-9H427.8v9Z"/><path class="cls-1" d="M432.78,49.7v-47h10.75V39.88h12.54V49.7Z"/><path class="cls-1" d="M461.38,49.7v-47h22.7v9.35H471.54V21.3h11.54v8.76H471.54V40.15h13.34V49.7Z"/><path class="cls-1" d="M503.3,44.33a6,6,0,0,1-1.59,4.24,5.3,5.3,0,0,1-4,1.73,5.23,5.23,0,0,1-4.08-1.73A6.08,6.08,0,0,1,492,44.33a6.25,6.25,0,0,1,1.56-4.25,5.12,5.12,0,0,1,4.08-1.79,5.18,5.18,0,0,1,4,1.79A6.18,6.18,0,0,1,503.3,44.33Z"/><path class="cls-1" d="M531,49.14a15.7,15.7,0,0,1-8,1.82,15.4,15.4,0,0,1-7.46-1.82A17.23,17.23,0,0,1,509.87,44a25.15,25.15,0,0,1-3.72-7.83,35.72,35.72,0,0,1-1.33-10,36.34,36.34,0,0,1,1.33-10.09,24.73,24.73,0,0,1,3.72-7.83,16.91,16.91,0,0,1,5.74-5,15.49,15.49,0,0,1,7.46-1.79,16.49,16.49,0,0,1,7.87,1.69A15.45,15.45,0,0,1,536,7.36l-5.7,7.7a10.12,10.12,0,0,0-2.69-2.52,7,7,0,0,0-3.75-.93,6.11,6.11,0,0,0-3.68,1.13,9.39,9.39,0,0,0-2.66,3.08,15.7,15.7,0,0,0-1.62,4.65,29.08,29.08,0,0,0-.53,5.74,28.71,28.71,0,0,0,.53,5.71,16,16,0,0,0,1.62,4.64,9.1,9.1,0,0,0,2.69,3.12,6.28,6.28,0,0,0,3.72,1.13,6.59,6.59,0,0,0,3.71-1.06,8.55,8.55,0,0,0,2.52-2.53l5.91,7.37A15.84,15.84,0,0,1,531,49.14Z"/><path class="cls-1" d="M574.21,26.08a38.55,38.55,0,0,1-1.27,10.18,24.5,24.5,0,0,1-3.58,7.87,16.52,16.52,0,0,1-5.67,5,16.75,16.75,0,0,1-15.07,0,16.52,16.52,0,0,1-5.67-5,24.51,24.51,0,0,1-3.59-7.87,38.56,38.56,0,0,1-1.26-10.18A38.71,38.71,0,0,1,539.33,16a23.77,23.77,0,0,1,3.55-7.77,16.38,16.38,0,0,1,5.68-5,17.23,17.23,0,0,1,15.13,0,16.44,16.44,0,0,1,5.67,5A24.23,24.23,0,0,1,572.94,16,37.82,37.82,0,0,1,574.21,26.08Zm-10.89,0a32.59,32.59,0,0,0-.46-5.68,18.59,18.59,0,0,0-1.36-4.54,8.38,8.38,0,0,0-2.23-3,4.74,4.74,0,0,0-3.12-1.1,4.89,4.89,0,0,0-3.15,1.1,8.09,8.09,0,0,0-2.25,3,17.39,17.39,0,0,0-1.33,4.54,34.79,34.79,0,0,0-.43,5.68,35.3,35.3,0,0,0,.43,5.7,17.47,17.47,0,0,0,1.33,4.58,8.37,8.37,0,0,0,2.25,3,4.76,4.76,0,0,0,3.15,1.13,4.61,4.61,0,0,0,3.12-1.13,8.69,8.69,0,0,0,2.23-3,18.66,18.66,0,0,0,1.36-4.58A33.07,33.07,0,0,0,563.32,26.08Z"/><path class="cls-1" d="M613.61,49.7l.4-32.25h-.27L605.85,49.7h-7.5l-7.63-32.25h-.2l.33,32.25h-9.62v-47h13.4L602.2,33h.26l7.37-30.26H624v47Z"/><path class="cls-2" d="M18.84,0A18.66,18.66,0,0,0,0,18.43a18.1,18.1,0,0,0,2.81,9.69l15,23.57a1.59,1.59,0,0,0,2.69,0L35,27.87a18.1,18.1,0,0,0,2.66-9.44A18.66,18.66,0,0,0,18.84,0Zm0,24.29a6.5,6.5,0,1,1,6.5-6.5A6.5,6.5,0,0,1,18.84,24.29Z"/></g></g></svg>