<svg id="copy1.svg" xmlns="http://www.w3.org/2000/svg" width="369.563" height="364.594" viewBox="0 0 369.563 364.594">
  <defs>
    <style>
      .cls-1 {
        fill: none;
        stroke: #fff;
        stroke-width: 3px;
      }

      .cls-1, .cls-2 {
        fill-rule: evenodd;
      }

      .cls-2 {
        fill: #fff;
      }
    </style>
  </defs>
  <path id="Ellipse_3_copy_21" data-name="Ellipse 3 copy 21" class="cls-1" d="M431.637,281.581A176.4,176.4,0,0,1,81,254q0-4.671.24-9.282" transform="translate(-75.313 -67.281)"/>
  <path id="EXCEPTIONAL_PRIMARY_CARE" data-name="EXCEPTIONAL PRIMARY CARE" class="cls-2" d="M98.562,229.144l3.5-15.857-4.2-.929-2.446,11.073-5.4-1.192,2.061-9.331-4.1-.905-2.061,9.33-5.332-1.178,2.34-10.595-4.2-.928-3.4,15.379Zm4.424-19.5,1.82-4.813-4.627-5.678a26.38,26.38,0,0,0-2.59-2.551,33.557,33.557,0,0,0,3.692-.363l7.251-1.263,1.98-5.238L95.5,192.52l-7.8-9.759-1.844,4.878,3.014,3.61a20.008,20.008,0,0,0,2.562,2.428c-0.234.024-2.286,0.108-3.6,0.322l-4.685.811-1.968,5.206,12.309-2.27Zm13.942-31.123a11.2,11.2,0,0,0,.153-11.243l-4.133,2.092a6.785,6.785,0,0,1,.139,7.055c-2.062,3.78-6.435,4.7-10.337,2.574s-5.431-6.272-3.368-10.052a6.487,6.487,0,0,1,5.5-3.578l-0.541-4.563c-3.943.282-6.77,2.249-8.832,6.028A12.2,12.2,0,1,0,116.928,178.521ZM124,166.114l9.813-12.941-3.431-2.6-6.852,9.036-4.407-3.341,5.774-7.614-3.347-2.538-5.774,7.614-4.35-3.3,6.555-8.646-3.43-2.6-9.517,12.551Zm13.285-16.9,3.469-3.463-5.516-5.525,2.453-2.449c3.419-3.413,4.537-7.991.6-11.931s-8.463-2.829-11.907.609l-5.921,5.912ZM132.2,137.184l-5.219-5.228,2.354-2.349c1.66-1.658,3.517-2.077,5.4-.194,1.855,1.858,1.531,3.714-.178,5.421Zm24.45-6.512,3.729-3.18-12.654-14.835,5.167-4.407-2.794-3.276-14.062,11.995,2.794,3.276,5.167-4.407Zm12.6-9.992,4.032-2.786L159.742,98.309,155.71,101.1ZM188.264,109.4a12.215,12.215,0,1,0-16.572-5.132A12.054,12.054,0,0,0,188.264,109.4Zm-2.023-3.879c-3.848,2.007-8.025.357-10.081-3.584s-1.019-8.311,2.829-10.318,8.025-.357,10.08,3.584S190.089,103.513,186.241,105.52Zm35.647-9.461,0.467-.151L214.98,73.055l-4.365,1.408,3.064,9.495c0.506,1.566,1.633,4.034,1.633,4.034a33.807,33.807,0,0,0-3.665-2.238l-14.888-7.04-0.466.15,7.374,22.854,4.365-1.409-3.064-9.494a41.982,41.982,0,0,0-1.666-4.023,35.323,35.323,0,0,0,3.7,2.227Zm4.239-1.357,4.665-.744,0.806-3.389,9.124-1.455,1.82,2.97,5.08-.81L233.093,69.28l-0.414.066Zm6.451-8.435,0.918-3.8c0.4-1.729.7-4.293,0.716-4.4,0.107,0.231,1.179,2.505,2.083,3.956l2.054,3.323Zm18.986,4.9,15.675-.3-0.083-4.3-10.777.21L256,67.278l-4.9.1Zm28.772,0.7,4.831,0.817,1.3-7.7,3.416,0.577c4.762,0.8,9.139-.94,10.067-6.427s-2.605-8.533-7.4-9.344L284.3,68.4Zm6.849-11.124,1.231-7.282,3.278,0.554c2.312,0.391,3.73,1.66,3.287,4.283-0.437,2.588-2.136,3.4-4.518,3Zm14.52,15.1,4.67,1.484,2.5-7.873,2.969,0.944,2.1,9.336,5.337,1.7-2.446-10.217a7.006,7.006,0,0,0,6.547-5.229c1.685-5.3-1.429-8.681-6.066-10.155l-8.407-2.671Zm8.423-10.325,2.152-6.772,3.6,1.145c2.235,0.71,3.5,2.032,2.7,4.567-0.8,2.5-2.549,2.936-4.851,2.2Zm13.112,17.824,4.49,1.964L337.268,83.5l-4.49-1.964Zm9.885,4.067,4.028,2.4,4.575-7.664c0.825-1.383,1.984-3.667,1.984-3.667a42.013,42.013,0,0,0,.472,4.195l1.349,6.961,0.391,0.233,6.766-2.117a42.006,42.006,0,0,0,3.917-1.576s-1.46,2.1-2.285,3.488l-4.575,7.664,4.058,2.422L366.129,99.1l-0.36-.215-16.521,5.141-3.467-17.071-0.331-.2Zm23.863,14.734,3.592,3.069,3.1-1.585,7.024,6-1.08,3.312,3.912,3.341,7.316-25.321-0.319-.273Zm10.6-.561,3.485-1.763c1.574-.819,3.72-2.253,3.815-2.31-0.106.231-1.142,2.522-1.659,4.151l-1.2,3.718Zm8.627,17.6,3.215,3.7,6.231-5.42,2.045,2.35-3.062,9.064,3.675,4.224,3.226-9.995a7,7,0,0,0,8.308-1.059c4.2-3.652,3.3-8.155.1-11.825l-5.788-6.653Zm12.562-4.434,5.36-4.663,2.48,2.852c1.539,1.769,1.935,3.557-.071,5.3-1.98,1.723-3.7,1.181-5.289-.641Zm4.967,26.4,2.7,4.131,7.59-4.957,16.547-1.611-2.756-4.219-7.182.844c-1.943.225-4.765,0.9-4.765,0.9s1.77-2.41,2.7-4.061l3.584-6.354-3-4.6-8.113,15.165Zm16.413,32.369a11.2,11.2,0,0,0,8.512,7.342l1.053-4.509a6.785,6.785,0,0,1-5.492-4.428c-1.569-4.008.533-7.951,4.672-9.571s8.294-.128,9.863,3.881a6.485,6.485,0,0,1-.795,6.513l3.842,2.517c2.318-3.2,2.629-6.63,1.06-10.638A12.2,12.2,0,1,0,410.16,193.523Zm4.342,10.652,1.051,4.606,3.435,0.58,2.055,9.008-2.843,2.013,1.144,5.015,20.985-15.952-0.093-.409Zm8.844,5.879,3.849,0.665c1.751,0.283,4.329.412,4.439,0.423-0.223.123-2.421,1.342-3.809,2.341l-3.179,2.269Zm-3.567,19.305,0.382,4.885,8.235-.644,0.243,3.106-7.859,5.46,0.437,5.583,8.545-6.11a7.007,7.007,0,0,0,7.308,4.1c5.548-.434,7.5-4.59,7.126-9.441l-0.688-8.793Zm12.735,3.919,7.084-.554,0.295,3.769c0.183,2.338-.564,4.011-3.216,4.219-2.617.2-3.68-1.257-3.868-3.665Zm-11.4,18.736-0.993,16.209,4.3,0.264,0.694-11.319,5.52,0.339-0.585,9.537,4.192,0.257,0.585-9.537,5.449,0.334-0.664,10.829,4.3,0.264,0.964-15.72Z" transform="translate(-75.313 -67.281)"/>
</svg>
