<svg id="CIRCLE_copy_2" data-name="CIRCLE copy 2" xmlns="http://www.w3.org/2000/svg" width="362.906" height="371.281" viewBox="0 0 362.906 371.281">
  <defs>
    <style>
      .cls-1 {
        fill: none;
        stroke: #fff;
        stroke-width: 3px;
      }

      .cls-1, .cls-2 {
        fill-rule: evenodd;
      }

      .cls-2 {
        fill: #fff;
      }
    </style>
  </defs>
  <path id="Ellipse_3_copy_2" data-name="Ellipse 3 copy 2" class="cls-1" d="M656.77,403.3A176.417,176.417,0,0,1,722.215,59.974" transform="translate(-535.344 -50.344)"/>
  <path id="_5-STAR_RATED_WEIGHT_LOSS_SURGERY_" data-name="5-STAR RATED WEIGHT LOSS SURGERY " class="cls-2" d="M741.244,71.792c4.616,0.929,8.307-.99,9.194-5.4,0.775-3.852-1.7-7.043-6.055-7.919a6.172,6.172,0,0,0-2.9-.033l0.757-3.764,8.674,1.745,0.728-3.617L739.38,50.337,736.972,62.3l0.318,0.248a7.773,7.773,0,0,1,5.371-.847c2.5,0.5,3.886,1.822,3.472,3.881-0.378,1.882-1.962,2.91-4.138,2.472a4.587,4.587,0,0,1-3.837-3.434l-3.9,1.113A8.613,8.613,0,0,0,741.244,71.792Zm11.667-4.131,7.2,2.091,1-3.457-7.2-2.091ZM766.819,79.14c3.731,1.416,7.242.536,8.584-3,1.246-3.281-.079-5.453-2.873-8.151l-0.822-.793c-1.406-1.368-1.954-2.122-1.507-3.3a1.827,1.827,0,0,1,2.518-.969A2.859,2.859,0,0,1,774.6,65.57l3.8-.8a6.2,6.2,0,0,0-4.388-5.261c-3.506-1.331-6.6.06-7.72,3.005-1.214,3.2.09,5.425,2.464,7.707l0.822,0.793c1.5,1.467,2.382,2.348,1.87,3.695-0.426,1.122-1.772,1.541-3.4.923a4.57,4.57,0,0,1-2.965-3.854l-3.9.637C761.478,75.122,763.173,77.756,766.819,79.14Zm13.209,5.375,3.759,1.876,7.464-14.953,5.208,2.6,1.649-3.3-14.175-7.076-1.648,3.3,5.208,2.6Zm7.9,3.8,3.43,2.153,2.432-1.731,6.707,4.209L800,95.894l3.735,2.344,3.037-22.386-0.305-.191Zm8.922-1.8,2.734-1.931c1.232-.891,2.873-2.376,2.946-2.436-0.061.21-.653,2.282-0.888,3.728l-0.55,3.3Zm9.07,13.421,3.266,2.638,4.448-5.506,2.077,1.677-1.228,8.107,3.733,3.015,1.227-8.917a6,6,0,0,0,6.853-2.137c3-3.71,1.562-7.375-1.681-9.995l-5.88-4.749Zm9.938-5.621,3.826-4.737,2.519,2.035c1.564,1.263,2.166,2.713.734,4.486-1.414,1.75-2.949,1.551-4.559.25Zm9.345,22.31,2.81,3.122,5.264-4.736L835.068,117l-2.5,7.814,3.211,3.569,2.622-8.615a6.005,6.005,0,0,0,7.108-1.027c3.546-3.191,2.708-7.038-.081-10.138l-5.058-5.621Zm10.706-3.982,4.528-4.074,2.167,2.409c1.345,1.494,1.71,3.022.015,4.547-1.673,1.5-3.158,1.066-4.543-.473Zm0.835,16.8,2.515,3.176,2.872-.82,4.917,6.211-1.456,2.607,2.738,3.458L858.68,123.98l-0.223-.282Zm9.015,1.282,3.224-.907c1.459-.428,3.5-1.28,3.591-1.313-0.127.178-1.378,1.934-2.083,3.219l-1.622,2.93Zm4.936,17.27,2.271,3.534,14.059-9.038,3.147,4.9,3.105-2-8.567-13.326-3.105,2,3.148,4.9Zm6.888,11.149,6.208,12.463,3.3-1.645-4.334-8.7,4.244-2.114,3.652,7.333,3.223-1.6-3.652-7.333,4.19-2.087,4.148,8.327,3.3-1.646-6.02-12.087Zm7.8,16.047,2.12,5.9c2.129,5.928,7.552,8.695,13.226,6.658s8.085-7.653,5.966-13.552l-2.119-5.9Zm4.892,2.7,12.249-4.4,0.629,1.749c1.531,4.262-.31,7.122-3.895,8.41s-6.824.253-8.355-4.009Zm4.446,29.147,0.065,0.415,10.454,3.2c1.175,0.334,3.05.681,3.144,0.7a31.692,31.692,0,0,0-2.79,1.586l-9.019,6.044,0.064,0.415,21.472,4.167-0.626-4.032-8.543-1.649c-1.442-.293-3.689-0.49-3.812-0.5a26.421,26.421,0,0,0,3.453-1.81l7.659-5.226-0.065-.415-8.873-2.6a23.918,23.918,0,0,0-3.839-.68c0.2-.091,2.22-0.951,3.481-1.633l7.637-4.19-0.681-4.387Zm2.977,22.47,0.168,13.918,3.69-.045-0.118-9.718,4.74-.057,0.1,8.188,3.6-.043-0.1-8.189,4.679-.056,0.112,9.3,3.69-.044-0.163-13.5Zm-0.157,17.89-0.292,4.191,20.353,1.418,0.292-4.19ZM875.1,266.149a13.259,13.259,0,0,0,1.055,8.113l9,1.5,1.436-8.643-3.641-.6-0.806,4.853-3.256-.54a10.074,10.074,0,0,1-.086-4.06,6.352,6.352,0,0,1,7.736-5.557c3.759,0.624,6.177,3.459,5.573,7.1a5.652,5.652,0,0,1-2.583,4.194l2.315,3.274c2.17-1.343,3.451-3.563,4-6.848a10.028,10.028,0,0,0-8.594-11.981C881.3,255.955,876.194,259.578,875.1,266.149Zm-1.975,11.624-1.238,4.012,7.653,2.36-2.571,8.341-7.653-2.36-1.237,4.013,19.49,6.009,1.237-4.012-8.255-2.546,2.572-8.34,8.255,2.545,1.237-4.013Zm-8.545,24.568-1.71,3.835,15.259,6.8-2.369,5.314,3.369,1.5,6.448-14.464-3.369-1.5-2.37,5.315Zm-8.8,17.7L848.6,331.4l3.118,1.973,4.94-7.808,14.12,8.934,2.246-3.549Zm-14.758,20.72a10.472,10.472,0,1,0,14.785-1.606A10.334,10.334,0,0,0,841.029,340.758Zm2.913,2.363c2.343-2.89,6.191-3.014,9.151-.613s3.631,6.191,1.288,9.08-6.192,3.014-9.151.613S841.6,346.01,843.942,343.121Zm-16.329,12.245c-2.874,2.766-3.578,6.317-.957,9.04,2.433,2.529,4.963,2.259,8.6.886l1.068-.4c1.837-.686,2.753-0.86,3.627.048a1.827,1.827,0,0,1-.2,2.69,2.86,2.86,0,0,1-3.193.576l-0.9,3.78a6.2,6.2,0,0,0,6.63-1.719c2.7-2.6,2.767-5.993.583-8.262-2.372-2.464-4.943-2.238-8.02-1.066l-1.068.4c-1.966.726-3.141,1.149-4.139,0.112-0.832-.865-0.636-2.261.618-3.468a4.569,4.569,0,0,1,4.75-1.033l1.091-3.8C833.528,352.255,830.423,352.662,827.613,355.366ZM815.5,365.922c-3.135,2.466-4.188,5.929-1.851,8.9,2.17,2.757,4.714,2.74,8.464,1.735l1.1-.295c1.9-.5,2.824-0.582,3.6.408a1.827,1.827,0,0,1-.466,2.657,2.859,2.859,0,0,1-3.234.255l-1.271,3.671a6.2,6.2,0,0,0,6.768-1.051c2.946-2.318,3.348-5.688,1.4-8.162-2.114-2.687-4.695-2.717-7.873-1.858l-1.1.3c-2.028.527-3.239,0.831-4.129-.3-0.742-.943-0.408-2.313.959-3.388a4.57,4.57,0,0,1,4.829-.557l1.463-3.67C821.693,363.414,818.563,363.51,815.5,365.922ZM796.74,378.673c-3.449,2.006-4.975,5.289-3.075,8.556,1.765,3.034,4.287,3.372,8.142,2.9l1.134-.139c1.948-.231,2.878-0.182,3.512.907a1.826,1.826,0,0,1-.833,2.566,2.859,2.859,0,0,1-3.239-.2l-1.77,3.459a6.2,6.2,0,0,0,6.849-.1c3.242-1.885,4.11-5.166,2.526-7.889-1.719-2.957-4.271-3.346-7.539-2.938l-1.134.139c-2.082.239-3.324,0.371-4.048-.873-0.6-1.038-.081-2.348,1.423-3.223a4.573,4.573,0,0,1,4.861.123l1.961-3.431C803.225,377.053,800.111,376.712,796.74,378.673Zm-16.385,8.332c-4.256,1.872-6.522,5.587-4.446,10.311l5.24,11.918,3.844-1.69-5.143-11.7c-1.2-2.718-.5-4.269,2.026-5.38,2.554-1.122,4.194-.6,5.389,2.121l5.143,11.7,3.844-1.69-5.239-11.918C788.936,385.953,784.666,385.11,780.355,387.005Zm-11.364,4.959-4.02,1.218,2.053,6.777-2.555.774-6.016-5.576-4.594,1.392,6.686,6.031a6,6,0,0,0-2.088,6.871c1.384,4.566,5.223,5.441,9.214,4.231l7.236-2.192Zm-0.94,11.383,1.766,5.829-3.1.94c-1.924.582-3.463,0.265-4.124-1.917-0.652-2.154.376-3.312,2.358-3.912Zm-27.3-4.615a13.266,13.266,0,0,0-7.317,3.66l1.541,8.989,8.635-1.48-0.624-3.637-4.85.831-0.557-3.253a10.066,10.066,0,0,1,3.806-1.413,6.352,6.352,0,0,1,7.789,5.483c0.644,3.755-1.24,6.97-4.877,7.593a5.649,5.649,0,0,1-4.809-1.062l-2.333,3.261c1.98,1.609,4.5,2.09,7.78,1.527a10.028,10.028,0,0,0,8.5-12.049C752.409,401.238,747.312,397.607,740.747,398.732Zm-11.655,1.875-13.907.663,0.175,3.687,9.712-.463,0.225,4.736-8.183.39,0.172,3.6,8.183-.39,0.222,4.676-9.291.442,0.175,3.687,13.488-.643Zm-17.8.638-4.192-.272-0.459,7.065-2.665-.173-3.671-7.334-4.791-.312,4.14,8a6.005,6.005,0,0,0-4.369,5.7c-0.31,4.76,2.977,6.928,7.138,7.2l7.545,0.49Zm-4.881,10.326-0.395,6.077-3.234-.21c-2-.13-3.334-0.968-3.186-3.244,0.146-2.245,1.516-2.968,3.582-2.833Zm-18.521-12.652-4.165-.744-1.366,7.65L673.644,417.1l4.253,0.76,3.693-4.979c1-1.345,2.241-3.5,2.241-3.5s0.464,2.521.949,4.071l1.86,5.97,4.637,0.829-4.7-13.976Z" transform="translate(-535.344 -50.344)"/>
</svg>
