<svg xmlns="http://www.w3.org/2000/svg" width="369.406" height="366.188" viewBox="0 0 369.406 366.188">
  <defs>
    <style>
      .cls-1 {
        fill: none;
        stroke: #fff;
        stroke-width: 3px;
      }

      .cls-1, .cls-2 {
        fill-rule: evenodd;
      }

      .cls-2 {
        fill: #fff;
      }
    </style>
  </defs>
  <path id="Ellipse_3_copy_13" data-name="Ellipse 3 copy 13" class="cls-1" d="M387.4,361.5A176.4,176.4,0,1,1,235.95,70.881" transform="translate(-75.75 -58.156)"/>
  <path id="THE_ONLY_REPEAT" data-name="THE ONLY REPEAT" class="cls-2" d="M255.271,87.265l5.893,0.348,1.386-23.447,8.167,0.483,0.306-5.178L248.8,58.157l-0.306,5.178,8.167,0.483ZM274.554,88.8l5.735,1.4,2.672-10.938,11.922,2.912-2.672,10.938,5.735,1.4,6.8-27.858-5.736-1.4-2.882,11.8-11.921-2.912,2.882-11.8-5.736-1.4Zm30.068,7.233,18.291,6.95,1.843-4.848-12.772-4.853,2.366-6.228,10.762,4.089,1.8-4.73-10.762-4.089,2.337-6.149,12.22,4.643,1.843-4.849-17.739-6.74Zm44.228,22.642a14.719,14.719,0,1,0-3.61-20.591A14.524,14.524,0,0,0,348.85,118.671Zm3.046-4.3c-4.268-3.022-4.8-8.408-1.7-12.779s8.351-5.663,12.619-2.641,4.8,8.408,1.7,12.779S356.164,117.391,351.9,114.369Zm29.067,33.694,0.4,0.432,21.142-19.743-3.77-4.037-8.783,8.2c-1.449,1.353-3.563,3.846-3.563,3.846a40.819,40.819,0,0,0,.564-5.142l0.052-19.838-0.4-.431-21.141,19.742,3.77,4.038,8.783-8.2a50.682,50.682,0,0,0,3.534-3.877,42.672,42.672,0,0,0-.535,5.173ZM385.6,153.9l10.329,15.816,4.342-2.836L393.174,156l19.664-12.841-3.227-4.943Zm14.181,23.722,2.546,5.372,9.869-4.678,20.015,0.779-2.6-5.487-8.711-.164c-2.356-.049-5.834.293-5.834,0.293s2.506-2.588,3.884-4.408l5.315-7-2.836-5.982-12.16,16.776Zm11,28,1.2,5.782,9.746-2.024,0.763,3.676-8.562,7.723,1.372,6.607,9.284-8.605a8.441,8.441,0,0,0,9.359,3.786c6.566-1.363,8.273-6.628,7.081-12.369l-2.161-10.407Zm15.82,2.746,8.384-1.74,0.926,4.46c0.574,2.767-.064,4.881-3.2,5.533-3.1.643-4.59-.943-5.182-3.792Zm-10.864,24.183L416.52,252.1l5.184-.207L421.16,238.24l6.658-.265,0.458,11.5,5.057-.2-0.458-11.5,6.574-.262,0.52,13.063,5.183-.206L444.4,231.406Zm0.482,25.894-0.732,5.859,9.333,1.166-0.518,4.143c-0.721,5.776,1.608,10.954,8.262,11.786s10.138-3.58,10.864-9.4l1.25-10Zm13.749,7.668,8.83,1.1-0.5,3.976c-0.351,2.8-1.805,4.577-4.985,4.18-3.139-.392-4.207-2.4-3.846-5.283ZM412.4,284.374l-5.584,18.754,4.971,1.481,3.9-13.1,6.386,1.9-3.285,11.034,4.85,1.444,3.286-11.034,6.305,1.877-3.731,12.53,4.971,1.48,5.416-18.188Zm-6.9,22.808-2.536,5.1,2.759,3.163-4.959,9.967-4.188-.294-2.761,5.55,31.742,1.147,0.225-.453Zm3.758,12.233,3.08,3.558c1.418,1.6,3.723,3.69,3.817,3.784-0.3-.056-3.282-0.6-5.338-0.726l-4.7-.311ZM389.47,336.554L386.1,341.4l19.287,13.407-4.67,6.717,4.259,2.96L417.685,346.2l-4.259-2.96-4.67,6.717Z" transform="translate(-75.75 -58.156)"/>
</svg>
