<svg id="CIRCLE_copy" data-name="CIRCLE copy" xmlns="http://www.w3.org/2000/svg" width="369.878" height="355.844" viewBox="0 0 369.878 355.844">
  <defs>
    <style>
      .cls-1 {
        fill: none;
        stroke: #fff;
        stroke-width: 3px;
      }

      .cls-1, .cls-2 {
        fill-rule: evenodd;
      }

      .cls-2 {
        fill: #fff;
      }
    </style>
  </defs>
  <path id="Ellipse_3_copy_2" data-name="Ellipse 3 copy 2" class="cls-1" d="M1246.62,396.837a176.412,176.412,0,1,1-12.86-310.229" transform="translate(-978.562 -67.25)"/>
  <path id="PROGRAM_IN_WA." data-name="PROGRAM IN WA." class="cls-2" d="M1233.36,105.505l4.84,3.335,5.31-7.716,3.43,2.358c4.77,3.288,10.42,3.605,14.21-1.9s1.48-10.6-3.32-13.915l-8.27-5.693Zm13.08-8.636,5.03-7.3,3.29,2.263c2.32,1.6,3.22,3.7,1.41,6.324-1.79,2.595-4.05,2.619-6.44.976Zm7.62,23.109,4.47,3.818,6.44-7.537,2.84,2.428-2.03,11.3,5.11,4.364,2.06-12.435a8.394,8.394,0,0,0,9.67-2.727c4.34-5.078,2.47-10.263-1.97-14.054l-8.04-6.873Zm14.13-7.487,5.53-6.483,3.45,2.946c2.14,1.827,2.93,3.88.86,6.307-2.05,2.4-4.19,2.058-6.39.176Zm14.14,35.7a14.66,14.66,0,1,0,2.08-20.715A14.456,14.456,0,0,0,1282.33,148.187Zm4.08-3.305c-3.28-4.047-2.34-9.353,1.81-12.711s9.53-3.181,12.81.865,2.33,9.353-1.81,12.711S1289.68,148.929,1286.41,144.882Zm14.54,31.948a18.563,18.563,0,0,0,8.03,8.162l11.31-5.939-5.71-10.858-4.57,2.4,3.2,6.1-4.09,2.149a14.18,14.18,0,0,1-3.53-4.457c-2.79-5.317-.79-10.261,3.94-12.742s9.81-1.362,12.22,3.211a7.909,7.909,0,0,1,.66,6.863l5.35,1.7c1.29-3.332.84-6.893-1.33-11.02-4-7.623-12.24-10.031-19.72-6.1S1296.61,168.576,1300.95,176.83Zm7.37,14.794,1.78,5.6,9.45-3.006,1.13,3.562-7.69,8.53,2.04,6.4,8.31-9.477a8.41,8.41,0,0,0,9.66,2.788c6.37-2.025,7.52-7.416,5.75-12.98l-3.21-10.086Zm15.95,1.094,8.13-2.586,1.37,4.323c0.86,2.682.44,4.841-2.6,5.809-3,.956-4.64-0.461-5.52-3.223Zm-8.69,21.955,0.81,5.613,4.05,1.031,1.58,10.977-3.6,2.129,0.88,6.112,26.66-17.027-0.07-.5Zm10.01,7.9,4.54,1.173c2.06,0.509,5.14.917,5.27,0.94-0.28.125-3.03,1.369-4.79,2.427l-4.03,2.4Zm-5.97,21.886-0.29,5.621,10.69,0.547c1.93,0.1,5.01.045,5.01,0.045a50.283,50.283,0,0,0-4.19,2.856l-6.62,5.339-0.03.546,6.05,5.986a50.015,50.015,0,0,0,3.87,3.268s-3.05-.366-4.98-0.465l-10.7-.547-0.29,5.663,28.82,1.473,0.02-.5-14.73-14.631,16.16-13.263,0.02-.461Zm-4.96,43.91-1.46,5.695,27.66,7.117,1.46-5.694Zm-11.47,32.8-0.21.547,26.78,10.608,2.03-5.115-11.13-4.407c-1.83-.727-4.98-1.566-4.98-1.566a40.524,40.524,0,0,0,4.87-1.685l17.87-8.413,0.22-.546-26.78-10.609-2.03,5.115,11.13,4.407a50,50,0,0,0,4.99,1.527,42.784,42.784,0,0,0-4.88,1.725Zm-12.21,21.03-0.36.468,6.94,13.645c0.81,1.508,2.29,3.733,2.36,3.843a44.4,44.4,0,0,0-4.31-1.266l-14.86-3.205-0.35.469,16.68,25.675,3.45-4.551-6.64-10.208c-1.11-1.736-3.1-4.191-3.21-4.326a37.317,37.317,0,0,0,5.19,1.716l12.71,2.63,0.35-.468-6.01-11.465a33.4,33.4,0,0,0-3.05-4.527c0.29,0.111,3.12,1.311,5.03,1.917l11.65,3.616,3.75-4.953Zm-15.35,20.1-4.19,3.821,1.42,3.931-8.19,7.472-3.79-1.78-4.56,4.16,29.07,12.489,0.37-.34Zm-0.92,12.713,1.58,4.414c0.74,2,2.13,4.766,2.19,4.887-0.26-.16-2.84-1.736-4.7-2.6l-4.25-1.979Zm-24.14,8.2a3.55,3.55,0,1,0,4.98.835A3.5,3.5,0,0,0,1250.57,383.208Z" transform="translate(-978.562 -67.25)"/>
</svg>
