<svg id="copy2b.svg" xmlns="http://www.w3.org/2000/svg" width="361.594" height="351.188" viewBox="0 0 361.594 351.188">
  <defs>
    <style>
      .cls-1 {
        fill: #fff;
      }

      .cls-1, .cls-2 {
        fill-rule: evenodd;
      }

      .cls-2 {
        fill: none;
        stroke: #fff;
        stroke-width: 3px;
      }
    </style>
  </defs>
  <path id="BUT_WHAT_YOU_GAIN_FOR_LIFE." data-name="BUT WHAT YOU GAIN FOR LIFE." class="cls-1" d="M903.721,227.146l-1.8-8.91c-0.914-4.537-4.17-6.614-7.773-5.89-3.083.619-4.328,2.655-4.454,5.378a4.6,4.6,0,0,0-5.191-2.464c-3.343.671-5.45,3.454-4.549,7.925l1.692,8.392Zm-4.907-3.734-5.485,1.1-0.79-3.921c-0.379-1.879.489-3.267,2.112-3.593a2.685,2.685,0,0,1,3.321,2.233Zm-9.347,1.876-4.739.952-0.712-3.532c-0.36-1.782.354-2.768,1.847-3.068s2.565,0.5,2.937,2.343ZM896.45,197.2c-1.655-4.848-5.525-7.686-10.914-5.854l-13.6,4.623,1.494,4.379,13.347-4.538c3.1-1.054,4.74-.146,5.722,2.732,0.993,2.909.262,4.658-2.84,5.713L876.315,208.8l1.495,4.379,13.6-4.623C896.8,206.719,898.126,202.113,896.45,197.2Zm-8.112-19.131-2.048-4.149-16.537,8.13-2.837-5.751-3.652,1.8,7.722,15.65,3.652-1.8L871.8,186.2Zm-16.274-27.99-0.286-.365-11.794,2.544c-1.312.312-3.3,0.987-3.4,1.023,0.116-.175,1.24-1.851,1.831-3.026l5.427-10.663-0.286-.365-22.922,7.547,2.776,3.539,9.116-3.011c1.546-.5,3.816-1.513,3.941-1.569a29.127,29.127,0,0,0-2.349,3.6l-4.558,9.144,0.286,0.365,9.946-2.275a26.18,26.18,0,0,0,4.063-1.413c-0.142.195-1.625,2.11-2.471,3.443l-5.1,8.137,3.021,3.852Zm-17.512-20.565L851.13,126.4l-5.957,6.515-7.114-6.481,5.957-6.515-3.423-3.119-15.17,16.593,3.423,3.118,6.425-7.027,7.114,6.481-6.425,7.028,3.422,3.118Zm-17.9-15.913-3.689-2.518-2.758,1.8-7.215-4.926,0.681-3.219L819.658,102l-4.321,24.516,0.328,0.224Zm-9.918,1.6-3.1,2.007c-1.4.928-3.271,2.491-3.355,2.555,0.077-.229.82-2.484,1.141-4.066l0.75-3.612ZM813.424,98.749l-4.091-2.173-8.659,16.247-5.669-3.011-1.912,3.588,15.429,8.195,1.912-3.587L804.765,115ZM784.267,86.036l-4.428-1.473-2.71,8.119-11.314,10.9,4.522,1.5,4.825-4.838c1.308-1.306,3-3.459,3-3.459s0.1,2.821.387,4.587l1.08,6.8,4.93,1.641-2.9-15.978Zm-24.81-6.71a11.535,11.535,0,1,0,9.382,13.442A11.4,11.4,0,0,0,759.457,79.326Zm-0.746,4.064c4.039,0.739,6.2,4.392,5.439,8.52s-4.071,6.782-8.109,6.043-6.2-4.392-5.439-8.52S754.673,82.651,758.711,83.389Zm-25.725-6.88c-5.129-.16-9.152,2.458-9.33,8.139l-0.448,14.335,4.632,0.145,0.44-14.071c0.1-3.27,1.531-4.482,4.575-4.386,3.078,0.1,4.461,1.4,4.359,4.666l-0.44,14.071,4.632,0.145,0.448-14.335C742.032,79.537,738.18,76.672,732.986,76.51Zm-36.31,2.609a14.641,14.641,0,0,0-8.087,4l1.665,9.906,9.531-1.595-0.674-4.008-5.353.9-0.6-3.584a11.111,11.111,0,0,1,4.2-1.541c4.668-.781,7.875,1.932,8.571,6.07s-1.4,7.671-5.411,8.342a6.242,6.242,0,0,1-5.3-1.19L692.633,100c2.178,1.78,4.954,2.32,8.577,1.714a11.044,11.044,0,0,0,9.421-13.234C709.531,81.926,703.922,77.907,696.676,79.119Zm-12.437,2.659-4.264,1.334-0.289,3.276L671.347,89l-2.111-2.526-4.643,1.452,16.616,18.558,0.379-.118Zm-4.879,8.764-0.338,3.673c-0.135,1.67-.064,4.106-0.066,4.21-0.132-.2-1.447-2.179-2.493-3.41l-2.378-2.823Zm-19.437-.472-4.263,1.814,8.83,20.669,4.262-1.814Zm-26.377,13.007-0.405.224,11,19.831,3.793-2.1-4.569-8.239c-0.754-1.359-2.249-3.441-2.249-3.441a31.96,31.96,0,0,0,3.808,1.409l15.094,3.82,0.406-.224-11-19.831-3.793,2.1,4.569,8.239a39.739,39.739,0,0,0,2.278,3.425,33.423,33.423,0,0,0-3.837-1.393ZM620.1,112.6l-3.589,2.925,5.338,6.526-6.947,5.662,2.617,3.2,6.947-5.662,3.705,4.529-7.639,6.226,2.575,3.148,11.227-9.151Zm-23.77,19.784a11.545,11.545,0,1,0,16.408.29A11.368,11.368,0,0,0,596.326,132.387Zm2.862,2.985c2.965-2.834,7.2-2.437,10.1.595s3.12,7.268.154,10.1-7.195,2.437-10.1-.595S596.223,138.205,599.188,135.372ZM584.3,145.236l-2.853,3.645,6.157,4.8L585.795,156l-8.969-1.208-3.26,4.167,9.863,1.192a6.608,6.608,0,0,0,2.481,7.512c4.148,3.234,8.167,1.588,11-2.031l5.135-6.562Zm6.382,10.847,5.3,4.13-2.2,2.812c-1.365,1.745-2.955,2.434-4.937.888-1.957-1.526-1.765-3.221-.359-5.018Zm-24.948,15.282-6.971,13.065,3.594,1.911,4.792-8.982,16.275,8.654,2.178-4.083ZM556.5,189.781l-1.8,4.262,20.737,8.749,1.8-4.262Zm-4.347,10.529-1.422,4.4,8.033,2.586-2.752,8.522,3.938,1.267,2.752-8.521,5.575,1.795-3.026,9.371,3.875,1.247,4.448-13.773Zm-5.918,19.463-2.99,15.035,3.992,0.792,2.088-10.5,5.129,1.017-1.759,8.847,3.895,0.772,1.76-8.846,5.064,1-2,10.045,3.993,0.792,2.9-14.582Zm-4.111,23.55a2.8,2.8,0,1,0,3.091-2.5A2.759,2.759,0,0,0,542.122,243.323Z" transform="translate(-542.125 -76.5)"/>
  <path id="Ellipse_3_copy_6" data-name="Ellipse 3 copy 6" class="cls-2" d="M899.477,241.95c3.908,88.112-58.728,167.2-148.075,181.85-96.419,15.814-187.435-49.4-203.288-145.648Q546.77,270,546.2,261.907" transform="translate(-542.125 -76.5)"/>
</svg>
