<svg id="_728x90_copy2.svg" data-name="728x90/copy2.svg" xmlns="http://www.w3.org/2000/svg" width="355.879" height="358.469" viewBox="0 0 355.879 358.469">
  <defs>
    <style>
      .cls-1 {
        fill: none;
        stroke: #fff;
        stroke-width: 3px;
      }

      .cls-1, .cls-2 {
        fill-rule: evenodd;
      }

      .cls-2 {
        fill: #fff;
      }
    </style>
  </defs>
  <path id="Ellipse_3_copy" data-name="Ellipse 3 copy" class="cls-1" d="M1017.3,396.628a175.472,175.472,0,1,1-335.044-47.466" transform="translate(-666.281 -237.562)"/>
  <path id="DUE_JANUARY_2021" data-name="DUE JANUARY 2021" class="cls-2" d="M1022.15,382.457l-2.33-8.452c-2.34-8.493-9.61-12.93-17.74-10.69s-12.088,9.814-9.759,18.266l2.328,8.453Zm-6.53-4.291L998.064,383l-0.691-2.508c-1.682-6.107,1.189-9.9,6.327-11.315s9.54,0.373,11.23,6.479Zm-8.1-38.48c-2.85-5.845-8.166-8.808-14.652-5.647L976.5,342.014l2.573,5.279,16.065-7.827c3.734-1.82,5.942-.934,7.632,2.536,1.71,3.507,1.06,5.827-2.67,7.646l-16.066,7.828,2.572,5.28,16.364-7.975C1009.46,351.62,1010.4,345.607,1007.52,339.686ZM996.389,320.28l-11.438-15.749-4.175,3.032,7.987,11-5.363,3.895-6.729-9.266-4.073,2.958,6.729,9.266-5.294,3.845-7.642-10.521-4.175,3.032,11.093,15.273ZM963.3,282.023c-3.947-3.388-8.457-3.609-12.418,1.007l-13.061,15.216,4.457,3.825,13.006-15.153c1.912-2.228,3.327-2.009,4.791-.752,1.528,1.312,1.264,2.909.9,4.751l5.515,0.919A9.117,9.117,0,0,0,963.3,282.023Zm-12.413-9.967-4.813-2.986-3.39,2.44-9.412-5.839,0.68-4.12-5.241-3.252-4.085,31.337,0.428,0.265Zm-12.466,2.586-3.811,2.721c-1.717,1.256-4,3.345-4.1,3.429,0.084-.293.9-3.2,1.215-5.22l0.745-4.624Zm-38.977-28.788-0.547-.213-10.472,26.805,5.119,2,4.35-11.136c0.718-1.836,1.541-4.983,1.541-4.983a40.449,40.449,0,0,0,1.707,4.856L909.631,281l0.547,0.214,10.472-26.805-5.119-2-4.35,11.137a49.985,49.985,0,0,0-1.5,5,42.343,42.343,0,0,0-1.745-4.87Zm-22.455-5.474c-6.391-1.195-11.937,1.31-13.263,8.4l-3.346,17.9,5.773,1.08,3.284-17.566c0.763-4.082,2.788-5.325,6.581-4.616,3.835,0.717,5.315,2.615,4.552,6.7l-3.284,17.566,5.773,1.079,3.345-17.895C887.732,245.93,883.465,241.59,876.991,240.38Zm-18.467-2.565-5.664-.054-1.63,3.845-11.075-.1-1.557-3.874-6.167-.058,12.775,28.9,0.5,0Zm-9.312,8.68-1.844,4.3c-0.816,1.964-1.683,4.935-1.726,5.06-0.081-.294-0.893-3.2-1.672-5.092l-1.763-4.338Zm-25.679-7.967-5.792.978,1.651,9.763-3.682.622-7.358-8.8-6.619,1.118,8.209,9.548a8.394,8.394,0,0,0-4.111,9.161c1.112,6.577,6.282,8.469,12.032,7.5l10.424-1.762Zm-3.316,15.622,1.419,8.4-4.468.755c-2.771.469-4.849-.244-5.38-3.388-0.524-3.1,1.107-4.527,3.961-5.009Zm-33.605-7.267-5.589,1.937,3.558,10.265-2.937,19.708,5.707-1.978,1.106-8.6c0.3-2.325.342-5.8,0.342-5.8s2.288,2.758,3.938,4.317l6.346,6.014,6.223-2.156-15.274-13.841Zm-32.765,14.122-18.029,11.742,2.815,4.323,6.537-4.257a21.962,21.962,0,0,0,1.876-1.423,17.377,17.377,0,0,0-.794,2.47l-0.938,5.015c-0.876,4.725-.573,7.881,1.144,10.517,2.884,4.428,8.094,5.589,13.155,2.293,5.1-3.319,6.234-8.565,4.4-13.528l-5.631,2.266c0.83,2.812.454,5.309-1.689,6.706a3.521,3.521,0,0,1-5.236-1.045c-1.03-1.582-1.309-3.7-.5-7.986l3.157-16.671Zm-34.391,25.123c-4.641,4.312-6.135,11.827.776,19.265s14.515,6.5,19.157,2.189,6.134-11.827-.777-19.265S724.1,281.816,719.456,286.128ZM723,289.939c2.705-2.513,6.7-2.217,11.128,2.547s4.427,8.772,1.722,11.285-6.7,2.217-11.127-2.547S720.292,292.452,723,289.939Zm-17.109,9.752-14,16.349,3.92,3.356,5.074-5.928a21.857,21.857,0,0,0,1.4-1.894,17.408,17.408,0,0,0-.066,2.594l0.513,5.078c0.49,4.782,1.67,7.726,4.06,9.772,4.016,3.438,9.344,3.084,13.273-1.506,3.956-4.621,3.57-9.976.414-14.224l-4.766,3.761c1.589,2.466,1.932,4.968.268,6.912a3.52,3.52,0,0,1-5.319.472c-1.434-1.227-2.3-3.184-2.726-7.524l-1.667-16.891ZM684.421,327.08l-3.2,4.974,23.99,15.43,5.968-9.279-4.41-2.836-2.768,4.3Z" transform="translate(-666.281 -237.562)"/>
</svg>
