<svg id="copy1.svg" xmlns="http://www.w3.org/2000/svg" width="367.75" height="366.875" viewBox="0 0 367.75 366.875">
  <defs>
    <style>
      .cls-1 {
        fill: none;
        stroke: #fff;
        stroke-width: 3px;
      }

      .cls-1, .cls-2 {
        fill-rule: evenodd;
      }

      .cls-2 {
        fill: #fff;
      }
    </style>
  </defs>
  <path id="Ellipse_3_copy_19" data-name="Ellipse 3 copy 19" class="cls-1" d="M441.448,261.934a176.4,176.4,0,1,1-348.317-49.06" transform="translate(-87.063 -62)"/>
  <path id="AROUND_THE_CORNER" data-name="AROUND THE CORNER" class="cls-2" d="M109.153,208.465l2.136-5.278-3-2.941,4.175-10.321,4.2-.031,2.325-5.747-31.739,1.309-0.19.47Zm-4.691-11.907-3.347-3.31c-1.537-1.486-4-3.391-4.1-3.477,0.305,0.032,3.319.341,5.379,0.31l4.707-.052Zm16.916-16.539,3.135-5-8.433-5.285,1.993-3.181,11.524,0.354,3.583-5.717-12.655-.217a8.439,8.439,0,0,0-4.132-9.209c-5.681-3.561-10.557-.943-13.67,4.024l-5.644,9Zm-9.514-12.93-7.254-4.546,2.419-3.859c1.5-2.394,3.424-3.478,6.139-1.776,2.68,1.679,2.66,3.856,1.114,6.322Zm34.014-19.822a14.719,14.719,0,1,0-20.892.722A14.524,14.524,0,0,0,145.878,147.267Zm-3.839-3.613c-3.584,3.808-8.991,3.584-12.891-.087s-4.45-9.054-.866-12.862,8.991-3.584,12.891.087S145.623,139.846,142.039,143.654ZM169.5,125.483c5.133-4.046,6.907-9.9,2.417-15.6l-11.33-14.371-4.636,3.655,11.121,14.107c2.584,3.278,2.185,5.633-.861,8.035-3.08,2.428-5.5,2.292-8.08-.987L147.01,106.218l-4.636,3.654,11.33,14.372C158.194,129.94,164.3,129.582,169.5,125.483Zm35.059-21.49,0.525-.272L191.772,78.034l-4.906,2.542L192.4,91.248c0.912,1.76,2.743,4.469,2.743,4.469a40.77,40.77,0,0,0-4.8-1.93l-19.092-5.4-0.525.272,13.312,25.687,4.906-2.542L183.41,101.13a50.517,50.517,0,0,0-2.781-4.449,42.619,42.619,0,0,0,4.838,1.911Zm6.791-3.041L219.8,98.43c8.485-2.534,12.787-9.937,10.361-18.058s-10.123-11.94-18.568-9.417l-8.445,2.522Zm4.172-6.659-5.238-17.536,2.506-.748c6.1-1.822,9.975.981,11.508,6.113s-0.169,9.6-6.271,11.423Zm41.148-2.92,5.9-.308L261.34,67.606l8.17-.427L269.239,62,247,63.161l0.271,5.18,8.171-.427Zm19.3-.63,5.858,0.746,1.422-11.171,12.175,1.551-1.422,11.171,5.857,0.746,3.623-28.45-5.857-.746-1.535,12.049-12.175-1.551,1.535-12.049-5.857-.746Zm30.553,4.742,18.655,5.9,1.565-4.945L313.719,92.32l2.011-6.352,10.975,3.473,1.527-4.824-10.976-3.473,1.985-6.272L331.7,78.815l1.565-4.945-18.092-5.725Zm45.419,20.04a13.5,13.5,0,0,0,13.518.824l-2.282-5.091c-2.64,1.256-5.326,1.694-8.5-.236-4.431-2.7-5.293-8.01-2.509-12.585s7.858-6.176,12.288-3.479a7.816,7.816,0,0,1,3.991,6.824l5.521-.392c-0.114-4.759-2.319-8.273-6.749-10.97A14.7,14.7,0,1,0,351.945,115.524Zm24.211,18.566a14.716,14.716,0,1,0-.814-20.884A14.52,14.52,0,0,0,376.156,134.09Zm3.595-3.854c-3.822-3.566-3.622-8.973.031-12.888s9.032-4.49,12.855-.924,3.623,8.973-.03,12.889S383.575,133.8,379.751,130.236Zm11.113,18.47,3.448,4.791,8.077-5.813,2.193,3.046L399.9,161.267l3.941,5.476,4.979-11.636a8.438,8.438,0,0,0,10.087-.349c5.442-3.917,4.858-9.42,1.435-14.177l-6.207-8.625Zm15.564-3.928,6.948-5,2.66,3.7c1.651,2.293,1.928,4.483-.673,6.355-2.567,1.848-4.575,1.007-6.275-1.355Zm9.655,47.324,0.253,0.533,26.143-12.385-2.365-4.993L429.253,180.4c-1.791.849-4.563,2.582-4.563,2.582a40.861,40.861,0,0,0,2.1-4.728l6.078-18.885-0.253-.534-26.143,12.386,2.366,4.992,10.861-5.145a50.605,50.605,0,0,0,4.545-2.62,42.618,42.618,0,0,0-2.082,4.766Zm2.692,6.951,5.159,18.873,5-1.367-3.6-13.179,6.427-1.757,3.035,11.105,4.881-1.335-3.035-11.1,6.345-1.735,3.447,12.61,5-1.368-5-18.3Zm6.335,25.123,0.59,5.875,9.9-.994,0.375,3.735-9.323,6.785,0.673,6.715,10.133-7.587a8.443,8.443,0,0,0,8.912,4.744c6.672-.67,8.92-5.728,8.335-11.561l-1.061-10.576Zm15.446,4.384,8.519-.854,0.455,4.532c0.282,2.812-.573,4.847-3.763,5.167-3.147.316-4.466-1.417-4.756-4.312Z" transform="translate(-87.063 -62)"/>
</svg>
