<svg id="copy2.svg" xmlns="http://www.w3.org/2000/svg" width="369.5" height="366.906" viewBox="0 0 369.5 366.906">
  <defs>
    <style>
      .cls-1 {
        fill: #fff;
      }

      .cls-1, .cls-2 {
        fill-rule: evenodd;
      }

      .cls-2 {
        fill: none;
        stroke: #fff;
        stroke-width: 3px;
      }
    </style>
  </defs>
  <path id="AND_THROUGH_YOUR_SCREEN." data-name="AND THROUGH YOUR SCREEN." class="cls-1" d="M551.29,228.749l0.88-4.642-2.916-1.906,1.721-9.079,3.411-.707,0.958-5.055-25.617,6.224-0.078.412Zm-5.753-8.927-3.262-2.15c-1.492-.96-3.8-2.11-3.9-2.164,0.254-.023,2.757-0.261,4.428-0.622l3.822-.807Zm17.554-34.137,0.165-.461-22.605-8.087-1.544,4.317,9.391,3.36c1.549,0.554,4.192,1.165,4.192,1.165a33.808,33.808,0,0,0-4.007,1.54l-14.654,7.507-0.165.461,22.605,8.087,1.544-4.317-9.391-3.36a42.075,42.075,0,0,0-4.2-1.132,35.393,35.393,0,0,0,4.019-1.573Zm2.33-5.727,3.5-6.423c3.521-6.453,1.731-13.332-4.446-16.7s-12.946-1.122-16.451,5.3l-3.5,6.422Zm-1.433-6.365-13.337-7.277,1.04-1.905c2.532-4.64,6.454-5.251,10.357-3.122s5.511,5.759,2.98,10.4Zm22.139-26.076,3.153-3.751-14.927-12.543,4.369-5.2-3.3-2.77L563.537,137.4l3.3,2.77,4.368-5.2Zm10.8-11.753,3.517-3.412-6.508-6.708,7.31-7.092,6.508,6.707,3.517-3.412-16.574-17.083-3.517,3.413,7.019,7.235-7.31,7.092-7.019-7.235-3.517,3.413Zm18.722-17.578,3.971-2.869-4.835-6.695L617.3,106.8l8.751,3.868,4.539-3.279-9.663-4.114a7,7,0,0,0-.305-8.371c-3.258-4.511-7.824-4.019-11.767-1.17L601.711,98.9Zm-3.282-12.911-4.16-5.759,3.064-2.213c1.9-1.373,3.718-1.606,5.275.55,1.537,2.128.842,3.8-1.115,5.209Zm32.145-5.025a12.212,12.212,0,1,0-16.485-5.392A12.051,12.051,0,0,0,644.508,100.25Zm-1.961-3.91c-3.878,1.946-8.027.23-10.02-3.742s-0.888-8.324,2.99-10.269,8.028-.23,10.02,3.742S646.425,94.394,642.547,96.34Zm26.689-6.006c5.185-1.593,8.312-5.592,6.545-11.345l-4.46-14.517-4.683,1.439,4.378,14.249c1.017,3.311,0,5.014-3.075,5.959-3.111.956-4.939,0.126-5.957-3.185l-4.377-14.249-4.683,1.439,4.46,14.517C659.151,90.394,663.984,91.947,669.236,90.334ZM695.8,84.585a15.476,15.476,0,0,0,8.668-3.995l-1.463-10.539-10.123,1.405,0.592,4.264,5.686-.789,0.529,3.813a11.738,11.738,0,0,1-4.49,1.507c-4.958.688-8.267-2.28-8.878-6.683s1.705-8.081,5.969-8.673a6.59,6.59,0,0,1,5.567,1.418L700.7,62.6c-2.249-1.949-5.167-2.6-9.015-2.07-7.107.987-11.322,6.766-10.354,13.734S688.105,85.653,695.8,84.585Zm14.373-1.8,4.9,0.131,0.249-9.344,10.184,0.272-0.25,9.344,4.9,0.131,0.635-23.8-4.9-.131-0.269,10.079L715.44,69.2l0.269-10.079-4.9-.131Zm40.288,4.008,4.8,1.144,2.1-8.818,10.9-12.549-4.9-1.168-4.633,5.552c-1.257,1.5-2.843,3.928-2.843,3.928s-0.373-2.967-.834-4.8L753.288,63l-5.346-1.273,4.539,16.589Zm24.452,7.95a12.214,12.214,0,1,0-6.873-15.928A12.052,12.052,0,0,0,774.914,94.744Zm1.632-4.059c-4.026-1.619-5.487-5.865-3.829-9.989s5.652-6.176,9.678-4.557,5.488,5.865,3.829,9.989S780.572,92.3,776.546,90.685Zm22.18,16.021c4.63,2.827,9.7,2.518,12.836-2.621l7.915-12.965L815.3,88.567l-7.77,12.726c-1.8,2.958-3.753,3.327-6.5,1.649-2.779-1.7-3.37-3.616-1.565-6.573l7.77-12.726-4.182-2.553-7.916,12.965C791.994,99.193,794.035,103.843,798.726,106.706Zm12.853,8.059,3.757,3.148,5.306-6.332,2.388,2-1.6,9.435,4.293,3.6,1.62-10.381a7,7,0,0,0,8.042-2.349c3.575-4.266,1.978-8.573-1.752-11.7l-6.761-5.666Zm11.716-6.35,4.564-5.447,2.9,2.428c1.8,1.506,2.469,3.211.761,5.251-1.687,2.012-3.474,1.747-5.325.2Zm15.265,32.942c2.949,3.6,7.012,4.751,10.423,1.957,3.168-2.594,3.09-5.561,1.832-9.914l-0.37-1.28c-0.626-2.2-.743-3.282.394-4.213a2.131,2.131,0,0,1,3.11.483,3.336,3.336,0,0,1,.372,3.767l4.312,1.4a7.235,7.235,0,0,0-1.381-7.871c-2.771-3.384-6.711-3.776-9.554-1.448-3.086,2.528-3.062,5.539-1.987,9.227l0.37,1.28c0.661,2.354,1.043,3.76-.256,4.824-1.083.887-2.689,0.528-3.975-1.042a5.332,5.332,0,0,1-.759-5.621l-4.314-1.623C835.493,134.188,835.677,137.837,838.56,141.357Zm13.781,19.671a11.2,11.2,0,0,0,9.634,5.787l0.272-4.622a6.781,6.781,0,0,1-6.163-3.428c-2.227-3.683-.826-7.925,2.977-10.224s8.149-1.535,10.377,2.148a6.487,6.487,0,0,1,.323,6.551l4.213,1.828c1.739-3.547,1.463-6.978-.764-10.661A12.194,12.194,0,1,0,852.341,161.028Zm7.189,12.336,1.873,4.527,7.632-3.157,1.19,2.879-5.786,7.619,2.141,5.175,6.237-8.451a7,7,0,0,0,8.215,1.639c5.142-2.127,5.719-6.683,3.859-11.178l-3.371-8.149Zm13.321-.208,6.564-2.716,1.445,3.493c0.9,2.167.7,3.989-1.754,5-2.426,1-3.888-.058-4.811-2.289ZM867.82,194.55l4.079,15.719,4.166-1.081-2.847-10.976,5.352-1.389,2.4,9.248,4.066-1.055-2.4-9.248,5.285-1.371,2.724,10.5,4.167-1.081-3.955-15.245Zm5.031,20.893,1.937,16.126,4.275-.513L877.71,219.8l5.491-.659,1.14,9.488,4.171-.5-1.14-9.488,5.422-.652,1.294,10.774,4.275-.513-1.879-15.64Zm1.549,40.472-0.014.49,24.007,0.664,0.127-4.585-9.974-.276c-1.645-.045-4.348.195-4.348,0.195a33.8,33.8,0,0,0,3.332-2.709L899.13,238l0.014-.49-24.007-.664-0.127,4.585,9.974,0.275a41.718,41.718,0,0,0,4.349-.23A35.412,35.412,0,0,0,886,244.223Zm-1.171,7.947a2.958,2.958,0,1,0,3.355-2.54A2.922,2.922,0,0,0,873.229,263.862Z" transform="translate(-529.656 -59)"/>
  <path id="Ellipse_3_copy_18" data-name="Ellipse 3 copy 18" class="cls-2" d="M888.271,277.824A176.407,176.407,0,0,1,538,248q0-4.908.265-9.75" transform="translate(-529.656 -59)"/>
</svg>
