<svg id="copy2.svg" xmlns="http://www.w3.org/2000/svg" width="373.25" height="362.469" viewBox="0 0 373.25 362.469">
  <defs>
    <style>
      .cls-1 {
        fill: none;
        stroke: #fff;
        stroke-width: 3px;
      }

      .cls-1, .cls-2 {
        fill-rule: evenodd;
      }

      .cls-2 {
        fill: #fff;
      }
    </style>
  </defs>
  <path id="Ellipse_3_copy_20" data-name="Ellipse 3 copy 20" class="cls-1" d="M890,298.968a176.418,176.418,0,0,1-346.869-38.154Q543,257.424,543,254" transform="translate(-532.469 -69.406)"/>
  <path id="FROM_A_SCREEN_OR_CLINIC_NEAR_YOU." data-name="FROM A SCREEN OR CLINIC NEAR YOU." class="cls-2" d="M551.941,243.386l0.533-4.01-7.3-.971,1.031-7.763-3.58-.476-1.032,7.763-5.07-.674,1.135-8.536-3.524-.468L532.463,240.8Zm2.384-16.448,0.967-3.928-6.621-1.63,0.615-2.5,7.574-2.241,1.106-4.488-8.281,2.572a5.783,5.783,0,0,0-4.664-5.106c-4.46-1.1-7.072,1.651-8.032,5.551l-1.741,7.069Zm-8.964-6.373-5.695-1.4,0.746-3.029c0.463-1.88,1.482-3,3.614-2.473,2.1,0.518,2.558,1.939,2.081,3.875Zm17.246-20.477a10.086,10.086,0,1,0-13.087,5.823A9.951,9.951,0,0,0,562.607,200.088Zm-3.366-1.31c-1.3,3.339-4.792,4.585-8.212,3.255s-5.153-4.61-3.853-7.949,4.791-4.586,8.212-3.255S560.54,195.439,559.241,198.778Zm8.559-11.9,1.913-3.366-6.4-3.641c-1.156-.656-3.061-1.573-3.061-1.573a34.611,34.611,0,0,0,3.454-.463l5.72-1.234,0.185-.327-1.865-5.547a34.772,34.772,0,0,0-1.368-3.2s1.762,1.168,2.917,1.825l6.4,3.641,1.928-3.391-17.254-9.809-0.172.3,4.531,13.542L550.7,176.791l-0.157.277Zm15.711-25.647,2.5-3-1.339-2.546,4.885-5.859,2.745,0.859,2.721-3.262-20.98-5.792-0.222.266Zm-0.568-8.75-1.49-2.86c-0.691-1.292-1.9-3.05-1.945-3.127,0.192,0.085,2.094.918,3.444,1.329l3.082,0.952Zm23.788-15.775c2.757-2.675,3.423-6.1.888-8.709-2.353-2.427-4.788-2.157-8.281-.822l-1.028.393c-1.767.668-2.648,0.838-3.493-.033a1.76,1.76,0,0,1,.183-2.591,2.753,2.753,0,0,1,3.073-.566l0.852-3.644a5.975,5.975,0,0,0-6.379,1.68c-2.592,2.514-2.642,5.782-.53,7.959,2.293,2.364,4.768,2.136,7.728,1l1.027-.393c1.89-.707,3.02-1.119,3.986-0.123,0.8,0.829.62,2.175-.583,3.341a4.4,4.4,0,0,1-4.571,1.013l-1.036,3.661C601.046,139.724,604.035,139.32,606.731,136.705Zm14.945-13.047a9.248,9.248,0,0,0,3.795-8.47l-3.817.233a5.6,5.6,0,0,1-2.2,5.392c-2.8,2.189-6.417,1.459-8.677-1.433s-2.063-6.531.738-8.72a5.355,5.355,0,0,1,5.34-.911l1.083-3.635c-3.08-1.077-5.866-.512-8.666,1.677A10.071,10.071,0,1,0,621.676,123.658Zm9.345-7.178,3.466-2.085-3.515-5.843,2.2-1.326,6.932,3.788,3.961-2.383-7.665-4.054a5.783,5.783,0,0,0,.329-6.908c-2.368-3.936-6.159-3.848-9.6-1.778l-6.239,3.753Zm-1.807-10.849-3.023-5.026L628.865,99c1.659-1,3.17-1.064,4.3.817,1.117,1.857.43,3.18-1.279,4.208Zm18.014,1.433,12.178-5.6-1.483-3.229-8.5,3.909L647.512,98l7.166-3.294-1.448-3.15-7.165,3.294-1.883-4.094,8.137-3.74-1.484-3.228-11.811,5.429Zm16.236-7.186,12.71-4.259-1.129-3.369-8.875,2.974-1.451-4.328,7.479-2.506L671.1,85.1l-7.478,2.506-1.432-4.273,8.492-2.846-1.13-3.369L657.222,81.25Zm32.322-8.531,0.4-.083-4.073-19.4-3.7.778L690.1,80.7c0.279,1.329.99,3.452,0.99,3.452A27.821,27.821,0,0,0,688.273,82l-11.609-7.067-0.4.083,4.073,19.4,3.7-.778-1.692-8.058a34.6,34.6,0,0,0-1.019-3.447,29.214,29.214,0,0,0,2.842,2.148Zm21.471-1.764A10.086,10.086,0,1,0,706.8,79.794,9.952,9.952,0,0,0,717.257,89.582Zm-0.1-3.611c-3.582.1-6.089-2.629-6.2-6.3s2.24-6.54,5.822-6.644,6.089,2.629,6.194,6.3S720.735,85.868,717.153,85.971Zm14.276,3.407,4.024,0.408L736.141,83l2.558,0.259,3.279,7.185,4.6,0.466-3.707-7.838a5.782,5.782,0,0,0,4.4-5.333c0.463-4.57-2.624-6.77-6.619-7.175l-7.244-.734Zm5.055-9.767,0.591-5.835,3.1,0.315c1.926,0.2,3.176,1.048,2.954,3.232-0.218,2.156-1.561,2.8-3.545,2.6Zm29.478,15.959a9.249,9.249,0,0,0,9.059-2.021l-2.469-2.92a5.6,5.6,0,0,1-5.639,1.456c-3.429-.936-5-4.272-4.039-7.812s4-5.558,7.432-4.622a5.355,5.355,0,0,1,3.923,3.737l3.561-1.3c-0.977-3.112-3.1-5.009-6.525-5.945A10.071,10.071,0,1,0,765.962,95.571Zm11.344,3.248,12.006,4.829,1.326-3.3-8.254-3.32,6-14.926L784.636,80.6Zm15.5,6.622,3.638,1.764,8.568-17.675-3.639-1.764Zm21.248,12.194,0.345,0.211,10.342-16.907-3.228-1.975-4.3,7.024c-0.708,1.158-1.647,3.192-1.647,3.192a27.968,27.968,0,0,0-.57-3.5l-3.6-13.107-0.345-.211L800.716,109.27l3.228,1.975,4.3-7.024a34.422,34.422,0,0,0,1.623-3.207,29.313,29.313,0,0,0,.594,3.514Zm4.259,2.971,3.245,2.412,11.717-15.763-3.245-2.413Zm13.949,11.689a9.242,9.242,0,0,0,9,2.255l-0.9-3.715a5.6,5.6,0,0,1-5.692-1.227c-2.645-2.373-2.557-6.06-.107-8.791s6.068-3.171,8.713-.8a5.358,5.358,0,0,1,1.83,5.1l3.766,0.431c0.522-3.219-.521-5.863-3.165-8.237A10.068,10.068,0,1,0,832.265,132.295Zm23.043,25.549,0.251,0.317,15.564-12.273-2.344-2.972-6.466,5.1c-1.067.841-2.652,2.423-2.652,2.423a28.011,28.011,0,0,0,.678-3.479l1.169-13.543-0.251-.318-15.564,12.274,2.344,2.972,6.466-5.1a34.612,34.612,0,0,0,2.635-2.446,29.249,29.249,0,0,0-.661,3.5Zm3,4.124,7,11.429,3.03-1.857-4.892-7.98,3.892-2.386,4.122,6.725,2.956-1.812-4.122-6.724,3.843-2.356,4.68,7.636,3.03-1.857L875.055,151.7Zm8.473,13.916,1.647,3.536,2.873-.127,3.22,6.914-1.946,2.118,1.793,3.85,14.174-16.513-0.147-.315Zm8.157,3.213,3.223-.13c1.462-.076,3.566-0.418,3.657-0.429-0.159.138-1.723,1.5-2.669,2.55l-2.174,2.383Zm0.528,16.153,1.271,3.84,6.473-2.142,0.807,2.441-5.22,5.927,1.452,4.389,5.642-6.584a5.781,5.781,0,0,0,6.665,1.842c4.361-1.443,5.11-5.159,3.848-8.972l-2.287-6.912Zm10.98,0.628,5.568-1.842,0.98,2.962c0.608,1.837.34,3.326-1.745,4.016-2.057.68-3.2-.282-3.823-2.174Zm-2.907,29.335,0.66,4.021,7.386-1.212,13.034,4.305-0.673-4.107-5.706-1.758c-1.543-.479-3.9-0.913-3.9-0.913s2.141-1.229,3.393-2.167l4.826-3.6-0.734-4.477-11.187,8.746Zm2.041,21.12a10.084,10.084,0,1,0,9.623-10.608A9.949,9.949,0,0,0,885.577,246.333Zm3.608-.16c-0.159-3.579,2.534-6.128,6.2-6.291s6.573,2.137,6.732,5.717-2.533,6.128-6.2,6.291S889.344,249.752,889.185,246.173Zm-4.119,22.176c-0.405,4.46,1.673,8.1,6.621,8.549l12.487,1.133L904.539,274l-12.256-1.113c-2.849-.258-3.832-1.566-3.592-4.213,0.243-2.675,1.448-3.813,4.3-3.555l12.256,1.112,0.366-4.028-12.487-1.133C888.174,260.625,885.476,263.832,885.066,268.349Zm-1.694,13.376a2.441,2.441,0,1,0,2.843-2A2.41,2.41,0,0,0,883.372,281.725Z" transform="translate(-532.469 -69.406)"/>
</svg>
