<svg xmlns="http://www.w3.org/2000/svg" width="369.562" height="362.5" viewBox="0 0 369.562 362.5">
  <defs>
    <style>
      .cls-1 {
        fill: none;
        stroke: #fff;
        stroke-width: 3px;
      }

      .cls-1, .cls-2 {
        fill-rule: evenodd;
      }

      .cls-2 {
        fill: #fff;
      }
    </style>
  </defs>
  <path id="Ellipse_3_copy_14" data-name="Ellipse 3 copy 14" class="cls-1" d="M882.49,287.722a176.431,176.431,0,0,1-341.4,12.774" transform="translate(-526.219 -65.469)"/>
  <path id="WEIGHT_LOSS_SURGERY_PROGRAM." data-name="WEIGHT LOSS SURGERY PROGRAM." class="cls-2" d="M550.282,270.551l-0.032-.461L539.1,265.583c-1.256-.478-3.278-1.036-3.379-1.063a35.161,35.161,0,0,0,3.208-1.473l10.461-5.766-0.031-.461-23.137-6.61,0.3,4.478,9.207,2.621c1.552,0.458,4,.888,4.13.912a29.245,29.245,0,0,0-3.957,1.656l-8.891,5,0.031,0.461,9.477,3.694a26.112,26.112,0,0,0,4.144,1.11c-0.226.081-2.524,0.832-3.971,1.458l-8.769,3.866,0.329,4.873Zm-0.962-25.6,1.536-15.236-4.038-.408-1.073,10.639-5.188-.523,0.9-8.964-3.941-.4-0.9,8.965-5.122-.517,1.026-10.179-4.039-.407-1.49,14.776Zm2.549-20.192,0.9-4.53-22-4.386-0.9,4.53Zm5.6-20.673a14.6,14.6,0,0,0,.122-9l-9.563-3.037-2.917,9.185,3.869,1.229,1.639-5.159,3.46,1.1a11.08,11.08,0,0,1-.542,4.433,6.987,6.987,0,0,1-9.294,4.84c-4-1.268-6.185-4.734-4.956-8.6a6.215,6.215,0,0,1,3.469-4.162l-2.008-3.928c-2.573,1.123-4.316,3.339-5.424,6.831-2.048,6.449,1.157,12.384,7.48,14.392S555.247,211.071,557.465,204.088Zm4.261-12.965,2.057-4.136-7.89-3.923,4.276-8.6,7.889,3.923,2.057-4.137-20.093-9.991-2.057,4.137,8.51,4.232-4.275,8.6L543.69,177l-2.057,4.136Zm14.131-25.642,2.617-3.806L563.33,151.26l3.627-5.274-3.344-2.3-9.872,14.356,3.344,2.3,3.627-5.275Zm13.852-18.4,9.772-11.094-3.046-2.683-6.718,7.627-13.794-12.149-3.054,3.467Zm20.235-20.272a11.518,11.518,0,1,0-16.319-1.139A11.365,11.365,0,0,0,609.944,126.81Zm-2.694-3.124c-3.1,2.671-7.289,2.057-10.025-1.118s-2.727-7.409.372-10.08,7.289-2.058,10.026,1.117S610.35,121.014,607.25,123.686Zm20.691-10.3c3.7-2.368,5.219-6.048,2.976-9.55-2.083-3.252-4.871-3.5-9.086-2.8l-1.24.206c-2.131.346-3.156,0.336-3.9-.831a2.011,2.011,0,0,1,.794-2.861,3.147,3.147,0,0,1,3.57.065l1.782-3.886a6.824,6.824,0,0,0-7.524.43c-3.474,2.226-4.273,5.873-2.4,8.791,2.029,3.168,4.853,3.476,8.425,2.873l1.24-.206c2.277-.362,3.636-0.566,4.491.768,0.712,1.112.2,2.577-1.412,3.609a5.027,5.027,0,0,1-5.349.095l-1.993,3.864C620.89,115.478,624.328,115.705,627.941,113.391Zm15.988-9c3.943-1.927,5.877-5.408,4.051-9.143-1.7-3.468-4.436-4.039-8.7-3.825l-1.255.063c-2.156.1-3.173-.028-3.781-1.273a2.009,2.009,0,0,1,1.116-2.75,3.146,3.146,0,0,1,3.538.474l2.216-3.655a6.824,6.824,0,0,0-7.523-.436c-3.7,1.812-4.917,5.343-3.395,8.456,1.653,3.379,4.422,4.009,8.039,3.82l1.255-.063c2.3-.1,3.676-0.144,4.372,1.278,0.58,1.186-.1,2.582-1.816,3.422a5.029,5.029,0,0,1-5.323-.519l-2.423,3.609C636.687,105.655,640.075,106.275,643.929,104.39Zm24.435-9.562c4.206-1.256,6.685-4.373,5.5-8.358-1.105-3.7-3.715-4.712-7.96-5.2l-1.249-.144c-2.143-.256-3.125-0.548-3.522-1.876a2.01,2.01,0,0,1,1.552-2.53,3.146,3.146,0,0,1,3.413,1.047l2.786-3.243a6.825,6.825,0,0,0-7.351-1.662c-3.953,1.181-5.728,4.466-4.736,7.787,1.077,3.605,3.706,4.68,7.306,5.086l1.248,0.144c2.289,0.281,3.651.46,4.1,1.978,0.378,1.265-.518,2.532-2.352,3.079a5.028,5.028,0,0,1-5.167-1.385l-2.982,3.164C661.011,94.889,664.252,96.056,668.364,94.828Zm20.354-4.661c5.05-.812,8.492-4.14,7.59-9.743l-2.274-14.139-4.561.734L691.705,80.9c0.519,3.225-.65,4.683-3.647,5.165-3.03.487-4.63-.525-5.149-3.751l-2.232-13.879-4.561.734,2.274,14.139C679.291,88.909,683.6,90.99,688.718,90.167Zm14.142-2.121,4.62-.083-0.14-7.787,2.937-.053,4.693,7.706,5.28-.095-5.267-8.389a6.606,6.606,0,0,0,4.271-6.645c-0.1-5.247-3.895-7.324-8.482-7.242l-8.315.149Zm4.41-11.764-0.121-6.7,3.564-.064c2.211-.04,3.744.758,3.789,3.266,0.044,2.475-1.392,3.392-3.668,3.433Zm28.143,13.386a14.593,14.593,0,0,0,8.877-1.484l1.284-9.951L736.016,77l-0.52,4.026,5.369,0.692-0.465,3.6a11.07,11.07,0,0,1-4.459.257,6.987,6.987,0,0,1-6.419-8.282c0.536-4.157,3.556-6.929,7.582-6.41a6.215,6.215,0,0,1,4.714,2.671l3.506-2.676c-1.563-2.331-4.055-3.651-7.688-4.12-6.711-.865-11.979,3.347-12.828,9.927S728.146,88.73,735.413,89.668ZM748.9,91.661l14.753,4.086,1.084-3.911-10.3-2.853,1.391-5.024,8.68,2.4,1.057-3.815-8.68-2.4,1.374-4.96,9.857,2.73L769.194,74,754.886,70.04Zm19.462,5.714,4.257,1.8L775.646,92l2.706,1.142,1.166,8.948,4.865,2.054-1.414-9.8a6.606,6.606,0,0,0,6.6-4.343c2.041-4.834-.591-8.274-4.817-10.059L777.089,76.7Zm8.8-8.966,2.606-6.172,3.284,1.386c2.037,0.86,3.115,2.211,2.139,4.522-0.962,2.28-2.647,2.537-4.745,1.651Zm15.178,20.235,4.019,2.347,4.31-7.382,13.276-8.336-4.1-2.4-5.7,3.741c-1.545,1.009-3.641,2.766-3.641,2.766s0.476-2.779.563-4.563l0.343-6.87-4.474-2.613-0.448,16.211ZM811.992,121.6l3.5,3.021,4.812-5.569,2.472,2.136c3.446,2.978,7.829,3.712,11.26-.259s2.073-8.153-1.4-11.153l-5.968-5.157Zm10.962-5.62,4.553-5.269,2.373,2.05c1.673,1.446,2.2,3.163.556,5.061-1.619,1.873-3.386,1.7-5.109.209Zm4.344,19.273,3.067,3.456,5.826-5.171,1.95,2.2-2.8,8.577,3.506,3.95,2.948-9.457a6.606,6.606,0,0,0,7.827-1.077c3.925-3.483,3.032-7.722-.013-11.153l-5.521-6.221Zm11.806-4.3,5.011-4.447,2.366,2.666c1.468,1.654,1.859,3.337-.017,5-1.852,1.643-3.482,1.149-4.994-.555Zm7.838,29.6a11.519,11.519,0,1,0,3.348-16.013A11.367,11.367,0,0,0,846.942,160.56Zm3.462-2.244c-2.226-3.434-1.047-7.5,2.47-9.781s7.712-1.694,9.938,1.74,1.046,7.5-2.471,9.781S852.629,161.75,850.4,158.316Zm9.465,26.543a14.59,14.59,0,0,0,5.839,6.847l9.191-4.019-3.86-8.828-3.719,1.626,2.168,4.958-3.326,1.454a11.079,11.079,0,0,1-2.514-3.69,6.987,6.987,0,0,1,3.8-9.765c3.84-1.679,7.77-.516,9.4,3.2a6.216,6.216,0,0,1,.135,5.416l4.1,1.629c1.195-2.539,1.044-5.354-.423-8.711-2.711-6.2-9.032-8.548-15.11-5.89S856.934,178.147,859.869,184.859Zm5.257,12.581,1.218,4.457,7.513-2.053,0.775,2.833-6.313,6.447,1.392,5.093,6.833-7.17a6.605,6.605,0,0,0,7.492,2.5c5.062-1.383,6.14-5.578,4.93-10l-2.192-8.022Zm12.488,1.378,6.462-1.766,0.94,3.438c0.583,2.133.187,3.815-2.232,4.476-2.388.652-3.63-.514-4.231-2.71Zm-7.394,17.6,0.575,4.418,3.173,0.851,1.124,8.64-2.848,1.635,0.626,4.811L894,223.678l-0.052-.393ZM878,222.732l3.554,0.968c1.619,0.422,4.028.774,4.13,0.794-0.221.095-2.393,1.044-3.785,1.857l-3.188,1.846ZM873.139,240.5L873,244.916l8.409,0.26c1.517,0.047,3.93-.044,3.93-0.044a39.542,39.542,0,0,0-3.241,2.31l-5.117,4.3-0.013.429,4.842,4.6a39.621,39.621,0,0,0,3.092,2.5s-2.4-.239-3.92-0.286l-8.409-.259-0.137,4.451,22.655,0.7,0.012-.395-11.8-11.258,12.477-10.672,0.011-.363ZM870.948,270.2a2.789,2.789,0,1,0,3.188-2.362A2.755,2.755,0,0,0,870.948,270.2Z" transform="translate(-526.219 -65.469)"/>
</svg>
