<svg xmlns="http://www.w3.org/2000/svg" width="367.906" height="366.688" viewBox="0 0 367.906 366.688">
  <defs>
    <style>
      .cls-1 {
        fill: none;
        stroke: #fff;
        stroke-width: 3px;
      }

      .cls-1, .cls-2 {
        fill-rule: evenodd;
      }

      .cls-2 {
        fill: #fff;
      }
    </style>
  </defs>
  <path id="Ellipse_3_copy_15" data-name="Ellipse 3 copy 15" class="cls-1" d="M413.021,331.715q-2.66,4.952-5.665,9.8A176.391,176.391,0,1,1,137.443,119.165" transform="translate(-79.625 -59.656)"/>
  <path id="A_NATIONAL_TOP_5_" data-name="A NATIONAL TOP 5%" class="cls-2" d="M161.6,117.226l4.954-2.806-0.518-4.166,9.687-5.486,3.307,2.586,5.394-3.055L158.757,85.59l-0.441.249Zm3.729-12.242-0.563-4.673c-0.279-2.12-1.021-5.141-1.047-5.271,0.219,0.215,2.387,2.332,4.019,3.588l3.719,2.886ZM220.608,93l0.57-.154-7.537-27.931-5.334,1.439,3.132,11.6c0.516,1.914,1.728,4.95,1.728,4.95A40.8,40.8,0,0,0,208.888,80l-17.5-9.342-0.57.154,7.537,27.931,5.333-1.439-3.131-11.6a50.444,50.444,0,0,0-1.769-4.939,42.633,42.633,0,0,0,4.32,2.9Zm5.145-1.426,5.644-.747,1.08-4.056,11.036-1.46,2.1,3.636,6.146-.813L234.961,61.175l-0.5.066Zm8.041-9.954,1.228-4.544c0.535-2.07.978-5.149,1-5.28,0.123,0.282,1.34,3.056,2.384,4.832l2.367,4.068Zm25.275,6.837,5.9,0.092,0.366-23.487,8.18,0.127L273.6,60l-22.264-.346-0.081,5.187,8.18,0.127Zm19.367,1.118,5.849,0.806L288.2,61.974l-5.849-.806Zm26,5.734a14.718,14.718,0,1,0-10.1-18.3A14.522,14.522,0,0,0,304.435,95.308Zm1.483-5.058c-5.018-1.471-7.266-6.393-5.759-11.532s6.057-8.068,11.074-6.6,7.267,6.393,5.76,11.532S310.936,91.72,305.918,90.249Zm38.426,22.417,0.521,0.277L358.45,87.409l-4.877-2.594L347.93,95.423c-0.931,1.749-2.121,4.794-2.121,4.794a40.636,40.636,0,0,0-1.136-5.046l-6.391-18.778-0.521-.277L324.177,101.65l4.876,2.595L334.7,93.636a50.363,50.363,0,0,0,2.084-4.814,42.544,42.544,0,0,0,1.173,5.066Zm4.7,2.576,4.441,3.563,3.678-2.024,8.686,6.967-1.178,4.03,4.837,3.879,7.871-30.776-0.394-.317Zm12.753-1.07,4.133-2.254c1.866-1.045,4.4-2.853,4.509-2.925-0.118.283-1.281,3.081-1.844,5.063l-1.3,4.523Zm10.923,21.036,12.542,14.129,3.879-3.444-8.623-9.713,17.567-15.594-3.92-4.415Zm24.787,32.808,2.862,5.164,20.547-11.385,3.965,7.157,4.537-2.514L418.63,146.961l-4.537,2.514,3.965,7.156ZM410.1,196.751a14.717,14.717,0,1,0,9.173-18.78A14.519,14.519,0,0,0,410.1,196.751Zm4.992-1.692c-1.679-4.951,1.058-9.619,6.13-11.338s10.083,0.324,11.761,5.276-1.059,9.619-6.131,11.338S416.77,200.012,415.092,195.059Zm1.009,21.526,0.79,5.851,9.319-1.259,0.559,4.137c0.779,5.767,4.353,10.177,11,9.279s8.884-6.05,8.1-11.859l-1.349-9.987Zm15.249,3.9,8.817-1.191,0.536,3.97c0.378,2.8-.574,4.886-3.75,5.315-3.134.423-4.677-1.24-5.067-4.124Zm-13.533,41.085c-0.606,6.593,2.631,11.464,8.93,12.043,5.5,0.5,9.591-3.439,10.162-9.654a8.683,8.683,0,0,0-.389-4.059l5.375,0.494-1.138,12.389,5.166,0.474,1.608-17.512-17.092-1.571-0.3.481a10.935,10.935,0,0,1,1.99,7.383c-0.328,3.569-1.965,5.706-4.9,5.436-2.688-.247-4.362-2.307-4.077-5.414a6.45,6.45,0,0,1,4.225-5.88l-2.141-5.279C421.46,252.33,418.322,256.065,417.817,261.567Zm10.116,26.443a7.72,7.72,0,1,0,9.706-5.311A7.857,7.857,0,0,0,427.933,288.01Zm-12.707-4.876-1.66,5.4,22.145,25.556,1.66-5.4Zm-7,21.494a7.72,7.72,0,1,0,9.706-5.311A7.856,7.856,0,0,0,408.223,304.628Zm23.983-15.305a3,3,0,0,1,3.958-1.827,2.957,2.957,0,0,1,2.249,3.735,2.988,2.988,0,0,1-3.971,1.868A3.036,3.036,0,0,1,432.206,289.323ZM412.5,305.941a3,3,0,0,1,3.958-1.827,2.957,2.957,0,0,1,2.249,3.735,2.989,2.989,0,0,1-3.971,1.868A3.037,3.037,0,0,1,412.5,305.941Z" transform="translate(-79.625 -59.656)"/>
</svg>
