<svg id="Group_11_copy" data-name="Group 11 copy" xmlns="http://www.w3.org/2000/svg" width="357" height="368.75" viewBox="0 0 357 368.75">
  <defs>
    <style>
      .cls-1 {
        fill: none;
        stroke: #fff;
        stroke-width: 3px;
      }

      .cls-1, .cls-2 {
        fill-rule: evenodd;
      }

      .cls-2 {
        fill: #fff;
      }
    </style>
  </defs>
  <path id="Ellipse_3_copy_2" data-name="Ellipse 3 copy 2" class="cls-1" d="M565.6,285.614a176.394,176.394,0,1,1,338.546,24.858" transform="translate(-559.281 -72.094)"/>
  <path id="When_it_s_go-time." data-name="When it’s go-time." class="cls-2" d="M559.276,305.608l0.171,0.565,15.182,2.411c1.7,0.234,4.379.349,4.512,0.353-0.217.154-2.326,1.629-3.572,2.755L564.2,321.874l0.171,0.565,30.706,1.59-1.662-5.49-12.216-.62c-2.064-.124-5.231.041-5.4,0.049a37.179,37.179,0,0,0,4.451-3.2l9.637-8.777-0.171-.565L576.85,303.55a33.534,33.534,0,0,0-5.478-.193c0.259-.166,2.9-1.76,4.525-2.955l9.81-7.331L583.9,287.1Zm12.28,33.95,2.889,5.148,9.818-5.51,6,10.7-9.818,5.51,2.889,5.148,25-14.033-2.889-5.148-10.591,5.943-6-10.7,10.591-5.944-2.889-5.148ZM589.318,368.9l12.435,15.111,4-3.3-8.683-10.552,5.146-4.234,7.316,8.89,3.908-3.215-7.317-8.891,5.081-4.181,8.307,10.1,4.006-3.3-12.06-14.654Zm36.461,37.271,0.449,0.383L645,384.542l-4.2-3.585L633,390.1c-1.286,1.508-3.105,4.225-3.105,4.225a40.8,40.8,0,0,0-.021-5.173l-2.193-19.716-0.449-.383-18.772,22.008,4.2,3.585,7.8-9.144a50.548,50.548,0,0,0,3.073-4.251,42.57,42.57,0,0,0,.053,5.2Zm20.883,12.854,5.2,2.786L665.4,396.524l-5.206-2.786Zm20.525,9.8,5.511,2.117,8.422-21.927,7.637,2.933,1.86-4.842-20.785-7.984-1.86,4.842,7.637,2.934Zm25.164-10.208,2.66,0.661,3.492-3.564a7,7,0,0,0,2.1-3.214,3.416,3.416,0,1,0-5.54,1.839Zm18.924,22.115c5.562,0.715,10.073-1.638,10.751-6.907,0.629-4.893-1.893-7.428-6.6-10.2l-1.383-.815c-2.369-1.41-3.365-2.261-3.139-4.017a2.567,2.567,0,0,1,3.124-2.149c1.673,0.215,2.669,1.065,3.441,2.993l4.935-2.342c-1.488-3.634-4-5.275-7.72-5.753-5.228-.672-9,2.243-9.568,6.634-0.613,4.768,1.9,7.386,5.892,9.727l1.383,0.816c2.526,1.515,4.023,2.43,3.765,4.438-0.215,1.672-1.918,2.686-4.344,2.374-2.885-.371-4.323-2.086-5.314-4.3l-5.122,2.147C702.659,436.981,705.839,440.025,711.275,440.724Zm46.68-.095a18.648,18.648,0,0,0,10.523-4.64l-1.553-12.726L754.7,424.754l0.628,5.149,6.866-.838,0.562,4.605a14.15,14.15,0,0,1-5.44,1.726c-5.987.73-9.915-2.912-10.563-8.229s2.215-9.7,7.364-10.33a7.943,7.943,0,0,1,6.68,1.82l3.5-4.42c-2.671-2.394-6.173-3.241-10.82-2.674-8.582,1.046-13.776,7.925-12.75,16.34S748.661,441.762,757.955,440.629Zm33.8-7.865A14.717,14.717,0,1,0,773,423.542,14.521,14.521,0,0,0,791.752,432.764Zm-1.679-5c-4.956,1.666-9.617-1.083-11.323-6.159s0.349-10.081,5.3-11.747,9.617,1.083,11.323,6.16S795.029,426.1,790.073,427.767Zm18.4-11.753,9.361-4.853-2.33-4.493-9.36,4.853Zm24.354-3.536,4.891-3.306-13.153-19.458,6.777-4.581-2.905-4.3-18.444,12.468,2.9,4.3,6.777-4.581Zm18.234-13.618,4.434-3.9-18.931-21.535-4.433,3.9Zm12.16-10.715,3.851-4.134-7.867-7.329c-1.42-1.322-3.816-3.266-3.816-3.266a50.812,50.812,0,0,0,5.06.507l8.54,0.174,0.373-.4-0.779-8.505a50.736,50.736,0,0,0-.863-5.012s2.108,2.253,3.527,3.575l7.868,7.329,3.88-4.165-21.2-19.746-0.345.37,1.869,20.759-20.983-.241-0.316.34Zm25.633-29.665,10.357-16.6-4.4-2.746-7.233,11.594-5.653-3.527,6.094-9.769-4.294-2.679-6.094,9.769-5.582-3.482,6.92-11.093-4.4-2.746-10.046,16.1Zm16.021-27.911a3.564,3.564,0,1,0-4.743,1.793A3.519,3.519,0,0,0,904.873,330.569Z" transform="translate(-559.281 -72.094)"/>
</svg>
