<svg id="Group_11_copy_2" data-name="Group 11 copy 2" xmlns="http://www.w3.org/2000/svg" width="363.406" height="370.094" viewBox="0 0 363.406 370.094">
  <defs>
    <style>
      .cls-1 {
        fill: none;
        stroke: #fff;
        stroke-width: 3px;
      }

      .cls-1, .cls-2 {
        fill-rule: evenodd;
      }

      .cls-2 {
        fill: #fff;
      }
    </style>
  </defs>
  <path id="Ellipse_3_copy_2" data-name="Ellipse 3 copy 2" class="cls-1" d="M99.423,237.687A176.394,176.394,0,0,1,451.781,250a178.209,178.209,0,0,1-1.216,20.82" transform="translate(-91 -72.094)"/>
  <path id="Know_your_wait-time" data-name="Know your wait-time" class="cls-2" d="M90.989,260.624l0.313,5.895,8.337-.443,3.473,2.6-11.258,8.241,0.378,7.116L107.744,272.4l13.066,9.1-0.356-6.695-10.217-7.141a22.149,22.149,0,0,0-4.6-2.29,46.833,46.833,0,0,0,4.821.124l9.473-.5L119.62,259.1Zm7.58,53.747,0.137,0.575,28.138-6.713-1.282-5.374-11.69,2.789c-1.928.46-5,1.583-5,1.583a40.836,40.836,0,0,0,3.032-4.192l9.851-17.22-0.137-.574-28.138,6.713,1.282,5.374,11.69-2.789a50.546,50.546,0,0,0,4.988-1.624,42.7,42.7,0,0,0-3.022,4.232Zm9.012,23.058a14.719,14.719,0,1,0,7.147-19.645A14.523,14.523,0,0,0,107.581,337.429Zm4.787-2.208c-2.191-4.749.04-9.679,4.9-11.922s10.062-.74,12.252,4.008-0.04,9.679-4.9,11.923S114.558,339.97,112.368,335.221Zm10.33,28.956,0.358,0.47,15.065-3.04c1.676-.375,4.225-1.2,4.351-1.245-0.15.22-1.611,2.339-2.385,3.828l-7.1,13.509,0.358,0.47,29.324-9.229-3.472-4.563-11.663,3.682c-1.977.6-4.886,1.865-5.046,1.933a37.217,37.217,0,0,0,3.055-4.55l5.965-11.586-0.357-.47-12.707,2.728a33.394,33.394,0,0,0-5.2,1.732c0.184-.246,2.106-2.663,3.208-4.349l6.632-10.292-3.779-4.966Zm39.865,41.092,4.8,3.517,6.459-8.807,17.98-8.829-4.9-3.591-7.742,4c-2.1,1.077-5,3.031-5,3.031s0.975-3.469,1.322-5.724l1.35-8.685-5.339-3.916L168.773,396.8Zm29.108,18.348a14.72,14.72,0,1,0-6.825-19.76A14.524,14.524,0,0,0,191.671,423.617ZM194,418.886c-4.693-2.308-6.066-7.543-3.7-12.349s7.348-6.914,12.041-4.6,6.066,7.542,3.7,12.349S198.691,421.194,194,418.886Zm31.016,17.253c6.315,1.685,12.066-.4,13.937-7.411l4.719-17.683-5.7-1.522-4.633,17.357c-1.076,4.034-3.2,5.125-6.949,4.125-3.789-1.011-5.128-3.027-4.052-7.061l4.633-17.357-5.705-1.522-4.719,17.683C214.671,429.756,218.617,434.432,225.014,436.139Zm21.24,4.228,5.884,0.485,0.817-9.918,3.741,0.309,4.981,10.4,6.724,0.554-5.623-11.337a8.441,8.441,0,0,0,6.279-7.9c0.551-6.682-4.015-9.808-9.856-10.29l-10.591-.873Zm7.11-14.392,0.7-8.531,4.539,0.374c2.815,0.233,4.662,1.443,4.4,4.636-0.26,3.152-2.2,4.135-5.1,3.895ZM299,440.116l0.578-.119,3.779-14.9c0.388-1.673.745-4.33,0.761-4.462a44.782,44.782,0,0,0,2.42,3.807l9.109,12.248,0.578-.119,4.369-30.437-5.617,1.157-1.727,12.11c-0.311,2.044-.434,5.213-0.441,5.386a37.211,37.211,0,0,0-2.781-4.723l-7.866-10.394-0.578.119-3.039,12.639a33.405,33.405,0,0,0-.689,5.438c-0.142-.273-1.489-3.052-2.533-4.775l-6.411-10.435-6.113,1.259Zm28.79-6.933,5.263-2.167,0-4.2,10.293-4.239,2.959,2.977,5.731-2.361L328.9,401.443l-0.468.193Zm5.221-11.681,0.022-4.706c-0.014-2.138-.374-5.227-0.383-5.36,0.19,0.241,2.078,2.61,3.542,4.059l3.33,3.325Zm26.111-2.558,5.109-2.958-14.367-24.818-5.109,2.958Zm19.092-12.285,4.694-3.579L368.667,384.4l6.505-4.959-3.145-4.124-17.7,13.5,3.144,4.124,6.5-4.959Zm8.246-18.217,7.58-7.329-3.518-3.639-7.58,7.329Zm22.763-9.93,3.985-4.357L395.869,358.3l5.523-6.038-3.828-3.5-15.03,16.433,3.828,3.5,5.522-6.038ZM423.766,361l3.4-4.83-23.461-16.5-3.4,4.83Zm9.413-13.239,2.5-5.069-9.645-4.759c-1.74-.858-4.594-2.031-4.594-2.031a50.539,50.539,0,0,0,4.993-.97l8.231-2.288,0.242-.492-3.192-7.924a50.516,50.516,0,0,0-2.269-4.553s2.668,1.551,4.408,2.41l9.645,4.758,2.52-5.106-25.986-12.82-0.224.454,7.761,19.349-20.171,5.8-0.205.416ZM449.23,312l5.187-18.871-5-1.375-3.621,13.177-6.426-1.766,3.052-11.1-4.881-1.341-3.051,11.1-6.345-1.744,3.465-12.608-5-1.375-5.03,18.3Z" transform="translate(-91 -72.094)"/>
</svg>
