<svg xmlns="http://www.w3.org/2000/svg" xmlns:xlink="http://www.w3.org/1999/xlink" viewBox="0 0 275.93 145.18"><defs><style>.cls-1{fill:none;}.cls-2,.cls-5{fill:#fff;}.cls-3{clip-path:url(#clip-path);}.cls-4{fill:#00af9a;}.cls-5{fill-rule:evenodd;}.cls-6{fill:#231f20;}.cls-7{clip-path:url(#clip-path-2);}</style><clipPath id="clip-path"><rect class="cls-1" x="-1.93" y="9.5" width="270.42" height="88.43"/></clipPath><clipPath id="clip-path-2"><polygon class="cls-2" points="-1.54 47.22 52.64 47.22 56.35 57.13 1.72 57.13 -1.54 47.22 -1.54 47.22"/></clipPath></defs><title>Artboard 1</title><g id="Layer_1" data-name="Layer 1"><g class="cls-3"><polygon class="cls-2" points="13.68 9.73 267.77 9.73 267.77 97.3 13.68 97.3 13.68 9.73 13.68 9.73"/><polygon class="cls-4" points="16.53 12.47 265.25 12.47 265.25 81.22 16.53 81.22 16.53 12.47 16.53 12.47"/><path class="cls-2" d="M98,35.47c-4.6.58-6.33.74-15.7.74v2.61h5.42V68H82.34v2.61h20.71V68H98V51c.24-3.86.41-6.58,2.38-9a8,8,0,0,1,6-3c4.44,0,4.93,3.86,4.93,8.55V68h-4.44v2.61h19.32V68h-4.93V52.41c0-4.36.16-8.06,3.21-11a8.17,8.17,0,0,1,5.42-2.46c4.69,0,4.69,4,4.69,8.22V68H130v2.61h19.81V68h-5.1V46.9c-.25-4.44-.33-11.67-11.18-11.67a13.34,13.34,0,0,0-12.33,7.07c-1.89-3.54-4-7.15-11.34-7.15-6.42,0-9.46,3.53-11.84,6.32v-6Z"/><path class="cls-5" d="M153.44,38.82H159V68h-5.59v2.61h21.13V68h-5.26V35.47c-3.87.25-6,.41-8.06.58s-4.11.16-7.81.16v2.61Zm3.7-14.31a5.92,5.92,0,1,0,5.92-5.91,5.89,5.89,0,0,0-5.92,5.91Z"/><path class="cls-2" d="M210,60.13c-1.91,3.24-5.1,8.15-11.63,8.54a6.23,6.23,0,0,1-3.83-.71c-3.57-2-3.9-5.77-4.15-8.17-.16-2-.33-4.15-.33-6.31,0,0-.13-9,1.41-11.88a7.23,7.23,0,0,1,6.83-4.18,7.54,7.54,0,0,1,5.1,1.68c-1.49,1.32-3,2.84-3,5.58a5.17,5.17,0,0,0,5.4,5.23c2.74,0,5.56-1.66,5.56-5.32,0-5.72-6.14-9.54-13.61-9.54-9.38,0-19.26,6.22-19.26,19.09,0,10.13,7.22,17.52,18.59,17.52,10.13,0,13.7-6.48,15.61-10L210,60.13Z"/><path class="cls-5" d="M247.35,45.92c0-2.9.08-7-5.56-9.38a22,22,0,0,0-8.3-1.49c-8.06,0-14.53,3.73-14.53,9.05a4.42,4.42,0,0,0,4.65,4.56A4.61,4.61,0,0,0,228.34,44a3.78,3.78,0,0,0-.42-1.66c-.25-.66-.74-1.16-1-1.82a1.3,1.3,0,0,1-.15-.78c0-.75,1.15-2.4,4.89-2.4,5.56,0,5.8,2.68,5.8,6.16v6.21c-5.15.5-11.91,1.24-16.56,4.65a11.13,11.13,0,0,0-4.85,8.9c0,2.58,1.25,8.39,9.8,8.39a15.14,15.14,0,0,0,11.8-5.44c1.08,2.15,2.73,5.44,7.46,5.44,4.07,0,6.64-2.58,8.13-4.15l-1.52-2a4.48,4.48,0,0,1-2.49,1.24c-2,0-1.88-2.21-1.88-4.12V45.92Zm-9.88,12.87c0,2.16.08,4.73-2.32,6.72a6.14,6.14,0,0,1-3.66,1.33c-2.9,0-5.64-2.24-5.64-6.39,0-7.39,7.22-7.8,11.62-8.05v6.39Z"/><polygon class="cls-6" points="16.52 81.09 265.25 81.09 265.25 94.48 16.52 94.48 16.52 81.09 16.52 81.09"/><path class="cls-2" d="M44.43,68v2.61H25V68H28.6c3.61-.25,4.65-2.2,5.79-5.34,6-16.73,11.87-33.38,17.85-50.13h3.85S69.7,49.49,76.46,68H82.9v2.61H56.6V68h7.55c-4.67-12.76-9.3-25.51-14-38.36L44.73,45c-.59,1.67-4.5,13.69-6.28,18.84-.48,1.78-.42,1.65-.35,2.47.13,1.43,2,1.74,6.33,1.68Z"/><polygon class="cls-2" points="-1.54 47.22 52.64 47.22 56.35 57.13 1.72 57.13 -1.54 47.22 -1.54 47.22"/><g class="cls-7"><polygon class="cls-6" points="-3.7 46.37 53.66 46.37 56.45 53.77 -0.83 53.77 -3.7 46.37 -3.7 46.37"/></g></g><path class="cls-2" d="M36.53,115.18h-4c.37-1.08,2-6.92,2-6.92h0C34.73,108.89,36.37,114.83,36.53,115.18Zm4.87,6.51-5.17-16.22H33.12l-5.31,16.22h2.78l1.31-4.26h5.24l1.31,4.26Z"/><path class="cls-2" d="M51,121.89c-3.19,0-4.18-1.64-4.18-3.59v-8.77h2v8.17c0,1.87.67,2.48,2.16,2.48s2.19-.86,2.19-2.48v-8.17h2v8.75C55.19,120.51,53.65,121.89,51,121.89Z"/><path class="cls-2" d="M68.71,111.21h-3v10.48h-2V111.21H60.58v-1.68H69Z"/><path class="cls-2" d="M78.7,120.34c-2.08,0-2.87-1.73-2.87-4.86,0-2.91.77-4.55,2.81-4.55s2.8,1.85,2.8,4.82C81.44,119,80.51,120.34,78.7,120.34Zm0,1.53c3.16,0,5-2.46,5-6.24,0-3.55-1.64-6.26-5.07-6.26-3,0-5.07,2.24-5.07,6.24C73.59,119.2,75.28,121.87,78.75,121.87Z"/><path class="cls-2" d="M124.49,121.69v-7.48H119v7.48h-2.65V105.51H119V112h5.51v-6.5h2.71v16.18Z"/><path class="cls-2" d="M139.16,120.34c-2.07,0-2.86-1.73-2.86-4.86,0-2.91.77-4.55,2.81-4.55s2.8,1.85,2.8,4.82C141.91,119,141,120.34,139.16,120.34Zm.06,1.53c3.16,0,5-2.46,5-6.24,0-3.55-1.64-6.26-5.07-6.26-3,0-5.07,2.24-5.07,6.24C134.06,119.2,135.75,121.87,139.22,121.87Z"/><path class="cls-2" d="M160.27,121.69l-.56-7.53c-.05-.78-.09-1.69-.09-2.06-.09.4-.24,1.12-.47,1.9l-2.21,7.69h-1.72l-2-7.36c-.23-.81-.45-1.84-.52-2.25,0,.41-.07,1.51-.13,2.27l-.52,7.34h-2l1.11-12.16h2.68l1.86,6.89c.28,1,.39,1.65.46,2a18,18,0,0,1,.44-2l1.91-6.93h2.68l1.07,12.16Z"/><path class="cls-2" d="M168.85,121.69V109.53h6.73l-.26,1.64h-4.46v3.34h3.74v1.66h-3.7V120h4.85v1.71Z"/><path class="cls-2" d="M218,121.68h-8.27V105.51h2.73v13.94h6Z"/><path class="cls-2" d="M224.19,121.69V109.53h2.06v12.16Z"/><path class="cls-2" d="M239.43,111.17h-4.16v3.32h3.38v1.62h-3.38v5.58h-2V109.53h6.41Z"/><path class="cls-2" d="M245.37,121.69V109.53h6.72l-.26,1.64h-4.46v3.34h3.74v1.66h-3.7V120h4.86v1.71Z"/></g></svg>