<svg id="_728x90_copy2.svg" data-name="728x90/copy2.svg" xmlns="http://www.w3.org/2000/svg" width="361.656" height="369.688" viewBox="0 0 361.656 369.688">
  <defs>
    <style>
      .cls-1 {
        fill: none;
        stroke: #fff;
        stroke-width: 3px;
      }

      .cls-1, .cls-2 {
        fill-rule: evenodd;
      }

      .cls-2 {
        fill: #fff;
      }
    </style>
  </defs>
  <path id="Ellipse_3_copy_2" data-name="Ellipse 3 copy 2" class="cls-1" d="M895.769,262.451q-0.238,3.633-.63,7.287a176.391,176.391,0,1,1-343.387-72.657" transform="translate(-541.844 -59.188)"/>
  <path id="With_Familiar_faces." data-name="With Familiar faces." class="cls-2" d="M903.484,243.419l-0.016-.59-14.019-6.312c-1.58-.672-4.134-1.486-4.262-1.524,0.251-.092,2.673-0.962,4.17-1.722L903,226.429l-0.017-.59-29.216-9.594,0.162,5.734,11.627,3.8c1.959,0.662,5.059,1.334,5.228,1.371a37.342,37.342,0,0,0-5.135,1.918l-11.6,5.94,0.016,0.591,11.919,5.189a33.338,33.338,0,0,0,5.236,1.623c-0.293.093-3.264,0.937-5.142,1.665l-11.391,4.5,0.177,6.24ZM900.145,207.4l-1.154-5.79-28.125,5.606L872.02,213Zm-5.48-22.07-1.871-5.6-22.276,7.446-2.593-7.759-4.919,1.645,7.058,21.115,4.919-1.644-2.593-7.758Zm-7.812-21.263-2.821-5.185-9.889,5.381-5.865-10.778,9.889-5.381-2.821-5.185-25.186,13.7,2.822,5.185,10.666-5.8,5.865,10.778-10.667,5.8,2.822,5.186Zm-25.706-40.244-4.011-4.332-7.891,7.3-7.764-8.386-3.868,3.581,7.763,8.386-5.477,5.071-8.537-9.222-3.806,3.523L840.1,143.3ZM845.555,107.1l-4.456-3.544L837.43,105.6l-8.713-6.93,1.16-4.034-4.851-3.859-7.744,30.806,0.4,0.315Zm-12.748,1.123-4.123,2.271c-1.861,1.052-4.385,2.871-4.5,2.943,0.117-.283,1.269-3.085,1.823-5.069l1.284-4.529ZM818.22,86.215L813.2,83.627l-4.926,9.558c-0.888,1.724-2.111,4.557-2.111,4.557a50.649,50.649,0,0,0-.882-5.008l-2.143-8.267-0.487-.251-7.977,3.052a50.637,50.637,0,0,0-4.591,2.188s1.6-2.64,2.487-4.364l4.925-9.558-5.06-2.608-13.27,25.75,0.45,0.232,19.477-7.419,5.448,20.265,0.412,0.212ZM782.555,69.733l-5.6-1.864L767.9,95.078l5.6,1.864Zm-15.473-4.862-18.526-3.709-1.019,5.087,12.737,2.55-4.611,23.034,5.789,1.159Zm-27.607-4.506-5.887-.437-2.121,28.6,5.888,0.437Zm-14.1-1.176-5.683.344-1.365,3.97-11.113.674L705.381,60.4l-6.188.375L714.035,88.86l0.5-.031Zm-8.728,9.359L715.1,72.994c-0.68,2.027-1.341,5.067-1.375,5.2-0.1-.29-1.12-3.143-2.035-4.989l-2.073-4.226Zm-25.442-6.325L685.464,63.6l2.312,9.68-3.651.872-7.972-8.327-6.562,1.568,8.875,9.022a8.441,8.441,0,0,0-3.5,9.465c1.558,6.521,6.87,8.07,12.571,6.709l10.336-2.469Zm-2.274,15.891,1.989,8.326-4.43,1.058c-2.748.656-4.879,0.082-5.624-3.035-0.735-3.076.805-4.615,3.635-5.291Zm-39.96-2.727-5.261,2.68,4.882,9.581-10.182,5.188,2.393,4.7,10.182-5.188L654.375,99l-11.2,5.705,2.355,4.621,16.456-8.385Zm-20.34,10.448-4.623,3.321,0.962,4.085-9.04,6.5-3.565-2.216-5.034,3.616,27.527,15.84,0.411-.3Zm-2.392,12.57,1.062,4.585c0.5,2.077,1.567,5,1.607,5.128-0.241-.191-2.623-2.062-4.381-3.135l-4.007-2.469Zm-33.712,15.227a13.5,13.5,0,0,0-4.59,12.741l5.528-.758c-0.464-2.887-.13-5.588,2.613-8.088,3.833-3.494,9.175-2.828,12.783,1.13s3.719,9.276-.114,12.77a7.816,7.816,0,0,1-7.671,1.913l-1.175,5.408c4.6,1.228,8.591.1,12.425-3.394A14.7,14.7,0,1,0,592.528,113.633Zm-14.165,14.981-11.888,15.543,4.12,3.151,8.3-10.853,5.293,4.049-7,9.144,4.02,3.075,6.995-9.145,5.225,4-7.943,10.384,4.121,3.152,11.529-15.074Zm-21.449,31.052c-2.672,4.932-2.1,9.99,2.569,12.522,4.339,2.351,7.613.912,11.9-2.476l1.26-1c2.17-1.7,3.322-2.325,4.88-1.481a2.569,2.569,0,0,1,.878,3.69c-0.8,1.483-1.956,2.106-4.033,2.132l0.4,5.448c3.928-.078,6.364-1.828,8.152-5.128,2.512-4.635,1.153-9.21-2.74-11.32-4.227-2.291-7.576-.891-11.2,1.99l-1.259,1c-2.325,1.811-3.719,2.878-5.5,1.914-1.483-.8-1.815-2.759-0.649-4.91,1.387-2.559,3.5-3.281,5.925-3.409l-0.156-5.554C563.514,152.977,559.527,154.846,556.914,159.666Zm-8.848,19.173a3.563,3.563,0,1,0,4.657-2A3.519,3.519,0,0,0,548.066,178.839Z" transform="translate(-541.844 -59.188)"/>
</svg>
