<svg id="_728x90_copy1.svg" data-name="728x90/copy1.svg" xmlns="http://www.w3.org/2000/svg" width="355.843" height="367.344" viewBox="0 0 355.843 367.344">
  <defs>
    <style>
      .cls-1 {
        fill: #fff;
      }

      .cls-1, .cls-2 {
        fill-rule: evenodd;
      }

      .cls-2 {
        fill: none;
        stroke: #fff;
        stroke-width: 3px;
      }
    </style>
  </defs>
  <path id="virtual_care" data-name="virtual care" class="cls-1" d="M98.822,340.347l0.285,0.516,31.4-2.988-2.773-5.02-12,1.134a51.242,51.242,0,0,0-6.744,1.221c0.271-.294,3.063-3.089,4.6-5.1l7.286-9.662-3.059-5.536Zm11.626,17.947,3.526,4.734,23-17.129-3.527-4.735Zm9.853,12.893,4.117,4.231,7.132-6.941,2.617,2.689L131.1,382.277l4.706,4.835,3.207-12.243a8.438,8.438,0,0,0,9.925-1.834c4.8-4.676,3.415-10.032-.673-14.233l-7.411-7.614Zm14.814-6.181,6.134-5.97,3.177,3.263c1.97,2.025,2.568,4.15.271,6.385-2.266,2.206-4.376,1.671-6.405-.414Zm12.048,31.03,4.751,3.5,13.947-18.9,6.583,4.858,3.079-4.174L157.607,368.1l-3.08,4.173,6.583,4.858Zm28.785,18.4c5.843,2.927,11.9,2.047,15.145-4.437l8.2-16.359-5.277-2.645-8.047,16.058c-1.87,3.732-4.171,4.371-7.639,2.633-3.5-1.756-4.408-4-2.538-7.733l8.046-16.058-5.277-2.644-8.2,16.359C167.112,406.09,170.03,411.466,175.948,414.432Zm16.322,7.3,5.451,1.638,2.651-3.254,10.659,3.2,0.418,4.176,5.936,1.784-4.232-31.473-0.485-.145Zm11.42-5.769,2.986-3.637c1.337-1.667,3.007-4.291,3.083-4.4,0,0.306-.034,3.335.187,5.383l0.487,4.68Zm21.752,14.645,18.748,2.33,0.64-5.147-12.889-1.6,2.9-23.31-5.859-.728Zm55.045,1.233a13.494,13.494,0,0,0,11.1-7.761l-4.953-2.569c-1.287,2.626-3.118,4.64-6.8,5.1-5.147.643-9.128-2.983-9.792-8.3s2.313-9.724,7.46-10.367a7.817,7.817,0,0,1,7.37,2.862l4.08-3.74c-3.049-3.656-6.961-5.037-12.108-4.394A14.7,14.7,0,1,0,280.487,431.844Zm16.989-3.022,5.436-1.688,0.38-4.179,10.629-3.3,2.681,3.23,5.919-1.838-21.1-23.734-0.483.15Zm6.245-11.166,0.444-4.684c0.177-2.13.095-5.239,0.1-5.373,0.168,0.257,1.836,2.785,3.163,4.36l3.02,3.61Zm26.26,0.074,5.248-2.7-4.557-8.847,3.336-1.719,9.73,6.182,6-3.089-10.773-6.641a8.439,8.439,0,0,0,1.143-10.028c-3.07-5.961-8.6-6.2-13.809-3.512l-9.447,4.866Zm-1.588-15.974-3.92-7.609,4.049-2.086c2.511-1.294,4.718-1.245,6.186,1.6,1.448,2.812.32,4.674-2.266,6.006Zm28.493,1.089,15.662-11.733-3.11-4.152L358.5,395.153l-4-5.333,9.215-6.9-3.035-4.051-9.215,6.9-3.944-5.266,10.464-7.839-3.111-4.152-15.189,11.379Z" transform="translate(-80.969 -65.594)"/>
  <path id="Ellipse_3_copy_3" data-name="Ellipse 3 copy 3" class="cls-2" d="M99.817,319.758a176.4,176.4,0,1,1,281.819,50.435" transform="translate(-80.969 -65.594)"/>
</svg>
