<svg id="Layer_1" data-name="Layer 1" xmlns="http://www.w3.org/2000/svg" viewBox="0 0 411 63"><defs><style>.cls-1{fill:#fbf8ec;}</style></defs><title>artB</title><path class="cls-1" d="M28.9,52.33,27,43.82H16.49l-1.91,8.51H4L15.37,5.61H28.63L39.92,52.33Zm-7-36.56h-.26l-4,19.86h8Z"/><path class="cls-1" d="M63.51,52.33,57.27,33.72h-3.1V52.33H44V5.61H59q6.78,0,10.54,3.53t3.75,10.52a16.76,16.76,0,0,1-.59,4.62,12.84,12.84,0,0,1-1.55,3.5A9.73,9.73,0,0,1,69,30.16a8.55,8.55,0,0,1-2.3,1.32l8,20.85Zm-.62-32.07a7.28,7.28,0,0,0-.5-2.91,4.82,4.82,0,0,0-1.29-1.78,4.19,4.19,0,0,0-1.74-.89,8.26,8.26,0,0,0-1.88-.23H54.17V26.26h3.11a5.88,5.88,0,0,0,3.92-1.42Q62.9,23.43,62.89,20.26Z"/><path class="cls-1" d="M94,14.58V52.33H83.68V14.58H75.1v-9h27.52v9Z"/><path class="cls-1" d="M142.62,52.33a23.51,23.51,0,0,1-7.46,1.06,16.52,16.52,0,0,1-13.76-6.77,23.26,23.26,0,0,1-3.7-7.68,36.1,36.1,0,0,1-1.29-10,36.37,36.37,0,0,1,1.29-10,24.73,24.73,0,0,1,3.66-7.79,16.92,16.92,0,0,1,5.71-5,15.6,15.6,0,0,1,7.43-1.78A17.48,17.48,0,0,1,142.45,6,14.26,14.26,0,0,1,147.5,10l-5.74,7.72a7.6,7.6,0,0,0-6.5-3.3,6.25,6.25,0,0,0-3.78,1.15,9.24,9.24,0,0,0-2.65,3.14,15.89,15.89,0,0,0-1.56,4.62,30.43,30.43,0,0,0-.49,5.61,32.34,32.34,0,0,0,.46,5.61,16.18,16.18,0,0,0,1.49,4.62,9.31,9.31,0,0,0,2.59,3.17,6,6,0,0,0,3.75,1.19,6.14,6.14,0,0,0,3.72-1V33.85h-5V24.68H148V49.56A18.24,18.24,0,0,1,142.62,52.33Z"/><path class="cls-1" d="M176,52.33l-1.91-8.51H163.6l-1.91,8.51H151.13L162.48,5.61h13.27L187,52.33Zm-7-36.56h-.26l-4,19.86h8Z"/><path class="cls-1" d="M191.12,52.33V5.61h10.7v37h12.47v9.76Z"/><path class="cls-1" d="M219,52.33V5.61h10.69v37h12.48v9.76Z"/><path class="cls-1" d="M247,52.33V5.61h22.57v9.3H257.06v9.17h11.48V32.8H257.06v10h13.26v9.5Z"/><path class="cls-1" d="M296,52.33l-6.25-18.61h-3.09V52.33H276.53V5.61h15q6.78,0,10.53,3.53t3.76,10.52a16.37,16.37,0,0,1-.6,4.62,12.84,12.84,0,0,1-1.54,3.5,9.93,9.93,0,0,1-2.14,2.38,8.7,8.7,0,0,1-2.3,1.32l8,20.85Zm-.63-32.07a7.29,7.29,0,0,0-.49-2.91,4.82,4.82,0,0,0-1.29-1.78,4.22,4.22,0,0,0-1.75-.89,8.19,8.19,0,0,0-1.88-.23h-3.3V26.26h3.1a5.88,5.88,0,0,0,3.93-1.42Q295.4,23.43,295.4,20.26Z"/><path class="cls-1" d="M312.23,52.33V5.61h10.63V52.33Z"/><path class="cls-1" d="M331.17,52.33V5.61h22.58v9.3H341.27v9.17h11.48V32.8H341.27v10h13.27v9.5Z"/><path class="cls-1" d="M380.08,16.76a8.43,8.43,0,0,0-2.77-2.15,7.65,7.65,0,0,0-3.3-.75,5,5,0,0,0-3.2,1.12,4.43,4.43,0,0,0-1.42,3.7,4.21,4.21,0,0,0,1.45,3.41,24,24,0,0,0,4.29,2.67c1.06.53,2.18,1.16,3.35,1.89a15.45,15.45,0,0,1,3.23,2.68,13.37,13.37,0,0,1,2.42,3.8,13.12,13.12,0,0,1,1,5.25A17.19,17.19,0,0,1,383.9,45a13.13,13.13,0,0,1-7.9,7.6,16,16,0,0,1-5.49,1A18.21,18.21,0,0,1,362.82,52a18.8,18.8,0,0,1-5.58-3.69l5.42-7.92a12.18,12.18,0,0,0,3.49,2.54,9.12,9.12,0,0,0,4,1,4.48,4.48,0,0,0,3.23-1.25,4.58,4.58,0,0,0,1.32-3.5,4.54,4.54,0,0,0-1.58-3.66,23.6,23.6,0,0,0-4.62-2.87,29.8,29.8,0,0,1-3.6-2.05,13.36,13.36,0,0,1-3-2.7,11.88,11.88,0,0,1-2-3.7,15.32,15.32,0,0,1-.73-5,15.91,15.91,0,0,1,1.29-6.69,13.17,13.17,0,0,1,3.37-4.59,13.67,13.67,0,0,1,4.62-2.64,15.89,15.89,0,0,1,5.11-.86,17.92,17.92,0,0,1,6.86,1.25A14.45,14.45,0,0,1,385.56,9Z"/></svg>