<svg id="Layer_1" data-name="Layer 1" xmlns="http://www.w3.org/2000/svg" viewBox="0 0 461 63"><defs><style>.cls-1{fill:#fbf8ec;}</style></defs><title>commuteB</title><path class="cls-1" d="M27.51,16.76a8.43,8.43,0,0,0-2.77-2.15,7.65,7.65,0,0,0-3.3-.75A5,5,0,0,0,18.24,15a4.43,4.43,0,0,0-1.42,3.7,4.21,4.21,0,0,0,1.45,3.41,24,24,0,0,0,4.29,2.67q1.59.79,3.36,1.89a15.66,15.66,0,0,1,3.22,2.68,13.37,13.37,0,0,1,2.42,3.8,13,13,0,0,1,1,5.25A17.19,17.19,0,0,1,31.33,45a13.13,13.13,0,0,1-7.9,7.6,16,16,0,0,1-5.49,1A18.21,18.21,0,0,1,10.25,52a18.62,18.62,0,0,1-5.57-3.69l5.41-7.92a12.32,12.32,0,0,0,3.49,2.54,9.19,9.19,0,0,0,4,1,4.52,4.52,0,0,0,3.24-1.25,4.62,4.62,0,0,0,1.32-3.5,4.55,4.55,0,0,0-1.59-3.66A23.6,23.6,0,0,0,16,32.6a30.59,30.59,0,0,1-3.6-2.05,13.36,13.36,0,0,1-3-2.7,12.09,12.09,0,0,1-2-3.7,15.61,15.61,0,0,1-.72-5,15.91,15.91,0,0,1,1.28-6.69,13.17,13.17,0,0,1,3.37-4.59,13.67,13.67,0,0,1,4.62-2.64A15.93,15.93,0,0,1,21,4.35,18,18,0,0,1,27.91,5.6,14.5,14.5,0,0,1,33,9Z"/><path class="cls-1" d="M58,52.33V32.8H47.11V52.33H36.62V5.61H47.11V23.29H58V5.61H68.5V52.33Z"/><path class="cls-1" d="M108.16,28.84A38.66,38.66,0,0,1,106.91,39a24.51,24.51,0,0,1-3.57,7.82,16.37,16.37,0,0,1-5.64,5,16.65,16.65,0,0,1-15,0,16.37,16.37,0,0,1-5.64-5A24.51,24.51,0,0,1,73.51,39a38.66,38.66,0,0,1-1.25-10.13,38.81,38.81,0,0,1,1.22-10.07A23.47,23.47,0,0,1,77,11.05a16.26,16.26,0,0,1,5.64-5,16,16,0,0,1,7.56-1.75A15.82,15.82,0,0,1,97.7,6.1a16.26,16.26,0,0,1,5.64,5,24.14,24.14,0,0,1,3.57,7.72A37.93,37.93,0,0,1,108.16,28.84Zm-10.82,0a33.23,33.23,0,0,0-.46-5.65,18.25,18.25,0,0,0-1.36-4.52,8.44,8.44,0,0,0-2.21-3,4.7,4.7,0,0,0-3.1-1.09,4.81,4.81,0,0,0-3.13,1.09,8.28,8.28,0,0,0-2.25,3,17.87,17.87,0,0,0-1.32,4.52,34.41,34.41,0,0,0-.43,5.65,34.92,34.92,0,0,0,.43,5.67,17.83,17.83,0,0,0,1.32,4.56,8.49,8.49,0,0,0,2.25,3,4.74,4.74,0,0,0,3.13,1.13,4.63,4.63,0,0,0,3.1-1.13,8.66,8.66,0,0,0,2.21-3,18.2,18.2,0,0,0,1.36-4.56A33.73,33.73,0,0,0,97.34,28.84Z"/><path class="cls-1" d="M131.43,52.33l-6.25-18.61h-3.09V52.33H111.92V5.61h15q6.78,0,10.54,3.53t3.75,10.52a16.76,16.76,0,0,1-.59,4.62,12.55,12.55,0,0,1-1.55,3.5,9.7,9.7,0,0,1-2.13,2.38,8.59,8.59,0,0,1-2.31,1.32l8,20.85Zm-.63-32.07a7.29,7.29,0,0,0-.49-2.91A4.82,4.82,0,0,0,129,15.57a4.22,4.22,0,0,0-1.75-.89,8.26,8.26,0,0,0-1.88-.23h-3.3V26.26h3.1a5.88,5.88,0,0,0,3.93-1.42Q130.8,23.43,130.8,20.26Z"/><path class="cls-1" d="M160.63,14.58V52.33H150.27V14.58h-8.58v-9h27.52v9Z"/><path class="cls-1" d="M201.82,51.77a15.52,15.52,0,0,1-7.92,1.82,15.28,15.28,0,0,1-7.43-1.82,17.24,17.24,0,0,1-5.71-5.08,25.11,25.11,0,0,1-3.69-7.79A35.29,35.29,0,0,1,175.75,29a35.91,35.91,0,0,1,1.32-10,24.68,24.68,0,0,1,3.69-7.79,17,17,0,0,1,5.71-5,15.6,15.6,0,0,1,7.43-1.78A16.42,16.42,0,0,1,201.72,6a15.45,15.45,0,0,1,5.05,4.2l-5.68,7.65a10,10,0,0,0-2.67-2.51,7,7,0,0,0-3.73-.92A6,6,0,0,0,191,15.57a9.33,9.33,0,0,0-2.65,3.07,15.78,15.78,0,0,0-1.61,4.62,29.62,29.62,0,0,0-.53,5.71,29.15,29.15,0,0,0,.53,5.68,16.21,16.21,0,0,0,1.61,4.62,9.19,9.19,0,0,0,2.68,3.1,6.2,6.2,0,0,0,3.69,1.12,6.48,6.48,0,0,0,3.7-1.06A8.45,8.45,0,0,0,201,39.92l5.87,7.33A15.75,15.75,0,0,1,201.82,51.77Z"/><path class="cls-1" d="M243.33,28.84A38.66,38.66,0,0,1,242.08,39a24.51,24.51,0,0,1-3.57,7.82,16.37,16.37,0,0,1-5.64,5,16.65,16.65,0,0,1-15,0,16.31,16.31,0,0,1-5.65-5A24.29,24.29,0,0,1,208.68,39a38.24,38.24,0,0,1-1.25-10.13,38.38,38.38,0,0,1,1.22-10.07,23.47,23.47,0,0,1,3.53-7.72,16.26,16.26,0,0,1,5.64-5,17.05,17.05,0,0,1,15.05,0,16.26,16.26,0,0,1,5.64,5,24.14,24.14,0,0,1,3.57,7.72A37.93,37.93,0,0,1,243.33,28.84Zm-10.82,0a32.2,32.2,0,0,0-.47-5.65,18.26,18.26,0,0,0-1.35-4.52,8.44,8.44,0,0,0-2.21-3,4.7,4.7,0,0,0-3.1-1.09,4.84,4.84,0,0,0-3.14,1.09,8.26,8.26,0,0,0-2.24,3,17.09,17.09,0,0,0-1.32,4.52,34.41,34.41,0,0,0-.43,5.65,34.92,34.92,0,0,0,.43,5.67A17.06,17.06,0,0,0,220,39.07a8.47,8.47,0,0,0,2.24,3,4.77,4.77,0,0,0,3.14,1.13,4.63,4.63,0,0,0,3.1-1.13,8.66,8.66,0,0,0,2.21-3A18.21,18.21,0,0,0,232,34.51,32.69,32.69,0,0,0,232.51,28.84Z"/><path class="cls-1" d="M279.3,52.33l.4-32.07h-.27l-7.85,32.07h-7.46l-7.59-32.07h-.2l.33,32.07h-9.57V5.61h13.33L268,35.7h.26l7.33-30.09h14.12V52.33Z"/><path class="cls-1" d="M326.89,52.33l.39-32.07H327l-7.86,32.07h-7.45l-7.59-32.07h-.2l.33,32.07h-9.57V5.61H308l7.52,30.09h.27l7.32-30.09h14.13V52.33Z"/><path class="cls-1" d="M372.19,42.3a16.39,16.39,0,0,1-2.8,5.87,13.26,13.26,0,0,1-4.95,4,16.84,16.84,0,0,1-7.33,1.46,16.39,16.39,0,0,1-7.26-1.46,13.09,13.09,0,0,1-4.85-4,16.07,16.07,0,0,1-2.7-5.87,30.39,30.39,0,0,1-.83-7.26V5.61H352.1V34.12a26.66,26.66,0,0,0,.23,3.69,9.65,9.65,0,0,0,.82,2.94,5.3,5.3,0,0,0,1.59,2,5,5,0,0,0,5.15,0,5.28,5.28,0,0,0,1.58-2,9.37,9.37,0,0,0,.82-2.94,26.6,26.6,0,0,0,.24-3.69V5.61h10.56V35A28,28,0,0,1,372.19,42.3Z"/><path class="cls-1" d="M393.35,14.58V52.33H383V14.58H374.4v-9h27.53v9Z"/><path class="cls-1" d="M404,52.33V5.61h22.57v9.3H414.14v9.17h11.48V32.8H414.14v10H427.4v9.5Z"/></svg>