<svg id="Layer_1" data-name="Layer 1" xmlns="http://www.w3.org/2000/svg" viewBox="0 0 411 63"><defs><style>.cls-1{fill:#fbf8ec;}</style></defs><title>dogL</title><path class="cls-1" d="M36.35,29a38.61,38.61,0,0,1-1.18,10.09,21,21,0,0,1-3.43,7.3,14.68,14.68,0,0,1-5.38,4.42,16.1,16.1,0,0,1-7,1.48h-10V5.61h10.1a16.05,16.05,0,0,1,7,1.48,14.33,14.33,0,0,1,5.35,4.45,21.88,21.88,0,0,1,3.4,7.36A39.12,39.12,0,0,1,36.35,29ZM31.8,29a34.47,34.47,0,0,0-1-8.65,18.23,18.23,0,0,0-2.64-6.06,11.14,11.14,0,0,0-4-3.57,10.33,10.33,0,0,0-4.91-1.19H13.92v38.8h5.41a10.33,10.33,0,0,0,4.91-1.19,11.08,11.08,0,0,0,4-3.58,18.09,18.09,0,0,0,2.64-6A33.77,33.77,0,0,0,31.8,29Z"/><path class="cls-1" d="M74,28.9a44.17,44.17,0,0,1-1,10,26.36,26.36,0,0,1-3,7.76,15,15,0,0,1-4.82,5,11.89,11.89,0,0,1-6.46,1.79,12,12,0,0,1-6.5-1.79,15.14,15.14,0,0,1-4.89-5,25.83,25.83,0,0,1-3.07-7.76,44.17,44.17,0,0,1-1-10,45.16,45.16,0,0,1,1-9.93,25.08,25.08,0,0,1,3-7.72,14.94,14.94,0,0,1,4.85-5A12.34,12.34,0,0,1,58.6,4.48a11.89,11.89,0,0,1,6.46,1.79,15,15,0,0,1,4.82,5,25.88,25.88,0,0,1,3,7.72A43.91,43.91,0,0,1,74,28.9Zm-4.81,0A46.14,46.14,0,0,0,68.5,21a23.72,23.72,0,0,0-2-6.4,12.64,12.64,0,0,0-3.33-4.29A7.12,7.12,0,0,0,58.6,8.71a7.43,7.43,0,0,0-4.72,1.58,12.07,12.07,0,0,0-3.34,4.29,24.47,24.47,0,0,0-2,6.4,45.16,45.16,0,0,0-.66,7.92,45,45,0,0,0,.66,7.92,25.39,25.39,0,0,0,2,6.47,11.92,11.92,0,0,0,3.34,4.36,7.43,7.43,0,0,0,4.72,1.58,7.21,7.21,0,0,0,4.62-1.58,12.17,12.17,0,0,0,3.3-4.36,25.39,25.39,0,0,0,2-6.47A46,46,0,0,0,69.16,28.9Z"/><path class="cls-1" d="M103.64,52.17a18.42,18.42,0,0,1-6.43,1,14.26,14.26,0,0,1-7-1.71A14.9,14.9,0,0,1,85,46.59a24.31,24.31,0,0,1-3.24-7.65,41.41,41.41,0,0,1-1.12-10,40.88,40.88,0,0,1,1.09-9.7,26.24,26.24,0,0,1,3.13-7.75,15.77,15.77,0,0,1,5-5.12,12.49,12.49,0,0,1,6.73-1.85,14.14,14.14,0,0,1,6.27,1.39,11.76,11.76,0,0,1,4.75,4.36l-3,3a10.55,10.55,0,0,0-3.53-3.46,8.53,8.53,0,0,0-4.32-1.16,8,8,0,0,0-5,1.62,12.71,12.71,0,0,0-3.53,4.39,23.92,23.92,0,0,0-2.11,6.43,42.22,42.22,0,0,0-.69,7.82A42.24,42.24,0,0,0,86.18,37a22.09,22.09,0,0,0,2.21,6.36,12.16,12.16,0,0,0,3.7,4.2A8.82,8.82,0,0,0,97.21,49,12.4,12.4,0,0,0,101,48.5,7.64,7.64,0,0,0,103.81,47V31.15H97.14v-4h11.15V49.44A14.36,14.36,0,0,1,103.64,52.17Z"/><path class="cls-1" d="M153.11,18.28a15.75,15.75,0,0,1-1,5.71,12.35,12.35,0,0,1-2.54,4.12A10.74,10.74,0,0,1,146,30.62a11.3,11.3,0,0,1-4.33.86h-6.86V52.33H130.2V5.61h11a15.07,15.07,0,0,1,4.15.59,9.9,9.9,0,0,1,3.83,2.08A11,11,0,0,1,152,12.21,15,15,0,0,1,153.11,18.28Zm-4.56,0a12.13,12.13,0,0,0-.59-4,7.31,7.31,0,0,0-1.65-2.73,6.66,6.66,0,0,0-2.41-1.54A8.48,8.48,0,0,0,141,9.57h-6.2v18H141a7.15,7.15,0,0,0,5.31-2.27C147.82,23.74,148.55,21.42,148.55,18.31Z"/><path class="cls-1" d="M177.79,52.33,175,40.65H160.56l-3,11.68h-4.68L164.79,5.61h6.27l11.55,46.72ZM168,9.76h-.27L161.22,37h13.07Z"/><path class="cls-1" d="M207.42,52.33,199,30.69h-6V52.33h-4.55V5.61h11.22a15.69,15.69,0,0,1,4.45.62,10.15,10.15,0,0,1,3.83,2.08,10.41,10.41,0,0,1,2.7,3.83,14.52,14.52,0,0,1,1,5.81,15.5,15.5,0,0,1-.76,5.11,11.68,11.68,0,0,1-2,3.6,9.13,9.13,0,0,1-2.71,2.24,8.69,8.69,0,0,1-2.93,1l9.1,22.44Zm-.26-34.15a11,11,0,0,0-.69-4.18,7,7,0,0,0-1.85-2.66A6.57,6.57,0,0,0,202,10a12,12,0,0,0-3.07-.39H193V27.06h6.14A7.63,7.63,0,0,0,205,24.72,9.35,9.35,0,0,0,207.16,18.18Z"/><path class="cls-1" d="M240,52.33,224.45,28.38h-.06v24h-4.56V5.61h4.56v21h.06l14.65-21h5.35L228.74,27.19l16.83,25.14Z"/><path class="cls-1" d="M271.91,40.39A15.23,15.23,0,0,1,271,45.9,12,12,0,0,1,268.44,50a10.94,10.94,0,0,1-3.79,2.57,12,12,0,0,1-4.62.9,14.37,14.37,0,0,1-6.57-1.52,13.44,13.44,0,0,1-4.85-4l2.84-3.23A10.36,10.36,0,0,0,255.27,48,10.2,10.2,0,0,0,260,49.23,7.07,7.07,0,0,0,265.27,47a8.92,8.92,0,0,0,2.15-6.41,8.69,8.69,0,0,0-.66-3.49A9.5,9.5,0,0,0,265,34.38a14.17,14.17,0,0,0-2.55-2.11,29,29,0,0,0-3-1.72,29.43,29.43,0,0,1-3.63-2.08,14.49,14.49,0,0,1-3-2.67,12.19,12.19,0,0,1-2.08-3.6,13.51,13.51,0,0,1-.79-4.85,14.8,14.8,0,0,1,1-5.64,11.64,11.64,0,0,1,2.67-4,11,11,0,0,1,3.8-2.4,12.41,12.41,0,0,1,4.42-.8,14.5,14.5,0,0,1,5.71,1.09A10.3,10.3,0,0,1,271.77,9l-2.83,3.24a7.8,7.8,0,0,0-3.11-2.74,9.11,9.11,0,0,0-3.89-.83,7.94,7.94,0,0,0-2.74.5,6.56,6.56,0,0,0-2.41,1.55,7.92,7.92,0,0,0-1.71,2.7,10.47,10.47,0,0,0-.66,3.9,9,9,0,0,0,.59,3.43,8.43,8.43,0,0,0,1.62,2.57,11.44,11.44,0,0,0,2.37,2,30.82,30.82,0,0,0,2.81,1.59A35.88,35.88,0,0,1,265.47,29a17.38,17.38,0,0,1,3.27,2.77,12.18,12.18,0,0,1,2.31,3.7A13.15,13.15,0,0,1,271.91,40.39Z"/></svg>