<svg id="Layer_1" data-name="Layer 1" xmlns="http://www.w3.org/2000/svg" viewBox="0 0 411 63"><defs><style>.cls-1{fill:#fbf8ec;}</style></defs><title>festivalsB</title><path class="cls-1" d="M18.8,15.11v9.57H30v9H18.87V52.33H8.17V5.6H30.94v9.51Z"/><path class="cls-1" d="M36.68,52.33V5.6H59.26v9.31H46.78v9.17H58.27V32.8H46.78v10H60.05v9.5Z"/><path class="cls-1" d="M85.59,16.76a8.33,8.33,0,0,0-2.77-2.15,7.66,7.66,0,0,0-3.3-.76A5,5,0,0,0,76.32,15a4.43,4.43,0,0,0-1.42,3.7,4.21,4.21,0,0,0,1.45,3.41,24,24,0,0,0,4.29,2.67q1.59.79,3.36,1.89a15.61,15.61,0,0,1,3.22,2.67,13.56,13.56,0,0,1,2.42,3.81,12.92,12.92,0,0,1,1,5.25A17.19,17.19,0,0,1,89.41,45a13.13,13.13,0,0,1-7.9,7.6,16,16,0,0,1-5.49,1A18.21,18.21,0,0,1,68.33,52a18.8,18.8,0,0,1-5.58-3.69l5.42-7.92a12.09,12.09,0,0,0,3.5,2.54,9.08,9.08,0,0,0,4,1,4.48,4.48,0,0,0,3.23-1.25,4.59,4.59,0,0,0,1.33-3.5,4.55,4.55,0,0,0-1.59-3.66A23.6,23.6,0,0,0,74,32.6a30.59,30.59,0,0,1-3.6-2.05,13.36,13.36,0,0,1-3-2.7,12.09,12.09,0,0,1-2-3.7,15.59,15.59,0,0,1-.73-5A15.91,15.91,0,0,1,66,12.44a13.17,13.17,0,0,1,3.37-4.59A13.67,13.67,0,0,1,74,5.21a15.93,15.93,0,0,1,5.11-.86A18,18,0,0,1,86,5.6,14.5,14.5,0,0,1,91.07,9Z"/><path class="cls-1" d="M111,14.58V52.33H100.64V14.58H92.06v-9h27.52v9Z"/><path class="cls-1" d="M123.67,52.33V5.6H134.3V52.33Z"/><path class="cls-1" d="M163.07,52.33h-13.4L138.39,5.6h11.94l6.34,34.19h.13L163.07,5.6h11.49Z"/><path class="cls-1" d="M198.58,52.33l-1.91-8.51h-10.5l-1.91,8.51H173.7L185.05,5.6h13.27L209.6,52.33Zm-7-36.56h-.26l-4,19.86h8Z"/><path class="cls-1" d="M213.7,52.33V5.6h10.69v37h12.47v9.77Z"/><path class="cls-1" d="M261,16.76a8.43,8.43,0,0,0-2.77-2.15,7.66,7.66,0,0,0-3.3-.76,5,5,0,0,0-3.2,1.13,4.43,4.43,0,0,0-1.42,3.7,4.21,4.21,0,0,0,1.45,3.41A24,24,0,0,0,256,24.76c1.06.53,2.18,1.16,3.35,1.89a15.4,15.4,0,0,1,3.23,2.67A13.56,13.56,0,0,1,265,33.13a13.09,13.09,0,0,1,1,5.25,17.19,17.19,0,0,1-1.2,6.65,13.13,13.13,0,0,1-7.9,7.6,16,16,0,0,1-5.49,1A18.21,18.21,0,0,1,243.69,52a18.8,18.8,0,0,1-5.58-3.69l5.42-7.92A12.18,12.18,0,0,0,247,42.93a9.16,9.16,0,0,0,4,1,4.48,4.48,0,0,0,3.23-1.25,4.58,4.58,0,0,0,1.32-3.5A4.54,4.54,0,0,0,254,35.47a23.6,23.6,0,0,0-4.62-2.87,29.8,29.8,0,0,1-3.6-2.05,13.36,13.36,0,0,1-3-2.7,12.09,12.09,0,0,1-2-3.7,15.32,15.32,0,0,1-.73-5,15.91,15.91,0,0,1,1.29-6.69,13.17,13.17,0,0,1,3.37-4.59,13.67,13.67,0,0,1,4.62-2.64,15.93,15.93,0,0,1,5.11-.86,18,18,0,0,1,6.87,1.25A14.5,14.5,0,0,1,266.43,9Z"/></svg>