<svg id="Layer_1" data-name="Layer 1" xmlns="http://www.w3.org/2000/svg" viewBox="0 0 411 63"><defs><style>.cls-1{fill:#fbf8ec;}</style></defs><title>festivalsL</title><path class="cls-1" d="M13.92,9.76V26.53H27.05v4H13.92V52.33H9.36V5.6H28V9.76Z"/><path class="cls-1" d="M35.5,52.33V5.6H54.31V9.7H40V26.06h13.4v4H40V48.17H55v4.16Z"/><path class="cls-1" d="M83.35,40.39a15.23,15.23,0,0,1-.93,5.51A12,12,0,0,1,79.88,50a10.94,10.94,0,0,1-3.79,2.57,12,12,0,0,1-4.62.9,14.37,14.37,0,0,1-6.57-1.52,13.44,13.44,0,0,1-4.85-4l2.84-3.23A10.36,10.36,0,0,0,66.71,48a10.2,10.2,0,0,0,4.69,1.19A7.07,7.07,0,0,0,76.71,47a8.92,8.92,0,0,0,2.15-6.41,8.69,8.69,0,0,0-.66-3.49,9.3,9.3,0,0,0-1.78-2.71,14.46,14.46,0,0,0-2.54-2.11,30.21,30.21,0,0,0-3-1.72,29.43,29.43,0,0,1-3.63-2.08,14.78,14.78,0,0,1-3-2.67,12.19,12.19,0,0,1-2.08-3.6,13.51,13.51,0,0,1-.79-4.85,14.8,14.8,0,0,1,1-5.64,11.64,11.64,0,0,1,2.67-4,11.15,11.15,0,0,1,3.8-2.41,12.67,12.67,0,0,1,4.42-.79A14.5,14.5,0,0,1,79,5.57,10.3,10.3,0,0,1,83.21,9l-2.83,3.24a7.78,7.78,0,0,0-3.1-2.74,9.18,9.18,0,0,0-3.9-.83,7.94,7.94,0,0,0-2.74.5,6.56,6.56,0,0,0-2.41,1.55,7.92,7.92,0,0,0-1.71,2.7,10.47,10.47,0,0,0-.66,3.9,9.15,9.15,0,0,0,.59,3.43,8.62,8.62,0,0,0,1.62,2.57,11.44,11.44,0,0,0,2.37,2,32.23,32.23,0,0,0,2.81,1.59A35.88,35.88,0,0,1,76.91,29a17.38,17.38,0,0,1,3.27,2.77,12.18,12.18,0,0,1,2.31,3.7A13.15,13.15,0,0,1,83.35,40.39Z"/><path class="cls-1" d="M99.52,9.56V52.33H95V9.56H86v-4h22.57v4Z"/><path class="cls-1" d="M113.9,52.33V5.6h4.62V52.33Z"/><path class="cls-1" d="M141.82,52.33h-6L124.27,5.6h5l9.64,41.52h.13L148.69,5.6h4.88Z"/><path class="cls-1" d="M178.52,52.33l-2.84-11.68H161.29l-3,11.68h-4.68L165.52,5.6h6.27l11.55,46.73ZM168.68,9.76h-.26L162,37H175Z"/><path class="cls-1" d="M189.14,52.33V5.6h4.62V48h13.33v4.29Z"/><path class="cls-1" d="M233,40.39A15.23,15.23,0,0,1,232,45.9,12,12,0,0,1,229.5,50a10.94,10.94,0,0,1-3.79,2.57,12,12,0,0,1-4.62.9,14.37,14.37,0,0,1-6.57-1.52,13.44,13.44,0,0,1-4.85-4l2.84-3.23A10.36,10.36,0,0,0,216.33,48,10.2,10.2,0,0,0,221,49.23,7.07,7.07,0,0,0,226.33,47a8.92,8.92,0,0,0,2.15-6.41,8.69,8.69,0,0,0-.66-3.49A9.5,9.5,0,0,0,226,34.38a14.46,14.46,0,0,0-2.54-2.11,30.21,30.21,0,0,0-3-1.72,29.43,29.43,0,0,1-3.63-2.08,14.78,14.78,0,0,1-3-2.67,12.19,12.19,0,0,1-2.08-3.6,13.51,13.51,0,0,1-.79-4.85,14.8,14.8,0,0,1,1-5.64,11.64,11.64,0,0,1,2.67-4,11.15,11.15,0,0,1,3.8-2.41,12.63,12.63,0,0,1,4.42-.79,14.5,14.5,0,0,1,5.71,1.09A10.3,10.3,0,0,1,232.83,9L230,12.21a7.73,7.73,0,0,0-3.11-2.74A9.11,9.11,0,0,0,223,8.64a7.94,7.94,0,0,0-2.74.5,6.56,6.56,0,0,0-2.41,1.55,7.92,7.92,0,0,0-1.71,2.7,10.47,10.47,0,0,0-.66,3.9,9,9,0,0,0,.59,3.43,8.43,8.43,0,0,0,1.62,2.57,11.44,11.44,0,0,0,2.37,2,30.82,30.82,0,0,0,2.81,1.59A35.88,35.88,0,0,1,226.53,29a17.38,17.38,0,0,1,3.27,2.77,12.18,12.18,0,0,1,2.31,3.7A13.15,13.15,0,0,1,233,40.39Z"/></svg>