<svg id="Layer_1" data-name="Layer 1" xmlns="http://www.w3.org/2000/svg" viewBox="0 0 411 63"><defs><style>.cls-1{fill:#fbf8ec;}</style></defs><title>lightrailL</title><path class="cls-1" d="M9.36,52.33V5.6H14V48H27.31v4.29Z"/><path class="cls-1" d="M32.92,52.33V5.6h4.62V52.33Z"/><path class="cls-1" d="M69.19,52.17a18.44,18.44,0,0,1-6.44,1,14.25,14.25,0,0,1-7-1.71,15,15,0,0,1-5.22-4.89,24.54,24.54,0,0,1-3.23-7.65,41.41,41.41,0,0,1-1.12-10,40.88,40.88,0,0,1,1.09-9.7,26,26,0,0,1,3.13-7.75,15.77,15.77,0,0,1,5-5.12,12.49,12.49,0,0,1,6.73-1.85,14,14,0,0,1,6.27,1.39,11.76,11.76,0,0,1,4.75,4.36l-3,3A10.55,10.55,0,0,0,66.68,9.8a8.53,8.53,0,0,0-4.32-1.16,8,8,0,0,0-5,1.62,12.71,12.71,0,0,0-3.53,4.39,23.58,23.58,0,0,0-2.11,6.43A42.22,42.22,0,0,0,51,28.9,42.24,42.24,0,0,0,51.73,37a21.8,21.8,0,0,0,2.21,6.36,12.16,12.16,0,0,0,3.7,4.2A8.81,8.81,0,0,0,62.75,49a12.42,12.42,0,0,0,3.8-.53A7.51,7.51,0,0,0,69.35,47V31.15H62.69v-4H73.84V49.44A14.47,14.47,0,0,1,69.19,52.17Z"/><path class="cls-1" d="M106.05,52.33V30.16H88.16V52.33H83.54V5.6h4.62V26.06h17.89V5.6h4.62V52.33Z"/><path class="cls-1" d="M129.55,9.56V52.33H125V9.56h-9v-4h22.57v4Z"/><path class="cls-1" d="M173.57,52.33l-8.45-21.64h-6V52.33h-4.55V5.6h11.22a15.81,15.81,0,0,1,4.46.63,10.18,10.18,0,0,1,3.82,2.08,10.43,10.43,0,0,1,2.71,3.83,14.71,14.71,0,0,1,1,5.81,15.24,15.24,0,0,1-.76,5.11,11.28,11.28,0,0,1-2,3.6,9,9,0,0,1-2.7,2.24,8.67,8.67,0,0,1-2.94,1l9.11,22.44Zm-.27-34.15a11,11,0,0,0-.69-4.18,6.92,6.92,0,0,0-1.85-2.66A6.57,6.57,0,0,0,168.12,10a12,12,0,0,0-3.07-.4h-5.94v17.5h6.14a7.62,7.62,0,0,0,5.91-2.34A9.3,9.3,0,0,0,173.3,18.18Z"/><path class="cls-1" d="M206,52.33l-2.83-11.68H188.75l-3,11.68h-4.69L193,5.6h6.27l11.55,46.73ZM196.14,9.76h-.26L189.41,37h13.07Z"/><path class="cls-1" d="M216.6,52.33V5.6h4.62V52.33Z"/><path class="cls-1" d="M231.91,52.33V5.6h4.62V48h13.33v4.29Z"/></svg>