<svg id="Layer_1" data-name="Layer 1" xmlns="http://www.w3.org/2000/svg" viewBox="0 0 411 63"><defs><style>.cls-1{fill:#fbf8ec;}</style></defs><title>musicL</title><path class="cls-1" d="M9.36,52.33V5.61H14V48H27.31v4.29Z"/><path class="cls-1" d="M32.92,52.33V5.61h4.62V52.33Z"/><path class="cls-1" d="M60.84,52.33h-6L43.28,5.61h5l9.64,41.51h.13L67.71,5.61h4.88Z"/><path class="cls-1" d="M78.33,52.33V5.61H97.14V9.7H82.82V26.07h13.4v4H82.82V48.17h15v4.16Z"/><path class="cls-1" d="M150,52.33V11.74h-.2L138.35,52.33h-4.28L122.68,11.74h-.2V52.33h-4.35V5.61H125l11.16,39.46h.26l11-39.46h7.13V52.33Z"/><path class="cls-1" d="M190.69,42.8a16.48,16.48,0,0,1-2.24,5.57,10.82,10.82,0,0,1-4.12,3.73A13.54,13.54,0,0,1,178,53.46a13.29,13.29,0,0,1-6.3-1.36,10.91,10.91,0,0,1-4.1-3.73,16.05,16.05,0,0,1-2.21-5.57,33.85,33.85,0,0,1-.66-6.84V5.61h4.62V35.37a34.23,34.23,0,0,0,.37,5.08A14.74,14.74,0,0,0,171,44.91,8,8,0,0,0,173.67,48a8.62,8.62,0,0,0,8.74,0,8,8,0,0,0,2.67-3.13,14.74,14.74,0,0,0,1.32-4.42,34.18,34.18,0,0,0,.37-5.12V5.61h4.62V36A31.77,31.77,0,0,1,190.69,42.8Z"/><path class="cls-1" d="M221.81,40.39a15.45,15.45,0,0,1-.92,5.51A12.27,12.27,0,0,1,218.35,50a11,11,0,0,1-3.8,2.57,12,12,0,0,1-4.62.9,14.36,14.36,0,0,1-6.56-1.52,13.47,13.47,0,0,1-4.86-4l2.84-3.23A10.39,10.39,0,0,0,205.18,48a10.17,10.17,0,0,0,4.69,1.19A7.07,7.07,0,0,0,215.18,47a8.91,8.91,0,0,0,2.14-6.41,8.69,8.69,0,0,0-.66-3.49,9.3,9.3,0,0,0-1.78-2.71,14.1,14.1,0,0,0-2.54-2.11,31.21,31.21,0,0,0-3-1.72,28,28,0,0,1-3.63-2.08,14,14,0,0,1-3-2.67,12,12,0,0,1-2.08-3.6,13.51,13.51,0,0,1-.8-4.85,14.8,14.8,0,0,1,1-5.64,11.66,11.66,0,0,1,2.68-4,10.94,10.94,0,0,1,3.79-2.4,12.45,12.45,0,0,1,4.42-.8,14.43,14.43,0,0,1,5.71,1.09A10.26,10.26,0,0,1,221.68,9l-2.84,3.24a7.71,7.71,0,0,0-3.1-2.74,9.17,9.17,0,0,0-3.89-.83,7.9,7.9,0,0,0-2.74.5,6.48,6.48,0,0,0-2.41,1.55,7.79,7.79,0,0,0-1.72,2.7,10.47,10.47,0,0,0-.66,3.9,9,9,0,0,0,.6,3.43,8.4,8.4,0,0,0,1.61,2.57,11.5,11.5,0,0,0,2.38,2,32.05,32.05,0,0,0,2.8,1.59A35,35,0,0,1,215.38,29a17,17,0,0,1,3.26,2.77,12.18,12.18,0,0,1,2.31,3.7A13,13,0,0,1,221.81,40.39Z"/><path class="cls-1" d="M230.19,52.33V5.61h4.62V52.33Z"/><path class="cls-1" d="M265.9,51.81a12.6,12.6,0,0,1-6.4,1.65,12.4,12.4,0,0,1-6.8-1.89,16.14,16.14,0,0,1-5-5.14,26.15,26.15,0,0,1-3.13-7.76,40.82,40.82,0,0,1-1.09-9.7,41.17,41.17,0,0,1,1.09-9.77,25.24,25.24,0,0,1,3.17-7.75,16,16,0,0,1,5.05-5.12,12.49,12.49,0,0,1,6.73-1.85,14.08,14.08,0,0,1,6.17,1.39,11.71,11.71,0,0,1,4.78,4.36l-3,3A10.26,10.26,0,0,0,264,9.83a8.58,8.58,0,0,0-4.25-1.12,8.3,8.3,0,0,0-5,1.58,12.28,12.28,0,0,0-3.57,4.36A23.87,23.87,0,0,0,249,21.12a42.71,42.71,0,0,0-.69,7.85,40.51,40.51,0,0,0,.72,7.82,24.72,24.72,0,0,0,2.15,6.44,12.41,12.41,0,0,0,3.56,4.38,8.14,8.14,0,0,0,5,1.62,7.82,7.82,0,0,0,4.56-1.42,11.22,11.22,0,0,0,3.36-3.73l2.9,3A13.12,13.12,0,0,1,265.9,51.81Z"/></svg>