<svg id="Layer_1" data-name="Layer 1" xmlns="http://www.w3.org/2000/svg" viewBox="0 0 411 63"><defs><style>.cls-1{fill:#fbf8ec;}</style></defs><title>seattleB</title><path class="cls-1" d="M27.51,16.76a8.43,8.43,0,0,0-2.77-2.15,7.65,7.65,0,0,0-3.3-.75A5,5,0,0,0,18.24,15a4.43,4.43,0,0,0-1.42,3.7,4.21,4.21,0,0,0,1.45,3.41,24,24,0,0,0,4.29,2.67q1.59.79,3.36,1.89a15.66,15.66,0,0,1,3.22,2.68,13.37,13.37,0,0,1,2.42,3.8,13,13,0,0,1,1,5.25A17.19,17.19,0,0,1,31.33,45a13.13,13.13,0,0,1-7.9,7.6,16,16,0,0,1-5.49,1A18.21,18.21,0,0,1,10.25,52a18.62,18.62,0,0,1-5.57-3.69l5.41-7.92a12.32,12.32,0,0,0,3.49,2.54,9.19,9.19,0,0,0,4,1,4.52,4.52,0,0,0,3.24-1.25,4.62,4.62,0,0,0,1.32-3.5,4.55,4.55,0,0,0-1.59-3.66A23.6,23.6,0,0,0,16,32.6a30.59,30.59,0,0,1-3.6-2.05,13.36,13.36,0,0,1-3-2.7,12.09,12.09,0,0,1-2-3.7,15.61,15.61,0,0,1-.72-5,15.91,15.91,0,0,1,1.28-6.69,13.17,13.17,0,0,1,3.37-4.59,13.67,13.67,0,0,1,4.62-2.64A15.93,15.93,0,0,1,21,4.35,18,18,0,0,1,27.91,5.6,14.5,14.5,0,0,1,33,9Z"/><path class="cls-1" d="M38.6,52.33V5.61H61.17v9.3H48.7v9.17H60.18V32.8H48.7v10H62v9.5Z"/><path class="cls-1" d="M88.89,52.33,87,43.82H76.48l-1.91,8.51H64L75.36,5.61H88.63L99.91,52.33Zm-7-36.56h-.26l-4,19.86h8Z"/><path class="cls-1" d="M117.54,14.58V52.33H107.17V14.58H98.59v-9h27.53v9Z"/><path class="cls-1" d="M144.92,14.58V52.33H134.56V14.58H126v-9H153.5v9Z"/><path class="cls-1" d="M157.6,52.33V5.61h10.69v37h12.47v9.76Z"/><path class="cls-1" d="M185.51,52.33V5.61h22.58v9.3H195.61v9.17H207.1V32.8H195.61v10h13.27v9.5Z"/><path class="cls-1" d="M225.44,47a6,6,0,0,1-1.58,4.22,5.62,5.62,0,0,1-8.09,0A6.07,6.07,0,0,1,214.22,47a6.26,6.26,0,0,1,1.55-4.23,5.49,5.49,0,0,1,8.09,0A6.14,6.14,0,0,1,225.44,47Z"/><path class="cls-1" d="M257.06,51.77a15.52,15.52,0,0,1-7.92,1.82,15.28,15.28,0,0,1-7.43-1.82A17.24,17.24,0,0,1,236,46.69a25.11,25.11,0,0,1-3.69-7.79A35.29,35.29,0,0,1,231,29a35.91,35.91,0,0,1,1.32-10A24.68,24.68,0,0,1,236,11.15a17,17,0,0,1,5.71-5,15.6,15.6,0,0,1,7.43-1.78A16.42,16.42,0,0,1,257,6a15.45,15.45,0,0,1,5.05,4.2l-5.68,7.65a10,10,0,0,0-2.67-2.51,7,7,0,0,0-3.73-.92,6,6,0,0,0-3.66,1.12,9.19,9.19,0,0,0-2.64,3.07A15.5,15.5,0,0,0,242,23.26a29.62,29.62,0,0,0-.53,5.71,29.15,29.15,0,0,0,.53,5.68,15.91,15.91,0,0,0,1.62,4.62,9.06,9.06,0,0,0,2.67,3.1,6.23,6.23,0,0,0,3.7,1.12,6.47,6.47,0,0,0,3.69-1.06,8.45,8.45,0,0,0,2.51-2.51l5.87,7.33A15.75,15.75,0,0,1,257.06,51.77Z"/><path class="cls-1" d="M299.89,28.84A38.66,38.66,0,0,1,298.64,39a24.51,24.51,0,0,1-3.57,7.82,16.37,16.37,0,0,1-5.64,5,16.65,16.65,0,0,1-15,0,16.4,16.4,0,0,1-5.65-5A24.5,24.5,0,0,1,265.24,39,38.66,38.66,0,0,1,264,28.84a38.38,38.38,0,0,1,1.22-10.07,23.47,23.47,0,0,1,3.53-7.72,16.26,16.26,0,0,1,5.64-5,17.05,17.05,0,0,1,15.05,0,16.26,16.26,0,0,1,5.64,5,24.14,24.14,0,0,1,3.57,7.72A37.93,37.93,0,0,1,299.89,28.84Zm-10.82,0a33.23,33.23,0,0,0-.46-5.65,18.25,18.25,0,0,0-1.36-4.52,8.44,8.44,0,0,0-2.21-3,4.7,4.7,0,0,0-3.1-1.09,4.86,4.86,0,0,0-3.14,1.09,8.26,8.26,0,0,0-2.24,3,17.87,17.87,0,0,0-1.32,4.52,34.41,34.41,0,0,0-.43,5.65,34.92,34.92,0,0,0,.43,5.67,17.83,17.83,0,0,0,1.32,4.56,8.47,8.47,0,0,0,2.24,3,4.79,4.79,0,0,0,3.14,1.13A4.63,4.63,0,0,0,285,42.1a8.66,8.66,0,0,0,2.21-3,18.2,18.2,0,0,0,1.36-4.56A33.73,33.73,0,0,0,289.07,28.84Z"/><path class="cls-1" d="M338.5,52.33l.4-32.07h-.27l-7.85,32.07h-7.46l-7.59-32.07h-.2l.33,32.07h-9.57V5.61h13.33l7.53,30.09h.26l7.33-30.09h14.12V52.33Z"/></svg>