<svg id="_728x90A_copy2b.svg" data-name="728x90A/copy2b.svg" xmlns="http://www.w3.org/2000/svg" width="364.34" height="369.344" viewBox="0 0 364.34 369.344">
  <defs>
    <style>
      .cls-1 {
        fill: none;
        stroke: #fff;
        stroke-width: 3px;
      }

      .cls-1, .cls-2 {
        fill-rule: evenodd;
      }

      .cls-2 {
        fill: #fff;
      }
    </style>
  </defs>
  <path id="Ellipse_3_copy_2" data-name="Ellipse 3 copy 2" class="cls-1" d="M2897.28,260.329q0.06,2.374.06,4.765a176.39,176.39,0,0,1-352.78,0" transform="translate(-2537.5 -73.625)"/>
  <path id="your_weight-Loss_journey." data-name="your weight-Loss journey." class="cls-2" d="M2901.84,231.4l-0.63-4.609-8.46,1.161L2878,222.649l0.64,4.707,6.46,2.178c1.75,0.594,4.42,1.159,4.42,1.159s-2.48,1.339-3.93,2.372l-5.62,3.967,0.7,5.132,13.03-9.646Zm-5.06-26.449a11.516,11.516,0,1,0-7.94,14.3A11.358,11.358,0,0,0,2896.78,204.953Zm-3.97,1.118c1.11,3.939-1.22,7.474-5.25,8.609s-7.87-.666-8.98-4.605,1.22-7.474,5.26-8.609S2891.7,202.132,2892.81,206.071Zm-5.62-27.271c-2.12-4.653-6.25-7.089-11.41-4.732l-13.03,5.947,1.92,4.2,12.79-5.837c2.97-1.357,4.69-.616,5.95,2.146,1.27,2.792.72,4.6-2.25,5.96l-12.79,5.837,1.91,4.2,13.03-5.946C2888.48,188.224,2889.34,183.514,2887.19,178.8Zm-7.87-15.021-2.48-3.9-6.57,4.178-1.57-2.478,4.13-8.022-2.84-4.456-4.41,8.867a6.608,6.608,0,0,0-7.9-.181c-4.43,2.814-4.22,7.14-1.76,11.011l4.46,7.018Zm-12.34,2.368-5.65,3.594-1.91-3.008c-1.19-1.866-1.3-3.59.81-4.935,2.09-1.328,3.62-.58,4.84,1.341ZM2854.91,130.5l-0.33-.325-11.35,3.983c-1.26.471-3.14,1.388-3.24,1.435,0.09-.187,1-1.988,1.44-3.226l4.04-11.24-0.32-.326-21.74,10.321,3.18,3.163,8.65-4.114c1.46-.682,3.58-1.973,3.7-2.043a28.3,28.3,0,0,0-1.88,3.857l-3.37,9.628,0.33,0.325,9.55-3.487a26.686,26.686,0,0,0,3.85-1.9c-0.12.21-1.35,2.291-2.02,3.717l-4.03,8.7,3.46,3.443Zm-20.96-18.949-12.46-8.9-2.36,3.3,8.7,6.216-3.03,4.243-7.33-5.237-2.31,3.222,7.33,5.237-2.99,4.189-8.32-5.947-2.36,3.3,12.08,8.632Zm-19.1-12.826-4.01-2.3L2799.69,115.9l4,2.3Zm-21.38-11.079a14.62,14.62,0,0,0-8.95-1.022l-3.98,9.211,8.85,3.822,1.61-3.727-4.97-2.147,1.44-3.333a11.046,11.046,0,0,1,4.36.983,6.982,6.982,0,0,1,3.88,9.732c-1.66,3.848-5.33,5.679-9.05,4.069a6.232,6.232,0,0,1-3.8-3.868l-4.1,1.605c0.85,2.672,2.89,4.628,6.25,6.08a11.033,11.033,0,0,0,15.07-6C2802.71,96.959,2800.19,90.55,2793.47,87.645Zm-15.31-5.6-4.46-1.18-2.26,8.517-9.28-2.453,2.25-8.517-4.46-1.18-5.74,21.692,4.47,1.18,2.43-9.187,9.28,2.453-2.43,9.187,4.47,1.18Zm-31.2-6.817-4.58-.557-2.22,18.25-6.36-.772-0.49,4.03,17.3,2.1,0.49-4.03-6.35-.772Zm-14.71,5.612-8.24-.236-0.11,3.958,8.24,0.236Zm-14.87-7.227-14.75,1.05,0.29,4.05,10.14-.722,1.31,18.339,4.61-.328Zm-31.16,3.594a11.517,11.517,0,1,0,13.74,8.877A11.358,11.358,0,0,0,2686.22,77.205Zm0.85,4.036c4-.843,7.38,1.718,8.24,5.819s-1.19,7.8-5.2,8.647-7.37-1.718-8.23-5.819S2683.07,82.085,2687.07,81.242Zm-25.04,2.846c-4.13,1.492-6.42,4.744-5.01,8.655,1.31,3.631,3.98,4.493,8.24,4.74l1.25,0.073c2.16,0.134,3.16.37,3.63,1.673a2.015,2.015,0,0,1-1.41,2.614,3.134,3.134,0,0,1-3.46-.852l-2.6,3.4a6.817,6.817,0,0,0,7.43,1.243c3.88-1.4,5.46-4.783,4.29-8.041-1.28-3.538-3.97-4.462-7.58-4.663l-1.26-.073c-2.3-.151-3.67-0.252-4.21-1.742-0.45-1.241.38-2.556,2.18-3.207a5.017,5.017,0,0,1,5.23,1.089l2.8-3.327C2669.37,83.611,2666.07,82.629,2662.03,84.088Zm-19.34,8.3c-3.93,1.962-5.83,5.459-3.98,9.179,1.73,3.454,4.47,4,8.74,3.75l1.25-.073c2.16-.118,3.18,0,3.8,1.24a2.015,2.015,0,0,1-1.1,2.76,3.145,3.145,0,0,1-3.54-.444l-2.18,3.675a6.814,6.814,0,0,0,7.52.37c3.69-1.844,4.88-5.386,3.33-8.485-1.69-3.365-4.46-3.971-8.08-3.75l-1.25.073c-2.3.118-3.67,0.177-4.38-1.24-0.59-1.181.07-2.583,1.78-3.438a5.031,5.031,0,0,1,5.33.473l2.39-3.63C2649.92,91.057,2646.52,90.466,2642.69,92.384ZM2616.9,108.06c-3.29,2.426-4.26,5.843-1.42,9.7l9.35,12.706,3.72-2.739-9.31-12.653c-1.37-1.861-.95-2.907.27-3.807,1.28-.939,2.45-0.453,3.8.153l1.68-4.064A7.178,7.178,0,0,0,2616.9,108.06Zm-19.51,16.45a11.515,11.515,0,1,0,16.35.163A11.355,11.355,0,0,0,2597.39,124.51Zm2.87,2.958c2.94-2.852,7.16-2.489,10.08.517s3.16,7.232.23,10.084-7.16,2.488-10.08-.517S2597.33,130.319,2600.26,127.468Zm-21.28,17.962c-3.11,4.062-3.32,8.845,1.19,12.294l11.37,8.7,2.81-3.669-11.16-8.543c-2.6-1.985-2.75-3.848-.9-6.259,1.86-2.437,3.72-2.8,6.31-.816l11.17,8.543,2.8-3.669-11.37-8.7C2586.69,139.862,2582.13,141.316,2578.98,145.43Zm-10.17,13.56-2.45,3.917,6.61,4.132-1.56,2.491-9.02-.272-2.8,4.477,9.9,0.163a6.6,6.6,0,0,0,3.24,7.206c4.45,2.785,8.26.733,10.7-3.156l4.41-7.05Zm7.46,10.116,5.68,3.555-1.89,3.022c-1.18,1.874-2.68,2.723-4.81,1.392-2.1-1.313-2.08-3.017-.87-4.947Zm-27.29,26.884-0.18.422,20.69,9.184,1.75-3.951-8.59-3.816c-1.42-.629-3.86-1.388-3.86-1.388a31.629,31.629,0,0,0,3.87-1.168l14.31-6.036,0.18-.422-20.69-9.184-1.75,3.952,8.59,3.815a39.646,39.646,0,0,0,3.88,1.359,33.333,33.333,0,0,0-3.89,1.2Zm-2.64,8.085-4.25,14.7,3.89,1.129,2.98-10.268,5,1.449-2.5,8.652,3.8,1.1,2.51-8.652,4.94,1.431-2.84,9.825,3.89,1.128,4.13-14.261Zm-6.74,27.668-0.71,4.6,8.45,1.3,12.63,9.295,0.72-4.7-5.57-3.932c-1.51-1.067-3.91-2.373-3.91-2.373s2.76-.575,4.45-1.149l6.52-2.2,0.79-5.121L2547.73,233Zm-2.09,15.9a2.788,2.788,0,1,0,3-2.588A2.75,2.75,0,0,0,2537.51,247.647Z" transform="translate(-2537.5 -73.625)"/>
</svg>
