<svg id="_728x90A_copy2a.svg" data-name="728x90A/copy2a.svg" xmlns="http://www.w3.org/2000/svg" width="357.25" height="368.656" viewBox="0 0 357.25 368.656">
  <defs>
    <style>
      .cls-1 {
        fill: none;
        stroke: #fff;
        stroke-width: 3px;
      }

      .cls-1, .cls-2 {
        fill-rule: evenodd;
      }

      .cls-2 {
        fill: #fff;
      }
    </style>
  </defs>
  <path id="Ellipse_3_copy_2" data-name="Ellipse 3 copy 2" class="cls-1" d="M2456.23,210.956a176.392,176.392,0,1,1-336.29-36.009" transform="translate(-2104.84 -52.219)"/>
  <path id="FOR_EVERY_STEP_of" data-name="FOR EVERY STEP of" class="cls-2" d="M2462.1,197.251l-1.43-5.728-10.43,2.6-2.76-11.089-5.12,1.275,2.77,11.089-7.25,1.805-3.04-12.193-5.03,1.255,4.47,17.921Zm-12.34-39.164a14.716,14.716,0,1,0-7.33,19.575A14.52,14.52,0,0,0,2449.76,158.087Zm-4.81,2.163c2.15,4.768-.13,9.677-5.01,11.874s-10.07.645-12.22-4.124,0.14-9.677,5.02-11.874S2442.81,155.481,2444.95,160.25Zm-6.63-23.43-3.4-4.827-8.13,5.729-2.16-3.069,4.78-10.487-3.88-5.517-5.1,11.583a8.441,8.441,0,0,0-10.09.245c-5.48,3.86-4.95,9.369-1.58,14.162l6.12,8.688Zm-15.6,3.766-7,4.928-2.62-3.723c-1.63-2.311-1.88-4.5.74-6.348,2.58-1.821,4.58-.96,6.26,1.42Zm-12.23-38.125L2395.7,89.652l-3.4,3.92,10.33,8.944-4.36,5.036-8.7-7.536-3.31,3.824,8.7,7.537-4.31,4.972-9.88-8.558-3.4,3.92,14.35,12.423Zm-31.33-24.136-0.51-.307L2352.9,96.211l4.9,2.978,9.84-6.944a51.645,51.645,0,0,0,5.25-4.41c-0.09.39-1.13,4.2-1.47,6.709l-1.52,12,5.41,3.284Zm-18.81-9.983-18.19-7.217-1.91,4.821,12.7,5.039-2.46,6.193-10.7-4.246-1.87,4.7,10.71,4.246L2346.2,88l-12.15-4.821L2332.14,88l17.63,7Zm-27.49-10.054-5.77-1.233-2.08,9.734-3.67-.784-3.62-10.949-6.6-1.409,4.13,11.965a8.427,8.427,0,0,0-7.23,7.037c-1.4,6.558,2.73,10.243,8.46,11.467l10.39,2.219Zm-8.89,13.368-1.79,8.373-4.45-.951c-2.77-.59-4.44-2.026-3.77-5.161,0.66-3.093,2.71-3.82,5.55-3.212Zm-27.89-19.162-5.94-.265-0.49,10.913-10.06,17.325,6.07,0.271,4.22-7.622c1.15-2.06,2.47-5.293,2.47-5.293s1.12,3.427,2.08,5.5l3.7,7.975,6.61,0.3-9.13-18.6Zm-44.95,2.632c-5.51,1.07-9.05,4.722-8.04,9.938,0.95,4.843,4.14,6.457,9.47,7.611l1.57,0.339c2.69,0.594,3.91,1.088,4.25,2.827a2.576,2.576,0,0,1-2.3,3.023c-1.65.322-2.86-.173-4.2-1.76l-3.95,3.774c2.55,2.983,5.45,3.751,9.14,3.035,5.17-1.005,7.84-4.96,6.99-9.307-0.91-4.719-4.12-6.415-8.65-7.383l-1.57-.339c-2.87-.644-4.58-1.042-4.97-3.029-0.32-1.656.98-3.154,3.38-3.62,2.86-.555,4.76.621,6.4,2.408l4.18-3.649C2260.49,55.972,2256.51,54.081,2251.13,55.127Zm-23.4,6.559-5.56,1.982,7.89,22.127-7.71,2.746,1.74,4.886,20.98-7.473-1.75-4.886-7.7,2.746Zm-21.04,8.362-17.14,9.441,2.5,4.542,11.97-6.592,3.21,5.835-10.08,5.555,2.44,4.432,10.09-5.555,3.17,5.761-11.45,6.308,2.5,4.543,16.62-9.157ZM2181.45,84.89l-4.63,3.654,5.82,7.387-3.28,2.584c-4.58,3.6-6.56,8.923-2.41,14.191s9.73,4.577,14.33.949l7.92-6.239Zm4.4,15.117,5.5,6.99-3.14,2.48c-2.22,1.748-4.5,1.989-6.49-.529-1.95-2.485-1.31-4.66.98-6.461Zm-46.26,23.463a14.72,14.72,0,1,0,20.81-2A14.519,14.519,0,0,0,2139.59,123.469Zm4.05,3.372c3.35-4.02,8.76-4.126,12.88-.7s4.99,8.766,1.65,12.786-8.76,4.126-12.88.7S2140.3,130.861,2143.64,126.841Zm-18.05,16.25-2.89,5.149,9.38,5.258-5.58,9.968,4.59,2.578,5.59-9.968,6.51,3.649-6.14,10.962,4.52,2.536,9.03-16.111Z" transform="translate(-2104.84 -52.219)"/>
</svg>
