<svg id="copy1.svg" xmlns="http://www.w3.org/2000/svg" width="355.781" height="366.781" viewBox="0 0 355.781 366.781">
  <defs>
    <style>
      .cls-1 {
        fill: none;
        stroke: #fff;
        stroke-width: 3px;
      }

      .cls-1, .cls-2 {
        fill-rule: evenodd;
      }

      .cls-2 {
        fill: #fff;
      }
    </style>
  </defs>
  <path id="Ellipse_3_copy_9" data-name="Ellipse 3 copy 9" class="cls-1" d="M419.017,171.747a176.411,176.411,0,1,1-293.832-32.834" transform="translate(-83.5 -62.125)"/>
  <path id="GAIN_SUPPORT" data-name="GAIN SUPPORT" class="cls-2" d="M155.242,132.445a18.647,18.647,0,0,0,5.8-9.929l-8.722-9.393-9.022,8.378,3.529,3.8,5.067-4.7,3.156,3.4a14.129,14.129,0,0,1-3.392,4.589c-4.418,4.1-9.735,3.458-13.379-.466s-3.9-9.154-.1-12.683a7.941,7.941,0,0,1,6.476-2.446l0.238-5.63c-3.567-.371-6.9,1-10.329,4.183-6.334,5.881-6.5,14.5-.737,20.708S148.382,138.815,155.242,132.445Zm10.6-9.925,4.818-3.032-0.711-4.136,9.421-5.929,3.422,2.429,5.246-3.3-26.5-17.493-0.429.269Zm3.157-12.4-0.779-4.641c-0.378-2.1-1.259-5.086-1.29-5.216,0.228,0.2,2.492,2.218,4.18,3.4l3.848,2.709Zm23.651-3.306,5.365-2.465L186.046,78.288l-5.366,2.465Zm33.7-11.927,0.565-.172-8.414-27.681-5.286,1.607,3.5,11.5c0.577,1.9,1.884,4.893,1.884,4.893a40.814,40.814,0,0,0-4.368-2.771l-17.79-8.786-0.565.172,8.414,27.681,5.286-1.607-3.5-11.5a50.52,50.52,0,0,0-1.924-4.881,42.528,42.528,0,0,0,4.409,2.759Zm25.593-3.2c5.6-.352,9.58-3.517,9.247-8.819-0.309-4.923-3.266-6.934-8.408-8.766l-1.513-.539c-2.594-.936-3.733-1.582-3.844-3.35a2.569,2.569,0,0,1,2.661-2.7c1.683-.106,2.822.541,3.946,2.287l4.4-3.234c-2.15-3.287-4.925-4.422-8.67-4.187-5.261.33-8.416,3.908-8.138,8.327,0.3,4.8,3.263,6.892,7.627,8.435l1.513,0.539c2.767,1.009,4.411,1.624,4.538,3.644,0.106,1.683-1.375,3-3.815,3.155-2.9.183-4.64-1.229-6.032-3.212l-4.623,3.079C242.779,89.649,246.478,92.035,251.949,91.692Zm26.64,0.567c6.5,0.689,11.861-2.263,12.626-9.476l1.93-18.2-5.872-.623-1.894,17.867c-0.44,4.152-2.371,5.559-6.229,5.15-3.9-.413-5.535-2.2-5.095-6.35l1.894-17.867-5.872-.623-1.929,18.2C267.383,87.551,272.005,91.561,278.589,92.259Zm18.114,2.3,5.67,1.645,2.621-9.032L309,88.339c5.59,1.622,11.07.138,12.939-6.3s-1.938-10.575-7.568-12.208l-9.681-2.809Zm9.737-12.369,2.479-8.546,3.848,1.117c2.714,0.787,4.236,2.5,3.343,5.581-0.881,3.038-3.028,3.776-5.823,2.965ZM321.7,102.412l5.325,2.548,4.06-8.482,3.766,1.8c5.248,2.512,10.9,1.943,13.791-4.1s-0.186-10.747-5.473-13.278l-9.09-4.35ZM333.322,91.8l3.841-8.026,3.613,1.729c2.549,1.219,3.77,3.16,2.387,6.051-1.365,2.853-3.6,3.231-6.228,1.975Zm22.9,30.712a14.718,14.718,0,1,0-3.206-20.656A14.522,14.522,0,0,0,356.222,122.512Zm3.129-4.242c-4.207-3.1-4.629-8.5-1.449-12.809s8.46-5.5,12.667-2.393,4.63,8.5,1.45,12.81S363.559,121.375,359.351,118.27ZM372.5,135.329l3.976,4.364,7.358-6.7,2.527,2.775-3.438,11,4.543,4.988,3.611-12.13a8.44,8.44,0,0,0,9.981-1.506c4.957-4.515,3.746-9.915-.2-14.248l-7.156-7.857Zm15.012-5.689,6.329-5.765,3.067,3.367c1.9,2.089,2.43,4.233.06,6.391-2.338,2.13-4.429,1.525-6.389-.626Zm6.138,31.346,3.21,4.955L416.57,153.17l4.448,6.866,4.354-2.82-12.106-18.687-4.354,2.82,4.448,6.866Z" transform="translate(-83.5 -62.125)"/>
</svg>
